0
SECTION
2
HEADER
9
$ACADVER
1
AC1006
9
$INSBASE
10
0.0
20
0.0
30
0.0
9
$EXTMIN
10
0.0
20
0.0
9
$EXTMAX
10
0.0
20
0.0
0
ENDSEC
0
SECTION
2
TABLES
0
TABLE
2
LTYPE
70
1
0
LTYPE
2
CONTINUOUS
70
64
3
Solid line
72
65
73
0
40
0.0
0
ENDTAB
0
TABLE
2
LAYER
70
1
0
LAYER
2
PYDXF
70
64
62
7
6
continuous
0
ENDTAB
0
TABLE
2
STYLE
70
1
0
STYLE
2
STANDARD
70
0
40
0
41
40
50
50
71
0
42
1
3
ARIAL.TTF
4

0
ENDTAB
0
TABLE
2
VIEW
70
0
0
ENDTAB
0
ENDSEC
0
SECTION
2
BLOCKS
0
ENDSEC
0
SECTION
2
ENTITIES
0
LINE
8
Lines
10
22.443
20
1.534
30
6.55
11
22.377
21
2.299
31
7.096
0
LINE
8
Lines
10
22.377
20
2.299
30
7.096
11
22.286
21
3.06
31
7.642
0
LINE
8
Lines
10
22.286
20
3.06
30
7.642
11
22.168
21
3.819
31
8.187
0
LINE
8
Lines
10
22.443
20
1.534
30
4.367
11
22.377
21
2.299
31
4.912
0
LINE
8
Lines
10
22.377
20
2.299
30
4.912
11
22.168
21
3.819
31
6.004
0
LINE
8
Lines
10
22.168
20
3.819
30
6.004
11
21.662
21
6.064
31
7.642
0
LINE
8
Lines
10
22.168
20
3.819
30
3.821
11
21.662
21
6.064
31
5.458
0
LINE
8
Lines
10
22.377
20
2.299
30
8.187
11
22.443
21
1.534
31
7.642
0
LINE
8
Lines
10
21.856
20
5.322
30
8.187
11
22.025
21
4.573
31
7.642
0
LINE
8
Lines
10
22.025
20
4.573
30
7.642
11
22.168
21
3.819
31
7.096
0
LINE
8
Lines
10
22.168
20
3.819
30
7.096
11
22.377
21
2.299
31
6.004
0
LINE
8
Lines
10
22.377
20
2.299
30
6.004
11
22.443
21
1.534
31
5.458
0
LINE
8
Lines
10
21.662
20
6.064
30
6.55
11
22.168
21
3.819
31
4.912
0
LINE
8
Lines
10
22.168
20
3.819
30
4.912
11
22.286
21
3.06
31
4.367
0
3DFACE
8
Faces
10
22.286
20
3.06
30
8.733
11
22.377
21
2.299
31
8.187
12
22.286
22
3.06
32
7.642
13
22.168
23
3.819
33
8.187
0
3DFACE
8
Faces
10
22.682
20
3.115
30
8.733
11
22.775
21
2.34
31
8.187
12
22.682
22
3.115
32
7.642
13
22.563
23
3.887
33
8.187
0
3DFACE
8
Faces
10
22.682
20
3.115
30
8.733
11
22.775
21
2.34
31
8.187
12
22.682
22
3.115
32
7.642
13
22.563
23
3.887
33
8.187
0
3DFACE
8
Faces
10
22.93
20
3.149
30
8.733
11
23.024
21
2.365
31
8.187
12
22.93
22
3.149
32
7.642
13
22.809
23
3.93
33
8.187
0
3DFACE
8
Faces
10
22.93
20
3.149
30
8.733
11
23.024
21
2.365
31
8.187
12
22.93
22
3.149
32
7.642
13
22.809
23
3.93
33
8.187
0
3DFACE
8
Faces
10
23.177
20
3.183
30
8.733
11
23.273
21
2.391
31
8.187
12
23.177
22
3.183
32
7.642
13
23.055
23
3.972
33
8.187
0
3DFACE
8
Faces
10
23.177
20
3.183
30
8.733
11
23.273
21
2.391
31
8.187
12
23.177
22
3.183
32
7.642
13
23.055
23
3.972
33
8.187
0
3DFACE
8
Faces
10
23.475
20
3.224
30
8.733
11
23.571
21
2.422
31
8.187
12
23.475
22
3.224
32
7.642
13
23.351
23
4.023
33
8.187
0
3DFACE
8
Faces
10
22.025
20
4.573
30
8.733
11
22.168
21
3.819
31
8.187
12
22.025
22
4.573
32
7.642
13
21.856
23
5.322
33
8.187
0
3DFACE
8
Faces
10
22.417
20
4.654
30
8.733
11
22.563
21
3.887
31
8.187
12
22.417
22
4.654
32
7.642
13
22.245
23
5.417
33
8.187
0
3DFACE
8
Faces
10
22.417
20
4.654
30
8.733
11
22.563
21
3.887
31
8.187
12
22.417
22
4.654
32
7.642
13
22.245
23
5.417
33
8.187
0
3DFACE
8
Faces
10
22.662
20
4.705
30
8.733
11
22.809
21
3.93
31
8.187
12
22.662
22
4.705
32
7.642
13
22.488
23
5.476
33
8.187
0
3DFACE
8
Faces
10
22.662
20
4.705
30
8.733
11
22.809
21
3.93
31
8.187
12
22.662
22
4.705
32
7.642
13
22.488
23
5.476
33
8.187
0
3DFACE
8
Faces
10
22.907
20
4.756
30
8.733
11
23.055
21
3.972
31
8.187
12
22.907
22
4.756
32
7.642
13
22.731
23
5.535
33
8.187
0
3DFACE
8
Faces
10
22.907
20
4.756
30
8.733
11
23.055
21
3.972
31
8.187
12
22.907
22
4.756
32
7.642
13
22.731
23
5.535
33
8.187
0
3DFACE
8
Faces
10
23.2
20
4.817
30
8.733
11
23.351
21
4.023
31
8.187
12
23.2
22
4.817
32
7.642
13
23.022
23
5.606
33
8.187
0
3DFACE
8
Faces
10
21.662
20
6.064
30
8.733
11
21.856
21
5.322
31
8.187
12
21.662
22
6.064
32
7.642
13
21.443
23
6.8
33
8.187
0
3DFACE
8
Faces
10
22.047
20
6.172
30
8.733
11
22.245
21
5.417
31
8.187
12
22.047
22
6.172
32
7.642
13
21.824
23
6.921
33
8.187
0
3DFACE
8
Faces
10
22.047
20
6.172
30
8.733
11
22.245
21
5.417
31
8.187
12
22.047
22
6.172
32
7.642
13
21.824
23
6.921
33
8.187
0
3DFACE
8
Faces
10
22.288
20
6.239
30
8.733
11
22.488
21
5.476
31
8.187
12
22.288
22
6.239
32
7.642
13
22.062
23
6.996
33
8.187
0
3DFACE
8
Faces
10
22.288
20
6.239
30
8.733
11
22.488
21
5.476
31
8.187
12
22.288
22
6.239
32
7.642
13
22.062
23
6.996
33
8.187
0
3DFACE
8
Faces
10
22.529
20
6.307
30
8.733
11
22.731
21
5.535
31
8.187
12
22.529
22
6.307
32
7.642
13
22.301
23
7.072
33
8.187
0
3DFACE
8
Faces
10
22.529
20
6.307
30
8.733
11
22.731
21
5.535
31
8.187
12
22.529
22
6.307
32
7.642
13
22.301
23
7.072
33
8.187
0
3DFACE
8
Faces
10
22.818
20
6.388
30
8.733
11
23.022
21
5.606
31
8.187
12
22.818
22
6.388
32
7.642
13
22.586
23
7.163
33
8.187
0
3DFACE
8
Faces
10
22.377
20
2.299
30
8.187
11
22.443
21
1.534
31
7.642
12
22.377
22
2.299
32
7.096
13
22.286
23
3.06
33
7.642
0
3DFACE
8
Faces
10
22.775
20
2.34
30
8.187
11
22.842
21
1.561
31
7.642
12
22.775
22
2.34
32
7.096
13
22.682
23
3.115
33
7.642
0
3DFACE
8
Faces
10
22.775
20
2.34
30
8.187
11
22.842
21
1.561
31
7.642
12
22.775
22
2.34
32
7.096
13
22.682
23
3.115
33
7.642
0
3DFACE
8
Faces
10
23.024
20
2.365
30
8.187
11
23.091
21
1.578
31
7.642
12
23.024
22
2.365
32
7.096
13
22.93
23
3.149
33
7.642
0
3DFACE
8
Faces
10
23.024
20
2.365
30
8.187
11
23.091
21
1.578
31
7.642
12
23.024
22
2.365
32
7.096
13
22.93
23
3.149
33
7.642
0
3DFACE
8
Faces
10
23.273
20
2.391
30
8.187
11
23.341
21
1.595
31
7.642
12
23.273
22
2.391
32
7.096
13
23.177
23
3.183
33
7.642
0
3DFACE
8
Faces
10
23.273
20
2.391
30
8.187
11
23.341
21
1.595
31
7.642
12
23.273
22
2.391
32
7.096
13
23.177
23
3.183
33
7.642
0
3DFACE
8
Faces
10
23.571
20
2.422
30
8.187
11
23.64
21
1.616
31
7.642
12
23.571
22
2.422
32
7.096
13
23.475
23
3.224
33
7.642
0
3DFACE
8
Faces
10
22.168
20
3.819
30
8.187
11
22.286
21
3.06
31
7.642
12
22.168
22
3.819
32
7.096
13
22.025
23
4.573
33
7.642
0
3DFACE
8
Faces
10
22.563
20
3.887
30
8.187
11
22.682
21
3.115
31
7.642
12
22.563
22
3.887
32
7.096
13
22.417
23
4.654
33
7.642
0
3DFACE
8
Faces
10
22.563
20
3.887
30
8.187
11
22.682
21
3.115
31
7.642
12
22.563
22
3.887
32
7.096
13
22.417
23
4.654
33
7.642
0
3DFACE
8
Faces
10
22.809
20
3.93
30
8.187
11
22.93
21
3.149
31
7.642
12
22.809
22
3.93
32
7.096
13
22.662
23
4.705
33
7.642
0
3DFACE
8
Faces
10
22.809
20
3.93
30
8.187
11
22.93
21
3.149
31
7.642
12
22.809
22
3.93
32
7.096
13
22.662
23
4.705
33
7.642
0
3DFACE
8
Faces
10
23.055
20
3.972
30
8.187
11
23.177
21
3.183
31
7.642
12
23.055
22
3.972
32
7.096
13
22.907
23
4.756
33
7.642
0
3DFACE
8
Faces
10
23.055
20
3.972
30
8.187
11
23.177
21
3.183
31
7.642
12
23.055
22
3.972
32
7.096
13
22.907
23
4.756
33
7.642
0
3DFACE
8
Faces
10
23.351
20
4.023
30
8.187
11
23.475
21
3.224
31
7.642
12
23.351
22
4.023
32
7.096
13
23.2
23
4.817
33
7.642
0
3DFACE
8
Faces
10
21.856
20
5.322
30
8.187
11
22.025
21
4.573
31
7.642
12
21.856
22
5.322
32
7.096
13
21.662
23
6.064
33
7.642
0
3DFACE
8
Faces
10
22.245
20
5.417
30
8.187
11
22.417
21
4.654
31
7.642
12
22.245
22
5.417
32
7.096
13
22.047
23
6.172
33
7.642
0
3DFACE
8
Faces
10
22.245
20
5.417
30
8.187
11
22.417
21
4.654
31
7.642
12
22.245
22
5.417
32
7.096
13
22.047
23
6.172
33
7.642
0
3DFACE
8
Faces
10
22.488
20
5.476
30
8.187
11
22.662
21
4.705
31
7.642
12
22.488
22
5.476
32
7.096
13
22.288
23
6.239
33
7.642
0
3DFACE
8
Faces
10
22.488
20
5.476
30
8.187
11
22.662
21
4.705
31
7.642
12
22.488
22
5.476
32
7.096
13
22.288
23
6.239
33
7.642
0
3DFACE
8
Faces
10
22.731
20
5.535
30
8.187
11
22.907
21
4.756
31
7.642
12
22.731
22
5.535
32
7.096
13
22.529
23
6.307
33
7.642
0
3DFACE
8
Faces
10
22.731
20
5.535
30
8.187
11
22.907
21
4.756
31
7.642
12
22.731
22
5.535
32
7.096
13
22.529
23
6.307
33
7.642
0
3DFACE
8
Faces
10
23.022
20
5.606
30
8.187
11
23.2
21
4.817
31
7.642
12
23.022
22
5.606
32
7.096
13
22.818
23
6.388
33
7.642
0
3DFACE
8
Faces
10
22.286
20
3.06
30
7.642
11
22.377
21
2.299
31
7.096
12
22.286
22
3.06
32
6.55
13
22.168
23
3.819
33
7.096
0
3DFACE
8
Faces
10
22.682
20
3.115
30
7.642
11
22.775
21
2.34
31
7.096
12
22.682
22
3.115
32
6.55
13
22.563
23
3.887
33
7.096
0
3DFACE
8
Faces
10
22.682
20
3.115
30
7.642
11
22.775
21
2.34
31
7.096
12
22.682
22
3.115
32
6.55
13
22.563
23
3.887
33
7.096
0
3DFACE
8
Faces
10
22.93
20
3.149
30
7.642
11
23.024
21
2.365
31
7.096
12
22.93
22
3.149
32
6.55
13
22.809
23
3.93
33
7.096
0
3DFACE
8
Faces
10
22.93
20
3.149
30
7.642
11
23.024
21
2.365
31
7.096
12
22.93
22
3.149
32
6.55
13
22.809
23
3.93
33
7.096
0
3DFACE
8
Faces
10
23.177
20
3.183
30
7.642
11
23.273
21
2.391
31
7.096
12
23.177
22
3.183
32
6.55
13
23.055
23
3.972
33
7.096
0
3DFACE
8
Faces
10
23.177
20
3.183
30
7.642
11
23.273
21
2.391
31
7.096
12
23.177
22
3.183
32
6.55
13
23.055
23
3.972
33
7.096
0
3DFACE
8
Faces
10
23.475
20
3.224
30
7.642
11
23.571
21
2.422
31
7.096
12
23.475
22
3.224
32
6.55
13
23.351
23
4.023
33
7.096
0
3DFACE
8
Faces
10
22.025
20
4.573
30
7.642
11
22.168
21
3.819
31
7.096
12
22.025
22
4.573
32
6.55
13
21.856
23
5.322
33
7.096
0
3DFACE
8
Faces
10
22.417
20
4.654
30
7.642
11
22.563
21
3.887
31
7.096
12
22.417
22
4.654
32
6.55
13
22.245
23
5.417
33
7.096
0
3DFACE
8
Faces
10
22.417
20
4.654
30
7.642
11
22.563
21
3.887
31
7.096
12
22.417
22
4.654
32
6.55
13
22.245
23
5.417
33
7.096
0
3DFACE
8
Faces
10
22.662
20
4.705
30
7.642
11
22.809
21
3.93
31
7.096
12
22.662
22
4.705
32
6.55
13
22.488
23
5.476
33
7.096
0
3DFACE
8
Faces
10
22.662
20
4.705
30
7.642
11
22.809
21
3.93
31
7.096
12
22.662
22
4.705
32
6.55
13
22.488
23
5.476
33
7.096
0
3DFACE
8
Faces
10
22.907
20
4.756
30
7.642
11
23.055
21
3.972
31
7.096
12
22.907
22
4.756
32
6.55
13
22.731
23
5.535
33
7.096
0
3DFACE
8
Faces
10
22.907
20
4.756
30
7.642
11
23.055
21
3.972
31
7.096
12
22.907
22
4.756
32
6.55
13
22.731
23
5.535
33
7.096
0
3DFACE
8
Faces
10
23.2
20
4.817
30
7.642
11
23.351
21
4.023
31
7.096
12
23.2
22
4.817
32
6.55
13
23.022
23
5.606
33
7.096
0
3DFACE
8
Faces
10
21.662
20
6.064
30
7.642
11
21.856
21
5.322
31
7.096
12
21.662
22
6.064
32
6.55
13
21.443
23
6.8
33
7.096
0
3DFACE
8
Faces
10
22.047
20
6.172
30
7.642
11
22.245
21
5.417
31
7.096
12
22.047
22
6.172
32
6.55
13
21.824
23
6.921
33
7.096
0
3DFACE
8
Faces
10
22.047
20
6.172
30
7.642
11
22.245
21
5.417
31
7.096
12
22.047
22
6.172
32
6.55
13
21.824
23
6.921
33
7.096
0
3DFACE
8
Faces
10
22.288
20
6.239
30
7.642
11
22.488
21
5.476
31
7.096
12
22.288
22
6.239
32
6.55
13
22.062
23
6.996
33
7.096
0
3DFACE
8
Faces
10
22.288
20
6.239
30
7.642
11
22.488
21
5.476
31
7.096
12
22.288
22
6.239
32
6.55
13
22.062
23
6.996
33
7.096
0
3DFACE
8
Faces
10
22.529
20
6.307
30
7.642
11
22.731
21
5.535
31
7.096
12
22.529
22
6.307
32
6.55
13
22.301
23
7.072
33
7.096
0
3DFACE
8
Faces
10
22.529
20
6.307
30
7.642
11
22.731
21
5.535
31
7.096
12
22.529
22
6.307
32
6.55
13
22.301
23
7.072
33
7.096
0
3DFACE
8
Faces
10
22.818
20
6.388
30
7.642
11
23.022
21
5.606
31
7.096
12
22.818
22
6.388
32
6.55
13
22.586
23
7.163
33
7.096
0
3DFACE
8
Faces
10
22.377
20
2.299
30
7.096
11
22.443
21
1.534
31
6.55
12
22.377
22
2.299
32
6.004
13
22.286
23
3.06
33
6.55
0
3DFACE
8
Faces
10
22.775
20
2.34
30
7.096
11
22.842
21
1.561
31
6.55
12
22.775
22
2.34
32
6.004
13
22.682
23
3.115
33
6.55
0
3DFACE
8
Faces
10
22.775
20
2.34
30
7.096
11
22.842
21
1.561
31
6.55
12
22.775
22
2.34
32
6.004
13
22.682
23
3.115
33
6.55
0
3DFACE
8
Faces
10
23.024
20
2.365
30
7.096
11
23.091
21
1.578
31
6.55
12
23.024
22
2.365
32
6.004
13
22.93
23
3.149
33
6.55
0
3DFACE
8
Faces
10
23.024
20
2.365
30
7.096
11
23.091
21
1.578
31
6.55
12
23.024
22
2.365
32
6.004
13
22.93
23
3.149
33
6.55
0
3DFACE
8
Faces
10
23.273
20
2.391
30
7.096
11
23.341
21
1.595
31
6.55
12
23.273
22
2.391
32
6.004
13
23.177
23
3.183
33
6.55
0
3DFACE
8
Faces
10
23.273
20
2.391
30
7.096
11
23.341
21
1.595
31
6.55
12
23.273
22
2.391
32
6.004
13
23.177
23
3.183
33
6.55
0
3DFACE
8
Faces
10
23.571
20
2.422
30
7.096
11
23.64
21
1.616
31
6.55
12
23.571
22
2.422
32
6.004
13
23.475
23
3.224
33
6.55
0
3DFACE
8
Faces
10
22.168
20
3.819
30
7.096
11
22.286
21
3.06
31
6.55
12
22.168
22
3.819
32
6.004
13
22.025
23
4.573
33
6.55
0
3DFACE
8
Faces
10
22.563
20
3.887
30
7.096
11
22.682
21
3.115
31
6.55
12
22.563
22
3.887
32
6.004
13
22.417
23
4.654
33
6.55
0
3DFACE
8
Faces
10
22.563
20
3.887
30
7.096
11
22.682
21
3.115
31
6.55
12
22.563
22
3.887
32
6.004
13
22.417
23
4.654
33
6.55
0
3DFACE
8
Faces
10
22.809
20
3.93
30
7.096
11
22.93
21
3.149
31
6.55
12
22.809
22
3.93
32
6.004
13
22.662
23
4.705
33
6.55
0
3DFACE
8
Faces
10
22.809
20
3.93
30
7.096
11
22.93
21
3.149
31
6.55
12
22.809
22
3.93
32
6.004
13
22.662
23
4.705
33
6.55
0
3DFACE
8
Faces
10
23.055
20
3.972
30
7.096
11
23.177
21
3.183
31
6.55
12
23.055
22
3.972
32
6.004
13
22.907
23
4.756
33
6.55
0
3DFACE
8
Faces
10
23.055
20
3.972
30
7.096
11
23.177
21
3.183
31
6.55
12
23.055
22
3.972
32
6.004
13
22.907
23
4.756
33
6.55
0
3DFACE
8
Faces
10
23.351
20
4.023
30
7.096
11
23.475
21
3.224
31
6.55
12
23.351
22
4.023
32
6.004
13
23.2
23
4.817
33
6.55
0
3DFACE
8
Faces
10
21.856
20
5.322
30
7.096
11
22.025
21
4.573
31
6.55
12
21.856
22
5.322
32
6.004
13
21.662
23
6.064
33
6.55
0
3DFACE
8
Faces
10
22.245
20
5.417
30
7.096
11
22.417
21
4.654
31
6.55
12
22.245
22
5.417
32
6.004
13
22.047
23
6.172
33
6.55
0
3DFACE
8
Faces
10
22.245
20
5.417
30
7.096
11
22.417
21
4.654
31
6.55
12
22.245
22
5.417
32
6.004
13
22.047
23
6.172
33
6.55
0
3DFACE
8
Faces
10
22.488
20
5.476
30
7.096
11
22.662
21
4.705
31
6.55
12
22.488
22
5.476
32
6.004
13
22.288
23
6.239
33
6.55
0
3DFACE
8
Faces
10
22.488
20
5.476
30
7.096
11
22.662
21
4.705
31
6.55
12
22.488
22
5.476
32
6.004
13
22.288
23
6.239
33
6.55
0
3DFACE
8
Faces
10
22.731
20
5.535
30
7.096
11
22.907
21
4.756
31
6.55
12
22.731
22
5.535
32
6.004
13
22.529
23
6.307
33
6.55
0
3DFACE
8
Faces
10
22.731
20
5.535
30
7.096
11
22.907
21
4.756
31
6.55
12
22.731
22
5.535
32
6.004
13
22.529
23
6.307
33
6.55
0
3DFACE
8
Faces
10
23.022
20
5.606
30
7.096
11
23.2
21
4.817
31
6.55
12
23.022
22
5.606
32
6.004
13
22.818
23
6.388
33
6.55
0
3DFACE
8
Faces
10
22.286
20
3.06
30
6.55
11
22.377
21
2.299
31
6.004
12
22.286
22
3.06
32
5.458
13
22.168
23
3.819
33
6.004
0
3DFACE
8
Faces
10
22.682
20
3.115
30
6.55
11
22.775
21
2.34
31
6.004
12
22.682
22
3.115
32
5.458
13
22.563
23
3.887
33
6.004
0
3DFACE
8
Faces
10
22.682
20
3.115
30
6.55
11
22.775
21
2.34
31
6.004
12
22.682
22
3.115
32
5.458
13
22.563
23
3.887
33
6.004
0
3DFACE
8
Faces
10
22.93
20
3.149
30
6.55
11
23.024
21
2.365
31
6.004
12
22.93
22
3.149
32
5.458
13
22.809
23
3.93
33
6.004
0
3DFACE
8
Faces
10
22.93
20
3.149
30
6.55
11
23.024
21
2.365
31
6.004
12
22.93
22
3.149
32
5.458
13
22.809
23
3.93
33
6.004
0
3DFACE
8
Faces
10
23.177
20
3.183
30
6.55
11
23.273
21
2.391
31
6.004
12
23.177
22
3.183
32
5.458
13
23.055
23
3.972
33
6.004
0
3DFACE
8
Faces
10
23.177
20
3.183
30
6.55
11
23.273
21
2.391
31
6.004
12
23.177
22
3.183
32
5.458
13
23.055
23
3.972
33
6.004
0
3DFACE
8
Faces
10
23.475
20
3.224
30
6.55
11
23.571
21
2.422
31
6.004
12
23.475
22
3.224
32
5.458
13
23.351
23
4.023
33
6.004
0
3DFACE
8
Faces
10
22.025
20
4.573
30
6.55
11
22.168
21
3.819
31
6.004
12
22.025
22
4.573
32
5.458
13
21.856
23
5.322
33
6.004
0
3DFACE
8
Faces
10
22.417
20
4.654
30
6.55
11
22.563
21
3.887
31
6.004
12
22.417
22
4.654
32
5.458
13
22.245
23
5.417
33
6.004
0
3DFACE
8
Faces
10
22.417
20
4.654
30
6.55
11
22.563
21
3.887
31
6.004
12
22.417
22
4.654
32
5.458
13
22.245
23
5.417
33
6.004
0
3DFACE
8
Faces
10
22.662
20
4.705
30
6.55
11
22.809
21
3.93
31
6.004
12
22.662
22
4.705
32
5.458
13
22.488
23
5.476
33
6.004
0
3DFACE
8
Faces
10
22.662
20
4.705
30
6.55
11
22.809
21
3.93
31
6.004
12
22.662
22
4.705
32
5.458
13
22.488
23
5.476
33
6.004
0
3DFACE
8
Faces
10
22.907
20
4.756
30
6.55
11
23.055
21
3.972
31
6.004
12
22.907
22
4.756
32
5.458
13
22.731
23
5.535
33
6.004
0
3DFACE
8
Faces
10
22.907
20
4.756
30
6.55
11
23.055
21
3.972
31
6.004
12
22.907
22
4.756
32
5.458
13
22.731
23
5.535
33
6.004
0
3DFACE
8
Faces
10
23.2
20
4.817
30
6.55
11
23.351
21
4.023
31
6.004
12
23.2
22
4.817
32
5.458
13
23.022
23
5.606
33
6.004
0
3DFACE
8
Faces
10
21.662
20
6.064
30
6.55
11
21.856
21
5.322
31
6.004
12
21.662
22
6.064
32
5.458
13
21.443
23
6.8
33
6.004
0
3DFACE
8
Faces
10
22.047
20
6.172
30
6.55
11
22.245
21
5.417
31
6.004
12
22.047
22
6.172
32
5.458
13
21.824
23
6.921
33
6.004
0
3DFACE
8
Faces
10
22.047
20
6.172
30
6.55
11
22.245
21
5.417
31
6.004
12
22.047
22
6.172
32
5.458
13
21.824
23
6.921
33
6.004
0
3DFACE
8
Faces
10
22.288
20
6.239
30
6.55
11
22.488
21
5.476
31
6.004
12
22.288
22
6.239
32
5.458
13
22.062
23
6.996
33
6.004
0
3DFACE
8
Faces
10
22.288
20
6.239
30
6.55
11
22.488
21
5.476
31
6.004
12
22.288
22
6.239
32
5.458
13
22.062
23
6.996
33
6.004
0
3DFACE
8
Faces
10
22.529
20
6.307
30
6.55
11
22.731
21
5.535
31
6.004
12
22.529
22
6.307
32
5.458
13
22.301
23
7.072
33
6.004
0
3DFACE
8
Faces
10
22.529
20
6.307
30
6.55
11
22.731
21
5.535
31
6.004
12
22.529
22
6.307
32
5.458
13
22.301
23
7.072
33
6.004
0
3DFACE
8
Faces
10
22.818
20
6.388
30
6.55
11
23.022
21
5.606
31
6.004
12
22.818
22
6.388
32
5.458
13
22.586
23
7.163
33
6.004
0
3DFACE
8
Faces
10
22.377
20
2.299
30
6.004
11
22.443
21
1.534
31
5.458
12
22.377
22
2.299
32
4.912
13
22.286
23
3.06
33
5.458
0
3DFACE
8
Faces
10
22.775
20
2.34
30
6.004
11
22.842
21
1.561
31
5.458
12
22.775
22
2.34
32
4.912
13
22.682
23
3.115
33
5.458
0
3DFACE
8
Faces
10
22.775
20
2.34
30
6.004
11
22.842
21
1.561
31
5.458
12
22.775
22
2.34
32
4.912
13
22.682
23
3.115
33
5.458
0
3DFACE
8
Faces
10
23.024
20
2.365
30
6.004
11
23.091
21
1.578
31
5.458
12
23.024
22
2.365
32
4.912
13
22.93
23
3.149
33
5.458
0
3DFACE
8
Faces
10
23.024
20
2.365
30
6.004
11
23.091
21
1.578
31
5.458
12
23.024
22
2.365
32
4.912
13
22.93
23
3.149
33
5.458
0
3DFACE
8
Faces
10
23.273
20
2.391
30
6.004
11
23.341
21
1.595
31
5.458
12
23.273
22
2.391
32
4.912
13
23.177
23
3.183
33
5.458
0
3DFACE
8
Faces
10
23.273
20
2.391
30
6.004
11
23.341
21
1.595
31
5.458
12
23.273
22
2.391
32
4.912
13
23.177
23
3.183
33
5.458
0
3DFACE
8
Faces
10
23.571
20
2.422
30
6.004
11
23.64
21
1.616
31
5.458
12
23.571
22
2.422
32
4.912
13
23.475
23
3.224
33
5.458
0
3DFACE
8
Faces
10
22.168
20
3.819
30
6.004
11
22.286
21
3.06
31
5.458
12
22.168
22
3.819
32
4.912
13
22.025
23
4.573
33
5.458
0
3DFACE
8
Faces
10
22.563
20
3.887
30
6.004
11
22.682
21
3.115
31
5.458
12
22.563
22
3.887
32
4.912
13
22.417
23
4.654
33
5.458
0
3DFACE
8
Faces
10
22.563
20
3.887
30
6.004
11
22.682
21
3.115
31
5.458
12
22.563
22
3.887
32
4.912
13
22.417
23
4.654
33
5.458
0
3DFACE
8
Faces
10
22.809
20
3.93
30
6.004
11
22.93
21
3.149
31
5.458
12
22.809
22
3.93
32
4.912
13
22.662
23
4.705
33
5.458
0
3DFACE
8
Faces
10
22.809
20
3.93
30
6.004
11
22.93
21
3.149
31
5.458
12
22.809
22
3.93
32
4.912
13
22.662
23
4.705
33
5.458
0
3DFACE
8
Faces
10
23.055
20
3.972
30
6.004
11
23.177
21
3.183
31
5.458
12
23.055
22
3.972
32
4.912
13
22.907
23
4.756
33
5.458
0
3DFACE
8
Faces
10
23.055
20
3.972
30
6.004
11
23.177
21
3.183
31
5.458
12
23.055
22
3.972
32
4.912
13
22.907
23
4.756
33
5.458
0
3DFACE
8
Faces
10
23.351
20
4.023
30
6.004
11
23.475
21
3.224
31
5.458
12
23.351
22
4.023
32
4.912
13
23.2
23
4.817
33
5.458
0
3DFACE
8
Faces
10
21.856
20
5.322
30
6.004
11
22.025
21
4.573
31
5.458
12
21.856
22
5.322
32
4.912
13
21.662
23
6.064
33
5.458
0
3DFACE
8
Faces
10
22.245
20
5.417
30
6.004
11
22.417
21
4.654
31
5.458
12
22.245
22
5.417
32
4.912
13
22.047
23
6.172
33
5.458
0
3DFACE
8
Faces
10
22.245
20
5.417
30
6.004
11
22.417
21
4.654
31
5.458
12
22.245
22
5.417
32
4.912
13
22.047
23
6.172
33
5.458
0
3DFACE
8
Faces
10
22.488
20
5.476
30
6.004
11
22.662
21
4.705
31
5.458
12
22.488
22
5.476
32
4.912
13
22.288
23
6.239
33
5.458
0
3DFACE
8
Faces
10
22.488
20
5.476
30
6.004
11
22.662
21
4.705
31
5.458
12
22.488
22
5.476
32
4.912
13
22.288
23
6.239
33
5.458
0
3DFACE
8
Faces
10
22.731
20
5.535
30
6.004
11
22.907
21
4.756
31
5.458
12
22.731
22
5.535
32
4.912
13
22.529
23
6.307
33
5.458
0
3DFACE
8
Faces
10
22.731
20
5.535
30
6.004
11
22.907
21
4.756
31
5.458
12
22.731
22
5.535
32
4.912
13
22.529
23
6.307
33
5.458
0
3DFACE
8
Faces
10
23.022
20
5.606
30
6.004
11
23.2
21
4.817
31
5.458
12
23.022
22
5.606
32
4.912
13
22.818
23
6.388
33
5.458
0
3DFACE
8
Faces
10
22.286
20
3.06
30
5.458
11
22.377
21
2.299
31
4.912
12
22.286
22
3.06
32
4.367
13
22.168
23
3.819
33
4.912
0
3DFACE
8
Faces
10
22.682
20
3.115
30
5.458
11
22.775
21
2.34
31
4.912
12
22.682
22
3.115
32
4.367
13
22.563
23
3.887
33
4.912
0
3DFACE
8
Faces
10
22.682
20
3.115
30
5.458
11
22.775
21
2.34
31
4.912
12
22.682
22
3.115
32
4.367
13
22.563
23
3.887
33
4.912
0
3DFACE
8
Faces
10
22.93
20
3.149
30
5.458
11
23.024
21
2.365
31
4.912
12
22.93
22
3.149
32
4.367
13
22.809
23
3.93
33
4.912
0
3DFACE
8
Faces
10
22.93
20
3.149
30
5.458
11
23.024
21
2.365
31
4.912
12
22.93
22
3.149
32
4.367
13
22.809
23
3.93
33
4.912
0
3DFACE
8
Faces
10
23.177
20
3.183
30
5.458
11
23.273
21
2.391
31
4.912
12
23.177
22
3.183
32
4.367
13
23.055
23
3.972
33
4.912
0
3DFACE
8
Faces
10
23.177
20
3.183
30
5.458
11
23.273
21
2.391
31
4.912
12
23.177
22
3.183
32
4.367
13
23.055
23
3.972
33
4.912
0
3DFACE
8
Faces
10
23.475
20
3.224
30
5.458
11
23.571
21
2.422
31
4.912
12
23.475
22
3.224
32
4.367
13
23.351
23
4.023
33
4.912
0
3DFACE
8
Faces
10
22.025
20
4.573
30
5.458
11
22.168
21
3.819
31
4.912
12
22.025
22
4.573
32
4.367
13
21.856
23
5.322
33
4.912
0
3DFACE
8
Faces
10
22.417
20
4.654
30
5.458
11
22.563
21
3.887
31
4.912
12
22.417
22
4.654
32
4.367
13
22.245
23
5.417
33
4.912
0
3DFACE
8
Faces
10
22.417
20
4.654
30
5.458
11
22.563
21
3.887
31
4.912
12
22.417
22
4.654
32
4.367
13
22.245
23
5.417
33
4.912
0
3DFACE
8
Faces
10
22.662
20
4.705
30
5.458
11
22.809
21
3.93
31
4.912
12
22.662
22
4.705
32
4.367
13
22.488
23
5.476
33
4.912
0
3DFACE
8
Faces
10
22.662
20
4.705
30
5.458
11
22.809
21
3.93
31
4.912
12
22.662
22
4.705
32
4.367
13
22.488
23
5.476
33
4.912
0
3DFACE
8
Faces
10
22.907
20
4.756
30
5.458
11
23.055
21
3.972
31
4.912
12
22.907
22
4.756
32
4.367
13
22.731
23
5.535
33
4.912
0
3DFACE
8
Faces
10
22.907
20
4.756
30
5.458
11
23.055
21
3.972
31
4.912
12
22.907
22
4.756
32
4.367
13
22.731
23
5.535
33
4.912
0
3DFACE
8
Faces
10
23.2
20
4.817
30
5.458
11
23.351
21
4.023
31
4.912
12
23.2
22
4.817
32
4.367
13
23.022
23
5.606
33
4.912
0
3DFACE
8
Faces
10
21.662
20
6.064
30
5.458
11
21.856
21
5.322
31
4.912
12
21.662
22
6.064
32
4.367
13
21.443
23
6.8
33
4.912
0
3DFACE
8
Faces
10
22.047
20
6.172
30
5.458
11
22.245
21
5.417
31
4.912
12
22.047
22
6.172
32
4.367
13
21.824
23
6.921
33
4.912
0
3DFACE
8
Faces
10
22.047
20
6.172
30
5.458
11
22.245
21
5.417
31
4.912
12
22.047
22
6.172
32
4.367
13
21.824
23
6.921
33
4.912
0
3DFACE
8
Faces
10
22.288
20
6.239
30
5.458
11
22.488
21
5.476
31
4.912
12
22.288
22
6.239
32
4.367
13
22.062
23
6.996
33
4.912
0
3DFACE
8
Faces
10
22.288
20
6.239
30
5.458
11
22.488
21
5.476
31
4.912
12
22.288
22
6.239
32
4.367
13
22.062
23
6.996
33
4.912
0
3DFACE
8
Faces
10
22.529
20
6.307
30
5.458
11
22.731
21
5.535
31
4.912
12
22.529
22
6.307
32
4.367
13
22.301
23
7.072
33
4.912
0
3DFACE
8
Faces
10
22.529
20
6.307
30
5.458
11
22.731
21
5.535
31
4.912
12
22.529
22
6.307
32
4.367
13
22.301
23
7.072
33
4.912
0
3DFACE
8
Faces
10
22.818
20
6.388
30
5.458
11
23.022
21
5.606
31
4.912
12
22.818
22
6.388
32
4.367
13
22.586
23
7.163
33
4.912
0
3DFACE
8
Faces
10
22.168
20
3.819
30
4.912
11
22.286
21
3.06
31
4.367
12
22.168
22
3.819
32
3.821
13
22.025
23
4.573
33
4.367
0
3DFACE
8
Faces
10
22.563
20
3.887
30
4.912
11
22.682
21
3.115
31
4.367
12
22.563
22
3.887
32
3.821
13
22.417
23
4.654
33
4.367
0
3DFACE
8
Faces
10
22.563
20
3.887
30
4.912
11
22.682
21
3.115
31
4.367
12
22.563
22
3.887
32
3.821
13
22.417
23
4.654
33
4.367
0
3DFACE
8
Faces
10
22.809
20
3.93
30
4.912
11
22.93
21
3.149
31
4.367
12
22.809
22
3.93
32
3.821
13
22.662
23
4.705
33
4.367
0
3DFACE
8
Faces
10
22.809
20
3.93
30
4.912
11
22.93
21
3.149
31
4.367
12
22.809
22
3.93
32
3.821
13
22.662
23
4.705
33
4.367
0
3DFACE
8
Faces
10
23.055
20
3.972
30
4.912
11
23.177
21
3.183
31
4.367
12
23.055
22
3.972
32
3.821
13
22.907
23
4.756
33
4.367
0
3DFACE
8
Faces
10
23.055
20
3.972
30
4.912
11
23.177
21
3.183
31
4.367
12
23.055
22
3.972
32
3.821
13
22.907
23
4.756
33
4.367
0
3DFACE
8
Faces
10
23.351
20
4.023
30
4.912
11
23.475
21
3.224
31
4.367
12
23.351
22
4.023
32
3.821
13
23.2
23
4.817
33
4.367
0
3DFACE
8
Faces
10
21.856
20
5.322
30
4.912
11
22.025
21
4.573
31
4.367
12
21.856
22
5.322
32
3.821
13
21.662
23
6.064
33
4.367
0
3DFACE
8
Faces
10
22.245
20
5.417
30
4.912
11
22.417
21
4.654
31
4.367
12
22.245
22
5.417
32
3.821
13
22.047
23
6.172
33
4.367
0
3DFACE
8
Faces
10
22.245
20
5.417
30
4.912
11
22.417
21
4.654
31
4.367
12
22.245
22
5.417
32
3.821
13
22.047
23
6.172
33
4.367
0
3DFACE
8
Faces
10
22.488
20
5.476
30
4.912
11
22.662
21
4.705
31
4.367
12
22.488
22
5.476
32
3.821
13
22.288
23
6.239
33
4.367
0
3DFACE
8
Faces
10
22.488
20
5.476
30
4.912
11
22.662
21
4.705
31
4.367
12
22.488
22
5.476
32
3.821
13
22.288
23
6.239
33
4.367
0
3DFACE
8
Faces
10
22.731
20
5.535
30
4.912
11
22.907
21
4.756
31
4.367
12
22.731
22
5.535
32
3.821
13
22.529
23
6.307
33
4.367
0
3DFACE
8
Faces
10
22.731
20
5.535
30
4.912
11
22.907
21
4.756
31
4.367
12
22.731
22
5.535
32
3.821
13
22.529
23
6.307
33
4.367
0
3DFACE
8
Faces
10
23.022
20
5.606
30
4.912
11
23.2
21
4.817
31
4.367
12
23.022
22
5.606
32
3.821
13
22.818
23
6.388
33
4.367
0
3DFACE
8
Faces
10
22.377
20
2.299
30
4.912
11
22.443
21
1.534
31
4.367
12
22.377
22
2.299
32
3.821
13
22.286
23
3.06
33
4.367
0
3DFACE
8
Faces
10
22.775
20
2.34
30
4.912
11
22.842
21
1.561
31
4.367
12
22.775
22
2.34
32
3.821
13
22.682
23
3.115
33
4.367
0
3DFACE
8
Faces
10
22.775
20
2.34
30
4.912
11
22.842
21
1.561
31
4.367
12
22.775
22
2.34
32
3.821
13
22.682
23
3.115
33
4.367
0
3DFACE
8
Faces
10
23.024
20
2.365
30
4.912
11
23.091
21
1.578
31
4.367
12
23.024
22
2.365
32
3.821
13
22.93
23
3.149
33
4.367
0
3DFACE
8
Faces
10
23.024
20
2.365
30
4.912
11
23.091
21
1.578
31
4.367
12
23.024
22
2.365
32
3.821
13
22.93
23
3.149
33
4.367
0
3DFACE
8
Faces
10
23.273
20
2.391
30
4.912
11
23.341
21
1.595
31
4.367
12
23.273
22
2.391
32
3.821
13
23.177
23
3.183
33
4.367
0
3DFACE
8
Faces
10
23.273
20
2.391
30
4.912
11
23.341
21
1.595
31
4.367
12
23.273
22
2.391
32
3.821
13
23.177
23
3.183
33
4.367
0
3DFACE
8
Faces
10
23.571
20
2.422
30
4.912
11
23.64
21
1.616
31
4.367
12
23.571
22
2.422
32
3.821
13
23.475
23
3.224
33
4.367
0
3DFACE
8
Faces
10
22.443
20
1.534
30
8.733
11
22.482
21
0.768
31
8.187
12
22.443
22
1.534
32
7.642
13
22.377
23
2.299
33
8.187
0
3DFACE
8
Faces
10
22.842
20
1.561
30
8.733
11
22.882
21
0.782
31
8.187
12
22.842
22
1.561
32
7.642
13
22.775
23
2.34
33
8.187
0
3DFACE
8
Faces
10
22.842
20
1.561
30
8.733
11
22.882
21
0.782
31
8.187
12
22.842
22
1.561
32
7.642
13
22.775
23
2.34
33
8.187
0
3DFACE
8
Faces
10
23.091
20
1.578
30
8.733
11
23.132
21
0.79
31
8.187
12
23.091
22
1.578
32
7.642
13
23.024
23
2.365
33
8.187
0
3DFACE
8
Faces
10
23.091
20
1.578
30
8.733
11
23.132
21
0.79
31
8.187
12
23.091
22
1.578
32
7.642
13
23.024
23
2.365
33
8.187
0
3DFACE
8
Faces
10
23.341
20
1.595
30
8.733
11
23.381
21
0.799
31
8.187
12
23.341
22
1.595
32
7.642
13
23.273
23
2.391
33
8.187
0
3DFACE
8
Faces
10
23.341
20
1.595
30
8.733
11
23.381
21
0.799
31
8.187
12
23.341
22
1.595
32
7.642
13
23.273
23
2.391
33
8.187
0
3DFACE
8
Faces
10
23.64
20
1.616
30
8.733
11
23.681
21
0.809
31
8.187
12
23.64
22
1.616
32
7.642
13
23.571
23
2.422
33
8.187
0
3DFACE
8
Faces
10
22.443
20
1.534
30
7.642
11
22.482
21
0.768
31
7.096
12
22.443
22
1.534
32
6.55
13
22.377
23
2.299
33
7.096
0
3DFACE
8
Faces
10
22.842
20
1.561
30
7.642
11
22.882
21
0.782
31
7.096
12
22.842
22
1.561
32
6.55
13
22.775
23
2.34
33
7.096
0
3DFACE
8
Faces
10
22.842
20
1.561
30
7.642
11
22.882
21
0.782
31
7.096
12
22.842
22
1.561
32
6.55
13
22.775
23
2.34
33
7.096
0
3DFACE
8
Faces
10
23.091
20
1.578
30
7.642
11
23.132
21
0.79
31
7.096
12
23.091
22
1.578
32
6.55
13
23.024
23
2.365
33
7.096
0
3DFACE
8
Faces
10
23.091
20
1.578
30
7.642
11
23.132
21
0.79
31
7.096
12
23.091
22
1.578
32
6.55
13
23.024
23
2.365
33
7.096
0
3DFACE
8
Faces
10
23.341
20
1.595
30
7.642
11
23.381
21
0.799
31
7.096
12
23.341
22
1.595
32
6.55
13
23.273
23
2.391
33
7.096
0
3DFACE
8
Faces
10
23.341
20
1.595
30
7.642
11
23.381
21
0.799
31
7.096
12
23.341
22
1.595
32
6.55
13
23.273
23
2.391
33
7.096
0
3DFACE
8
Faces
10
23.64
20
1.616
30
7.642
11
23.681
21
0.809
31
7.096
12
23.64
22
1.616
32
6.55
13
23.571
23
2.422
33
7.096
0
3DFACE
8
Faces
10
22.443
20
1.534
30
6.55
11
22.482
21
0.768
31
6.004
12
22.443
22
1.534
32
5.458
13
22.377
23
2.299
33
6.004
0
3DFACE
8
Faces
10
22.842
20
1.561
30
6.55
11
22.882
21
0.782
31
6.004
12
22.842
22
1.561
32
5.458
13
22.775
23
2.34
33
6.004
0
3DFACE
8
Faces
10
22.842
20
1.561
30
6.55
11
22.882
21
0.782
31
6.004
12
22.842
22
1.561
32
5.458
13
22.775
23
2.34
33
6.004
0
3DFACE
8
Faces
10
23.091
20
1.578
30
6.55
11
23.132
21
0.79
31
6.004
12
23.091
22
1.578
32
5.458
13
23.024
23
2.365
33
6.004
0
3DFACE
8
Faces
10
23.091
20
1.578
30
6.55
11
23.132
21
0.79
31
6.004
12
23.091
22
1.578
32
5.458
13
23.024
23
2.365
33
6.004
0
3DFACE
8
Faces
10
23.341
20
1.595
30
6.55
11
23.381
21
0.799
31
6.004
12
23.341
22
1.595
32
5.458
13
23.273
23
2.391
33
6.004
0
3DFACE
8
Faces
10
23.341
20
1.595
30
6.55
11
23.381
21
0.799
31
6.004
12
23.341
22
1.595
32
5.458
13
23.273
23
2.391
33
6.004
0
3DFACE
8
Faces
10
23.64
20
1.616
30
6.55
11
23.681
21
0.809
31
6.004
12
23.64
22
1.616
32
5.458
13
23.571
23
2.422
33
6.004
0
3DFACE
8
Faces
10
22.443
20
1.534
30
5.458
11
22.482
21
0.768
31
4.912
12
22.443
22
1.534
32
4.367
13
22.377
23
2.299
33
4.912
0
3DFACE
8
Faces
10
22.842
20
1.561
30
5.458
11
22.882
21
0.782
31
4.912
12
22.842
22
1.561
32
4.367
13
22.775
23
2.34
33
4.912
0
3DFACE
8
Faces
10
22.842
20
1.561
30
5.458
11
22.882
21
0.782
31
4.912
12
22.842
22
1.561
32
4.367
13
22.775
23
2.34
33
4.912
0
3DFACE
8
Faces
10
23.091
20
1.578
30
5.458
11
23.132
21
0.79
31
4.912
12
23.091
22
1.578
32
4.367
13
23.024
23
2.365
33
4.912
0
3DFACE
8
Faces
10
23.091
20
1.578
30
5.458
11
23.132
21
0.79
31
4.912
12
23.091
22
1.578
32
4.367
13
23.024
23
2.365
33
4.912
0
3DFACE
8
Faces
10
23.341
20
1.595
30
5.458
11
23.381
21
0.799
31
4.912
12
23.341
22
1.595
32
4.367
13
23.273
23
2.391
33
4.912
0
3DFACE
8
Faces
10
23.341
20
1.595
30
5.458
11
23.381
21
0.799
31
4.912
12
23.341
22
1.595
32
4.367
13
23.273
23
2.391
33
4.912
0
3DFACE
8
Faces
10
23.64
20
1.616
30
5.458
11
23.681
21
0.809
31
4.912
12
23.64
22
1.616
32
4.367
13
23.571
23
2.422
33
4.912
0
ENDSEC
0
EOF
