0
SECTION
2
HEADER
9
$ACADVER
1
AC1006
9
$INSBASE
10
0.0
20
0.0
30
0.0
9
$EXTMIN
10
0.0
20
0.0
9
$EXTMAX
10
0.0
20
0.0
0
ENDSEC
0
SECTION
2
TABLES
0
TABLE
2
LTYPE
70
1
0
LTYPE
2
CONTINUOUS
70
64
3
Solid line
72
65
73
0
40
0.0
0
ENDTAB
0
TABLE
2
LAYER
70
1
0
LAYER
2
PYDXF
70
64
62
7
6
continuous
0
ENDTAB
0
TABLE
2
STYLE
70
1
0
STYLE
2
STANDARD
70
0
40
0
41
40
50
50
71
0
42
1
3
ARIAL.TTF
4

0
ENDTAB
0
TABLE
2
VIEW
70
0
0
ENDTAB
0
ENDSEC
0
SECTION
2
BLOCKS
0
ENDSEC
0
SECTION
2
ENTITIES
0
LINE
8
Lines
10
24.4249426751
20
5.33124519387
30
2.729094
11
25.0
21
2e-06
31
6.549825
0
LINE
8
Lines
10
24.8940446191
20
2.29924824697
30
2.729094
11
25.0
21
2e-06
31
4.36655
0
LINE
8
Lines
10
25.0
20
2e-06
30
3.274913
11
24.5770769662
21
4.57900510988
31
1e-06
0
LINE
8
Lines
10
24.5770769662
20
4.57900510988
30
1e-06
11
24.8940446191
21
2.29924824697
31
2.729094
0
LINE
8
Lines
10
25.0
20
2e-06
30
1.091639
11
24.9528901802
21
1.53403769658
31
1e-06
0
LINE
8
Lines
10
24.9528901802
20
1.53403769658
30
1e-06
11
25.0
21
2e-06
31
1.819397
0
LINE
8
Lines
10
24.8940446191
20
2.29924824697
30
11.462192
11
25.0
21
2e-06
31
9.824736
0
LINE
8
Lines
10
24.9882197389
20
0.76738144456
30
9.278918
11
24.9528901802
21
1.53403769658
31
9.824736
0
LINE
8
Lines
10
24.9528901802
20
1.53403769658
30
9.824736
11
24.8940446191
21
2.29924824697
31
10.370555
0
LINE
8
Lines
10
24.4249426751
20
5.33124519387
30
11.462192
11
24.8940446191
21
2.29924824697
31
9.278918
0
LINE
8
Lines
10
24.8940446191
20
2.29924824697
30
9.278918
11
24.9528901802
21
1.53403769658
31
8.733099
0
LINE
8
Lines
10
24.9528901802
20
1.53403769658
30
8.733099
11
24.9882197389
21
0.76738144456
31
8.187281
0
LINE
8
Lines
10
24.9882197389
20
0.76738144456
30
7.095643
11
24.9528901802
21
1.53403769658
31
7.641462
0
LINE
8
Lines
10
24.9528901802
20
1.53403769658
30
7.641462
11
24.8940446191
21
2.29924824697
31
8.187281
0
LINE
8
Lines
10
24.8940446191
20
2.29924824697
30
8.187281
11
24.8117385126
21
3.06229194907
31
8.733099
0
LINE
8
Lines
10
24.7060494273
20
3.82244969831
30
8.187281
11
24.8117385126
21
3.06229194907
31
7.641462
0
LINE
8
Lines
10
24.8117385126
20
3.06229194907
30
7.641462
11
24.8940446191
21
2.29924824697
31
7.095643
0
LINE
8
Lines
10
24.8940446191
20
2.29924824697
30
7.095643
11
24.9882197389
21
0.76738144456
31
6.004006
0
LINE
8
Lines
10
24.9882197389
20
0.76738144456
30
4.912369
11
24.8940446191
21
2.29924824697
31
6.004006
0
LINE
8
Lines
10
24.8940446191
20
2.29924824697
30
6.004006
11
24.5770769662
21
4.57900510988
31
7.641462
0
LINE
8
Lines
10
24.5770769662
20
4.57900510988
30
6.549825
11
24.8940446191
21
2.29924824697
31
4.912369
0
LINE
8
Lines
10
24.8940446191
20
2.29924824697
30
4.912369
11
24.9528901802
21
1.53403769658
31
4.36655
0
LINE
8
Lines
10
24.9528901802
20
1.53403769658
30
4.36655
11
24.9882197389
21
0.76738144456
31
3.820732
0
LINE
8
Lines
10
24.9882197389
20
0.76738144456
30
2.729094
11
24.9528901802
21
1.53403769658
31
3.274913
0
LINE
8
Lines
10
24.9528901802
20
1.53403769658
30
3.274913
11
24.8940446191
21
2.29924824697
31
3.820732
0
LINE
8
Lines
10
24.8940446191
20
2.29924824697
30
3.820732
11
24.5770769662
21
4.57900510988
31
5.458187
0
LINE
8
Lines
10
24.5770769662
20
4.57900510988
30
4.36655
11
24.8940446191
21
2.29924824697
31
2.729094
0
LINE
8
Lines
10
24.8940446191
20
2.29924824697
30
2.729094
11
24.9528901802
21
1.53403769658
31
2.183276
0
LINE
8
Lines
10
24.9528901802
20
1.53403769658
30
2.183276
11
24.9970547459
21
0.38373692992
31
1.364548
0
LINE
8
Lines
10
24.5770769662
20
4.57900510988
30
2.183276
11
24.7618111326
21
3.44277641352
31
1.364548
0
LINE
8
Lines
10
24.7618111326
20
3.44277641352
30
1.364548
11
24.8117385126
21
3.06229194907
31
1.091639
0
LINE
8
Lines
10
24.8117385126
20
3.06229194907
30
1.091639
11
24.9528901802
21
1.53403769658
31
1e-06
0
LINE
8
Lines
10
24.9528901802
20
1.53403769658
30
1e-06
11
24.8558198036
21
2.68108595391
31
1.364548
0
LINE
8
Lines
10
24.8558198036
20
2.68108595391
30
1.364548
11
24.8117385126
21
3.06229194907
31
1.819397
0
LINE
8
Lines
10
24.8117385126
20
3.06229194907
30
1.819397
11
24.7060494273
21
3.82244969831
31
2.729094
0
3DFACE
8
Faces
10
24.9528901802
20
1.53403769658
30
10.916372
11
24.9882197389
21
0.76738144456
31
10.370553
12
24.9528901802
22
1.53403769658
32
9.824735
13
24.8940446191
23
2.29924824697
33
10.370553
0
3DFACE
8
Faces
10
25.2523248624
20
1.55244614894
30
10.916372
11
25.2880783757
21
0.776590021894
31
10.370553
12
25.2523248624
22
1.55244614894
32
9.824735
13
25.1927731546
23
2.32683922594
33
10.370553
0
3DFACE
8
Faces
10
25.2523248624
20
1.55244614894
30
10.916372
11
25.2880783757
21
0.776590021894
31
10.370553
12
25.2523248624
22
1.55244614894
32
9.824735
13
25.1927731546
23
2.32683922594
33
10.370553
0
3DFACE
8
Faces
10
25.6515711053
20
1.57699075209
30
10.916372
11
25.6878898916
21
0.788868125007
31
10.370553
12
25.6515711053
22
1.57699075209
32
9.824735
13
25.5910778685
23
2.36362719789
33
10.370553
0
3DFACE
8
Faces
10
25.6515711053
20
1.57699075209
30
10.916372
11
25.6878898916
21
0.788868125007
31
10.370553
12
25.6515711053
22
1.57699075209
32
9.824735
13
25.5910778685
23
2.36362719789
33
10.370553
0
3DFACE
8
Faces
10
26.0508173481
20
1.60153535523
30
10.916372
11
26.0877014074
21
0.80114622812
31
10.370553
12
26.0508173481
22
1.60153535523
32
9.824735
13
25.9893825824
23
2.40041516984
33
10.370553
0
3DFACE
8
Faces
10
26.0508173481
20
1.60153535523
30
10.916372
11
26.0877014074
21
0.80114622812
31
10.370553
12
26.0508173481
22
1.60153535523
32
9.824735
13
25.9893825824
23
2.40041516984
33
10.370553
0
3DFACE
8
Faces
10
26.3502520303
20
1.61994380759
30
10.916372
11
26.3875600443
21
0.810354805455
31
10.370553
12
26.3502520303
22
1.61994380759
32
9.824735
13
26.2881111178
23
2.4280061488
33
10.370553
0
3DFACE
8
Faces
10
24.8117385126
20
3.06229194907
30
10.916372
11
24.8940446191
21
2.29924824697
31
10.370553
12
24.8117385126
22
3.06229194907
32
9.824735
13
24.7060494273
23
3.82244969831
33
10.370553
0
3DFACE
8
Faces
10
25.1094793748
20
3.09903945246
30
10.916372
11
25.1927731546
21
2.32683922594
31
10.370553
12
25.1094793748
22
3.09903945246
32
9.824735
13
25.0025220204
23
3.86831909469
33
10.370553
0
3DFACE
8
Faces
10
25.1094793748
20
3.09903945246
30
10.916372
11
25.1927731546
21
2.32683922594
31
10.370553
12
25.1094793748
22
3.09903945246
32
9.824735
13
25.0025220204
23
3.86831909469
33
10.370553
0
3DFACE
8
Faces
10
25.506467191
20
3.14803612365
30
10.916372
11
25.5910778685
21
2.36362719789
31
10.370553
12
25.506467191
22
3.14803612365
32
9.824735
13
25.3978188113
23
3.92947828987
33
10.370553
0
3DFACE
8
Faces
10
25.506467191
20
3.14803612365
30
10.916372
11
25.5910778685
21
2.36362719789
31
10.370553
12
25.506467191
22
3.14803612365
32
9.824735
13
25.3978188113
23
3.92947828987
33
10.370553
0
3DFACE
8
Faces
10
25.9034550072
20
3.19703279483
30
10.916372
11
25.9893825824
21
2.40041516984
31
10.370553
12
25.9034550072
22
3.19703279483
32
9.824735
13
25.7931156021
23
3.99063748504
33
10.370553
0
3DFACE
8
Faces
10
25.9034550072
20
3.19703279483
30
10.916372
11
25.9893825824
21
2.40041516984
31
10.370553
12
25.9034550072
22
3.19703279483
32
9.824735
13
25.7931156021
23
3.99063748504
33
10.370553
0
3DFACE
8
Faces
10
26.2011958693
20
3.23378029822
30
10.916372
11
26.2881111178
21
2.4280061488
31
10.370553
12
26.2011958693
22
3.23378029822
32
9.824735
13
26.0895881952
23
4.03650688142
33
10.370553
0
3DFACE
8
Faces
10
24.9882197389
20
0.76738144456
30
10.370553
11
25.0
21
2e-06
31
9.824735
12
24.9882197389
22
0.76738144456
32
9.278916
13
24.9528901802
23
1.53403769658
33
9.824735
0
3DFACE
8
Faces
10
25.2880783757
20
0.776590021894
30
10.370553
11
25.3
21
2.024e-06
31
9.824735
12
25.2880783757
22
0.776590021894
32
9.278916
13
25.2523248624
23
1.55244614894
33
9.824735
0
3DFACE
8
Faces
10
25.2880783757
20
0.776590021894
30
10.370553
11
25.3
21
2.024e-06
31
9.824735
12
25.2880783757
22
0.776590021894
32
9.278916
13
25.2523248624
23
1.55244614894
33
9.824735
0
3DFACE
8
Faces
10
25.6878898916
20
0.788868125007
30
10.370553
11
25.7
21
2.056e-06
31
9.824735
12
25.6878898916
22
0.788868125007
32
9.278916
13
25.6515711053
23
1.57699075209
33
9.824735
0
3DFACE
8
Faces
10
25.6878898916
20
0.788868125007
30
10.370553
11
25.7
21
2.056e-06
31
9.824735
12
25.6878898916
22
0.788868125007
32
9.278916
13
25.6515711053
23
1.57699075209
33
9.824735
0
3DFACE
8
Faces
10
26.0877014074
20
0.80114622812
30
10.370553
11
26.1
21
2.088e-06
31
9.824735
12
26.0877014074
22
0.80114622812
32
9.278916
13
26.0508173481
23
1.60153535523
33
9.824735
0
3DFACE
8
Faces
10
26.0877014074
20
0.80114622812
30
10.370553
11
26.1
21
2.088e-06
31
9.824735
12
26.0877014074
22
0.80114622812
32
9.278916
13
26.0508173481
23
1.60153535523
33
9.824735
0
3DFACE
8
Faces
10
26.3875600443
20
0.810354805455
30
10.370553
11
26.4
21
2.112e-06
31
9.824735
12
26.3875600443
22
0.810354805455
32
9.278916
13
26.3502520303
23
1.61994380759
33
9.824735
0
3DFACE
8
Faces
10
24.8940446191
20
2.29924824697
30
10.370553
11
24.9528901802
21
1.53403769658
31
9.824735
12
24.8940446191
22
2.29924824697
32
9.278916
13
24.8117385126
23
3.06229194907
33
9.824735
0
3DFACE
8
Faces
10
25.1927731546
20
2.32683922594
30
10.370553
11
25.2523248624
21
1.55244614894
31
9.824735
12
25.1927731546
22
2.32683922594
32
9.278916
13
25.1094793748
23
3.09903945246
33
9.824735
0
3DFACE
8
Faces
10
25.1927731546
20
2.32683922594
30
10.370553
11
25.2523248624
21
1.55244614894
31
9.824735
12
25.1927731546
22
2.32683922594
32
9.278916
13
25.1094793748
23
3.09903945246
33
9.824735
0
3DFACE
8
Faces
10
25.5910778685
20
2.36362719789
30
10.370553
11
25.6515711053
21
1.57699075209
31
9.824735
12
25.5910778685
22
2.36362719789
32
9.278916
13
25.506467191
23
3.14803612365
33
9.824735
0
3DFACE
8
Faces
10
25.5910778685
20
2.36362719789
30
10.370553
11
25.6515711053
21
1.57699075209
31
9.824735
12
25.5910778685
22
2.36362719789
32
9.278916
13
25.506467191
23
3.14803612365
33
9.824735
0
3DFACE
8
Faces
10
25.9893825824
20
2.40041516984
30
10.370553
11
26.0508173481
21
1.60153535523
31
9.824735
12
25.9893825824
22
2.40041516984
32
9.278916
13
25.9034550072
23
3.19703279483
33
9.824735
0
3DFACE
8
Faces
10
25.9893825824
20
2.40041516984
30
10.370553
11
26.0508173481
21
1.60153535523
31
9.824735
12
25.9893825824
22
2.40041516984
32
9.278916
13
25.9034550072
23
3.19703279483
33
9.824735
0
3DFACE
8
Faces
10
26.2881111178
20
2.4280061488
30
10.370553
11
26.3502520303
21
1.61994380759
31
9.824735
12
26.2881111178
22
2.4280061488
32
9.278916
13
26.2011958693
23
3.23378029822
33
9.824735
0
3DFACE
8
Faces
10
24.7060494273
20
3.82244969831
30
10.370553
11
24.8117385126
21
3.06229194907
31
9.824735
12
24.7060494273
22
3.82244969831
32
9.278916
13
24.5770769662
23
4.57900510988
33
9.824735
0
3DFACE
8
Faces
10
25.0025220204
20
3.86831909469
30
10.370553
11
25.1094793748
21
3.09903945246
31
9.824735
12
25.0025220204
22
3.86831909469
32
9.278916
13
24.8720018898
23
4.6339531712
33
9.824735
0
3DFACE
8
Faces
10
25.0025220204
20
3.86831909469
30
10.370553
11
25.1094793748
21
3.09903945246
31
9.824735
12
25.0025220204
22
3.86831909469
32
9.278916
13
24.8720018898
23
4.6339531712
33
9.824735
0
3DFACE
8
Faces
10
25.3978188113
20
3.92947828987
30
10.370553
11
25.506467191
21
3.14803612365
31
9.824735
12
25.3978188113
22
3.92947828987
32
9.278916
13
25.2652351213
23
4.70721725296
33
9.824735
0
3DFACE
8
Faces
10
25.3978188113
20
3.92947828987
30
10.370553
11
25.506467191
21
3.14803612365
31
9.824735
12
25.3978188113
22
3.92947828987
32
9.278916
13
25.2652351213
23
4.70721725296
33
9.824735
0
3DFACE
8
Faces
10
25.7931156021
20
3.99063748504
30
10.370553
11
25.9034550072
21
3.19703279483
31
9.824735
12
25.7931156021
22
3.99063748504
32
9.278916
13
25.6584683527
23
4.78048133471
33
9.824735
0
3DFACE
8
Faces
10
25.7931156021
20
3.99063748504
30
10.370553
11
25.9034550072
21
3.19703279483
31
9.824735
12
25.7931156021
22
3.99063748504
32
9.278916
13
25.6584683527
23
4.78048133471
33
9.824735
0
3DFACE
8
Faces
10
26.0895881952
20
4.03650688142
30
10.370553
11
26.2011958693
21
3.23378029822
31
9.824735
12
26.0895881952
22
4.03650688142
32
9.278916
13
25.9533932763
23
4.83542939603
33
9.824735
0
3DFACE
8
Faces
10
24.9528901802
20
1.53403769658
30
9.824735
11
24.9882197389
21
0.76738144456
31
9.278916
12
24.9528901802
22
1.53403769658
32
8.733098
13
24.8940446191
23
2.29924824697
33
9.278916
0
3DFACE
8
Faces
10
25.2523248624
20
1.55244614894
30
9.824735
11
25.2880783757
21
0.776590021894
31
9.278916
12
25.2523248624
22
1.55244614894
32
8.733098
13
25.1927731546
23
2.32683922594
33
9.278916
0
3DFACE
8
Faces
10
25.2523248624
20
1.55244614894
30
9.824735
11
25.2880783757
21
0.776590021894
31
9.278916
12
25.2523248624
22
1.55244614894
32
8.733098
13
25.1927731546
23
2.32683922594
33
9.278916
0
3DFACE
8
Faces
10
25.6515711053
20
1.57699075209
30
9.824735
11
25.6878898916
21
0.788868125007
31
9.278916
12
25.6515711053
22
1.57699075209
32
8.733098
13
25.5910778685
23
2.36362719789
33
9.278916
0
3DFACE
8
Faces
10
25.6515711053
20
1.57699075209
30
9.824735
11
25.6878898916
21
0.788868125007
31
9.278916
12
25.6515711053
22
1.57699075209
32
8.733098
13
25.5910778685
23
2.36362719789
33
9.278916
0
3DFACE
8
Faces
10
26.0508173481
20
1.60153535523
30
9.824735
11
26.0877014074
21
0.80114622812
31
9.278916
12
26.0508173481
22
1.60153535523
32
8.733098
13
25.9893825824
23
2.40041516984
33
9.278916
0
3DFACE
8
Faces
10
26.0508173481
20
1.60153535523
30
9.824735
11
26.0877014074
21
0.80114622812
31
9.278916
12
26.0508173481
22
1.60153535523
32
8.733098
13
25.9893825824
23
2.40041516984
33
9.278916
0
3DFACE
8
Faces
10
26.3502520303
20
1.61994380759
30
9.824735
11
26.3875600443
21
0.810354805455
31
9.278916
12
26.3502520303
22
1.61994380759
32
8.733098
13
26.2881111178
23
2.4280061488
33
9.278916
0
3DFACE
8
Faces
10
24.8117385126
20
3.06229194907
30
9.824735
11
24.8940446191
21
2.29924824697
31
9.278916
12
24.8117385126
22
3.06229194907
32
8.733098
13
24.7060494273
23
3.82244969831
33
9.278916
0
3DFACE
8
Faces
10
25.1094793748
20
3.09903945246
30
9.824735
11
25.1927731546
21
2.32683922594
31
9.278916
12
25.1094793748
22
3.09903945246
32
8.733098
13
25.0025220204
23
3.86831909469
33
9.278916
0
3DFACE
8
Faces
10
25.1094793748
20
3.09903945246
30
9.824735
11
25.1927731546
21
2.32683922594
31
9.278916
12
25.1094793748
22
3.09903945246
32
8.733098
13
25.0025220204
23
3.86831909469
33
9.278916
0
3DFACE
8
Faces
10
25.506467191
20
3.14803612365
30
9.824735
11
25.5910778685
21
2.36362719789
31
9.278916
12
25.506467191
22
3.14803612365
32
8.733098
13
25.3978188113
23
3.92947828987
33
9.278916
0
3DFACE
8
Faces
10
25.506467191
20
3.14803612365
30
9.824735
11
25.5910778685
21
2.36362719789
31
9.278916
12
25.506467191
22
3.14803612365
32
8.733098
13
25.3978188113
23
3.92947828987
33
9.278916
0
3DFACE
8
Faces
10
25.9034550072
20
3.19703279483
30
9.824735
11
25.9893825824
21
2.40041516984
31
9.278916
12
25.9034550072
22
3.19703279483
32
8.733098
13
25.7931156021
23
3.99063748504
33
9.278916
0
3DFACE
8
Faces
10
25.9034550072
20
3.19703279483
30
9.824735
11
25.9893825824
21
2.40041516984
31
9.278916
12
25.9034550072
22
3.19703279483
32
8.733098
13
25.7931156021
23
3.99063748504
33
9.278916
0
3DFACE
8
Faces
10
26.2011958693
20
3.23378029822
30
9.824735
11
26.2881111178
21
2.4280061488
31
9.278916
12
26.2011958693
22
3.23378029822
32
8.733098
13
26.0895881952
23
4.03650688142
33
9.278916
0
3DFACE
8
Faces
10
24.9882197389
20
0.76738144456
30
9.278916
11
25.0
21
2e-06
31
8.733098
12
24.9882197389
22
0.76738144456
32
8.187279
13
24.9528901802
23
1.53403769658
33
8.733098
0
3DFACE
8
Faces
10
25.2880783757
20
0.776590021894
30
9.278916
11
25.3
21
2.024e-06
31
8.733098
12
25.2880783757
22
0.776590021894
32
8.187279
13
25.2523248624
23
1.55244614894
33
8.733098
0
3DFACE
8
Faces
10
25.2880783757
20
0.776590021894
30
9.278916
11
25.3
21
2.024e-06
31
8.733098
12
25.2880783757
22
0.776590021894
32
8.187279
13
25.2523248624
23
1.55244614894
33
8.733098
0
3DFACE
8
Faces
10
25.6878898916
20
0.788868125007
30
9.278916
11
25.7
21
2.056e-06
31
8.733098
12
25.6878898916
22
0.788868125007
32
8.187279
13
25.6515711053
23
1.57699075209
33
8.733098
0
3DFACE
8
Faces
10
25.6878898916
20
0.788868125007
30
9.278916
11
25.7
21
2.056e-06
31
8.733098
12
25.6878898916
22
0.788868125007
32
8.187279
13
25.6515711053
23
1.57699075209
33
8.733098
0
3DFACE
8
Faces
10
26.0877014074
20
0.80114622812
30
9.278916
11
26.1
21
2.088e-06
31
8.733098
12
26.0877014074
22
0.80114622812
32
8.187279
13
26.0508173481
23
1.60153535523
33
8.733098
0
3DFACE
8
Faces
10
26.0877014074
20
0.80114622812
30
9.278916
11
26.1
21
2.088e-06
31
8.733098
12
26.0877014074
22
0.80114622812
32
8.187279
13
26.0508173481
23
1.60153535523
33
8.733098
0
3DFACE
8
Faces
10
26.3875600443
20
0.810354805455
30
9.278916
11
26.4
21
2.112e-06
31
8.733098
12
26.3875600443
22
0.810354805455
32
8.187279
13
26.3502520303
23
1.61994380759
33
8.733098
0
3DFACE
8
Faces
10
24.8940446191
20
2.29924824697
30
9.278916
11
24.9528901802
21
1.53403769658
31
8.733098
12
24.8940446191
22
2.29924824697
32
8.187279
13
24.8117385126
23
3.06229194907
33
8.733098
0
3DFACE
8
Faces
10
25.1927731546
20
2.32683922594
30
9.278916
11
25.2523248624
21
1.55244614894
31
8.733098
12
25.1927731546
22
2.32683922594
32
8.187279
13
25.1094793748
23
3.09903945246
33
8.733098
0
3DFACE
8
Faces
10
25.1927731546
20
2.32683922594
30
9.278916
11
25.2523248624
21
1.55244614894
31
8.733098
12
25.1927731546
22
2.32683922594
32
8.187279
13
25.1094793748
23
3.09903945246
33
8.733098
0
3DFACE
8
Faces
10
25.5910778685
20
2.36362719789
30
9.278916
11
25.6515711053
21
1.57699075209
31
8.733098
12
25.5910778685
22
2.36362719789
32
8.187279
13
25.506467191
23
3.14803612365
33
8.733098
0
3DFACE
8
Faces
10
25.5910778685
20
2.36362719789
30
9.278916
11
25.6515711053
21
1.57699075209
31
8.733098
12
25.5910778685
22
2.36362719789
32
8.187279
13
25.506467191
23
3.14803612365
33
8.733098
0
3DFACE
8
Faces
10
25.9893825824
20
2.40041516984
30
9.278916
11
26.0508173481
21
1.60153535523
31
8.733098
12
25.9893825824
22
2.40041516984
32
8.187279
13
25.9034550072
23
3.19703279483
33
8.733098
0
3DFACE
8
Faces
10
25.9893825824
20
2.40041516984
30
9.278916
11
26.0508173481
21
1.60153535523
31
8.733098
12
25.9893825824
22
2.40041516984
32
8.187279
13
25.9034550072
23
3.19703279483
33
8.733098
0
3DFACE
8
Faces
10
26.2881111178
20
2.4280061488
30
9.278916
11
26.3502520303
21
1.61994380759
31
8.733098
12
26.2881111178
22
2.4280061488
32
8.187279
13
26.2011958693
23
3.23378029822
33
8.733098
0
3DFACE
8
Faces
10
24.7060494273
20
3.82244969831
30
9.278916
11
24.8117385126
21
3.06229194907
31
8.733098
12
24.7060494273
22
3.82244969831
32
8.187279
13
24.5770769662
23
4.57900510988
33
8.733098
0
3DFACE
8
Faces
10
25.0025220204
20
3.86831909469
30
9.278916
11
25.1094793748
21
3.09903945246
31
8.733098
12
25.0025220204
22
3.86831909469
32
8.187279
13
24.8720018898
23
4.6339531712
33
8.733098
0
3DFACE
8
Faces
10
25.0025220204
20
3.86831909469
30
9.278916
11
25.1094793748
21
3.09903945246
31
8.733098
12
25.0025220204
22
3.86831909469
32
8.187279
13
24.8720018898
23
4.6339531712
33
8.733098
0
3DFACE
8
Faces
10
25.3978188113
20
3.92947828987
30
9.278916
11
25.506467191
21
3.14803612365
31
8.733098
12
25.3978188113
22
3.92947828987
32
8.187279
13
25.2652351213
23
4.70721725296
33
8.733098
0
3DFACE
8
Faces
10
25.3978188113
20
3.92947828987
30
9.278916
11
25.506467191
21
3.14803612365
31
8.733098
12
25.3978188113
22
3.92947828987
32
8.187279
13
25.2652351213
23
4.70721725296
33
8.733098
0
3DFACE
8
Faces
10
25.7931156021
20
3.99063748504
30
9.278916
11
25.9034550072
21
3.19703279483
31
8.733098
12
25.7931156021
22
3.99063748504
32
8.187279
13
25.6584683527
23
4.78048133471
33
8.733098
0
3DFACE
8
Faces
10
25.7931156021
20
3.99063748504
30
9.278916
11
25.9034550072
21
3.19703279483
31
8.733098
12
25.7931156021
22
3.99063748504
32
8.187279
13
25.6584683527
23
4.78048133471
33
8.733098
0
3DFACE
8
Faces
10
26.0895881952
20
4.03650688142
30
9.278916
11
26.2011958693
21
3.23378029822
31
8.733098
12
26.0895881952
22
4.03650688142
32
8.187279
13
25.9533932763
23
4.83542939603
33
8.733098
0
3DFACE
8
Faces
10
24.9528901802
20
1.53403769658
30
8.733098
11
24.9882197389
21
0.76738144456
31
8.187279
12
24.9528901802
22
1.53403769658
32
7.64146
13
24.8940446191
23
2.29924824697
33
8.187279
0
3DFACE
8
Faces
10
25.2523248624
20
1.55244614894
30
8.733098
11
25.2880783757
21
0.776590021894
31
8.187279
12
25.2523248624
22
1.55244614894
32
7.64146
13
25.1927731546
23
2.32683922594
33
8.187279
0
3DFACE
8
Faces
10
25.2523248624
20
1.55244614894
30
8.733098
11
25.2880783757
21
0.776590021894
31
8.187279
12
25.2523248624
22
1.55244614894
32
7.64146
13
25.1927731546
23
2.32683922594
33
8.187279
0
3DFACE
8
Faces
10
25.6515711053
20
1.57699075209
30
8.733098
11
25.6878898916
21
0.788868125007
31
8.187279
12
25.6515711053
22
1.57699075209
32
7.64146
13
25.5910778685
23
2.36362719789
33
8.187279
0
3DFACE
8
Faces
10
25.6515711053
20
1.57699075209
30
8.733098
11
25.6878898916
21
0.788868125007
31
8.187279
12
25.6515711053
22
1.57699075209
32
7.64146
13
25.5910778685
23
2.36362719789
33
8.187279
0
3DFACE
8
Faces
10
26.0508173481
20
1.60153535523
30
8.733098
11
26.0877014074
21
0.80114622812
31
8.187279
12
26.0508173481
22
1.60153535523
32
7.64146
13
25.9893825824
23
2.40041516984
33
8.187279
0
3DFACE
8
Faces
10
26.0508173481
20
1.60153535523
30
8.733098
11
26.0877014074
21
0.80114622812
31
8.187279
12
26.0508173481
22
1.60153535523
32
7.64146
13
25.9893825824
23
2.40041516984
33
8.187279
0
3DFACE
8
Faces
10
26.3502520303
20
1.61994380759
30
8.733098
11
26.3875600443
21
0.810354805455
31
8.187279
12
26.3502520303
22
1.61994380759
32
7.64146
13
26.2881111178
23
2.4280061488
33
8.187279
0
3DFACE
8
Faces
10
24.8117385126
20
3.06229194907
30
8.733098
11
24.8940446191
21
2.29924824697
31
8.187279
12
24.8117385126
22
3.06229194907
32
7.64146
13
24.7060494273
23
3.82244969831
33
8.187279
0
3DFACE
8
Faces
10
25.1094793748
20
3.09903945246
30
8.733098
11
25.1927731546
21
2.32683922594
31
8.187279
12
25.1094793748
22
3.09903945246
32
7.64146
13
25.0025220204
23
3.86831909469
33
8.187279
0
3DFACE
8
Faces
10
25.1094793748
20
3.09903945246
30
8.733098
11
25.1927731546
21
2.32683922594
31
8.187279
12
25.1094793748
22
3.09903945246
32
7.64146
13
25.0025220204
23
3.86831909469
33
8.187279
0
3DFACE
8
Faces
10
25.506467191
20
3.14803612365
30
8.733098
11
25.5910778685
21
2.36362719789
31
8.187279
12
25.506467191
22
3.14803612365
32
7.64146
13
25.3978188113
23
3.92947828987
33
8.187279
0
3DFACE
8
Faces
10
25.506467191
20
3.14803612365
30
8.733098
11
25.5910778685
21
2.36362719789
31
8.187279
12
25.506467191
22
3.14803612365
32
7.64146
13
25.3978188113
23
3.92947828987
33
8.187279
0
3DFACE
8
Faces
10
25.9034550072
20
3.19703279483
30
8.733098
11
25.9893825824
21
2.40041516984
31
8.187279
12
25.9034550072
22
3.19703279483
32
7.64146
13
25.7931156021
23
3.99063748504
33
8.187279
0
3DFACE
8
Faces
10
25.9034550072
20
3.19703279483
30
8.733098
11
25.9893825824
21
2.40041516984
31
8.187279
12
25.9034550072
22
3.19703279483
32
7.64146
13
25.7931156021
23
3.99063748504
33
8.187279
0
3DFACE
8
Faces
10
26.2011958693
20
3.23378029822
30
8.733098
11
26.2881111178
21
2.4280061488
31
8.187279
12
26.2011958693
22
3.23378029822
32
7.64146
13
26.0895881952
23
4.03650688142
33
8.187279
0
3DFACE
8
Faces
10
24.9882197389
20
0.76738144456
30
8.187279
11
25.0
21
2e-06
31
7.64146
12
24.9882197389
22
0.76738144456
32
7.095642
13
24.9528901802
23
1.53403769658
33
7.64146
0
3DFACE
8
Faces
10
25.2880783757
20
0.776590021894
30
8.187279
11
25.3
21
2.024e-06
31
7.64146
12
25.2880783757
22
0.776590021894
32
7.095642
13
25.2523248624
23
1.55244614894
33
7.64146
0
3DFACE
8
Faces
10
25.2880783757
20
0.776590021894
30
8.187279
11
25.3
21
2.024e-06
31
7.64146
12
25.2880783757
22
0.776590021894
32
7.095642
13
25.2523248624
23
1.55244614894
33
7.64146
0
3DFACE
8
Faces
10
25.6878898916
20
0.788868125007
30
8.187279
11
25.7
21
2.056e-06
31
7.64146
12
25.6878898916
22
0.788868125007
32
7.095642
13
25.6515711053
23
1.57699075209
33
7.64146
0
3DFACE
8
Faces
10
25.6878898916
20
0.788868125007
30
8.187279
11
25.7
21
2.056e-06
31
7.64146
12
25.6878898916
22
0.788868125007
32
7.095642
13
25.6515711053
23
1.57699075209
33
7.64146
0
3DFACE
8
Faces
10
26.0877014074
20
0.80114622812
30
8.187279
11
26.1
21
2.088e-06
31
7.64146
12
26.0877014074
22
0.80114622812
32
7.095642
13
26.0508173481
23
1.60153535523
33
7.64146
0
3DFACE
8
Faces
10
26.0877014074
20
0.80114622812
30
8.187279
11
26.1
21
2.088e-06
31
7.64146
12
26.0877014074
22
0.80114622812
32
7.095642
13
26.0508173481
23
1.60153535523
33
7.64146
0
3DFACE
8
Faces
10
26.3875600443
20
0.810354805455
30
8.187279
11
26.4
21
2.112e-06
31
7.64146
12
26.3875600443
22
0.810354805455
32
7.095642
13
26.3502520303
23
1.61994380759
33
7.64146
0
3DFACE
8
Faces
10
24.8940446191
20
2.29924824697
30
8.187279
11
24.9528901802
21
1.53403769658
31
7.64146
12
24.8940446191
22
2.29924824697
32
7.095642
13
24.8117385126
23
3.06229194907
33
7.64146
0
3DFACE
8
Faces
10
25.1927731546
20
2.32683922594
30
8.187279
11
25.2523248624
21
1.55244614894
31
7.64146
12
25.1927731546
22
2.32683922594
32
7.095642
13
25.1094793748
23
3.09903945246
33
7.64146
0
3DFACE
8
Faces
10
25.1927731546
20
2.32683922594
30
8.187279
11
25.2523248624
21
1.55244614894
31
7.64146
12
25.1927731546
22
2.32683922594
32
7.095642
13
25.1094793748
23
3.09903945246
33
7.64146
0
3DFACE
8
Faces
10
25.5910778685
20
2.36362719789
30
8.187279
11
25.6515711053
21
1.57699075209
31
7.64146
12
25.5910778685
22
2.36362719789
32
7.095642
13
25.506467191
23
3.14803612365
33
7.64146
0
3DFACE
8
Faces
10
25.5910778685
20
2.36362719789
30
8.187279
11
25.6515711053
21
1.57699075209
31
7.64146
12
25.5910778685
22
2.36362719789
32
7.095642
13
25.506467191
23
3.14803612365
33
7.64146
0
3DFACE
8
Faces
10
25.9893825824
20
2.40041516984
30
8.187279
11
26.0508173481
21
1.60153535523
31
7.64146
12
25.9893825824
22
2.40041516984
32
7.095642
13
25.9034550072
23
3.19703279483
33
7.64146
0
3DFACE
8
Faces
10
25.9893825824
20
2.40041516984
30
8.187279
11
26.0508173481
21
1.60153535523
31
7.64146
12
25.9893825824
22
2.40041516984
32
7.095642
13
25.9034550072
23
3.19703279483
33
7.64146
0
3DFACE
8
Faces
10
26.2881111178
20
2.4280061488
30
8.187279
11
26.3502520303
21
1.61994380759
31
7.64146
12
26.2881111178
22
2.4280061488
32
7.095642
13
26.2011958693
23
3.23378029822
33
7.64146
0
3DFACE
8
Faces
10
24.7060494273
20
3.82244969831
30
8.187279
11
24.8117385126
21
3.06229194907
31
7.64146
12
24.7060494273
22
3.82244969831
32
7.095642
13
24.5770769662
23
4.57900510988
33
7.64146
0
3DFACE
8
Faces
10
25.0025220204
20
3.86831909469
30
8.187279
11
25.1094793748
21
3.09903945246
31
7.64146
12
25.0025220204
22
3.86831909469
32
7.095642
13
24.8720018898
23
4.6339531712
33
7.64146
0
3DFACE
8
Faces
10
25.0025220204
20
3.86831909469
30
8.187279
11
25.1094793748
21
3.09903945246
31
7.64146
12
25.0025220204
22
3.86831909469
32
7.095642
13
24.8720018898
23
4.6339531712
33
7.64146
0
3DFACE
8
Faces
10
25.3978188113
20
3.92947828987
30
8.187279
11
25.506467191
21
3.14803612365
31
7.64146
12
25.3978188113
22
3.92947828987
32
7.095642
13
25.2652351213
23
4.70721725296
33
7.64146
0
3DFACE
8
Faces
10
25.3978188113
20
3.92947828987
30
8.187279
11
25.506467191
21
3.14803612365
31
7.64146
12
25.3978188113
22
3.92947828987
32
7.095642
13
25.2652351213
23
4.70721725296
33
7.64146
0
3DFACE
8
Faces
10
25.7931156021
20
3.99063748504
30
8.187279
11
25.9034550072
21
3.19703279483
31
7.64146
12
25.7931156021
22
3.99063748504
32
7.095642
13
25.6584683527
23
4.78048133471
33
7.64146
0
3DFACE
8
Faces
10
25.7931156021
20
3.99063748504
30
8.187279
11
25.9034550072
21
3.19703279483
31
7.64146
12
25.7931156021
22
3.99063748504
32
7.095642
13
25.6584683527
23
4.78048133471
33
7.64146
0
3DFACE
8
Faces
10
26.0895881952
20
4.03650688142
30
8.187279
11
26.2011958693
21
3.23378029822
31
7.64146
12
26.0895881952
22
4.03650688142
32
7.095642
13
25.9533932763
23
4.83542939603
33
7.64146
0
3DFACE
8
Faces
10
24.9528901802
20
1.53403769658
30
7.64146
11
24.9882197389
21
0.76738144456
31
7.095642
12
24.9528901802
22
1.53403769658
32
6.549823
13
24.8940446191
23
2.29924824697
33
7.095642
0
3DFACE
8
Faces
10
25.2523248624
20
1.55244614894
30
7.64146
11
25.2880783757
21
0.776590021894
31
7.095642
12
25.2523248624
22
1.55244614894
32
6.549823
13
25.1927731546
23
2.32683922594
33
7.095642
0
3DFACE
8
Faces
10
25.2523248624
20
1.55244614894
30
7.64146
11
25.2880783757
21
0.776590021894
31
7.095642
12
25.2523248624
22
1.55244614894
32
6.549823
13
25.1927731546
23
2.32683922594
33
7.095642
0
3DFACE
8
Faces
10
25.6515711053
20
1.57699075209
30
7.64146
11
25.6878898916
21
0.788868125007
31
7.095642
12
25.6515711053
22
1.57699075209
32
6.549823
13
25.5910778685
23
2.36362719789
33
7.095642
0
3DFACE
8
Faces
10
25.6515711053
20
1.57699075209
30
7.64146
11
25.6878898916
21
0.788868125007
31
7.095642
12
25.6515711053
22
1.57699075209
32
6.549823
13
25.5910778685
23
2.36362719789
33
7.095642
0
3DFACE
8
Faces
10
26.0508173481
20
1.60153535523
30
7.64146
11
26.0877014074
21
0.80114622812
31
7.095642
12
26.0508173481
22
1.60153535523
32
6.549823
13
25.9893825824
23
2.40041516984
33
7.095642
0
3DFACE
8
Faces
10
26.0508173481
20
1.60153535523
30
7.64146
11
26.0877014074
21
0.80114622812
31
7.095642
12
26.0508173481
22
1.60153535523
32
6.549823
13
25.9893825824
23
2.40041516984
33
7.095642
0
3DFACE
8
Faces
10
26.3502520303
20
1.61994380759
30
7.64146
11
26.3875600443
21
0.810354805455
31
7.095642
12
26.3502520303
22
1.61994380759
32
6.549823
13
26.2881111178
23
2.4280061488
33
7.095642
0
3DFACE
8
Faces
10
24.8117385126
20
3.06229194907
30
7.64146
11
24.8940446191
21
2.29924824697
31
7.095642
12
24.8117385126
22
3.06229194907
32
6.549823
13
24.7060494273
23
3.82244969831
33
7.095642
0
3DFACE
8
Faces
10
25.1094793748
20
3.09903945246
30
7.64146
11
25.1927731546
21
2.32683922594
31
7.095642
12
25.1094793748
22
3.09903945246
32
6.549823
13
25.0025220204
23
3.86831909469
33
7.095642
0
3DFACE
8
Faces
10
25.1094793748
20
3.09903945246
30
7.64146
11
25.1927731546
21
2.32683922594
31
7.095642
12
25.1094793748
22
3.09903945246
32
6.549823
13
25.0025220204
23
3.86831909469
33
7.095642
0
3DFACE
8
Faces
10
25.506467191
20
3.14803612365
30
7.64146
11
25.5910778685
21
2.36362719789
31
7.095642
12
25.506467191
22
3.14803612365
32
6.549823
13
25.3978188113
23
3.92947828987
33
7.095642
0
3DFACE
8
Faces
10
25.506467191
20
3.14803612365
30
7.64146
11
25.5910778685
21
2.36362719789
31
7.095642
12
25.506467191
22
3.14803612365
32
6.549823
13
25.3978188113
23
3.92947828987
33
7.095642
0
3DFACE
8
Faces
10
25.9034550072
20
3.19703279483
30
7.64146
11
25.9893825824
21
2.40041516984
31
7.095642
12
25.9034550072
22
3.19703279483
32
6.549823
13
25.7931156021
23
3.99063748504
33
7.095642
0
3DFACE
8
Faces
10
25.9034550072
20
3.19703279483
30
7.64146
11
25.9893825824
21
2.40041516984
31
7.095642
12
25.9034550072
22
3.19703279483
32
6.549823
13
25.7931156021
23
3.99063748504
33
7.095642
0
3DFACE
8
Faces
10
26.2011958693
20
3.23378029822
30
7.64146
11
26.2881111178
21
2.4280061488
31
7.095642
12
26.2011958693
22
3.23378029822
32
6.549823
13
26.0895881952
23
4.03650688142
33
7.095642
0
3DFACE
8
Faces
10
24.9882197389
20
0.76738144456
30
7.095642
11
25.0
21
2e-06
31
6.549823
12
24.9882197389
22
0.76738144456
32
6.004004
13
24.9528901802
23
1.53403769658
33
6.549823
0
3DFACE
8
Faces
10
25.2880783757
20
0.776590021894
30
7.095642
11
25.3
21
2.024e-06
31
6.549823
12
25.2880783757
22
0.776590021894
32
6.004004
13
25.2523248624
23
1.55244614894
33
6.549823
0
3DFACE
8
Faces
10
25.2880783757
20
0.776590021894
30
7.095642
11
25.3
21
2.024e-06
31
6.549823
12
25.2880783757
22
0.776590021894
32
6.004004
13
25.2523248624
23
1.55244614894
33
6.549823
0
3DFACE
8
Faces
10
25.6878898916
20
0.788868125007
30
7.095642
11
25.7
21
2.056e-06
31
6.549823
12
25.6878898916
22
0.788868125007
32
6.004004
13
25.6515711053
23
1.57699075209
33
6.549823
0
3DFACE
8
Faces
10
25.6878898916
20
0.788868125007
30
7.095642
11
25.7
21
2.056e-06
31
6.549823
12
25.6878898916
22
0.788868125007
32
6.004004
13
25.6515711053
23
1.57699075209
33
6.549823
0
3DFACE
8
Faces
10
26.0877014074
20
0.80114622812
30
7.095642
11
26.1
21
2.088e-06
31
6.549823
12
26.0877014074
22
0.80114622812
32
6.004004
13
26.0508173481
23
1.60153535523
33
6.549823
0
3DFACE
8
Faces
10
26.0877014074
20
0.80114622812
30
7.095642
11
26.1
21
2.088e-06
31
6.549823
12
26.0877014074
22
0.80114622812
32
6.004004
13
26.0508173481
23
1.60153535523
33
6.549823
0
3DFACE
8
Faces
10
26.3875600443
20
0.810354805455
30
7.095642
11
26.4
21
2.112e-06
31
6.549823
12
26.3875600443
22
0.810354805455
32
6.004004
13
26.3502520303
23
1.61994380759
33
6.549823
0
3DFACE
8
Faces
10
24.8940446191
20
2.29924824697
30
7.095642
11
24.9528901802
21
1.53403769658
31
6.549823
12
24.8940446191
22
2.29924824697
32
6.004004
13
24.8117385126
23
3.06229194907
33
6.549823
0
3DFACE
8
Faces
10
25.1927731546
20
2.32683922594
30
7.095642
11
25.2523248624
21
1.55244614894
31
6.549823
12
25.1927731546
22
2.32683922594
32
6.004004
13
25.1094793748
23
3.09903945246
33
6.549823
0
3DFACE
8
Faces
10
25.1927731546
20
2.32683922594
30
7.095642
11
25.2523248624
21
1.55244614894
31
6.549823
12
25.1927731546
22
2.32683922594
32
6.004004
13
25.1094793748
23
3.09903945246
33
6.549823
0
3DFACE
8
Faces
10
25.5910778685
20
2.36362719789
30
7.095642
11
25.6515711053
21
1.57699075209
31
6.549823
12
25.5910778685
22
2.36362719789
32
6.004004
13
25.506467191
23
3.14803612365
33
6.549823
0
3DFACE
8
Faces
10
25.5910778685
20
2.36362719789
30
7.095642
11
25.6515711053
21
1.57699075209
31
6.549823
12
25.5910778685
22
2.36362719789
32
6.004004
13
25.506467191
23
3.14803612365
33
6.549823
0
3DFACE
8
Faces
10
25.9893825824
20
2.40041516984
30
7.095642
11
26.0508173481
21
1.60153535523
31
6.549823
12
25.9893825824
22
2.40041516984
32
6.004004
13
25.9034550072
23
3.19703279483
33
6.549823
0
3DFACE
8
Faces
10
25.9893825824
20
2.40041516984
30
7.095642
11
26.0508173481
21
1.60153535523
31
6.549823
12
25.9893825824
22
2.40041516984
32
6.004004
13
25.9034550072
23
3.19703279483
33
6.549823
0
3DFACE
8
Faces
10
26.2881111178
20
2.4280061488
30
7.095642
11
26.3502520303
21
1.61994380759
31
6.549823
12
26.2881111178
22
2.4280061488
32
6.004004
13
26.2011958693
23
3.23378029822
33
6.549823
0
3DFACE
8
Faces
10
24.7060494273
20
3.82244969831
30
7.095642
11
24.8117385126
21
3.06229194907
31
6.549823
12
24.7060494273
22
3.82244969831
32
6.004004
13
24.5770769662
23
4.57900510988
33
6.549823
0
3DFACE
8
Faces
10
25.0025220204
20
3.86831909469
30
7.095642
11
25.1094793748
21
3.09903945246
31
6.549823
12
25.0025220204
22
3.86831909469
32
6.004004
13
24.8720018898
23
4.6339531712
33
6.549823
0
3DFACE
8
Faces
10
25.0025220204
20
3.86831909469
30
7.095642
11
25.1094793748
21
3.09903945246
31
6.549823
12
25.0025220204
22
3.86831909469
32
6.004004
13
24.8720018898
23
4.6339531712
33
6.549823
0
3DFACE
8
Faces
10
25.3978188113
20
3.92947828987
30
7.095642
11
25.506467191
21
3.14803612365
31
6.549823
12
25.3978188113
22
3.92947828987
32
6.004004
13
25.2652351213
23
4.70721725296
33
6.549823
0
3DFACE
8
Faces
10
25.3978188113
20
3.92947828987
30
7.095642
11
25.506467191
21
3.14803612365
31
6.549823
12
25.3978188113
22
3.92947828987
32
6.004004
13
25.2652351213
23
4.70721725296
33
6.549823
0
3DFACE
8
Faces
10
25.7931156021
20
3.99063748504
30
7.095642
11
25.9034550072
21
3.19703279483
31
6.549823
12
25.7931156021
22
3.99063748504
32
6.004004
13
25.6584683527
23
4.78048133471
33
6.549823
0
3DFACE
8
Faces
10
25.7931156021
20
3.99063748504
30
7.095642
11
25.9034550072
21
3.19703279483
31
6.549823
12
25.7931156021
22
3.99063748504
32
6.004004
13
25.6584683527
23
4.78048133471
33
6.549823
0
3DFACE
8
Faces
10
26.0895881952
20
4.03650688142
30
7.095642
11
26.2011958693
21
3.23378029822
31
6.549823
12
26.0895881952
22
4.03650688142
32
6.004004
13
25.9533932763
23
4.83542939603
33
6.549823
0
3DFACE
8
Faces
10
24.9528901802
20
1.53403769658
30
6.549823
11
24.9882197389
21
0.76738144456
31
6.004004
12
24.9528901802
22
1.53403769658
32
5.458186
13
24.8940446191
23
2.29924824697
33
6.004004
0
3DFACE
8
Faces
10
25.2523248624
20
1.55244614894
30
6.549823
11
25.2880783757
21
0.776590021894
31
6.004004
12
25.2523248624
22
1.55244614894
32
5.458186
13
25.1927731546
23
2.32683922594
33
6.004004
0
3DFACE
8
Faces
10
25.2523248624
20
1.55244614894
30
6.549823
11
25.2880783757
21
0.776590021894
31
6.004004
12
25.2523248624
22
1.55244614894
32
5.458186
13
25.1927731546
23
2.32683922594
33
6.004004
0
3DFACE
8
Faces
10
25.6515711053
20
1.57699075209
30
6.549823
11
25.6878898916
21
0.788868125007
31
6.004004
12
25.6515711053
22
1.57699075209
32
5.458186
13
25.5910778685
23
2.36362719789
33
6.004004
0
3DFACE
8
Faces
10
25.6515711053
20
1.57699075209
30
6.549823
11
25.6878898916
21
0.788868125007
31
6.004004
12
25.6515711053
22
1.57699075209
32
5.458186
13
25.5910778685
23
2.36362719789
33
6.004004
0
3DFACE
8
Faces
10
26.0508173481
20
1.60153535523
30
6.549823
11
26.0877014074
21
0.80114622812
31
6.004004
12
26.0508173481
22
1.60153535523
32
5.458186
13
25.9893825824
23
2.40041516984
33
6.004004
0
3DFACE
8
Faces
10
26.0508173481
20
1.60153535523
30
6.549823
11
26.0877014074
21
0.80114622812
31
6.004004
12
26.0508173481
22
1.60153535523
32
5.458186
13
25.9893825824
23
2.40041516984
33
6.004004
0
3DFACE
8
Faces
10
26.3502520303
20
1.61994380759
30
6.549823
11
26.3875600443
21
0.810354805455
31
6.004004
12
26.3502520303
22
1.61994380759
32
5.458186
13
26.2881111178
23
2.4280061488
33
6.004004
0
3DFACE
8
Faces
10
24.8117385126
20
3.06229194907
30
6.549823
11
24.8940446191
21
2.29924824697
31
6.004004
12
24.8117385126
22
3.06229194907
32
5.458186
13
24.7060494273
23
3.82244969831
33
6.004004
0
3DFACE
8
Faces
10
25.1094793748
20
3.09903945246
30
6.549823
11
25.1927731546
21
2.32683922594
31
6.004004
12
25.1094793748
22
3.09903945246
32
5.458186
13
25.0025220204
23
3.86831909469
33
6.004004
0
3DFACE
8
Faces
10
25.1094793748
20
3.09903945246
30
6.549823
11
25.1927731546
21
2.32683922594
31
6.004004
12
25.1094793748
22
3.09903945246
32
5.458186
13
25.0025220204
23
3.86831909469
33
6.004004
0
3DFACE
8
Faces
10
25.506467191
20
3.14803612365
30
6.549823
11
25.5910778685
21
2.36362719789
31
6.004004
12
25.506467191
22
3.14803612365
32
5.458186
13
25.3978188113
23
3.92947828987
33
6.004004
0
3DFACE
8
Faces
10
25.506467191
20
3.14803612365
30
6.549823
11
25.5910778685
21
2.36362719789
31
6.004004
12
25.506467191
22
3.14803612365
32
5.458186
13
25.3978188113
23
3.92947828987
33
6.004004
0
3DFACE
8
Faces
10
25.9034550072
20
3.19703279483
30
6.549823
11
25.9893825824
21
2.40041516984
31
6.004004
12
25.9034550072
22
3.19703279483
32
5.458186
13
25.7931156021
23
3.99063748504
33
6.004004
0
3DFACE
8
Faces
10
25.9034550072
20
3.19703279483
30
6.549823
11
25.9893825824
21
2.40041516984
31
6.004004
12
25.9034550072
22
3.19703279483
32
5.458186
13
25.7931156021
23
3.99063748504
33
6.004004
0
3DFACE
8
Faces
10
26.2011958693
20
3.23378029822
30
6.549823
11
26.2881111178
21
2.4280061488
31
6.004004
12
26.2011958693
22
3.23378029822
32
5.458186
13
26.0895881952
23
4.03650688142
33
6.004004
0
3DFACE
8
Faces
10
24.9882197389
20
0.76738144456
30
6.004004
11
25.0
21
2e-06
31
5.458186
12
24.9882197389
22
0.76738144456
32
4.912367
13
24.9528901802
23
1.53403769658
33
5.458186
0
3DFACE
8
Faces
10
25.2880783757
20
0.776590021894
30
6.004004
11
25.3
21
2.024e-06
31
5.458186
12
25.2880783757
22
0.776590021894
32
4.912367
13
25.2523248624
23
1.55244614894
33
5.458186
0
3DFACE
8
Faces
10
25.2880783757
20
0.776590021894
30
6.004004
11
25.3
21
2.024e-06
31
5.458186
12
25.2880783757
22
0.776590021894
32
4.912367
13
25.2523248624
23
1.55244614894
33
5.458186
0
3DFACE
8
Faces
10
25.6878898916
20
0.788868125007
30
6.004004
11
25.7
21
2.056e-06
31
5.458186
12
25.6878898916
22
0.788868125007
32
4.912367
13
25.6515711053
23
1.57699075209
33
5.458186
0
3DFACE
8
Faces
10
25.6878898916
20
0.788868125007
30
6.004004
11
25.7
21
2.056e-06
31
5.458186
12
25.6878898916
22
0.788868125007
32
4.912367
13
25.6515711053
23
1.57699075209
33
5.458186
0
3DFACE
8
Faces
10
26.0877014074
20
0.80114622812
30
6.004004
11
26.1
21
2.088e-06
31
5.458186
12
26.0877014074
22
0.80114622812
32
4.912367
13
26.0508173481
23
1.60153535523
33
5.458186
0
3DFACE
8
Faces
10
26.0877014074
20
0.80114622812
30
6.004004
11
26.1
21
2.088e-06
31
5.458186
12
26.0877014074
22
0.80114622812
32
4.912367
13
26.0508173481
23
1.60153535523
33
5.458186
0
3DFACE
8
Faces
10
26.3875600443
20
0.810354805455
30
6.004004
11
26.4
21
2.112e-06
31
5.458186
12
26.3875600443
22
0.810354805455
32
4.912367
13
26.3502520303
23
1.61994380759
33
5.458186
0
3DFACE
8
Faces
10
24.8940446191
20
2.29924824697
30
6.004004
11
24.9528901802
21
1.53403769658
31
5.458186
12
24.8940446191
22
2.29924824697
32
4.912367
13
24.8117385126
23
3.06229194907
33
5.458186
0
3DFACE
8
Faces
10
25.1927731546
20
2.32683922594
30
6.004004
11
25.2523248624
21
1.55244614894
31
5.458186
12
25.1927731546
22
2.32683922594
32
4.912367
13
25.1094793748
23
3.09903945246
33
5.458186
0
3DFACE
8
Faces
10
25.1927731546
20
2.32683922594
30
6.004004
11
25.2523248624
21
1.55244614894
31
5.458186
12
25.1927731546
22
2.32683922594
32
4.912367
13
25.1094793748
23
3.09903945246
33
5.458186
0
3DFACE
8
Faces
10
25.5910778685
20
2.36362719789
30
6.004004
11
25.6515711053
21
1.57699075209
31
5.458186
12
25.5910778685
22
2.36362719789
32
4.912367
13
25.506467191
23
3.14803612365
33
5.458186
0
3DFACE
8
Faces
10
25.5910778685
20
2.36362719789
30
6.004004
11
25.6515711053
21
1.57699075209
31
5.458186
12
25.5910778685
22
2.36362719789
32
4.912367
13
25.506467191
23
3.14803612365
33
5.458186
0
3DFACE
8
Faces
10
25.9893825824
20
2.40041516984
30
6.004004
11
26.0508173481
21
1.60153535523
31
5.458186
12
25.9893825824
22
2.40041516984
32
4.912367
13
25.9034550072
23
3.19703279483
33
5.458186
0
3DFACE
8
Faces
10
25.9893825824
20
2.40041516984
30
6.004004
11
26.0508173481
21
1.60153535523
31
5.458186
12
25.9893825824
22
2.40041516984
32
4.912367
13
25.9034550072
23
3.19703279483
33
5.458186
0
3DFACE
8
Faces
10
26.2881111178
20
2.4280061488
30
6.004004
11
26.3502520303
21
1.61994380759
31
5.458186
12
26.2881111178
22
2.4280061488
32
4.912367
13
26.2011958693
23
3.23378029822
33
5.458186
0
3DFACE
8
Faces
10
24.7060494273
20
3.82244969831
30
6.004004
11
24.8117385126
21
3.06229194907
31
5.458186
12
24.7060494273
22
3.82244969831
32
4.912367
13
24.5770769662
23
4.57900510988
33
5.458186
0
3DFACE
8
Faces
10
25.0025220204
20
3.86831909469
30
6.004004
11
25.1094793748
21
3.09903945246
31
5.458186
12
25.0025220204
22
3.86831909469
32
4.912367
13
24.8720018898
23
4.6339531712
33
5.458186
0
3DFACE
8
Faces
10
25.0025220204
20
3.86831909469
30
6.004004
11
25.1094793748
21
3.09903945246
31
5.458186
12
25.0025220204
22
3.86831909469
32
4.912367
13
24.8720018898
23
4.6339531712
33
5.458186
0
3DFACE
8
Faces
10
25.3978188113
20
3.92947828987
30
6.004004
11
25.506467191
21
3.14803612365
31
5.458186
12
25.3978188113
22
3.92947828987
32
4.912367
13
25.2652351213
23
4.70721725296
33
5.458186
0
3DFACE
8
Faces
10
25.3978188113
20
3.92947828987
30
6.004004
11
25.506467191
21
3.14803612365
31
5.458186
12
25.3978188113
22
3.92947828987
32
4.912367
13
25.2652351213
23
4.70721725296
33
5.458186
0
3DFACE
8
Faces
10
25.7931156021
20
3.99063748504
30
6.004004
11
25.9034550072
21
3.19703279483
31
5.458186
12
25.7931156021
22
3.99063748504
32
4.912367
13
25.6584683527
23
4.78048133471
33
5.458186
0
3DFACE
8
Faces
10
25.7931156021
20
3.99063748504
30
6.004004
11
25.9034550072
21
3.19703279483
31
5.458186
12
25.7931156021
22
3.99063748504
32
4.912367
13
25.6584683527
23
4.78048133471
33
5.458186
0
3DFACE
8
Faces
10
26.0895881952
20
4.03650688142
30
6.004004
11
26.2011958693
21
3.23378029822
31
5.458186
12
26.0895881952
22
4.03650688142
32
4.912367
13
25.9533932763
23
4.83542939603
33
5.458186
0
3DFACE
8
Faces
10
24.7618111326
20
3.44277641352
30
1.364548
11
24.8117385126
21
3.06229194907
31
1.091639
12
24.8558198036
22
2.68108595391
32
1.364548
13
24.8117385126
23
3.06229194907
33
1.819397
0
3DFACE
8
Faces
10
25.0589528662
20
3.48408973048
30
1.364548
11
25.1094793748
21
3.09903945246
31
1.091639
12
25.1540896412
22
2.71325898536
32
1.364548
13
25.1094793748
23
3.09903945246
33
1.819397
0
3DFACE
8
Faces
10
25.0589528662
20
3.48408973048
30
1.364548
11
25.1094793748
21
3.09903945246
31
1.091639
12
25.1540896412
22
2.71325898536
32
1.364548
13
25.1094793748
23
3.09903945246
33
1.819397
0
3DFACE
8
Faces
10
25.4551418443
20
3.5391741531
30
1.364548
11
25.506467191
21
3.14803612365
31
1.091639
12
25.5517827581
22
2.75615636062
32
1.364548
13
25.506467191
23
3.14803612365
33
1.819397
0
3DFACE
8
Faces
10
25.4551418443
20
3.5391741531
30
1.364548
11
25.506467191
21
3.14803612365
31
1.091639
12
25.5517827581
22
2.75615636062
32
1.364548
13
25.506467191
23
3.14803612365
33
1.819397
0
3DFACE
8
Faces
10
25.8513308224
20
3.59425857572
30
1.364548
11
25.9034550072
21
3.19703279483
31
1.091639
12
25.9494758749
22
2.79905373588
32
1.364548
13
25.9034550072
23
3.19703279483
33
1.819397
0
3DFACE
8
Faces
10
25.8513308224
20
3.59425857572
30
1.364548
11
25.9034550072
21
3.19703279483
31
1.091639
12
25.9494758749
22
2.79905373588
32
1.364548
13
25.9034550072
23
3.19703279483
33
1.819397
0
3DFACE
8
Faces
10
26.148472556
20
3.63557189268
30
1.364548
11
26.2011958693
21
3.23378029822
31
1.091639
12
26.2477457126
22
2.83122676733
32
1.364548
13
26.2011958693
23
3.23378029822
33
1.819397
0
3DFACE
8
Faces
10
24.5770769662
20
4.57900510988
30
1e-06
11
24.9528901802
21
1.53403769658
31
1e-06
12
24.9528901802
22
1.53403769658
32
1e-06
13
24.8117385126
23
3.06229194907
33
1.091638
0
3DFACE
8
Faces
10
24.8720018898
20
4.6339531712
30
1e-06
11
25.2523248624
21
1.55244614894
31
1e-06
12
25.2523248624
22
1.55244614894
32
1e-06
13
25.1094793748
23
3.09903945246
33
1.091638
0
3DFACE
8
Faces
10
24.8720018898
20
4.6339531712
30
1e-06
11
25.2523248624
21
1.55244614894
31
1e-06
12
25.2523248624
22
1.55244614894
32
1e-06
13
25.1094793748
23
3.09903945246
33
1.091638
0
3DFACE
8
Faces
10
25.2652351213
20
4.70721725296
30
1e-06
11
25.6515711053
21
1.57699075209
31
1e-06
12
25.6515711053
22
1.57699075209
32
1e-06
13
25.506467191
23
3.14803612365
33
1.091638
0
3DFACE
8
Faces
10
25.2652351213
20
4.70721725296
30
1e-06
11
25.6515711053
21
1.57699075209
31
1e-06
12
25.6515711053
22
1.57699075209
32
1e-06
13
25.506467191
23
3.14803612365
33
1.091638
0
3DFACE
8
Faces
10
25.6584683527
20
4.78048133471
30
1e-06
11
26.0508173481
21
1.60153535523
31
1e-06
12
26.0508173481
22
1.60153535523
32
1e-06
13
25.9034550072
23
3.19703279483
33
1.091638
0
3DFACE
8
Faces
10
25.6584683527
20
4.78048133471
30
1e-06
11
26.0508173481
21
1.60153535523
31
1e-06
12
26.0508173481
22
1.60153535523
32
1e-06
13
25.9034550072
23
3.19703279483
33
1.091638
0
3DFACE
8
Faces
10
25.9533932763
20
4.83542939603
30
1e-06
11
26.3502520303
21
1.61994380759
31
1e-06
12
26.3502520303
22
1.61994380759
32
1e-06
13
26.2011958693
23
3.23378029822
33
1.091638
0
3DFACE
8
Faces
10
24.5770769662
20
4.57900510988
30
1e-06
11
24.7618111326
21
3.44277641352
31
1.364548
12
24.5770769662
22
4.57900510988
32
2.183276
13
24.3402337985
23
5.7055252724
33
1.364548
0
3DFACE
8
Faces
10
24.8720018898
20
4.6339531712
30
1e-06
11
25.0589528662
21
3.48408973048
31
1.364548
12
24.8720018898
22
4.6339531712
32
2.183276
13
24.6323166041
23
5.77399157567
33
1.364548
0
3DFACE
8
Faces
10
24.8720018898
20
4.6339531712
30
1e-06
11
25.0589528662
21
3.48408973048
31
1.364548
12
24.8720018898
22
4.6339531712
32
2.183276
13
24.6323166041
23
5.77399157567
33
1.364548
0
3DFACE
8
Faces
10
25.2652351213
20
4.70721725296
30
1e-06
11
25.4551418443
21
3.5391741531
31
1.364548
12
25.2652351213
22
4.70721725296
32
2.183276
13
25.0217603449
23
5.86527998002
33
1.364548
0
3DFACE
8
Faces
10
25.2652351213
20
4.70721725296
30
1e-06
11
25.4551418443
21
3.5391741531
31
1.364548
12
25.2652351213
22
4.70721725296
32
2.183276
13
25.0217603449
23
5.86527998002
33
1.364548
0
3DFACE
8
Faces
10
25.6584683527
20
4.78048133471
30
1e-06
11
25.8513308224
21
3.59425857572
31
1.364548
12
25.6584683527
22
4.78048133471
32
2.183276
13
25.4112040856
23
5.95656838438
33
1.364548
0
3DFACE
8
Faces
10
25.6584683527
20
4.78048133471
30
1e-06
11
25.8513308224
21
3.59425857572
31
1.364548
12
25.6584683527
22
4.78048133471
32
2.183276
13
25.4112040856
23
5.95656838438
33
1.364548
0
3DFACE
8
Faces
10
25.9533932763
20
4.83542939603
30
1e-06
11
26.148472556
21
3.63557189268
31
1.364548
12
25.9533932763
22
4.83542939603
32
2.183276
13
25.7032868912
23
6.02503468765
33
1.364548
0
3DFACE
8
Faces
10
24.9528901188
20
1.5340386947
30
5.458187
11
24.9882197082
21
0.767382444088
31
4.912368
12
24.9528901188
22
1.5340386947
32
4.366549
13
24.8940445272
23
2.29924924273
33
4.912368
0
3DFACE
8
Faces
10
25.2523248003
20
1.55244715904
30
5.458187
11
25.2880783447
21
0.776591033417
31
4.912368
12
25.2523248003
22
1.55244715904
32
4.366549
13
25.1927730615
23
2.32684023365
33
4.912368
0
3DFACE
8
Faces
10
25.2523248003
20
1.55244715904
30
5.458187
11
25.2880783447
21
0.776591033417
31
4.912368
12
25.2523248003
22
1.55244715904
32
4.366549
13
25.1927730615
23
2.32684023365
33
4.912368
0
3DFACE
8
Faces
10
25.6515710422
20
1.57699177815
30
5.458187
11
25.68788986
21
0.788869152523
31
4.912368
12
25.6515710422
22
1.57699177815
32
4.366549
13
25.5910777739
23
2.36362822153
33
4.912368
0
3DFACE
8
Faces
10
25.6515710422
20
1.57699177815
30
5.458187
11
25.68788986
21
0.788869152523
31
4.912368
12
25.6515710422
22
1.57699177815
32
4.366549
13
25.5910777739
23
2.36362822153
33
4.912368
0
3DFACE
8
Faces
10
26.0508172841
20
1.60153639727
30
5.458187
11
26.0877013753
21
0.801147271628
31
4.912368
12
26.0508172841
22
1.60153639727
32
4.366549
13
25.9893824863
23
2.40041620941
33
4.912368
0
3DFACE
8
Faces
10
26.0508172841
20
1.60153639727
30
5.458187
11
26.0877013753
21
0.801147271628
31
4.912368
12
26.0508172841
22
1.60153639727
32
4.366549
13
25.9893824863
23
2.40041620941
33
4.912368
0
3DFACE
8
Faces
10
26.3502519655
20
1.6199448616
30
5.458187
11
26.3875600118
21
0.810355860957
31
4.912368
12
26.3502519655
22
1.6199448616
32
4.366549
13
26.2881110207
23
2.42800720033
33
4.912368
0
3DFACE
8
Faces
10
24.8117383901
20
3.06229294154
30
5.458187
11
24.8940445272
21
2.29924924273
31
4.912368
12
24.8117383901
22
3.06229294154
32
4.366549
13
24.7060492744
23
3.82245068655
33
4.912368
0
3DFACE
8
Faces
10
25.1094792508
20
3.09904045684
30
5.458187
11
25.1927730615
21
2.32684023365
31
4.912368
12
25.1094792508
22
3.09904045684
32
4.366549
13
25.0025218657
23
3.86832009479
33
4.912368
0
3DFACE
8
Faces
10
25.1094792508
20
3.09904045684
30
5.458187
11
25.1927730615
21
2.32684023365
31
4.912368
12
25.1094792508
22
3.09904045684
32
4.366549
13
25.0025218657
23
3.86832009479
33
4.912368
0
3DFACE
8
Faces
10
25.5064670651
20
3.14803714391
30
5.458187
11
25.5910777739
21
2.36362822153
31
4.912368
12
25.5064670651
22
3.14803714391
32
4.366549
13
25.3978186541
23
3.92947930578
33
4.912368
0
3DFACE
8
Faces
10
25.5064670651
20
3.14803714391
30
5.458187
11
25.5910777739
21
2.36362822153
31
4.912368
12
25.5064670651
22
3.14803714391
32
4.366549
13
25.3978186541
23
3.92947930578
33
4.912368
0
3DFACE
8
Faces
10
25.9034548793
20
3.19703383097
30
5.458187
11
25.9893824863
21
2.40041620941
31
4.912368
12
25.9034548793
22
3.19703383097
32
4.366549
13
25.7931154425
23
3.99063851676
33
4.912368
0
3DFACE
8
Faces
10
25.9034548793
20
3.19703383097
30
5.458187
11
25.9893824863
21
2.40041620941
31
4.912368
12
25.9034548793
22
3.19703383097
32
4.366549
13
25.7931154425
23
3.99063851676
33
4.912368
0
3DFACE
8
Faces
10
26.20119574
20
3.23378134627
30
5.458187
11
26.2881110207
21
2.42800720033
31
4.912368
12
26.20119574
22
3.23378134627
32
4.366549
13
26.0895880338
23
4.036507925
33
4.912368
0
3DFACE
8
Faces
10
24.8940445272
20
2.29924924273
30
4.912368
11
24.9528901188
21
1.5340386947
31
4.366549
12
24.8940445272
22
2.29924924273
32
3.820731
13
24.8117383901
23
3.06229294154
33
4.366549
0
3DFACE
8
Faces
10
25.1927730615
20
2.32684023365
30
4.912368
11
25.2523248003
21
1.55244715904
31
4.366549
12
25.1927730615
22
2.32684023365
32
3.820731
13
25.1094792508
23
3.09904045684
33
4.366549
0
3DFACE
8
Faces
10
25.1927730615
20
2.32684023365
30
4.912368
11
25.2523248003
21
1.55244715904
31
4.366549
12
25.1927730615
22
2.32684023365
32
3.820731
13
25.1094792508
23
3.09904045684
33
4.366549
0
3DFACE
8
Faces
10
25.5910777739
20
2.36362822153
30
4.912368
11
25.6515710422
21
1.57699177815
31
4.366549
12
25.5910777739
22
2.36362822153
32
3.820731
13
25.5064670651
23
3.14803714391
33
4.366549
0
3DFACE
8
Faces
10
25.5910777739
20
2.36362822153
30
4.912368
11
25.6515710422
21
1.57699177815
31
4.366549
12
25.5910777739
22
2.36362822153
32
3.820731
13
25.5064670651
23
3.14803714391
33
4.366549
0
3DFACE
8
Faces
10
25.9893824863
20
2.40041620941
30
4.912368
11
26.0508172841
21
1.60153639727
31
4.366549
12
25.9893824863
22
2.40041620941
32
3.820731
13
25.9034548793
23
3.19703383097
33
4.366549
0
3DFACE
8
Faces
10
25.9893824863
20
2.40041620941
30
4.912368
11
26.0508172841
21
1.60153639727
31
4.366549
12
25.9893824863
22
2.40041620941
32
3.820731
13
25.9034548793
23
3.19703383097
33
4.366549
0
3DFACE
8
Faces
10
26.2881110207
20
2.42800720033
30
4.912368
11
26.3502519655
21
1.6199448616
31
4.366549
12
26.2881110207
22
2.42800720033
32
3.820731
13
26.20119574
23
3.23378134627
33
4.366549
0
3DFACE
8
Faces
10
24.7060492744
20
3.82245068655
30
4.912368
11
24.8117383901
21
3.06229294154
31
4.366549
12
24.7060492744
22
3.82245068655
32
3.820731
13
24.5770767831
23
4.57900609296
33
4.366549
0
3DFACE
8
Faces
10
25.0025218657
20
3.86832009479
30
4.912368
11
25.1094792508
21
3.09904045684
31
4.366549
12
25.0025218657
22
3.86832009479
32
3.820731
13
24.8720017045
23
4.63395416608
33
4.366549
0
3DFACE
8
Faces
10
25.0025218657
20
3.86832009479
30
4.912368
11
25.1094792508
21
3.09904045684
31
4.366549
12
25.0025218657
22
3.86832009479
32
3.820731
13
24.8720017045
23
4.63395416608
33
4.366549
0
3DFACE
8
Faces
10
25.3978186541
20
3.92947930578
30
4.912368
11
25.5064670651
21
3.14803714391
31
4.366549
12
25.3978186541
22
3.92947930578
32
3.820731
13
25.265234933
23
4.70721826357
33
4.366549
0
3DFACE
8
Faces
10
25.3978186541
20
3.92947930578
30
4.912368
11
25.5064670651
21
3.14803714391
31
4.366549
12
25.3978186541
22
3.92947930578
32
3.820731
13
25.265234933
23
4.70721826357
33
4.366549
0
3DFACE
8
Faces
10
25.7931154425
20
3.99063851676
30
4.912368
11
25.9034548793
21
3.19703383097
31
4.366549
12
25.7931154425
22
3.99063851676
32
3.820731
13
25.6584681615
23
4.78048236105
33
4.366549
0
3DFACE
8
Faces
10
25.7931154425
20
3.99063851676
30
4.912368
11
25.9034548793
21
3.19703383097
31
4.366549
12
25.7931154425
22
3.99063851676
32
3.820731
13
25.6584681615
23
4.78048236105
33
4.366549
0
3DFACE
8
Faces
10
26.0895880338
20
4.036507925
30
4.912368
11
26.20119574
21
3.23378134627
31
4.366549
12
26.0895880338
22
4.036507925
32
3.820731
13
25.9533930829
23
4.83543043417
33
4.366549
0
3DFACE
8
Faces
10
24.9528901188
20
1.5340386947
30
4.366549
11
24.9882197082
21
0.767382444088
31
3.820731
12
24.9528901188
22
1.5340386947
32
3.274912
13
24.8940445272
23
2.29924924273
33
3.820731
0
3DFACE
8
Faces
10
25.2523248003
20
1.55244715904
30
4.366549
11
25.2880783447
21
0.776591033417
31
3.820731
12
25.2523248003
22
1.55244715904
32
3.274912
13
25.1927730615
23
2.32684023365
33
3.820731
0
3DFACE
8
Faces
10
25.2523248003
20
1.55244715904
30
4.366549
11
25.2880783447
21
0.776591033417
31
3.820731
12
25.2523248003
22
1.55244715904
32
3.274912
13
25.1927730615
23
2.32684023365
33
3.820731
0
3DFACE
8
Faces
10
25.6515710422
20
1.57699177815
30
4.366549
11
25.68788986
21
0.788869152523
31
3.820731
12
25.6515710422
22
1.57699177815
32
3.274912
13
25.5910777739
23
2.36362822153
33
3.820731
0
3DFACE
8
Faces
10
25.6515710422
20
1.57699177815
30
4.366549
11
25.68788986
21
0.788869152523
31
3.820731
12
25.6515710422
22
1.57699177815
32
3.274912
13
25.5910777739
23
2.36362822153
33
3.820731
0
3DFACE
8
Faces
10
26.0508172841
20
1.60153639727
30
4.366549
11
26.0877013753
21
0.801147271628
31
3.820731
12
26.0508172841
22
1.60153639727
32
3.274912
13
25.9893824863
23
2.40041620941
33
3.820731
0
3DFACE
8
Faces
10
26.0508172841
20
1.60153639727
30
4.366549
11
26.0877013753
21
0.801147271628
31
3.820731
12
26.0508172841
22
1.60153639727
32
3.274912
13
25.9893824863
23
2.40041620941
33
3.820731
0
3DFACE
8
Faces
10
26.3502519655
20
1.6199448616
30
4.366549
11
26.3875600118
21
0.810355860957
31
3.820731
12
26.3502519655
22
1.6199448616
32
3.274912
13
26.2881110207
23
2.42800720033
33
3.820731
0
3DFACE
8
Faces
10
24.8117383901
20
3.06229294154
30
4.366549
11
24.8940445272
21
2.29924924273
31
3.820731
12
24.8117383901
22
3.06229294154
32
3.274912
13
24.7060492744
23
3.82245068655
33
3.820731
0
3DFACE
8
Faces
10
25.1094792508
20
3.09904045684
30
4.366549
11
25.1927730615
21
2.32684023365
31
3.820731
12
25.1094792508
22
3.09904045684
32
3.274912
13
25.0025218657
23
3.86832009479
33
3.820731
0
3DFACE
8
Faces
10
25.1094792508
20
3.09904045684
30
4.366549
11
25.1927730615
21
2.32684023365
31
3.820731
12
25.1094792508
22
3.09904045684
32
3.274912
13
25.0025218657
23
3.86832009479
33
3.820731
0
3DFACE
8
Faces
10
25.5064670651
20
3.14803714391
30
4.366549
11
25.5910777739
21
2.36362822153
31
3.820731
12
25.5064670651
22
3.14803714391
32
3.274912
13
25.3978186541
23
3.92947930578
33
3.820731
0
3DFACE
8
Faces
10
25.5064670651
20
3.14803714391
30
4.366549
11
25.5910777739
21
2.36362822153
31
3.820731
12
25.5064670651
22
3.14803714391
32
3.274912
13
25.3978186541
23
3.92947930578
33
3.820731
0
3DFACE
8
Faces
10
25.9034548793
20
3.19703383097
30
4.366549
11
25.9893824863
21
2.40041620941
31
3.820731
12
25.9034548793
22
3.19703383097
32
3.274912
13
25.7931154425
23
3.99063851676
33
3.820731
0
3DFACE
8
Faces
10
25.9034548793
20
3.19703383097
30
4.366549
11
25.9893824863
21
2.40041620941
31
3.820731
12
25.9034548793
22
3.19703383097
32
3.274912
13
25.7931154425
23
3.99063851676
33
3.820731
0
3DFACE
8
Faces
10
26.20119574
20
3.23378134627
30
4.366549
11
26.2881110207
21
2.42800720033
31
3.820731
12
26.20119574
22
3.23378134627
32
3.274912
13
26.0895880338
23
4.036507925
33
3.820731
0
3DFACE
8
Faces
10
24.9882197082
20
0.767382444088
30
2.729093
11
24.9882197082
21
0.767382444088
31
2.729093
12
24.9528901188
22
1.5340386947
32
3.274912
13
24.9882197082
23
0.767382444088
33
3.820731
0
3DFACE
8
Faces
10
25.2880783447
20
0.776591033417
30
2.729093
11
25.2880783447
21
0.776591033417
31
2.729093
12
25.2523248003
22
1.55244715904
32
3.274912
13
25.2880783447
23
0.776591033417
33
3.820731
0
3DFACE
8
Faces
10
25.2880783447
20
0.776591033417
30
2.729093
11
25.2880783447
21
0.776591033417
31
2.729093
12
25.2523248003
22
1.55244715904
32
3.274912
13
25.2880783447
23
0.776591033417
33
3.820731
0
3DFACE
8
Faces
10
25.68788986
20
0.788869152523
30
2.729093
11
25.68788986
21
0.788869152523
31
2.729093
12
25.6515710422
22
1.57699177815
32
3.274912
13
25.68788986
23
0.788869152523
33
3.820731
0
3DFACE
8
Faces
10
25.68788986
20
0.788869152523
30
2.729093
11
25.68788986
21
0.788869152523
31
2.729093
12
25.6515710422
22
1.57699177815
32
3.274912
13
25.68788986
23
0.788869152523
33
3.820731
0
3DFACE
8
Faces
10
26.0877013753
20
0.801147271628
30
2.729093
11
26.0877013753
21
0.801147271628
31
2.729093
12
26.0508172841
22
1.60153639727
32
3.274912
13
26.0877013753
23
0.801147271628
33
3.820731
0
3DFACE
8
Faces
10
26.0877013753
20
0.801147271628
30
2.729093
11
26.0877013753
21
0.801147271628
31
2.729093
12
26.0508172841
22
1.60153639727
32
3.274912
13
26.0877013753
23
0.801147271628
33
3.820731
0
3DFACE
8
Faces
10
26.3875600118
20
0.810355860957
30
2.729093
11
26.3875600118
21
0.810355860957
31
2.729093
12
26.3502519655
22
1.6199448616
32
3.274912
13
26.3875600118
23
0.810355860957
33
3.820731
0
3DFACE
8
Faces
10
24.8940445272
20
2.29924924273
30
3.820731
11
24.9528901188
21
1.5340386947
31
3.274912
12
24.8940445272
22
2.29924924273
32
2.729093
13
24.8117383901
23
3.06229294154
33
3.274912
0
3DFACE
8
Faces
10
25.1927730615
20
2.32684023365
30
3.820731
11
25.2523248003
21
1.55244715904
31
3.274912
12
25.1927730615
22
2.32684023365
32
2.729093
13
25.1094792508
23
3.09904045684
33
3.274912
0
3DFACE
8
Faces
10
25.1927730615
20
2.32684023365
30
3.820731
11
25.2523248003
21
1.55244715904
31
3.274912
12
25.1927730615
22
2.32684023365
32
2.729093
13
25.1094792508
23
3.09904045684
33
3.274912
0
3DFACE
8
Faces
10
25.5910777739
20
2.36362822153
30
3.820731
11
25.6515710422
21
1.57699177815
31
3.274912
12
25.5910777739
22
2.36362822153
32
2.729093
13
25.5064670651
23
3.14803714391
33
3.274912
0
3DFACE
8
Faces
10
25.5910777739
20
2.36362822153
30
3.820731
11
25.6515710422
21
1.57699177815
31
3.274912
12
25.5910777739
22
2.36362822153
32
2.729093
13
25.5064670651
23
3.14803714391
33
3.274912
0
3DFACE
8
Faces
10
25.9893824863
20
2.40041620941
30
3.820731
11
26.0508172841
21
1.60153639727
31
3.274912
12
25.9893824863
22
2.40041620941
32
2.729093
13
25.9034548793
23
3.19703383097
33
3.274912
0
3DFACE
8
Faces
10
25.9893824863
20
2.40041620941
30
3.820731
11
26.0508172841
21
1.60153639727
31
3.274912
12
25.9893824863
22
2.40041620941
32
2.729093
13
25.9034548793
23
3.19703383097
33
3.274912
0
3DFACE
8
Faces
10
26.2881110207
20
2.42800720033
30
3.820731
11
26.3502519655
21
1.6199448616
31
3.274912
12
26.2881110207
22
2.42800720033
32
2.729093
13
26.20119574
23
3.23378134627
33
3.274912
0
3DFACE
8
Faces
10
24.7060492744
20
3.82245068655
30
3.820731
11
24.8117383901
21
3.06229294154
31
3.274912
12
24.7060492744
22
3.82245068655
32
2.729093
13
24.5770767831
23
4.57900609296
33
3.274912
0
3DFACE
8
Faces
10
25.0025218657
20
3.86832009479
30
3.820731
11
25.1094792508
21
3.09904045684
31
3.274912
12
25.0025218657
22
3.86832009479
32
2.729093
13
24.8720017045
23
4.63395416608
33
3.274912
0
3DFACE
8
Faces
10
25.0025218657
20
3.86832009479
30
3.820731
11
25.1094792508
21
3.09904045684
31
3.274912
12
25.0025218657
22
3.86832009479
32
2.729093
13
24.8720017045
23
4.63395416608
33
3.274912
0
3DFACE
8
Faces
10
25.3978186541
20
3.92947930578
30
3.820731
11
25.5064670651
21
3.14803714391
31
3.274912
12
25.3978186541
22
3.92947930578
32
2.729093
13
25.265234933
23
4.70721826357
33
3.274912
0
3DFACE
8
Faces
10
25.3978186541
20
3.92947930578
30
3.820731
11
25.5064670651
21
3.14803714391
31
3.274912
12
25.3978186541
22
3.92947930578
32
2.729093
13
25.265234933
23
4.70721826357
33
3.274912
0
3DFACE
8
Faces
10
25.7931154425
20
3.99063851676
30
3.820731
11
25.9034548793
21
3.19703383097
31
3.274912
12
25.7931154425
22
3.99063851676
32
2.729093
13
25.6584681615
23
4.78048236105
33
3.274912
0
3DFACE
8
Faces
10
25.7931154425
20
3.99063851676
30
3.820731
11
25.9034548793
21
3.19703383097
31
3.274912
12
25.7931154425
22
3.99063851676
32
2.729093
13
25.6584681615
23
4.78048236105
33
3.274912
0
3DFACE
8
Faces
10
26.0895880338
20
4.036507925
30
3.820731
11
26.20119574
21
3.23378134627
31
3.274912
12
26.0895880338
22
4.036507925
32
2.729093
13
25.9533930829
23
4.83543043417
33
3.274912
0
3DFACE
8
Faces
10
24.7060492744
20
3.82245068655
30
2.729093
11
24.8117383901
21
3.06229294154
31
1.819396
12
24.8940445272
22
2.29924924273
32
2.729093
13
24.8117383901
23
3.06229294154
33
3.274912
0
3DFACE
8
Faces
10
25.0025218657
20
3.86832009479
30
2.729093
11
25.1094792508
21
3.09904045684
31
1.819396
12
25.1927730615
22
2.32684023365
32
2.729093
13
25.1094792508
23
3.09904045684
33
3.274912
0
3DFACE
8
Faces
10
25.0025218657
20
3.86832009479
30
2.729093
11
25.1094792508
21
3.09904045684
31
1.819396
12
25.1927730615
22
2.32684023365
32
2.729093
13
25.1094792508
23
3.09904045684
33
3.274912
0
3DFACE
8
Faces
10
25.3978186541
20
3.92947930578
30
2.729093
11
25.5064670651
21
3.14803714391
31
1.819396
12
25.5910777739
22
2.36362822153
32
2.729093
13
25.5064670651
23
3.14803714391
33
3.274912
0
3DFACE
8
Faces
10
25.3978186541
20
3.92947930578
30
2.729093
11
25.5064670651
21
3.14803714391
31
1.819396
12
25.5910777739
22
2.36362822153
32
2.729093
13
25.5064670651
23
3.14803714391
33
3.274912
0
3DFACE
8
Faces
10
25.7931154425
20
3.99063851676
30
2.729093
11
25.9034548793
21
3.19703383097
31
1.819396
12
25.9893824863
22
2.40041620941
32
2.729093
13
25.9034548793
23
3.19703383097
33
3.274912
0
3DFACE
8
Faces
10
25.7931154425
20
3.99063851676
30
2.729093
11
25.9034548793
21
3.19703383097
31
1.819396
12
25.9893824863
22
2.40041620941
32
2.729093
13
25.9034548793
23
3.19703383097
33
3.274912
0
3DFACE
8
Faces
10
26.0895880338
20
4.036507925
30
2.729093
11
26.20119574
21
3.23378134627
31
1.819396
12
26.2881110207
22
2.42800720033
32
2.729093
13
26.20119574
23
3.23378134627
33
3.274912
0
3DFACE
8
Faces
10
24.9528901188
20
1.5340386947
30
2.183275
11
24.9882197082
21
0.767382444088
31
2.729093
12
24.9528901188
22
1.5340386947
32
3.274912
13
24.8940445272
23
2.29924924273
33
2.729093
0
3DFACE
8
Faces
10
25.2523248003
20
1.55244715904
30
2.183275
11
25.2880783447
21
0.776591033417
31
2.729093
12
25.2523248003
22
1.55244715904
32
3.274912
13
25.1927730615
23
2.32684023365
33
2.729093
0
3DFACE
8
Faces
10
25.2523248003
20
1.55244715904
30
2.183275
11
25.2880783447
21
0.776591033417
31
2.729093
12
25.2523248003
22
1.55244715904
32
3.274912
13
25.1927730615
23
2.32684023365
33
2.729093
0
3DFACE
8
Faces
10
25.6515710422
20
1.57699177815
30
2.183275
11
25.68788986
21
0.788869152523
31
2.729093
12
25.6515710422
22
1.57699177815
32
3.274912
13
25.5910777739
23
2.36362822153
33
2.729093
0
3DFACE
8
Faces
10
25.6515710422
20
1.57699177815
30
2.183275
11
25.68788986
21
0.788869152523
31
2.729093
12
25.6515710422
22
1.57699177815
32
3.274912
13
25.5910777739
23
2.36362822153
33
2.729093
0
3DFACE
8
Faces
10
26.0508172841
20
1.60153639727
30
2.183275
11
26.0877013753
21
0.801147271628
31
2.729093
12
26.0508172841
22
1.60153639727
32
3.274912
13
25.9893824863
23
2.40041620941
33
2.729093
0
3DFACE
8
Faces
10
26.0508172841
20
1.60153639727
30
2.183275
11
26.0877013753
21
0.801147271628
31
2.729093
12
26.0508172841
22
1.60153639727
32
3.274912
13
25.9893824863
23
2.40041620941
33
2.729093
0
3DFACE
8
Faces
10
26.3502519655
20
1.6199448616
30
2.183275
11
26.3875600118
21
0.810355860957
31
2.729093
12
26.3502519655
22
1.6199448616
32
3.274912
13
26.2881110207
23
2.42800720033
33
2.729093
0
3DFACE
8
Faces
10
24.9528901188
20
1.5340386947
30
0.0
11
24.9970547305
21
0.383737929802
31
1.364547
12
24.9528901188
22
1.5340386947
32
2.183275
13
24.8558196963
23
2.68108694814
33
1.364547
0
3DFACE
8
Faces
10
25.2523248003
20
1.55244715904
30
0.0
11
25.2970193873
21
0.388342784959
31
1.364547
12
25.2523248003
22
1.55244715904
32
2.183275
13
25.1540895327
23
2.71325999152
33
1.364547
0
3DFACE
8
Faces
10
25.2523248003
20
1.55244715904
30
0.0
11
25.2970193873
21
0.388342784959
31
1.364547
12
25.2523248003
22
1.55244715904
32
2.183275
13
25.1540895327
23
2.71325999152
33
1.364547
0
3DFACE
8
Faces
10
25.6515710422
20
1.57699177815
30
0.0
11
25.696972263
21
0.394482591836
31
1.364547
12
25.6515710422
22
1.57699177815
32
2.183275
13
25.5517826478
23
2.75615738269
33
1.364547
0
3DFACE
8
Faces
10
25.6515710422
20
1.57699177815
30
0.0
11
25.696972263
21
0.394482591836
31
1.364547
12
25.6515710422
22
1.57699177815
32
2.183275
13
25.5517826478
23
2.75615738269
33
1.364547
0
3DFACE
8
Faces
10
26.0508172841
20
1.60153639727
30
0.0
11
26.0969251387
21
0.400622398713
31
1.364547
12
26.0508172841
22
1.60153639727
32
2.183275
13
25.949475763
23
2.79905477386
33
1.364547
0
3DFACE
8
Faces
10
26.0508172841
20
1.60153639727
30
0.0
11
26.0969251387
21
0.400622398713
31
1.364547
12
26.0508172841
22
1.60153639727
32
2.183275
13
25.949475763
23
2.79905477386
33
1.364547
0
3DFACE
8
Faces
10
26.3502519655
20
1.6199448616
30
0.0
11
26.3968897954
21
0.405227253871
31
1.364547
12
26.3502519655
22
1.6199448616
32
2.183275
13
26.2477455993
23
2.83122781724
33
1.364547
0
3DFACE
8
Faces
10
24.8117383901
20
3.06229294154
30
1.819395
11
24.8558196963
21
2.68108694814
31
1.364547
12
24.9528901188
22
1.5340386947
32
2.183275
13
24.8940445272
23
2.29924924273
33
2.729093
0
3DFACE
8
Faces
10
25.1094792508
20
3.09904045684
30
1.819395
11
25.1540895327
21
2.71325999152
31
1.364547
12
25.2523248003
22
1.55244715904
32
2.183275
13
25.1927730615
23
2.32684023365
33
2.729093
0
3DFACE
8
Faces
10
25.1094792508
20
3.09904045684
30
1.819395
11
25.1540895327
21
2.71325999152
31
1.364547
12
25.2523248003
22
1.55244715904
32
2.183275
13
25.1927730615
23
2.32684023365
33
2.729093
0
3DFACE
8
Faces
10
25.5064670651
20
3.14803714391
30
1.819395
11
25.5517826478
21
2.75615738269
31
1.364547
12
25.6515710422
22
1.57699177815
32
2.183275
13
25.5910777739
23
2.36362822153
33
2.729093
0
3DFACE
8
Faces
10
25.5064670651
20
3.14803714391
30
1.819395
11
25.5517826478
21
2.75615738269
31
1.364547
12
25.6515710422
22
1.57699177815
32
2.183275
13
25.5910777739
23
2.36362822153
33
2.729093
0
3DFACE
8
Faces
10
25.9034548793
20
3.19703383097
30
1.819395
11
25.949475763
21
2.79905477386
31
1.364547
12
26.0508172841
22
1.60153639727
32
2.183275
13
25.9893824863
23
2.40041620941
33
2.729093
0
3DFACE
8
Faces
10
25.9034548793
20
3.19703383097
30
1.819395
11
25.949475763
21
2.79905477386
31
1.364547
12
26.0508172841
22
1.60153639727
32
2.183275
13
25.9893824863
23
2.40041620941
33
2.729093
0
3DFACE
8
Faces
10
26.20119574
20
3.23378134627
30
1.819395
11
26.2477455993
21
2.83122781724
31
1.364547
12
26.3502519655
22
1.6199448616
32
2.183275
13
26.2881110207
23
2.42800720033
33
2.729093
0
3DFACE
8
Faces
10
24.9882197082
20
0.767382444088
30
4.912368
11
25.0
21
3e-06
31
4.366549
12
24.9882197082
22
0.767382444088
32
3.820731
13
24.9528901188
23
1.5340386947
33
4.366549
0
3DFACE
8
Faces
10
25.2880783447
20
0.776591033417
30
4.912368
11
25.3
21
3.036e-06
31
4.366549
12
25.2880783447
22
0.776591033417
32
3.820731
13
25.2523248003
23
1.55244715904
33
4.366549
0
3DFACE
8
Faces
10
25.2880783447
20
0.776591033417
30
4.912368
11
25.3
21
3.036e-06
31
4.366549
12
25.2880783447
22
0.776591033417
32
3.820731
13
25.2523248003
23
1.55244715904
33
4.366549
0
3DFACE
8
Faces
10
25.68788986
20
0.788869152523
30
4.912368
11
25.7
21
3.084e-06
31
4.366549
12
25.68788986
22
0.788869152523
32
3.820731
13
25.6515710422
23
1.57699177815
33
4.366549
0
3DFACE
8
Faces
10
25.68788986
20
0.788869152523
30
4.912368
11
25.7
21
3.084e-06
31
4.366549
12
25.68788986
22
0.788869152523
32
3.820731
13
25.6515710422
23
1.57699177815
33
4.366549
0
3DFACE
8
Faces
10
26.0877013753
20
0.801147271628
30
4.912368
11
26.1
21
3.132e-06
31
4.366549
12
26.0877013753
22
0.801147271628
32
3.820731
13
26.0508172841
23
1.60153639727
33
4.366549
0
3DFACE
8
Faces
10
26.0877013753
20
0.801147271628
30
4.912368
11
26.1
21
3.132e-06
31
4.366549
12
26.0877013753
22
0.801147271628
32
3.820731
13
26.0508172841
23
1.60153639727
33
4.366549
0
3DFACE
8
Faces
10
26.3875600118
20
0.810355860957
30
4.912368
11
26.4
21
3.168e-06
31
4.366549
12
26.3875600118
22
0.810355860957
32
3.820731
13
26.3502519655
23
1.6199448616
33
4.366549
0
3DFACE
8
Faces
10
24.9882197082
20
0.767382444088
30
3.820731
11
25.0
21
3e-06
31
3.274912
12
24.9882197082
22
0.767382444088
32
2.729093
13
24.9528901188
23
1.5340386947
33
3.274912
0
3DFACE
8
Faces
10
25.2880783447
20
0.776591033417
30
3.820731
11
25.3
21
3.036e-06
31
3.274912
12
25.2880783447
22
0.776591033417
32
2.729093
13
25.2523248003
23
1.55244715904
33
3.274912
0
3DFACE
8
Faces
10
25.2880783447
20
0.776591033417
30
3.820731
11
25.3
21
3.036e-06
31
3.274912
12
25.2880783447
22
0.776591033417
32
2.729093
13
25.2523248003
23
1.55244715904
33
3.274912
0
3DFACE
8
Faces
10
25.68788986
20
0.788869152523
30
3.820731
11
25.7
21
3.084e-06
31
3.274912
12
25.68788986
22
0.788869152523
32
2.729093
13
25.6515710422
23
1.57699177815
33
3.274912
0
3DFACE
8
Faces
10
25.68788986
20
0.788869152523
30
3.820731
11
25.7
21
3.084e-06
31
3.274912
12
25.68788986
22
0.788869152523
32
2.729093
13
25.6515710422
23
1.57699177815
33
3.274912
0
3DFACE
8
Faces
10
26.0877013753
20
0.801147271628
30
3.820731
11
26.1
21
3.132e-06
31
3.274912
12
26.0877013753
22
0.801147271628
32
2.729093
13
26.0508172841
23
1.60153639727
33
3.274912
0
3DFACE
8
Faces
10
26.0877013753
20
0.801147271628
30
3.820731
11
26.1
21
3.132e-06
31
3.274912
12
26.0877013753
22
0.801147271628
32
2.729093
13
26.0508172841
23
1.60153639727
33
3.274912
0
3DFACE
8
Faces
10
26.3875600118
20
0.810355860957
30
3.820731
11
26.4
21
3.168e-06
31
3.274912
12
26.3875600118
22
0.810355860957
32
2.729093
13
26.3502519655
23
1.6199448616
33
3.274912
0
ENDSEC
0
EOF
