0
SECTION
2
HEADER
9
$ACADVER
1
AC1006
9
$INSBASE
10
0.0
20
0.0
30
0.0
9
$EXTMIN
10
0.0
20
0.0
9
$EXTMAX
10
0.0
20
0.0
0
ENDSEC
0
SECTION
2
TABLES
0
TABLE
2
LTYPE
70
1
0
LTYPE
2
CONTINUOUS
70
64
3
Solid line
72
65
73
0
40
0.0
0
ENDTAB
0
TABLE
2
LAYER
70
1
0
LAYER
2
PYDXF
70
64
62
7
6
continuous
0
ENDTAB
0
TABLE
2
STYLE
70
1
0
STYLE
2
STANDARD
70
0
40
0
41
40
50
50
71
0
42
1
3
ARIAL.TTF
4

0
ENDTAB
0
TABLE
2
VIEW
70
0
0
ENDTAB
0
ENDSEC
0
SECTION
2
BLOCKS
0
ENDSEC
0
SECTION
2
ENTITIES
0
LINE
8
Lines
10
-16.3919294578
20
-18.8760337108
30
-303670.851454
11
-17.6741464077
21
-17.6811919496
31
-303670.851454
0
LINE
8
Lines
10
-24.987757888
20
0.782275993207
30
3.58484895053
11
-24.5743432013
21
4.59365390771
31
0.855755867884
0
LINE
8
Lines
10
19.818751878
20
-15.2386703488
30
57.0750734427
11
-19.5021018398
21
15.6418676579
31
0.855755867879
0
LINE
8
Lines
10
-19.973042204
20
15.0358765996
30
57.0750734306
11
20.277166824
21
-14.6231496467
31
0.855755867925
0
LINE
8
Lines
10
21.1362541138
20
-13.3513580596
30
24.8717750335
11
-20.4423329332
21
-14.3913524121
31
59.8041665235
0
LINE
8
Lines
10
-19.0321235505
20
-16.2104371674
30
57.0750734371
11
21.1362541138
21
-13.3513580596
31
23.7801377991
0
LINE
8
Lines
10
-24.4281169717
20
-5.31668141002
30
3.58484895425
11
24.5320038994
21
4.81464273658
31
59.8041665234
0
LINE
8
Lines
10
23.9852301955
20
7.05044200511
30
57.0750734368
11
-23.8356111408
21
-7.54079846855
31
0.855755867926
0
LINE
8
Lines
10
21.1362541138
20
-13.3513580596
30
9.58885375224
11
-24.2461624432
21
6.0929144733
31
59.8041665234
0
LINE
8
Lines
10
-22.3891331606
20
11.1232511577
30
3.58484895425
11
21.1362541138
21
-13.3513580596
31
57.6208920453
0
LINE
8
Lines
10
21.1362541209
20
-13.3513580484
30
56.5292548205
11
2.15750104254
21
-24.9067297984
31
40.1546963051
0
LINE
8
Lines
10
2.15750104254
20
-24.9067297984
30
40.1546963051
11
-5.51960624935
21
-24.3830668057
31
35.3782277318
0
LINE
8
Lines
10
-5.51960624935
20
-24.3830668057
30
35.3782277318
11
-7.43346000247
21
-23.8693039779
31
34.0285495515
0
LINE
8
Lines
10
-7.43346000247
20
-23.8693039779
30
34.0285495515
11
-17.4605899769
21
-17.8921155166
31
24.871775024
0
LINE
8
Lines
10
-17.4605899769
20
-17.8921155166
30
24.871775024
11
-21.2712396169
21
13.1352337308
31
0.855755867849
0
LINE
8
Lines
10
21.1362541138
20
-13.3513580596
30
54.3459803612
11
-22.7200133885
21
10.4307713821
31
0.855755858345
0
LINE
8
Lines
10
-24.8954110714
20
-2.2844053025
30
3.58484895425
11
24.9370201636
21
1.77342193467
31
59.8041665203
0
LINE
8
Lines
10
24.6682305385
20
4.05935981389
30
57.0750734338
11
-24.5798027296
21
-4.5643507503
31
0.855755864734
0
LINE
8
Lines
10
-21.6644047723
20
12.476119824
30
57.0750734269
11
21.1362541138
21
-13.3513580596
31
1.94739309278
0
LINE
8
Lines
10
-23.0294819372
20
9.72846142535
30
57.0750734128
11
21.1362541138
21
-13.3513580596
31
4.13066756153
0
LINE
8
Lines
10
21.1362541195
20
-13.3513580506
30
13.9554026787
11
-24.9999955576
21
0.0149036916861
31
59.8041665125
0
LINE
8
Lines
10
-24.8954110712
20
-2.28440530485
30
57.0750734379
11
-15.1374700466
21
-19.8961554223
31
42.3379707644
0
LINE
8
Lines
10
-15.1374700466
20
-19.8961554223
30
42.3379707644
11
-5.51960624935
21
-24.3830668057
31
35.3782277318
0
LINE
8
Lines
10
-3.82469200201
20
-24.7057024003
30
34.1118046911
11
2.92100090699
21
-24.8287686707
31
28.6925053397
0
LINE
8
Lines
10
2.92100090699
20
-24.8287686707
30
28.6925053397
11
21.1362541195
21
-13.3513580506
31
12.8637654382
0
LINE
8
Lines
10
-24.8099087703
20
3.07708089061
30
59.8041665234
11
-16.9031607424
21
-18.4196405208
31
42.8837893883
0
LINE
8
Lines
10
-16.9031607424
20
-18.4196405208
30
42.8837893883
11
-16.9031607424
21
-18.4196405208
31
42.8837893883
0
LINE
8
Lines
10
-16.9031607424
20
-18.4196405208
30
42.8837893883
11
-7.43346000247
21
-23.8693039779
31
34.0285495515
0
LINE
8
Lines
10
-5.68129148495
20
-24.3459016482
30
32.6911957818
11
8.87017257742
21
-23.3734900784
31
23.2343191723
0
LINE
8
Lines
10
8.87017257742
20
-23.3734900784
30
23.2343191723
11
21.1362541138
21
-13.3513580596
31
11.772128221
0
LINE
8
Lines
10
-24.9877578875
20
0.782276009312
30
57.0750734241
11
-18.5255732242
21
-16.7869930814
31
43.4296079938
0
LINE
8
Lines
10
-18.5255732242
20
-16.7869930814
30
43.4296079938
11
-7.71398951155
21
-23.7801254373
31
33.799778376
0
LINE
8
Lines
10
-5.97047209367
20
-24.276603201
30
32.4973232137
11
5.95850723307
21
-24.2795426554
31
24.3392730754
0
LINE
8
Lines
10
5.95850723307
20
-24.2795426554
30
24.3392730754
11
5.95850723428
21
-24.2795426551
31
24.3392730746
0
LINE
8
Lines
10
5.95850723428
20
-24.2795426551
30
24.3392730746
11
21.1362541138
21
-13.3513580596
31
10.6804909802
0
LINE
8
Lines
10
-24.7037665991
20
3.83717549963
30
57.0750734241
11
-20.8744454646
21
-13.7570900464
31
43.9754266244
0
LINE
8
Lines
10
-20.8744454646
20
-13.7570900464
30
43.9754266244
11
-11.3417607422
21
-22.2792383906
31
35.4675224532
0
LINE
8
Lines
10
-9.72180088746
20
-23.0322944472
30
34.1819179511
11
-3.03844984451
21
-24.814669503
31
28.585467402
0
LINE
8
Lines
10
-3.03844984451
20
-24.814669503
30
28.585467402
11
21.1362541138
21
-13.3513580596
31
8.49721651111
0
LINE
8
Lines
10
-23.3172471045
20
9.01698327984
30
59.8041665188
11
-21.2868855848
21
-13.1098627795
31
43.4296080079
0
LINE
8
Lines
10
-21.2868855848
20
-13.1098627795
30
43.4296080079
11
-13.2168473157
21
-21.2206255099
31
33.9067155084
0
LINE
8
Lines
10
2.1036708885
20
-24.9113341432
30
23.741715913
11
2.92100090985
21
-24.8287686703
31
23.2343191716
0
LINE
8
Lines
10
2.92100090985
20
-24.8287686703
30
23.2343191716
11
21.1362541204
21
-13.3513580492
31
7.40557927335
0
LINE
8
Lines
10
-24.0477143679
20
6.83428369912
30
57.0750734371
11
-21.2868855849
21
-13.1098627795
31
42.3379707736
0
LINE
8
Lines
10
-21.2868855849
20
-13.1098627795
30
42.3379707736
11
-13.4652696341
21
-21.0638674911
31
33.6692018017
0
LINE
8
Lines
10
-11.9499932467
20
-21.9589995538
30
32.4098732603
11
-0.909611058437
21
-24.9834466742
31
24.8717750223
0
LINE
8
Lines
10
-0.909611058437
20
-24.9834466742
30
24.8717750223
11
21.1362541204
21
-13.3513580492
31
6.31394203899
0
LINE
8
Lines
10
-22.0371530519
20
11.8052482128
30
59.8041665187
11
-17.4605899795
21
-17.892115514
31
36.879784603
0
LINE
8
Lines
10
-17.4605899795
20
-17.892115514
30
36.879784603
11
-8.20490585823
21
-23.6152391446
31
28.5575565416
0
LINE
8
Lines
10
-8.20490585823
20
-23.6152391446
30
28.5575565416
11
3.68174798032
21
-24.7274085138
31
20.5052260857
0
LINE
8
Lines
10
3.68174798032
20
-24.7274085138
30
20.5052260857
11
21.1362541204
21
-13.3513580492
31
5.22230480461
0
LINE
8
Lines
10
-20.4251596544
20
14.4157154902
30
59.8041665187
11
-17.460589971
21
-17.8921155224
31
34.6965101258
0
LINE
8
Lines
10
-17.460589971
20
-17.8921155224
30
34.6965101258
11
-11.4261945322
21
-22.2360535732
31
28.6911299708
0
LINE
8
Lines
10
-8.59051882145
20
-23.4777125457
30
26.4810340199
11
1.39196790967
21
-24.9612184266
31
19.9594074685
0
LINE
8
Lines
10
1.39196790967
20
-24.9612184266
30
19.9594074685
11
20.7164722397
21
-13.9938478605
31
3.58484895382
0
LINE
8
Lines
10
-18.5055449792
20
16.8090691302
30
59.8041665234
11
-19.9909552218
21
-15.0120521355
31
35.242328751
0
LINE
8
Lines
10
-19.9909552218
20
-15.0120521355
30
35.242328751
11
-12.3780181765
21
-21.7206046422
31
27.2260612972
0
LINE
8
Lines
10
-12.3780181765
20
-21.7206046422
30
27.2260612972
11
-1.67605378084
21
-24.9437536013
31
19.9594074693
0
LINE
8
Lines
10
-1.67605378084
20
-24.9437536013
30
19.9594074693
11
18.8463390927
21
-16.4260616948
31
3.58484895432
0
LINE
8
Lines
10
19.3416594237
20
-15.8398298834
30
59.804166514
11
-4.71883259487
21
-24.5506134127
31
40.7005149222
0
LINE
8
Lines
10
-4.71883259487
20
-24.5506134127
30
40.7005149222
11
-11.6899379501
21
-22.0985372983
31
35.7256350769
0
LINE
8
Lines
10
-11.6899379501
20
-22.0985372983
30
35.7256350769
11
-18.5255732105
21
-16.7869930965
31
29.2383239618
0
LINE
8
Lines
10
-18.5255732105
20
-16.7869930965
30
29.2383239618
11
-19.0127823849
21
16.2331175683
31
3.58484895424
0
LINE
8
Lines
10
17.802898658
20
-17.5515469225
30
57.0750734174
11
-3.20347978633
21
-24.7939048409
31
40.7005149222
0
LINE
8
Lines
10
-3.20347978633
20
-24.7939048409
30
40.7005149222
11
-11.3417607422
21
-22.2792383906
31
35.4675224532
0
LINE
8
Lines
10
-13.2168473157
20
-21.2206255099
30
33.9067155084
11
-19.5207377137
21
-15.6186042626
31
27.0550494926
0
LINE
8
Lines
10
-19.5207377137
20
-15.6186042626
30
27.0550494926
11
-17.439244869
21
17.9129209901
31
0.855755867878
0
LINE
8
Lines
10
21.1362541138
20
-13.3513580596
30
59.804166514
11
-2.44091696308
21
-24.8805531365
31
40.154696305
0
LINE
8
Lines
10
-2.44091696308
20
-24.8805531365
30
40.154696305
11
-9.72180088744
21
-23.0322944473
31
34.1819179512
0
LINE
8
Lines
10
-11.7197806422
20
-22.0827249609
30
32.5763743343
11
-18.5255732105
21
-16.7869930965
31
27.055049493
0
LINE
8
Lines
10
-18.5255732105
20
-16.7869930965
30
27.055049493
11
-20.8580281042
21
13.7819687855
31
3.58484895424
0
LINE
8
Lines
10
21.1362541138
20
-13.3513580596
30
55.4376175767
11
3.68174798128
21
-24.7274085137
31
40.1546963051
0
LINE
8
Lines
10
3.68174798128
20
-24.7274085137
30
40.1546963051
11
-3.82469200201
21
-24.7057024003
31
34.1118046911
0
LINE
8
Lines
10
-3.82469200201
20
-24.7057024003
30
34.1118046911
11
-5.68129148495
21
-24.3459016482
31
32.6911957818
0
LINE
8
Lines
10
-5.68129148495
20
-24.3459016482
30
32.6911957818
11
-16.9031607401
21
-18.4196405229
31
24.3259564069
0
LINE
8
Lines
10
-16.9031607401
20
-18.4196405229
30
24.3259564069
11
-23.5830377339
21
8.29700736659
31
3.58484895617
0
LINE
8
Lines
10
15.5422758673
20
19.581564311
30
57.0750734294
11
-11.8911917498
21
21.9908971797
31
36.3339659863
0
LINE
8
Lines
10
-11.8911917498
20
21.9908971797
30
36.3339659863
11
-17.7094664472
21
17.6458153157
31
31.350496775
0
LINE
8
Lines
10
-17.7094664472
20
17.6458153157
30
31.350496775
11
-22.0371530493
21
11.8052482177
31
25.9634122588
0
LINE
8
Lines
10
-22.0371530493
20
11.8052482177
30
25.9634122588
11
-24.7037665976
21
3.83717550953
31
19.9594074712
0
LINE
8
Lines
10
-24.7037665976
20
3.83717550953
30
19.9594074712
11
-23.7396933687
21
-7.83753524785
31
12.4111330716
0
LINE
8
Lines
10
-20.4423329321
20
-14.3913524136
30
6.31394204023
11
-15.137470051
21
-19.8961554189
31
0.855755867886
0
LINE
8
Lines
10
21.1362541138
20
-13.3513580596
30
53.2543431079
11
-2.84219439001
21
-24.8379131782
31
33.3178889932
0
LINE
8
Lines
10
-2.84219439001
20
-24.8379131782
30
33.3178889932
11
-12.7836238979
21
-21.4843887518
31
25.4911709058
0
LINE
8
Lines
10
-12.7836238979
20
-21.4843887518
30
25.4911709058
11
-18.0015640748
21
-17.3477286946
31
21.0510447037
0
LINE
8
Lines
10
-18.0015640748
20
-17.3477286946
30
21.0510447037
11
-24.4309039985
21
-5.30385989792
31
11.9516737841
0
LINE
8
Lines
10
-24.8908232412
20
-2.333863401
30
9.42728376341
11
-24.9300825732
21
-1.86841721603
31
8.97621584423
0
LINE
8
Lines
10
-24.9300825732
20
-1.86841721603
30
8.97621584423
11
-24.4217605495
21
5.34580318221
31
3.58484895856
0
LINE
8
Lines
10
-23.8356111408
20
-7.5407984686
30
0.85575586789
11
-24.4281169717
21
-5.31668141002
31
3.58484895425
0
LINE
8
Lines
10
-24.7083240877
20
-3.80771857892
30
3.58484895425
11
-8.61242740454
21
-23.4696845782
31
22.5400061521
0
LINE
8
Lines
10
-8.61242740454
20
-23.4696845782
30
22.5400061521
11
-3.87888653865
21
-24.6972516532
31
25.5749506047
0
LINE
8
Lines
10
-3.87888653865
20
-24.6972516532
30
25.5749506047
11
3.68174798188
21
-24.7274085136
31
31.4215984304
0
LINE
8
Lines
10
3.68174798188
20
-24.7274085136
30
31.4215984304
11
21.1362541138
21
-13.3513580596
31
46.7045197016
0
LINE
8
Lines
10
21.1362541162
20
-13.3513580559
30
45.6128824705
11
-24.9538003816
21
-1.51915980548
31
0.855755864734
0
LINE
8
Lines
10
-24.9538003813
20
-1.51915980991
30
0.855755867888
11
-24.7083240877
21
-3.80771857892
31
3.58484895425
0
LINE
8
Lines
10
-24.5798027305
20
-4.56435074594
30
0.855755867888
11
-24.8954110714
21
-2.2844053025
31
3.58484895425
0
LINE
8
Lines
10
24.5320038993
20
4.81464273681
30
59.8041665235
11
23.9852301956
21
7.05044200482
31
57.0750734371
0
LINE
8
Lines
10
24.9370201636
20
1.77342193474
30
59.8041665202
11
24.6682305385
21
4.05935981389
31
57.0750734338
0
LINE
8
Lines
10
-23.5929134612
20
-8.26888350471
30
3.58484895426
11
-19.9730422023
21
15.0358766018
31
21.0510447042
0
LINE
8
Lines
10
-19.9730422023
20
15.0358766018
30
21.0510447042
11
-11.000693287
21
22.4496046113
31
28.181619383
0
LINE
8
Lines
10
-8.35310753375
20
23.5632254696
30
30.4241242813
11
-3.17391583723
21
24.7977067137
31
35.2423287499
0
LINE
8
Lines
10
-3.17391583723
20
24.7977067137
30
35.2423287499
11
23.7575135931
21
7.78335068408
31
59.8041665234
0
LINE
8
Lines
10
22.9409907148
20
9.93533819369
30
57.0750734368
11
-0.879822749701
21
24.9845134419
31
35.7881473673
0
LINE
8
Lines
10
-0.879822749701
20
24.9845134419
30
35.7881473673
11
-7.95776695284
21
23.6996612871
31
30.0435643434
0
LINE
8
Lines
10
-10.5608845934
20
22.6598260497
30
27.9526370255
11
-17.980867652
21
17.369179557
31
22.1426819386
0
LINE
8
Lines
10
-17.980867652
20
17.369179557
30
22.1426819386
11
-22.7324338118
21
-10.4036749753
31
0.855755867931
0
LINE
8
Lines
10
-22.7324338118
20
-10.4036749753
30
0.855755867895
11
-23.5929134612
21
-8.26888350471
31
3.58484895426
0
LINE
8
Lines
10
23.7575135931
20
7.78335068431
30
59.8041665235
11
22.9409907149
21
9.93533819342
31
57.0750734371
0
LINE
8
Lines
10
-24.987757888
20
0.782275993681
30
3.5848489511
11
24.9370201644
21
1.77342192346
31
57.6208920579
0
LINE
8
Lines
10
24.9370201644
20
1.77342192346
30
56.5292548236
11
-24.9538003816
21
-1.51915980543
31
0.85575586477
0
LINE
8
Lines
10
-24.9538003816
20
-1.51915980548
30
0.855755864734
11
-24.987757888
21
0.782275993681
31
3.5848489511
0
LINE
8
Lines
10
-24.7037665979
20
3.83717550755
30
3.58484895425
11
24.9370201644
21
1.77342192346
31
55.4376175954
0
LINE
8
Lines
10
24.9370201644
20
1.77342192346
30
54.3459803612
11
-24.9519713564
21
1.54891104566
31
0.855755867922
0
LINE
8
Lines
10
-24.9519713564
20
1.54891104561
30
0.855755867885
11
-24.7037665979
21
3.83717550755
31
3.58484895425
0
LINE
8
Lines
10
-24.0477143644
20
6.83428371158
30
3.58484895425
11
24.9370201644
21
1.77342192346
31
53.2543431267
0
LINE
8
Lines
10
24.9370201644
20
1.77342192347
30
52.1627058924
11
-24.5743432013
21
4.59365390776
31
0.855755867923
0
LINE
8
Lines
10
-24.5743432013
20
4.59365390771
30
0.855755867886
11
-24.0477143644
21
6.83428371158
31
3.58484895425
0
LINE
8
Lines
10
-23.029481923
20
9.72846145889
30
3.58484895424
11
24.9370201644
21
1.77342192347
31
51.0710686559
0
LINE
8
Lines
10
24.9370201644
20
1.77342192347
30
49.9794314216
11
-23.8266033347
21
7.56921221328
31
0.855755867918
0
LINE
8
Lines
10
-23.8266033347
20
7.56921221323
30
0.855755867882
11
-23.029481923
21
9.72846145889
31
3.58484895424
0
LINE
8
Lines
10
-21.6644047668
20
12.4761198335
30
3.58484894471
11
24.9370201644
21
1.77342192347
31
48.88779417
0
LINE
8
Lines
10
24.9370201644
20
1.77342192347
30
47.7961569357
11
-22.7200133885
21
10.4307713821
31
0.855755858381
0
LINE
8
Lines
10
-22.7200133885
20
10.4307713821
30
0.855755858345
11
-21.6644047668
21
12.4761198335
31
3.58484894471
0
LINE
8
Lines
10
-19.9730422024
20
15.0358766017
30
3.58484895421
11
24.9370201644
21
1.77342192347
31
46.7045197204
0
LINE
8
Lines
10
24.9370201644
20
1.77342192347
30
45.6128824861
11
-21.2712396168
21
13.1352337308
31
0.855755867886
0
LINE
8
Lines
10
-21.2712396169
20
13.1352337308
30
0.855755867849
11
-19.9730422024
21
15.0358766017
31
3.58484895421
0
LINE
8
Lines
10
-17.9808676521
20
17.3691795568
30
3.58484895424
11
24.9370201644
21
1.77342192347
31
44.5212452518
0
LINE
8
Lines
10
24.9370201644
20
1.77342192347
30
43.4296080175
11
-19.5021018398
21
15.641867658
31
0.855755867916
0
LINE
8
Lines
10
-19.5021018398
20
15.6418676579
30
0.85575586788
11
-17.9808676521
21
17.3691795568
31
3.58484895424
0
LINE
8
Lines
10
-15.7178850631
20
19.4408870462
30
3.58484895424
11
24.9370201644
21
1.77342192347
31
42.3379707831
0
LINE
8
Lines
10
24.9370201644
20
1.77342192347
30
41.2463335488
11
-17.439244869
21
17.9129209902
31
0.855755867912
0
LINE
8
Lines
10
-17.439244869
20
17.9129209901
30
0.855755867875
11
-15.7178850631
21
19.4408870462
31
3.58484895424
0
LINE
8
Lines
10
-13.2181769885
20
21.2197972917
30
3.58484895424
11
24.9370201644
21
1.77342192347
31
40.1546963144
0
LINE
8
Lines
10
24.9370201644
20
1.77342192347
30
39.06305908
11
-15.1137371857
21
19.9141896215
31
0.85575586791
0
LINE
8
Lines
10
-15.1137371857
20
19.9141896215
30
0.855755867874
11
-13.2181769885
21
21.2197972917
31
3.58484895424
0
LINE
8
Lines
10
-10.5193912801
20
22.6791183051
30
3.58484895424
11
24.9370201644
21
1.77342192347
31
37.9714218456
0
LINE
8
Lines
10
24.9370201644
20
1.77342192347
30
36.8797846113
11
-12.5606030272
21
21.6155326465
31
0.855755867911
0
LINE
8
Lines
10
-12.5606030272
20
21.6155326465
30
0.855755867874
11
-10.5193912801
21
22.6791183051
31
3.58484895424
0
LINE
8
Lines
10
-7.66217407797
20
23.7968713994
30
3.58484895423
11
24.9370201644
21
1.77342192347
31
35.7881473769
0
LINE
8
Lines
10
24.9370201644
20
1.77342192347
30
34.6965101426
11
-9.81829489024
21
22.991326309
31
0.855755867907
0
LINE
8
Lines
10
-9.81829489029
20
22.991326309
30
0.855755867871
11
-7.66217407797
21
23.7968713994
31
3.58484895423
0
LINE
8
Lines
10
-4.68955764295
20
24.5562222077
30
3.58484895423
11
24.9370201644
21
1.77342192347
31
33.6048729082
0
LINE
8
Lines
10
24.9370201644
20
1.77342192347
30
32.5132356739
11
-6.92811440174
21
24.0208499191
31
0.855755867905
0
LINE
8
Lines
10
-6.92811440178
20
24.0208499191
30
0.855755867869
11
-4.68955764295
21
24.5562222077
31
3.58484895423
0
LINE
8
Lines
10
-1.64631225208
20
24.9457342239
30
3.58484895423
11
24.9370201644
21
1.77342192347
31
31.4215984394
0
LINE
8
Lines
10
24.9370201644
20
1.77342192347
30
30.3299612051
11
-3.93359027925
21
24.6885979253
31
0.855755867905
0
LINE
8
Lines
10
-3.9335902793
20
24.6885979252
30
0.855755867869
11
-1.64631225208
21
24.9457342239
31
3.58484895423
0
LINE
8
Lines
10
1.421728082
20
24.9595410467
30
3.58484895423
11
24.9370201644
21
1.77342192347
31
29.2383239707
0
LINE
8
Lines
10
24.9370201644
20
1.77342192347
30
28.1466867364
11
-0.879822749326
21
24.9845134419
31
0.855755867903
0
LINE
8
Lines
10
-0.879822749377
20
24.9845134419
30
0.855755867867
11
1.421728082
21
24.9595410467
31
3.58484895423
0
LINE
8
Lines
10
4.46835591246
20
24.5974347329
30
3.58484895423
11
24.9370201644
21
1.77342192347
31
27.055049502
0
LINE
8
Lines
10
24.9370201644
20
1.77342192347
30
25.9634122677
11
2.18719570251
21
24.9041397153
31
0.8557558679
0
LINE
8
Lines
10
2.18719570246
20
24.9041397153
30
0.855755867864
11
4.46835591246
21
24.5974347329
31
3.58484895423
0
LINE
8
Lines
10
7.44768628409
20
23.8648689293
30
3.58484895423
11
24.9370201644
21
1.77342192347
31
24.8717750333
0
LINE
8
Lines
10
24.9370201644
20
1.77342192347
30
23.7801377989
11
5.22127301992
21
24.448687246
31
0.8557558679
0
LINE
8
Lines
10
5.22127301987
20
24.448687246
30
0.855755867864
11
7.44768628409
21
23.8648689293
31
3.58484895423
0
LINE
8
Lines
10
10.3148478019
20
22.7728767358
30
3.58484895422
11
24.9370201644
21
1.77342192347
31
22.6885005645
0
LINE
8
Lines
10
24.9370201644
20
1.77342192347
30
21.5968633302
11
8.17671326969
21
23.6250155578
31
0.855755867898
0
LINE
8
Lines
10
8.17671326964
20
23.6250155578
30
0.855755867862
11
10.3148478019
21
22.7728767358
31
3.58484895422
0
LINE
8
Lines
10
13.0266584347
20
21.3379045369
30
3.58484895422
11
24.9370201644
21
1.77342192347
31
20.5052260958
0
LINE
8
Lines
10
24.9370201644
20
1.77342192347
30
19.4135888615
11
11.0090048635
21
22.4455298871
31
0.855755867896
0
LINE
8
Lines
10
11.0090048635
20
22.4455298872
30
0.855755867859
11
13.0266584347
21
21.3379045369
31
3.58484895422
0
LINE
8
Lines
10
15.5422758754
20
19.5815643045
30
3.58484895422
11
24.9370201644
21
1.77342192347
31
18.3219516271
0
LINE
8
Lines
10
24.9370201644
20
1.77342192347
30
17.2303143927
11
13.6754909427
21
20.9279943491
31
0.855755867894
0
LINE
8
Lines
10
13.6754909427
20
20.9279943491
30
0.855755867857
11
15.5422758754
21
19.5815643045
31
3.58484895422
0
LINE
8
Lines
10
17.8238126628
20
17.5303081023
30
3.58484895422
11
24.9370201644
21
1.77342192347
31
16.1386771584
0
LINE
8
Lines
10
24.9370201644
20
1.77342192347
30
15.047039924
11
16.1360118287
21
19.0952643937
31
0.855755867893
0
LINE
8
Lines
10
16.1360118287
20
19.0952643937
30
0.855755867857
11
17.8238126628
21
17.5303081023
31
3.58484895422
0
LINE
8
Lines
10
19.836906801
20
15.2150296933
30
3.58484895422
11
24.9370201644
21
1.77342192347
31
13.9554026896
0
LINE
8
Lines
10
24.9370201644
20
1.77342192347
30
12.8637654553
11
18.353509864
21
16.9749425823
31
0.855755867891
0
LINE
8
Lines
10
18.3535098639
20
16.9749425824
30
0.855755867854
11
19.836906801
21
15.2150296933
31
3.58484895422
0
LINE
8
Lines
10
21.5512392816
20
12.670599253
30
3.58484895421
11
24.9370201644
21
1.77342192347
31
11.7721282209
0
LINE
8
Lines
10
24.9370201644
20
1.77342192347
30
10.6804909866
11
20.2945875337
21
14.5989628686
31
0.855755867889
0
LINE
8
Lines
10
20.2945875336
20
14.5989628686
30
0.855755867853
11
21.5512392816
21
12.670599253
31
3.58484895421
0
LINE
8
Lines
10
22.9409907155
20
9.935338192
30
3.58484895421
11
24.9370201644
21
1.77342192347
31
9.58885375217
0
LINE
8
Lines
10
24.9370201644
20
1.77342192347
30
8.49721651782
11
21.9300104623
21
12.0031096439
31
0.855755867887
0
LINE
8
Lines
10
21.9300104623
20
12.0031096439
30
0.855755867851
11
22.9409907155
21
9.935338192
31
3.58484895421
0
LINE
8
Lines
10
23.9852301964
20
7.05044200211
30
3.58484895421
11
24.9370201644
21
1.77342192347
31
7.40557928345
0
LINE
8
Lines
10
24.9370201644
20
1.77342192347
30
6.31394204909
11
23.2351477097
21
9.22647879243
31
0.855755867886
0
LINE
8
Lines
10
23.2351477097
20
9.22647879248
30
0.855755867849
11
23.9852301964
21
7.05044200211
31
3.58484895421
0
LINE
8
Lines
10
24.6682305384
20
4.05935981456
30
3.58484895421
11
24.9370201644
21
1.77342192347
31
5.22230481472
0
LINE
8
Lines
10
24.9370201644
20
1.77342192347
30
4.13066758037
11
24.1903427351
21
6.31088887215
31
0.855755867884
0
LINE
8
Lines
10
24.1903427351
20
6.3108888722
30
0.855755867848
11
24.6682305384
21
4.05935981456
31
3.58484895421
0
LINE
8
Lines
10
24.9370201644
20
1.77342192347
30
1.94739311163
11
24.7812094424
21
3.30025128948
31
0.855755867882
0
LINE
8
Lines
10
24.7812094424
20
3.30025128953
30
0.855755867846
11
24.9370201644
21
1.77342192347
31
2.67515127395
0
LINE
8
Lines
10
-14.5196211262
20
-20.3514275261
30
3.58484895427
11
14.933892632
21
20.0494102371
31
59.8041665235
0
LINE
8
Lines
10
13.0266584331
20
21.3379045379
30
57.0750734368
11
-12.5863662118
21
-21.6005413262
31
0.85575586794
0
LINE
8
Lines
10
-12.5863662117
20
-21.6005413262
30
0.855755867904
11
-14.5196211262
21
-20.3514275261
31
3.58484895427
0
LINE
8
Lines
10
14.9338926318
20
20.0494102373
30
59.8041665235
11
13.0266584334
21
21.3379045377
31
57.0750734371
0
LINE
8
Lines
10
-11.9174029589
20
-21.9767037272
30
3.58484895426
11
12.3655493945
21
21.7277055432
31
59.8041665235
0
LINE
8
Lines
10
10.3148478002
20
22.7728767366
30
57.0750734368
11
-9.84570037722
21
-22.9796036537
31
0.855755867938
0
LINE
8
Lines
10
-9.84570037718
20
-22.9796036537
30
0.855755867901
11
-11.9174029589
21
-21.9767037272
31
3.58484895426
0
LINE
8
Lines
10
12.3655493943
20
21.7277055433
30
59.8041665235
11
10.3148478005
21
22.7728767364
31
57.0750734371
0
LINE
8
Lines
10
-9.13569798471
20
-23.2709910045
30
3.58484895427
11
9.61096986169
21
23.0787620621
31
59.8041665235
0
LINE
8
Lines
10
7.44768628233
20
23.8648689299
30
57.0750734368
11
-6.95674943987
21
-24.0125724826
31
0.855755867939
0
LINE
8
Lines
10
-6.95674943982
20
-24.0125724826
30
0.855755867903
11
-9.13569798471
21
-23.2709910045
31
3.58484895427
0
LINE
8
Lines
10
9.61096986148
20
23.0787620622
30
59.8041665235
11
7.44768628261
21
23.8648689298
31
57.0750734371
0
LINE
8
Lines
10
-6.21640118225
20
-24.2147962275
30
3.58484895427
11
6.71164047872
21
24.0822316674
31
59.8041665235
0
LINE
8
Lines
10
4.46835591065
20
24.5974347332
30
57.0750734368
11
-3.9630235991
21
-24.6838903731
31
0.855755867941
0
LINE
8
Lines
10
-3.96302359905
20
-24.6838903731
30
0.855755867905
11
-6.21640118225
21
-24.2147962275
31
3.58484895427
0
LINE
8
Lines
10
6.7116404785
20
24.0822316675
30
59.8041665235
11
4.46835591094
21
24.5974347332
31
57.0750734371
0
LINE
8
Lines
10
-3.20347978701
20
-24.7939048408
30
3.58484895427
11
3.71122775375
21
24.7230012045
31
59.8041665235
0
LINE
8
Lines
10
1.42172808015
20
24.9595410468
30
57.0750734368
11
-0.909611058619
21
-24.9834466742
31
0.855755867947
0
LINE
8
Lines
10
-0.909611058568
20
-24.9834466742
30
0.855755867911
11
-3.20347978701
21
-24.7939048408
31
3.58484895427
0
LINE
8
Lines
10
3.71122775352
20
24.7230012046
30
59.8041665235
11
1.42172808045
21
24.9595410468
31
57.0750734372
0
LINE
8
Lines
10
-0.142311104994
20
-24.9995949477
30
3.58484895427
11
-21.2712396171
21
13.1352337305
31
41.2463335392
0
LINE
8
Lines
10
-21.2712396171
20
13.1352337305
30
41.2463335392
11
-16.9367085616
21
18.3887983049
31
46.7126189652
0
LINE
8
Lines
10
-15.8918147905
20
19.2989694716
30
47.7178534292
11
-9.81829489055
21
22.9913263089
31
52.1627058827
0
LINE
8
Lines
10
-9.81829489055
20
22.9913263089
30
52.1627058827
11
0.654920600962
21
24.9914201078
31
59.8041665235
0
LINE
8
Lines
10
-1.64631225391
20
24.9457342238
30
57.0750734368
11
-9.12487420512
21
23.2752372865
31
51.6298165836
0
LINE
8
Lines
10
-9.12487420512
20
23.2752372865
30
51.6298165836
11
-14.8441999046
21
20.1159073669
31
46.7436723565
0
LINE
8
Lines
10
-15.9146972875
20
19.2801039999
30
45.7675101821
11
-20.4251596512
21
14.4157154946
31
41.24633354
0
LINE
8
Lines
10
-20.4251596512
20
14.4157154946
30
41.24633354
11
2.15750104249
21
-24.9067297984
31
0.855755867944
0
LINE
8
Lines
10
2.15750104254
20
-24.9067297984
30
0.855755867908
11
-0.142311104994
21
-24.9995949477
31
3.58484895427
0
LINE
8
Lines
10
0.654920600726
20
24.9914201078
30
59.8041665235
11
-1.64631225362
21
24.9457342238
31
57.0750734372
0
LINE
8
Lines
10
2.92100091026
20
-24.8287686703
30
3.58484895428
11
-2.41125024511
21
24.8834457472
31
59.8041665235
0
LINE
8
Lines
10
-4.68955764476
20
24.5562222073
30
57.0750734368
11
5.19211923748
21
-24.454895171
31
0.855755867951
0
LINE
8
Lines
10
5.19211923753
20
-24.454895171
30
0.855755867914
11
2.92100091026
21
-24.8287686703
31
3.58484895428
0
LINE
8
Lines
10
-2.41125024535
20
24.8834457472
30
59.8041665235
11
-4.68955764447
21
24.5562222074
31
57.0750734372
0
LINE
8
Lines
10
5.94032002468
20
-24.2839988059
30
3.58484895427
11
-5.44110549383
21
24.4007043137
31
59.8041665235
0
LINE
8
Lines
10
-7.66217407973
20
23.7968713988
30
57.0750734368
11
8.14853944698
21
-23.6347478277
31
0.855755867947
0
LINE
8
Lines
10
8.14853944703
20
-23.6347478277
30
0.855755867911
11
5.94032002468
21
-24.2839988059
31
3.58484895427
0
LINE
8
Lines
10
-5.44110549406
20
24.4007043137
30
59.8041665235
11
-7.66217407945
21
23.7968713989
31
57.0750734372
0
LINE
8
Lines
10
8.87017257685
20
-23.3734900787
30
3.58484895428
11
-8.38901280013
21
23.5504663274
31
59.8041665235
0
LINE
8
Lines
10
-10.5193912818
20
22.6791183043
30
57.0750734368
11
10.9822353237
21
-22.4586399253
31
0.855755867954
0
LINE
8
Lines
10
10.9822353237
20
-22.4586399253
30
0.855755867918
11
8.87017257685
21
-23.3734900787
31
3.58484895428
0
LINE
8
Lines
10
-8.38901280036
20
23.5504663273
30
59.8041665235
11
-10.5193912815
21
22.6791183044
31
57.0750734372
0
LINE
8
Lines
10
11.6664323523
20
-22.1109555689
30
3.58484895428
11
-11.2105740286
21
22.3455371372
31
59.8041665235
0
LINE
8
Lines
10
-13.21817699
20
21.2197972907
30
57.0750734368
11
13.6505288591
21
-20.9442847065
31
0.855755867951
0
LINE
8
Lines
10
13.6505288591
20
-20.9442847065
30
0.855755867914
11
11.6664323523
21
-22.1109555689
31
3.58484895428
0
LINE
8
Lines
10
-11.2105740289
20
22.3455371371
30
59.8041665235
11
-13.2181769898
21
21.2197972909
31
57.0750734372
0
LINE
8
Lines
10
14.2869851648
20
-20.5154101812
30
3.58484895428
11
-13.8632939306
21
20.8040640595
31
59.8041665235
0
LINE
8
Lines
10
-15.7178850655
20
19.4408870443
30
57.0750734368
11
16.1132331537
21
-19.1144897221
31
0.855755867952
0
LINE
8
Lines
10
16.1132331537
20
-19.1144897221
30
0.855755867916
11
14.2869851648
21
-20.5154101812
31
3.58484895428
0
LINE
8
Lines
10
-13.8632939308
20
20.8040640594
30
59.8041665235
11
-15.7178850653
21
19.4408870445
31
57.0750734372
0
LINE
8
Lines
10
-17.9808676598
20
17.3691795489
30
57.0750734366
11
18.333257666
21
-16.9968133293
31
0.855755871109
0
LINE
8
Lines
10
-16.3072201589
20
18.9492630646
30
59.8041665266
11
-19.9909552202
21
-15.0120521376
31
33.0590542867
0
LINE
8
Lines
10
-19.9909552202
20
-15.0120521376
30
33.0590542867
11
-13.6211172892
21
-20.9634244291
31
26.1907818913
0
LINE
8
Lines
10
-12.7836238979
20
-21.4843887518
30
25.4911709058
11
-4.71883258995
21
-24.5506134137
31
19.959407472
0
LINE
8
Lines
10
-4.71883258995
20
-24.5506134137
30
19.959407472
11
16.6923631336
21
-18.6108842621
31
3.58484895768
0
LINE
8
Lines
10
-20.4423329332
20
-14.3913524121
30
59.8041665235
11
-19.0321235505
21
-16.2104371674
31
57.0750734371
0
LINE
8
Lines
10
21.1362541138
20
-13.3513580596
30
16.1386771593
11
-24.8135599268
21
-3.04749795046
31
59.8041665235
0
LINE
8
Lines
10
-24.4281169715
20
-5.31668141114
30
57.0750734371
11
21.1362541138
21
-13.3513580596
31
15.047039925
0
LINE
8
Lines
10
-24.8135599268
20
-3.04749795049
30
59.8041665235
11
-24.4281169715
21
-5.31668141114
31
57.0750734371
0
LINE
8
Lines
10
21.1362541138
20
-13.3513580596
30
18.3219516273
11
-24.2534097667
21
-6.064001541
31
59.8041665235
0
LINE
8
Lines
10
-23.5929134607
20
-8.26888350605
30
57.0750734371
11
21.1362541138
21
-13.3513580596
31
17.230314393
0
LINE
8
Lines
10
-24.2534097667
20
-6.06400154103
30
59.8041665235
11
-23.5929134607
21
-8.26888350605
31
57.0750734371
0
LINE
8
Lines
10
21.1362541138
20
-13.3513580596
30
20.505226096
11
-23.327981442
21
-8.98917581542
31
59.8041665235
0
LINE
8
Lines
10
-22.4023794537
20
-11.0965487794
30
57.0750734371
11
21.1362541138
21
-13.3513580596
31
19.4135888617
0
LINE
8
Lines
10
-23.327981442
20
-8.98917581545
30
59.8041665235
11
-22.4023794537
21
-11.0965487794
31
57.0750734371
0
LINE
8
Lines
10
21.1362541138
20
-13.3513580596
30
22.6885005648
11
-22.0512127359
21
-11.7789650173
31
59.8041665235
0
LINE
8
Lines
10
-20.8744454636
20
-13.757090048
30
57.0750734371
11
21.1362541138
21
-13.3513580596
31
21.5968633304
0
LINE
8
Lines
10
-22.0512127358
20
-11.7789650173
30
59.8041665235
11
-20.8744454636
21
-13.757090048
31
57.0750734371
0
LINE
8
Lines
10
21.1362541138
20
-13.3513580596
30
27.0550495022
11
-18.5255732109
21
-16.7869930961
31
59.8041665235
0
LINE
8
Lines
10
-16.9031607394
20
-18.4196405235
30
57.0750734371
11
21.1362541138
21
-13.3513580596
31
25.9634122679
0
LINE
8
Lines
10
-18.5255732109
20
-16.7869930961
30
59.8041665235
11
-16.9031607394
21
-18.4196405235
31
57.0750734371
0
LINE
8
Lines
10
21.1362541138
20
-13.3513580596
30
29.2383239709
11
-16.3298016943
21
-18.929806566
31
59.8041665235
0
LINE
8
Lines
10
-14.5196211251
20
-20.3514275269
30
57.0750734371
11
21.1362541138
21
-13.3513580596
31
28.1466867366
0
LINE
8
Lines
10
-16.3298016943
20
-18.929806566
30
59.8041665235
11
-14.5196211251
21
-20.3514275269
31
57.0750734371
0
LINE
8
Lines
10
21.1362541138
20
-13.3513580596
30
31.4215984396
11
-13.8880886773
21
-20.7875201236
31
59.8041665235
0
LINE
8
Lines
10
-11.9174029577
20
-21.9767037279
30
57.0750734371
11
21.1362541138
21
-13.3513580596
31
30.3299612053
0
LINE
8
Lines
10
-13.8880886773
20
-20.7875201237
30
59.8041665235
11
-11.9174029577
21
-21.9767037279
31
57.0750734371
0
LINE
8
Lines
10
21.1362541138
20
-13.3513580596
30
33.6048729084
11
-11.237208554
21
-22.3321549322
31
59.8041665235
0
LINE
8
Lines
10
-9.13569798341
20
-23.270991005
30
57.0750734371
11
21.1362541138
21
-13.3513580596
31
32.513235674
0
LINE
8
Lines
10
-11.237208554
20
-22.3321549322
30
59.8041665235
11
-9.13569798341
21
-23.270991005
31
57.0750734371
0
LINE
8
Lines
10
21.1362541138
20
-13.3513580596
30
35.7881473771
11
-8.41708596321
21
-23.540447402
31
59.8041665235
0
LINE
8
Lines
10
-6.2164011809
20
-24.2147962279
30
57.0750734371
11
21.1362541138
21
-13.3513580596
31
34.6965101428
0
LINE
8
Lines
10
-8.41708596319
20
-23.540447402
30
59.8041665235
11
-6.2164011809
21
-24.2147962279
31
57.0750734371
0
LINE
8
Lines
10
21.1362541138
20
-13.3513580596
30
37.9714218458
11
-5.47019448756
21
-24.394199562
31
59.8041665235
0
LINE
8
Lines
10
-3.20347978563
20
-24.793904841
30
57.0750734371
11
21.1362541138
21
-13.3513580596
31
36.8797846115
0
LINE
8
Lines
10
-5.47019448753
20
-24.394199562
30
59.8041665235
11
-3.20347978563
21
-24.793904841
31
57.0750734371
0
LINE
8
Lines
10
21.1362541138
20
-13.3513580596
30
40.1546963145
11
-2.44091696308
21
-24.8805531365
31
59.8041665235
0
LINE
8
Lines
10
-0.1423111036
20
-24.9995949477
30
57.0750734371
11
21.1362541138
21
-13.3513580596
31
39.0630590802
0
LINE
8
Lines
10
-2.44091696305
20
-24.8805531365
30
59.8041665235
11
-0.1423111036
21
-24.9995949477
31
57.0750734371
0
LINE
8
Lines
10
21.1362541138
20
-13.3513580596
30
42.3379707833
11
0.625122966209
21
-24.9921832035
31
59.8041665235
0
LINE
8
Lines
10
2.92100091164
20
-24.8287686701
30
57.0750734371
11
21.1362541138
21
-13.3513580596
31
41.2463335489
0
LINE
8
Lines
10
0.625122966234
20
-24.9921832035
30
59.8041665235
11
2.92100091164
21
-24.8287686701
31
57.0750734371
0
LINE
8
Lines
10
21.1362541138
20
-13.3513580596
30
44.521245252
11
3.68174798139
21
-24.7274085137
31
59.8041665235
0
LINE
8
Lines
10
5.94032002603
20
-24.2839988056
30
57.0750734371
11
21.1362541138
21
-13.3513580596
31
43.4296080176
0
LINE
8
Lines
10
3.68174798142
20
-24.7274085137
30
59.8041665235
11
5.94032002603
21
-24.2839988056
31
57.0750734371
0
LINE
8
Lines
10
21.1362541138
20
-13.3513580596
30
46.7045197079
11
6.68292255198
21
-24.0902168144
31
59.8041665171
0
LINE
8
Lines
10
8.87017256974
20
-23.3734900814
30
57.0750734307
11
21.1362541138
21
-13.3513580596
31
45.6128824736
0
LINE
8
Lines
10
6.68292255201
20
-24.0902168144
30
59.8041665171
11
8.87017256974
21
-23.3734900814
31
57.0750734307
0
LINE
8
Lines
10
21.1362541138
20
-13.3513580596
30
48.8877941894
11
9.58344631557
21
-23.0902047786
31
59.8041665235
0
LINE
8
Lines
10
11.6664323535
20
-22.1109555683
30
57.0750734371
11
21.1362541138
21
-13.3513580596
31
47.7961569551
0
LINE
8
Lines
10
9.58344631559
20
-23.0902047786
30
59.8041665235
11
11.6664323535
21
-22.1109555683
31
57.0750734371
0
LINE
8
Lines
10
21.1362541138
20
-13.3513580596
30
51.0710686582
11
12.3396347497
21
-21.7424334941
31
59.8041665235
0
LINE
8
Lines
10
14.2869851649
20
-20.5154101811
30
57.0750734371
11
21.1362541138
21
-13.3513580596
31
49.9794314238
0
LINE
8
Lines
10
12.3396347497
20
-21.7424334941
30
59.8041665235
11
14.2869851649
21
-20.5154101811
31
57.0750734371
0
LINE
8
Lines
10
21.1362541138
20
-13.3513580596
30
53.2543431141
11
14.9099771791
21
-20.0672016115
31
59.8041665171
0
LINE
8
Lines
10
16.6923631234
20
-18.6108842712
30
57.0750734307
11
21.1362541138
21
-13.3513580596
31
52.1627058797
0
LINE
8
Lines
10
14.9099771792
20
-20.0672016115
30
59.8041665171
11
16.6923631234
21
-18.6108842712
31
57.0750734307
0
LINE
8
Lines
10
21.1362541138
20
-13.3513580596
30
55.4376175956
11
17.2557619567
21
-18.0897396138
31
59.8041665235
0
LINE
8
Lines
10
18.8463390936
20
-16.4260616938
30
57.0750734371
11
21.1362541138
21
-13.3513580596
31
54.3459803612
0
LINE
8
Lines
10
17.2557619567
20
-18.0897396138
30
59.8041665235
11
18.8463390936
21
-16.4260616938
31
57.0750734371
0
LINE
8
Lines
10
21.1362541138
20
-13.3513580596
30
57.6208920643
11
19.3416594322
21
-15.8398298731
31
59.8041665235
0
LINE
8
Lines
10
20.7164722401
20
-13.9938478598
30
57.0750734371
11
21.1362541138
21
-13.3513580596
31
56.52925483
0
LINE
8
Lines
10
19.3416594322
20
-15.8398298731
30
59.8041665235
11
20.7164722401
21
-13.9938478598
31
57.0750734371
0
LINE
8
Lines
10
24.9370201644
20
1.77342192347
30
22.6885005438
11
-13.8632939318
21
20.8040640588
31
59.8041665235
0
LINE
8
Lines
10
-11.8911917538
20
21.9908971776
30
57.0750734368
11
24.9370201644
21
1.77342192347
31
21.5968633095
0
LINE
8
Lines
10
-13.8632939316
20
20.8040640589
30
59.8041665235
11
-11.8911917541
21
21.9908971774
31
57.0750734372
0
LINE
8
Lines
10
24.9370201644
20
1.77342192347
30
24.8717750132
11
-11.2105740295
21
22.3455371367
31
59.8041665229
0
LINE
8
Lines
10
-9.10794558172
20
23.28186692
30
57.0750734363
11
24.9370201644
21
1.77342192347
31
23.7801377789
0
LINE
8
Lines
10
-11.2105740293
20
22.3455371368
30
59.804166523
11
-9.10794558199
21
23.2818669199
31
57.0750734366
0
LINE
8
Lines
10
24.9370201644
20
1.77342192347
30
27.0550494819
11
-8.38901280101
21
23.5504663271
31
59.8041665229
0
LINE
8
Lines
10
-6.18752555907
20
24.2221908063
30
57.0750734363
11
24.9370201644
21
1.77342192347
31
25.9634122476
0
LINE
8
Lines
10
-8.38901280079
20
23.5504663272
30
59.804166523
11
-6.18752555935
21
24.2221908062
31
57.0750734366
0
LINE
8
Lines
10
24.9370201644
20
1.77342192347
30
29.2383239558
11
-5.44110549209
21
24.4007043141
31
59.8041665261
0
LINE
8
Lines
10
-3.17391583378
20
24.7977067141
30
57.0750734395
11
24.9370201644
21
1.77342192347
31
28.1466867215
0
LINE
8
Lines
10
-5.44110549186
20
24.4007043141
30
59.8041665262
11
-3.17391583407
21
24.7977067141
31
57.0750734398
0
LINE
8
Lines
10
24.9370201644
20
1.77342192347
30
31.4215984245
11
-2.41125024333
21
24.8834457474
31
59.8041665261
0
LINE
8
Lines
10
-0.112504084087
20
24.9997468553
30
57.0750734395
11
24.9370201644
21
1.77342192347
31
30.3299611902
0
LINE
8
Lines
10
-2.4112502431
20
24.8834457474
30
59.8041665262
11
-0.112504084382
21
24.9997468553
31
57.0750734398
0
LINE
8
Lines
10
24.9370201644
20
1.77342192347
30
33.6048728881
11
0.654920600031
21
24.9914201079
31
59.8041665229
0
LINE
8
Lines
10
2.95060207561
20
24.8252683247
30
57.0750734363
11
24.9370201644
21
1.77342192347
31
32.5132356538
0
LINE
8
Lines
10
0.654920600267
20
24.9914201079
30
59.804166523
11
2.95060207531
21
24.8252683247
31
57.0750734366
0
LINE
8
Lines
10
24.9370201644
20
1.77342192347
30
35.788147362
11
3.71122775551
21
24.7230012043
31
59.8041665261
0
LINE
8
Lines
10
5.96926951964
20
24.2768989247
30
57.0750734395
11
24.9370201644
21
1.77342192347
31
34.6965101277
0
LINE
8
Lines
10
3.71122775575
20
24.7230012042
30
59.8041665262
11
5.96926951935
21
24.2768989248
31
57.0750734398
0
LINE
8
Lines
10
24.9370201644
20
1.77342192347
30
37.9714218264
11
6.71164048044
21
24.082231667
31
59.8041665218
0
LINE
8
Lines
10
8.8980343933
20
23.3628975929
30
57.0750734352
11
24.9370201644
21
1.77342192347
31
36.8797845921
0
LINE
8
Lines
10
6.71164048066
20
24.0822316669
30
59.8041665219
11
8.89803439303
21
23.362897593
31
57.0750734355
0
LINE
8
Lines
10
24.9370201644
20
1.77342192347
30
40.1546962951
11
9.61096986333
21
23.0787620614
31
59.8041665218
0
LINE
8
Lines
10
11.6927868662
20
22.0970300109
30
57.0750734352
11
24.9370201644
21
1.77342192347
31
39.0630590608
0
LINE
8
Lines
10
9.61096986355
20
23.0787620613
30
59.8041665219
11
11.6927868659
21
22.097030011
31
57.0750734355
0
LINE
8
Lines
10
24.9370201644
20
1.77342192347
30
42.3379707492
11
12.3655493874
21
21.7277055473
31
59.8041665143
0
LINE
8
Lines
10
14.3114354443
20
20.4983612888
30
57.0750734276
11
24.9370201644
21
1.77342192347
31
41.2463335149
0
LINE
8
Lines
10
12.3655493876
20
21.7277055471
30
59.8041665143
11
14.311435444
21
20.4983612889
31
57.075073428
0
LINE
8
Lines
10
24.9370201644
20
1.77342192347
30
44.5212452321
11
14.9338926311
21
20.0494102378
31
59.8041665234
0
LINE
8
Lines
10
16.7145409471
20
18.5909688001
30
57.0750734367
11
24.9370201644
21
1.77342192347
31
43.4296079978
0
LINE
8
Lines
10
14.9338926313
20
20.0494102376
30
59.8041665235
11
16.7145409469
21
18.5909688003
31
57.0750734371
0
LINE
8
Lines
10
24.9370201644
20
1.77342192347
30
46.7045197062
11
17.2773180196
21
18.0691527762
31
59.8041665234
0
LINE
8
Lines
10
18.8659104294
20
16.4035795993
30
57.0750734368
11
24.9370201644
21
1.77342192347
31
45.6128824719
0
LINE
8
Lines
10
17.2773180198
20
18.069152776
30
59.8041665235
11
18.8659104292
21
16.4035795995
31
57.0750734371
0
LINE
8
Lines
10
24.9370201644
20
1.77342192347
30
48.8877941637
11
19.3605314437
21
15.8167576392
31
59.8041665234
0
LINE
8
Lines
10
20.7331423185
20
13.9691377544
30
57.0750734367
11
24.9370201644
21
1.77342192347
31
47.7961569294
0
LINE
8
Lines
10
19.3605314439
20
15.816757639
30
59.8041665234
11
20.7331423183
21
13.9691377546
31
57.0750734371
0
LINE
8
Lines
10
24.9370201644
20
1.77342192347
30
51.0710686424
11
21.1521578689
21
13.3261478864
31
59.8041665255
0
LINE
8
Lines
10
22.2881144524
20
11.3243081094
30
57.0750734389
11
24.9370201644
21
1.77342192347
31
49.9794314082
0
LINE
8
Lines
10
21.152157869
20
13.3261478862
30
59.8041665256
11
22.2881144522
21
11.3243081097
31
57.0750734392
0
LINE
8
Lines
10
24.9370201644
20
1.77342192346
30
53.2543430762
11
22.6252137565
21
10.6348343885
31
59.8041665054
0
LINE
8
Lines
10
23.5074075236
20
8.5089242282
30
57.0750734187
11
24.9370201644
21
1.77342192347
31
52.1627058419
0
LINE
8
Lines
10
22.6252137566
20
10.6348343883
30
59.8041665054
11
23.5074075235
21
8.50892422848
31
57.0750734191
0
LINE
8
Lines
10
24.9370201644
20
1.77342192346
30
55.4376175804
11
23.7575135937
21
7.78335068241
31
59.8041665261
0
LINE
8
Lines
10
24.3726579091
20
5.56538825632
30
57.0750734394
11
24.9370201644
21
1.77342192346
31
54.3459803462
0
LINE
8
Lines
10
23.7575135938
20
7.78335068219
30
59.8041665261
11
24.3726579091
21
5.56538825661
31
57.0750734398
0
LINE
8
Lines
10
24.9370201644
20
1.77342192346
30
57.6208920206
11
24.5320038969
21
4.81464274919
31
59.8041665088
0
LINE
8
Lines
10
24.8708341374
20
2.53803256725
30
57.0750734221
11
24.9370201644
21
1.77342192346
31
56.5292547863
0
LINE
8
Lines
10
24.5320038969
20
4.81464274896
30
59.8041665088
11
24.8708341373
21
2.53803256754
31
57.0750734225
0
LINE
8
Lines
10
24.9370201644
20
1.77342192347
30
20.5052260704
11
-16.3072201624
21
18.9492630615
31
59.8041665234
0
LINE
8
Lines
10
-14.495345887
20
20.368724742
30
57.0750734368
11
24.9370201644
21
1.77342192347
31
19.413588836
0
LINE
8
Lines
10
-16.3072201622
20
18.9492630617
30
59.8041665235
11
-14.4953458872
21
20.3687247419
31
57.0750734371
0
LINE
8
Lines
10
24.9370201644
20
1.77342192347
30
18.3219516079
11
-18.5055449794
21
16.8090691299
31
59.8041665233
0
LINE
8
Lines
10
-16.8811870618
20
18.4397810015
30
57.0750734367
11
24.9370201644
21
1.77342192347
31
17.2303143735
0
LINE
8
Lines
10
-18.5055449792
20
16.8090691301
30
59.8041665234
11
-16.8811870621
21
18.4397810013
31
57.075073437
0
LINE
8
Lines
10
24.9370201644
20
1.77342192347
30
16.1386771313
11
-20.4251596545
21
14.4157154899
31
59.8041665186
0
LINE
8
Lines
10
-19.0127823868
20
16.233117566
30
57.075073432
11
24.9370201644
21
1.77342192347
31
15.0470398969
0
LINE
8
Lines
10
-20.4251596544
20
14.4157154901
30
59.8041665187
11
-19.0127823915
21
16.2331175605
31
57.0750734371
0
LINE
8
Lines
10
24.9370201644
20
1.77342192347
30
13.9554026625
11
-22.0371530521
21
11.8052482126
31
59.8041665186
0
LINE
8
Lines
10
-20.8580281059
20
13.781968783
30
57.075073432
11
24.9370201644
21
1.77342192347
31
12.8637654282
0
LINE
8
Lines
10
-22.0371530519
20
11.8052482128
30
59.8041665187
11
-20.858028106
21
13.7819687827
31
57.0750734323
0
LINE
8
Lines
10
24.9370201644
20
1.77342192347
30
11.7721281938
11
-23.3172471046
21
9.01698327956
31
59.8041665187
0
LINE
8
Lines
10
-22.3891331621
20
11.1232511547
30
57.075073432
11
24.9370201644
21
1.77342192347
31
10.6804909595
0
LINE
8
Lines
10
-23.3172471045
20
9.01698327978
30
59.8041665187
11
-22.3891331622
21
11.1232511545
31
57.0750734323
0
LINE
8
Lines
10
24.9370201644
20
1.77342192347
30
9.58885373291
11
-24.2461624433
21
6.09291447296
31
59.8041665233
0
LINE
8
Lines
10
-23.5830377347
20
8.29700736422
30
57.0750734366
11
-18.5055449794
21
16.80906913
31
49.9794314141
0
LINE
8
Lines
10
-18.5055449794
20
16.80906913
30
49.9794314141
11
-15.8918147905
21
19.2989694716
31
47.7178534292
0
LINE
8
Lines
10
-14.8441999046
20
20.1159073669
30
46.7436723565
11
-11.2105740289
21
22.345537137
31
43.4296080079
0
LINE
8
Lines
10
-11.2105740289
20
22.345537137
30
43.4296080079
11
24.9370201644
21
1.77342192347
31
8.49721649856
0
LINE
8
Lines
10
-24.2461624432
20
6.09291447318
30
59.8041665233
11
-23.5830377348
21
8.29700736394
31
57.0750734369
0
LINE
8
Lines
10
24.9370201644
20
1.77342192347
30
7.40557926383
11
-12.5606030277
21
21.6155326462
31
43.4296080076
0
LINE
8
Lines
10
-12.5606030277
20
21.6155326462
30
43.4296080076
11
-15.9146972876
21
19.2801039999
31
45.7675101821
0
LINE
8
Lines
10
-16.9367085616
20
18.3887983049
30
46.7126189652
11
-19.5021018402
21
15.6418676575
31
49.9794314138
0
LINE
8
Lines
10
-19.5021018402
20
15.6418676575
30
49.9794314138
11
-24.8099087705
21
3.07708088954
31
59.8041665234
0
LINE
8
Lines
10
-24.4217605509
20
5.34580317576
30
57.0750734368
11
24.9370201644
21
1.77342192347
31
6.31394202947
0
LINE
8
Lines
10
-24.8099087704
20
3.07708088977
30
59.8041665235
11
-24.421760551
21
5.34580317547
31
57.0750734371
0
LINE
8
Lines
10
24.9370201644
20
1.77342192347
30
5.22230477717
11
-24.9999955576
21
0.0149036913824
31
59.8041665124
0
LINE
8
Lines
10
-24.8926696891
20
2.31408637449
30
57.0750734258
11
24.9370201644
21
1.77342192347
31
4.13066754281
0
LINE
8
Lines
10
-24.9999955576
20
0.0149036916182
30
59.8041665125
11
-24.8926696891
21
2.3140863742
31
57.0750734261
0
LINE
8
Lines
10
24.8708341388
20
2.53803255322
30
3.58484895423
11
-24.8135599272
21
-3.04749794758
31
59.8041665234
0
LINE
8
Lines
10
-24.9886728318
20
-0.752482626716
30
57.0750734368
11
24.9370201644
21
1.77342192347
31
1.94739309406
0
LINE
8
Lines
10
24.9370201644
20
1.77342192347
30
2.67515124465
11
24.8708341388
21
2.53803255322
31
3.58484895423
0
LINE
8
Lines
10
-24.8135599272
20
-3.04749794734
30
59.8041665235
11
-24.9886728318
21
-0.752482627011
31
57.0750734371
0
LINE
8
Lines
10
24.3726579088
20
5.56538825806
30
3.58484895679
11
-24.2534097671
21
-6.06400153916
31
59.804166526
0
LINE
8
Lines
10
-24.7083240883
20
-3.80771857535
30
57.0750734393
11
24.7812094426
21
3.30025128784
31
0.855755870465
0
LINE
8
Lines
10
24.7812094426
20
3.30025128779
30
0.855755870428
11
24.3726579088
21
5.56538825806
31
3.58484895679
0
LINE
8
Lines
10
-24.2534097672
20
-6.06400153893
30
59.804166526
11
-24.7083240882
21
-3.80771857564
31
57.0750734397
0
LINE
8
Lines
10
23.50740753
20
8.50892421028
30
3.58484895423
11
-23.3279814427
21
-8.98917581366
31
59.8041665234
0
LINE
8
Lines
10
-24.0558457615
20
-6.8056068576
30
57.0750734368
11
-17.4392448684
21
17.9129209907
31
37.9714218369
0
LINE
8
Lines
10
-17.4392448684
20
17.9129209907
30
37.9714218369
11
-10.6370910424
21
22.6241528937
31
32.7518803869
0
LINE
8
Lines
10
-8.05610838577
20
23.6664132829
30
30.7081154972
11
-2.41125024422
21
24.8834457473
31
25.9634122589
0
LINE
8
Lines
10
-2.41125024422
20
24.8834457473
30
25.9634122589
11
24.1903427356
21
6.31088887054
31
0.855755867906
0
LINE
8
Lines
10
24.1903427356
20
6.31088887049
30
0.85575586787
11
23.50740753
21
8.50892421028
31
3.58484895423
0
LINE
8
Lines
10
-23.3279814428
20
-8.98917581344
30
59.8041665235
11
-24.0558457614
21
-6.80560685789
31
57.0750734371
0
LINE
8
Lines
10
22.2881144506
20
11.324308113
30
3.58484895423
11
-2.41125024529
21
24.8834457472
31
24.8717750237
0
LINE
8
Lines
10
-2.41125024529
20
24.8834457472
30
24.8717750237
11
-8.35310753375
21
23.5632254696
31
30.4241242813
0
LINE
8
Lines
10
-10.9710151294
20
22.4641231084
30
32.5606578818
11
-18.5055449793
21
16.8090691301
31
37.9714218361
0
LINE
8
Lines
10
-18.5055449793
20
16.8090691301
30
37.9714218361
11
-22.0512127357
21
-11.7789650175
31
59.8041665234
0
LINE
8
Lines
10
-23.041064761
20
-9.70099658167
30
57.0750734368
11
-18.5055449793
21
16.8090691301
31
36.8797846018
0
LINE
8
Lines
10
-18.5055449793
20
16.8090691301
30
36.8797846018
11
-13.6027209821
21
20.9753660727
31
30.3649574021
0
LINE
8
Lines
10
-11.000693287
20
22.4496046113
30
28.181619383
11
-3.17391583687
21
24.7977067137
31
24.3259564066
0
LINE
8
Lines
10
-3.17391583687
20
24.7977067137
30
24.3259564066
11
23.2351477095
21
9.22647879289
31
0.855755867907
0
LINE
8
Lines
10
23.2351477096
20
9.22647879284
30
0.855755867871
11
22.2881144506
21
11.324308113
31
3.58484895423
0
LINE
8
Lines
10
-22.0512127358
20
-11.7789650173
30
59.8041665235
11
-23.0410647609
21
-9.70099658194
31
57.0750734371
0
LINE
8
Lines
10
20.7331423237
20
13.9691377466
30
3.58484895423
11
-5.44110549295
21
24.4007043139
31
24.8717750245
0
LINE
8
Lines
10
-5.44110549295
20
24.4007043139
30
24.8717750245
11
-11.3223520642
21
22.2891081862
31
27.9634063561
0
LINE
8
Lines
10
-13.8653848199
20
20.8026705929
30
30.075489187
11
-18.5055449786
21
16.8090691309
31
35.7881473681
0
LINE
8
Lines
10
-18.5055449786
20
16.8090691309
30
35.7881473681
11
-20.4423329343
21
-14.3913524105
31
59.8041665234
0
LINE
8
Lines
10
-21.679264604
20
-12.4502805683
30
57.0750734368
11
-17.9808676519
21
17.369179557
31
34.1506915166
0
LINE
8
Lines
10
-17.9808676519
20
17.369179557
30
34.1506915166
11
-14.079261128
21
20.6585189713
31
29.8379849207
0
LINE
8
Lines
10
-11.6249374928
20
22.1327998294
30
27.7566683518
11
-6.1875255584
21
24.2221908065
31
24.3259564073
0
LINE
8
Lines
10
-6.1875255584
20
24.2221908065
30
24.3259564073
11
21.9300104631
21
12.0031096424
31
0.855755867908
0
LINE
8
Lines
10
21.9300104631
20
12.0031096424
30
0.855755867872
11
20.7331423237
21
13.9691377466
31
3.58484895423
0
LINE
8
Lines
10
-20.4423329344
20
-14.3913524103
30
59.8041665235
11
-21.6792646039
21
-12.4502805685
31
57.0750734371
0
LINE
8
Lines
10
18.8659104238
20
16.4035796057
30
3.58484895423
11
-18.5255732107
21
-16.7869930963
31
59.8041665234
0
LINE
8
Lines
10
-19.9909552218
20
-15.0120521355
30
57.0750734368
11
-19.50210184
21
15.6418676578
31
33.6048728987
0
LINE
8
Lines
10
-19.50210184
20
15.6418676578
30
33.6048728987
11
-17.4488904041
21
17.9035254535
31
31.6011197534
0
LINE
8
Lines
10
-16.4975798259
20
18.7837658601
30
30.6626210631
11
-14.8320808517
21
20.1248447847
31
28.9881922646
0
LINE
8
Lines
10
-14.8320808517
20
20.1248447847
30
28.9881922646
11
20.2945875334
21
14.598962869
31
0.855755867908
0
LINE
8
Lines
10
20.2945875334
20
14.598962869
30
0.855755867872
11
18.8659104238
21
16.4035796057
31
3.58484895423
0
LINE
8
Lines
10
-18.5255732109
20
-16.7869930961
30
59.8041665235
11
-19.9909552216
21
-15.0120521358
31
57.0750734371
0
LINE
8
Lines
10
16.7145409463
20
18.5909688008
30
3.58484895423
11
-12.9178383129
21
21.4039588236
31
26.2586820784
0
LINE
8
Lines
10
-12.9178383129
20
21.4039588236
30
26.2586820784
11
-16.7445074457
21
18.5639831502
31
30.3934651231
0
LINE
8
Lines
10
-17.7094664472
20
17.6458153157
30
31.350496775
11
-20.858028104
21
13.7819687859
31
34.1506915158
0
LINE
8
Lines
10
-20.858028104
20
13.7819687859
30
34.1506915158
11
-16.3298016941
21
-18.9298065661
31
59.8041665234
0
LINE
8
Lines
10
-18.0015640753
20
-17.3477286941
30
57.0750734368
11
-19.973042203
21
15.035876601
31
31.9674170471
0
LINE
8
Lines
10
-19.973042203
20
15.035876601
30
31.9674170471
11
-18.6634495214
21
16.6335700305
31
30.3232103563
0
LINE
8
Lines
10
-17.7725459973
20
17.5822811027
30
29.3678929759
11
-15.8872465176
21
19.3027303273
31
27.7563041075
0
LINE
8
Lines
10
-15.8872465176
20
19.3027303273
30
27.7563041075
11
18.3535098636
21
16.9749425827
31
0.855755867908
0
LINE
8
Lines
10
18.3535098637
20
16.9749425827
30
0.855755867872
11
16.7145409463
21
18.5909688008
31
3.58484895423
0
LINE
8
Lines
10
-16.3298016943
20
-18.929806566
30
59.8041665235
11
-18.0015640751
21
-17.3477286943
31
57.0750734371
0
LINE
8
Lines
10
14.311435451
20
20.4983612841
30
3.58484895424
11
-13.8880886789
21
-20.7875201226
31
59.8041665234
0
LINE
8
Lines
10
-15.741053185
20
-19.4221328547
30
57.0750734368
11
16.13601183
21
19.0952643926
31
0.855755867912
0
LINE
8
Lines
10
16.13601183
20
19.0952643925
30
0.855755867875
11
14.311435451
21
20.4983612841
31
3.58484895424
0
LINE
8
Lines
10
-13.8880886791
20
-20.7875201225
30
59.8041665235
11
-15.7410531848
21
-19.4221328549
31
57.0750734371
0
LINE
8
Lines
10
11.6927868627
20
22.0970300127
30
3.58484895423
11
-11.2372085538
21
-22.3321549323
31
59.8041665234
0
LINE
8
Lines
10
-13.2434678731
20
-21.2040222291
30
57.0750734368
11
13.6754909423
21
20.9279943493
31
0.855755867908
0
LINE
8
Lines
10
13.6754909424
20
20.9279943493
30
0.855755867872
11
11.6927868627
21
22.0970300127
31
3.58484895423
0
LINE
8
Lines
10
-11.237208554
20
-22.3321549322
30
59.8041665235
11
-13.2434678729
21
-21.2040222293
31
57.0750734371
0
LINE
8
Lines
10
8.89803438962
20
23.3628975943
30
3.58484895423
11
-8.41708596297
21
-23.5404474021
31
59.8041665234
0
LINE
8
Lines
10
-10.5464240256
20
-22.6665599567
30
57.0750734368
11
11.0090048631
21
22.4455298874
31
0.855755867908
0
LINE
8
Lines
10
11.0090048632
20
22.4455298873
30
0.855755867872
11
8.89803438962
21
23.3628975943
31
3.58484895423
0
LINE
8
Lines
10
-8.41708596319
20
-23.540447402
30
59.8041665235
11
-10.5464240254
21
-22.6665599568
31
57.0750734371
0
LINE
8
Lines
10
5.96926951791
20
24.2768989252
30
3.58484895424
11
-5.47019448941
21
-24.3941995615
31
59.8041665234
0
LINE
8
Lines
10
-7.69054154901
20
-23.7877189046
30
57.0750734368
11
8.17671327128
21
23.6250155572
31
0.855755867915
0
LINE
8
Lines
10
8.17671327133
20
23.6250155572
30
0.855755867879
11
5.96926951791
21
24.2768989252
31
3.58484895424
0
LINE
8
Lines
10
-5.47019448964
20
-24.3941995615
30
59.8041665235
11
-7.69054154873
21
-23.7877189047
31
57.0750734371
0
LINE
8
Lines
10
2.95060207653
20
24.8252683246
30
3.58484895424
11
-2.44091696496
21
-24.8805531363
31
59.8041665234
0
LINE
8
Lines
10
-4.7188325979
20
-24.5506134122
30
57.0750734368
11
5.22127302157
21
24.4486872456
31
0.855755867916
0
LINE
8
Lines
10
5.22127302162
20
24.4486872456
30
0.85575586788
11
2.95060207653
21
24.8252683246
31
3.58484895424
0
LINE
8
Lines
10
-2.4409169652
20
-24.8805531363
30
59.8041665235
11
-4.71883259761
21
-24.5506134122
31
57.0750734371
0
LINE
8
Lines
10
-0.112504088029
20
24.9997468553
30
3.58484895423
11
0.62512296647
21
-24.9921832035
31
59.8041665234
0
LINE
8
Lines
10
-1.67605378163
20
-24.9437536013
30
57.0750734368
11
2.18719570205
21
24.9041397153
31
0.855755867908
0
LINE
8
Lines
10
2.1871957021
20
24.9041397153
30
0.855755867872
11
-0.112504088029
21
24.9997468553
31
3.58484895423
0
LINE
8
Lines
10
0.625122966234
20
-24.9921832035
30
59.8041665235
11
-1.67605378133
21
-24.9437536013
31
57.0750734371
0
LINE
8
Lines
10
-3.17391583769
20
24.7977067136
30
3.58484895423
11
3.68174798165
21
-24.7274085136
31
59.8041665234
0
LINE
8
Lines
10
1.3919679099
20
-24.9612184265
30
57.0750734368
11
-0.879822749792
21
24.9845134419
31
0.855755867908
0
LINE
8
Lines
10
-0.879822749741
20
24.9845134419
30
0.855755867872
11
-3.17391583769
21
24.7977067136
31
3.58484895423
0
LINE
8
Lines
10
3.68174798142
20
-24.7274085137
30
59.8041665235
11
1.3919679102
21
-24.9612184265
31
57.0750734371
0
LINE
8
Lines
10
-6.18752555816
20
24.2221908065
30
3.58484893974
11
6.68292255882
21
-24.0902168125
31
59.8041665089
0
LINE
8
Lines
10
4.43902531067
20
-24.6027448528
30
57.0750734223
11
-3.93359027758
21
24.6885979255
31
0.855755853412
0
LINE
8
Lines
10
-3.93359027753
20
24.6885979255
30
0.855755853376
11
-6.18752555816
21
24.2221908065
31
3.58484893974
0
LINE
8
Lines
10
6.68292255859
20
-24.0902168126
30
59.804166509
11
4.43902531096
21
-24.6027448527
31
57.0750734226
0
LINE
8
Lines
10
-9.10794558085
20
23.2818669203
30
3.58484895425
11
9.58344631382
21
-23.0902047793
31
59.8041665234
0
LINE
8
Lines
10
7.41922699998
20
-23.8737318139
30
57.0750734368
11
-6.92811440011
21
24.0208499196
31
0.85575586792
0
LINE
8
Lines
10
-6.92811440006
20
24.0208499196
30
0.855755867884
11
-9.10794558085
21
23.2818669203
31
3.58484895425
0
LINE
8
Lines
10
9.5834463136
20
-23.0902047794
30
59.8041665235
11
7.41922700026
21
-23.8737318138
31
57.0750734371
0
LINE
8
Lines
10
-11.8911917515
20
21.9908971788
30
3.58484895679
11
12.3396347481
21
-21.742433495
31
59.804166526
0
LINE
8
Lines
10
10.2876884579
20
-22.7851589021
30
57.0750734393
11
-9.81829488868
21
22.9913263097
31
0.855755870464
0
LINE
8
Lines
10
-9.81829488863
20
22.9913263097
30
0.855755870428
11
-11.8911917515
21
21.9908971788
31
3.58484895679
0
LINE
8
Lines
10
12.3396347479
20
-21.7424334951
30
59.804166526
11
10.2876884582
21
-22.785158902
31
57.0750734397
0
LINE
8
Lines
10
-14.4953458795
20
20.3687247474
30
3.58484893975
11
14.9099771848
21
-20.0672016073
31
59.8041665089
0
LINE
8
Lines
10
13.0012080749
20
-21.3534210044
30
57.0750734223
11
-12.5606030257
21
21.6155326474
31
0.855755853421
0
LINE
8
Lines
10
-12.5606030257
20
21.6155326474
30
0.855755853385
11
-14.4953458795
21
20.3687247474
31
3.58484893975
0
LINE
8
Lines
10
14.9099771846
20
-20.0672016074
30
59.804166509
11
13.0012080752
21
-21.3534210043
31
57.0750734226
0
LINE
8
Lines
10
-16.8811870632
20
18.4397810003
30
3.58484895423
11
17.2557619568
21
-18.0897396136
31
59.8041665234
0
LINE
8
Lines
10
15.5189178069
20
-19.60008138
30
57.0750734368
11
-15.113737186
21
19.9141896213
31
0.855755867908
0
LINE
8
Lines
10
-15.113737186
20
19.9141896213
30
0.855755867872
11
-16.8811870632
21
18.4397810003
31
3.58484895423
0
LINE
8
Lines
10
17.2557619567
20
-18.0897396138
30
59.8041665235
11
15.5189178071
21
-19.6000813798
31
57.0750734371
0
LINE
8
Lines
10
-17.439244869
20
17.9129209901
30
0.855755867875
11
-19.0127823849
21
16.2331175683
31
3.58484895424
0
LINE
8
Lines
10
-19.5021018398
20
15.6418676579
30
0.855755867877
11
-20.8580281042
21
13.7819687855
31
3.58484895424
0
LINE
8
Lines
10
-21.2712396168
20
13.1352337308
30
0.855755867886
11
-22.3891331606
21
11.1232511577
31
3.58484895425
0
LINE
8
Lines
10
-22.7200133885
20
10.4307713821
30
0.855755858345
11
-23.5830377307
21
8.29700737571
31
3.58484894471
0
LINE
8
Lines
10
-24.0558457611
20
-6.80560685905
30
3.5848489511
11
21.1362541138
21
-13.3513580596
31
44.5212452312
0
LINE
8
Lines
10
21.1362541138
20
-13.3513580596
30
43.4296079969
11
-24.5798027296
21
-4.56435075035
31
0.85575586477
0
LINE
8
Lines
10
-24.5798027296
20
-4.5643507503
30
0.855755864734
11
-24.0558457611
21
-6.80560685905
31
3.5848489511
0
LINE
8
Lines
10
-23.04106476
20
-9.70099658419
30
3.58484895425
11
21.1362541138
21
-13.3513580596
31
42.3379707632
0
LINE
8
Lines
10
21.1362541138
20
-13.3513580596
30
41.2463335289
11
-23.8356111408
21
-7.54079846864
31
0.855755867926
0
LINE
8
Lines
10
-23.8356111408
20
-7.5407984686
30
0.85575586789
11
-23.04106476
21
-9.70099658419
31
3.58484895425
0
LINE
8
Lines
10
-21.6792646023
20
-12.4502805714
30
3.58484895429
11
21.1362541138
21
-13.3513580596
31
40.1546962955
0
LINE
8
Lines
10
21.1362541138
20
-13.3513580596
30
39.0630590612
11
-22.7324338118
21
-10.4036749753
31
0.855755867968
0
LINE
8
Lines
10
-22.7324338118
20
-10.4036749753
30
0.855755867931
11
-21.6792646023
21
-12.4502805714
31
3.58484895429
0
LINE
8
Lines
10
-19.9909552202
20
-15.0120521377
30
3.58484895429
11
21.1362541138
21
-13.3513580596
31
37.9714218259
0
LINE
8
Lines
10
21.1362541138
20
-13.3513580596
30
36.8797845916
11
-21.2868855832
21
-13.1098627822
31
0.855755867965
0
LINE
8
Lines
10
-21.2868855832
20
-13.1098627822
30
0.855755867929
11
-19.9909552202
21
-15.0120521377
31
3.58484895429
0
LINE
8
Lines
10
-18.0015640742
20
-17.3477286952
30
3.58484895426
11
21.1362541138
21
-13.3513580596
31
35.7881473579
0
LINE
8
Lines
10
21.1362541138
20
-13.3513580596
30
34.6965101236
11
-19.5207377137
21
-15.6186042627
31
0.855755867931
0
LINE
8
Lines
10
-19.5207377137
20
-15.6186042627
30
0.855755867895
11
-18.0015640742
21
-17.3477286952
31
3.58484895426
0
LINE
8
Lines
10
-15.7410531812
20
-19.4221328578
30
3.58484895426
11
21.1362541138
21
-13.3513580596
31
33.6048728884
0
LINE
8
Lines
10
21.1362541138
20
-13.3513580596
30
32.513235654
11
-17.4605899759
21
-17.8921155175
31
0.855755867933
0
LINE
8
Lines
10
-17.4605899759
20
-17.8921155175
30
0.855755867896
11
-15.7410531812
21
-19.4221328578
31
3.58484895426
0
LINE
8
Lines
10
-13.2434678719
20
-21.2040222299
30
3.58484895429
11
21.1362541138
21
-13.3513580596
31
31.4215984206
0
LINE
8
Lines
10
21.1362541138
20
-13.3513580596
30
30.3299611862
11
-15.137470051
21
-19.896155419
31
0.855755867968
0
LINE
8
Lines
10
-15.137470051
20
-19.8961554189
30
0.855755867932
11
-13.2434678719
21
-21.2040222299
31
3.58484895429
0
LINE
8
Lines
10
-10.5464240243
20
-22.6665599573
30
3.5848489543
11
21.1362541138
21
-13.3513580596
31
29.2383239519
0
LINE
8
Lines
10
21.1362541138
20
-13.3513580596
30
28.1466867176
11
-12.5863662117
21
-21.6005413262
31
0.855755867976
0
LINE
8
Lines
10
-12.5863662118
20
-21.6005413262
30
0.85575586794
11
-10.5464240243
21
-22.6665599573
31
3.5848489543
0
LINE
8
Lines
10
-7.69054154556
20
-23.7877189057
30
3.58484895426
11
21.1362541138
21
-13.3513580596
31
27.0550494831
0
LINE
8
Lines
10
21.1362541138
20
-13.3513580596
30
25.9634122488
11
-9.84570037713
21
-22.9796036538
31
0.855755867938
0
LINE
8
Lines
10
-9.84570037718
20
-22.9796036537
30
0.855755867901
11
-7.69054154556
21
-23.7877189057
31
3.58484895426
0
LINE
8
Lines
10
-4.71883259439
20
-24.5506134128
30
3.5848489543
11
21.1362541138
21
-13.3513580596
31
24.8717750144
0
LINE
8
Lines
10
21.1362541138
20
-13.3513580596
30
23.7801377801
11
-6.95674943982
21
-24.0125724826
31
0.855755867976
0
LINE
8
Lines
10
-6.95674943987
20
-24.0125724826
30
0.855755867939
11
-4.71883259439
21
-24.5506134128
31
3.5848489543
0
LINE
8
Lines
10
-1.67605378021
20
-24.9437536014
30
3.5848489543
11
21.1362541138
21
-13.3513580596
31
22.6885005457
0
LINE
8
Lines
10
21.1362541138
20
-13.3513580596
30
21.5968633114
11
-3.96302359905
21
-24.6838903731
31
0.855755867977
0
LINE
8
Lines
10
-3.9630235991
20
-24.6838903731
30
0.855755867941
11
-1.67605378021
21
-24.9437536014
31
3.5848489543
0
LINE
8
Lines
10
1.39196791133
20
-24.9612184265
30
3.58484895431
11
21.1362541138
21
-13.3513580596
31
20.505226077
0
LINE
8
Lines
10
21.1362541138
20
-13.3513580596
30
19.4135888427
11
-0.909611058568
21
-24.9834466742
31
0.855755867983
0
LINE
8
Lines
10
-0.909611058619
20
-24.9834466742
30
0.855755867947
11
1.39196791133
21
-24.9612184265
31
3.58484895431
0
LINE
8
Lines
10
4.43902531424
20
-24.6027448521
30
3.58484895427
11
21.1362541138
21
-13.3513580596
31
18.3219516082
0
LINE
8
Lines
10
21.1362541138
20
-13.3513580596
30
17.2303143739
11
2.1575010426
21
-24.9067297984
31
0.855755867944
0
LINE
8
Lines
10
2.15750104255
20
-24.9067297984
30
0.855755867908
11
4.43902531424
21
-24.6027448521
31
3.58484895427
0
LINE
8
Lines
10
7.41922700341
20
-23.8737318128
30
3.58484895431
11
21.1362541138
21
-13.3513580596
31
16.1386771395
0
LINE
8
Lines
10
21.1362541138
20
-13.3513580596
30
15.0470399052
11
5.19211923753
21
-24.454895171
31
0.855755867987
0
LINE
8
Lines
10
5.19211923748
20
-24.454895171
30
0.855755867951
11
7.41922700341
21
-23.8737318128
31
3.58484895431
0
LINE
8
Lines
10
10.2876884612
20
-22.7851589006
30
3.58484895427
11
21.1362541138
21
-13.3513580596
31
13.9554026708
0
LINE
8
Lines
10
21.1362541138
20
-13.3513580596
30
12.8637654364
11
8.14853944708
21
-23.6347478277
31
0.855755867947
0
LINE
8
Lines
10
8.14853944703
20
-23.6347478277
30
0.855755867911
11
10.2876884612
21
-22.7851589006
31
3.58484895427
0
LINE
8
Lines
10
13.0012080781
20
-21.3534210025
30
3.58484895427
11
21.1362541138
21
-13.3513580596
31
11.772128202
0
LINE
8
Lines
10
21.1362541138
20
-13.3513580596
30
10.6804909677
11
10.9822353238
21
-22.4586399253
31
0.855755867949
0
LINE
8
Lines
10
10.9822353238
20
-22.4586399253
30
0.855755867913
11
13.0012080781
21
-21.3534210025
31
3.58484895427
0
LINE
8
Lines
10
15.5189178081
20
-19.6000813791
30
3.58484895428
11
21.1362541138
21
-13.3513580596
31
9.58885373331
0
LINE
8
Lines
10
21.1362541138
20
-13.3513580596
30
8.49721649896
11
13.6505288592
21
-20.9442847064
31
0.855755867951
0
LINE
8
Lines
10
13.6505288591
20
-20.9442847065
30
0.855755867914
11
15.5189178081
21
-19.6000813791
31
3.58484895428
0
LINE
8
Lines
10
17.8028986792
20
-17.551546901
30
3.58484895428
11
21.1362541138
21
-13.3513580596
31
7.4055792637
0
LINE
8
Lines
10
21.1362541138
20
-13.3513580596
30
6.31394202935
11
16.1132331537
21
-19.114489722
31
0.855755867952
0
LINE
8
Lines
10
16.1132331537
20
-19.1144897221
30
0.855755867916
11
17.8028986792
21
-17.551546901
31
3.58484895428
0
LINE
8
Lines
10
19.8187518854
20
-15.2386703391
30
3.58484895747
11
21.1362541138
21
-13.3513580596
31
5.22230479588
0
LINE
8
Lines
10
21.1362541138
20
-13.3513580596
30
4.13066756153
11
18.333257666
21
-16.9968133293
31
0.855755871146
0
LINE
8
Lines
10
18.333257666
20
-16.9968133293
30
0.855755871109
11
19.8187518854
21
-15.2386703391
31
3.58484895747
0
LINE
8
Lines
10
21.1362541138
20
-13.3513580596
30
1.94739309278
11
20.277166824
21
-14.6231496467
31
0.855755867961
0
LINE
8
Lines
10
20.277166824
20
-14.6231496467
30
0.855755867925
11
21.1362541138
21
-13.3513580596
31
2.67515124247
0
LINE
8
Lines
10
-23.8266033347
20
7.56921221323
30
0.855755867882
11
-24.8926696877
21
2.31408638996
31
4.67648618603
0
LINE
8
Lines
10
-24.8926696877
20
2.31408638996
30
4.67648618603
11
-24.8926696877
21
2.31408638996
31
4.67648618603
0
LINE
8
Lines
10
-24.8926696877
20
2.31408638996
30
4.67648618603
11
-24.9679367115
21
-1.26575525608
31
7.58607252257
0
LINE
8
Lines
10
-24.9679367115
20
-1.26575525608
30
7.58607252257
11
-24.8435771434
21
-2.79225262498
31
9.05504632633
0
LINE
8
Lines
10
-24.3133961017
20
-5.81882892
30
11.7425452216
11
-19.9909552214
21
-15.0120521361
31
17.7761330006
0
LINE
8
Lines
10
-19.9909552214
20
-15.0120521361
30
17.7761330006
11
-13.243467872
21
-21.2040222298
31
24.3259564072
0
LINE
8
Lines
10
-13.243467872
20
-21.2040222298
30
24.3259564072
11
-8.59393660515
21
-23.4764616931
31
28.2804357066
0
LINE
8
Lines
10
-8.59393660515
20
-23.4764616931
30
28.2804357066
11
-2.12378488112
21
-24.9096274115
31
32.7397160367
0
LINE
8
Lines
10
-2.12378488112
20
-24.9096274115
30
32.7397160367
11
21.1362541138
21
-13.3513580596
31
52.1627058737
0
LINE
8
Lines
10
-24.987757888
20
0.782275993092
30
3.58484895068
11
-24.987757888
21
0.782275993092
31
3.58484895068
0
LINE
8
Lines
10
-24.987757888
20
0.782275993092
30
3.58484895068
11
-24.7905609408
21
-3.22925505974
31
8.69945841864
0
LINE
8
Lines
10
-24.1864337394
20
-6.32585353674
30
11.5356048364
11
-20.1050522948
21
-14.8588987555
31
16.8203156361
0
LINE
8
Lines
10
-20.1050522948
20
-14.8588987555
30
16.8203156361
11
-13.2434678719
21
-21.2040222299
31
23.2343191728
0
LINE
8
Lines
10
-13.2434678719
20
-21.2040222299
30
23.2343191728
11
-8.59051882145
21
-23.4777125457
31
26.4810340199
0
LINE
8
Lines
10
-8.59051882145
20
-23.4777125457
30
26.4810340199
11
-0.909611061
21
-24.9834466741
31
32.5132356627
0
LINE
8
Lines
10
-0.909611061
20
-24.9834466741
30
32.5132356627
11
21.1362541138
21
-13.3513580596
31
51.071068639
0
LINE
8
Lines
10
-24.5743432013
20
4.59365390771
30
0.855755867883
11
-24.987757888
21
0.782275993092
31
3.58484895068
0
LINE
8
Lines
10
-24.987757888
20
0.782275993092
30
3.58484895068
11
-24.7905609408
21
-3.22925505974
31
8.69945841864
0
LINE
8
Lines
10
-22.5996724598
20
-10.6890039157
30
13.731595428
11
-19.7011588362
21
-15.3903976722
31
16.345564842
0
LINE
8
Lines
10
-19.7011588362
20
-15.3903976722
30
16.345564842
11
-16.3298016934
21
-18.9298065667
31
19.413588853
0
LINE
8
Lines
10
-16.3298016934
20
-18.9298065667
30
19.413588853
11
-9.85595311622
21
-22.9752081203
31
24.87970823
0
LINE
8
Lines
10
-9.85595311622
20
-22.9752081203
30
24.87970823
11
-9.85595311622
21
-22.9752081203
31
24.87970823
0
LINE
8
Lines
10
-0.704253217992
20
-24.9900785794
30
31.60099462
11
-0.704253217992
21
-24.9900785794
31
31.60099462
0
LINE
8
Lines
10
-0.704253217992
20
-24.9900785794
30
31.60099462
11
21.1362541138
21
-13.3513580596
31
49.9794314048
0
LINE
8
Lines
10
-15.1374700511
20
-19.8961554189
30
0.855755867902
11
-16.9031607405
21
-18.4196405226
31
3.58484895426
0
LINE
8
Lines
10
-17.460589976
20
-17.8921155175
30
0.855755867935
11
-19.0321235506
21
-16.2104371672
31
3.5848489543
0
LINE
8
Lines
10
-19.5207377137
20
-15.6186042626
30
0.85575586789
11
-20.8744454643
21
-13.7570900468
31
3.58484895425
0
LINE
8
Lines
10
-21.2868855832
20
-13.1098627822
30
0.855755867897
11
-22.4023794538
21
-11.0965487792
31
3.58484895426
0
LINE
8
Lines
10
-16.9031607405
20
-18.4196405226
30
3.58484895426
11
-22.2860494364
21
-11.3283714857
31
10.2332137445
0
LINE
8
Lines
10
-22.2860494364
20
-11.3283714857
30
10.2332137445
11
-24.8099087703
21
3.07708089056
31
20.5052260864
0
LINE
8
Lines
10
-24.8099087703
20
3.07708089056
30
20.5052260864
11
17.2773180149
21
18.0691527806
31
59.8041665235
0
LINE
8
Lines
10
-19.0321235506
20
-16.2104371672
30
3.5848489543
11
-22.5622460871
21
-10.7677783923
31
9.71858401222
0
LINE
8
Lines
10
-23.8187092754
20
-7.59401662194
30
12.2689567658
11
-24.7037665981
21
3.83717550629
31
18.8677702353
0
LINE
8
Lines
10
-24.7037665981
20
3.83717550629
30
18.8677702353
11
-22.3891331603
21
11.1232511583
31
24.3259564078
0
LINE
8
Lines
10
-22.3891331603
20
11.1232511583
30
24.3259564078
11
-17.7725459973
21
17.5822811027
31
29.3678929759
0
LINE
8
Lines
10
-16.7445074457
20
18.5639831502
30
30.3934651231
11
-11.8911917507
21
21.9908971793
31
35.2423287527
0
LINE
8
Lines
10
-11.8911917507
20
21.9908971793
30
35.2423287527
11
19.3605314488
21
15.816757633
31
59.8041665234
0
LINE
8
Lines
10
-17.4605899759
20
-17.8921155175
30
0.855755867933
11
-20.8744454637
21
-13.7570900478
31
4.67648618866
0
LINE
8
Lines
10
-20.8744454637
20
-13.7570900478
30
4.67648618866
11
-22.7852304569
21
-10.287529977
31
9.2825581295
0
LINE
8
Lines
10
-23.9488177742
20
-7.17315322692
30
12.0243191392
11
-24.7037665981
21
3.83717550625
31
17.776133001
0
LINE
8
Lines
10
-24.7037665981
20
3.83717550625
30
17.776133001
11
17.823812646
21
17.5303081194
31
57.0750734533
0
LINE
8
Lines
10
-20.8744454641
20
-13.7570900472
30
3.58484895375
11
-22.9007105495
21
-10.0278340797
31
9.04851627732
0
LINE
8
Lines
10
-24.0565536876
20
-6.80310404719
30
11.8102830015
11
-24.7037665994
21
3.83717549771
31
16.6844957596
0
LINE
8
Lines
10
-24.7037665994
20
3.83717549771
30
16.6844957596
11
21.1521578679
21
13.326147888
31
59.8041665234
0
LINE
8
Lines
10
-19.5207377137
20
-15.6186042627
30
0.855755867931
11
-21.6792646026
21
-12.4502805708
31
3.58484895385
0
LINE
8
Lines
10
-21.6792646026
20
-12.4502805708
30
3.58484895385
11
-23.0782008824
21
-9.61231730813
31
8.67643849287
0
LINE
8
Lines
10
-24.1864337394
20
-6.32585353674
30
11.5356048364
11
-24.7037665981
21
3.83717550668
31
15.5928585317
0
LINE
8
Lines
10
-24.7037665981
20
3.83717550668
30
15.5928585317
11
-18.5055449797
21
16.8090691297
31
25.9634122585
0
LINE
8
Lines
10
-18.5055449797
20
16.8090691297
30
25.9634122585
11
-13.9711469279
21
20.7317884785
31
30.810939778
0
LINE
8
Lines
10
-11.5334746681
20
22.1805987764
30
32.9202763106
11
-2.41125025212
21
24.8834457466
31
39.0630590674
0
LINE
8
Lines
10
-2.41125025212
20
24.8834457466
30
39.0630590674
11
19.8369068011
21
15.2150296931
31
57.0750734414
0
LINE
8
Lines
10
-21.2868855832
20
-13.1098627822
30
0.855755867965
11
-22.4023794536
21
-11.0965487796
31
3.58484895364
0
LINE
8
Lines
10
-22.4023794536
20
-11.0965487796
30
3.58484895364
11
-24.154873211
21
-6.44531614124
31
6.4656179722
0
LINE
8
Lines
10
-24.7905609408
20
-3.22925505974
30
8.69945841864
11
-24.5743432015
21
4.5936539069
31
15.0470399149
0
LINE
8
Lines
10
-24.5743432015
20
4.5936539069
30
15.0470399149
11
-20.4251596516
21
14.4157154941
31
22.6885005562
0
LINE
8
Lines
10
-20.4251596516
20
14.4157154941
30
22.6885005562
11
-13.7809386844
21
20.8587087083
31
30.580041049
0
LINE
8
Lines
10
-11.2157641383
20
22.3429325469
30
32.7165822406
11
-3.17391583761
21
24.7977067136
31
37.4256032193
0
LINE
8
Lines
10
-3.17391583761
20
24.7977067136
30
37.4256032193
11
22.6252137641
21
10.6348343724
31
59.8041665234
0
LINE
8
Lines
10
-21.2868855831
20
-13.1098627824
30
0.855755867783
11
-23.0410647602
21
-9.70099658375
31
3.58484895368
0
LINE
8
Lines
10
-23.0410647602
20
-9.70099658375
30
3.58484895368
11
-24.3181200519
21
-5.79905484877
31
6.13260554916
0
LINE
8
Lines
10
-24.8366658954
20
-2.85307329074
30
8.21734469835
11
-24.5743432015
21
4.5936539069
31
13.9554026806
0
LINE
8
Lines
10
-24.5743432015
20
4.5936539069
30
13.9554026806
11
-20.4251596516
21
14.4157154941
31
21.5968633219
0
LINE
8
Lines
10
-20.4251596516
20
14.4157154941
30
21.5968633219
11
-13.6027209821
21
20.9753660727
31
30.3649574021
0
LINE
8
Lines
10
-10.9710151294
20
22.4641231084
30
32.5606578818
11
-0.879822755831
21
24.9845134417
31
37.9714218326
0
LINE
8
Lines
10
-0.879822755831
20
24.9845134417
30
37.9714218326
11
21.5512391095
21
12.6705995456
31
57.0750731976
0
LINE
8
Lines
10
-24.9519713564
20
1.54891104566
30
0.855755867922
11
-24.9886728315
21
-0.752482636396
31
3.58484894436
0
LINE
8
Lines
10
-24.9886728315
20
-0.752482636396
30
3.58484894436
11
-24.154873211
21
-6.44531614124
31
6.4656179722
0
LINE
8
Lines
10
-23.0782008824
20
-9.61231730813
30
8.67643849287
11
-15.7410531827
21
-19.4221328566
31
18.8677702349
0
LINE
8
Lines
10
-15.7410531827
20
-19.4221328566
30
18.8677702349
11
-11.9174029578
21
-21.9767037278
31
22.1426819384
0
LINE
8
Lines
10
-11.9174029578
20
-21.9767037278
30
22.1426819384
11
-5.91690328465
21
-24.2897150152
31
26.2896744693
0
LINE
8
Lines
10
-5.91690328465
20
-24.2897150152
30
26.2896744693
11
0.0396676473404
21
-24.9999685295
31
31.0051971669
0
LINE
8
Lines
10
0.0396676473404
20
-24.9999685295
30
31.0051971669
11
21.1362541138
21
-13.3513580596
31
48.8877941703
0
LINE
8
Lines
10
-24.9519713564
20
1.54891104561
30
0.855755867885
11
-24.8954110629
21
-2.28440539532
31
3.58484901497
0
LINE
8
Lines
10
-24.8954110629
20
-2.28440539532
30
3.58484901497
11
-24.0477933458
21
-6.8340057943
31
6.23233186913
0
LINE
8
Lines
10
-23.0062028524
20
-9.78338542194
30
8.37796468935
11
-19.0310748928
21
-16.2116682802
31
14.500071205
0
LINE
8
Lines
10
-19.0310748928
20
-16.2116682802
30
14.500071205
11
-9.36948730317
21
-23.177849505
31
23.0576213563
0
LINE
8
Lines
10
-9.36948730317
20
-23.177849505
30
23.0576213563
11
-4.2185462402
21
-24.6415070079
31
27.044531382
0
LINE
8
Lines
10
-4.2185462402
20
-24.6415070079
30
27.044531382
11
1.39196790828
21
-24.9612184266
31
30.8757798111
0
LINE
8
Lines
10
1.39196790828
20
-24.9612184266
30
30.8757798111
11
21.1362541138
21
-13.3513580596
31
47.796156936
0
LINE
8
Lines
10
22.6252137285
20
10.6348344483
30
59.8041665839
11
21.5512392378
21
12.6705993274
31
57.0750734976
0
LINE
8
Lines
10
21.15215786
20
13.3261479005
30
59.8041665082
11
19.8369067911
21
15.2150297062
31
57.0750734218
0
LINE
8
Lines
10
19.3605314352
20
15.8167576496
30
59.8041665396
11
17.823812646
21
17.5303081194
31
57.0750734533
0
LINE
8
Lines
10
17.2773180164
20
18.0691527792
30
59.8041665289
11
15.5422758759
21
19.5815643041
31
57.0750734426
0
LINE
8
Lines
10
18.3332576691
20
-16.996813326
30
0.855755867918
11
16.6923631357
21
-18.6108842602
31
3.58484895428
0
LINE
8
Lines
10
20.277166824
20
-14.6231496467
30
0.855755867961
11
18.8463390927
21
-16.4260616948
31
3.58484895432
0
LINE
8
Lines
10
21.1362541138
20
-13.3513580596
30
2.67515127442
11
20.7164722395
21
-13.9938478607
31
3.58484895419
0
LINE
8
Lines
10
-16.3072201625
20
18.9492630614
30
59.8041665235
11
-17.9808676595
21
17.3691795492
31
57.0750734371
0
LINE
8
Lines
10
-18.5055449778
20
16.8090691317
30
59.8041665208
11
-19.973042202
21
15.0358766022
31
57.0750734345
0
LINE
8
Lines
10
-20.4251596506
20
14.4157154955
30
59.8041665108
11
-21.6644047733
21
12.4761198223
31
57.0750734245
0
LINE
8
Lines
10
-22.0371530553
20
11.8052482065
30
59.8041665235
11
-23.0294819292
21
9.72846144428
31
57.0750734371
0
LINE
8
Lines
10
-23.317247107
20
9.01698327321
30
59.8041665235
11
-24.0477143679
21
6.83428369912
31
57.0750734371
0
LINE
8
Lines
10
-24.2461624427
20
6.09291447525
30
59.8041665208
11
-24.7037665978
21
3.83717550827
31
57.0750734344
0
LINE
8
Lines
10
-24.8099087701
20
3.07708089261
30
59.8041665201
11
-24.9877578875
21
0.782276009312
31
57.0750734241
0
LINE
8
Lines
10
-24.9999955576
20
0.0149037042304
30
59.8041664975
11
-24.8954110709
21
-2.28440530829
31
57.0750734112
0
LINE
8
Lines
10
-23.8266033274
20
7.56921223628
30
0.855755848792
11
-24.4217605453
21
5.3458032015
31
3.58484893515
0
LINE
8
Lines
10
-10.9710151294
20
22.4641231084
30
32.5606578818
11
-13.6027209821
21
20.9753660727
31
30.3649574021
0
LINE
8
Lines
10
-11.2157641383
20
22.3429325469
30
32.7165822406
11
-13.7809386844
21
20.8587087083
31
30.580041049
0
LINE
8
Lines
10
-13.9711469279
20
20.7317884785
30
30.810939778
11
-11.5334746681
21
22.1805987764
31
32.9202763106
0
LINE
8
Lines
10
-15.8918147905
20
19.2989694716
30
47.7178534292
11
-16.9367085616
21
18.3887983049
31
46.7126189652
0
LINE
8
Lines
10
-14.8441999046
20
20.1159073669
30
46.7436723565
11
-15.9146972875
21
19.2801039999
31
45.7675101821
0
LINE
8
Lines
10
-14.8441999046
20
20.1159073669
30
46.7436723565
11
-15.8918147905
21
19.2989694716
31
47.7178534292
0
LINE
8
Lines
10
-15.9146972875
20
19.2801039999
30
45.7675101821
11
-16.9367085616
21
18.3887983049
31
46.7126189652
0
LINE
8
Lines
10
-24.7905609408
20
-3.22925505974
30
8.69945841864
11
-24.154873211
21
-6.44531614124
31
6.4656179722
0
LINE
8
Lines
10
-24.8366658954
20
-2.85307329074
30
8.21734469835
11
-24.3181200519
21
-5.79905484878
31
6.13260554916
0
LINE
8
Lines
10
-8.35310753375
20
23.5632254696
30
30.4241242813
11
-11.000693287
21
22.4496046113
31
28.181619383
0
LINE
8
Lines
10
-7.95776695284
20
23.6996612871
30
30.0435643434
11
-10.5608845934
21
22.6598260497
31
27.9526370255
0
LINE
8
Lines
10
-8.05610838577
20
23.6664132829
30
30.7081154972
11
-10.6370910424
21
22.6241528937
31
32.7518803869
0
LINE
8
Lines
10
-8.35310753375
20
23.5632254696
30
30.4241242813
11
-10.9710151294
21
22.4641231084
31
32.5606578818
0
LINE
8
Lines
10
-11.000693287
20
22.4496046113
30
28.181619383
11
-13.6027209821
21
20.9753660727
31
30.3649574021
0
LINE
8
Lines
10
-11.6249374928
20
22.1327998294
30
27.7566683518
11
-14.079261128
21
20.6585189713
31
29.8379849207
0
LINE
8
Lines
10
-11.3223520642
20
22.2891081862
30
27.9634063561
11
-13.8653848199
21
20.8026705929
31
30.075489187
0
LINE
8
Lines
10
-16.4975798259
20
18.7837658601
30
30.6626210631
11
-17.4488904041
21
17.9035254535
31
31.6011197534
0
LINE
8
Lines
10
-17.7725459973
20
17.5822811027
30
29.3678929759
11
-18.6634495214
21
16.6335700305
31
30.3232103563
0
LINE
8
Lines
10
-16.7445074457
20
18.5639831502
30
30.3934651231
11
-17.7094664472
21
17.6458153157
31
31.350496775
0
LINE
8
Lines
10
-24.8908232412
20
-2.333863401
30
9.42728376341
11
-24.4309039985
21
-5.30385989792
31
11.9516737841
0
LINE
8
Lines
10
-24.7905609408
20
-3.22925505974
30
8.69945841864
11
-24.1864337394
21
-6.32585353674
31
11.5356048364
0
LINE
8
Lines
10
-24.8435771434
20
-2.79225262498
30
9.05504632633
11
-24.3133961017
21
-5.81882892
31
11.7425452216
0
LINE
8
Lines
10
-24.7905609408
20
-3.22925505974
30
8.69945841864
11
-24.1864337394
21
-6.32585353674
31
11.5356048364
0
LINE
8
Lines
10
-9.85595311622
20
-22.9752081203
30
24.87970823
11
-0.704253218008
21
-24.9900785794
31
31.60099462
0
LINE
8
Lines
10
-24.154873211
20
-6.44531614124
30
6.4656179722
11
-23.0782008824
21
-9.61231730813
31
8.67643849287
0
LINE
8
Lines
10
-24.0477933458
20
-6.8340057943
30
6.23233186913
11
-23.0062028524
21
-9.78338542194
31
8.37796468935
0
LINE
8
Lines
10
-16.7445074457
20
18.5639831502
30
30.3934651231
11
-17.7725459973
21
17.5822811027
31
29.3678929759
0
LINE
8
Lines
10
-23.7396933687
20
-7.83753524785
30
12.4111330716
11
-22.4613253015
21
-10.9767420348
31
9.90967638819
0
LINE
8
Lines
10
-23.8187092754
20
-7.59401662194
30
12.2689567658
11
-22.5622460871
21
-10.7677783923
31
9.71858401222
0
LINE
8
Lines
10
-23.9488177742
20
-7.17315322692
30
12.0243191392
11
-23.5791003541
21
-8.30819032579
31
11.3057546768
0
LINE
8
Lines
10
-23.5791003541
20
-8.30819032579
30
11.3057546768
11
-23.2227761913
21
-9.25757343836
31
10.4886288321
0
LINE
8
Lines
10
-23.2227761913
20
-9.25757343836
30
10.4886288321
11
-22.7852304569
21
-10.287529977
31
9.2825581295
0
LINE
8
Lines
10
-24.0565536876
20
-6.80310404719
30
11.8102830015
11
-23.6412404253
21
-8.12968333661
31
11.0320671082
0
LINE
8
Lines
10
-23.6412404253
20
-8.12968333661
30
11.0320671082
11
-23.3074391082
21
-9.04230513855
31
10.2266004295
0
LINE
8
Lines
10
-23.3074391082
20
-9.04230513855
30
10.2266004295
11
-22.9007105495
21
-10.0278340797
31
9.04851627732
0
LINE
8
Lines
10
-24.1864337394
20
-6.32585353674
30
11.5356048364
11
-23.752005138
21
-7.80014435284
31
10.7241591298
0
LINE
8
Lines
10
-23.752005138
20
-7.80014435284
30
10.7241591298
11
-23.44653636
21
-8.67524828009
31
9.9455691003
0
LINE
8
Lines
10
-23.44653636
20
-8.67524828009
30
9.9455691003
11
-23.0782008824
21
-9.61231730813
31
8.67643849287
0
LINE
8
Lines
10
-12.7836238979
20
-21.4843887518
30
25.4911709058
11
-13.6211172892
21
-20.9634244291
31
26.1907818913
0
LINE
8
Lines
10
-11.4261945322
20
-22.2360535732
30
28.6911299708
11
-8.59051882145
21
-23.4777125457
31
26.4810340199
0
LINE
8
Lines
10
-13.4652696341
20
-21.0638674911
30
33.6692018017
11
-11.9499932467
21
-21.9589995538
31
32.4098732603
0
LINE
8
Lines
10
-13.2168473157
20
-21.2206255099
30
33.9067155084
11
-11.7197806422
21
-22.0827249609
31
32.5763743343
0
LINE
8
Lines
10
-11.3417607422
20
-22.2792383906
30
35.4675224532
11
-9.72180088746
21
-23.0322944472
31
34.1819179511
0
LINE
8
Lines
10
-7.71398951155
20
-23.7801254373
30
33.799778376
11
-5.97047209367
21
-24.276603201
31
32.4973232137
0
LINE
8
Lines
10
-7.43346000247
20
-23.8693039779
30
34.0285495515
11
-5.68129148495
21
-24.3459016482
31
32.6911957818
0
LINE
8
Lines
10
-5.51960624935
20
-24.3830668057
30
35.3782277318
11
-3.82469200201
21
-24.7057024003
31
34.1118046911
0
LINE
8
Lines
10
-13.2168473157
20
-21.2206255099
30
33.9067155084
11
-11.3417607422
21
-22.2792383906
31
35.4675224532
0
LINE
8
Lines
10
-11.7197806422
20
-22.0827249609
30
32.5763743343
11
-9.72180088746
21
-23.0322944472
31
34.1819179511
0
LINE
8
Lines
10
19.3416594318
20
-15.8398298736
30
59.8041665359
11
17.802898677
21
-17.5515469033
31
57.0750734495
0
LINE
8
Lines
10
21.1362541208
20
-13.3513580485
30
59.8041665365
11
19.8187518818
21
-15.2386703438
31
57.0750734501
0
LINE
8
Lines
10
-20.4423329321
20
-14.3913524136
30
6.31394204023
11
-22.4613253015
21
-10.9767420348
31
9.90967638819
0
LINE
8
Lines
10
-11.7197806422
20
-22.0827249609
30
32.5763743343
11
2.1036708885
21
-24.9113341432
31
23.741715913
0
ENDSEC
0
EOF
