0
SECTION
2
HEADER
9
$ACADVER
1
AC1006
9
$INSBASE
10
0.0
20
0.0
30
0.0
9
$EXTMIN
10
0.0
20
0.0
9
$EXTMAX
10
0.0
20
0.0
0
ENDSEC
0
SECTION
2
TABLES
0
TABLE
2
LTYPE
70
1
0
LTYPE
2
CONTINUOUS
70
64
3
Solid line
72
65
73
0
40
0.0
0
ENDTAB
0
TABLE
2
LAYER
70
1
0
LAYER
2
PYDXF
70
64
62
7
6
continuous
0
ENDTAB
0
TABLE
2
STYLE
70
1
0
STYLE
2
STANDARD
70
0
40
0
41
40
50
50
71
0
42
1
3
ARIAL.TTF
4

0
ENDTAB
0
TABLE
2
VIEW
70
0
0
ENDTAB
0
ENDSEC
0
SECTION
2
BLOCKS
0
ENDSEC
0
SECTION
2
ENTITIES
0
LINE
8
0
10
0
20
0
30
0
11
12.3329327845
21
3.03129822565
31
1.819395
0
LINE
8
0
10
0
20
0
30
0
11
13.3028226278
21
1.61087247604
31
2.183275
0
LINE
8
0
10
0
20
0
30
0
11
11.9444941871
21
2.93582332808
31
6.549823
0
LINE
8
0
10
0
20
0
30
0
11
13.0940556723
21
0.394596058912
31
1.364547
0
LINE
8
0
10
0
20
0
30
0
11
11.6531650606
21
2.86421788105
31
8.733099
0
LINE
8
0
10
0
20
0
30
0
11
12.2776796878
21
0.740662868121
31
7.095642
0
LINE
8
0
10
0
20
0
30
0
11
13.0127009843
21
3.19837663384
31
5.458186
0
LINE
8
0
10
0
20
0
30
0
11
12.7964929615
21
3.97614988222
31
10.370553
0
LINE
8
0
10
0
20
0
30
0
11
13.0049982406
21
1.57480816687
31
3.274912
0
LINE
8
0
10
0
20
0
30
0
11
12.7964926494
21
3.97615088681
31
3.820731
0
LINE
8
0
10
0
20
0
30
0
11
12.676953824
21
0.764749465459
31
7.095642
0
LINE
8
0
10
0
20
0
30
0
11
12.6769537639
21
0.764750460666
31
2.729093
0
LINE
8
0
10
0
20
0
30
0
11
11.9129756008
21
1.44257143137
31
1e-06
0
LINE
8
0
10
0
20
0
30
0
11
13.0762278982
21
0.788837089349
31
2.729093
0
LINE
8
0
10
0
20
0
30
0
11
12.0
21
0.0
31
1.819396
0
LINE
8
0
10
0
20
0
30
0
11
11.9444939566
21
2.93582426578
31
5.458187
0
LINE
8
0
10
0
20
0
30
0
11
12.7213718578
21
3.12677118682
31
1.091639
0
LINE
8
0
10
0
20
0
30
0
11
12.7
21
2.99105040038e-06
31
3.274912
0
LINE
8
0
10
0
20
0
30
0
11
13.4
21
3.15591144607e-06
31
4.366549
0
LINE
8
0
10
0
20
0
30
0
11
12.2776798041
21
0.740660940396
31
2.729094
0
LINE
8
0
10
0
20
0
30
0
11
13.0049983642
21
1.57480714591
31
7.64146
0
LINE
8
0
10
0
20
0
30
0
11
11.9782240856
21
0.722597920118
31
6.004004
0
LINE
8
0
10
0
20
0
30
0
11
12.6769537639
21
0.764750460666
31
4.912368
0
LINE
8
0
10
0
20
0
30
0
11
12.3329327845
21
3.03129822565
31
1.819396
0
LINE
8
0
10
0
20
0
30
0
11
12.3329330225
21
3.03129725745
31
9.824735
0
LINE
8
0
10
0
20
0
30
0
11
11.9782241424
21
0.722596979765
31
2.729094
0
LINE
8
0
10
0
20
0
30
0
11
12.7213716124
21
3.12677218551
31
4.366549
0
LINE
8
0
10
0
20
0
30
0
11
12.8865697257
21
2.35506278122
31
9.278916
0
LINE
8
0
10
0
20
0
30
0
11
11.9444941871
21
2.93582332808
31
10.916372
0
LINE
8
0
10
0
20
0
30
0
11
11.5049447544
21
4.35043057615
31
4.366549
0
LINE
8
0
10
0
20
0
30
0
11
12.2107999908
21
1.47863571715
31
8.733098
0
LINE
8
0
10
0
20
0
30
0
11
11.9129756008
21
1.44257143137
31
9.824735
0
LINE
8
0
10
0
20
0
30
0
11
12.0
21
1.88412623646e-06
31
7.64146
0
LINE
8
0
10
0
20
0
30
0
11
11.8044911825
21
2.15731034462
31
3.820731
0
LINE
8
0
10
0
20
0
30
0
11
13.0127007333
21
3.19837765541
31
3.274912
0
LINE
8
0
10
0
20
0
30
0
11
13.3756836256
21
0.806899960737
31
2.729094
0
LINE
8
0
10
0
20
0
30
0
11
12.7
21
2.99105040038e-06
31
4.366549
0
LINE
8
0
10
0
20
0
30
0
11
11.9782240856
21
0.722597920118
31
3.820732
0
LINE
8
0
10
0
20
0
30
0
11
13.4
21
2.10394096404e-06
31
7.64146
0
LINE
8
0
10
0
20
0
30
0
11
13.0127009843
21
3.19837663384
31
8.733098
0
LINE
8
0
10
0
20
0
30
0
11
11.6531650606
21
2.86421788105
31
1.819397
0
LINE
8
0
10
0
20
0
30
0
11
11.6531650606
21
2.86421788105
31
7.64146
0
LINE
8
0
10
0
20
0
30
0
11
13.0049982406
21
1.57480816687
31
5.458187
0
LINE
8
0
10
0
20
0
30
0
11
11.5049450959
21
4.35042967295
31
7.64146
0
LINE
8
0
10
0
20
0
30
0
11
11.9444941871
21
2.93582332808
31
9.824735
0
LINE
8
0
10
0
20
0
30
0
11
12.2776796878
21
0.740662868121
31
10.370553
0
LINE
8
0
10
0
20
0
30
0
11
12.7
21
1.99403360025e-06
31
7.64146
0
LINE
8
0
10
0
20
0
30
0
11
11.7460345841
21
3.64974951875
31
7.095642
0
LINE
8
0
10
0
20
0
30
0
11
12.7213718578
21
3.12677118682
31
9.824735
0
LINE
8
0
10
0
20
0
30
0
11
12.6078991775
21
1.52672143153
31
7.64146
0
LINE
8
0
10
0
20
0
30
0
11
12.5338422528
21
4.73949347321
31
3.274912
0
LINE
8
0
10
0
20
0
30
0
11
11.5049450959
21
4.35042967295
31
9.824735
0
LINE
8
0
10
0
20
0
30
0
11
12.0
21
2.82618935469e-06
31
1.091637
0
LINE
8
0
10
0
20
0
30
0
11
12.1280194486
21
3.76844056002
31
8.187279
0
LINE
8
0
10
0
20
0
30
0
11
11.4595456561
21
3.56073213744
31
4.912368
0
LINE
8
0
10
0
20
0
30
0
11
11.8044913518
21
2.15730941791
31
4.912367
0
LINE
8
0
10
0
20
0
30
0
11
11.9444939566
21
2.93582426578
31
1.819396
0
LINE
8
0
10
0
20
0
30
0
11
12.0996036356
21
2.21124215336
31
8.187279
0
LINE
8
0
10
0
20
0
30
0
11
12.4930866807
21
2.28315246729
31
9.278916
0
LINE
8
0
10
0
20
0
30
0
11
12.8865697257
21
2.35506278122
31
7.095642
0
LINE
8
0
10
0
20
0
30
0
11
12.6078991775
21
1.52672143153
31
1e-06
0
LINE
8
0
10
0
20
0
30
0
11
13.0127007333
21
3.19837765541
31
5.458187
0
LINE
8
0
10
0
20
0
30
0
11
11.5616017538
21
3.21393293122
31
1.364548
0
LINE
8
0
10
0
20
0
30
0
11
11.6531648358
21
2.86421879589
31
3.274912
0
LINE
8
0
10
0
20
0
30
0
11
11.8790896519
21
4.49190706069
31
8.733098
0
LINE
8
0
10
0
20
0
30
0
11
12.1280191528
21
3.76844151213
31
2.729093
0
LINE
8
0
10
0
20
0
30
0
11
13.0127009843
21
3.19837663384
31
6.549823
0
LINE
8
0
10
0
20
0
30
0
11
12.3329330225
21
3.03129725745
31
1.091638
0
LINE
8
0
10
0
20
0
30
0
11
13.1
21
2.05683780813e-06
31
8.733098
0
LINE
8
0
10
0
20
0
30
0
11
11.9129757141
21
1.44257049614
31
2.183275
0
LINE
8
0
10
0
20
0
30
0
11
13.0762278982
21
0.788837089349
31
4.912368
0
LINE
8
0
10
0
20
0
30
0
11
12.6078990577
21
1.52672242132
31
3.274912
0
LINE
8
0
10
0
20
0
30
0
11
12.7
21
1.99403360025e-06
31
8.733098
0
LINE
8
0
10
0
20
0
30
0
11
11.8044913518
21
2.15730941791
31
2.729094
0
LINE
8
0
10
0
20
0
30
0
11
12.676953824
21
0.764749465459
31
9.278916
0
LINE
8
0
10
0
20
0
30
0
11
12.2776796878
21
0.740662868121
31
8.187279
0
LINE
8
0
10
0
20
0
30
0
11
12.0996036356
21
2.21124215336
31
10.370553
0
LINE
8
0
10
0
20
0
30
0
11
12.1280194486
21
3.76844056002
31
10.370553
0
LINE
8
0
10
0
20
0
30
0
11
13.1816820095
21
2.40899551667
31
10.370553
0
LINE
8
0
10
0
20
0
30
0
11
11.4595459357
21
3.56073123781
31
8.187281
0
LINE
8
0
10
0
20
0
30
0
11
12.6078991775
21
1.52672143153
31
10.916372
0
LINE
8
0
10
0
20
0
30
0
11
12.676953944
21
0.764747475043
31
2.729094
0
LINE
8
0
10
0
20
0
30
0
11
12.7964926494
21
3.97615088681
31
4.912368
0
LINE
8
0
10
0
20
0
30
0
11
13.0762279602
21
0.788836062796
31
4.912367
0
LINE
8
0
10
0
20
0
30
0
11
13.375683499
21
0.80690206086
31
3.820731
0
LINE
8
0
10
0
20
0
30
0
11
11.6531648358
21
2.86421879589
31
1.819395
0
LINE
8
0
10
0
20
0
30
0
11
13.0762279602
21
0.788836062796
31
8.187279
0
LINE
8
0
10
0
20
0
30
0
11
12.0
21
1.88412623646e-06
31
5.458186
0
LINE
8
0
10
0
20
0
30
0
11
11.9782240856
21
0.722597920118
31
9.278918
0
LINE
8
0
10
0
20
0
30
0
11
12.5100043131
21
3.88713160128
31
6.004004
0
LINE
8
0
10
0
20
0
30
0
11
13.1816820095
21
2.40899551667
31
7.095642
0
LINE
8
0
10
0
20
0
30
0
11
11.224336679
21
4.24432163215
31
6.549823
0
LINE
8
0
10
0
20
0
30
0
11
12.5100043131
21
3.88713160128
31
9.278916
0
LINE
8
0
10
0
20
0
30
0
11
13.0762280221
21
0.788835036243
31
2.729094
0
LINE
8
0
10
0
20
0
30
0
11
12.0
21
1.88412623646e-06
31
4.36655
0
LINE
8
0
10
0
20
0
30
0
11
12.9104552918
21
3.58889177319
31
1.364548
0
LINE
8
0
10
0
20
0
30
0
11
13.3756835623
21
0.806901010799
31
6.004004
0
LINE
8
0
10
0
20
0
30
0
11
11.9129756008
21
1.44257143137
31
8.733099
0
LINE
8
0
10
0
20
0
30
0
11
11.9129754876
21
1.4425723666
31
0.0
0
LINE
8
0
10
0
20
0
30
0
11
12.5338426248
21
4.73949248923
31
6.549823
0
LINE
8
0
10
0
20
0
30
0
11
12.676953884
21
0.764748470251
31
2.729094
0
LINE
8
0
10
0
20
0
30
0
11
11.9782240856
21
0.722597920118
31
4.912367
0
LINE
8
0
10
0
20
0
30
0
11
11.224336679
21
4.24432163215
31
4.36655
0
LINE
8
0
10
0
20
0
30
0
11
13.375683499
21
0.80690206086
31
2.729093
0
LINE
8
0
10
0
20
0
30
0
11
12.5338426248
21
4.73949248923
31
8.733098
0
LINE
8
0
10
0
20
0
30
0
11
12.3329330225
21
3.03129725745
31
5.458186
0
LINE
8
0
10
0
20
0
30
0
11
11.4595459357
21
3.56073123781
31
7.095642
0
LINE
8
0
10
0
20
0
30
0
11
11.8044913518
21
2.15730941791
31
10.370555
0
LINE
8
0
10
0
20
0
30
0
11
11.7460345841
21
3.64974951875
31
10.370553
0
LINE
8
0
10
0
20
0
30
0
11
12.3
21
2.89684408855e-06
31
3.274912
0
LINE
8
0
10
0
20
0
30
0
11
11.9129754876
21
1.4425723666
31
2.183275
0
LINE
8
0
10
0
20
0
30
0
11
10.9483909355
21
4.91250810935
31
2.729094
0
LINE
8
0
10
0
20
0
30
0
11
12.3
21
1.93122939237e-06
31
6.549823
0
LINE
8
0
10
0
20
0
30
0
11
13.3939195427
21
0.403632609879
31
1.364547
0
LINE
8
0
10
0
20
0
30
0
11
12.3329330225
21
3.03129725745
31
6.549823
0
LINE
8
0
10
0
20
0
30
0
11
13.0762278982
21
0.788837089349
31
3.820731
0
LINE
8
0
10
0
20
0
30
0
11
13.0049982406
21
1.57480816687
31
2.183275
0
LINE
8
0
10
0
20
0
30
0
11
12.1280191528
21
3.76844151213
31
3.820731
0
LINE
8
0
10
0
20
0
30
0
11
13.3028227542
21
1.6108714317
31
9.824735
0
LINE
8
0
10
0
20
0
30
0
11
12.7213718578
21
3.12677118682
31
6.549823
0
LINE
8
0
10
0
20
0
30
0
11
12.7
21
0.0
31
1.819396
0
LINE
8
0
10
0
20
0
30
0
11
13.3028227542
21
1.6108714317
31
10.916372
0
LINE
8
0
10
0
20
0
30
0
11
11.8044913518
21
2.15730941791
31
9.278918
0
LINE
8
0
10
0
20
0
30
0
11
11.8044913518
21
2.15730941791
31
11.462192
0
LINE
8
0
10
0
20
0
30
0
11
11.4595459357
21
3.56073123781
31
9.278916
0
LINE
8
0
10
0
20
0
30
0
11
12.7213716124
21
3.12677218551
31
1.819395
0
LINE
8
0
10
0
20
0
30
0
11
12.510004008
21
3.88713258338
31
2.729093
0
LINE
8
0
10
0
20
0
30
0
11
13.1
21
2.05683780813e-06
31
7.64146
0
LINE
8
0
10
0
20
0
30
0
11
13.375683689
21
0.806898910676
31
2.729094
0
LINE
8
0
10
0
20
0
30
0
11
11.9129756008
21
1.44257143137
31
7.64146
0
LINE
8
0
10
0
20
0
30
0
11
12.7964929615
21
3.97614988222
31
7.095642
0
LINE
8
0
10
0
20
0
30
0
11
12.6942370884
21
0.382550313981
31
1.364547
0
LINE
8
0
10
0
20
0
30
0
11
11.9782240856
21
0.722597920118
31
10.370553
0
LINE
8
0
10
0
20
0
30
0
11
12.2107998747
21
1.47863667577
31
5.458187
0
LINE
8
0
10
0
20
0
30
0
11
11.9782240856
21
0.722597920118
31
2.729094
0
LINE
8
0
10
0
20
0
30
0
11
11.9444939566
21
2.93582426578
31
3.274912
0
LINE
8
0
10
0
20
0
30
0
11
11.9782240289
21
0.722598860472
31
3.820731
0
LINE
8
0
10
0
20
0
30
0
11
12.0
21
1.88412623646e-06
31
1.819397
0
LINE
8
0
10
0
20
0
30
0
11
12.6078991775
21
1.52672143153
31
8.733098
0
LINE
8
0
10
0
20
0
30
0
11
12.4930866807
21
2.28315246729
31
4.912367
0
LINE
8
0
10
0
20
0
30
0
11
13.1
21
2.05683780813e-06
31
9.824735
0
LINE
8
0
10
0
20
0
30
0
11
11.9129756008
21
1.44257143137
31
3.274913
0
LINE
8
0
10
0
20
0
30
0
11
12.0
21
1.88412623646e-06
31
1.091639
0
LINE
8
0
10
0
20
0
30
0
11
11.9782240856
21
0.722597920118
31
7.095642
0
LINE
8
0
10
0
20
0
30
0
11
13.0762279602
21
0.788836062796
31
6.004004
0
LINE
8
0
10
0
20
0
30
0
11
11.9129754876
21
1.4425723666
31
4.366549
0
LINE
8
0
10
0
20
0
30
0
11
11.7341527596
21
2.51190346454
31
1.364548
0
LINE
8
0
10
0
20
0
30
0
11
11.6531650606
21
2.86421788105
31
7.641462
0
LINE
8
0
10
0
20
0
30
0
11
11.224336679
21
4.24432163215
31
6.549825
0
LINE
8
0
10
0
20
0
30
0
11
11.224336679
21
4.24432163215
31
7.641462
0
LINE
8
0
10
0
20
0
30
0
11
11.6531650606
21
2.86421788105
31
9.824735
0
LINE
8
0
10
0
20
0
30
0
11
12.3329327845
21
3.03129822565
31
4.366549
0
LINE
8
0
10
0
20
0
30
0
11
11.224336679
21
4.24432163215
31
9.824735
0
LINE
8
0
10
0
20
0
30
0
11
11.8044911825
21
2.15731034462
31
2.729093
0
LINE
8
0
10
0
20
0
30
0
11
11.6531650606
21
2.86421788105
31
1.091639
0
LINE
8
0
10
0
20
0
30
0
11
11.8044913518
21
2.15730941791
31
9.278916
0
LINE
8
0
10
0
20
0
30
0
11
12.3329330225
21
3.03129725745
31
7.64146
0
LINE
8
0
10
0
20
0
30
0
11
11.9782240856
21
0.722597920118
31
9.278916
0
LINE
8
0
10
0
20
0
30
0
11
12.2776797459
21
0.740661904259
31
2.729094
0
LINE
8
0
10
0
20
0
30
0
11
12.0
21
1.88412623646e-06
31
9.824735
0
LINE
8
0
10
0
20
0
30
0
11
11.224336679
21
4.24432163215
31
5.458187
0
LINE
8
0
10
0
20
0
30
0
11
11.6531648358
21
2.86421879589
31
1.819396
0
LINE
8
0
10
0
20
0
30
0
11
12.2532342079
21
4.63338444843
31
6.549823
0
LINE
8
0
10
0
20
0
30
0
11
12.2776796878
21
0.740662868121
31
6.004004
0
LINE
8
0
10
0
20
0
30
0
11
12.6078990577
21
1.52672242132
31
4.366549
0
LINE
8
0
10
0
20
0
30
0
11
13.076228084
21
0.788834009691
31
2.729094
0
LINE
8
0
10
0
20
0
30
0
11
13.3028227542
21
1.6108714317
31
6.549823
0
LINE
8
0
10
0
20
0
30
0
11
12.7213716124
21
3.12677218551
31
5.458187
0
LINE
8
0
10
0
20
0
30
0
11
12.3329330225
21
3.03129725745
31
1.091639
0
LINE
8
0
10
0
20
0
30
0
11
12.2532342079
21
4.63338444843
31
2.183276
0
LINE
8
0
10
0
20
0
30
0
11
12.5338426248
21
4.73949248923
31
2.183276
0
LINE
8
0
10
0
20
0
30
0
11
11.7460342976
21
3.64975044088
31
4.912368
0
LINE
8
0
10
0
20
0
30
0
11
11.7850320077
21
5.72040388243
31
1.364548
0
LINE
8
0
10
0
20
0
30
0
11
11.9444941871
21
2.93582332808
31
8.733098
0
LINE
8
0
10
0
20
0
30
0
11
13.1816818204
21
2.4089965515
31
4.912368
0
LINE
8
0
10
0
20
0
30
0
11
13.0127009843
21
3.19837663384
31
1.091639
0
LINE
8
0
10
0
20
0
30
0
11
12.6769537639
21
0.764750460666
31
3.820731
0
LINE
8
0
10
0
20
0
30
0
11
12.7964926494
21
3.97615088681
31
2.729093
0
LINE
8
0
10
0
20
0
30
0
11
12.5338426248
21
4.73949248923
31
5.458186
0
LINE
8
0
10
0
20
0
30
0
11
12.0996036356
21
2.21124215336
31
7.095642
0
LINE
8
0
10
0
20
0
30
0
11
12.2107998747
21
1.47863667577
31
2.183275
0
LINE
8
0
10
0
20
0
30
0
11
11.5049450959
21
4.35042967295
31
8.733098
0
LINE
8
0
10
0
20
0
30
0
11
12.2107998747
21
1.47863667577
31
4.366549
0
LINE
8
0
10
0
20
0
30
0
11
12.2532338441
21
4.63338541037
31
3.274912
0
LINE
8
0
10
0
20
0
30
0
11
12.7213718578
21
3.12677118682
31
5.458186
0
LINE
8
0
10
0
20
0
30
0
11
12.1280191528
21
3.76844151213
31
4.912368
0
LINE
8
0
10
0
20
0
30
0
11
11.9782241991
21
0.722596039411
31
2.729094
0
LINE
8
0
10
0
20
0
30
0
11
12.1280194486
21
3.76844056002
31
6.004004
0
LINE
8
0
10
0
20
0
30
0
11
12.2107999908
21
1.47863571715
31
1e-06
0
LINE
8
0
10
0
20
0
30
0
11
13.1816820095
21
2.40899551667
31
6.004004
0
LINE
8
0
10
0
20
0
30
0
11
11.9444941871
21
2.93582332808
31
5.458186
0
LINE
8
0
10
0
20
0
30
0
11
12.3329330225
21
3.03129725745
31
10.916372
0
LINE
8
0
10
0
20
0
30
0
11
12.2107999908
21
1.47863571715
31
6.549823
0
LINE
8
0
10
0
20
0
30
0
11
12.3
21
1.93122939237e-06
31
8.733098
0
LINE
8
0
10
0
20
0
30
0
11
12.0
21
1.88412623646e-06
31
9.824736
0
LINE
8
0
10
0
20
0
30
0
11
13.3028228807
21
1.61087038736
31
2.183275
0
LINE
8
0
10
0
20
0
30
0
11
12.2532342079
21
4.63338444843
31
5.458186
0
LINE
8
0
10
0
20
0
30
0
11
12.5100043131
21
3.88713160128
31
10.370553
0
LINE
8
0
10
0
20
0
30
0
11
11.9444941871
21
2.93582332808
31
1.091639
0
LINE
8
0
10
0
20
0
30
0
11
12.099603462
21
2.21124310324
31
3.820731
0
LINE
8
0
10
0
20
0
30
0
11
11.9782240856
21
0.722597920118
31
8.187281
0
LINE
8
0
10
0
20
0
30
0
11
13.1
21
3.0852567122e-06
31
1.091637
0
LINE
8
0
10
0
20
0
30
0
11
13.4
21
2.10394096404e-06
31
5.458186
0
LINE
8
0
10
0
20
0
30
0
11
13.0049983642
21
1.57480714591
31
10.916372
0
LINE
8
0
10
0
20
0
30
0
11
12.8865697257
21
2.35506278122
31
10.370553
0
LINE
8
0
10
0
20
0
30
0
11
12.0996036356
21
2.21124215336
31
9.278916
0
LINE
8
0
10
0
20
0
30
0
11
11.5049450959
21
4.35042967295
31
6.549823
0
LINE
8
0
10
0
20
0
30
0
11
11.6531648358
21
2.86421879589
31
4.366549
0
LINE
8
0
10
0
20
0
30
0
11
12.7
21
1.99403360025e-06
31
5.458186
0
LINE
8
0
10
0
20
0
30
0
11
11.9129756008
21
1.44257143137
31
5.458186
0
LINE
8
0
10
0
20
0
30
0
11
12.4930865014
21
2.28315344806
31
3.820731
0
LINE
8
0
10
0
20
0
30
0
11
12.5100043131
21
3.88713160128
31
4.912367
0
LINE
8
0
10
0
20
0
30
0
11
12.0275063764
21
2.57470199537
31
1.364547
0
LINE
8
0
10
0
20
0
30
0
11
13.4
21
3.15591144607e-06
31
3.274912
0
LINE
8
0
10
0
20
0
30
0
11
11.8044913518
21
2.15730941791
31
4.912369
0
LINE
8
0
10
0
20
0
30
0
11
11.8790896519
21
4.49190706069
31
7.64146
0
LINE
8
0
10
0
20
0
30
0
11
10.9483909355
21
4.91250810935
31
11.462192
0
LINE
8
0
10
0
20
0
30
0
11
11.8790896519
21
4.49190706069
31
5.458186
0
LINE
8
0
10
0
20
0
30
0
11
11.8044913518
21
2.15730941791
31
7.095642
0
LINE
8
0
10
0
20
0
30
0
11
13.4
21
2.10394096404e-06
31
6.549823
0
LINE
8
0
10
0
20
0
30
0
11
13.0127009843
21
3.19837663384
31
10.916372
0
LINE
8
0
10
0
20
0
30
0
11
12.2107998747
21
1.47863667577
31
0.0
0
LINE
8
0
10
0
20
0
30
0
11
13.1
21
3.0852567122e-06
31
3.274912
0
LINE
8
0
10
0
20
0
30
0
11
13.3028227542
21
1.6108714317
31
1e-06
0
LINE
8
0
10
0
20
0
30
0
11
12.7213718578
21
3.12677118682
31
1.819397
0
LINE
8
0
10
0
20
0
30
0
11
11.9444941871
21
2.93582332808
31
1.091638
0
LINE
8
0
10
0
20
0
30
0
11
11.7460345841
21
3.64974951875
31
6.004004
0
LINE
8
0
10
0
20
0
30
0
11
12.7964929615
21
3.97614988222
31
4.912367
0
LINE
8
0
10
0
20
0
30
0
11
12.0275065786
21
2.57470105115
31
1.364548
0
LINE
8
0
10
0
20
0
30
0
11
11.2243363458
21
4.24432251332
31
4.366549
0
LINE
8
0
10
0
20
0
30
0
11
12.7964929615
21
3.97614988222
31
8.187279
0
LINE
8
0
10
0
20
0
30
0
11
12.2776796296
21
0.740663831984
31
3.820731
0
LINE
8
0
10
0
20
0
30
0
11
12.0
21
2.82618935469e-06
31
3.274912
0
LINE
8
0
10
0
20
0
30
0
11
12.2360285228
21
3.40141235221
31
1.364548
0
LINE
8
0
10
0
20
0
30
0
11
12.5338426248
21
4.73949248923
31
7.64146
0
LINE
8
0
10
0
20
0
30
0
11
11.4595456561
21
3.56073213744
31
3.820731
0
LINE
8
0
10
0
20
0
30
0
11
12.5338426248
21
4.73949248923
31
9.824735
0
LINE
8
0
10
0
20
0
30
0
11
12.6078990577
21
1.52672242132
31
2.183275
0
LINE
8
0
10
0
20
0
30
0
11
11.9444939566
21
2.93582426578
31
1.819395
0
LINE
8
0
10
0
20
0
30
0
11
12.3
21
1.93122939237e-06
31
9.824735
0
LINE
8
0
10
0
20
0
30
0
11
12.510004008
21
3.88713258338
31
3.820731
0
LINE
8
0
10
0
20
0
30
0
11
13.4
21
0.0
31
1.819396
0
LINE
8
0
10
0
20
0
30
0
11
13.3756835623
21
0.806901010799
31
9.278916
0
LINE
8
0
10
0
20
0
30
0
11
12.0
21
1.88412623646e-06
31
3.274913
0
LINE
8
0
10
0
20
0
30
0
11
13.0049982406
21
1.57480816687
31
0.0
0
LINE
8
0
10
0
20
0
30
0
11
12.0549182369
21
5.85140549806
31
1.364548
0
LINE
8
0
10
0
20
0
30
0
11
12.7213716124
21
3.12677218551
31
3.274912
0
LINE
8
0
10
0
20
0
30
0
11
12.0
21
1.88412623646e-06
31
6.549823
0
LINE
8
0
10
0
20
0
30
0
11
13.0127007333
21
3.19837765541
31
1.819396
0
LINE
8
0
10
0
20
0
30
0
11
13.0049983642
21
1.57480714591
31
9.824735
0
LINE
8
0
10
0
20
0
30
0
11
12.6078990577
21
1.52672242132
31
5.458187
0
LINE
8
0
10
0
20
0
30
0
11
12.3
21
1.93122939237e-06
31
7.64146
0
LINE
8
0
10
0
20
0
30
0
11
12.0
21
2.82618935469e-06
31
4.366549
0
LINE
8
0
10
0
20
0
30
0
11
11.9945547292
21
0.361464863605
31
1.364547
0
LINE
8
0
10
0
20
0
30
0
11
12.8865695409
21
2.35506379288
31
4.912368
0
LINE
8
0
10
0
20
0
30
0
11
13.0127007333
21
3.19837765541
31
4.366549
0
LINE
8
0
10
0
20
0
30
0
11
11.9444941871
21
2.93582332808
31
7.64146
0
LINE
8
0
10
0
20
0
30
0
11
13.4
21
2.10394096404e-06
31
9.824735
0
LINE
8
0
10
0
20
0
30
0
11
11.2243363458
21
4.24432251332
31
3.274912
0
LINE
8
0
10
0
20
0
30
0
11
13.3028226278
21
1.61087247604
31
0.0
0
LINE
8
0
10
0
20
0
30
0
11
11.4595459357
21
3.56073123781
31
10.370553
0
LINE
8
0
10
0
20
0
30
0
11
11.224336679
21
4.24432163215
31
1e-06
0
LINE
8
0
10
0
20
0
30
0
11
12.8097834292
21
2.74216128212
31
1.364548
0
LINE
8
0
10
0
20
0
30
0
11
13.0762279602
21
0.788836062796
31
10.370553
0
LINE
8
0
10
0
20
0
30
0
11
13.0049983642
21
1.57480714591
31
6.549823
0
LINE
8
0
10
0
20
0
30
0
11
13.4
21
3.15591144607e-06
31
1.091637
0
LINE
8
0
10
0
20
0
30
0
11
12.6078991775
21
1.52672143153
31
9.824735
0
LINE
8
0
10
0
20
0
30
0
11
11.8790896519
21
4.49190706069
31
1e-06
0
LINE
8
0
10
0
20
0
30
0
11
10.7954491673
21
5.24006462513
31
1.364548
0
LINE
8
0
10
0
20
0
30
0
11
12.7213718578
21
3.12677118682
31
10.916372
0
LINE
8
0
10
0
20
0
30
0
11
11.7460342976
21
3.64975044088
31
3.820731
0
LINE
8
0
10
0
20
0
30
0
11
11.9945548144
21
0.361462038698
31
1.364547
0
LINE
8
0
10
0
20
0
30
0
11
11.8044913518
21
2.15730941791
31
7.095643
0
LINE
8
0
10
0
20
0
30
0
11
13.3028226278
21
1.61087247604
31
5.458187
0
LINE
8
0
10
0
20
0
30
0
11
13.1816818204
21
2.4089965515
31
3.820731
0
LINE
8
0
10
0
20
0
30
0
11
12.676953824
21
0.764749465459
31
6.004004
0
LINE
8
0
10
0
20
0
30
0
11
12.8865695409
21
2.35506379288
31
2.729093
0
LINE
8
0
10
0
20
0
30
0
11
12.5338422528
21
4.73949347321
31
4.366549
0
LINE
8
0
10
0
20
0
30
0
11
12.2107999908
21
1.47863571715
31
5.458186
0
LINE
8
0
10
0
20
0
30
0
11
11.8044913518
21
2.15730941791
31
8.187279
0
LINE
8
0
10
0
20
0
30
0
11
11.224336679
21
4.24432163215
31
7.64146
0
LINE
8
0
10
0
20
0
30
0
11
12.0996036356
21
2.21124215336
31
4.912367
0
LINE
8
0
10
0
20
0
30
0
11
12.3
21
0.0
31
1.819396
0
LINE
8
0
10
0
20
0
30
0
11
12.1280194486
21
3.76844056002
31
4.912367
0
LINE
8
0
10
0
20
0
30
0
11
11.224336679
21
4.24432163215
31
8.733098
0
LINE
8
0
10
0
20
0
30
0
11
11.9782240856
21
0.722597920118
31
7.095643
0
LINE
8
0
10
0
20
0
30
0
11
12.7964929615
21
3.97614988222
31
9.278916
0
LINE
8
0
10
0
20
0
30
0
11
11.9782240856
21
0.722597920118
31
4.912369
0
LINE
8
0
10
0
20
0
30
0
11
11.8044913518
21
2.15730941791
31
10.370553
0
LINE
8
0
10
0
20
0
30
0
11
11.7460345841
21
3.64974951875
31
8.187279
0
LINE
8
0
10
0
20
0
30
0
11
12.510004008
21
3.88713258338
31
4.912368
0
LINE
8
0
10
0
20
0
30
0
11
12.5100043131
21
3.88713160128
31
2.729094
0
LINE
8
0
10
0
20
0
30
0
11
11.7460345841
21
3.64974951875
31
4.912367
0
LINE
8
0
10
0
20
0
30
0
11
11.9129756008
21
1.44257143137
31
9.824736
0
LINE
8
0
10
0
20
0
30
0
11
12.4186447952
21
2.65843214156
31
1.364547
0
LINE
8
0
10
0
20
0
30
0
11
11.9782240289
21
0.722598860472
31
4.912368
0
LINE
8
0
10
0
20
0
30
0
11
12.2107999908
21
1.47863571715
31
9.824735
0
LINE
8
0
10
0
20
0
30
0
11
12.2944185975
21
0.370501485195
31
1.364547
0
LINE
8
0
10
0
20
0
30
0
11
11.9129756008
21
1.44257143137
31
2.183276
0
LINE
8
0
10
0
20
0
30
0
11
11.6531650606
21
2.86421788105
31
8.733098
0
LINE
8
0
10
0
20
0
30
0
11
13.0127009843
21
3.19837663384
31
7.64146
0
LINE
8
0
10
0
20
0
30
0
11
11.8044913518
21
2.15730941791
31
8.187281
0
LINE
8
0
10
0
20
0
30
0
11
11.7460345841
21
3.64974951875
31
2.729094
0
LINE
8
0
10
0
20
0
30
0
11
12.6078992974
21
1.52672044175
31
2.183275
0
LINE
8
0
10
0
20
0
30
0
11
12.2776796878
21
0.740662868121
31
4.912367
0
LINE
8
0
10
0
20
0
30
0
11
13.1031372482
21
2.80495886873
31
1.364548
0
LINE
8
0
10
0
20
0
30
0
11
12.8865695409
21
2.35506379288
31
3.820731
0
LINE
8
0
10
0
20
0
30
0
11
11.4595459357
21
3.56073123781
31
8.187279
0
LINE
8
0
10
0
20
0
30
0
11
12.0
21
1.88412623646e-06
31
8.733098
0
LINE
8
0
10
0
20
0
30
0
11
11.6531650606
21
2.86421788105
31
1.091638
0
LINE
8
0
10
0
20
0
30
0
11
12.6078991775
21
1.52672143153
31
5.458186
0
LINE
8
0
10
0
20
0
30
0
11
11.4595459357
21
3.56073123781
31
4.912367
0
LINE
8
0
10
0
20
0
30
0
11
11.224336679
21
4.24432163215
31
2.183276
0
LINE
8
0
10
0
20
0
30
0
11
12.6078990577
21
1.52672242132
31
0.0
0
LINE
8
0
10
0
20
0
30
0
11
12.4186450039
21
2.65843116664
31
1.364548
0
LINE
8
0
10
0
20
0
30
0
11
13.3028227542
21
1.6108714317
31
5.458186
0
LINE
8
0
10
0
20
0
30
0
11
11.8790896519
21
4.49190706069
31
2.183276
0
LINE
8
0
10
0
20
0
30
0
11
12.4930865014
21
2.28315344806
31
4.912368
0
LINE
8
0
10
0
20
0
30
0
11
13.1
21
2.05683780813e-06
31
5.458186
0
LINE
8
0
10
0
20
0
30
0
11
12.1280194486
21
3.76844056002
31
7.095642
0
LINE
8
0
10
0
20
0
30
0
11
13.1816820095
21
2.40899551667
31
4.912367
0
LINE
8
0
10
0
20
0
30
0
11
11.9129754876
21
1.4425723666
31
3.274912
0
LINE
8
0
10
0
20
0
30
0
11
12.2776796296
21
0.740663831984
31
4.912368
0
LINE
8
0
10
0
20
0
30
0
11
13.0762279602
21
0.788836062796
31
7.095642
0
LINE
8
0
10
0
20
0
30
0
11
12.8865697257
21
2.35506278122
31
6.004004
0
LINE
8
0
10
0
20
0
30
0
11
12.0
21
1.88412623646e-06
31
6.549825
0
LINE
8
0
10
0
20
0
30
0
11
12.4930866807
21
2.28315246729
31
10.370553
0
LINE
8
0
10
0
20
0
30
0
11
11.9782240856
21
0.722597920118
31
8.187279
0
LINE
8
0
10
0
20
0
30
0
11
13.3028226278
21
1.61087247604
31
3.274912
0
LINE
8
0
10
0
20
0
30
0
11
12.2532342079
21
4.63338444843
31
8.733098
0
LINE
8
0
10
0
20
0
30
0
11
11.8506417977
21
3.2942812545
31
1.364548
0
LINE
8
0
10
0
20
0
30
0
11
12.099603462
21
2.21124310324
31
4.912368
0
LINE
8
0
10
0
20
0
30
0
11
11.9444939566
21
2.93582426578
31
4.366549
0
LINE
8
0
10
0
20
0
30
0
11
12.6078991775
21
1.52672143153
31
6.549823
0
LINE
8
0
10
0
20
0
30
0
11
11.9945547576
21
0.361463921969
31
1.364548
0
LINE
8
0
10
0
20
0
30
0
11
12.3
21
1.93122939237e-06
31
5.458186
0
LINE
8
0
10
0
20
0
30
0
11
11.5049447544
21
4.35043057615
31
3.274912
0
LINE
8
0
10
0
20
0
30
0
11
12.7964929615
21
3.97614988222
31
6.004004
0
LINE
8
0
10
0
20
0
30
0
11
13.3028227542
21
1.6108714317
31
7.64146
0
LINE
8
0
10
0
20
0
30
0
11
12.7213718578
21
3.12677118682
31
1.091638
0
LINE
8
0
10
0
20
0
30
0
11
11.8790892993
21
4.49190799326
31
4.366549
0
LINE
8
0
10
0
20
0
30
0
11
13.0127009843
21
3.19837663384
31
1.091638
0
LINE
8
0
10
0
20
0
30
0
11
12.1280194486
21
3.76844056002
31
2.729094
0
LINE
8
0
10
0
20
0
30
0
11
13.0762279602
21
0.788836062796
31
9.278916
0
LINE
8
0
10
0
20
0
30
0
11
11.6531650606
21
2.86421788105
31
10.916372
0
LINE
8
0
10
0
20
0
30
0
11
13.0127007333
21
3.19837765541
31
1.819395
0
LINE
8
0
10
0
20
0
30
0
11
12.8097832139
21
2.74216228776
31
1.364547
0
LINE
8
0
10
0
20
0
30
0
11
11.9129756008
21
1.44257143137
31
6.549823
0
LINE
8
0
10
0
20
0
30
0
11
12.2944186847
21
0.370498589665
31
1.364547
0
LINE
8
0
10
0
20
0
30
0
11
13.375683499
21
0.80690206086
31
4.912368
0
LINE
8
0
10
0
20
0
30
0
11
12.7
21
1.99403360025e-06
31
6.549823
0
LINE
8
0
10
0
20
0
30
0
11
13.0940555794
21
0.394599142768
31
1.364547
0
LINE
8
0
10
0
20
0
30
0
11
13.1
21
0.0
31
1.819396
0
LINE
8
0
10
0
20
0
30
0
11
11.6531650606
21
2.86421788105
31
6.549823
0
LINE
8
0
10
0
20
0
30
0
11
12.3329330225
21
3.03129725745
31
1.819397
0
LINE
8
0
10
0
20
0
30
0
11
11.8044913518
21
2.15730941791
31
6.004006
0
LINE
8
0
10
0
20
0
30
0
11
11.8790896519
21
4.49190706069
31
9.824735
0
LINE
8
0
10
0
20
0
30
0
11
13.1816818204
21
2.4089965515
31
2.729093
0
LINE
8
0
10
0
20
0
30
0
11
12.2776796878
21
0.740662868121
31
9.278916
0
LINE
8
0
10
0
20
0
30
0
11
13.103137028
21
2.8049598974
31
1.364547
0
LINE
8
0
10
0
20
0
30
0
11
11.7460342976
21
3.64975044088
31
2.729093
0
LINE
8
0
10
0
20
0
30
0
11
12.4930865014
21
2.28315344806
31
2.729093
0
LINE
8
0
10
0
20
0
30
0
11
12.2107999908
21
1.47863571715
31
10.916372
0
LINE
8
0
10
0
20
0
30
0
11
11.9129756008
21
1.44257143137
31
7.641462
0
LINE
8
0
10
0
20
0
30
0
11
12.676953824
21
0.764749465459
31
4.912367
0
LINE
8
0
10
0
20
0
30
0
11
12.3
21
2.89684408855e-06
31
1.091637
0
LINE
8
0
10
0
20
0
30
0
11
12.7
21
1.99403360025e-06
31
9.824735
0
LINE
8
0
10
0
20
0
30
0
11
13.3756835623
21
0.806901010799
31
7.095642
0
LINE
8
0
10
0
20
0
30
0
11
13.0049982406
21
1.57480816687
31
4.366549
0
LINE
8
0
10
0
20
0
30
0
11
13.3028226278
21
1.61087247604
31
4.366549
0
LINE
8
0
10
0
20
0
30
0
11
12.676953824
21
0.764749465459
31
8.187279
0
LINE
8
0
10
0
20
0
30
0
11
13.3756835623
21
0.806901010799
31
10.370553
0
LINE
8
0
10
0
20
0
30
0
11
11.5049450959
21
4.35042967295
31
1e-06
0
LINE
8
0
10
0
20
0
30
0
11
12.4930866807
21
2.28315246729
31
8.187279
0
LINE
8
0
10
0
20
0
30
0
11
11.8790896519
21
4.49190706069
31
6.549823
0
LINE
8
0
10
0
20
0
30
0
11
12.099603462
21
2.21124310324
31
2.729093
0
LINE
8
0
10
0
20
0
30
0
11
13.1
21
2.05683780813e-06
31
6.549823
0
LINE
8
0
10
0
20
0
30
0
11
11.7460345841
21
3.64974951875
31
9.278916
0
LINE
8
0
10
0
20
0
30
0
11
12.7213718578
21
3.12677118682
31
8.733098
0
LINE
8
0
10
0
20
0
30
0
11
13.0049983642
21
1.57480714591
31
1e-06
0
LINE
8
0
10
0
20
0
30
0
11
11.4595459357
21
3.56073123781
31
6.004004
0
LINE
8
0
10
0
20
0
30
0
11
11.8044911825
21
2.15731034462
31
4.912368
0
LINE
8
0
10
0
20
0
30
0
11
12.3329327845
21
3.03129822565
31
3.274912
0
LINE
8
0
10
0
20
0
30
0
11
12.7964929615
21
3.97614988222
31
2.729094
0
LINE
8
0
10
0
20
0
30
0
11
12.2108001069
21
1.47863475854
31
2.183275
0
LINE
8
0
10
0
20
0
30
0
11
12.7213718578
21
3.12677118682
31
7.64146
0
LINE
8
0
10
0
20
0
30
0
11
11.8044913518
21
2.15730941791
31
3.820732
0
LINE
8
0
10
0
20
0
30
0
11
12.4930866807
21
2.28315246729
31
7.095642
0
LINE
8
0
10
0
20
0
30
0
11
12.676953824
21
0.764749465459
31
10.370553
0
LINE
8
0
10
0
20
0
30
0
11
13.4
21
2.10394096404e-06
31
8.733098
0
LINE
8
0
10
0
20
0
30
0
11
13.0049983642
21
1.57480714591
31
5.458186
0
LINE
8
0
10
0
20
0
30
0
11
13.1816820095
21
2.40899551667
31
9.278916
0
LINE
8
0
10
0
20
0
30
0
11
13.3939194476
21
0.403635764358
31
1.364547
0
LINE
8
0
10
0
20
0
30
0
11
12.2107999908
21
1.47863571715
31
7.64146
0
LINE
8
0
10
0
20
0
30
0
11
11.4595456561
21
3.56073213744
31
2.729093
0
LINE
8
0
10
0
20
0
30
0
11
12.4930866807
21
2.28315246729
31
6.004004
0
LINE
8
0
10
0
20
0
30
0
11
12.6942371785
21
0.382547324288
31
1.364547
0
LINE
8
0
10
0
20
0
30
0
11
11.8044913518
21
2.15730941791
31
6.004004
0
LINE
8
0
10
0
20
0
30
0
11
13.1
21
3.0852567122e-06
31
4.366549
0
LINE
8
0
10
0
20
0
30
0
11
12.2776796296
21
0.740663831984
31
2.729093
0
LINE
8
0
10
0
20
0
30
0
11
13.0049983642
21
1.57480714591
31
8.733098
0
LINE
8
0
10
0
20
0
30
0
11
11.4595459357
21
3.56073123781
31
2.729094
0
LINE
8
0
10
0
20
0
30
0
11
11.5049450959
21
4.35042967295
31
5.458186
0
LINE
8
0
10
0
20
0
30
0
11
12.0996036356
21
2.21124215336
31
6.004004
0
LINE
8
0
10
0
20
0
30
0
11
11.9129756008
21
1.44257143137
31
10.916372
0
LINE
8
0
10
0
20
0
30
0
11
12.2532338441
21
4.63338541037
31
4.366549
0
LINE
8
0
10
0
20
0
30
0
11
12.7
21
2.99105040038e-06
31
1.091637
0
LINE
8
0
10
0
20
0
30
0
11
11.9129756008
21
1.44257143137
31
4.36655
0
LINE
8
0
10
0
20
0
30
0
11
13.0127009843
21
3.19837663384
31
9.824735
0
LINE
8
0
10
0
20
0
30
0
11
12.8865697257
21
2.35506278122
31
8.187279
0
LINE
8
0
10
0
20
0
30
0
11
13.3756835623
21
0.806901010799
31
4.912367
0
LINE
8
0
10
0
20
0
30
0
11
12.8865697257
21
2.35506278122
31
4.912367
0
LINE
8
0
10
0
20
0
30
0
11
13.3756835623
21
0.806901010799
31
8.187279
0
LINE
8
0
10
0
20
0
30
0
11
12.3329327845
21
3.03129822565
31
5.458187
0
LINE
8
0
10
0
20
0
30
0
11
13.0127009843
21
3.19837663384
31
1.819397
0
LINE
8
0
10
0
20
0
30
0
11
11.9444941871
21
2.93582332808
31
1.819397
0
LINE
8
0
10
0
20
0
30
0
11
13.1816820095
21
2.40899551667
31
8.187279
0
LINE
8
0
10
0
20
0
30
0
11
11.9129754876
21
1.4425723666
31
5.458187
0
LINE
8
0
10
0
20
0
30
0
11
12.7213716124
21
3.12677218551
31
1.819396
0
LINE
8
0
10
0
20
0
30
0
11
12.3329330225
21
3.03129725745
31
8.733098
0
LINE
8
0
10
0
20
0
30
0
11
13.0049984878
21
1.57480612495
31
2.183275
0
LINE
8
0
10
0
20
0
30
0
11
11.224336679
21
4.24432163215
31
5.458186
0
LINE
8
0
10
0
20
0
30
0
11
11.6531650606
21
2.86421788105
31
5.458186
0
LINE
8
0
10
0
20
0
30
0
11
12.6214152479
21
3.50854344991
31
1.364548
0
LINE
8
0
10
0
20
0
30
0
11
11.4251837021
21
5.54573506159
31
1.364548
0
LINE
8
0
10
0
20
0
30
0
11
11.6531648358
21
2.86421879589
31
5.458187
0
LINE
8
0
10
0
20
0
30
0
11
11.9782240856
21
0.722597920118
31
6.004006
0
LINE
8
0
10
0
20
0
30
0
11
12.2532342079
21
4.63338444843
31
7.64146
0
LINE
8
0
10
0
20
0
30
0
11
11.0653353965
21
5.37106624076
31
1.364548
0
LINE
8
0
10
0
20
0
30
0
11
12.3
21
2.89684408855e-06
31
4.366549
0
LINE
8
0
10
0
20
0
30
0
11
12.2107998747
21
1.47863667577
31
3.274912
0
LINE
8
0
10
0
20
0
30
0
11
12.5100043131
21
3.88713160128
31
7.095642
0
LINE
8
0
10
0
20
0
30
0
11
12.2532342079
21
4.63338444843
31
9.824735
0
LINE
8
0
10
0
20
0
30
0
11
12.2532342079
21
4.63338444843
31
1e-06
0
LINE
8
0
10
0
20
0
30
0
11
11.9129756008
21
1.44257143137
31
8.733098
0
LINE
8
0
10
0
20
0
30
0
11
11.5049450959
21
4.35042967295
31
2.183276
0
LINE
8
0
10
0
20
0
30
0
11
11.9782240289
21
0.722598860472
31
2.729093
0
LINE
8
0
10
0
20
0
30
0
11
11.8790892993
21
4.49190799326
31
3.274912
0
LINE
8
0
10
0
20
0
30
0
11
12.5338426248
21
4.73949248923
31
1e-06
0
LINE
8
0
10
0
20
0
30
0
11
11.7341525624
21
2.51190438573
31
1.364547
0
LINE
8
0
10
0
20
0
30
0
11
12.1280194486
21
3.76844056002
31
9.278916
0
LINE
8
0
10
0
20
0
30
0
11
13.3028227542
21
1.6108714317
31
8.733098
0
LINE
8
0
10
0
20
0
30
0
11
12.5100043131
21
3.88713160128
31
8.187279
0
ENDSEC
0
EOF
