0
SECTION
2
HEADER
9
$ACADVER
1
AC1006
9
$INSBASE
10
0.0
20
0.0
30
0.0
9
$EXTMIN
10
0.0
20
0.0
9
$EXTMAX
10
0.0
20
0.0
0
ENDSEC
0
SECTION
2
TABLES
0
TABLE
2
LTYPE
70
1
0
LTYPE
2
CONTINUOUS
70
64
3
Solid line
72
65
73
0
40
0.0
0
ENDTAB
0
TABLE
2
LAYER
70
1
0
LAYER
2
PYDXF
70
64
62
7
6
continuous
0
ENDTAB
0
TABLE
2
STYLE
70
1
0
STYLE
2
STANDARD
70
0
40
0
41
40
50
50
71
0
42
1
3
ARIAL.TTF
4

0
ENDTAB
0
TABLE
2
VIEW
70
0
0
ENDTAB
0
ENDSEC
0
SECTION
2
BLOCKS
0
ENDSEC
0
SECTION
2
ENTITIES
0
LINE
8
Tendons 3 middle
10
23.11
20
0.79
30
54.04
11
23.07
21
1.58
31
53.49
0
LINE
8
Tendons 3 middle
10
23.0
20
2.36
30
54.04
11
23.07
21
1.58
31
54.58
0
LINE
8
Tendons 3 middle
10
23.11
20
0.79
30
55.13
11
23.07
21
1.58
31
54.58
0
LINE
8
Tendons 3 middle
10
23.0
20
2.36
30
55.13
11
23.07
21
1.58
31
55.67
0
LINE
8
Tendons 3 middle
10
23.11
20
0.79
30
56.22
11
23.07
21
1.58
31
55.67
0
LINE
8
Tendons 3 middle
10
23.12
20
0.39
30
57.58
11
23.07
21
1.58
31
56.77
0
LINE
8
Tendons 3 middle
10
23.78
20
0.0
30
53.49
11
23.76
21
-0.81
31
54.04
0
LINE
8
Tendons 3 middle
10
23.72
20
-1.62
30
53.49
11
23.65
21
-2.43
31
54.04
0
LINE
8
Tendons 3 middle
10
22.91
20
3.15
30
53.49
11
23.0
21
2.36
31
54.04
0
LINE
8
Tendons 3 middle
10
23.76
20
0.81
30
54.04
11
23.78
21
0.0
31
54.58
0
LINE
8
Tendons 3 middle
10
23.76
20
-0.81
30
54.04
11
23.72
21
-1.62
31
54.58
0
LINE
8
Tendons 3 middle
10
22.04
20
7.0
30
54.04
11
21.79
21
7.75
31
53.49
0
LINE
8
Tendons 3 middle
10
22.47
20
5.47
30
54.04
11
22.27
21
6.24
31
53.49
0
LINE
8
Tendons 3 middle
10
22.04
20
7.0
30
54.04
11
22.27
21
6.24
31
54.58
0
LINE
8
Tendons 3 middle
10
22.79
20
3.93
30
54.04
11
22.64
21
4.71
31
53.49
0
LINE
8
Tendons 3 middle
10
22.47
20
5.47
30
54.04
11
22.64
21
4.71
31
54.58
0
LINE
8
Tendons 3 middle
10
23.78
20
0.0
30
54.58
11
23.76
21
-0.81
31
55.13
0
LINE
8
Tendons 3 middle
10
21.79
20
7.75
30
54.58
11
22.04
21
7.0
31
55.13
0
LINE
8
Tendons 3 middle
10
22.91
20
3.15
30
54.58
11
22.79
21
3.93
31
54.04
0
LINE
8
Tendons 3 middle
10
22.91
20
3.15
30
54.58
11
23.0
21
2.36
31
55.13
0
LINE
8
Tendons 3 middle
10
23.65
20
-2.43
30
55.13
11
23.72
21
-1.62
31
54.58
0
LINE
8
Tendons 3 middle
10
22.47
20
5.47
30
55.13
11
22.27
21
6.24
31
54.58
0
LINE
8
Tendons 3 middle
10
22.79
20
3.93
30
55.13
11
22.64
21
4.71
31
54.58
0
LINE
8
Tendons 3 middle
10
22.79
20
3.93
30
55.13
11
22.91
21
3.15
31
55.67
0
LINE
8
Tendons 3 middle
10
23.78
20
0.0
30
55.67
11
23.76
21
0.81
31
55.13
0
LINE
8
Tendons 3 middle
10
23.72
20
-1.62
30
55.67
11
23.76
21
-0.81
31
55.13
0
LINE
8
Tendons 3 middle
10
23.78
20
0.0
30
55.67
11
23.76
21
-0.81
31
56.22
0
LINE
8
Tendons 3 middle
10
23.72
20
-1.62
30
55.67
11
23.65
21
-2.43
31
56.22
0
LINE
8
Tendons 3 middle
10
22.27
20
6.24
30
55.67
11
22.04
21
7.0
31
55.13
0
LINE
8
Tendons 3 middle
10
22.64
20
4.71
30
55.67
11
22.47
21
5.47
31
55.13
0
LINE
8
Tendons 3 middle
10
22.27
20
6.24
30
55.67
11
22.47
21
5.47
31
56.22
0
LINE
8
Tendons 3 middle
10
22.64
20
4.71
30
55.67
11
22.79
21
3.93
31
56.22
0
LINE
8
Tendons 3 middle
10
22.91
20
3.15
30
55.67
11
23.0
21
2.36
31
56.22
0
LINE
8
Tendons 3 middle
10
23.72
20
-1.62
30
58.95
11
23.77
21
-0.4
31
57.58
0
LINE
8
Tendons 3 middle
10
23.78
20
0.0
30
57.86
11
23.72
21
-1.62
31
58.95
0
LINE
8
Tendons 3 middle
10
23.78
20
0.0
30
57.86
11
23.77
21
0.4
31
57.58
0
LINE
8
Tendons 3 middle
10
23.77
20
-0.4
30
57.58
11
23.78
21
0.0
31
57.13
0
LINE
8
Tendons 3 middle
10
23.78
20
0.0
30
57.13
11
23.76
21
0.81
31
56.22
0
LINE
8
Tendons 3 middle
10
23.72
20
-1.62
30
56.77
11
23.76
21
-0.81
31
56.22
0
LINE
8
Tendons 3 middle
10
23.61
20
-2.84
30
57.58
11
23.72
21
-1.62
31
56.77
0
LINE
8
Tendons 3 middle
10
22.04
20
7.0
30
56.22
11
21.79
21
7.75
31
55.67
0
LINE
8
Tendons 3 middle
10
22.91
20
3.15
30
57.13
11
22.96
21
2.76
31
57.58
0
LINE
8
Tendons 3 middle
10
23.07
20
1.58
30
56.77
11
23.0
21
2.36
31
56.22
0
LINE
8
Tendons 3 middle
10
22.16
20
6.61
30
57.58
11
21.79
21
7.75
31
56.77
0
LINE
8
Tendons 3 middle
10
22.27
20
6.24
30
57.86
11
22.16
21
6.61
31
57.58
0
LINE
8
Tendons 3 middle
10
22.64
20
4.71
30
58.95
11
22.27
21
6.24
31
57.86
0
LINE
8
Tendons 3 middle
10
22.04
20
7.0
30
56.22
11
22.27
21
6.24
31
57.13
0
LINE
8
Tendons 3 middle
10
22.47
20
5.47
30
56.22
11
22.64
21
4.71
31
56.77
0
LINE
8
Tendons 3 middle
10
22.27
20
6.24
30
57.13
11
22.37
21
5.86
31
57.58
0
LINE
8
Tendons 3 middle
10
22.91
20
3.15
30
57.13
11
22.79
21
3.93
31
56.22
0
LINE
8
Tendons 3 middle
10
22.85
20
3.54
30
57.58
11
22.64
21
4.71
31
56.77
0
LINE
8
Tendons 3 middle
10
22.37
20
5.86
30
57.58
11
22.64
21
4.71
31
58.95
0
LINE
8
Tendons 3 middle
10
22.85
20
3.54
30
57.58
11
22.91
21
3.15
31
57.86
0
LINE
8
Tendons 3 middle
10
23.07
20
1.58
30
58.95
11
22.96
21
2.76
31
57.58
0
LINE
8
Tendons 3 middle
10
22.91
20
3.15
30
57.86
11
23.07
21
1.58
31
58.95
0
LINE
8
Tendons 2 external
10
23.32
20
1.6
30
54.58
11
23.36
21
0.8
31
54.04
0
LINE
8
Tendons 2 external
10
23.32
20
1.6
30
56.77
11
23.36
21
0.8
31
56.22
0
LINE
8
Tendons 2 external
10
23.32
20
1.6
30
56.77
11
23.21
21
2.79
31
57.58
0
LINE
8
Tendons 2 external
10
22.28
20
7.07
30
54.04
11
22.51
21
6.31
31
53.49
0
LINE
8
Tendons 2 external
10
24.28
20
0.0
30
53.49
11
24.26
21
0.83
31
54.04
0
LINE
8
Tendons 2 external
10
22.02
20
7.83
30
54.58
11
22.28
21
7.07
31
54.04
0
LINE
8
Tendons 2 external
10
23.16
20
3.18
30
53.49
11
23.04
21
3.97
31
54.04
0
LINE
8
Tendons 2 external
10
24.26
20
-0.83
30
55.13
11
24.22
21
-1.65
31
54.58
0
LINE
8
Tendons 2 external
10
24.15
20
-2.48
30
54.04
11
24.22
21
-1.65
31
54.58
0
LINE
8
Tendons 2 external
10
23.04
20
3.97
30
54.04
11
22.89
21
4.76
31
54.58
0
LINE
8
Tendons 2 external
10
23.25
20
2.39
30
55.13
11
23.32
21
1.6
31
54.58
0
LINE
8
Tendons 2 external
10
24.28
20
0.0
30
55.67
11
24.26
21
-0.83
31
55.13
0
LINE
8
Tendons 2 external
10
22.89
20
4.76
30
54.58
11
22.71
21
5.53
31
55.13
0
LINE
8
Tendons 2 external
10
23.16
20
3.18
30
55.67
11
23.25
21
2.39
31
55.13
0
LINE
8
Tendons 2 external
10
24.26
20
0.83
30
56.22
11
24.28
21
0.0
31
55.67
0
LINE
8
Tendons 2 external
10
22.71
20
5.53
30
55.13
11
22.51
21
6.31
31
55.67
0
LINE
8
Tendons 2 external
10
24.27
20
-0.41
30
57.58
11
24.28
21
0.0
31
57.86
0
LINE
8
Tendons 2 external
10
24.28
20
0.0
30
57.86
11
24.22
21
1.66
31
58.95
0
LINE
8
Tendons 2 external
10
24.27
20
-0.41
30
57.58
11
24.22
21
-1.65
31
56.77
0
LINE
8
Tendons 2 external
10
24.15
20
-2.48
30
56.22
11
24.22
21
-1.65
31
56.77
0
LINE
8
Tendons 2 external
10
24.05
20
-3.31
30
57.86
11
24.22
21
-1.65
31
58.95
0
LINE
8
Tendons 2 external
10
23.16
20
3.18
30
55.67
11
23.04
21
3.97
31
56.22
0
LINE
8
Tendons 2 external
10
22.02
20
7.83
30
56.77
11
22.28
21
7.07
31
56.22
0
LINE
8
Tendons 2 external
10
22.51
20
6.31
30
57.86
11
22.02
21
7.83
31
58.95
0
LINE
8
Tendons 2 external
10
22.51
20
6.31
30
57.86
11
22.61
21
5.93
31
57.58
0
LINE
8
Tendons 2 external
10
22.51
20
6.31
30
55.67
11
22.28
21
7.07
31
56.22
0
LINE
8
Tendons 2 external
10
22.89
20
4.76
30
56.77
11
23.04
21
3.97
31
56.22
0
LINE
8
Tendons 2 external
10
22.61
20
5.93
30
57.58
11
22.89
21
4.76
31
56.77
0
LINE
8
Tendons 2 external
10
23.16
20
3.18
30
57.86
11
23.21
21
2.79
31
57.58
0
LINE
8
Tendons 2 external
10
23.16
20
3.18
30
57.86
11
22.89
21
4.76
31
58.95
0
LINE
8
Tendons 1 internal
10
22.82
20
1.57
30
53.49
11
22.76
21
2.34
31
54.04
0
LINE
8
Tendons 1 internal
10
22.82
20
1.57
30
55.67
11
22.86
21
0.78
31
55.13
0
LINE
8
Tendons 1 internal
10
22.82
20
1.57
30
58.95
11
22.87
21
0.39
31
57.58
0
LINE
8
Tendons 1 internal
10
22.23
20
5.41
30
54.04
11
22.4
21
4.66
31
53.49
0
LINE
8
Tendons 1 internal
10
23.28
20
0.0
30
54.58
11
23.26
21
-0.8
31
54.04
0
LINE
8
Tendons 1 internal
10
23.22
20
-1.58
30
53.49
11
23.26
21
-0.8
31
54.04
0
LINE
8
Tendons 1 internal
10
22.03
20
6.17
30
54.58
11
22.23
21
5.41
31
54.04
0
LINE
8
Tendons 1 internal
10
22.66
20
3.11
30
54.58
11
22.76
21
2.34
31
54.04
0
LINE
8
Tendons 1 internal
10
23.28
20
0.0
30
54.58
11
23.26
21
0.8
31
55.13
0
LINE
8
Tendons 1 internal
10
23.22
20
-1.58
30
55.67
11
23.15
21
-2.38
31
55.13
0
LINE
8
Tendons 1 internal
10
22.03
20
6.17
30
54.58
11
21.8
21
6.92
31
55.13
0
LINE
8
Tendons 1 internal
10
22.66
20
3.11
30
54.58
11
22.54
21
3.89
31
55.13
0
LINE
8
Tendons 1 internal
10
21.8
20
6.92
30
55.13
11
21.55
21
7.67
31
55.67
0
LINE
8
Tendons 1 internal
10
22.23
20
5.41
30
56.22
11
22.4
21
4.66
31
55.67
0
LINE
8
Tendons 1 internal
10
22.54
20
3.89
30
55.13
11
22.4
21
4.66
31
55.67
0
LINE
8
Tendons 1 internal
10
22.76
20
2.34
30
56.22
11
22.82
21
1.57
31
55.67
0
LINE
8
Tendons 1 internal
10
23.28
20
0.0
30
57.13
11
23.27
21
0.39
31
57.58
0
LINE
8
Tendons 1 internal
10
23.28
20
0.0
30
57.13
11
23.26
21
-0.8
31
56.22
0
LINE
8
Tendons 1 internal
10
23.22
20
-1.58
30
55.67
11
23.26
21
-0.8
31
56.22
0
LINE
8
Tendons 1 internal
10
23.22
20
-1.58
30
58.95
11
23.11
21
-2.78
31
57.58
0
LINE
8
Tendons 1 internal
10
22.76
20
2.34
30
56.22
11
22.66
21
3.11
31
57.13
0
LINE
8
Tendons 1 internal
10
21.55
20
7.67
30
58.95
11
21.92
21
6.54
31
57.58
0
LINE
8
Tendons 1 internal
10
22.03
20
6.17
30
57.13
11
21.92
21
6.54
31
57.58
0
LINE
8
Tendons 1 internal
10
22.23
20
5.41
30
56.22
11
22.03
21
6.17
31
57.13
0
LINE
8
Tendons 1 internal
10
22.4
20
4.66
30
58.95
11
22.61
21
3.5
31
57.58
0
LINE
8
Tendons 1 internal
10
22.66
20
3.11
30
57.13
11
22.61
21
3.5
31
57.58
0
3DFACE
8
Concrete bases
10
22.42
20
1.54
30
58.95
11
22.32
21
2.68
31
57.58
12
22.27
22
3.06
32
57.86
13
22.27
23
3.06
33
57.86
0
3DFACE
8
Concrete bases
10
22.82
20
1.57
30
58.95
11
22.71
21
2.73
31
57.58
12
22.66
22
3.11
32
57.86
13
22.66
23
3.11
33
57.86
0
3DFACE
8
Concrete bases
10
22.82
20
1.57
30
58.95
11
22.71
21
2.73
31
57.58
12
22.66
22
3.11
32
57.86
13
22.66
23
3.11
33
57.86
0
3DFACE
8
Concrete bases
10
23.07
20
1.58
30
58.95
11
22.96
21
2.76
31
57.58
12
22.91
22
3.15
32
57.86
13
22.91
23
3.15
33
57.86
0
3DFACE
8
Concrete bases
10
23.07
20
1.58
30
58.95
11
22.96
21
2.76
31
57.58
12
22.91
22
3.15
32
57.86
13
22.91
23
3.15
33
57.86
0
3DFACE
8
Concrete bases
10
23.32
20
1.6
30
58.95
11
23.21
21
2.79
31
57.58
12
23.16
22
3.18
32
57.86
13
23.16
23
3.18
33
57.86
0
3DFACE
8
Concrete bases
10
23.32
20
1.6
30
58.95
11
23.21
21
2.79
31
57.58
12
23.16
22
3.18
32
57.86
13
23.16
23
3.18
33
57.86
0
3DFACE
8
Concrete bases
10
23.62
20
1.62
30
58.95
11
23.51
21
2.83
31
57.58
12
23.46
22
3.22
32
57.86
13
23.46
23
3.22
33
57.86
0
3DFACE
8
Concrete bases
10
22.0
20
4.58
30
58.95
11
22.42
21
1.54
31
58.95
12
22.27
22
3.06
32
57.86
13
22.27
23
3.06
33
57.86
0
3DFACE
8
Concrete bases
10
22.4
20
4.66
30
58.95
11
22.82
21
1.57
31
58.95
12
22.66
22
3.11
32
57.86
13
22.66
23
3.11
33
57.86
0
3DFACE
8
Concrete bases
10
22.4
20
4.66
30
58.95
11
22.82
21
1.57
31
58.95
12
22.66
22
3.11
32
57.86
13
22.66
23
3.11
33
57.86
0
3DFACE
8
Concrete bases
10
22.64
20
4.71
30
58.95
11
23.07
21
1.58
31
58.95
12
22.91
22
3.15
32
57.86
13
22.91
23
3.15
33
57.86
0
3DFACE
8
Concrete bases
10
22.64
20
4.71
30
58.95
11
23.07
21
1.58
31
58.95
12
22.91
22
3.15
32
57.86
13
22.91
23
3.15
33
57.86
0
3DFACE
8
Concrete bases
10
22.89
20
4.76
30
58.95
11
23.32
21
1.6
31
58.95
12
23.16
22
3.18
32
57.86
13
23.16
23
3.18
33
57.86
0
3DFACE
8
Concrete bases
10
22.89
20
4.76
30
58.95
11
23.32
21
1.6
31
58.95
12
23.16
22
3.18
32
57.86
13
23.16
23
3.18
33
57.86
0
3DFACE
8
Concrete bases
10
23.18
20
4.82
30
58.95
11
23.62
21
1.62
31
58.95
12
23.46
22
3.22
32
57.86
13
23.46
23
3.22
33
57.86
0
3DFACE
8
Concrete bases
10
22.0
20
4.58
30
58.95
11
22.27
21
3.06
31
57.86
12
22.21
22
3.44
32
57.58
13
22.21
23
3.44
33
57.58
0
3DFACE
8
Concrete bases
10
22.4
20
4.66
30
58.95
11
22.66
21
3.11
31
57.86
12
22.61
22
3.5
32
57.58
13
22.61
23
3.5
33
57.58
0
3DFACE
8
Concrete bases
10
22.4
20
4.66
30
58.95
11
22.66
21
3.11
31
57.86
12
22.61
22
3.5
32
57.58
13
22.61
23
3.5
33
57.58
0
3DFACE
8
Concrete bases
10
22.64
20
4.71
30
58.95
11
22.91
21
3.15
31
57.86
12
22.85
22
3.54
32
57.58
13
22.85
23
3.54
33
57.58
0
3DFACE
8
Concrete bases
10
22.64
20
4.71
30
58.95
11
22.91
21
3.15
31
57.86
12
22.85
22
3.54
32
57.58
13
22.85
23
3.54
33
57.58
0
3DFACE
8
Concrete bases
10
22.89
20
4.76
30
58.95
11
23.16
21
3.18
31
57.86
12
23.1
22
3.57
32
57.58
13
23.1
23
3.57
33
57.58
0
3DFACE
8
Concrete bases
10
22.89
20
4.76
30
58.95
11
23.16
21
3.18
31
57.86
12
23.1
22
3.57
32
57.58
13
23.1
23
3.57
33
57.58
0
3DFACE
8
Concrete bases
10
23.18
20
4.82
30
58.95
11
23.46
21
3.22
31
57.86
12
23.4
22
3.62
32
57.58
13
23.4
23
3.62
33
57.58
0
3DFACE
8
Concrete bases
10
22.21
20
3.44
30
57.58
11
22.27
21
3.06
31
57.86
12
22.32
22
2.68
32
57.58
13
22.27
23
3.06
33
57.13
0
3DFACE
8
Concrete bases
10
22.61
20
3.5
30
57.58
11
22.66
21
3.11
31
57.86
12
22.71
22
2.73
32
57.58
13
22.66
23
3.11
33
57.13
0
3DFACE
8
Concrete bases
10
22.61
20
3.5
30
57.58
11
22.66
21
3.11
31
57.86
12
22.71
22
2.73
32
57.58
13
22.66
23
3.11
33
57.13
0
3DFACE
8
Concrete bases
10
22.85
20
3.54
30
57.58
11
22.91
21
3.15
31
57.86
12
22.96
22
2.76
32
57.58
13
22.91
23
3.15
33
57.13
0
3DFACE
8
Concrete bases
10
22.85
20
3.54
30
57.58
11
22.91
21
3.15
31
57.86
12
22.96
22
2.76
32
57.58
13
22.91
23
3.15
33
57.13
0
3DFACE
8
Concrete bases
10
23.1
20
3.57
30
57.58
11
23.16
21
3.18
31
57.86
12
23.21
22
2.79
32
57.58
13
23.16
23
3.18
33
57.13
0
3DFACE
8
Concrete bases
10
23.1
20
3.57
30
57.58
11
23.16
21
3.18
31
57.86
12
23.21
22
2.79
32
57.58
13
23.16
23
3.18
33
57.13
0
3DFACE
8
Concrete bases
10
23.4
20
3.62
30
57.58
11
23.46
21
3.22
31
57.86
12
23.51
22
2.83
32
57.58
13
23.46
23
3.22
33
57.13
0
3DFACE
8
Concrete bases
10
22.0
20
4.58
30
58.95
11
22.21
21
3.44
31
57.58
12
22.0
22
4.58
32
56.77
13
21.74
23
5.7
33
57.58
0
3DFACE
8
Concrete bases
10
22.4
20
4.66
30
58.95
11
22.61
21
3.5
31
57.58
12
22.4
22
4.66
32
56.77
13
22.13
23
5.8
33
57.58
0
3DFACE
8
Concrete bases
10
22.4
20
4.66
30
58.95
11
22.61
21
3.5
31
57.58
12
22.4
22
4.66
32
56.77
13
22.13
23
5.8
33
57.58
0
3DFACE
8
Concrete bases
10
22.64
20
4.71
30
58.95
11
22.85
21
3.54
31
57.58
12
22.64
22
4.71
32
56.77
13
22.37
23
5.86
33
57.58
0
3DFACE
8
Concrete bases
10
22.64
20
4.71
30
58.95
11
22.85
21
3.54
31
57.58
12
22.64
22
4.71
32
56.77
13
22.37
23
5.86
33
57.58
0
3DFACE
8
Concrete bases
10
22.89
20
4.76
30
58.95
11
23.1
21
3.57
31
57.58
12
22.89
22
4.76
32
56.77
13
22.61
23
5.93
33
57.58
0
3DFACE
8
Concrete bases
10
22.89
20
4.76
30
58.95
11
23.1
21
3.57
31
57.58
12
22.89
22
4.76
32
56.77
13
22.61
23
5.93
33
57.58
0
3DFACE
8
Concrete bases
10
23.18
20
4.82
30
58.95
11
23.4
21
3.62
31
57.58
12
23.18
22
4.82
32
56.77
13
22.9
23
6.0
33
57.58
0
3DFACE
8
Concrete bases
10
22.21
20
3.44
30
57.58
11
22.27
21
3.06
31
57.13
12
22.15
22
3.82
32
56.22
13
22.0
23
4.58
33
56.77
0
3DFACE
8
Concrete bases
10
22.61
20
3.5
30
57.58
11
22.66
21
3.11
31
57.13
12
22.54
22
3.89
32
56.22
13
22.4
23
4.66
33
56.77
0
3DFACE
8
Concrete bases
10
22.61
20
3.5
30
57.58
11
22.66
21
3.11
31
57.13
12
22.54
22
3.89
32
56.22
13
22.4
23
4.66
33
56.77
0
3DFACE
8
Concrete bases
10
22.85
20
3.54
30
57.58
11
22.91
21
3.15
31
57.13
12
22.79
22
3.93
32
56.22
13
22.64
23
4.71
33
56.77
0
3DFACE
8
Concrete bases
10
22.85
20
3.54
30
57.58
11
22.91
21
3.15
31
57.13
12
22.79
22
3.93
32
56.22
13
22.64
23
4.71
33
56.77
0
3DFACE
8
Concrete bases
10
23.1
20
3.57
30
57.58
11
23.16
21
3.18
31
57.13
12
23.04
22
3.97
32
56.22
13
22.89
23
4.76
33
56.77
0
3DFACE
8
Concrete bases
10
23.1
20
3.57
30
57.58
11
23.16
21
3.18
31
57.13
12
23.04
22
3.97
32
56.22
13
22.89
23
4.76
33
56.77
0
3DFACE
8
Concrete bases
10
23.4
20
3.62
30
57.58
11
23.46
21
3.22
31
57.13
12
23.33
22
4.03
32
56.22
13
23.18
23
4.82
33
56.77
0
3DFACE
8
Concrete bases
10
21.64
20
6.06
30
57.13
11
21.74
21
5.7
31
57.58
12
22.0
22
4.58
32
56.77
13
21.84
23
5.32
33
56.22
0
3DFACE
8
Concrete bases
10
22.03
20
6.17
30
57.13
11
22.13
21
5.8
31
57.58
12
22.4
22
4.66
32
56.77
13
22.23
23
5.41
33
56.22
0
3DFACE
8
Concrete bases
10
22.03
20
6.17
30
57.13
11
22.13
21
5.8
31
57.58
12
22.4
22
4.66
32
56.77
13
22.23
23
5.41
33
56.22
0
3DFACE
8
Concrete bases
10
22.27
20
6.24
30
57.13
11
22.37
21
5.86
31
57.58
12
22.64
22
4.71
32
56.77
13
22.47
23
5.47
33
56.22
0
3DFACE
8
Concrete bases
10
22.27
20
6.24
30
57.13
11
22.37
21
5.86
31
57.58
12
22.64
22
4.71
32
56.77
13
22.47
23
5.47
33
56.22
0
3DFACE
8
Concrete bases
10
22.51
20
6.31
30
57.13
11
22.61
21
5.93
31
57.58
12
22.89
22
4.76
32
56.77
13
22.71
23
5.53
33
56.22
0
3DFACE
8
Concrete bases
10
22.51
20
6.31
30
57.13
11
22.61
21
5.93
31
57.58
12
22.89
22
4.76
32
56.77
13
22.71
23
5.53
33
56.22
0
3DFACE
8
Concrete bases
10
22.8
20
6.39
30
57.13
11
22.9
21
6.0
31
57.58
12
23.18
22
4.82
32
56.77
13
23.0
23
5.6
33
56.22
0
3DFACE
8
Concrete bases
10
22.0
20
4.58
30
56.77
11
22.15
21
3.82
31
56.22
12
22.0
22
4.58
32
55.67
13
21.84
23
5.32
33
56.22
0
3DFACE
8
Concrete bases
10
22.4
20
4.66
30
56.77
11
22.54
21
3.89
31
56.22
12
22.4
22
4.66
32
55.67
13
22.23
23
5.41
33
56.22
0
3DFACE
8
Concrete bases
10
22.4
20
4.66
30
56.77
11
22.54
21
3.89
31
56.22
12
22.4
22
4.66
32
55.67
13
22.23
23
5.41
33
56.22
0
3DFACE
8
Concrete bases
10
22.64
20
4.71
30
56.77
11
22.79
21
3.93
31
56.22
12
22.64
22
4.71
32
55.67
13
22.47
23
5.47
33
56.22
0
3DFACE
8
Concrete bases
10
22.64
20
4.71
30
56.77
11
22.79
21
3.93
31
56.22
12
22.64
22
4.71
32
55.67
13
22.47
23
5.47
33
56.22
0
3DFACE
8
Concrete bases
10
22.89
20
4.76
30
56.77
11
23.04
21
3.97
31
56.22
12
22.89
22
4.76
32
55.67
13
22.71
23
5.53
33
56.22
0
3DFACE
8
Concrete bases
10
22.89
20
4.76
30
56.77
11
23.04
21
3.97
31
56.22
12
22.89
22
4.76
32
55.67
13
22.71
23
5.53
33
56.22
0
3DFACE
8
Concrete bases
10
23.18
20
4.82
30
56.77
11
23.33
21
4.03
31
56.22
12
23.18
22
4.82
32
55.67
13
23.0
23
5.6
33
56.22
0
3DFACE
8
Concrete bases
10
21.42
20
6.8
30
56.22
11
21.64
21
6.06
31
57.13
12
21.84
22
5.32
32
56.22
13
21.64
23
6.06
33
55.67
0
3DFACE
8
Concrete bases
10
21.8
20
6.92
30
56.22
11
22.03
21
6.17
31
57.13
12
22.23
22
5.41
32
56.22
13
22.03
23
6.17
33
55.67
0
3DFACE
8
Concrete bases
10
21.8
20
6.92
30
56.22
11
22.03
21
6.17
31
57.13
12
22.23
22
5.41
32
56.22
13
22.03
23
6.17
33
55.67
0
3DFACE
8
Concrete bases
10
22.04
20
7.0
30
56.22
11
22.27
21
6.24
31
57.13
12
22.47
22
5.47
32
56.22
13
22.27
23
6.24
33
55.67
0
3DFACE
8
Concrete bases
10
22.04
20
7.0
30
56.22
11
22.27
21
6.24
31
57.13
12
22.47
22
5.47
32
56.22
13
22.27
23
6.24
33
55.67
0
3DFACE
8
Concrete bases
10
22.28
20
7.07
30
56.22
11
22.51
21
6.31
31
57.13
12
22.71
22
5.53
32
56.22
13
22.51
23
6.31
33
55.67
0
3DFACE
8
Concrete bases
10
22.28
20
7.07
30
56.22
11
22.51
21
6.31
31
57.13
12
22.71
22
5.53
32
56.22
13
22.51
23
6.31
33
55.67
0
3DFACE
8
Concrete bases
10
22.57
20
7.16
30
56.22
11
22.8
21
6.39
31
57.13
12
23.0
22
5.6
32
56.22
13
22.8
23
6.39
33
55.67
0
3DFACE
8
Concrete bases
10
21.18
20
7.53
30
56.77
11
21.54
21
6.43
31
57.58
12
21.64
22
6.06
32
57.13
13
21.42
23
6.8
33
56.22
0
3DFACE
8
Concrete bases
10
21.55
20
7.67
30
56.77
11
21.92
21
6.54
31
57.58
12
22.03
22
6.17
32
57.13
13
21.8
23
6.92
33
56.22
0
3DFACE
8
Concrete bases
10
21.55
20
7.67
30
56.77
11
21.92
21
6.54
31
57.58
12
22.03
22
6.17
32
57.13
13
21.8
23
6.92
33
56.22
0
3DFACE
8
Concrete bases
10
21.79
20
7.75
30
56.77
11
22.16
21
6.61
31
57.58
12
22.27
22
6.24
32
57.13
13
22.04
23
7.0
33
56.22
0
3DFACE
8
Concrete bases
10
21.79
20
7.75
30
56.77
11
22.16
21
6.61
31
57.58
12
22.27
22
6.24
32
57.13
13
22.04
23
7.0
33
56.22
0
3DFACE
8
Concrete bases
10
22.02
20
7.83
30
56.77
11
22.4
21
6.69
31
57.58
12
22.51
22
6.31
32
57.13
13
22.28
23
7.07
33
56.22
0
3DFACE
8
Concrete bases
10
22.02
20
7.83
30
56.77
11
22.4
21
6.69
31
57.58
12
22.51
22
6.31
32
57.13
13
22.28
23
7.07
33
56.22
0
3DFACE
8
Concrete bases
10
22.31
20
7.93
30
56.77
11
22.69
21
6.77
31
57.58
12
22.8
22
6.39
32
57.13
13
22.57
23
7.16
33
56.22
0
3DFACE
8
Concrete bases
10
21.54
20
6.43
30
57.58
11
21.64
21
6.06
31
57.86
12
21.74
22
5.7
32
57.58
13
21.64
23
6.06
33
57.13
0
3DFACE
8
Concrete bases
10
21.92
20
6.54
30
57.58
11
22.03
21
6.17
31
57.86
12
22.13
22
5.8
32
57.58
13
22.03
23
6.17
33
57.13
0
3DFACE
8
Concrete bases
10
21.92
20
6.54
30
57.58
11
22.03
21
6.17
31
57.86
12
22.13
22
5.8
32
57.58
13
22.03
23
6.17
33
57.13
0
3DFACE
8
Concrete bases
10
22.16
20
6.61
30
57.58
11
22.27
21
6.24
31
57.86
12
22.37
22
5.86
32
57.58
13
22.27
23
6.24
33
57.13
0
3DFACE
8
Concrete bases
10
22.16
20
6.61
30
57.58
11
22.27
21
6.24
31
57.86
12
22.37
22
5.86
32
57.58
13
22.27
23
6.24
33
57.13
0
3DFACE
8
Concrete bases
10
22.4
20
6.69
30
57.58
11
22.51
21
6.31
31
57.86
12
22.61
22
5.93
32
57.58
13
22.51
23
6.31
33
57.13
0
3DFACE
8
Concrete bases
10
22.4
20
6.69
30
57.58
11
22.51
21
6.31
31
57.86
12
22.61
22
5.93
32
57.58
13
22.51
23
6.31
33
57.13
0
3DFACE
8
Concrete bases
10
22.69
20
6.77
30
57.58
11
22.8
21
6.39
31
57.86
12
22.9
22
6.0
32
57.58
13
22.8
23
6.39
33
57.13
0
3DFACE
8
Concrete bases
10
21.18
20
7.53
30
58.95
11
22.0
21
4.58
31
58.95
12
21.64
22
6.06
32
57.86
13
21.64
23
6.06
33
57.86
0
3DFACE
8
Concrete bases
10
21.55
20
7.67
30
58.95
11
22.4
21
4.66
31
58.95
12
22.03
22
6.17
32
57.86
13
22.03
23
6.17
33
57.86
0
3DFACE
8
Concrete bases
10
21.55
20
7.67
30
58.95
11
22.4
21
4.66
31
58.95
12
22.03
22
6.17
32
57.86
13
22.03
23
6.17
33
57.86
0
3DFACE
8
Concrete bases
10
21.79
20
7.75
30
58.95
11
22.64
21
4.71
31
58.95
12
22.27
22
6.24
32
57.86
13
22.27
23
6.24
33
57.86
0
3DFACE
8
Concrete bases
10
21.79
20
7.75
30
58.95
11
22.64
21
4.71
31
58.95
12
22.27
22
6.24
32
57.86
13
22.27
23
6.24
33
57.86
0
3DFACE
8
Concrete bases
10
22.02
20
7.83
30
58.95
11
22.89
21
4.76
31
58.95
12
22.51
22
6.31
32
57.86
13
22.51
23
6.31
33
57.86
0
3DFACE
8
Concrete bases
10
22.02
20
7.83
30
58.95
11
22.89
21
4.76
31
58.95
12
22.51
22
6.31
32
57.86
13
22.51
23
6.31
33
57.86
0
3DFACE
8
Concrete bases
10
22.31
20
7.93
30
58.95
11
23.18
21
4.82
31
58.95
12
22.8
22
6.39
32
57.86
13
22.8
23
6.39
33
57.86
0
3DFACE
8
Concrete bases
10
21.18
20
7.53
30
58.95
11
21.64
21
6.06
31
57.86
12
21.54
22
6.43
32
57.58
13
21.54
23
6.43
33
57.58
0
3DFACE
8
Concrete bases
10
21.55
20
7.67
30
58.95
11
22.03
21
6.17
31
57.86
12
21.92
22
6.54
32
57.58
13
21.92
23
6.54
33
57.58
0
3DFACE
8
Concrete bases
10
21.55
20
7.67
30
58.95
11
22.03
21
6.17
31
57.86
12
21.92
22
6.54
32
57.58
13
21.92
23
6.54
33
57.58
0
3DFACE
8
Concrete bases
10
21.79
20
7.75
30
58.95
11
22.27
21
6.24
31
57.86
12
22.16
22
6.61
32
57.58
13
22.16
23
6.61
33
57.58
0
3DFACE
8
Concrete bases
10
21.79
20
7.75
30
58.95
11
22.27
21
6.24
31
57.86
12
22.16
22
6.61
32
57.58
13
22.16
23
6.61
33
57.58
0
3DFACE
8
Concrete bases
10
22.02
20
7.83
30
58.95
11
22.51
21
6.31
31
57.86
12
22.4
22
6.69
32
57.58
13
22.4
23
6.69
33
57.58
0
3DFACE
8
Concrete bases
10
22.02
20
7.83
30
58.95
11
22.51
21
6.31
31
57.86
12
22.4
22
6.69
32
57.58
13
22.4
23
6.69
33
57.58
0
3DFACE
8
Concrete bases
10
22.31
20
7.93
30
58.95
11
22.8
21
6.39
31
57.86
12
22.69
22
6.77
32
57.58
13
22.69
23
6.77
33
57.58
0
3DFACE
8
Concrete bases
10
21.18
20
7.53
30
58.95
11
21.54
21
6.43
31
57.58
12
21.18
22
7.53
32
56.77
13
20.76
23
8.6
33
57.58
0
3DFACE
8
Concrete bases
10
21.55
20
7.67
30
58.95
11
21.92
21
6.54
31
57.58
12
21.55
22
7.67
32
56.77
13
21.13
23
8.76
33
57.58
0
3DFACE
8
Concrete bases
10
21.55
20
7.67
30
58.95
11
21.92
21
6.54
31
57.58
12
21.55
22
7.67
32
56.77
13
21.13
23
8.76
33
57.58
0
3DFACE
8
Concrete bases
10
21.79
20
7.75
30
58.95
11
22.16
21
6.61
31
57.58
12
21.79
22
7.75
32
56.77
13
21.36
23
8.85
33
57.58
0
3DFACE
8
Concrete bases
10
21.79
20
7.75
30
58.95
11
22.16
21
6.61
31
57.58
12
21.79
22
7.75
32
56.77
13
21.36
23
8.85
33
57.58
0
3DFACE
8
Concrete bases
10
22.02
20
7.83
30
58.95
11
22.4
21
6.69
31
57.58
12
22.02
22
7.83
32
56.77
13
21.59
23
8.95
33
57.58
0
3DFACE
8
Concrete bases
10
22.02
20
7.83
30
58.95
11
22.4
21
6.69
31
57.58
12
22.02
22
7.83
32
56.77
13
21.59
23
8.95
33
57.58
0
3DFACE
8
Concrete bases
10
22.31
20
7.93
30
58.95
11
22.69
21
6.77
31
57.58
12
22.31
22
7.93
32
56.77
13
21.87
23
9.06
33
57.58
0
3DFACE
8
Concrete bases
10
22.0
20
4.58
30
58.95
11
21.74
21
5.7
31
57.58
12
21.64
22
6.06
32
57.86
13
21.64
23
6.06
33
57.86
0
3DFACE
8
Concrete bases
10
22.4
20
4.66
30
58.95
11
22.13
21
5.8
31
57.58
12
22.03
22
6.17
32
57.86
13
22.03
23
6.17
33
57.86
0
3DFACE
8
Concrete bases
10
22.4
20
4.66
30
58.95
11
22.13
21
5.8
31
57.58
12
22.03
22
6.17
32
57.86
13
22.03
23
6.17
33
57.86
0
3DFACE
8
Concrete bases
10
22.64
20
4.71
30
58.95
11
22.37
21
5.86
31
57.58
12
22.27
22
6.24
32
57.86
13
22.27
23
6.24
33
57.86
0
3DFACE
8
Concrete bases
10
22.64
20
4.71
30
58.95
11
22.37
21
5.86
31
57.58
12
22.27
22
6.24
32
57.86
13
22.27
23
6.24
33
57.86
0
3DFACE
8
Concrete bases
10
22.89
20
4.76
30
58.95
11
22.61
21
5.93
31
57.58
12
22.51
22
6.31
32
57.86
13
22.51
23
6.31
33
57.86
0
3DFACE
8
Concrete bases
10
22.89
20
4.76
30
58.95
11
22.61
21
5.93
31
57.58
12
22.51
22
6.31
32
57.86
13
22.51
23
6.31
33
57.86
0
3DFACE
8
Concrete bases
10
23.18
20
4.82
30
58.95
11
22.9
21
6.0
31
57.58
12
22.8
22
6.39
32
57.86
13
22.8
23
6.39
33
57.86
0
3DFACE
8
Concrete bases
10
22.27
20
3.06
30
57.13
11
22.32
21
2.68
31
57.58
12
22.42
22
1.54
32
56.77
13
22.36
23
2.3
33
56.22
0
3DFACE
8
Concrete bases
10
22.66
20
3.11
30
57.13
11
22.71
21
2.73
31
57.58
12
22.82
22
1.57
32
56.77
13
22.76
23
2.34
33
56.22
0
3DFACE
8
Concrete bases
10
22.66
20
3.11
30
57.13
11
22.71
21
2.73
31
57.58
12
22.82
22
1.57
32
56.77
13
22.76
23
2.34
33
56.22
0
3DFACE
8
Concrete bases
10
22.91
20
3.15
30
57.13
11
22.96
21
2.76
31
57.58
12
23.07
22
1.58
32
56.77
13
23.0
23
2.36
33
56.22
0
3DFACE
8
Concrete bases
10
22.91
20
3.15
30
57.13
11
22.96
21
2.76
31
57.58
12
23.07
22
1.58
32
56.77
13
23.0
23
2.36
33
56.22
0
3DFACE
8
Concrete bases
10
23.16
20
3.18
30
57.13
11
23.21
21
2.79
31
57.58
12
23.32
22
1.6
32
56.77
13
23.25
23
2.39
33
56.22
0
3DFACE
8
Concrete bases
10
23.16
20
3.18
30
57.13
11
23.21
21
2.79
31
57.58
12
23.32
22
1.6
32
56.77
13
23.25
23
2.39
33
56.22
0
3DFACE
8
Concrete bases
10
23.46
20
3.22
30
57.13
11
23.51
21
2.83
31
57.58
12
23.62
22
1.62
32
56.77
13
23.55
23
2.42
33
56.22
0
3DFACE
8
Concrete bases
10
21.18
20
7.53
30
56.77
11
21.42
21
6.8
31
56.22
12
21.18
22
7.53
32
55.67
13
20.91
23
8.24
33
56.22
0
3DFACE
8
Concrete bases
10
21.55
20
7.67
30
56.77
11
21.8
21
6.92
31
56.22
12
21.55
22
7.67
32
55.67
13
21.28
23
8.39
33
56.22
0
3DFACE
8
Concrete bases
10
21.55
20
7.67
30
56.77
11
21.8
21
6.92
31
56.22
12
21.55
22
7.67
32
55.67
13
21.28
23
8.39
33
56.22
0
3DFACE
8
Concrete bases
10
21.79
20
7.75
30
56.77
11
22.04
21
7.0
31
56.22
12
21.79
22
7.75
32
55.67
13
21.51
23
8.48
33
56.22
0
3DFACE
8
Concrete bases
10
21.79
20
7.75
30
56.77
11
22.04
21
7.0
31
56.22
12
21.79
22
7.75
32
55.67
13
21.51
23
8.48
33
56.22
0
3DFACE
8
Concrete bases
10
22.02
20
7.83
30
56.77
11
22.28
21
7.07
31
56.22
12
22.02
22
7.83
32
55.67
13
21.75
23
8.57
33
56.22
0
3DFACE
8
Concrete bases
10
22.02
20
7.83
30
56.77
11
22.28
21
7.07
31
56.22
12
22.02
22
7.83
32
55.67
13
21.75
23
8.57
33
56.22
0
3DFACE
8
Concrete bases
10
22.31
20
7.93
30
56.77
11
22.57
21
7.16
31
56.22
12
22.31
22
7.93
32
55.67
13
22.03
23
8.68
33
56.22
0
3DFACE
8
Concrete bases
10
22.15
20
3.82
30
56.22
11
22.27
21
3.06
31
57.13
12
22.36
22
2.3
32
56.22
13
22.27
23
3.06
33
55.67
0
3DFACE
8
Concrete bases
10
22.54
20
3.89
30
56.22
11
22.66
21
3.11
31
57.13
12
22.76
22
2.34
32
56.22
13
22.66
23
3.11
33
55.67
0
3DFACE
8
Concrete bases
10
22.54
20
3.89
30
56.22
11
22.66
21
3.11
31
57.13
12
22.76
22
2.34
32
56.22
13
22.66
23
3.11
33
55.67
0
3DFACE
8
Concrete bases
10
22.79
20
3.93
30
56.22
11
22.91
21
3.15
31
57.13
12
23.0
22
2.36
32
56.22
13
22.91
23
3.15
33
55.67
0
3DFACE
8
Concrete bases
10
22.79
20
3.93
30
56.22
11
22.91
21
3.15
31
57.13
12
23.0
22
2.36
32
56.22
13
22.91
23
3.15
33
55.67
0
3DFACE
8
Concrete bases
10
23.04
20
3.97
30
56.22
11
23.16
21
3.18
31
57.13
12
23.25
22
2.39
32
56.22
13
23.16
23
3.18
33
55.67
0
3DFACE
8
Concrete bases
10
23.04
20
3.97
30
56.22
11
23.16
21
3.18
31
57.13
12
23.25
22
2.39
32
56.22
13
23.16
23
3.18
33
55.67
0
3DFACE
8
Concrete bases
10
23.33
20
4.03
30
56.22
11
23.46
21
3.22
31
57.13
12
23.55
22
2.42
32
56.22
13
23.46
23
3.22
33
55.67
0
3DFACE
8
Concrete bases
10
22.42
20
-1.53
30
58.95
11
22.01
21
-4.57
31
58.95
12
22.27
22
-3.06
32
57.86
13
22.27
23
-3.06
33
57.86
0
3DFACE
8
Concrete bases
10
22.82
20
-1.56
30
58.95
11
22.4
21
-4.65
31
58.95
12
22.66
22
-3.11
32
57.86
13
22.66
23
-3.11
33
57.86
0
3DFACE
8
Concrete bases
10
22.82
20
-1.56
30
58.95
11
22.4
21
-4.65
31
58.95
12
22.66
22
-3.11
32
57.86
13
22.66
23
-3.11
33
57.86
0
3DFACE
8
Concrete bases
10
23.07
20
-1.57
30
58.95
11
22.64
21
-4.7
31
58.95
12
22.91
22
-3.15
32
57.86
13
22.91
23
-3.15
33
57.86
0
3DFACE
8
Concrete bases
10
23.07
20
-1.57
30
58.95
11
22.64
21
-4.7
31
58.95
12
22.91
22
-3.15
32
57.86
13
22.91
23
-3.15
33
57.86
0
3DFACE
8
Concrete bases
10
23.32
20
-1.59
30
58.95
11
22.89
21
-4.75
31
58.95
12
23.16
22
-3.18
32
57.86
13
23.16
23
-3.18
33
57.86
0
3DFACE
8
Concrete bases
10
23.32
20
-1.59
30
58.95
11
22.89
21
-4.75
31
58.95
12
23.16
22
-3.18
32
57.86
13
23.16
23
-3.18
33
57.86
0
3DFACE
8
Concrete bases
10
23.62
20
-1.61
30
58.95
11
23.18
21
-4.81
31
58.95
12
23.46
22
-3.22
32
57.86
13
23.46
23
-3.22
33
57.86
0
3DFACE
8
Concrete bases
10
22.42
20
-1.53
30
58.95
11
22.27
21
-3.06
31
57.86
12
22.32
22
-2.68
32
57.58
13
22.32
23
-2.68
33
57.58
0
3DFACE
8
Concrete bases
10
22.82
20
-1.56
30
58.95
11
22.66
21
-3.11
31
57.86
12
22.71
22
-2.73
32
57.58
13
22.71
23
-2.73
33
57.58
0
3DFACE
8
Concrete bases
10
22.82
20
-1.56
30
58.95
11
22.66
21
-3.11
31
57.86
12
22.71
22
-2.73
32
57.58
13
22.71
23
-2.73
33
57.58
0
3DFACE
8
Concrete bases
10
23.07
20
-1.57
30
58.95
11
22.91
21
-3.15
31
57.86
12
22.96
22
-2.76
32
57.58
13
22.96
23
-2.76
33
57.58
0
3DFACE
8
Concrete bases
10
23.07
20
-1.57
30
58.95
11
22.91
21
-3.15
31
57.86
12
22.96
22
-2.76
32
57.58
13
22.96
23
-2.76
33
57.58
0
3DFACE
8
Concrete bases
10
23.32
20
-1.59
30
58.95
11
23.16
21
-3.18
31
57.86
12
23.21
22
-2.79
32
57.58
13
23.21
23
-2.79
33
57.58
0
3DFACE
8
Concrete bases
10
23.32
20
-1.59
30
58.95
11
23.16
21
-3.18
31
57.86
12
23.21
22
-2.79
32
57.58
13
23.21
23
-2.79
33
57.58
0
3DFACE
8
Concrete bases
10
23.62
20
-1.61
30
58.95
11
23.46
21
-3.22
31
57.86
12
23.51
22
-2.83
32
57.58
13
23.51
23
-2.83
33
57.58
0
3DFACE
8
Concrete bases
10
22.42
20
-1.53
30
58.95
11
22.32
21
-2.68
31
57.58
12
22.42
22
-1.53
32
56.77
13
22.47
23
-0.38
33
57.58
0
3DFACE
8
Concrete bases
10
22.82
20
-1.56
30
58.95
11
22.71
21
-2.73
31
57.58
12
22.82
22
-1.56
32
56.77
13
22.87
23
-0.39
33
57.58
0
3DFACE
8
Concrete bases
10
22.82
20
-1.56
30
58.95
11
22.71
21
-2.73
31
57.58
12
22.82
22
-1.56
32
56.77
13
22.87
23
-0.39
33
57.58
0
3DFACE
8
Concrete bases
10
23.07
20
-1.57
30
58.95
11
22.96
21
-2.76
31
57.58
12
23.07
22
-1.57
32
56.77
13
23.12
23
-0.39
33
57.58
0
3DFACE
8
Concrete bases
10
23.07
20
-1.57
30
58.95
11
22.96
21
-2.76
31
57.58
12
23.07
22
-1.57
32
56.77
13
23.12
23
-0.39
33
57.58
0
3DFACE
8
Concrete bases
10
23.32
20
-1.59
30
58.95
11
23.21
21
-2.79
31
57.58
12
23.32
22
-1.59
32
56.77
13
23.37
23
-0.39
33
57.58
0
3DFACE
8
Concrete bases
10
23.32
20
-1.59
30
58.95
11
23.21
21
-2.79
31
57.58
12
23.32
22
-1.59
32
56.77
13
23.37
23
-0.39
33
57.58
0
3DFACE
8
Concrete bases
10
23.62
20
-1.61
30
58.95
11
23.51
21
-2.83
31
57.58
12
23.62
22
-1.61
32
56.77
13
23.67
23
-0.4
33
57.58
0
3DFACE
8
Concrete bases
10
22.32
20
-2.68
30
57.58
11
22.27
21
-3.06
31
57.13
12
22.36
22
-2.3
32
56.22
13
22.42
23
-1.53
33
56.77
0
3DFACE
8
Concrete bases
10
22.71
20
-2.73
30
57.58
11
22.66
21
-3.11
31
57.13
12
22.76
22
-2.34
32
56.22
13
22.82
23
-1.56
33
56.77
0
3DFACE
8
Concrete bases
10
22.71
20
-2.73
30
57.58
11
22.66
21
-3.11
31
57.13
12
22.76
22
-2.34
32
56.22
13
22.82
23
-1.56
33
56.77
0
3DFACE
8
Concrete bases
10
22.96
20
-2.76
30
57.58
11
22.91
21
-3.15
31
57.13
12
23.0
22
-2.36
32
56.22
13
23.07
23
-1.57
33
56.77
0
3DFACE
8
Concrete bases
10
22.96
20
-2.76
30
57.58
11
22.91
21
-3.15
31
57.13
12
23.0
22
-2.36
32
56.22
13
23.07
23
-1.57
33
56.77
0
3DFACE
8
Concrete bases
10
23.21
20
-2.79
30
57.58
11
23.16
21
-3.18
31
57.13
12
23.25
22
-2.39
32
56.22
13
23.32
23
-1.59
33
56.77
0
3DFACE
8
Concrete bases
10
23.21
20
-2.79
30
57.58
11
23.16
21
-3.18
31
57.13
12
23.25
22
-2.39
32
56.22
13
23.32
23
-1.59
33
56.77
0
3DFACE
8
Concrete bases
10
23.51
20
-2.83
30
57.58
11
23.46
21
-3.22
31
57.13
12
23.55
22
-2.42
32
56.22
13
23.62
23
-1.61
33
56.77
0
3DFACE
8
Concrete bases
10
22.48
20
0.0
30
57.13
11
22.47
21
-0.38
31
57.58
12
22.42
22
-1.53
32
56.77
13
22.46
23
-0.77
33
56.22
0
3DFACE
8
Concrete bases
10
22.88
20
0.0
30
57.13
11
22.87
21
-0.39
31
57.58
12
22.82
22
-1.56
32
56.77
13
22.86
23
-0.78
33
56.22
0
3DFACE
8
Concrete bases
10
22.88
20
0.0
30
57.13
11
22.87
21
-0.39
31
57.58
12
22.82
22
-1.56
32
56.77
13
22.86
23
-0.78
33
56.22
0
3DFACE
8
Concrete bases
10
23.13
20
0.0
30
57.13
11
23.12
21
-0.39
31
57.58
12
23.07
22
-1.57
32
56.77
13
23.11
23
-0.79
33
56.22
0
3DFACE
8
Concrete bases
10
23.13
20
0.0
30
57.13
11
23.12
21
-0.39
31
57.58
12
23.07
22
-1.57
32
56.77
13
23.11
23
-0.79
33
56.22
0
3DFACE
8
Concrete bases
10
23.38
20
0.0
30
57.13
11
23.37
21
-0.39
31
57.58
12
23.32
22
-1.59
32
56.77
13
23.36
23
-0.8
33
56.22
0
3DFACE
8
Concrete bases
10
23.38
20
0.0
30
57.13
11
23.37
21
-0.39
31
57.58
12
23.32
22
-1.59
32
56.77
13
23.36
23
-0.8
33
56.22
0
3DFACE
8
Concrete bases
10
23.68
20
0.0
30
57.13
11
23.67
21
-0.4
31
57.58
12
23.62
22
-1.61
32
56.77
13
23.66
23
-0.81
33
56.22
0
3DFACE
8
Concrete bases
10
22.42
20
-1.53
30
56.77
11
22.36
21
-2.3
31
56.22
12
22.42
22
-1.53
32
55.67
13
22.46
23
-0.77
33
56.22
0
3DFACE
8
Concrete bases
10
22.82
20
-1.56
30
56.77
11
22.76
21
-2.34
31
56.22
12
22.82
22
-1.56
32
55.67
13
22.86
23
-0.78
33
56.22
0
3DFACE
8
Concrete bases
10
22.82
20
-1.56
30
56.77
11
22.76
21
-2.34
31
56.22
12
22.82
22
-1.56
32
55.67
13
22.86
23
-0.78
33
56.22
0
3DFACE
8
Concrete bases
10
23.07
20
-1.57
30
56.77
11
23.0
21
-2.36
31
56.22
12
23.07
22
-1.57
32
55.67
13
23.11
23
-0.79
33
56.22
0
3DFACE
8
Concrete bases
10
23.07
20
-1.57
30
56.77
11
23.0
21
-2.36
31
56.22
12
23.07
22
-1.57
32
55.67
13
23.11
23
-0.79
33
56.22
0
3DFACE
8
Concrete bases
10
23.32
20
-1.59
30
56.77
11
23.25
21
-2.39
31
56.22
12
23.32
22
-1.59
32
55.67
13
23.36
23
-0.8
33
56.22
0
3DFACE
8
Concrete bases
10
23.32
20
-1.59
30
56.77
11
23.25
21
-2.39
31
56.22
12
23.32
22
-1.59
32
55.67
13
23.36
23
-0.8
33
56.22
0
3DFACE
8
Concrete bases
10
23.62
20
-1.61
30
56.77
11
23.55
21
-2.42
31
56.22
12
23.62
22
-1.61
32
55.67
13
23.66
23
-0.81
33
56.22
0
3DFACE
8
Concrete bases
10
22.46
20
0.77
30
56.22
11
22.48
21
0.0
31
57.13
12
22.46
22
-0.77
32
56.22
13
22.48
23
0.0
33
55.67
0
3DFACE
8
Concrete bases
10
22.86
20
0.78
30
56.22
11
22.88
21
0.0
31
57.13
12
22.86
22
-0.78
32
56.22
13
22.88
23
0.0
33
55.67
0
3DFACE
8
Concrete bases
10
22.86
20
0.78
30
56.22
11
22.88
21
0.0
31
57.13
12
22.86
22
-0.78
32
56.22
13
22.88
23
0.0
33
55.67
0
3DFACE
8
Concrete bases
10
23.11
20
0.79
30
56.22
11
23.13
21
0.0
31
57.13
12
23.11
22
-0.79
32
56.22
13
23.13
23
0.0
33
55.67
0
3DFACE
8
Concrete bases
10
23.11
20
0.79
30
56.22
11
23.13
21
0.0
31
57.13
12
23.11
22
-0.79
32
56.22
13
23.13
23
0.0
33
55.67
0
3DFACE
8
Concrete bases
10
23.36
20
0.8
30
56.22
11
23.38
21
0.0
31
57.13
12
23.36
22
-0.8
32
56.22
13
23.38
23
0.0
33
55.67
0
3DFACE
8
Concrete bases
10
23.36
20
0.8
30
56.22
11
23.38
21
0.0
31
57.13
12
23.36
22
-0.8
32
56.22
13
23.38
23
0.0
33
55.67
0
3DFACE
8
Concrete bases
10
23.66
20
0.81
30
56.22
11
23.68
21
0.0
31
57.13
12
23.66
22
-0.81
32
56.22
13
23.68
23
0.0
33
55.67
0
3DFACE
8
Concrete bases
10
22.42
20
1.54
30
56.77
11
22.47
21
0.38
31
57.58
12
22.48
22
0.0
32
57.13
13
22.46
23
0.77
33
56.22
0
3DFACE
8
Concrete bases
10
22.82
20
1.57
30
56.77
11
22.87
21
0.39
31
57.58
12
22.88
22
0.0
32
57.13
13
22.86
23
0.78
33
56.22
0
3DFACE
8
Concrete bases
10
22.82
20
1.57
30
56.77
11
22.87
21
0.39
31
57.58
12
22.88
22
0.0
32
57.13
13
22.86
23
0.78
33
56.22
0
3DFACE
8
Concrete bases
10
23.07
20
1.58
30
56.77
11
23.12
21
0.39
31
57.58
12
23.13
22
0.0
32
57.13
13
23.11
23
0.79
33
56.22
0
3DFACE
8
Concrete bases
10
23.07
20
1.58
30
56.77
11
23.12
21
0.39
31
57.58
12
23.13
22
0.0
32
57.13
13
23.11
23
0.79
33
56.22
0
3DFACE
8
Concrete bases
10
23.32
20
1.6
30
56.77
11
23.37
21
0.4
31
57.58
12
23.38
22
0.0
32
57.13
13
23.36
23
0.8
33
56.22
0
3DFACE
8
Concrete bases
10
23.32
20
1.6
30
56.77
11
23.37
21
0.4
31
57.58
12
23.38
22
0.0
32
57.13
13
23.36
23
0.8
33
56.22
0
3DFACE
8
Concrete bases
10
23.62
20
1.62
30
56.77
11
23.67
21
0.4
31
57.58
12
23.68
22
0.0
32
57.13
13
23.66
23
0.81
33
56.22
0
3DFACE
8
Concrete bases
10
22.47
20
0.38
30
57.58
11
22.48
21
0.0
31
57.86
12
22.47
22
-0.38
32
57.58
13
22.48
23
0.0
33
57.13
0
3DFACE
8
Concrete bases
10
22.87
20
0.39
30
57.58
11
22.88
21
0.0
31
57.86
12
22.87
22
-0.39
32
57.58
13
22.88
23
0.0
33
57.13
0
3DFACE
8
Concrete bases
10
22.87
20
0.39
30
57.58
11
22.88
21
0.0
31
57.86
12
22.87
22
-0.39
32
57.58
13
22.88
23
0.0
33
57.13
0
3DFACE
8
Concrete bases
10
23.12
20
0.39
30
57.58
11
23.13
21
0.0
31
57.86
12
23.12
22
-0.39
32
57.58
13
23.13
23
0.0
33
57.13
0
3DFACE
8
Concrete bases
10
23.12
20
0.39
30
57.58
11
23.13
21
0.0
31
57.86
12
23.12
22
-0.39
32
57.58
13
23.13
23
0.0
33
57.13
0
3DFACE
8
Concrete bases
10
23.37
20
0.4
30
57.58
11
23.38
21
0.0
31
57.86
12
23.37
22
-0.39
32
57.58
13
23.38
23
0.0
33
57.13
0
3DFACE
8
Concrete bases
10
23.37
20
0.4
30
57.58
11
23.38
21
0.0
31
57.86
12
23.37
22
-0.39
32
57.58
13
23.38
23
0.0
33
57.13
0
3DFACE
8
Concrete bases
10
23.67
20
0.4
30
57.58
11
23.68
21
0.0
31
57.86
12
23.67
22
-0.4
32
57.58
13
23.68
23
0.0
33
57.13
0
3DFACE
8
Concrete bases
10
22.42
20
1.54
30
58.95
11
22.42
21
-1.53
31
58.95
12
22.48
22
0.0
32
57.86
13
22.48
23
0.0
33
57.86
0
3DFACE
8
Concrete bases
10
22.82
20
1.57
30
58.95
11
22.82
21
-1.56
31
58.95
12
22.88
22
0.0
32
57.86
13
22.88
23
0.0
33
57.86
0
3DFACE
8
Concrete bases
10
22.82
20
1.57
30
58.95
11
22.82
21
-1.56
31
58.95
12
22.88
22
0.0
32
57.86
13
22.88
23
0.0
33
57.86
0
3DFACE
8
Concrete bases
10
23.07
20
1.58
30
58.95
11
23.07
21
-1.57
31
58.95
12
23.13
22
0.0
32
57.86
13
23.13
23
0.0
33
57.86
0
3DFACE
8
Concrete bases
10
23.07
20
1.58
30
58.95
11
23.07
21
-1.57
31
58.95
12
23.13
22
0.0
32
57.86
13
23.13
23
0.0
33
57.86
0
3DFACE
8
Concrete bases
10
23.32
20
1.6
30
58.95
11
23.32
21
-1.59
31
58.95
12
23.38
22
0.0
32
57.86
13
23.38
23
0.0
33
57.86
0
3DFACE
8
Concrete bases
10
23.32
20
1.6
30
58.95
11
23.32
21
-1.59
31
58.95
12
23.38
22
0.0
32
57.86
13
23.38
23
0.0
33
57.86
0
3DFACE
8
Concrete bases
10
23.62
20
1.62
30
58.95
11
23.62
21
-1.61
31
58.95
12
23.68
22
0.0
32
57.86
13
23.68
23
0.0
33
57.86
0
3DFACE
8
Concrete bases
10
22.42
20
1.54
30
58.95
11
22.48
21
0.0
31
57.86
12
22.47
22
0.38
32
57.58
13
22.47
23
0.38
33
57.58
0
3DFACE
8
Concrete bases
10
22.82
20
1.57
30
58.95
11
22.88
21
0.0
31
57.86
12
22.87
22
0.39
32
57.58
13
22.87
23
0.39
33
57.58
0
3DFACE
8
Concrete bases
10
22.82
20
1.57
30
58.95
11
22.88
21
0.0
31
57.86
12
22.87
22
0.39
32
57.58
13
22.87
23
0.39
33
57.58
0
3DFACE
8
Concrete bases
10
23.07
20
1.58
30
58.95
11
23.13
21
0.0
31
57.86
12
23.12
22
0.39
32
57.58
13
23.12
23
0.39
33
57.58
0
3DFACE
8
Concrete bases
10
23.07
20
1.58
30
58.95
11
23.13
21
0.0
31
57.86
12
23.12
22
0.39
32
57.58
13
23.12
23
0.39
33
57.58
0
3DFACE
8
Concrete bases
10
23.32
20
1.6
30
58.95
11
23.38
21
0.0
31
57.86
12
23.37
22
0.4
32
57.58
13
23.37
23
0.4
33
57.58
0
3DFACE
8
Concrete bases
10
23.32
20
1.6
30
58.95
11
23.38
21
0.0
31
57.86
12
23.37
22
0.4
32
57.58
13
23.37
23
0.4
33
57.58
0
3DFACE
8
Concrete bases
10
23.62
20
1.62
30
58.95
11
23.68
21
0.0
31
57.86
12
23.67
22
0.4
32
57.58
13
23.67
23
0.4
33
57.58
0
3DFACE
8
Concrete bases
10
22.42
20
-1.53
30
58.95
11
22.47
21
-0.38
31
57.58
12
22.48
22
0.0
32
57.86
13
22.48
23
0.0
33
57.86
0
3DFACE
8
Concrete bases
10
22.82
20
-1.56
30
58.95
11
22.87
21
-0.39
31
57.58
12
22.88
22
0.0
32
57.86
13
22.88
23
0.0
33
57.86
0
3DFACE
8
Concrete bases
10
22.82
20
-1.56
30
58.95
11
22.87
21
-0.39
31
57.58
12
22.88
22
0.0
32
57.86
13
22.88
23
0.0
33
57.86
0
3DFACE
8
Concrete bases
10
23.07
20
-1.57
30
58.95
11
23.12
21
-0.39
31
57.58
12
23.13
22
0.0
32
57.86
13
23.13
23
0.0
33
57.86
0
3DFACE
8
Concrete bases
10
23.07
20
-1.57
30
58.95
11
23.12
21
-0.39
31
57.58
12
23.13
22
0.0
32
57.86
13
23.13
23
0.0
33
57.86
0
3DFACE
8
Concrete bases
10
23.32
20
-1.59
30
58.95
11
23.37
21
-0.39
31
57.58
12
23.38
22
0.0
32
57.86
13
23.38
23
0.0
33
57.86
0
3DFACE
8
Concrete bases
10
23.32
20
-1.59
30
58.95
11
23.37
21
-0.39
31
57.58
12
23.38
22
0.0
32
57.86
13
23.38
23
0.0
33
57.86
0
3DFACE
8
Concrete bases
10
23.62
20
-1.61
30
58.95
11
23.67
21
-0.4
31
57.58
12
23.68
22
0.0
32
57.86
13
23.68
23
0.0
33
57.86
0
3DFACE
8
Concrete bases
10
22.36
20
2.3
30
56.22
11
22.42
21
1.54
31
55.67
12
22.36
22
2.3
32
55.13
13
22.27
23
3.06
33
55.67
0
3DFACE
8
Concrete bases
10
22.76
20
2.34
30
56.22
11
22.82
21
1.57
31
55.67
12
22.76
22
2.34
32
55.13
13
22.66
23
3.11
33
55.67
0
3DFACE
8
Concrete bases
10
22.76
20
2.34
30
56.22
11
22.82
21
1.57
31
55.67
12
22.76
22
2.34
32
55.13
13
22.66
23
3.11
33
55.67
0
3DFACE
8
Concrete bases
10
23.0
20
2.36
30
56.22
11
23.07
21
1.58
31
55.67
12
23.0
22
2.36
32
55.13
13
22.91
23
3.15
33
55.67
0
3DFACE
8
Concrete bases
10
23.0
20
2.36
30
56.22
11
23.07
21
1.58
31
55.67
12
23.0
22
2.36
32
55.13
13
22.91
23
3.15
33
55.67
0
3DFACE
8
Concrete bases
10
23.25
20
2.39
30
56.22
11
23.32
21
1.6
31
55.67
12
23.25
22
2.39
32
55.13
13
23.16
23
3.18
33
55.67
0
3DFACE
8
Concrete bases
10
23.25
20
2.39
30
56.22
11
23.32
21
1.6
31
55.67
12
23.25
22
2.39
32
55.13
13
23.16
23
3.18
33
55.67
0
3DFACE
8
Concrete bases
10
23.55
20
2.42
30
56.22
11
23.62
21
1.62
31
55.67
12
23.55
22
2.42
32
55.13
13
23.46
23
3.22
33
55.67
0
3DFACE
8
Concrete bases
10
22.15
20
3.82
30
56.22
11
22.27
21
3.06
31
55.67
12
22.15
22
3.82
32
55.13
13
22.0
23
4.58
33
55.67
0
3DFACE
8
Concrete bases
10
22.54
20
3.89
30
56.22
11
22.66
21
3.11
31
55.67
12
22.54
22
3.89
32
55.13
13
22.4
23
4.66
33
55.67
0
3DFACE
8
Concrete bases
10
22.54
20
3.89
30
56.22
11
22.66
21
3.11
31
55.67
12
22.54
22
3.89
32
55.13
13
22.4
23
4.66
33
55.67
0
3DFACE
8
Concrete bases
10
22.79
20
3.93
30
56.22
11
22.91
21
3.15
31
55.67
12
22.79
22
3.93
32
55.13
13
22.64
23
4.71
33
55.67
0
3DFACE
8
Concrete bases
10
22.79
20
3.93
30
56.22
11
22.91
21
3.15
31
55.67
12
22.79
22
3.93
32
55.13
13
22.64
23
4.71
33
55.67
0
3DFACE
8
Concrete bases
10
23.04
20
3.97
30
56.22
11
23.16
21
3.18
31
55.67
12
23.04
22
3.97
32
55.13
13
22.89
23
4.76
33
55.67
0
3DFACE
8
Concrete bases
10
23.04
20
3.97
30
56.22
11
23.16
21
3.18
31
55.67
12
23.04
22
3.97
32
55.13
13
22.89
23
4.76
33
55.67
0
3DFACE
8
Concrete bases
10
23.33
20
4.03
30
56.22
11
23.46
21
3.22
31
55.67
12
23.33
22
4.03
32
55.13
13
23.18
23
4.82
33
55.67
0
3DFACE
8
Concrete bases
10
21.84
20
5.32
30
56.22
11
22.0
21
4.58
31
55.67
12
21.84
22
5.32
32
55.13
13
21.64
23
6.06
33
55.67
0
3DFACE
8
Concrete bases
10
22.23
20
5.41
30
56.22
11
22.4
21
4.66
31
55.67
12
22.23
22
5.41
32
55.13
13
22.03
23
6.17
33
55.67
0
3DFACE
8
Concrete bases
10
22.23
20
5.41
30
56.22
11
22.4
21
4.66
31
55.67
12
22.23
22
5.41
32
55.13
13
22.03
23
6.17
33
55.67
0
3DFACE
8
Concrete bases
10
22.47
20
5.47
30
56.22
11
22.64
21
4.71
31
55.67
12
22.47
22
5.47
32
55.13
13
22.27
23
6.24
33
55.67
0
3DFACE
8
Concrete bases
10
22.47
20
5.47
30
56.22
11
22.64
21
4.71
31
55.67
12
22.47
22
5.47
32
55.13
13
22.27
23
6.24
33
55.67
0
3DFACE
8
Concrete bases
10
22.71
20
5.53
30
56.22
11
22.89
21
4.76
31
55.67
12
22.71
22
5.53
32
55.13
13
22.51
23
6.31
33
55.67
0
3DFACE
8
Concrete bases
10
22.71
20
5.53
30
56.22
11
22.89
21
4.76
31
55.67
12
22.71
22
5.53
32
55.13
13
22.51
23
6.31
33
55.67
0
3DFACE
8
Concrete bases
10
23.0
20
5.6
30
56.22
11
23.18
21
4.82
31
55.67
12
23.0
22
5.6
32
55.13
13
22.8
23
6.39
33
55.67
0
3DFACE
8
Concrete bases
10
21.42
20
6.8
30
56.22
11
21.64
21
6.06
31
55.67
12
21.42
22
6.8
32
55.13
13
21.18
23
7.53
33
55.67
0
3DFACE
8
Concrete bases
10
21.8
20
6.92
30
56.22
11
22.03
21
6.17
31
55.67
12
21.8
22
6.92
32
55.13
13
21.55
23
7.67
33
55.67
0
3DFACE
8
Concrete bases
10
21.8
20
6.92
30
56.22
11
22.03
21
6.17
31
55.67
12
21.8
22
6.92
32
55.13
13
21.55
23
7.67
33
55.67
0
3DFACE
8
Concrete bases
10
22.04
20
7.0
30
56.22
11
22.27
21
6.24
31
55.67
12
22.04
22
7.0
32
55.13
13
21.79
23
7.75
33
55.67
0
3DFACE
8
Concrete bases
10
22.04
20
7.0
30
56.22
11
22.27
21
6.24
31
55.67
12
22.04
22
7.0
32
55.13
13
21.79
23
7.75
33
55.67
0
3DFACE
8
Concrete bases
10
22.28
20
7.07
30
56.22
11
22.51
21
6.31
31
55.67
12
22.28
22
7.07
32
55.13
13
22.02
23
7.83
33
55.67
0
3DFACE
8
Concrete bases
10
22.28
20
7.07
30
56.22
11
22.51
21
6.31
31
55.67
12
22.28
22
7.07
32
55.13
13
22.02
23
7.83
33
55.67
0
3DFACE
8
Concrete bases
10
22.57
20
7.16
30
56.22
11
22.8
21
6.39
31
55.67
12
22.57
22
7.16
32
55.13
13
22.31
23
7.93
33
55.67
0
3DFACE
8
Concrete bases
10
22.36
20
-2.3
30
56.22
11
22.27
21
-3.06
31
55.67
12
22.36
22
-2.3
32
55.13
13
22.42
23
-1.53
33
55.67
0
3DFACE
8
Concrete bases
10
22.76
20
-2.34
30
56.22
11
22.66
21
-3.11
31
55.67
12
22.76
22
-2.34
32
55.13
13
22.82
23
-1.56
33
55.67
0
3DFACE
8
Concrete bases
10
22.76
20
-2.34
30
56.22
11
22.66
21
-3.11
31
55.67
12
22.76
22
-2.34
32
55.13
13
22.82
23
-1.56
33
55.67
0
3DFACE
8
Concrete bases
10
23.0
20
-2.36
30
56.22
11
22.91
21
-3.15
31
55.67
12
23.0
22
-2.36
32
55.13
13
23.07
23
-1.57
33
55.67
0
3DFACE
8
Concrete bases
10
23.0
20
-2.36
30
56.22
11
22.91
21
-3.15
31
55.67
12
23.0
22
-2.36
32
55.13
13
23.07
23
-1.57
33
55.67
0
3DFACE
8
Concrete bases
10
23.25
20
-2.39
30
56.22
11
23.16
21
-3.18
31
55.67
12
23.25
22
-2.39
32
55.13
13
23.32
23
-1.59
33
55.67
0
3DFACE
8
Concrete bases
10
23.25
20
-2.39
30
56.22
11
23.16
21
-3.18
31
55.67
12
23.25
22
-2.39
32
55.13
13
23.32
23
-1.59
33
55.67
0
3DFACE
8
Concrete bases
10
23.55
20
-2.42
30
56.22
11
23.46
21
-3.22
31
55.67
12
23.55
22
-2.42
32
55.13
13
23.62
23
-1.61
33
55.67
0
3DFACE
8
Concrete bases
10
22.46
20
-0.77
30
56.22
11
22.42
21
-1.53
31
55.67
12
22.46
22
-0.77
32
55.13
13
22.48
23
0.0
33
55.67
0
3DFACE
8
Concrete bases
10
22.86
20
-0.78
30
56.22
11
22.82
21
-1.56
31
55.67
12
22.86
22
-0.78
32
55.13
13
22.88
23
0.0
33
55.67
0
3DFACE
8
Concrete bases
10
22.86
20
-0.78
30
56.22
11
22.82
21
-1.56
31
55.67
12
22.86
22
-0.78
32
55.13
13
22.88
23
0.0
33
55.67
0
3DFACE
8
Concrete bases
10
23.11
20
-0.79
30
56.22
11
23.07
21
-1.57
31
55.67
12
23.11
22
-0.79
32
55.13
13
23.13
23
0.0
33
55.67
0
3DFACE
8
Concrete bases
10
23.11
20
-0.79
30
56.22
11
23.07
21
-1.57
31
55.67
12
23.11
22
-0.79
32
55.13
13
23.13
23
0.0
33
55.67
0
3DFACE
8
Concrete bases
10
23.36
20
-0.8
30
56.22
11
23.32
21
-1.59
31
55.67
12
23.36
22
-0.8
32
55.13
13
23.38
23
0.0
33
55.67
0
3DFACE
8
Concrete bases
10
23.36
20
-0.8
30
56.22
11
23.32
21
-1.59
31
55.67
12
23.36
22
-0.8
32
55.13
13
23.38
23
0.0
33
55.67
0
3DFACE
8
Concrete bases
10
23.66
20
-0.81
30
56.22
11
23.62
21
-1.61
31
55.67
12
23.66
22
-0.81
32
55.13
13
23.68
23
0.0
33
55.67
0
3DFACE
8
Concrete bases
10
22.46
20
0.77
30
56.22
11
22.48
21
0.0
31
55.67
12
22.46
22
0.77
32
55.13
13
22.42
23
1.54
33
55.67
0
3DFACE
8
Concrete bases
10
22.86
20
0.78
30
56.22
11
22.88
21
0.0
31
55.67
12
22.86
22
0.78
32
55.13
13
22.82
23
1.57
33
55.67
0
3DFACE
8
Concrete bases
10
22.86
20
0.78
30
56.22
11
22.88
21
0.0
31
55.67
12
22.86
22
0.78
32
55.13
13
22.82
23
1.57
33
55.67
0
3DFACE
8
Concrete bases
10
23.11
20
0.79
30
56.22
11
23.13
21
0.0
31
55.67
12
23.11
22
0.79
32
55.13
13
23.07
23
1.58
33
55.67
0
3DFACE
8
Concrete bases
10
23.11
20
0.79
30
56.22
11
23.13
21
0.0
31
55.67
12
23.11
22
0.79
32
55.13
13
23.07
23
1.58
33
55.67
0
3DFACE
8
Concrete bases
10
23.36
20
0.8
30
56.22
11
23.38
21
0.0
31
55.67
12
23.36
22
0.8
32
55.13
13
23.32
23
1.6
33
55.67
0
3DFACE
8
Concrete bases
10
23.36
20
0.8
30
56.22
11
23.38
21
0.0
31
55.67
12
23.36
22
0.8
32
55.13
13
23.32
23
1.6
33
55.67
0
3DFACE
8
Concrete bases
10
23.66
20
0.81
30
56.22
11
23.68
21
0.0
31
55.67
12
23.66
22
0.81
32
55.13
13
23.62
23
1.62
33
55.67
0
3DFACE
8
Concrete bases
10
22.27
20
3.06
30
55.67
11
22.36
21
2.3
31
55.13
12
22.27
22
3.06
32
54.58
13
22.15
23
3.82
33
55.13
0
3DFACE
8
Concrete bases
10
22.66
20
3.11
30
55.67
11
22.76
21
2.34
31
55.13
12
22.66
22
3.11
32
54.58
13
22.54
23
3.89
33
55.13
0
3DFACE
8
Concrete bases
10
22.66
20
3.11
30
55.67
11
22.76
21
2.34
31
55.13
12
22.66
22
3.11
32
54.58
13
22.54
23
3.89
33
55.13
0
3DFACE
8
Concrete bases
10
22.91
20
3.15
30
55.67
11
23.0
21
2.36
31
55.13
12
22.91
22
3.15
32
54.58
13
22.79
23
3.93
33
55.13
0
3DFACE
8
Concrete bases
10
22.91
20
3.15
30
55.67
11
23.0
21
2.36
31
55.13
12
22.91
22
3.15
32
54.58
13
22.79
23
3.93
33
55.13
0
3DFACE
8
Concrete bases
10
23.16
20
3.18
30
55.67
11
23.25
21
2.39
31
55.13
12
23.16
22
3.18
32
54.58
13
23.04
23
3.97
33
55.13
0
3DFACE
8
Concrete bases
10
23.16
20
3.18
30
55.67
11
23.25
21
2.39
31
55.13
12
23.16
22
3.18
32
54.58
13
23.04
23
3.97
33
55.13
0
3DFACE
8
Concrete bases
10
23.46
20
3.22
30
55.67
11
23.55
21
2.42
31
55.13
12
23.46
22
3.22
32
54.58
13
23.33
23
4.03
33
55.13
0
3DFACE
8
Concrete bases
10
22.0
20
4.58
30
55.67
11
22.15
21
3.82
31
55.13
12
22.0
22
4.58
32
54.58
13
21.84
23
5.32
33
55.13
0
3DFACE
8
Concrete bases
10
22.4
20
4.66
30
55.67
11
22.54
21
3.89
31
55.13
12
22.4
22
4.66
32
54.58
13
22.23
23
5.41
33
55.13
0
3DFACE
8
Concrete bases
10
22.4
20
4.66
30
55.67
11
22.54
21
3.89
31
55.13
12
22.4
22
4.66
32
54.58
13
22.23
23
5.41
33
55.13
0
3DFACE
8
Concrete bases
10
22.64
20
4.71
30
55.67
11
22.79
21
3.93
31
55.13
12
22.64
22
4.71
32
54.58
13
22.47
23
5.47
33
55.13
0
3DFACE
8
Concrete bases
10
22.64
20
4.71
30
55.67
11
22.79
21
3.93
31
55.13
12
22.64
22
4.71
32
54.58
13
22.47
23
5.47
33
55.13
0
3DFACE
8
Concrete bases
10
22.89
20
4.76
30
55.67
11
23.04
21
3.97
31
55.13
12
22.89
22
4.76
32
54.58
13
22.71
23
5.53
33
55.13
0
3DFACE
8
Concrete bases
10
22.89
20
4.76
30
55.67
11
23.04
21
3.97
31
55.13
12
22.89
22
4.76
32
54.58
13
22.71
23
5.53
33
55.13
0
3DFACE
8
Concrete bases
10
23.18
20
4.82
30
55.67
11
23.33
21
4.03
31
55.13
12
23.18
22
4.82
32
54.58
13
23.0
23
5.6
33
55.13
0
3DFACE
8
Concrete bases
10
21.64
20
6.06
30
55.67
11
21.84
21
5.32
31
55.13
12
21.64
22
6.06
32
54.58
13
21.42
23
6.8
33
55.13
0
3DFACE
8
Concrete bases
10
22.03
20
6.17
30
55.67
11
22.23
21
5.41
31
55.13
12
22.03
22
6.17
32
54.58
13
21.8
23
6.92
33
55.13
0
3DFACE
8
Concrete bases
10
22.03
20
6.17
30
55.67
11
22.23
21
5.41
31
55.13
12
22.03
22
6.17
32
54.58
13
21.8
23
6.92
33
55.13
0
3DFACE
8
Concrete bases
10
22.27
20
6.24
30
55.67
11
22.47
21
5.47
31
55.13
12
22.27
22
6.24
32
54.58
13
22.04
23
7.0
33
55.13
0
3DFACE
8
Concrete bases
10
22.27
20
6.24
30
55.67
11
22.47
21
5.47
31
55.13
12
22.27
22
6.24
32
54.58
13
22.04
23
7.0
33
55.13
0
3DFACE
8
Concrete bases
10
22.51
20
6.31
30
55.67
11
22.71
21
5.53
31
55.13
12
22.51
22
6.31
32
54.58
13
22.28
23
7.07
33
55.13
0
3DFACE
8
Concrete bases
10
22.51
20
6.31
30
55.67
11
22.71
21
5.53
31
55.13
12
22.51
22
6.31
32
54.58
13
22.28
23
7.07
33
55.13
0
3DFACE
8
Concrete bases
10
22.8
20
6.39
30
55.67
11
23.0
21
5.6
31
55.13
12
22.8
22
6.39
32
54.58
13
22.57
23
7.16
33
55.13
0
3DFACE
8
Concrete bases
10
21.18
20
7.53
30
55.67
11
21.42
21
6.8
31
55.13
12
21.18
22
7.53
32
54.58
13
20.91
23
8.24
33
55.13
0
3DFACE
8
Concrete bases
10
21.55
20
7.67
30
55.67
11
21.8
21
6.92
31
55.13
12
21.55
22
7.67
32
54.58
13
21.28
23
8.39
33
55.13
0
3DFACE
8
Concrete bases
10
21.55
20
7.67
30
55.67
11
21.8
21
6.92
31
55.13
12
21.55
22
7.67
32
54.58
13
21.28
23
8.39
33
55.13
0
3DFACE
8
Concrete bases
10
21.79
20
7.75
30
55.67
11
22.04
21
7.0
31
55.13
12
21.79
22
7.75
32
54.58
13
21.51
23
8.48
33
55.13
0
3DFACE
8
Concrete bases
10
21.79
20
7.75
30
55.67
11
22.04
21
7.0
31
55.13
12
21.79
22
7.75
32
54.58
13
21.51
23
8.48
33
55.13
0
3DFACE
8
Concrete bases
10
22.02
20
7.83
30
55.67
11
22.28
21
7.07
31
55.13
12
22.02
22
7.83
32
54.58
13
21.75
23
8.57
33
55.13
0
3DFACE
8
Concrete bases
10
22.02
20
7.83
30
55.67
11
22.28
21
7.07
31
55.13
12
22.02
22
7.83
32
54.58
13
21.75
23
8.57
33
55.13
0
3DFACE
8
Concrete bases
10
22.31
20
7.93
30
55.67
11
22.57
21
7.16
31
55.13
12
22.31
22
7.93
32
54.58
13
22.03
23
8.68
33
55.13
0
3DFACE
8
Concrete bases
10
22.42
20
-1.53
30
55.67
11
22.36
21
-2.3
31
55.13
12
22.42
22
-1.53
32
54.58
13
22.46
23
-0.77
33
55.13
0
3DFACE
8
Concrete bases
10
22.82
20
-1.56
30
55.67
11
22.76
21
-2.34
31
55.13
12
22.82
22
-1.56
32
54.58
13
22.86
23
-0.78
33
55.13
0
3DFACE
8
Concrete bases
10
22.82
20
-1.56
30
55.67
11
22.76
21
-2.34
31
55.13
12
22.82
22
-1.56
32
54.58
13
22.86
23
-0.78
33
55.13
0
3DFACE
8
Concrete bases
10
23.07
20
-1.57
30
55.67
11
23.0
21
-2.36
31
55.13
12
23.07
22
-1.57
32
54.58
13
23.11
23
-0.79
33
55.13
0
3DFACE
8
Concrete bases
10
23.07
20
-1.57
30
55.67
11
23.0
21
-2.36
31
55.13
12
23.07
22
-1.57
32
54.58
13
23.11
23
-0.79
33
55.13
0
3DFACE
8
Concrete bases
10
23.32
20
-1.59
30
55.67
11
23.25
21
-2.39
31
55.13
12
23.32
22
-1.59
32
54.58
13
23.36
23
-0.8
33
55.13
0
3DFACE
8
Concrete bases
10
23.32
20
-1.59
30
55.67
11
23.25
21
-2.39
31
55.13
12
23.32
22
-1.59
32
54.58
13
23.36
23
-0.8
33
55.13
0
3DFACE
8
Concrete bases
10
23.62
20
-1.61
30
55.67
11
23.55
21
-2.42
31
55.13
12
23.62
22
-1.61
32
54.58
13
23.66
23
-0.81
33
55.13
0
3DFACE
8
Concrete bases
10
22.48
20
0.0
30
55.67
11
22.46
21
-0.77
31
55.13
12
22.48
22
0.0
32
54.58
13
22.46
23
0.77
33
55.13
0
3DFACE
8
Concrete bases
10
22.88
20
0.0
30
55.67
11
22.86
21
-0.78
31
55.13
12
22.88
22
0.0
32
54.58
13
22.86
23
0.78
33
55.13
0
3DFACE
8
Concrete bases
10
22.88
20
0.0
30
55.67
11
22.86
21
-0.78
31
55.13
12
22.88
22
0.0
32
54.58
13
22.86
23
0.78
33
55.13
0
3DFACE
8
Concrete bases
10
23.13
20
0.0
30
55.67
11
23.11
21
-0.79
31
55.13
12
23.13
22
0.0
32
54.58
13
23.11
23
0.79
33
55.13
0
3DFACE
8
Concrete bases
10
23.13
20
0.0
30
55.67
11
23.11
21
-0.79
31
55.13
12
23.13
22
0.0
32
54.58
13
23.11
23
0.79
33
55.13
0
3DFACE
8
Concrete bases
10
23.38
20
0.0
30
55.67
11
23.36
21
-0.8
31
55.13
12
23.38
22
0.0
32
54.58
13
23.36
23
0.8
33
55.13
0
3DFACE
8
Concrete bases
10
23.38
20
0.0
30
55.67
11
23.36
21
-0.8
31
55.13
12
23.38
22
0.0
32
54.58
13
23.36
23
0.8
33
55.13
0
3DFACE
8
Concrete bases
10
23.68
20
0.0
30
55.67
11
23.66
21
-0.81
31
55.13
12
23.68
22
0.0
32
54.58
13
23.66
23
0.81
33
55.13
0
3DFACE
8
Concrete bases
10
22.36
20
2.3
30
55.13
11
22.42
21
1.54
31
54.58
12
22.36
22
2.3
32
54.04
13
22.27
23
3.06
33
54.58
0
3DFACE
8
Concrete bases
10
22.76
20
2.34
30
55.13
11
22.82
21
1.57
31
54.58
12
22.76
22
2.34
32
54.04
13
22.66
23
3.11
33
54.58
0
3DFACE
8
Concrete bases
10
22.76
20
2.34
30
55.13
11
22.82
21
1.57
31
54.58
12
22.76
22
2.34
32
54.04
13
22.66
23
3.11
33
54.58
0
3DFACE
8
Concrete bases
10
23.0
20
2.36
30
55.13
11
23.07
21
1.58
31
54.58
12
23.0
22
2.36
32
54.04
13
22.91
23
3.15
33
54.58
0
3DFACE
8
Concrete bases
10
23.0
20
2.36
30
55.13
11
23.07
21
1.58
31
54.58
12
23.0
22
2.36
32
54.04
13
22.91
23
3.15
33
54.58
0
3DFACE
8
Concrete bases
10
23.25
20
2.39
30
55.13
11
23.32
21
1.6
31
54.58
12
23.25
22
2.39
32
54.04
13
23.16
23
3.18
33
54.58
0
3DFACE
8
Concrete bases
10
23.25
20
2.39
30
55.13
11
23.32
21
1.6
31
54.58
12
23.25
22
2.39
32
54.04
13
23.16
23
3.18
33
54.58
0
3DFACE
8
Concrete bases
10
23.55
20
2.42
30
55.13
11
23.62
21
1.62
31
54.58
12
23.55
22
2.42
32
54.04
13
23.46
23
3.22
33
54.58
0
3DFACE
8
Concrete bases
10
22.15
20
3.82
30
55.13
11
22.27
21
3.06
31
54.58
12
22.15
22
3.82
32
54.04
13
22.0
23
4.58
33
54.58
0
3DFACE
8
Concrete bases
10
22.54
20
3.89
30
55.13
11
22.66
21
3.11
31
54.58
12
22.54
22
3.89
32
54.04
13
22.4
23
4.66
33
54.58
0
3DFACE
8
Concrete bases
10
22.54
20
3.89
30
55.13
11
22.66
21
3.11
31
54.58
12
22.54
22
3.89
32
54.04
13
22.4
23
4.66
33
54.58
0
3DFACE
8
Concrete bases
10
22.79
20
3.93
30
55.13
11
22.91
21
3.15
31
54.58
12
22.79
22
3.93
32
54.04
13
22.64
23
4.71
33
54.58
0
3DFACE
8
Concrete bases
10
22.79
20
3.93
30
55.13
11
22.91
21
3.15
31
54.58
12
22.79
22
3.93
32
54.04
13
22.64
23
4.71
33
54.58
0
3DFACE
8
Concrete bases
10
23.04
20
3.97
30
55.13
11
23.16
21
3.18
31
54.58
12
23.04
22
3.97
32
54.04
13
22.89
23
4.76
33
54.58
0
3DFACE
8
Concrete bases
10
23.04
20
3.97
30
55.13
11
23.16
21
3.18
31
54.58
12
23.04
22
3.97
32
54.04
13
22.89
23
4.76
33
54.58
0
3DFACE
8
Concrete bases
10
23.33
20
4.03
30
55.13
11
23.46
21
3.22
31
54.58
12
23.33
22
4.03
32
54.04
13
23.18
23
4.82
33
54.58
0
3DFACE
8
Concrete bases
10
21.84
20
5.32
30
55.13
11
22.0
21
4.58
31
54.58
12
21.84
22
5.32
32
54.04
13
21.64
23
6.06
33
54.58
0
3DFACE
8
Concrete bases
10
22.23
20
5.41
30
55.13
11
22.4
21
4.66
31
54.58
12
22.23
22
5.41
32
54.04
13
22.03
23
6.17
33
54.58
0
3DFACE
8
Concrete bases
10
22.23
20
5.41
30
55.13
11
22.4
21
4.66
31
54.58
12
22.23
22
5.41
32
54.04
13
22.03
23
6.17
33
54.58
0
3DFACE
8
Concrete bases
10
22.47
20
5.47
30
55.13
11
22.64
21
4.71
31
54.58
12
22.47
22
5.47
32
54.04
13
22.27
23
6.24
33
54.58
0
3DFACE
8
Concrete bases
10
22.47
20
5.47
30
55.13
11
22.64
21
4.71
31
54.58
12
22.47
22
5.47
32
54.04
13
22.27
23
6.24
33
54.58
0
3DFACE
8
Concrete bases
10
22.71
20
5.53
30
55.13
11
22.89
21
4.76
31
54.58
12
22.71
22
5.53
32
54.04
13
22.51
23
6.31
33
54.58
0
3DFACE
8
Concrete bases
10
22.71
20
5.53
30
55.13
11
22.89
21
4.76
31
54.58
12
22.71
22
5.53
32
54.04
13
22.51
23
6.31
33
54.58
0
3DFACE
8
Concrete bases
10
23.0
20
5.6
30
55.13
11
23.18
21
4.82
31
54.58
12
23.0
22
5.6
32
54.04
13
22.8
23
6.39
33
54.58
0
3DFACE
8
Concrete bases
10
21.42
20
6.8
30
55.13
11
21.64
21
6.06
31
54.58
12
21.42
22
6.8
32
54.04
13
21.18
23
7.53
33
54.58
0
3DFACE
8
Concrete bases
10
21.8
20
6.92
30
55.13
11
22.03
21
6.17
31
54.58
12
21.8
22
6.92
32
54.04
13
21.55
23
7.67
33
54.58
0
3DFACE
8
Concrete bases
10
21.8
20
6.92
30
55.13
11
22.03
21
6.17
31
54.58
12
21.8
22
6.92
32
54.04
13
21.55
23
7.67
33
54.58
0
3DFACE
8
Concrete bases
10
22.04
20
7.0
30
55.13
11
22.27
21
6.24
31
54.58
12
22.04
22
7.0
32
54.04
13
21.79
23
7.75
33
54.58
0
3DFACE
8
Concrete bases
10
22.04
20
7.0
30
55.13
11
22.27
21
6.24
31
54.58
12
22.04
22
7.0
32
54.04
13
21.79
23
7.75
33
54.58
0
3DFACE
8
Concrete bases
10
22.28
20
7.07
30
55.13
11
22.51
21
6.31
31
54.58
12
22.28
22
7.07
32
54.04
13
22.02
23
7.83
33
54.58
0
3DFACE
8
Concrete bases
10
22.28
20
7.07
30
55.13
11
22.51
21
6.31
31
54.58
12
22.28
22
7.07
32
54.04
13
22.02
23
7.83
33
54.58
0
3DFACE
8
Concrete bases
10
22.57
20
7.16
30
55.13
11
22.8
21
6.39
31
54.58
12
22.57
22
7.16
32
54.04
13
22.31
23
7.93
33
54.58
0
3DFACE
8
Concrete bases
10
22.36
20
-2.3
30
55.13
11
22.27
21
-3.06
31
54.58
12
22.36
22
-2.3
32
54.04
13
22.42
23
-1.53
33
54.58
0
3DFACE
8
Concrete bases
10
22.76
20
-2.34
30
55.13
11
22.66
21
-3.11
31
54.58
12
22.76
22
-2.34
32
54.04
13
22.82
23
-1.56
33
54.58
0
3DFACE
8
Concrete bases
10
22.76
20
-2.34
30
55.13
11
22.66
21
-3.11
31
54.58
12
22.76
22
-2.34
32
54.04
13
22.82
23
-1.56
33
54.58
0
3DFACE
8
Concrete bases
10
23.0
20
-2.36
30
55.13
11
22.91
21
-3.15
31
54.58
12
23.0
22
-2.36
32
54.04
13
23.07
23
-1.57
33
54.58
0
3DFACE
8
Concrete bases
10
23.0
20
-2.36
30
55.13
11
22.91
21
-3.15
31
54.58
12
23.0
22
-2.36
32
54.04
13
23.07
23
-1.57
33
54.58
0
3DFACE
8
Concrete bases
10
23.25
20
-2.39
30
55.13
11
23.16
21
-3.18
31
54.58
12
23.25
22
-2.39
32
54.04
13
23.32
23
-1.59
33
54.58
0
3DFACE
8
Concrete bases
10
23.25
20
-2.39
30
55.13
11
23.16
21
-3.18
31
54.58
12
23.25
22
-2.39
32
54.04
13
23.32
23
-1.59
33
54.58
0
3DFACE
8
Concrete bases
10
23.55
20
-2.42
30
55.13
11
23.46
21
-3.22
31
54.58
12
23.55
22
-2.42
32
54.04
13
23.62
23
-1.61
33
54.58
0
3DFACE
8
Concrete bases
10
22.46
20
-0.77
30
55.13
11
22.42
21
-1.53
31
54.58
12
22.46
22
-0.77
32
54.04
13
22.48
23
0.0
33
54.58
0
3DFACE
8
Concrete bases
10
22.86
20
-0.78
30
55.13
11
22.82
21
-1.56
31
54.58
12
22.86
22
-0.78
32
54.04
13
22.88
23
0.0
33
54.58
0
3DFACE
8
Concrete bases
10
22.86
20
-0.78
30
55.13
11
22.82
21
-1.56
31
54.58
12
22.86
22
-0.78
32
54.04
13
22.88
23
0.0
33
54.58
0
3DFACE
8
Concrete bases
10
23.11
20
-0.79
30
55.13
11
23.07
21
-1.57
31
54.58
12
23.11
22
-0.79
32
54.04
13
23.13
23
0.0
33
54.58
0
3DFACE
8
Concrete bases
10
23.11
20
-0.79
30
55.13
11
23.07
21
-1.57
31
54.58
12
23.11
22
-0.79
32
54.04
13
23.13
23
0.0
33
54.58
0
3DFACE
8
Concrete bases
10
23.36
20
-0.8
30
55.13
11
23.32
21
-1.59
31
54.58
12
23.36
22
-0.8
32
54.04
13
23.38
23
0.0
33
54.58
0
3DFACE
8
Concrete bases
10
23.36
20
-0.8
30
55.13
11
23.32
21
-1.59
31
54.58
12
23.36
22
-0.8
32
54.04
13
23.38
23
0.0
33
54.58
0
3DFACE
8
Concrete bases
10
23.66
20
-0.81
30
55.13
11
23.62
21
-1.61
31
54.58
12
23.66
22
-0.81
32
54.04
13
23.68
23
0.0
33
54.58
0
3DFACE
8
Concrete bases
10
22.27
20
3.06
30
54.58
11
22.36
21
2.3
31
54.04
12
22.27
22
3.06
32
53.49
13
22.15
23
3.82
33
54.04
0
3DFACE
8
Concrete bases
10
22.66
20
3.11
30
54.58
11
22.76
21
2.34
31
54.04
12
22.66
22
3.11
32
53.49
13
22.54
23
3.89
33
54.04
0
3DFACE
8
Concrete bases
10
22.66
20
3.11
30
54.58
11
22.76
21
2.34
31
54.04
12
22.66
22
3.11
32
53.49
13
22.54
23
3.89
33
54.04
0
3DFACE
8
Concrete bases
10
22.91
20
3.15
30
54.58
11
23.0
21
2.36
31
54.04
12
22.91
22
3.15
32
53.49
13
22.79
23
3.93
33
54.04
0
3DFACE
8
Concrete bases
10
22.91
20
3.15
30
54.58
11
23.0
21
2.36
31
54.04
12
22.91
22
3.15
32
53.49
13
22.79
23
3.93
33
54.04
0
3DFACE
8
Concrete bases
10
23.16
20
3.18
30
54.58
11
23.25
21
2.39
31
54.04
12
23.16
22
3.18
32
53.49
13
23.04
23
3.97
33
54.04
0
3DFACE
8
Concrete bases
10
23.16
20
3.18
30
54.58
11
23.25
21
2.39
31
54.04
12
23.16
22
3.18
32
53.49
13
23.04
23
3.97
33
54.04
0
3DFACE
8
Concrete bases
10
23.46
20
3.22
30
54.58
11
23.55
21
2.42
31
54.04
12
23.46
22
3.22
32
53.49
13
23.33
23
4.03
33
54.04
0
3DFACE
8
Concrete bases
10
22.0
20
4.58
30
54.58
11
22.15
21
3.82
31
54.04
12
22.0
22
4.58
32
53.49
13
21.84
23
5.32
33
54.04
0
3DFACE
8
Concrete bases
10
22.4
20
4.66
30
54.58
11
22.54
21
3.89
31
54.04
12
22.4
22
4.66
32
53.49
13
22.23
23
5.41
33
54.04
0
3DFACE
8
Concrete bases
10
22.4
20
4.66
30
54.58
11
22.54
21
3.89
31
54.04
12
22.4
22
4.66
32
53.49
13
22.23
23
5.41
33
54.04
0
3DFACE
8
Concrete bases
10
22.64
20
4.71
30
54.58
11
22.79
21
3.93
31
54.04
12
22.64
22
4.71
32
53.49
13
22.47
23
5.47
33
54.04
0
3DFACE
8
Concrete bases
10
22.64
20
4.71
30
54.58
11
22.79
21
3.93
31
54.04
12
22.64
22
4.71
32
53.49
13
22.47
23
5.47
33
54.04
0
3DFACE
8
Concrete bases
10
22.89
20
4.76
30
54.58
11
23.04
21
3.97
31
54.04
12
22.89
22
4.76
32
53.49
13
22.71
23
5.53
33
54.04
0
3DFACE
8
Concrete bases
10
22.89
20
4.76
30
54.58
11
23.04
21
3.97
31
54.04
12
22.89
22
4.76
32
53.49
13
22.71
23
5.53
33
54.04
0
3DFACE
8
Concrete bases
10
23.18
20
4.82
30
54.58
11
23.33
21
4.03
31
54.04
12
23.18
22
4.82
32
53.49
13
23.0
23
5.6
33
54.04
0
3DFACE
8
Concrete bases
10
21.64
20
6.06
30
54.58
11
21.84
21
5.32
31
54.04
12
21.64
22
6.06
32
53.49
13
21.42
23
6.8
33
54.04
0
3DFACE
8
Concrete bases
10
22.03
20
6.17
30
54.58
11
22.23
21
5.41
31
54.04
12
22.03
22
6.17
32
53.49
13
21.8
23
6.92
33
54.04
0
3DFACE
8
Concrete bases
10
22.03
20
6.17
30
54.58
11
22.23
21
5.41
31
54.04
12
22.03
22
6.17
32
53.49
13
21.8
23
6.92
33
54.04
0
3DFACE
8
Concrete bases
10
22.27
20
6.24
30
54.58
11
22.47
21
5.47
31
54.04
12
22.27
22
6.24
32
53.49
13
22.04
23
7.0
33
54.04
0
3DFACE
8
Concrete bases
10
22.27
20
6.24
30
54.58
11
22.47
21
5.47
31
54.04
12
22.27
22
6.24
32
53.49
13
22.04
23
7.0
33
54.04
0
3DFACE
8
Concrete bases
10
22.51
20
6.31
30
54.58
11
22.71
21
5.53
31
54.04
12
22.51
22
6.31
32
53.49
13
22.28
23
7.07
33
54.04
0
3DFACE
8
Concrete bases
10
22.51
20
6.31
30
54.58
11
22.71
21
5.53
31
54.04
12
22.51
22
6.31
32
53.49
13
22.28
23
7.07
33
54.04
0
3DFACE
8
Concrete bases
10
22.8
20
6.39
30
54.58
11
23.0
21
5.6
31
54.04
12
22.8
22
6.39
32
53.49
13
22.57
23
7.16
33
54.04
0
3DFACE
8
Concrete bases
10
21.18
20
7.53
30
54.58
11
21.42
21
6.8
31
54.04
12
21.18
22
7.53
32
53.49
13
20.91
23
8.24
33
54.04
0
3DFACE
8
Concrete bases
10
21.55
20
7.67
30
54.58
11
21.8
21
6.92
31
54.04
12
21.55
22
7.67
32
53.49
13
21.28
23
8.39
33
54.04
0
3DFACE
8
Concrete bases
10
21.55
20
7.67
30
54.58
11
21.8
21
6.92
31
54.04
12
21.55
22
7.67
32
53.49
13
21.28
23
8.39
33
54.04
0
3DFACE
8
Concrete bases
10
21.79
20
7.75
30
54.58
11
22.04
21
7.0
31
54.04
12
21.79
22
7.75
32
53.49
13
21.51
23
8.48
33
54.04
0
3DFACE
8
Concrete bases
10
21.79
20
7.75
30
54.58
11
22.04
21
7.0
31
54.04
12
21.79
22
7.75
32
53.49
13
21.51
23
8.48
33
54.04
0
3DFACE
8
Concrete bases
10
22.02
20
7.83
30
54.58
11
22.28
21
7.07
31
54.04
12
22.02
22
7.83
32
53.49
13
21.75
23
8.57
33
54.04
0
3DFACE
8
Concrete bases
10
22.02
20
7.83
30
54.58
11
22.28
21
7.07
31
54.04
12
22.02
22
7.83
32
53.49
13
21.75
23
8.57
33
54.04
0
3DFACE
8
Concrete bases
10
22.31
20
7.93
30
54.58
11
22.57
21
7.16
31
54.04
12
22.31
22
7.93
32
53.49
13
22.03
23
8.68
33
54.04
0
3DFACE
8
Concrete bases
10
22.42
20
-1.53
30
54.58
11
22.36
21
-2.3
31
54.04
12
22.42
22
-1.53
32
53.49
13
22.46
23
-0.77
33
54.04
0
3DFACE
8
Concrete bases
10
22.82
20
-1.56
30
54.58
11
22.76
21
-2.34
31
54.04
12
22.82
22
-1.56
32
53.49
13
22.86
23
-0.78
33
54.04
0
3DFACE
8
Concrete bases
10
22.82
20
-1.56
30
54.58
11
22.76
21
-2.34
31
54.04
12
22.82
22
-1.56
32
53.49
13
22.86
23
-0.78
33
54.04
0
3DFACE
8
Concrete bases
10
23.07
20
-1.57
30
54.58
11
23.0
21
-2.36
31
54.04
12
23.07
22
-1.57
32
53.49
13
23.11
23
-0.79
33
54.04
0
3DFACE
8
Concrete bases
10
23.07
20
-1.57
30
54.58
11
23.0
21
-2.36
31
54.04
12
23.07
22
-1.57
32
53.49
13
23.11
23
-0.79
33
54.04
0
3DFACE
8
Concrete bases
10
23.32
20
-1.59
30
54.58
11
23.25
21
-2.39
31
54.04
12
23.32
22
-1.59
32
53.49
13
23.36
23
-0.8
33
54.04
0
3DFACE
8
Concrete bases
10
23.32
20
-1.59
30
54.58
11
23.25
21
-2.39
31
54.04
12
23.32
22
-1.59
32
53.49
13
23.36
23
-0.8
33
54.04
0
3DFACE
8
Concrete bases
10
23.62
20
-1.61
30
54.58
11
23.55
21
-2.42
31
54.04
12
23.62
22
-1.61
32
53.49
13
23.66
23
-0.81
33
54.04
0
3DFACE
8
Concrete bases
10
22.48
20
0.0
30
54.58
11
22.46
21
-0.77
31
54.04
12
22.48
22
0.0
32
53.49
13
22.46
23
0.77
33
54.04
0
3DFACE
8
Concrete bases
10
22.88
20
0.0
30
54.58
11
22.86
21
-0.78
31
54.04
12
22.88
22
0.0
32
53.49
13
22.86
23
0.78
33
54.04
0
3DFACE
8
Concrete bases
10
22.88
20
0.0
30
54.58
11
22.86
21
-0.78
31
54.04
12
22.88
22
0.0
32
53.49
13
22.86
23
0.78
33
54.04
0
3DFACE
8
Concrete bases
10
23.13
20
0.0
30
54.58
11
23.11
21
-0.79
31
54.04
12
23.13
22
0.0
32
53.49
13
23.11
23
0.79
33
54.04
0
3DFACE
8
Concrete bases
10
23.13
20
0.0
30
54.58
11
23.11
21
-0.79
31
54.04
12
23.13
22
0.0
32
53.49
13
23.11
23
0.79
33
54.04
0
3DFACE
8
Concrete bases
10
23.38
20
0.0
30
54.58
11
23.36
21
-0.8
31
54.04
12
23.38
22
0.0
32
53.49
13
23.36
23
0.8
33
54.04
0
3DFACE
8
Concrete bases
10
23.38
20
0.0
30
54.58
11
23.36
21
-0.8
31
54.04
12
23.38
22
0.0
32
53.49
13
23.36
23
0.8
33
54.04
0
3DFACE
8
Concrete bases
10
23.68
20
0.0
30
54.58
11
23.66
21
-0.81
31
54.04
12
23.68
22
0.0
32
53.49
13
23.66
23
0.81
33
54.04
0
3DFACE
8
Concrete bases
10
22.36
20
2.3
30
54.04
11
22.42
21
1.54
31
53.49
12
22.36
22
2.3
32
52.94
13
22.27
23
3.06
33
53.49
0
3DFACE
8
Concrete bases
10
22.76
20
2.34
30
54.04
11
22.82
21
1.57
31
53.49
12
22.76
22
2.34
32
52.94
13
22.66
23
3.11
33
53.49
0
3DFACE
8
Concrete bases
10
22.76
20
2.34
30
54.04
11
22.82
21
1.57
31
53.49
12
22.76
22
2.34
32
52.94
13
22.66
23
3.11
33
53.49
0
3DFACE
8
Concrete bases
10
23.0
20
2.36
30
54.04
11
23.07
21
1.58
31
53.49
12
23.0
22
2.36
32
52.94
13
22.91
23
3.15
33
53.49
0
3DFACE
8
Concrete bases
10
23.0
20
2.36
30
54.04
11
23.07
21
1.58
31
53.49
12
23.0
22
2.36
32
52.94
13
22.91
23
3.15
33
53.49
0
3DFACE
8
Concrete bases
10
23.25
20
2.39
30
54.04
11
23.32
21
1.6
31
53.49
12
23.25
22
2.39
32
52.94
13
23.16
23
3.18
33
53.49
0
3DFACE
8
Concrete bases
10
23.25
20
2.39
30
54.04
11
23.32
21
1.6
31
53.49
12
23.25
22
2.39
32
52.94
13
23.16
23
3.18
33
53.49
0
3DFACE
8
Concrete bases
10
23.55
20
2.42
30
54.04
11
23.62
21
1.62
31
53.49
12
23.55
22
2.42
32
52.94
13
23.46
23
3.22
33
53.49
0
3DFACE
8
SOLID_8NODES
10
22.36
20
2.3
30
54.04
11
22.42
21
1.54
31
53.49
12
22.36
22
2.3
32
52.94
13
22.27
23
3.06
33
53.49
0
3DFACE
8
SOLID_8NODES
10
22.76
20
2.34
30
54.04
11
22.82
21
1.57
31
53.49
12
22.76
22
2.34
32
52.94
13
22.66
23
3.11
33
53.49
0
3DFACE
8
SOLID_8NODES
10
22.76
20
2.34
30
54.04
11
22.82
21
1.57
31
53.49
12
22.76
22
2.34
32
52.94
13
22.66
23
3.11
33
53.49
0
3DFACE
8
SOLID_8NODES
10
23.0
20
2.36
30
54.04
11
23.07
21
1.58
31
53.49
12
23.0
22
2.36
32
52.94
13
22.91
23
3.15
33
53.49
0
3DFACE
8
SOLID_8NODES
10
23.0
20
2.36
30
54.04
11
23.07
21
1.58
31
53.49
12
23.0
22
2.36
32
52.94
13
22.91
23
3.15
33
53.49
0
3DFACE
8
SOLID_8NODES
10
23.25
20
2.39
30
54.04
11
23.32
21
1.6
31
53.49
12
23.25
22
2.39
32
52.94
13
23.16
23
3.18
33
53.49
0
3DFACE
8
SOLID_8NODES
10
23.25
20
2.39
30
54.04
11
23.32
21
1.6
31
53.49
12
23.25
22
2.39
32
52.94
13
23.16
23
3.18
33
53.49
0
3DFACE
8
SOLID_8NODES
10
23.55
20
2.42
30
54.04
11
23.62
21
1.62
31
53.49
12
23.55
22
2.42
32
52.94
13
23.46
23
3.22
33
53.49
0
3DFACE
8
SOLID_8NODES
10
22.15
20
3.82
30
54.04
11
22.27
21
3.06
31
53.49
12
22.15
22
3.82
32
52.94
13
22.0
23
4.58
33
53.49
0
3DFACE
8
SOLID_8NODES
10
22.54
20
3.89
30
54.04
11
22.66
21
3.11
31
53.49
12
22.54
22
3.89
32
52.94
13
22.4
23
4.66
33
53.49
0
3DFACE
8
SOLID_8NODES
10
22.54
20
3.89
30
54.04
11
22.66
21
3.11
31
53.49
12
22.54
22
3.89
32
52.94
13
22.4
23
4.66
33
53.49
0
3DFACE
8
SOLID_8NODES
10
22.79
20
3.93
30
54.04
11
22.91
21
3.15
31
53.49
12
22.79
22
3.93
32
52.94
13
22.64
23
4.71
33
53.49
0
3DFACE
8
SOLID_8NODES
10
22.79
20
3.93
30
54.04
11
22.91
21
3.15
31
53.49
12
22.79
22
3.93
32
52.94
13
22.64
23
4.71
33
53.49
0
3DFACE
8
SOLID_8NODES
10
23.04
20
3.97
30
54.04
11
23.16
21
3.18
31
53.49
12
23.04
22
3.97
32
52.94
13
22.89
23
4.76
33
53.49
0
3DFACE
8
SOLID_8NODES
10
23.04
20
3.97
30
54.04
11
23.16
21
3.18
31
53.49
12
23.04
22
3.97
32
52.94
13
22.89
23
4.76
33
53.49
0
3DFACE
8
SOLID_8NODES
10
23.33
20
4.03
30
54.04
11
23.46
21
3.22
31
53.49
12
23.33
22
4.03
32
52.94
13
23.18
23
4.82
33
53.49
0
3DFACE
8
Concrete bases
10
21.84
20
5.32
30
54.04
11
22.0
21
4.58
31
53.49
12
21.84
22
5.32
32
52.94
13
21.64
23
6.06
33
53.49
0
3DFACE
8
Concrete bases
10
22.23
20
5.41
30
54.04
11
22.4
21
4.66
31
53.49
12
22.23
22
5.41
32
52.94
13
22.03
23
6.17
33
53.49
0
3DFACE
8
Concrete bases
10
22.23
20
5.41
30
54.04
11
22.4
21
4.66
31
53.49
12
22.23
22
5.41
32
52.94
13
22.03
23
6.17
33
53.49
0
3DFACE
8
Concrete bases
10
22.47
20
5.47
30
54.04
11
22.64
21
4.71
31
53.49
12
22.47
22
5.47
32
52.94
13
22.27
23
6.24
33
53.49
0
3DFACE
8
Concrete bases
10
22.47
20
5.47
30
54.04
11
22.64
21
4.71
31
53.49
12
22.47
22
5.47
32
52.94
13
22.27
23
6.24
33
53.49
0
3DFACE
8
Concrete bases
10
22.71
20
5.53
30
54.04
11
22.89
21
4.76
31
53.49
12
22.71
22
5.53
32
52.94
13
22.51
23
6.31
33
53.49
0
3DFACE
8
Concrete bases
10
22.71
20
5.53
30
54.04
11
22.89
21
4.76
31
53.49
12
22.71
22
5.53
32
52.94
13
22.51
23
6.31
33
53.49
0
3DFACE
8
Concrete bases
10
23.0
20
5.6
30
54.04
11
23.18
21
4.82
31
53.49
12
23.0
22
5.6
32
52.94
13
22.8
23
6.39
33
53.49
0
3DFACE
8
SOLID_8NODES
10
21.84
20
5.32
30
54.04
11
22.0
21
4.58
31
53.49
12
21.84
22
5.32
32
52.94
13
21.64
23
6.06
33
53.49
0
3DFACE
8
SOLID_8NODES
10
22.23
20
5.41
30
54.04
11
22.4
21
4.66
31
53.49
12
22.23
22
5.41
32
52.94
13
22.03
23
6.17
33
53.49
0
3DFACE
8
SOLID_8NODES
10
22.23
20
5.41
30
54.04
11
22.4
21
4.66
31
53.49
12
22.23
22
5.41
32
52.94
13
22.03
23
6.17
33
53.49
0
3DFACE
8
SOLID_8NODES
10
22.47
20
5.47
30
54.04
11
22.64
21
4.71
31
53.49
12
22.47
22
5.47
32
52.94
13
22.27
23
6.24
33
53.49
0
3DFACE
8
SOLID_8NODES
10
22.47
20
5.47
30
54.04
11
22.64
21
4.71
31
53.49
12
22.47
22
5.47
32
52.94
13
22.27
23
6.24
33
53.49
0
3DFACE
8
SOLID_8NODES
10
22.71
20
5.53
30
54.04
11
22.89
21
4.76
31
53.49
12
22.71
22
5.53
32
52.94
13
22.51
23
6.31
33
53.49
0
3DFACE
8
SOLID_8NODES
10
22.71
20
5.53
30
54.04
11
22.89
21
4.76
31
53.49
12
22.71
22
5.53
32
52.94
13
22.51
23
6.31
33
53.49
0
3DFACE
8
SOLID_8NODES
10
23.0
20
5.6
30
54.04
11
23.18
21
4.82
31
53.49
12
23.0
22
5.6
32
52.94
13
22.8
23
6.39
33
53.49
0
3DFACE
8
Concrete bases
10
21.42
20
6.8
30
54.04
11
21.64
21
6.06
31
53.49
12
21.42
22
6.8
32
52.94
13
21.18
23
7.53
33
53.49
0
3DFACE
8
Concrete bases
10
21.8
20
6.92
30
54.04
11
22.03
21
6.17
31
53.49
12
21.8
22
6.92
32
52.94
13
21.55
23
7.67
33
53.49
0
3DFACE
8
Concrete bases
10
21.8
20
6.92
30
54.04
11
22.03
21
6.17
31
53.49
12
21.8
22
6.92
32
52.94
13
21.55
23
7.67
33
53.49
0
3DFACE
8
Concrete bases
10
22.04
20
7.0
30
54.04
11
22.27
21
6.24
31
53.49
12
22.04
22
7.0
32
52.94
13
21.79
23
7.75
33
53.49
0
3DFACE
8
Concrete bases
10
22.04
20
7.0
30
54.04
11
22.27
21
6.24
31
53.49
12
22.04
22
7.0
32
52.94
13
21.79
23
7.75
33
53.49
0
3DFACE
8
Concrete bases
10
22.28
20
7.07
30
54.04
11
22.51
21
6.31
31
53.49
12
22.28
22
7.07
32
52.94
13
22.02
23
7.83
33
53.49
0
3DFACE
8
Concrete bases
10
22.28
20
7.07
30
54.04
11
22.51
21
6.31
31
53.49
12
22.28
22
7.07
32
52.94
13
22.02
23
7.83
33
53.49
0
3DFACE
8
Concrete bases
10
22.57
20
7.16
30
54.04
11
22.8
21
6.39
31
53.49
12
22.57
22
7.16
32
52.94
13
22.31
23
7.93
33
53.49
0
3DFACE
8
Concrete bases
10
22.36
20
-2.3
30
54.04
11
22.27
21
-3.06
31
53.49
12
22.36
22
-2.3
32
52.94
13
22.42
23
-1.53
33
53.49
0
3DFACE
8
Concrete bases
10
22.76
20
-2.34
30
54.04
11
22.66
21
-3.11
31
53.49
12
22.76
22
-2.34
32
52.94
13
22.82
23
-1.56
33
53.49
0
3DFACE
8
Concrete bases
10
22.76
20
-2.34
30
54.04
11
22.66
21
-3.11
31
53.49
12
22.76
22
-2.34
32
52.94
13
22.82
23
-1.56
33
53.49
0
3DFACE
8
Concrete bases
10
23.0
20
-2.36
30
54.04
11
22.91
21
-3.15
31
53.49
12
23.0
22
-2.36
32
52.94
13
23.07
23
-1.57
33
53.49
0
3DFACE
8
Concrete bases
10
23.0
20
-2.36
30
54.04
11
22.91
21
-3.15
31
53.49
12
23.0
22
-2.36
32
52.94
13
23.07
23
-1.57
33
53.49
0
3DFACE
8
Concrete bases
10
23.25
20
-2.39
30
54.04
11
23.16
21
-3.18
31
53.49
12
23.25
22
-2.39
32
52.94
13
23.32
23
-1.59
33
53.49
0
3DFACE
8
Concrete bases
10
23.25
20
-2.39
30
54.04
11
23.16
21
-3.18
31
53.49
12
23.25
22
-2.39
32
52.94
13
23.32
23
-1.59
33
53.49
0
3DFACE
8
Concrete bases
10
23.55
20
-2.42
30
54.04
11
23.46
21
-3.22
31
53.49
12
23.55
22
-2.42
32
52.94
13
23.62
23
-1.61
33
53.49
0
3DFACE
8
Concrete bases
10
22.46
20
-0.77
30
54.04
11
22.42
21
-1.53
31
53.49
12
22.46
22
-0.77
32
52.94
13
22.48
23
0.0
33
53.49
0
3DFACE
8
Concrete bases
10
22.86
20
-0.78
30
54.04
11
22.82
21
-1.56
31
53.49
12
22.86
22
-0.78
32
52.94
13
22.88
23
0.0
33
53.49
0
3DFACE
8
Concrete bases
10
22.86
20
-0.78
30
54.04
11
22.82
21
-1.56
31
53.49
12
22.86
22
-0.78
32
52.94
13
22.88
23
0.0
33
53.49
0
3DFACE
8
Concrete bases
10
23.11
20
-0.79
30
54.04
11
23.07
21
-1.57
31
53.49
12
23.11
22
-0.79
32
52.94
13
23.13
23
0.0
33
53.49
0
3DFACE
8
Concrete bases
10
23.11
20
-0.79
30
54.04
11
23.07
21
-1.57
31
53.49
12
23.11
22
-0.79
32
52.94
13
23.13
23
0.0
33
53.49
0
3DFACE
8
Concrete bases
10
23.36
20
-0.8
30
54.04
11
23.32
21
-1.59
31
53.49
12
23.36
22
-0.8
32
52.94
13
23.38
23
0.0
33
53.49
0
3DFACE
8
Concrete bases
10
23.36
20
-0.8
30
54.04
11
23.32
21
-1.59
31
53.49
12
23.36
22
-0.8
32
52.94
13
23.38
23
0.0
33
53.49
0
3DFACE
8
Concrete bases
10
23.66
20
-0.81
30
54.04
11
23.62
21
-1.61
31
53.49
12
23.66
22
-0.81
32
52.94
13
23.68
23
0.0
33
53.49
0
3DFACE
8
Concrete bases
10
22.46
20
0.77
30
55.13
11
22.48
21
0.0
31
54.58
12
22.46
22
0.77
32
54.04
13
22.42
23
1.54
33
54.58
0
3DFACE
8
Concrete bases
10
22.86
20
0.78
30
55.13
11
22.88
21
0.0
31
54.58
12
22.86
22
0.78
32
54.04
13
22.82
23
1.57
33
54.58
0
3DFACE
8
Concrete bases
10
22.86
20
0.78
30
55.13
11
22.88
21
0.0
31
54.58
12
22.86
22
0.78
32
54.04
13
22.82
23
1.57
33
54.58
0
3DFACE
8
Concrete bases
10
23.11
20
0.79
30
55.13
11
23.13
21
0.0
31
54.58
12
23.11
22
0.79
32
54.04
13
23.07
23
1.58
33
54.58
0
3DFACE
8
Concrete bases
10
23.11
20
0.79
30
55.13
11
23.13
21
0.0
31
54.58
12
23.11
22
0.79
32
54.04
13
23.07
23
1.58
33
54.58
0
3DFACE
8
Concrete bases
10
23.36
20
0.8
30
55.13
11
23.38
21
0.0
31
54.58
12
23.36
22
0.8
32
54.04
13
23.32
23
1.6
33
54.58
0
3DFACE
8
Concrete bases
10
23.36
20
0.8
30
55.13
11
23.38
21
0.0
31
54.58
12
23.36
22
0.8
32
54.04
13
23.32
23
1.6
33
54.58
0
3DFACE
8
Concrete bases
10
23.66
20
0.81
30
55.13
11
23.68
21
0.0
31
54.58
12
23.66
22
0.81
32
54.04
13
23.62
23
1.62
33
54.58
0
3DFACE
8
Concrete bases
10
22.46
20
0.77
30
54.04
11
22.48
21
0.0
31
53.49
12
22.46
22
0.77
32
52.94
13
22.42
23
1.54
33
53.49
0
3DFACE
8
Concrete bases
10
22.86
20
0.78
30
54.04
11
22.88
21
0.0
31
53.49
12
22.86
22
0.78
32
52.94
13
22.82
23
1.57
33
53.49
0
3DFACE
8
Concrete bases
10
22.86
20
0.78
30
54.04
11
22.88
21
0.0
31
53.49
12
22.86
22
0.78
32
52.94
13
22.82
23
1.57
33
53.49
0
3DFACE
8
Concrete bases
10
23.11
20
0.79
30
54.04
11
23.13
21
0.0
31
53.49
12
23.11
22
0.79
32
52.94
13
23.07
23
1.58
33
53.49
0
3DFACE
8
Concrete bases
10
23.11
20
0.79
30
54.04
11
23.13
21
0.0
31
53.49
12
23.11
22
0.79
32
52.94
13
23.07
23
1.58
33
53.49
0
3DFACE
8
Concrete bases
10
23.36
20
0.8
30
54.04
11
23.38
21
0.0
31
53.49
12
23.36
22
0.8
32
52.94
13
23.32
23
1.6
33
53.49
0
3DFACE
8
Concrete bases
10
23.36
20
0.8
30
54.04
11
23.38
21
0.0
31
53.49
12
23.36
22
0.8
32
52.94
13
23.32
23
1.6
33
53.49
0
3DFACE
8
Concrete bases
10
23.66
20
0.81
30
54.04
11
23.68
21
0.0
31
53.49
12
23.66
22
0.81
32
52.94
13
23.62
23
1.62
33
53.49
0
3DFACE
8
Concrete bases
10
22.42
20
1.54
30
58.95
11
22.47
21
0.38
31
57.58
12
22.42
22
1.54
32
56.77
13
22.32
23
2.68
33
57.58
0
3DFACE
8
Concrete bases
10
22.82
20
1.57
30
58.95
11
22.87
21
0.39
31
57.58
12
22.82
22
1.57
32
56.77
13
22.71
23
2.73
33
57.58
0
3DFACE
8
Concrete bases
10
22.82
20
1.57
30
58.95
11
22.87
21
0.39
31
57.58
12
22.82
22
1.57
32
56.77
13
22.71
23
2.73
33
57.58
0
3DFACE
8
Concrete bases
10
23.07
20
1.58
30
58.95
11
23.12
21
0.39
31
57.58
12
23.07
22
1.58
32
56.77
13
22.96
23
2.76
33
57.58
0
3DFACE
8
Concrete bases
10
23.07
20
1.58
30
58.95
11
23.12
21
0.39
31
57.58
12
23.07
22
1.58
32
56.77
13
22.96
23
2.76
33
57.58
0
3DFACE
8
Concrete bases
10
23.32
20
1.6
30
58.95
11
23.37
21
0.4
31
57.58
12
23.32
22
1.6
32
56.77
13
23.21
23
2.79
33
57.58
0
3DFACE
8
Concrete bases
10
23.32
20
1.6
30
58.95
11
23.37
21
0.4
31
57.58
12
23.32
22
1.6
32
56.77
13
23.21
23
2.79
33
57.58
0
3DFACE
8
Concrete bases
10
23.62
20
1.62
30
58.95
11
23.67
21
0.4
31
57.58
12
23.62
22
1.62
32
56.77
13
23.51
23
2.83
33
57.58
0
3DFACE
8
Concrete bases
10
22.42
20
1.54
30
56.77
11
22.46
21
0.77
31
56.22
12
22.42
22
1.54
32
55.67
13
22.36
23
2.3
33
56.22
0
3DFACE
8
Concrete bases
10
22.82
20
1.57
30
56.77
11
22.86
21
0.78
31
56.22
12
22.82
22
1.57
32
55.67
13
22.76
23
2.34
33
56.22
0
3DFACE
8
Concrete bases
10
22.82
20
1.57
30
56.77
11
22.86
21
0.78
31
56.22
12
22.82
22
1.57
32
55.67
13
22.76
23
2.34
33
56.22
0
3DFACE
8
Concrete bases
10
23.07
20
1.58
30
56.77
11
23.11
21
0.79
31
56.22
12
23.07
22
1.58
32
55.67
13
23.0
23
2.36
33
56.22
0
3DFACE
8
Concrete bases
10
23.07
20
1.58
30
56.77
11
23.11
21
0.79
31
56.22
12
23.07
22
1.58
32
55.67
13
23.0
23
2.36
33
56.22
0
3DFACE
8
Concrete bases
10
23.32
20
1.6
30
56.77
11
23.36
21
0.8
31
56.22
12
23.32
22
1.6
32
55.67
13
23.25
23
2.39
33
56.22
0
3DFACE
8
Concrete bases
10
23.32
20
1.6
30
56.77
11
23.36
21
0.8
31
56.22
12
23.32
22
1.6
32
55.67
13
23.25
23
2.39
33
56.22
0
3DFACE
8
Concrete bases
10
23.62
20
1.62
30
56.77
11
23.66
21
0.81
31
56.22
12
23.62
22
1.62
32
55.67
13
23.55
23
2.42
33
56.22
0
3DFACE
8
Concrete bases
10
22.42
20
1.54
30
55.67
11
22.46
21
0.77
31
55.13
12
22.42
22
1.54
32
54.58
13
22.36
23
2.3
33
55.13
0
3DFACE
8
Concrete bases
10
22.82
20
1.57
30
55.67
11
22.86
21
0.78
31
55.13
12
22.82
22
1.57
32
54.58
13
22.76
23
2.34
33
55.13
0
3DFACE
8
Concrete bases
10
22.82
20
1.57
30
55.67
11
22.86
21
0.78
31
55.13
12
22.82
22
1.57
32
54.58
13
22.76
23
2.34
33
55.13
0
3DFACE
8
Concrete bases
10
23.07
20
1.58
30
55.67
11
23.11
21
0.79
31
55.13
12
23.07
22
1.58
32
54.58
13
23.0
23
2.36
33
55.13
0
3DFACE
8
Concrete bases
10
23.07
20
1.58
30
55.67
11
23.11
21
0.79
31
55.13
12
23.07
22
1.58
32
54.58
13
23.0
23
2.36
33
55.13
0
3DFACE
8
Concrete bases
10
23.32
20
1.6
30
55.67
11
23.36
21
0.8
31
55.13
12
23.32
22
1.6
32
54.58
13
23.25
23
2.39
33
55.13
0
3DFACE
8
Concrete bases
10
23.32
20
1.6
30
55.67
11
23.36
21
0.8
31
55.13
12
23.32
22
1.6
32
54.58
13
23.25
23
2.39
33
55.13
0
3DFACE
8
Concrete bases
10
23.62
20
1.62
30
55.67
11
23.66
21
0.81
31
55.13
12
23.62
22
1.62
32
54.58
13
23.55
23
2.42
33
55.13
0
3DFACE
8
Concrete bases
10
22.42
20
1.54
30
54.58
11
22.46
21
0.77
31
54.04
12
22.42
22
1.54
32
53.49
13
22.36
23
2.3
33
54.04
0
3DFACE
8
Concrete bases
10
22.82
20
1.57
30
54.58
11
22.86
21
0.78
31
54.04
12
22.82
22
1.57
32
53.49
13
22.76
23
2.34
33
54.04
0
3DFACE
8
Concrete bases
10
22.82
20
1.57
30
54.58
11
22.86
21
0.78
31
54.04
12
22.82
22
1.57
32
53.49
13
22.76
23
2.34
33
54.04
0
3DFACE
8
Concrete bases
10
23.07
20
1.58
30
54.58
11
23.11
21
0.79
31
54.04
12
23.07
22
1.58
32
53.49
13
23.0
23
2.36
33
54.04
0
3DFACE
8
Concrete bases
10
23.07
20
1.58
30
54.58
11
23.11
21
0.79
31
54.04
12
23.07
22
1.58
32
53.49
13
23.0
23
2.36
33
54.04
0
3DFACE
8
Concrete bases
10
23.32
20
1.6
30
54.58
11
23.36
21
0.8
31
54.04
12
23.32
22
1.6
32
53.49
13
23.25
23
2.39
33
54.04
0
3DFACE
8
Concrete bases
10
23.32
20
1.6
30
54.58
11
23.36
21
0.8
31
54.04
12
23.32
22
1.6
32
53.49
13
23.25
23
2.39
33
54.04
0
3DFACE
8
Concrete bases
10
23.62
20
1.62
30
54.58
11
23.66
21
0.81
31
54.04
12
23.62
22
1.62
32
53.49
13
23.55
23
2.42
33
54.04
0
ENDSEC
0
EOF
