0
SECTION
2
HEADER
9
$ACADVER
1
AC1006
9
$INSBASE
10
0.0
20
0.0
30
0.0
9
$EXTMIN
10
0.0
20
0.0
9
$EXTMAX
10
0.0
20
0.0
0
ENDSEC
0
SECTION
2
TABLES
0
TABLE
2
LTYPE
70
1
0
LTYPE
2
CONTINUOUS
70
64
3
Solid line
72
65
73
0
40
0.0
0
ENDTAB
0
TABLE
2
LAYER
70
1
0
LAYER
2
PYDXF
70
64
62
7
6
continuous
0
ENDTAB
0
TABLE
2
STYLE
70
1
0
STYLE
2
STANDARD
70
0
40
0
41
40
50
50
71
0
42
1
3
ARIAL.TTF
4

0
ENDTAB
0
TABLE
2
VIEW
70
0
0
ENDTAB
0
ENDSEC
0
SECTION
2
BLOCKS
0
ENDSEC
0
SECTION
2
ENTITIES
0
3DFACE
8
Faces
10
10.34
20
19.96
30
57.86
11
11.67
21
19.21
31
58.95
12
10.68
22
19.78
32
57.58
0
3DFACE
8
Faces
10
10.89
20
21.02
30
57.86
11
11.25
21
20.83
31
57.58
12
12.3
22
20.23
32
58.95
0
3DFACE
8
Faces
10
8.95
20
20.62
30
58.95
11
10.34
21
19.96
31
57.86
12
10.0
22
20.13
32
57.58
0
3DFACE
8
Faces
10
9.43
20
21.72
30
58.95
11
10.54
21
21.2
31
57.58
12
10.89
22
21.02
32
57.86
0
3DFACE
8
Faces
10
8.95
20
20.62
30
58.95
11
10.3108247698
21
19.9145724539
31
58.95
12
10.34
22
19.96
32
57.86
0
3DFACE
8
Faces
10
10.89
20
21.02
30
57.86
11
10.8660925376
21
20.9744327941
31
58.95
12
9.43
22
21.72
32
58.95
0
3DFACE
8
Faces
10
10.34
20
19.96
30
57.13
11
10.34
21
19.96
31
57.86
12
10.68
22
19.78
32
57.58
0
3DFACE
8
Faces
10
10.34
20
19.96
30
57.13
11
10.0
21
20.13
31
57.58
12
10.34
22
19.96
32
57.86
0
3DFACE
8
Faces
10
11.25
20
20.83
30
57.58
11
10.89
21
21.02
31
57.86
12
10.89
22
21.02
32
57.13
0
3DFACE
8
Faces
10
10.89
20
21.02
30
57.13
11
10.89
21
21.02
31
57.86
12
10.54
22
21.2
32
57.58
0
3DFACE
8
Faces
10
11.1747504486
20
19.4951436811
30
57.1752041784
11
12.65
21
18.58
31
57.58
12
11.67
22
19.21
32
56.77
0
3DFACE
8
Faces
10
12.65
20
18.58
30
57.58
11
11.1747504486
21
19.4951436811
31
57.1752041784
12
11.67
22
19.21
32
58.95
0
3DFACE
8
Faces
10
13.32
20
19.57
30
57.58
11
12.3
21
20.23
31
58.95
12
11.7754833254
22
20.5297238141
32
57.174627149
0
3DFACE
8
Faces
10
12.3
20
20.23
30
56.77
11
13.32
21
19.57
31
57.58
12
11.7754833254
22
20.5297238141
32
57.174627149
0
3DFACE
8
Faces
10
8.95
20
20.62
30
58.95
11
10.0
21
20.13
31
57.58
12
8.95
22
20.62
32
56.77
0
3DFACE
8
Faces
10
8.95
20
20.62
30
58.95
11
8.95
21
20.62
31
56.77
12
7.88
22
21.05
32
57.58
0
3DFACE
8
Faces
10
10.54
20
21.2
30
57.58
11
9.43
21
21.72
31
58.95
12
9.43
22
21.72
32
56.77
0
3DFACE
8
Faces
10
9.43
20
21.72
30
58.95
11
8.3
21
22.17
31
57.58
12
9.43
22
21.72
32
56.77
0
3DFACE
8
Faces
10
9.65
20
20.3
30
56.22
11
10.6801803106
21
19.7749018898
31
56.674758702
12
10.34
22
19.96
32
55.67
0
3DFACE
8
Faces
10
10.34
20
19.96
30
57.13
11
10.6801803106
21
19.7749018898
31
56.674758702
12
9.65
22
20.3
32
56.22
0
3DFACE
8
Faces
10
10.5298072807
20
21.2000963596
30
56.6747564243
11
11.61
21
20.64
31
56.22
12
10.89
22
21.02
32
57.13
0
3DFACE
8
Faces
10
10.17
20
21.38
30
56.22
11
10.89
21
21.02
31
55.67
12
10.5298072807
22
21.2000963596
32
56.6747564243
0
3DFACE
8
Faces
10
10.0
20
20.13
30
57.58
11
10.34
21
19.96
31
57.13
12
9.65
22
20.3
32
56.22
0
3DFACE
8
Faces
10
8.95
20
20.62
30
56.77
11
10.0
21
20.13
31
57.58
12
9.65
22
20.3
32
56.22
0
3DFACE
8
Faces
10
10.5298072807
20
21.2000963596
30
56.6747564243
11
10.54
21
21.2
31
57.58
12
9.43
22
21.72
32
56.77
0
3DFACE
8
Faces
10
10.17
20
21.38
30
56.22
11
10.5298072807
21
21.2000963596
31
56.6747564243
12
9.43
22
21.72
32
56.77
0
3DFACE
8
Faces
10
11.02
20
19.59
30
56.22
11
10.6801803106
21
19.7749018898
31
56.674758702
12
11.1747504486
22
19.4951436811
32
57.1752041784
0
3DFACE
8
Faces
10
10.6801803106
20
19.7749018898
30
56.674758702
11
10.34
21
19.96
31
57.13
12
10.68
22
19.78
32
57.58
0
3DFACE
8
Faces
10
11.7754833254
20
20.5297238141
30
57.174627149
11
11.61
21
20.64
31
56.22
12
12.3
22
20.23
32
56.77
0
3DFACE
8
Faces
10
11.61
20
20.64
30
56.22
11
11.7754833254
21
20.5297238141
31
57.174627149
12
10.89
22
21.02
32
57.13
0
3DFACE
8
Faces
10
11.67
20
19.21
30
58.95
11
10.3108247698
21
19.9145724539
31
58.95
12
10.8660925376
22
20.9744327941
32
58.95
0
3DFACE
8
Faces
10
9.43
20
21.72
30
58.95
11
10.8660925376
21
20.9744327941
31
58.95
12
8.95
22
20.62
32
58.95
0
3DFACE
8
Faces
10
12.3
20
20.23
30
58.95
11
13.32
21
19.57
31
57.58
12
12.65
22
18.58
32
57.58
0
3DFACE
8
Faces
10
12.3
20
20.23
30
58.95
11
12.65
21
18.58
31
57.58
12
11.67
22
19.21
32
58.95
0
3DFACE
8
Faces
10
11.9848933775
20
19.7198273731
30
56.77
11
13.32
21
19.57
31
57.58
12
12.3
22
20.23
32
56.77
0
3DFACE
8
Faces
10
11.67
20
19.21
30
56.77
11
12.65
21
18.58
31
57.58
12
11.9848933775
22
19.7198273731
32
56.77
0
3DFACE
8
Faces
10
11.9848933775
20
19.7198273731
30
56.77
11
11.61
21
20.64
31
56.22
12
11.3152300905
22
20.1154094831
32
56.22
0
3DFACE
8
Faces
10
11.67
20
19.21
30
56.77
11
11.9848933775
21
19.7198273731
31
56.77
12
11.3152300905
22
20.1154094831
32
56.22
0
3DFACE
8
Faces
10
11.3152300905
20
20.1154094831
30
56.22
11
11.61
21
20.64
31
56.22
12
10.89
22
21.02
32
55.67
0
3DFACE
8
Faces
10
11.02
20
19.59
30
56.22
11
11.3152300905
21
20.1154094831
31
56.22
12
10.34
22
19.96
32
55.67
0
3DFACE
8
Faces
10
7.88
20
21.05
30
57.58
11
9.43
21
21.72
31
58.95
12
8.95
22
20.62
32
58.95
0
3DFACE
8
Faces
10
7.88
20
21.05
30
57.58
11
8.3
21
22.17
31
57.58
12
9.43
22
21.72
32
58.95
0
3DFACE
8
Faces
10
8.95
20
20.62
30
56.77
11
9.43
21
21.72
31
56.77
12
7.88
22
21.05
32
57.58
0
3DFACE
8
Faces
10
9.43
20
21.72
30
56.77
11
8.3
21
22.17
31
57.58
12
7.88
22
21.05
32
57.58
0
3DFACE
8
Faces
10
9.65
20
20.3
30
56.22
11
10.17
21
21.38
31
56.22
12
8.95
22
20.62
32
56.77
0
3DFACE
8
Faces
10
9.43
20
21.72
30
56.77
11
8.95
21
20.62
31
56.77
12
10.17
22
21.38
32
56.22
0
3DFACE
8
Faces
10
10.89
20
21.02
30
55.67
11
9.65
21
20.3
31
56.22
12
10.34
22
19.96
32
55.67
0
3DFACE
8
Faces
10
9.65
20
20.3
30
56.22
11
10.89
21
21.02
31
55.67
12
10.17
22
21.38
32
56.22
0
3DFACE
8
Faces
10
10.8660925376
20
20.9744327941
30
58.95
11
10.3108247698
21
19.9145724539
31
58.95
12
8.95
22
20.62
32
58.95
0
3DFACE
8
Faces
10
10.34
20
19.96
30
57.86
11
10.3108247698
21
19.9145724539
31
58.95
12
11.67
22
19.21
32
58.95
0
3DFACE
8
Faces
10
11.67
20
19.21
30
58.95
11
10.8660925376
21
20.9744327941
31
58.95
12
12.3
22
20.23
32
58.95
0
3DFACE
8
Faces
10
12.3
20
20.23
30
58.95
11
10.8660925376
21
20.9744327941
31
58.95
12
10.89
22
21.02
32
57.86
0
3DFACE
8
Faces
10
10.54
20
21.2
30
57.58
11
10.5298072807
21
21.2000963596
31
56.6747564243
12
10.89
22
21.02
32
57.13
0
3DFACE
8
Faces
10
10.89
20
21.02
30
55.67
11
11.61
21
20.64
31
56.22
12
10.5298072807
22
21.2000963596
32
56.6747564243
0
3DFACE
8
Faces
10
11.02
20
19.59
30
56.22
11
11.1747504486
21
19.4951436811
31
57.1752041784
12
11.67
22
19.21
32
56.77
0
3DFACE
8
Faces
10
10.34
20
19.96
30
55.67
11
10.6801803106
21
19.7749018898
31
56.674758702
12
11.02
22
19.59
32
56.22
0
3DFACE
8
Faces
10
11.1747504486
20
19.4951436811
30
57.1752041784
11
10.6801803106
21
19.7749018898
31
56.674758702
12
10.68
22
19.78
32
57.58
0
3DFACE
8
Faces
10
11.1747504486
20
19.4951436811
30
57.1752041784
11
10.68
21
19.78
31
57.58
12
11.67
22
19.21
32
58.95
0
3DFACE
8
Faces
10
11.3152300905
20
20.1154094831
30
56.22
11
10.89
21
21.02
31
55.67
12
10.34
22
19.96
32
55.67
0
3DFACE
8
Faces
10
11.67
20
19.21
30
56.77
11
11.3152300905
21
20.1154094831
31
56.22
12
11.02
22
19.59
32
56.22
0
3DFACE
8
Faces
10
12.3
20
20.23
30
56.77
11
11.61
21
20.64
31
56.22
12
11.9848933775
22
19.7198273731
32
56.77
0
3DFACE
8
Faces
10
12.65
20
18.58
30
57.58
11
13.32
21
19.57
31
57.58
12
11.9848933775
22
19.7198273731
32
56.77
0
3DFACE
8
Faces
10
11.7754833254
20
20.5297238141
30
57.174627149
11
11.25
21
20.83
31
57.58
12
10.89
22
21.02
32
57.13
0
3DFACE
8
Faces
10
11.7754833254
20
20.5297238141
30
57.174627149
11
12.3
21
20.23
31
58.95
12
11.25
22
20.83
32
57.58
0
3DFACE
8
Boundaries
10
11.67
20
19.21
30
58.95
11
10.68
21
19.78
31
57.58
12
10.34
22
19.96
32
57.86
13
10.34
23
19.96
33
57.86
0
3DFACE
8
Boundaries
10
12.3
20
20.23
30
58.95
11
11.25
21
20.83
31
57.58
12
10.89
22
21.02
32
57.86
13
10.89
23
21.02
33
57.86
0
3DFACE
8
Boundaries
10
8.95
20
20.62
30
58.95
11
10.34
21
19.96
31
57.86
12
10.0
22
20.13
32
57.58
13
10.0
23
20.13
33
57.58
0
3DFACE
8
Boundaries
10
9.43
20
21.72
30
58.95
11
10.89
21
21.02
31
57.86
12
10.54
22
21.2
32
57.58
13
10.54
23
21.2
33
57.58
0
3DFACE
8
Boundaries
10
8.95
20
20.62
30
58.95
11
11.67
21
19.21
31
58.95
12
10.34
22
19.96
32
57.86
13
10.34
23
19.96
33
57.86
0
3DFACE
8
Boundaries
10
9.43
20
21.72
30
58.95
11
12.3
21
20.23
31
58.95
12
10.89
22
21.02
32
57.86
13
10.89
23
21.02
33
57.86
0
3DFACE
8
Boundaries
10
10.0
20
20.13
30
57.58
11
10.34
21
19.96
31
57.86
12
10.68
22
19.78
32
57.58
13
10.34
23
19.96
33
57.13
0
3DFACE
8
Boundaries
10
10.54
20
21.2
30
57.58
11
10.89
21
21.02
31
57.86
12
11.25
22
20.83
32
57.58
13
10.89
23
21.02
33
57.13
0
3DFACE
8
Boundaries
10
11.67
20
19.21
30
58.95
11
12.65
21
18.58
31
57.58
12
11.67
22
19.21
32
56.77
13
10.68
23
19.78
33
57.58
0
3DFACE
8
Boundaries
10
12.3
20
20.23
30
58.95
11
13.32
21
19.57
31
57.58
12
12.3
22
20.23
32
56.77
13
11.25
23
20.83
33
57.58
0
3DFACE
8
Boundaries
10
8.95
20
20.62
30
58.95
11
10.0
21
20.13
31
57.58
12
8.95
22
20.62
32
56.77
13
7.88
23
21.05
33
57.58
0
3DFACE
8
Boundaries
10
9.43
20
21.72
30
58.95
11
10.54
21
21.2
31
57.58
12
9.43
22
21.72
32
56.77
13
8.3
23
22.17
33
57.58
0
3DFACE
8
Boundaries
10
9.65
20
20.3
30
56.22
11
10.34
21
19.96
31
57.13
12
11.02
22
19.59
32
56.22
13
10.34
23
19.96
33
55.67
0
3DFACE
8
Boundaries
10
10.17
20
21.38
30
56.22
11
10.89
21
21.02
31
57.13
12
11.61
22
20.64
32
56.22
13
10.89
23
21.02
33
55.67
0
3DFACE
8
Boundaries
10
8.95
20
20.62
30
56.77
11
10.0
21
20.13
31
57.58
12
10.34
22
19.96
32
57.13
13
9.65
23
20.3
33
56.22
0
3DFACE
8
Boundaries
10
9.43
20
21.72
30
56.77
11
10.54
21
21.2
31
57.58
12
10.89
22
21.02
32
57.13
13
10.17
23
21.38
33
56.22
0
3DFACE
8
Boundaries
10
10.34
20
19.96
30
57.13
11
10.68
21
19.78
31
57.58
12
11.67
22
19.21
32
56.77
13
11.02
23
19.59
33
56.22
0
3DFACE
8
Boundaries
10
10.89
20
21.02
30
57.13
11
11.25
21
20.83
31
57.58
12
12.3
22
20.23
32
56.77
13
11.61
23
20.64
33
56.22
0
3DFACE
8
Boundaries
10
8.95
20
20.62
30
58.95
11
9.43
21
21.72
31
58.95
12
12.3
22
20.23
32
58.95
13
11.67
23
19.21
33
58.95
0
3DFACE
8
Boundaries
10
11.67
20
19.21
30
58.95
11
12.3
21
20.23
31
58.95
12
13.32
22
19.57
32
57.58
13
12.65
23
18.58
33
57.58
0
3DFACE
8
Boundaries
10
11.67
20
19.21
30
56.77
11
12.3
21
20.23
31
56.77
12
13.32
22
19.57
32
57.58
13
12.65
23
18.58
33
57.58
0
3DFACE
8
Boundaries
10
11.02
20
19.59
30
56.22
11
11.67
21
19.21
31
56.77
12
12.3
22
20.23
32
56.77
13
11.61
23
20.64
33
56.22
0
3DFACE
8
Boundaries
10
10.34
20
19.96
30
55.67
11
11.02
21
19.59
31
56.22
12
11.61
22
20.64
32
56.22
13
10.89
23
21.02
33
55.67
0
3DFACE
8
Boundaries
10
8.3
20
22.17
30
57.58
11
7.88
21
21.05
31
57.58
12
8.95
22
20.62
32
58.95
13
9.43
23
21.72
33
58.95
0
3DFACE
8
Boundaries
10
8.3
20
22.17
30
57.58
11
9.43
21
21.72
31
56.77
12
8.95
22
20.62
32
56.77
13
7.88
23
21.05
33
57.58
0
3DFACE
8
Boundaries
10
9.43
20
21.72
30
56.77
11
10.17
21
21.38
31
56.22
12
9.65
22
20.3
32
56.22
13
8.95
23
20.62
33
56.77
0
3DFACE
8
Boundaries
10
10.17
20
21.38
30
56.22
11
10.89
21
21.02
31
55.67
12
10.34
22
19.96
32
55.67
13
9.65
23
20.3
33
56.22
0
ENDSEC
0
EOF
