0
SECTION
2
HEADER
9
$ACADVER
1
AC1006
9
$INSBASE
10
0.0
20
0.0
30
0.0
9
$EXTMIN
10
0.0
20
0.0
9
$EXTMAX
10
0.0
20
0.0
0
ENDSEC
0
SECTION
2
TABLES
0
TABLE
2
LTYPE
70
1
0
LTYPE
2
CONTINUOUS
70
64
3
Solid line
72
65
73
0
40
0.0
0
ENDTAB
0
TABLE
2
LAYER
70
1
0
LAYER
2
PYDXF
70
64
62
7
6
continuous
0
ENDTAB
0
TABLE
2
STYLE
70
1
0
STYLE
2
STANDARD
70
0
40
0
41
40
50
50
71
0
42
1
3
ARIAL.TTF
4

0
ENDTAB
0
TABLE
2
VIEW
70
0
0
ENDTAB
0
ENDSEC
0
SECTION
2
BLOCKS
0
ENDSEC
0
SECTION
2
ENTITIES
0
3DFACE
8
TestBases
10
15.6514
20
-15.6514
30
26.4112
11
15.8695
21
-14.7827
31
26.7791
12
14.9945
22
-14.9945
32
27.1628
13
14.7827
23
-15.8695
33
26.7791
0
3DFACE
8
TestBases
10
15.6536
20
-15.6536
30
26.8087
11
15.8717
21
-14.7848
31
27.1767
12
14.9966
22
-14.9966
32
27.5605
13
14.7848
23
-15.8717
33
27.1767
0
3DFACE
8
TestBases
10
15.6536
20
-15.6536
30
26.8087
11
15.8717
21
-14.7848
31
27.1767
12
14.9966
22
-14.9966
32
27.5605
13
14.7848
23
-15.8717
33
27.1767
0
3DFACE
8
TestBases
10
15.6552
20
-15.6552
30
27.1069
11
15.8733
21
-14.7863
31
27.4749
12
14.9982
22
-14.9982
32
27.8589
13
14.7863
23
-15.8733
33
27.4749
0
3DFACE
8
TestBases
10
15.6552
20
-15.6552
30
27.1069
11
15.8733
21
-14.7863
31
27.4749
12
14.9982
22
-14.9982
32
27.8589
13
14.7863
23
-15.8733
33
27.4749
0
3DFACE
8
TestBases
10
15.6573
20
-15.6573
30
27.5045
11
15.8755
21
-14.7883
31
27.8726
12
15.0003
22
-15.0003
32
28.2567
13
14.7883
23
-15.8755
33
27.8726
0
3DFACE
8
TestBases
10
14.7827
20
-15.8695
30
26.7791
11
14.9945
21
-14.9945
31
27.1628
12
14.1131
22
-15.193
32
27.5224
13
13.9086
23
-16.0735
33
27.1235
0
3DFACE
8
TestBases
10
14.7848
20
-15.8717
30
27.1767
11
14.9966
21
-14.9966
31
27.5605
12
14.1151
22
-15.1952
32
27.9202
13
13.9106
23
-16.0758
33
27.5211
0
3DFACE
8
TestBases
10
14.7848
20
-15.8717
30
27.1767
11
14.9966
21
-14.9966
31
27.5605
12
14.1151
22
-15.1952
32
27.9202
13
13.9106
23
-16.0758
33
27.5211
0
3DFACE
8
TestBases
10
14.7863
20
-15.8733
30
27.4749
11
14.9982
21
-14.9982
31
27.8589
12
14.1166
22
-15.1968
32
28.2186
13
13.912
23
-16.0774
33
27.8195
0
3DFACE
8
TestBases
10
14.7863
20
-15.8733
30
27.4749
11
14.9982
21
-14.9982
31
27.8589
12
14.1166
22
-15.1968
32
28.2186
13
13.912
23
-16.0774
33
27.8195
0
3DFACE
8
TestBases
10
14.7883
20
-15.8755
30
27.8726
11
15.0003
21
-15.0003
31
28.2567
12
14.1186
22
-15.1989
32
28.6165
13
13.9139
23
-16.0796
33
28.2172
0
3DFACE
8
TestBases
10
13.9086
20
-16.0735
30
27.1235
11
14.1131
21
-15.193
31
27.5224
12
13.226
22
-15.3783
32
27.8581
13
13.0297
23
-16.2638
33
27.4445
0
3DFACE
8
TestBases
10
13.9106
20
-16.0758
30
27.5211
11
14.1151
21
-15.1952
31
27.9202
12
13.2279
22
-15.3805
32
28.2559
13
13.0316
23
-16.2661
33
27.8423
0
3DFACE
8
TestBases
10
13.9106
20
-16.0758
30
27.5211
11
14.1151
21
-15.1952
31
27.9202
12
13.2279
22
-15.3805
32
28.2559
13
13.0316
23
-16.2661
33
27.8423
0
3DFACE
8
TestBases
10
13.912
20
-16.0774
30
27.8195
11
14.1166
21
-15.1968
31
28.2186
12
13.2294
22
-15.3822
32
28.5544
13
13.0329
23
-16.2679
33
28.1407
0
3DFACE
8
TestBases
10
13.912
20
-16.0774
30
27.8195
11
14.1166
21
-15.1968
31
28.2186
12
13.2294
22
-15.3822
32
28.5544
13
13.0329
23
-16.2679
33
28.1407
0
3DFACE
8
TestBases
10
13.9139
20
-16.0796
30
28.2172
11
14.1186
21
-15.1989
31
28.6165
12
13.2312
22
-15.3843
32
28.9524
13
13.0347
23
-16.2701
33
28.5386
0
3DFACE
8
TestBases
10
15.193
20
-14.1131
30
27.5224
11
14.9945
21
-14.9945
31
27.1628
12
14.1131
22
-15.193
32
27.5224
13
14.305
23
-14.305
33
27.8966
0
3DFACE
8
TestBases
10
15.1952
20
-14.1151
30
27.9202
11
14.9966
21
-14.9966
31
27.5605
12
14.1151
22
-15.1952
32
27.9202
13
14.3071
23
-14.3071
33
28.2945
0
3DFACE
8
TestBases
10
15.1952
20
-14.1151
30
27.9202
11
14.9966
21
-14.9966
31
27.5605
12
14.1151
22
-15.1952
32
27.9202
13
14.3071
23
-14.3071
33
28.2945
0
3DFACE
8
TestBases
10
15.1968
20
-14.1166
30
28.2186
11
14.9982
21
-14.9982
31
27.8589
12
14.1166
22
-15.1968
32
28.2186
13
14.3086
23
-14.3086
33
28.5929
0
3DFACE
8
TestBases
10
15.1968
20
-14.1166
30
28.2186
11
14.9982
21
-14.9982
31
27.8589
12
14.1166
22
-15.1968
32
28.2186
13
14.3086
23
-14.3086
33
28.5929
0
3DFACE
8
TestBases
10
15.1989
20
-14.1186
30
28.6165
11
15.0003
21
-15.0003
31
28.2567
12
14.1186
22
-15.1989
32
28.6165
13
14.3106
23
-14.3106
33
28.9909
0
3DFACE
8
TestBases
10
16.0735
20
-13.9086
30
27.1235
11
15.8695
21
-14.7827
31
26.7791
12
14.9945
22
-14.9945
32
27.1628
13
15.193
23
-14.1131
33
27.5224
0
3DFACE
8
TestBases
10
16.0758
20
-13.9106
30
27.5211
11
15.8717
21
-14.7848
31
27.1767
12
14.9966
22
-14.9966
32
27.5605
13
15.1952
23
-14.1151
33
27.9202
0
3DFACE
8
TestBases
10
16.0758
20
-13.9106
30
27.5211
11
15.8717
21
-14.7848
31
27.1767
12
14.9966
22
-14.9966
32
27.5605
13
15.1952
23
-14.1151
33
27.9202
0
3DFACE
8
TestBases
10
16.0774
20
-13.912
30
27.8195
11
15.8733
21
-14.7863
31
27.4749
12
14.9982
22
-14.9982
32
27.8589
13
15.1968
23
-14.1166
33
28.2186
0
3DFACE
8
TestBases
10
16.0774
20
-13.912
30
27.8195
11
15.8733
21
-14.7863
31
27.4749
12
14.9982
22
-14.9982
32
27.8589
13
15.1968
23
-14.1166
33
28.2186
0
3DFACE
8
TestBases
10
16.0796
20
-13.9139
30
28.2172
11
15.8755
21
-14.7883
31
27.8726
12
15.0003
22
-15.0003
32
28.2567
13
15.1989
23
-14.1186
33
28.6165
0
3DFACE
8
TestBases
10
16.2638
20
-13.0297
30
27.4445
11
16.0735
21
-13.9086
31
27.1235
12
15.193
22
-14.1131
32
27.5224
13
15.3783
23
-13.226
33
27.8581
0
3DFACE
8
TestBases
10
16.2661
20
-13.0316
30
27.8423
11
16.0758
21
-13.9106
31
27.5211
12
15.1952
22
-14.1151
32
27.9202
13
15.3805
23
-13.2279
33
28.2559
0
3DFACE
8
TestBases
10
16.2661
20
-13.0316
30
27.8423
11
16.0758
21
-13.9106
31
27.5211
12
15.1952
22
-14.1151
32
27.9202
13
15.3805
23
-13.2279
33
28.2559
0
3DFACE
8
TestBases
10
16.2679
20
-13.0329
30
28.1407
11
16.0774
21
-13.912
31
27.8195
12
15.1968
22
-14.1166
32
28.2186
13
15.3822
23
-13.2294
33
28.5544
0
3DFACE
8
TestBases
10
16.2679
20
-13.0329
30
28.1407
11
16.0774
21
-13.912
31
27.8195
12
15.1968
22
-14.1166
32
28.2186
13
15.3822
23
-13.2294
33
28.5544
0
3DFACE
8
TestBases
10
16.2701
20
-13.0347
30
28.5386
11
16.0796
21
-13.9139
31
28.2172
12
15.1989
22
-14.1186
32
28.6165
13
15.3843
23
-13.2312
33
28.9524
0
3DFACE
8
TestBases
10
15.3783
20
-13.226
30
27.8581
11
15.193
21
-14.1131
31
27.5224
12
14.305
22
-14.305
32
27.8966
13
14.4844
23
-13.4104
33
28.2463
0
3DFACE
8
TestBases
10
15.3805
20
-13.2279
30
28.2559
11
15.1952
21
-14.1151
31
27.9202
12
14.3071
22
-14.3071
32
28.2945
13
14.4865
23
-13.4123
33
28.6443
0
3DFACE
8
TestBases
10
15.3805
20
-13.2279
30
28.2559
11
15.1952
21
-14.1151
31
27.9202
12
14.3071
22
-14.3071
32
28.2945
13
14.4865
23
-13.4123
33
28.6443
0
3DFACE
8
TestBases
10
15.3822
20
-13.2294
30
28.5544
11
15.1968
21
-14.1166
31
28.2186
12
14.3086
22
-14.3086
32
28.5929
13
14.4881
23
-13.4138
33
28.9428
0
3DFACE
8
TestBases
10
15.3822
20
-13.2294
30
28.5544
11
15.1968
21
-14.1166
31
28.2186
12
14.3086
22
-14.3086
32
28.5929
13
14.4881
23
-13.4138
33
28.9428
0
3DFACE
8
TestBases
10
15.3843
20
-13.2312
30
28.9524
11
15.1989
21
-14.1186
31
28.6165
12
14.3106
22
-14.3106
32
28.9909
13
14.4902
23
-13.4157
33
29.3409
0
3DFACE
8
TestBases
10
16.4405
20
-12.1466
30
27.7428
11
16.2638
21
-13.0297
31
27.4445
12
15.3783
22
-13.226
32
27.8581
13
15.5505
23
-12.3337
33
28.1701
0
3DFACE
8
TestBases
10
16.4428
20
-12.1483
30
28.1406
11
16.2661
21
-13.0316
31
27.8423
12
15.3805
22
-13.2279
32
28.2559
13
15.5528
23
-12.3355
33
28.568
0
3DFACE
8
TestBases
10
16.4428
20
-12.1483
30
28.1406
11
16.2661
21
-13.0316
31
27.8423
12
15.3805
22
-13.2279
32
28.2559
13
15.5528
23
-12.3355
33
28.568
0
3DFACE
8
TestBases
10
16.4446
20
-12.1496
30
28.4391
11
16.2679
21
-13.0329
31
28.1407
12
15.3822
22
-13.2294
32
28.5544
13
15.5545
23
-12.3368
33
28.8666
0
3DFACE
8
TestBases
10
16.4446
20
-12.1496
30
28.4391
11
16.2679
21
-13.0329
31
28.1407
12
15.3822
22
-13.2294
32
28.5544
13
15.5545
23
-12.3368
33
28.8666
0
3DFACE
8
TestBases
10
16.4469
20
-12.1513
30
28.837
11
16.2701
21
-13.0347
31
28.5386
12
15.3843
22
-13.2312
32
28.9524
13
15.5567
23
-12.3386
33
29.2646
0
3DFACE
8
TestBases
10
16.6038
20
-11.2598
30
28.0182
11
16.4405
21
-12.1466
31
27.7428
12
15.5505
22
-12.3337
32
28.1701
13
15.7098
23
-11.4367
33
28.4586
0
3DFACE
8
TestBases
10
16.6062
20
-11.2614
30
28.4162
11
16.4428
21
-12.1483
31
28.1406
12
15.5528
22
-12.3355
32
28.568
13
15.7121
23
-11.4384
33
28.8567
0
3DFACE
8
TestBases
10
16.6062
20
-11.2614
30
28.4162
11
16.4428
21
-12.1483
31
28.1406
12
15.5528
22
-12.3355
32
28.568
13
15.7121
23
-11.4384
33
28.8567
0
3DFACE
8
TestBases
10
16.608
20
-11.2626
30
28.7147
11
16.4446
21
-12.1496
31
28.4391
12
15.5545
22
-12.3368
32
28.8666
13
15.7138
23
-11.4396
33
29.1553
0
3DFACE
8
TestBases
10
16.608
20
-11.2626
30
28.7147
11
16.4446
21
-12.1496
31
28.4391
12
15.5545
22
-12.3368
32
28.8666
13
15.7138
23
-11.4396
33
29.1553
0
3DFACE
8
TestBases
10
16.6103
20
-11.2642
30
29.1127
11
16.4469
21
-12.1513
31
28.837
12
15.5567
22
-12.3386
32
29.2646
13
15.7161
23
-11.4412
33
29.5535
0
LINE
8
LowerTendons
10
15.6536
20
-15.6536
30
26.8087
11
15.8717
21
-14.7848
31
27.1767
0
LINE
8
LowerTendons
10
15.8717
20
-14.7848
30
27.1767
11
16.0758
21
-13.9106
31
27.5211
0
LINE
8
LowerTendons
10
16.0758
20
-13.9106
30
27.5211
11
16.2661
21
-13.0316
31
27.8423
0
LINE
8
LowerTendons
10
16.2661
20
-13.0316
30
27.8423
11
16.4428
21
-12.1483
31
28.1406
0
LINE
8
LowerTendons
10
16.4428
20
-12.1483
30
28.1406
11
16.6062
21
-11.2614
31
28.4162
0
LINE
8
LowerTendons
10
16.6062
20
-11.2614
30
28.4162
11
16.7563
21
-10.371
31
28.6694
0
LINE
8
LowerTendons
10
16.7563
20
-10.371
30
28.6694
11
16.8932
21
-9.4778
31
28.9005
0
LINE
8
LowerTendons
10
16.8932
20
-9.4778
30
28.9005
11
17.0172
21
-8.582
31
29.1098
0
LINE
8
LowerTendons
10
15.7121
20
-11.4384
30
28.8567
11
15.5528
21
-12.3355
31
28.568
0
LINE
8
LowerTendons
10
15.5528
20
-12.3355
30
28.568
11
15.3805
21
-13.2279
31
28.2559
0
LINE
8
LowerTendons
10
15.3805
20
-13.2279
30
28.2559
11
15.1952
21
-14.1151
31
27.9202
0
LINE
8
LowerTendons
10
15.1952
20
-14.1151
30
27.9202
11
14.9966
21
-14.9966
31
27.5605
0
LINE
8
LowerTendons
10
14.9966
20
-14.9966
30
27.5605
11
14.7848
21
-15.8717
31
27.1767
0
LINE
8
LowerTendons
10
14.4865
20
-13.4123
30
28.6443
11
14.3071
21
-14.3071
31
28.2945
0
LINE
8
LowerTendons
10
14.3071
20
-14.3071
30
28.2945
11
14.1151
21
-15.1952
31
27.9202
0
LINE
8
LowerTendons
10
14.1151
20
-15.1952
30
27.9202
11
13.9106
21
-16.0758
31
27.5211
0
LINE
8
LowerTendons
10
13.0316
20
-16.2661
30
27.8423
11
13.2279
21
-15.3805
31
28.2559
0
LINE
8
UpperTendons
10
12.1496
20
-16.4446
30
28.4391
11
13.0329
21
-16.2679
31
28.1407
0
LINE
8
UpperTendons
10
13.0329
20
-16.2679
30
28.1407
11
13.912
21
-16.0774
31
27.8195
0
LINE
8
UpperTendons
10
13.912
20
-16.0774
30
27.8195
11
14.7863
21
-15.8733
31
27.4749
0
LINE
8
UpperTendons
10
14.7863
20
-15.8733
30
27.4749
11
15.6552
21
-15.6552
31
27.1069
0
LINE
8
UpperTendons
10
15.8733
20
-14.7863
30
27.4749
11
14.9982
21
-14.9982
31
27.8589
0
LINE
8
UpperTendons
10
14.9982
20
-14.9982
30
27.8589
11
14.1166
21
-15.1968
31
28.2186
0
LINE
8
UpperTendons
10
14.1166
20
-15.1968
30
28.2186
11
13.2294
21
-15.3822
31
28.5544
0
LINE
8
UpperTendons
10
16.0774
20
-13.912
30
27.8195
11
15.1968
21
-14.1166
31
28.2186
0
LINE
8
UpperTendons
10
15.1968
20
-14.1166
30
28.2186
11
14.3086
21
-14.3086
31
28.5929
0
LINE
8
UpperTendons
10
14.4881
20
-13.4138
30
28.9428
11
15.3822
21
-13.2294
31
28.5544
0
LINE
8
UpperTendons
10
15.3822
20
-13.2294
30
28.5544
11
16.2679
21
-13.0329
31
28.1407
0
LINE
8
UpperTendons
10
16.4446
20
-12.1496
30
28.4391
11
15.5545
21
-12.3368
31
28.8666
0
LINE
8
UpperTendons
10
15.7138
20
-11.4396
30
29.1553
11
16.608
21
-11.2626
31
28.7147
0
ENDSEC
0
EOF
