0
SECTION
2
HEADER
9
$ACADVER
1
AC1006
9
$INSBASE
10
0.0
20
0.0
30
0.0
9
$EXTMIN
10
0.0
20
0.0
9
$EXTMAX
10
0.0
20
0.0
0
ENDSEC
0
SECTION
2
TABLES
0
TABLE
2
LTYPE
70
1
0
LTYPE
2
CONTINUOUS
70
64
3
Solid line
72
65
73
0
40
0.0
0
ENDTAB
0
TABLE
2
LAYER
70
1
0
LAYER
2
PYDXF
70
64
62
7
6
continuous
0
ENDTAB
0
TABLE
2
STYLE
70
1
0
STYLE
2
STANDARD
70
0
40
0
41
40
50
50
71
0
42
1
3
ARIAL.TTF
4

0
ENDTAB
0
TABLE
2
VIEW
70
0
0
ENDTAB
0
ENDSEC
0
SECTION
2
BLOCKS
0
ENDSEC
0
SECTION
2
ENTITIES
0
3DFACE
8
TestBases
10
14.37186
20
-14.37186
30
28.493846
11
14.527943
21
-13.576043
31
28.803298
12
13.726757
22
-13.726757
32
29.123054
13
13.576044
23
-14.527942
33
28.803298
0
3DFACE
8
TestBases
10
13.576044
20
-14.527942
30
28.803298
11
13.726757
21
-13.726757
31
29.123054
12
12.920122
22
-13.868344
32
29.423451
13
12.775374
23
-14.674472
33
29.093809
0
3DFACE
8
TestBases
10
12.775374
20
-14.674472
30
29.093809
11
12.920122
21
-13.868344
31
29.423451
12
12.108469
22
-14.000845
32
29.704568
13
11.970253
23
-14.811506
33
29.365495
0
3DFACE
8
TestBases
10
11.970253
20
-14.811506
30
29.365495
11
11.161066
21
-14.939103
31
29.61847
12
11.292208
22
-14.124297
32
29.966486
13
12.108469
23
-14.000845
33
29.704568
0
3DFACE
8
TestBases
10
11.292208
20
-14.124297
30
29.966486
11
11.161066
21
-14.939103
31
29.61847
12
10.348179
22
-15.057318
32
29.852845
13
10.471736
23
-14.238739
33
30.209288
0
3DFACE
8
TestBases
10
10.471736
20
-14.238739
30
30.209288
11
10.348179
21
-15.057318
31
29.852845
12
9.531937
22
-15.166205
32
30.068728
13
9.64743
23
-14.344208
33
30.433055
0
3DFACE
8
TestBases
10
11.415641
20
-13.302408
30
30.294043
11
11.292208
21
-14.124297
31
29.966486
12
10.471736
22
-14.238739
32
30.209288
13
10.588093
23
-13.412589
33
30.544963
0
3DFACE
8
TestBases
10
12.238483
20
-13.183618
30
30.02352
11
12.108469
21
-14.000845
31
29.704568
12
11.292208
22
-14.124297
32
29.966486
13
11.415641
23
-13.302408
33
30.294043
0
3DFACE
8
TestBases
10
13.056197
20
-13.056196
30
29.733338
11
12.920122
21
-13.868344
31
29.423451
12
12.108469
22
-14.000845
32
29.704568
13
12.238483
23
-13.183618
33
30.02352
0
3DFACE
8
TestBases
10
13.868345
20
-12.920122
30
29.423451
11
13.726757
21
-13.726757
31
29.123054
12
12.920122
22
-13.868344
32
29.423451
13
13.056197
23
-13.056196
33
29.733338
0
3DFACE
8
TestBases
10
14.674472
20
-12.775373
30
29.093809
11
14.527943
21
-13.576043
31
28.803298
12
13.726757
22
-13.726757
32
29.123054
13
13.868345
23
-12.920122
33
29.423451
0
3DFACE
8
TestBases
10
14.811507
20
-11.970252
30
29.365495
11
14.674472
21
-12.775373
31
29.093809
12
13.868345
22
-12.920122
32
29.423451
13
14.000846
23
-12.108468
33
29.704568
0
3DFACE
8
TestBases
10
14.000846
20
-12.108468
30
29.704568
11
13.868345
21
-12.920122
31
29.423451
12
13.056197
22
-13.056196
32
29.733338
13
13.183619
23
-12.238482
33
30.02352
0
3DFACE
8
TestBases
10
13.183619
20
-12.238482
30
30.02352
11
13.056197
21
-13.056196
31
29.733338
12
12.238483
22
-13.183618
32
30.02352
13
12.360303
23
-12.360302
33
30.322366
0
3DFACE
8
TestBases
10
11.531358
20
-12.473932
30
30.601125
11
12.360303
21
-12.360302
31
30.322366
12
12.238483
22
-13.183618
32
30.02352
13
11.415641
23
-13.302408
33
30.294043
0
3DFACE
8
TestBases
10
13.302408
20
-11.41564
30
30.294043
11
13.183619
21
-12.238482
31
30.02352
12
12.360303
22
-12.360302
32
30.322366
13
12.473933
23
-11.531357
33
30.601125
0
3DFACE
8
TestBases
10
14.124298
20
-11.292208
30
29.966486
11
14.000846
21
-12.108468
31
29.704568
12
13.183619
22
-12.238482
32
30.02352
13
13.302408
23
-11.41564
33
30.294043
0
3DFACE
8
TestBases
10
14.939103
20
-11.161065
30
29.61847
11
14.811507
21
-11.970252
31
29.365495
12
14.000846
22
-12.108468
32
29.704568
13
14.124298
23
-11.292208
33
29.966486
0
3DFACE
8
TestBases
10
15.057319
20
-10.348178
30
29.852845
11
14.939103
21
-11.161065
31
29.61847
12
14.124298
22
-11.292208
32
29.966486
13
14.238739
23
-10.471735
33
30.209288
0
3DFACE
8
TestBases
10
13.41259
20
-10.588093
30
30.544963
11
14.238739
21
-10.471735
31
30.209288
12
14.124298
22
-11.292208
32
29.966486
13
13.302408
23
-11.41564
33
30.294043
0
3DFACE
8
TestBases
10
15.166206
20
-9.531935
30
30.068728
11
15.057319
21
-10.348178
31
29.852845
12
14.238739
22
-10.471735
32
30.209288
13
14.344208
23
-9.647429
33
30.433055
0
LINE
8
LowerTendons
10
0.0
20
0.0
30
12.294668
11
0.0
21
0.0
31
36.041588
0
LINE
8
LowerTendons
10
14.37186
20
-14.37186
30
28.493846
11
14.527943
21
-13.576043
31
28.803298
0
LINE
8
LowerTendons
10
14.527943
20
-13.576043
30
28.803298
11
14.674472
21
-12.775373
31
29.093809
0
LINE
8
LowerTendons
10
14.674472
20
-12.775373
30
29.093809
11
14.811507
21
-11.970252
31
29.365495
0
LINE
8
LowerTendons
10
14.811507
20
-11.970252
30
29.365495
11
14.939103
21
-11.161065
31
29.61847
0
LINE
8
LowerTendons
10
14.939103
20
-11.161065
30
29.61847
11
15.057319
21
-10.348178
31
29.852845
0
LINE
8
LowerTendons
10
15.057319
20
-10.348178
30
29.852845
11
15.166206
21
-9.531935
31
30.068728
0
LINE
8
LowerTendons
10
15.166206
20
-9.531935
30
30.068728
11
15.26582
21
-8.712671
31
30.266221
0
LINE
8
LowerTendons
10
15.26582
20
-8.712671
30
30.266221
11
15.356206
21
-7.890697
31
30.445424
0
LINE
8
LowerTendons
10
15.356206
20
-7.890697
30
30.445424
11
15.437415
21
-7.066316
31
30.606428
0
LINE
8
LowerTendons
10
15.437415
20
-7.066316
30
30.606428
11
15.509486
21
-6.239816
31
30.749318
0
LINE
8
LowerTendons
10
15.509486
20
-6.239816
30
30.749318
11
15.57246
21
-5.411473
31
30.874172
0
LINE
8
LowerTendons
10
15.57246
20
-5.411473
30
30.874172
11
15.626372
21
-4.581554
31
30.981057
0
LINE
8
LowerTendons
10
15.626372
20
-4.581554
30
30.981057
11
15.671251
21
-3.750315
31
31.070034
0
LINE
8
LowerTendons
10
15.671251
20
-3.750315
30
31.070034
11
15.707123
21
-2.918008
31
31.141155
0
LINE
8
LowerTendons
10
15.707123
20
-2.918008
30
31.141155
11
15.734008
21
-2.084877
31
31.19446
0
LINE
8
LowerTendons
10
15.734008
20
-2.084877
30
31.19446
11
15.751924
21
-1.251159
31
31.229978
0
LINE
8
LowerTendons
10
15.751924
20
-1.251159
30
31.229978
11
15.760879
21
-0.417092
31
31.247732
0
LINE
8
LowerTendons
10
15.760879
20
-0.417092
30
31.247732
11
15.760879
21
0.417093
31
31.247732
0
LINE
8
LowerTendons
10
15.760879
20
0.417093
30
31.247732
11
15.751924
21
1.25116
31
31.229978
0
LINE
8
LowerTendons
10
15.751924
20
1.25116
30
31.229978
11
15.734008
21
2.084877
31
31.19446
0
LINE
8
LowerTendons
10
15.734008
20
2.084877
30
31.19446
11
15.707123
21
2.918009
31
31.141155
0
LINE
8
LowerTendons
10
15.707123
20
2.918009
30
31.141155
11
15.671251
21
3.750316
31
31.070034
0
LINE
8
LowerTendons
10
15.671251
20
3.750316
30
31.070034
11
15.626372
21
4.581554
31
30.981057
0
LINE
8
LowerTendons
10
15.626372
20
4.581554
30
30.981057
11
15.57246
21
5.411473
31
30.874172
0
LINE
8
LowerTendons
10
15.57246
20
5.411473
30
30.874172
11
15.509486
21
6.239816
31
30.749318
0
LINE
8
LowerTendons
10
15.509486
20
6.239816
30
30.749318
11
15.437415
21
7.066317
31
30.606428
0
LINE
8
LowerTendons
10
15.437415
20
7.066317
30
30.606428
11
15.356206
21
7.890698
31
30.445424
0
LINE
8
LowerTendons
10
15.356206
20
7.890698
30
30.445424
11
15.26582
21
8.712672
31
30.266221
0
LINE
8
LowerTendons
10
15.26582
20
8.712672
30
30.266221
11
15.166206
21
9.531937
31
30.068728
0
LINE
8
LowerTendons
10
15.166206
20
9.531937
30
30.068728
11
15.057319
21
10.348179
31
29.852845
0
LINE
8
LowerTendons
10
15.057319
20
10.348179
30
29.852845
11
14.939103
21
11.161066
31
29.61847
0
LINE
8
LowerTendons
10
14.939103
20
11.161066
30
29.61847
11
14.811507
21
11.970253
31
29.365495
0
LINE
8
LowerTendons
10
14.811507
20
11.970253
30
29.365495
11
14.674472
21
12.775374
31
29.093809
0
LINE
8
LowerTendons
10
14.674472
20
12.775374
30
29.093809
11
14.527943
21
13.576044
31
28.803298
0
LINE
8
LowerTendons
10
14.527943
20
13.576044
30
28.803298
11
14.37186
21
14.37186
31
28.493846
0
LINE
8
LowerTendons
10
13.576044
20
14.527943
30
28.803298
11
13.726757
21
13.726757
31
29.123054
0
LINE
8
LowerTendons
10
13.726757
20
13.726757
30
29.123054
11
13.868345
21
12.920122
31
29.423451
0
LINE
8
LowerTendons
10
13.868345
20
12.920122
30
29.423451
11
14.000846
21
12.108469
31
29.704568
0
LINE
8
LowerTendons
10
14.000846
20
12.108469
30
29.704568
11
14.124298
21
11.292208
31
29.966486
0
LINE
8
LowerTendons
10
14.124298
20
11.292208
30
29.966486
11
14.238739
21
10.471736
31
30.209288
0
LINE
8
LowerTendons
10
14.238739
20
10.471736
30
30.209288
11
14.344208
21
9.64743
31
30.433055
0
LINE
8
LowerTendons
10
14.344208
20
9.64743
30
30.433055
11
14.440742
21
8.819655
31
30.637863
0
LINE
8
LowerTendons
10
14.440742
20
8.819655
30
30.637863
11
14.528376
21
7.988761
31
30.82379
0
LINE
8
LowerTendons
10
14.528376
20
7.988761
30
30.82379
11
14.607143
21
7.155084
31
30.990905
0
LINE
8
LowerTendons
10
14.607143
20
7.155084
30
30.990905
11
14.677075
21
6.318948
31
31.139274
0
LINE
8
LowerTendons
10
14.677075
20
6.318948
30
31.139274
11
14.7382
21
5.48067
31
31.268958
0
LINE
8
LowerTendons
10
14.7382
20
5.48067
30
31.268958
11
14.790543
21
4.640552
31
31.380012
0
LINE
8
LowerTendons
10
14.790543
20
4.640552
30
31.380012
11
14.834128
21
3.798894
31
31.472481
0
LINE
8
LowerTendons
10
14.834128
20
3.798894
30
31.472481
11
14.868972
21
2.955983
31
31.546408
0
LINE
8
LowerTendons
10
14.868972
20
2.955983
30
31.546408
11
14.895092
21
2.112104
31
31.601824
0
LINE
8
LowerTendons
10
14.895092
20
2.112104
30
31.601824
11
14.912498
21
1.267537
31
31.638754
0
LINE
8
LowerTendons
10
14.912498
20
1.267537
30
31.638754
11
14.9212
21
0.422558
31
31.657215
0
LINE
8
LowerTendons
10
14.9212
20
0.422558
30
31.657215
11
14.9212
21
-0.422557
31
31.657215
0
LINE
8
LowerTendons
10
14.9212
20
-0.422557
30
31.657215
11
14.912498
21
-1.267536
31
31.638754
0
LINE
8
LowerTendons
10
14.912498
20
-1.267536
30
31.638754
11
14.895092
21
-2.112103
31
31.601824
0
LINE
8
LowerTendons
10
14.895092
20
-2.112103
30
31.601824
11
14.868972
21
-2.955982
31
31.546408
0
LINE
8
LowerTendons
10
14.868972
20
-2.955982
30
31.546408
11
14.834128
21
-3.798893
31
31.472481
0
LINE
8
LowerTendons
10
14.834128
20
-3.798893
30
31.472481
11
14.790543
21
-4.640551
31
31.380012
0
LINE
8
LowerTendons
10
14.790543
20
-4.640551
30
31.380012
11
14.7382
21
-5.480669
31
31.268958
0
LINE
8
LowerTendons
10
14.7382
20
-5.480669
30
31.268958
11
14.677075
21
-6.318947
31
31.139274
0
LINE
8
LowerTendons
10
14.677075
20
-6.318947
30
31.139274
11
14.607143
21
-7.155083
31
30.990905
0
LINE
8
LowerTendons
10
14.607143
20
-7.155083
30
30.990905
11
14.528376
21
-7.98876
31
30.82379
0
LINE
8
LowerTendons
10
14.528376
20
-7.98876
30
30.82379
11
14.440742
21
-8.819655
31
30.637863
0
LINE
8
LowerTendons
10
14.440742
20
-8.819655
30
30.637863
11
14.344208
21
-9.647429
31
30.433055
0
LINE
8
LowerTendons
10
14.344208
20
-9.647429
30
30.433055
11
14.238739
21
-10.471735
31
30.209288
0
LINE
8
LowerTendons
10
14.238739
20
-10.471735
30
30.209288
11
14.124298
21
-11.292208
31
29.966486
0
LINE
8
LowerTendons
10
14.124298
20
-11.292208
30
29.966486
11
14.000846
21
-12.108468
31
29.704568
0
LINE
8
LowerTendons
10
14.000846
20
-12.108468
30
29.704568
11
13.868345
21
-12.920122
31
29.423451
0
LINE
8
LowerTendons
10
13.868345
20
-12.920122
30
29.423451
11
13.726757
21
-13.726757
31
29.123054
0
LINE
8
LowerTendons
10
13.726757
20
-13.726757
30
29.123054
11
13.576044
21
-14.527942
31
28.803298
0
LINE
8
LowerTendons
10
12.775374
20
14.674472
30
29.093809
11
12.920122
21
13.868345
31
29.423451
0
LINE
8
LowerTendons
10
12.920122
20
13.868345
30
29.423451
11
13.056197
21
13.056197
31
29.733338
0
LINE
8
LowerTendons
10
13.056197
20
13.056197
30
29.733338
11
13.183619
21
12.238483
31
30.02352
0
LINE
8
LowerTendons
10
13.183619
20
12.238483
30
30.02352
11
13.302408
21
11.415641
31
30.294043
0
LINE
8
LowerTendons
10
13.302408
20
11.415641
30
30.294043
11
13.41259
21
10.588094
31
30.544963
0
LINE
8
LowerTendons
10
13.41259
20
10.588094
30
30.544963
11
13.514184
21
9.75625
31
30.776329
0
LINE
8
LowerTendons
10
13.514184
20
9.75625
30
30.776329
11
13.607218
21
8.920505
31
30.988196
0
LINE
8
LowerTendons
10
13.607218
20
8.920505
30
30.988196
11
13.691709
21
8.081241
31
31.180613
0
LINE
8
LowerTendons
10
13.691709
20
8.081241
30
31.180613
11
13.767684
21
7.238828
31
31.353632
0
LINE
8
LowerTendons
10
13.767684
20
7.238828
30
31.353632
11
13.83516
21
6.39363
31
31.507299
0
LINE
8
LowerTendons
10
13.83516
20
6.39363
30
31.507299
11
13.894158
21
5.545994
31
31.641655
0
LINE
8
LowerTendons
10
13.894158
20
5.545994
30
31.641655
11
13.944694
21
4.696265
31
31.756742
0
LINE
8
LowerTendons
10
13.944694
20
4.696265
30
31.756742
11
13.986782
21
3.844775
31
31.852593
0
LINE
8
LowerTendons
10
13.986782
20
3.844775
30
31.852593
11
14.020438
21
2.991855
31
31.929236
0
LINE
8
LowerTendons
10
14.020438
20
2.991855
30
31.929236
11
14.045669
21
2.137826
31
31.986698
0
LINE
8
LowerTendons
10
14.045669
20
2.137826
30
31.986698
11
14.062486
21
1.283011
31
32.024996
0
LINE
8
LowerTendons
10
14.062486
20
1.283011
30
32.024996
11
14.070894
21
0.427723
31
32.044142
0
LINE
8
LowerTendons
10
14.070894
20
0.427723
30
32.044142
11
14.070894
21
-0.427722
31
32.044142
0
LINE
8
LowerTendons
10
14.070894
20
-0.427722
30
32.044142
11
14.062486
21
-1.28301
31
32.024996
0
LINE
8
LowerTendons
10
14.062486
20
-1.28301
30
32.024996
11
14.045669
21
-2.137825
31
31.986698
0
LINE
8
LowerTendons
10
14.045669
20
-2.137825
30
31.986698
11
14.020438
21
-2.991854
31
31.929236
0
LINE
8
LowerTendons
10
14.020438
20
-2.991854
30
31.929236
11
13.986782
21
-3.844774
31
31.852593
0
LINE
8
LowerTendons
10
13.986782
20
-3.844774
30
31.852593
11
13.944694
21
-4.696264
31
31.756742
0
LINE
8
LowerTendons
10
13.944694
20
-4.696264
30
31.756742
11
13.894158
21
-5.545993
31
31.641655
0
LINE
8
LowerTendons
10
13.894158
20
-5.545993
30
31.641655
11
13.83516
21
-6.393629
31
31.507299
0
LINE
8
LowerTendons
10
13.83516
20
-6.393629
30
31.507299
11
13.767684
21
-7.238828
31
31.353632
0
LINE
8
LowerTendons
10
13.767684
20
-7.238828
30
31.353632
11
13.691709
21
-8.08124
31
31.180613
0
LINE
8
LowerTendons
10
13.691709
20
-8.08124
30
31.180613
11
13.607218
21
-8.920503
31
30.988196
0
LINE
8
LowerTendons
10
13.607218
20
-8.920503
30
30.988196
11
13.514184
21
-9.756249
31
30.776329
0
LINE
8
LowerTendons
10
13.514184
20
-9.756249
30
30.776329
11
13.41259
21
-10.588093
31
30.544963
0
LINE
8
LowerTendons
10
13.41259
20
-10.588093
30
30.544963
11
13.302408
21
-11.41564
31
30.294043
0
LINE
8
LowerTendons
10
13.302408
20
-11.41564
30
30.294043
11
13.183619
21
-12.238482
31
30.02352
0
LINE
8
LowerTendons
10
13.183619
20
-12.238482
30
30.02352
11
13.056197
21
-13.056196
31
29.733338
0
LINE
8
LowerTendons
10
13.056197
20
-13.056196
30
29.733338
11
12.920122
21
-13.868344
31
29.423451
0
LINE
8
LowerTendons
10
12.920122
20
-13.868344
30
29.423451
11
12.775374
21
-14.674472
31
29.093809
0
LINE
8
UpperTendons
10
-14.37186
20
-14.37186
30
28.493846
11
-13.576044
21
-14.527942
31
28.803298
0
LINE
8
UpperTendons
10
-13.576044
20
-14.527942
30
28.803298
11
-12.775374
21
-14.674472
31
29.093809
0
LINE
8
UpperTendons
10
-12.775374
20
-14.674472
30
29.093809
11
-11.970252
21
-14.811506
31
29.365495
0
LINE
8
UpperTendons
10
-11.970252
20
-14.811506
30
29.365495
11
-11.161066
21
-14.939103
31
29.61847
0
LINE
8
UpperTendons
10
-11.161066
20
-14.939103
30
29.61847
11
-10.348178
21
-15.057318
31
29.852845
0
LINE
8
UpperTendons
10
-10.348178
20
-15.057318
30
29.852845
11
-9.531937
21
-15.166205
31
30.068728
0
LINE
8
UpperTendons
10
-9.531937
20
-15.166205
30
30.068728
11
-8.712671
21
-15.265819
31
30.266221
0
LINE
8
UpperTendons
10
-8.712671
20
-15.265819
30
30.266221
11
-7.890697
21
-15.356206
31
30.445424
0
LINE
8
UpperTendons
10
-7.890697
20
-15.356206
30
30.445424
11
-7.066316
21
-15.437414
31
30.606428
0
LINE
8
UpperTendons
10
-7.066316
20
-15.437414
30
30.606428
11
-6.239816
21
-15.509485
31
30.749318
0
LINE
8
UpperTendons
10
-6.239816
20
-15.509485
30
30.749318
11
-5.411473
21
-15.572459
31
30.874172
0
LINE
8
UpperTendons
10
-5.411473
20
-15.572459
30
30.874172
11
-4.581554
21
-15.626371
31
30.981057
0
LINE
8
UpperTendons
10
-4.581554
20
-15.626371
30
30.981057
11
-3.750315
21
-15.671249
31
31.070034
0
LINE
8
UpperTendons
10
-3.750315
20
-15.671249
30
31.070034
11
-2.918009
21
-15.707122
31
31.141155
0
LINE
8
UpperTendons
10
-2.918009
20
-15.707122
30
31.141155
11
-2.084877
21
-15.734008
31
31.19446
0
LINE
8
UpperTendons
10
-2.084877
20
-15.734008
30
31.19446
11
-1.25116
21
-15.751922
31
31.229978
0
LINE
8
UpperTendons
10
-1.25116
20
-15.751922
30
31.229978
11
-0.417092
21
-15.760878
31
31.247732
0
LINE
8
UpperTendons
10
-0.417092
20
-15.760878
30
31.247732
11
0.417092
21
-15.760878
31
31.247732
0
LINE
8
UpperTendons
10
0.417092
20
-15.760878
30
31.247732
11
1.25116
21
-15.751922
31
31.229978
0
LINE
8
UpperTendons
10
1.25116
20
-15.751922
30
31.229978
11
2.084877
21
-15.734008
31
31.19446
0
LINE
8
UpperTendons
10
2.084877
20
-15.734008
30
31.19446
11
2.918009
21
-15.707122
31
31.141155
0
LINE
8
UpperTendons
10
2.918009
20
-15.707122
30
31.141155
11
3.750316
21
-15.671249
31
31.070034
0
LINE
8
UpperTendons
10
3.750316
20
-15.671249
30
31.070034
11
4.581554
21
-15.626371
31
30.981057
0
LINE
8
UpperTendons
10
4.581554
20
-15.626371
30
30.981057
11
5.411473
21
-15.572459
31
30.874172
0
LINE
8
UpperTendons
10
5.411473
20
-15.572459
30
30.874172
11
6.239816
21
-15.509485
31
30.749318
0
LINE
8
UpperTendons
10
6.239816
20
-15.509485
30
30.749318
11
7.066316
21
-15.437414
31
30.606428
0
LINE
8
UpperTendons
10
7.066316
20
-15.437414
30
30.606428
11
7.890698
21
-15.356206
31
30.445424
0
LINE
8
UpperTendons
10
7.890698
20
-15.356206
30
30.445424
11
8.712671
21
-15.265819
31
30.266221
0
LINE
8
UpperTendons
10
8.712671
20
-15.265819
30
30.266221
11
9.531937
21
-15.166205
31
30.068728
0
LINE
8
UpperTendons
10
9.531937
20
-15.166205
30
30.068728
11
10.348179
21
-15.057318
31
29.852845
0
LINE
8
UpperTendons
10
10.348179
20
-15.057318
30
29.852845
11
11.161066
21
-14.939103
31
29.61847
0
LINE
8
UpperTendons
10
11.161066
20
-14.939103
30
29.61847
11
11.970253
21
-14.811506
31
29.365495
0
LINE
8
UpperTendons
10
11.970253
20
-14.811506
30
29.365495
11
12.775374
21
-14.674472
31
29.093809
0
LINE
8
UpperTendons
10
12.775374
20
-14.674472
30
29.093809
11
13.576044
21
-14.527942
31
28.803298
0
LINE
8
UpperTendons
10
13.576044
20
-14.527942
30
28.803298
11
14.37186
21
-14.37186
31
28.493846
0
LINE
8
UpperTendons
10
14.527943
20
-13.576043
30
28.803298
11
13.726757
21
-13.726757
31
29.123054
0
LINE
8
UpperTendons
10
13.726757
20
-13.726757
30
29.123054
11
12.920122
21
-13.868344
31
29.423451
0
LINE
8
UpperTendons
10
12.920122
20
-13.868344
30
29.423451
11
12.108469
21
-14.000845
31
29.704568
0
LINE
8
UpperTendons
10
12.108469
20
-14.000845
30
29.704568
11
11.292208
21
-14.124297
31
29.966486
0
LINE
8
UpperTendons
10
11.292208
20
-14.124297
30
29.966486
11
10.471736
21
-14.238739
31
30.209288
0
LINE
8
UpperTendons
10
10.471736
20
-14.238739
30
30.209288
11
9.64743
21
-14.344208
31
30.433055
0
LINE
8
UpperTendons
10
9.64743
20
-14.344208
30
30.433055
11
8.819655
21
-14.440742
31
30.637863
0
LINE
8
UpperTendons
10
8.819655
20
-14.440742
30
30.637863
11
7.98876
21
-14.528375
31
30.82379
0
LINE
8
UpperTendons
10
7.98876
20
-14.528375
30
30.82379
11
7.155083
21
-14.607143
31
30.990905
0
LINE
8
UpperTendons
10
7.155083
20
-14.607143
30
30.990905
11
6.318948
21
-14.677074
31
31.139274
0
LINE
8
UpperTendons
10
6.318948
20
-14.677074
30
31.139274
11
5.48067
21
-14.7382
31
31.268958
0
LINE
8
UpperTendons
10
5.48067
20
-14.7382
30
31.268958
11
4.640552
21
-14.790543
31
31.380012
0
LINE
8
UpperTendons
10
4.640552
20
-14.790543
30
31.380012
11
3.798893
21
-14.834128
31
31.472481
0
LINE
8
UpperTendons
10
3.798893
20
-14.834128
30
31.472481
11
2.955983
21
-14.868971
31
31.546408
0
LINE
8
UpperTendons
10
2.955983
20
-14.868971
30
31.546408
11
2.112103
21
-14.895091
31
31.601824
0
LINE
8
UpperTendons
10
2.112103
20
-14.895091
30
31.601824
11
1.267537
21
-14.912498
31
31.638754
0
LINE
8
UpperTendons
10
1.267537
20
-14.912498
30
31.638754
11
0.422557
21
-14.921199
31
31.657215
0
LINE
8
UpperTendons
10
0.422557
20
-14.921199
30
31.657215
11
-0.422557
21
-14.921199
31
31.657215
0
LINE
8
UpperTendons
10
-0.422557
20
-14.921199
30
31.657215
11
-1.267536
21
-14.912498
31
31.638754
0
LINE
8
UpperTendons
10
-1.267536
20
-14.912498
30
31.638754
11
-2.112103
21
-14.895091
31
31.601824
0
LINE
8
UpperTendons
10
-2.112103
20
-14.895091
30
31.601824
11
-2.955982
21
-14.868971
31
31.546408
0
LINE
8
UpperTendons
10
-2.955982
20
-14.868971
30
31.546408
11
-3.798893
21
-14.834128
31
31.472481
0
LINE
8
UpperTendons
10
-3.798893
20
-14.834128
30
31.472481
11
-4.640551
21
-14.790543
31
31.380012
0
LINE
8
UpperTendons
10
-4.640551
20
-14.790543
30
31.380012
11
-5.480669
21
-14.7382
31
31.268958
0
LINE
8
UpperTendons
10
-5.480669
20
-14.7382
30
31.268958
11
-6.318947
21
-14.677074
31
31.139274
0
LINE
8
UpperTendons
10
-6.318947
20
-14.677074
30
31.139274
11
-7.155083
21
-14.607143
31
30.990905
0
LINE
8
UpperTendons
10
-7.155083
20
-14.607143
30
30.990905
11
-7.98876
21
-14.528375
31
30.82379
0
LINE
8
UpperTendons
10
-7.98876
20
-14.528375
30
30.82379
11
-8.819655
21
-14.440742
31
30.637863
0
LINE
8
UpperTendons
10
-8.819655
20
-14.440742
30
30.637863
11
-9.647429
21
-14.344208
31
30.433055
0
LINE
8
UpperTendons
10
-9.647429
20
-14.344208
30
30.433055
11
-10.471735
21
-14.238739
31
30.209288
0
LINE
8
UpperTendons
10
-10.471735
20
-14.238739
30
30.209288
11
-11.292208
21
-14.124297
31
29.966486
0
LINE
8
UpperTendons
10
-11.292208
20
-14.124297
30
29.966486
11
-12.108468
21
-14.000845
31
29.704568
0
LINE
8
UpperTendons
10
-12.108468
20
-14.000845
30
29.704568
11
-12.920122
21
-13.868344
31
29.423451
0
LINE
8
UpperTendons
10
-12.920122
20
-13.868344
30
29.423451
11
-13.726757
21
-13.726757
31
29.123054
0
LINE
8
UpperTendons
10
-13.726757
20
-13.726757
30
29.123054
11
-14.527942
21
-13.576043
31
28.803298
0
ENDSEC
0
EOF
