0
SECTION
2
HEADER
9
$ACADVER
1
AC1006
9
$INSBASE
10
0.0
20
0.0
30
0.0
9
$EXTMIN
10
0.0
20
0.0
9
$EXTMAX
10
0.0
20
0.0
0
ENDSEC
0
SECTION
2
TABLES
0
TABLE
2
LTYPE
70
1
0
LTYPE
2
CONTINUOUS
70
64
3
Solid line
72
65
73
0
40
0.0
0
ENDTAB
0
TABLE
2
LAYER
70
1
0
LAYER
2
PYDXF
70
64
62
7
6
continuous
0
ENDTAB
0
TABLE
2
STYLE
70
1
0
STYLE
2
STANDARD
70
0
40
0
41
40
50
50
71
0
42
1
3
ARIAL.TTF
4

0
ENDTAB
0
TABLE
2
VIEW
70
0
0
ENDTAB
0
ENDSEC
0
SECTION
2
BLOCKS
0
ENDSEC
0
SECTION
2
ENTITIES
0
3DFACE
8
Cylindrical crown wall
10
17.43
20
-14.18
30
55.67
11
16.94
21
-14.77
31
55.13
12
17.43
22
-14.18
32
54.58
13
17.91
23
-13.58
33
55.13
0
3DFACE
8
Cylindrical crown wall
10
16.43
20
-15.34
30
55.67
11
15.89
21
-15.89
31
55.13
12
16.43
22
-15.34
32
54.58
13
16.94
23
-14.77
33
55.13
0
3DFACE
8
Cylindrical crown wall
10
15.34
20
-16.43
30
55.67
11
14.77
21
-16.94
31
55.13
12
15.34
22
-16.43
32
54.58
13
15.89
23
-15.89
33
55.13
0
3DFACE
8
Cylindrical crown wall
10
14.19
20
-17.43
30
55.67
11
13.58
21
-17.91
31
55.13
12
14.19
22
-17.43
32
54.58
13
14.77
23
-16.94
33
55.13
0
3DFACE
8
Cylindrical crown wall
10
12.96
20
-18.36
30
55.67
11
12.32
21
-18.8
31
55.13
12
12.96
22
-18.36
32
54.58
13
13.58
23
-17.91
33
55.13
0
3DFACE
8
Cylindrical crown wall
10
11.68
20
-19.2
30
55.67
11
11.02
21
-19.59
31
55.13
12
11.68
22
-19.2
32
54.58
13
12.32
23
-18.8
33
55.13
0
3DFACE
8
Cylindrical crown wall
10
17.91
20
-13.58
30
56.22
11
17.43
21
-14.18
31
55.67
12
17.91
22
-13.58
32
55.13
13
18.36
23
-12.96
33
55.67
0
3DFACE
8
Cylindrical crown wall
10
16.94
20
-14.77
30
56.22
11
16.43
21
-15.34
31
55.67
12
16.94
22
-14.77
32
55.13
13
17.43
23
-14.18
33
55.67
0
3DFACE
8
Cylindrical crown wall
10
15.89
20
-15.89
30
56.22
11
15.34
21
-16.43
31
55.67
12
15.89
22
-15.89
32
55.13
13
16.43
23
-15.34
33
55.67
0
3DFACE
8
Cylindrical crown wall
10
14.77
20
-16.94
30
56.22
11
14.19
21
-17.43
31
55.67
12
14.77
22
-16.94
32
55.13
13
15.34
23
-16.43
33
55.67
0
3DFACE
8
Cylindrical crown wall
10
13.58
20
-17.91
30
56.22
11
12.96
21
-18.36
31
55.67
12
13.58
22
-17.91
32
55.13
13
14.19
23
-17.43
33
55.67
0
3DFACE
8
Cylindrical crown wall
10
12.32
20
-18.8
30
56.22
11
11.68
21
-19.2
31
55.67
12
12.32
22
-18.8
32
55.13
13
12.96
23
-18.36
33
55.67
0
3DFACE
8
Cylindrical crown wall
10
11.02
20
-19.59
30
56.22
11
10.34
21
-19.96
31
55.67
12
11.02
22
-19.59
32
55.13
13
11.68
23
-19.2
33
55.67
0
3DFACE
8
Cylindrical crown wall
10
16.43
20
-15.34
30
56.77
11
15.89
21
-15.89
31
56.22
12
16.43
22
-15.34
32
55.67
13
16.94
23
-14.77
33
56.22
0
3DFACE
8
Cylindrical crown wall
10
17.91
20
-13.58
30
56.22
11
17.43
21
-14.18
31
57.13
12
16.94
22
-14.77
32
56.22
13
17.43
23
-14.18
33
55.67
0
3DFACE
8
Cylindrical crown wall
10
11.68
20
-19.2
30
56.77
11
11.02
21
-19.59
31
56.22
12
11.68
22
-19.2
32
55.67
13
12.32
23
-18.8
33
56.22
0
3DFACE
8
Cylindrical crown wall
10
13.58
20
-17.91
30
56.22
11
12.96
21
-18.36
31
57.13
12
12.32
22
-18.8
32
56.22
13
12.96
23
-18.36
33
55.67
0
3DFACE
8
Cylindrical crown wall
10
18.36
20
-12.96
30
56.77
11
17.67
21
-13.89
31
57.58
12
17.43
22
-14.18
32
57.13
13
17.91
23
-13.58
33
56.22
0
3DFACE
8
Cylindrical crown wall
10
17.43
20
-14.18
30
57.13
11
17.19
21
-14.48
31
57.58
12
16.43
22
-15.34
32
56.77
13
16.94
23
-14.77
33
56.22
0
3DFACE
8
Cylindrical crown wall
10
11.68
20
-19.2
30
56.77
11
10.68
21
-19.78
31
57.58
12
10.34
22
-19.96
32
57.13
13
11.02
23
-19.59
33
56.22
0
3DFACE
8
Cylindrical crown wall
10
12.96
20
-18.36
30
57.13
11
12.65
21
-18.58
31
57.58
12
11.68
22
-19.2
32
56.77
13
12.32
23
-18.8
33
56.22
0
3DFACE
8
Cylindrical crown wall
10
13.27
20
-18.14
30
57.58
11
12.96
21
-18.36
31
57.13
12
13.58
22
-17.91
32
56.22
13
14.19
23
-17.43
33
56.77
0
3DFACE
8
Cylindrical crown wall
10
14.19
20
-17.43
30
56.77
11
13.58
21
-17.91
31
56.22
12
14.19
22
-17.43
32
55.67
13
14.77
23
-16.94
33
56.22
0
3DFACE
8
Cylindrical crown wall
10
15.34
20
-16.43
30
57.13
11
15.06
21
-16.68
31
57.58
12
14.19
22
-17.43
32
56.77
13
14.77
23
-16.94
33
56.22
0
3DFACE
8
Cylindrical crown wall
10
15.89
20
-15.89
30
56.22
11
15.34
21
-16.43
31
57.13
12
14.77
22
-16.94
32
56.22
13
15.34
23
-16.43
33
55.67
0
3DFACE
8
Cylindrical crown wall
10
16.43
20
-15.34
30
56.77
11
15.62
21
-16.16
31
57.58
12
15.34
22
-16.43
32
57.13
13
15.89
23
-15.89
33
56.22
0
3DFACE
8
Cylindrical crown wall
10
21.18
20
-7.52
30
55.67
11
20.91
21
-8.24
31
55.13
12
21.18
22
-7.52
32
54.58
13
21.42
23
-6.8
33
55.13
0
3DFACE
8
Cylindrical crown wall
10
20.62
20
-8.95
30
55.67
11
20.3
21
-9.66
31
55.13
12
20.62
22
-8.95
32
54.58
13
20.91
23
-8.24
33
55.13
0
3DFACE
8
Cylindrical crown wall
10
19.96
20
-10.34
30
55.67
11
19.59
21
-11.01
31
55.13
12
19.96
22
-10.34
32
54.58
13
20.3
23
-9.66
33
55.13
0
3DFACE
8
Cylindrical crown wall
10
19.2
20
-11.68
30
55.67
11
18.79
21
-12.33
31
55.13
12
19.2
22
-11.68
32
54.58
13
19.59
23
-11.01
33
55.13
0
3DFACE
8
Cylindrical crown wall
10
18.36
20
-12.96
30
55.67
11
17.91
21
-13.58
31
55.13
12
18.36
22
-12.96
32
54.58
13
18.79
23
-12.33
33
55.13
0
3DFACE
8
Cylindrical crown wall
10
19.59
20
-11.01
30
56.22
11
19.2
21
-11.68
31
57.13
12
18.79
22
-12.33
32
56.22
13
19.2
23
-11.68
33
55.67
0
3DFACE
8
Cylindrical crown wall
10
18.36
20
-12.96
30
56.77
11
17.91
21
-13.58
31
56.22
12
18.36
22
-12.96
32
55.67
13
18.79
23
-12.33
33
56.22
0
3DFACE
8
Cylindrical crown wall
10
19.96
20
-10.34
30
56.77
11
19.59
21
-11.01
31
56.22
12
19.96
22
-10.34
32
55.67
13
20.3
23
-9.66
33
56.22
0
3DFACE
8
Cylindrical crown wall
10
21.18
20
-7.52
30
56.77
11
20.91
21
-8.24
31
56.22
12
21.18
22
-7.52
32
55.67
13
21.42
23
-6.8
33
56.22
0
3DFACE
8
Cylindrical crown wall
10
20.76
20
-8.6
30
57.58
11
20.62
21
-8.95
31
57.13
12
20.91
22
-8.24
32
56.22
13
21.18
23
-7.52
33
56.77
0
3DFACE
8
Cylindrical crown wall
10
19.2
20
-11.68
30
57.13
11
19.0
21
-12.0
31
57.58
12
18.36
22
-12.96
32
56.77
13
18.79
23
-12.33
33
56.22
0
3DFACE
8
Cylindrical crown wall
10
19.4
20
-11.35
30
57.58
11
19.2
21
-11.68
31
57.13
12
19.59
22
-11.01
32
56.22
13
19.96
23
-10.34
33
56.77
0
3DFACE
8
Cylindrical crown wall
10
20.91
20
-8.24
30
56.22
11
20.62
21
-8.95
31
55.67
12
20.91
22
-8.24
32
55.13
13
21.18
23
-7.52
33
55.67
0
3DFACE
8
Cylindrical crown wall
10
20.3
20
-9.66
30
56.22
11
19.96
21
-10.34
31
55.67
12
20.3
22
-9.66
32
55.13
13
20.62
23
-8.95
33
55.67
0
3DFACE
8
Cylindrical crown wall
10
19.59
20
-11.01
30
56.22
11
19.2
21
-11.68
31
55.67
12
19.59
22
-11.01
32
55.13
13
19.96
23
-10.34
33
55.67
0
3DFACE
8
Cylindrical crown wall
10
18.79
20
-12.33
30
56.22
11
18.36
21
-12.96
31
55.67
12
18.79
22
-12.33
32
55.13
13
19.2
23
-11.68
33
55.67
0
3DFACE
8
Cylindrical crown wall
10
20.91
20
-8.24
30
56.22
11
20.62
21
-8.95
31
57.13
12
20.3
22
-9.66
32
56.22
13
20.62
23
-8.95
33
55.67
0
3DFACE
8
Cylindrical crown wall
10
20.62
20
-8.95
30
57.13
11
20.46
21
-9.3
31
57.58
12
19.96
22
-10.34
32
56.77
13
20.3
23
-9.66
33
56.22
0
3DFACE
8
Cylindrical crown wall
10
21.42
20
-6.8
30
56.22
11
21.18
21
-7.52
31
55.67
12
21.42
22
-6.8
32
55.13
13
21.64
23
-6.06
33
55.67
0
3DFACE
8
Cylindrical crown wall
10
21.64
20
-6.06
30
57.13
11
21.54
21
-6.43
31
57.58
12
21.18
22
-7.52
32
56.77
13
21.42
23
-6.8
33
56.22
0
3DFACE
8
Cylindrical crown wall
10
22.27
20
-3.06
30
55.67
11
22.15
21
-3.82
31
55.13
12
22.27
22
-3.06
32
54.58
13
22.36
23
-2.3
33
55.13
0
3DFACE
8
Cylindrical crown wall
10
22.01
20
-4.57
30
55.67
11
21.84
21
-5.32
31
55.13
12
22.01
22
-4.57
32
54.58
13
22.15
23
-3.82
33
55.13
0
3DFACE
8
Cylindrical crown wall
10
21.64
20
-6.06
30
55.67
11
21.42
21
-6.8
31
55.13
12
21.64
22
-6.06
32
54.58
13
21.84
23
-5.32
33
55.13
0
3DFACE
8
Cylindrical crown wall
10
22.15
20
-3.82
30
56.22
11
22.01
21
-4.57
31
55.67
12
22.15
22
-3.82
32
55.13
13
22.27
23
-3.06
33
55.67
0
3DFACE
8
Cylindrical crown wall
10
21.84
20
-5.32
30
56.22
11
21.64
21
-6.06
31
55.67
12
21.84
22
-5.32
32
55.13
13
22.01
23
-4.57
33
55.67
0
3DFACE
8
Cylindrical crown wall
10
22.01
20
-4.57
30
56.77
11
21.84
21
-5.32
31
56.22
12
22.01
22
-4.57
32
55.67
13
22.15
23
-3.82
33
56.22
0
3DFACE
8
Cylindrical crown wall
10
22.36
20
-2.3
30
56.22
11
22.27
21
-3.06
31
57.13
12
22.15
22
-3.82
32
56.22
13
22.27
23
-3.06
33
55.67
0
3DFACE
8
Cylindrical crown wall
10
21.84
20
-5.32
30
56.22
11
21.64
21
-6.06
31
57.13
12
21.42
22
-6.8
32
56.22
13
21.64
23
-6.06
33
55.67
0
3DFACE
8
Cylindrical crown wall
10
22.27
20
-3.06
30
57.13
11
22.21
21
-3.44
31
57.58
12
22.01
22
-4.57
32
56.77
13
22.15
23
-3.82
33
56.22
0
3DFACE
8
Cylindrical crown wall
10
22.01
20
-4.57
30
56.77
11
21.74
21
-5.7
31
57.58
12
21.64
22
-6.06
32
57.13
13
21.84
23
-5.32
33
56.22
0
3DFACE
8
Cylindrical crown wall
10
22.48
20
-0.0
30
55.67
11
22.46
21
-0.77
31
55.13
12
22.48
22
-0.0
32
54.58
13
22.46
23
0.77
33
55.13
0
3DFACE
8
Cylindrical crown wall
10
22.42
20
-1.53
30
55.67
11
22.36
21
-2.3
31
55.13
12
22.42
22
-1.53
32
54.58
13
22.46
23
-0.77
33
55.13
0
3DFACE
8
Cylindrical crown wall
10
22.46
20
-0.77
30
56.22
11
22.42
21
-1.53
31
55.67
12
22.46
22
-0.77
32
55.13
13
22.48
23
-0.0
33
55.67
0
3DFACE
8
Cylindrical crown wall
10
22.36
20
-2.3
30
56.22
11
22.27
21
-3.06
31
55.67
12
22.36
22
-2.3
32
55.13
13
22.42
23
-1.53
33
55.67
0
3DFACE
8
Cylindrical crown wall
10
22.46
20
0.77
30
56.22
11
22.48
21
-0.0
31
57.13
12
22.46
22
-0.77
32
56.22
13
22.48
23
-0.0
33
55.67
0
3DFACE
8
Cylindrical crown wall
10
22.42
20
-1.53
30
56.77
11
22.36
21
-2.3
31
56.22
12
22.42
22
-1.53
32
55.67
13
22.46
23
-0.77
33
56.22
0
3DFACE
8
Cylindrical crown wall
10
22.48
20
-0.0
30
57.13
11
22.47
21
-0.38
31
57.58
12
22.42
22
-1.53
32
56.77
13
22.46
23
-0.77
33
56.22
0
3DFACE
8
Cylindrical crown wall
10
22.32
20
-2.68
30
57.58
11
22.27
21
-3.06
31
57.13
12
22.36
22
-2.3
32
56.22
13
22.42
23
-1.53
33
56.77
0
3DFACE
8
Cylindrical crown wall
10
-16.42
20
-15.34
30
58.95
11
-15.62
21
-16.16
31
57.58
12
-15.34
22
-16.43
32
57.86
13
-15.34
23
-16.43
33
57.86
0
3DFACE
8
Cylindrical crown wall
10
-14.18
20
-17.44
30
58.95
11
-15.34
21
-16.43
31
57.86
12
-15.06
22
-16.68
32
57.58
13
-15.06
23
-16.68
33
57.58
0
3DFACE
8
Cylindrical crown wall
10
-14.18
20
-17.44
30
58.95
11
-16.42
21
-15.34
31
58.95
12
-15.34
22
-16.43
32
57.86
13
-15.34
23
-16.43
33
57.86
0
3DFACE
8
Cylindrical crown wall
10
-15.06
20
-16.68
30
57.58
11
-15.34
21
-16.43
31
57.86
12
-15.62
22
-16.16
32
57.58
13
-15.34
23
-16.43
33
57.13
0
3DFACE
8
Cylindrical crown wall
10
-16.42
20
-15.34
30
58.95
11
-17.19
21
-14.48
31
57.58
12
-16.42
22
-15.34
32
56.77
13
-15.62
23
-16.16
33
57.58
0
3DFACE
8
Cylindrical crown wall
10
-18.36
20
-12.97
30
58.95
11
-19.0
21
-12.0
31
57.58
12
-18.36
22
-12.97
32
56.77
13
-17.67
23
-13.89
33
57.58
0
3DFACE
8
Cylindrical crown wall
10
-19.95
20
-10.34
30
58.95
11
-19.4
21
-11.35
31
57.58
12
-19.2
22
-11.68
32
57.86
13
-19.2
23
-11.68
33
57.86
0
3DFACE
8
Cylindrical crown wall
10
-19.95
20
-10.34
30
58.95
11
-20.46
21
-9.3
31
57.58
12
-19.95
22
-10.34
32
56.77
13
-19.4
23
-11.35
33
57.58
0
3DFACE
8
Cylindrical crown wall
10
-19.0
20
-12.0
30
57.58
11
-19.2
21
-11.68
31
57.86
12
-19.4
22
-11.35
32
57.58
13
-19.2
23
-11.68
33
57.13
0
3DFACE
8
Cylindrical crown wall
10
-18.36
20
-12.97
30
58.95
11
-19.2
21
-11.68
31
57.86
12
-19.0
22
-12.0
32
57.58
13
-19.0
23
-12.0
33
57.58
0
3DFACE
8
Cylindrical crown wall
10
-18.36
20
-12.97
30
58.95
11
-19.95
21
-10.34
31
58.95
12
-19.2
22
-11.68
32
57.86
13
-19.2
23
-11.68
33
57.86
0
3DFACE
8
Cylindrical crown wall
10
-18.36
20
-12.97
30
58.95
11
-17.67
21
-13.89
31
57.58
12
-17.43
22
-14.18
32
57.86
13
-17.43
23
-14.18
33
57.86
0
3DFACE
8
Cylindrical crown wall
10
-16.42
20
-15.34
30
58.95
11
-17.43
21
-14.18
31
57.86
12
-17.19
22
-14.48
32
57.58
13
-17.19
23
-14.48
33
57.58
0
3DFACE
8
Cylindrical crown wall
10
-16.42
20
-15.34
30
58.95
11
-18.36
21
-12.97
31
58.95
12
-17.43
22
-14.18
32
57.86
13
-17.43
23
-14.18
33
57.86
0
3DFACE
8
Cylindrical crown wall
10
-17.19
20
-14.48
30
57.58
11
-17.43
21
-14.18
31
57.86
12
-17.67
22
-13.89
32
57.58
13
-17.43
23
-14.18
33
57.13
0
3DFACE
8
Cylindrical crown wall
10
10.34
20
-19.96
30
55.67
11
9.65
21
-20.3
31
55.13
12
10.34
22
-19.96
32
54.58
13
11.02
23
-19.59
33
55.13
0
3DFACE
8
Cylindrical crown wall
10
-1.53
20
-22.42
30
55.67
11
-2.3
21
-22.36
31
55.13
12
-1.53
22
-22.42
32
54.58
13
-0.77
23
-22.46
33
55.13
0
3DFACE
8
Cylindrical crown wall
10
-12.96
20
-18.36
30
55.67
11
-13.58
21
-17.91
31
55.13
12
-12.96
22
-18.36
32
54.58
13
-12.32
23
-18.8
33
55.13
0
3DFACE
8
Cylindrical crown wall
10
-11.67
20
-19.21
30
55.67
11
-12.32
21
-18.8
31
55.13
12
-11.67
22
-19.21
32
54.58
13
-11.02
23
-19.59
33
55.13
0
3DFACE
8
Cylindrical crown wall
10
-12.32
20
-18.8
30
56.22
11
-12.96
21
-18.36
31
55.67
12
-12.32
22
-18.8
32
55.13
13
-11.67
23
-19.21
33
55.67
0
3DFACE
8
Cylindrical crown wall
10
-3.06
20
-22.27
30
55.67
11
-3.82
21
-22.15
31
55.13
12
-3.06
22
-22.27
32
54.58
13
-2.3
23
-22.36
33
55.13
0
3DFACE
8
Cylindrical crown wall
10
-10.34
20
-19.96
30
55.67
11
-11.02
21
-19.59
31
55.13
12
-10.34
22
-19.96
32
54.58
13
-9.65
23
-20.3
33
55.13
0
3DFACE
8
Cylindrical crown wall
10
-8.95
20
-20.62
30
55.67
11
-9.65
21
-20.3
31
55.13
12
-8.95
22
-20.62
32
54.58
13
-8.25
23
-20.91
33
55.13
0
3DFACE
8
Cylindrical crown wall
10
-7.53
20
-21.18
30
55.67
11
-8.25
21
-20.91
31
55.13
12
-7.53
22
-21.18
32
54.58
13
-6.8
23
-21.42
33
55.13
0
3DFACE
8
Cylindrical crown wall
10
-6.8
20
-21.42
30
56.22
11
-7.53
21
-21.18
31
55.67
12
-6.8
22
-21.42
32
55.13
13
-6.06
23
-21.64
33
55.67
0
3DFACE
8
Cylindrical crown wall
10
-6.06
20
-21.64
30
55.67
11
-6.8
21
-21.42
31
55.13
12
-6.06
22
-21.64
32
54.58
13
-5.32
23
-21.84
33
55.13
0
3DFACE
8
Cylindrical crown wall
10
-5.32
20
-21.84
30
56.22
11
-6.06
21
-21.64
31
55.67
12
-5.32
22
-21.84
32
55.13
13
-4.57
23
-22.01
33
55.67
0
3DFACE
8
Cylindrical crown wall
10
-4.57
20
-22.01
30
55.67
11
-5.32
21
-21.84
31
55.13
12
-4.57
22
-22.01
32
54.58
13
-3.82
23
-22.15
33
55.13
0
3DFACE
8
Cylindrical crown wall
10
-3.82
20
-22.15
30
56.22
11
-4.57
21
-22.01
31
55.67
12
-3.82
22
-22.15
32
55.13
13
-3.06
23
-22.27
33
55.67
0
3DFACE
8
Cylindrical crown wall
10
8.96
20
-20.61
30
55.67
11
8.25
21
-20.91
31
55.13
12
8.96
22
-20.61
32
54.58
13
9.65
23
-20.3
33
55.13
0
3DFACE
8
Cylindrical crown wall
10
7.53
20
-21.18
30
55.67
11
6.8
21
-21.42
31
55.13
12
7.53
22
-21.18
32
54.58
13
8.25
23
-20.91
33
55.13
0
3DFACE
8
Cylindrical crown wall
10
6.07
20
-21.64
30
55.67
11
5.32
21
-21.84
31
55.13
12
6.07
22
-21.64
32
54.58
13
6.8
23
-21.42
33
55.13
0
3DFACE
8
Cylindrical crown wall
10
4.57
20
-22.01
30
55.67
11
3.82
21
-22.15
31
55.13
12
4.57
22
-22.01
32
54.58
13
5.32
23
-21.84
33
55.13
0
3DFACE
8
Cylindrical crown wall
10
3.07
20
-22.27
30
55.67
11
2.3
21
-22.36
31
55.13
12
3.07
22
-22.27
32
54.58
13
3.82
23
-22.15
33
55.13
0
3DFACE
8
Cylindrical crown wall
10
1.53
20
-22.42
30
55.67
11
0.76
21
-22.46
31
55.13
12
1.53
22
-22.42
32
54.58
13
2.3
23
-22.36
33
55.13
0
3DFACE
8
Cylindrical crown wall
10
0.0
20
-22.48
30
55.67
11
-0.77
21
-22.46
31
55.13
12
0.0
22
-22.48
32
54.58
13
0.76
23
-22.46
33
55.13
0
3DFACE
8
Cylindrical crown wall
10
-0.77
20
-22.46
30
56.22
11
-1.53
21
-22.42
31
55.67
12
-0.77
22
-22.46
32
55.13
13
0.0
23
-22.48
33
55.67
0
3DFACE
8
Cylindrical crown wall
10
0.76
20
-22.46
30
56.22
11
0.0
21
-22.48
31
55.67
12
0.76
22
-22.46
32
55.13
13
1.53
23
-22.42
33
55.67
0
3DFACE
8
Cylindrical crown wall
10
0.0
20
-22.48
30
56.77
11
-0.77
21
-22.46
31
56.22
12
0.0
22
-22.48
32
55.67
13
0.76
23
-22.46
33
56.22
0
3DFACE
8
Cylindrical crown wall
10
0.0
20
-22.48
30
56.77
11
-1.15
21
-22.45
31
57.58
12
-1.53
22
-22.42
32
57.13
13
-0.77
23
-22.46
33
56.22
0
3DFACE
8
Cylindrical crown wall
10
2.3
20
-22.36
30
56.22
11
1.53
21
-22.42
31
55.67
12
2.3
22
-22.36
32
55.13
13
3.07
23
-22.27
33
55.67
0
3DFACE
8
Cylindrical crown wall
10
3.82
20
-22.15
30
56.22
11
3.07
21
-22.27
31
55.67
12
3.82
22
-22.15
32
55.13
13
4.57
23
-22.01
33
55.67
0
3DFACE
8
Cylindrical crown wall
10
5.32
20
-21.84
30
56.22
11
4.57
21
-22.01
31
55.67
12
5.32
22
-21.84
32
55.13
13
6.07
23
-21.64
33
55.67
0
3DFACE
8
Cylindrical crown wall
10
6.8
20
-21.42
30
56.22
11
6.07
21
-21.64
31
55.67
12
6.8
22
-21.42
32
55.13
13
7.53
23
-21.18
33
55.67
0
3DFACE
8
Cylindrical crown wall
10
8.25
20
-20.91
30
56.22
11
7.53
21
-21.18
31
57.13
12
6.8
22
-21.42
32
56.22
13
7.53
23
-21.18
33
55.67
0
3DFACE
8
Cylindrical crown wall
10
8.25
20
-20.91
30
56.22
11
7.53
21
-21.18
31
55.67
12
8.25
22
-20.91
32
55.13
13
8.96
23
-20.61
33
55.67
0
3DFACE
8
Cylindrical crown wall
10
9.65
20
-20.3
30
56.22
11
8.96
21
-20.61
31
55.67
12
9.65
22
-20.3
32
55.13
13
10.34
23
-19.96
33
55.67
0
3DFACE
8
Cylindrical crown wall
10
11.02
20
-19.59
30
56.22
11
10.34
21
-19.96
31
57.13
12
9.65
22
-20.3
32
56.22
13
10.34
23
-19.96
33
55.67
0
3DFACE
8
Cylindrical crown wall
10
-2.3
20
-22.36
30
56.22
11
-3.06
21
-22.27
31
55.67
12
-2.3
22
-22.36
32
55.13
13
-1.53
23
-22.42
33
55.67
0
3DFACE
8
Cylindrical crown wall
10
-1.53
20
-22.42
30
57.13
11
-1.91
21
-22.39
31
57.58
12
-3.06
22
-22.27
32
56.77
13
-2.3
23
-22.36
33
56.22
0
3DFACE
8
Cylindrical crown wall
10
-0.77
20
-22.46
30
56.22
11
-1.53
21
-22.42
31
57.13
12
-2.3
22
-22.36
32
56.22
13
-1.53
23
-22.42
33
55.67
0
3DFACE
8
Cylindrical crown wall
10
1.53
20
-22.42
30
57.13
11
1.15
21
-22.45
31
57.58
12
0.0
22
-22.48
32
56.77
13
0.76
23
-22.46
33
56.22
0
3DFACE
8
Cylindrical crown wall
10
2.3
20
-22.36
30
56.22
11
1.53
21
-22.42
31
57.13
12
0.76
22
-22.46
32
56.22
13
1.53
23
-22.42
33
55.67
0
3DFACE
8
Cylindrical crown wall
10
-11.02
20
-19.59
30
56.22
11
-11.67
21
-19.21
31
55.67
12
-11.02
22
-19.59
32
55.13
13
-10.34
23
-19.96
33
55.67
0
3DFACE
8
Cylindrical crown wall
10
-10.34
20
-19.96
30
57.13
11
-10.68
21
-19.78
31
57.58
12
-11.67
22
-19.21
32
56.77
13
-11.02
23
-19.59
33
56.22
0
3DFACE
8
Cylindrical crown wall
10
-9.65
20
-20.3
30
56.22
11
-10.34
21
-19.96
31
57.13
12
-11.02
22
-19.59
32
56.22
13
-10.34
23
-19.96
33
55.67
0
3DFACE
8
Cylindrical crown wall
10
-9.65
20
-20.3
30
56.22
11
-10.34
21
-19.96
31
55.67
12
-9.65
22
-20.3
32
55.13
13
-8.95
23
-20.62
33
55.67
0
3DFACE
8
Cylindrical crown wall
10
-8.25
20
-20.91
30
56.22
11
-8.95
21
-20.62
31
55.67
12
-8.25
22
-20.91
32
55.13
13
-7.53
23
-21.18
33
55.67
0
3DFACE
8
Cylindrical crown wall
10
-6.06
20
-21.64
30
56.77
11
-6.8
21
-21.42
31
56.22
12
-6.06
22
-21.64
32
55.67
13
-5.32
23
-21.84
33
56.22
0
3DFACE
8
Cylindrical crown wall
10
-4.57
20
-22.01
30
57.13
11
-4.94
21
-21.93
31
57.58
12
-6.06
22
-21.64
32
56.77
13
-5.32
23
-21.84
33
56.22
0
3DFACE
8
Cylindrical crown wall
10
-3.82
20
-22.15
30
56.22
11
-4.57
21
-22.01
31
57.13
12
-5.32
22
-21.84
32
56.22
13
-4.57
23
-22.01
33
55.67
0
3DFACE
8
Cylindrical crown wall
10
-4.2
20
-22.08
30
57.58
11
-4.57
21
-22.01
31
57.13
12
-3.82
22
-22.15
32
56.22
13
-3.06
23
-22.27
33
56.77
0
3DFACE
8
Cylindrical crown wall
10
-3.06
20
-22.27
30
56.77
11
-3.82
21
-22.15
31
56.22
12
-3.06
22
-22.27
32
55.67
13
-2.3
23
-22.36
33
56.22
0
3DFACE
8
Cylindrical crown wall
10
3.07
20
-22.27
30
56.77
11
1.91
21
-22.39
31
57.58
12
1.53
22
-22.42
32
57.13
13
2.3
23
-22.36
33
56.22
0
3DFACE
8
Cylindrical crown wall
10
3.07
20
-22.27
30
56.77
11
2.3
21
-22.36
31
56.22
12
3.07
22
-22.27
32
55.67
13
3.82
23
-22.15
33
56.22
0
3DFACE
8
Cylindrical crown wall
10
4.57
20
-22.01
30
57.13
11
4.2
21
-22.08
31
57.58
12
3.07
22
-22.27
32
56.77
13
3.82
23
-22.15
33
56.22
0
3DFACE
8
Cylindrical crown wall
10
5.32
20
-21.84
30
56.22
11
4.57
21
-22.01
31
57.13
12
3.82
22
-22.15
32
56.22
13
4.57
23
-22.01
33
55.67
0
3DFACE
8
Cylindrical crown wall
10
4.94
20
-21.93
30
57.58
11
4.57
21
-22.01
31
57.13
12
5.32
22
-21.84
32
56.22
13
6.07
23
-21.64
33
56.77
0
3DFACE
8
Cylindrical crown wall
10
6.07
20
-21.64
30
56.77
11
5.32
21
-21.84
31
56.22
12
6.07
22
-21.64
32
55.67
13
6.8
23
-21.42
33
56.22
0
3DFACE
8
Cylindrical crown wall
10
7.53
20
-21.18
30
57.13
11
7.17
21
-21.3
31
57.58
12
6.07
22
-21.64
32
56.77
13
6.8
23
-21.42
33
56.22
0
3DFACE
8
Cylindrical crown wall
10
7.88
20
-21.05
30
57.58
11
7.53
21
-21.18
31
57.13
12
8.25
22
-20.91
32
56.22
13
8.96
23
-20.61
33
56.77
0
3DFACE
8
Cylindrical crown wall
10
8.96
20
-20.61
30
56.77
11
8.25
21
-20.91
31
56.22
12
8.96
22
-20.61
32
55.67
13
9.65
23
-20.3
33
56.22
0
3DFACE
8
Cylindrical crown wall
10
10.34
20
-19.96
30
57.13
11
10.0
21
-20.13
31
57.58
12
8.96
22
-20.61
32
56.77
13
9.65
23
-20.3
33
56.22
0
3DFACE
8
Cylindrical crown wall
10
-12.32
20
-18.8
30
56.22
11
-12.96
21
-18.36
31
57.13
12
-13.58
22
-17.91
32
56.22
13
-12.96
23
-18.36
33
55.67
0
3DFACE
8
Cylindrical crown wall
10
-11.67
20
-19.21
30
56.77
11
-12.32
21
-18.8
31
56.22
12
-11.67
22
-19.21
32
55.67
13
-11.02
23
-19.59
33
56.22
0
3DFACE
8
Cylindrical crown wall
10
-6.8
20
-21.42
30
56.22
11
-7.53
21
-21.18
31
57.13
12
-8.25
22
-20.91
32
56.22
13
-7.53
23
-21.18
33
55.67
0
3DFACE
8
Cylindrical crown wall
10
-8.95
20
-20.62
30
56.77
11
-9.65
21
-20.3
31
56.22
12
-8.95
22
-20.62
32
55.67
13
-8.25
23
-20.91
33
56.22
0
3DFACE
8
Cylindrical crown wall
10
-6.06
20
-21.64
30
56.77
11
-7.17
21
-21.3
31
57.58
12
-7.53
22
-21.18
32
57.13
13
-6.8
23
-21.42
33
56.22
0
3DFACE
8
Cylindrical crown wall
10
-7.53
20
-21.18
30
57.13
11
-7.88
21
-21.05
31
57.58
12
-8.95
22
-20.62
32
56.77
13
-8.25
23
-20.91
33
56.22
0
3DFACE
8
Cylindrical crown wall
10
-10.0
20
-20.13
30
57.58
11
-10.34
21
-19.96
31
57.13
12
-9.65
22
-20.3
32
56.22
13
-8.95
23
-20.62
33
56.77
0
3DFACE
8
Cylindrical crown wall
10
-12.65
20
-18.58
30
57.58
11
-12.96
21
-18.36
31
57.13
12
-12.32
22
-18.8
32
56.22
13
-11.67
23
-19.21
33
56.77
0
3DFACE
8
Cylindrical crown wall
10
-14.18
20
-17.44
30
55.67
11
-14.77
21
-16.94
31
55.13
12
-14.18
22
-17.44
32
54.58
13
-13.58
23
-17.91
33
55.13
0
3DFACE
8
Cylindrical crown wall
10
-11.67
20
-19.21
30
58.95
11
-14.18
21
-17.44
31
58.95
12
-12.96
22
-18.36
32
57.86
13
-12.96
23
-18.36
33
57.86
0
3DFACE
8
Cylindrical crown wall
10
-13.58
20
-17.91
30
56.22
11
-14.18
21
-17.44
31
55.67
12
-13.58
22
-17.91
32
55.13
13
-12.96
23
-18.36
33
55.67
0
3DFACE
8
Cylindrical crown wall
10
-14.18
20
-17.44
30
56.77
11
-14.77
21
-16.94
31
56.22
12
-14.18
22
-17.44
32
55.67
13
-13.58
23
-17.91
33
56.22
0
3DFACE
8
Cylindrical crown wall
10
-12.96
20
-18.36
30
57.13
11
-13.27
21
-18.14
31
57.58
12
-14.18
22
-17.44
32
56.77
13
-13.58
23
-17.91
33
56.22
0
3DFACE
8
Cylindrical crown wall
10
-11.67
20
-19.21
30
58.95
11
-12.96
21
-18.36
31
57.86
12
-12.65
22
-18.58
32
57.58
13
-12.65
23
-18.58
33
57.58
0
3DFACE
8
Cylindrical crown wall
10
-12.65
20
-18.58
30
57.58
11
-12.96
21
-18.36
31
57.86
12
-13.27
22
-18.14
32
57.58
13
-12.96
23
-18.36
33
57.13
0
3DFACE
8
Cylindrical crown wall
10
-14.18
20
-17.44
30
58.95
11
-13.27
21
-18.14
31
57.58
12
-12.96
22
-18.36
32
57.86
13
-12.96
23
-18.36
33
57.86
0
3DFACE
8
Cylindrical crown wall
10
-14.18
20
-17.44
30
58.95
11
-15.06
21
-16.68
31
57.58
12
-14.18
22
-17.44
32
56.77
13
-13.27
23
-18.14
33
57.58
0
3DFACE
8
Cylindrical crown wall
10
16.43
20
-15.34
30
58.95
11
17.19
21
-14.48
31
57.58
12
17.43
22
-14.18
32
57.86
13
17.43
23
-14.18
33
57.86
0
3DFACE
8
Cylindrical crown wall
10
11.68
20
-19.2
30
58.95
11
10.68
21
-19.78
31
57.58
12
11.68
22
-19.2
32
56.77
13
12.65
23
-18.58
33
57.58
0
3DFACE
8
Cylindrical crown wall
10
14.19
20
-17.43
30
58.95
11
11.68
21
-19.2
31
58.95
12
12.96
22
-18.36
32
57.86
13
12.96
23
-18.36
33
57.86
0
3DFACE
8
Cylindrical crown wall
10
11.68
20
-19.2
30
58.95
11
12.65
21
-18.58
31
57.58
12
12.96
22
-18.36
32
57.86
13
12.96
23
-18.36
33
57.86
0
3DFACE
8
Cylindrical crown wall
10
13.27
20
-18.14
30
57.58
11
12.96
21
-18.36
31
57.86
12
12.65
22
-18.58
32
57.58
13
12.96
23
-18.36
33
57.13
0
3DFACE
8
Cylindrical crown wall
10
14.19
20
-17.43
30
58.95
11
12.96
21
-18.36
31
57.86
12
13.27
22
-18.14
32
57.58
13
13.27
23
-18.14
33
57.58
0
3DFACE
8
Cylindrical crown wall
10
14.19
20
-17.43
30
58.95
11
13.27
21
-18.14
31
57.58
12
14.19
22
-17.43
32
56.77
13
15.06
23
-16.68
33
57.58
0
3DFACE
8
Cylindrical crown wall
10
14.19
20
-17.43
30
58.95
11
15.06
21
-16.68
31
57.58
12
15.34
22
-16.43
32
57.86
13
15.34
23
-16.43
33
57.86
0
3DFACE
8
Cylindrical crown wall
10
16.43
20
-15.34
30
58.95
11
14.19
21
-17.43
31
58.95
12
15.34
22
-16.43
32
57.86
13
15.34
23
-16.43
33
57.86
0
3DFACE
8
Cylindrical crown wall
10
15.62
20
-16.16
30
57.58
11
15.34
21
-16.43
31
57.86
12
15.06
22
-16.68
32
57.58
13
15.34
23
-16.43
33
57.13
0
3DFACE
8
Cylindrical crown wall
10
16.43
20
-15.34
30
58.95
11
15.34
21
-16.43
31
57.86
12
15.62
22
-16.16
32
57.58
13
15.62
23
-16.16
33
57.58
0
3DFACE
8
Cylindrical crown wall
10
16.43
20
-15.34
30
58.95
11
15.62
21
-16.16
31
57.58
12
16.43
22
-15.34
32
56.77
13
17.19
23
-14.48
33
57.58
0
3DFACE
8
Cylindrical crown wall
10
18.36
20
-12.96
30
58.95
11
16.43
21
-15.34
31
58.95
12
17.43
22
-14.18
32
57.86
13
17.43
23
-14.18
33
57.86
0
3DFACE
8
Cylindrical crown wall
10
17.67
20
-13.89
30
57.58
11
17.43
21
-14.18
31
57.86
12
17.19
22
-14.48
32
57.58
13
17.43
23
-14.18
33
57.13
0
3DFACE
8
Cylindrical crown wall
10
18.36
20
-12.96
30
58.95
11
17.43
21
-14.18
31
57.86
12
17.67
22
-13.89
32
57.58
13
17.67
23
-13.89
33
57.58
0
3DFACE
8
Cylindrical crown wall
10
22.32
20
-2.68
30
57.58
11
22.27
21
-3.06
31
57.86
12
22.21
22
-3.44
32
57.58
13
22.27
23
-3.06
33
57.13
0
3DFACE
8
Cylindrical crown wall
10
22.42
20
-1.53
30
58.95
11
22.27
21
-3.06
31
57.86
12
22.32
22
-2.68
32
57.58
13
22.32
23
-2.68
33
57.58
0
3DFACE
8
Cylindrical crown wall
10
22.42
20
-1.53
30
58.95
11
22.01
21
-4.57
31
58.95
12
22.27
22
-3.06
32
57.86
13
22.27
23
-3.06
33
57.86
0
3DFACE
8
Cylindrical crown wall
10
22.01
20
-4.57
30
58.95
11
22.21
21
-3.44
31
57.58
12
22.27
22
-3.06
32
57.86
13
22.27
23
-3.06
33
57.86
0
3DFACE
8
Cylindrical crown wall
10
21.18
20
-7.52
30
58.95
11
21.54
21
-6.43
31
57.58
12
21.64
22
-6.06
32
57.86
13
21.64
23
-6.06
33
57.86
0
3DFACE
8
Cylindrical crown wall
10
22.01
20
-4.57
30
58.95
11
21.74
21
-5.7
31
57.58
12
22.01
22
-4.57
32
56.77
13
22.21
23
-3.44
33
57.58
0
3DFACE
8
Cylindrical crown wall
10
22.01
20
-4.57
30
58.95
11
21.64
21
-6.06
31
57.86
12
21.74
22
-5.7
32
57.58
13
21.74
23
-5.7
33
57.58
0
3DFACE
8
Cylindrical crown wall
10
22.01
20
-4.57
30
58.95
11
21.18
21
-7.52
31
58.95
12
21.64
22
-6.06
32
57.86
13
21.64
23
-6.06
33
57.86
0
3DFACE
8
Cylindrical crown wall
10
18.36
20
-12.96
30
58.95
11
17.67
21
-13.89
31
57.58
12
18.36
22
-12.96
32
56.77
13
19.0
23
-12.0
33
57.58
0
3DFACE
8
Cylindrical crown wall
10
19.96
20
-10.34
30
58.95
11
18.36
21
-12.96
31
58.95
12
19.2
22
-11.68
32
57.86
13
19.2
23
-11.68
33
57.86
0
3DFACE
8
Cylindrical crown wall
10
18.36
20
-12.96
30
58.95
11
19.0
21
-12.0
31
57.58
12
19.2
22
-11.68
32
57.86
13
19.2
23
-11.68
33
57.86
0
3DFACE
8
Cylindrical crown wall
10
19.4
20
-11.35
30
57.58
11
19.2
21
-11.68
31
57.86
12
19.0
22
-12.0
32
57.58
13
19.2
23
-11.68
33
57.13
0
3DFACE
8
Cylindrical crown wall
10
19.96
20
-10.34
30
58.95
11
19.2
21
-11.68
31
57.86
12
19.4
22
-11.35
32
57.58
13
19.4
23
-11.35
33
57.58
0
3DFACE
8
Cylindrical crown wall
10
19.96
20
-10.34
30
58.95
11
19.4
21
-11.35
31
57.58
12
19.96
22
-10.34
32
56.77
13
20.46
23
-9.3
33
57.58
0
3DFACE
8
Cylindrical crown wall
10
22.42
20
-1.53
30
58.95
11
22.47
21
-0.38
31
57.58
12
22.48
22
-0.0
32
57.86
13
22.48
23
-0.0
33
57.86
0
3DFACE
8
Cylindrical crown wall
10
22.47
20
0.38
30
57.58
11
22.48
21
-0.0
31
57.86
12
22.47
22
-0.38
32
57.58
13
22.48
23
-0.0
33
57.13
0
3DFACE
8
Cylindrical crown wall
10
22.42
20
-1.53
30
58.95
11
22.32
21
-2.68
31
57.58
12
22.42
22
-1.53
32
56.77
13
22.47
23
-0.38
33
57.58
0
3DFACE
8
Cylindrical crown wall
10
21.18
20
-7.52
30
58.95
11
19.96
21
-10.34
31
58.95
12
20.62
22
-8.95
32
57.86
13
20.62
23
-8.95
33
57.86
0
3DFACE
8
Cylindrical crown wall
10
19.96
20
-10.34
30
58.95
11
20.46
21
-9.3
31
57.58
12
20.62
22
-8.95
32
57.86
13
20.62
23
-8.95
33
57.86
0
3DFACE
8
Cylindrical crown wall
10
20.76
20
-8.6
30
57.58
11
20.62
21
-8.95
31
57.86
12
20.46
22
-9.3
32
57.58
13
20.62
23
-8.95
33
57.13
0
3DFACE
8
Cylindrical crown wall
10
21.18
20
-7.52
30
58.95
11
20.62
21
-8.95
31
57.86
12
20.76
22
-8.6
32
57.58
13
20.76
23
-8.6
33
57.58
0
3DFACE
8
Cylindrical crown wall
10
21.18
20
-7.52
30
58.95
11
20.76
21
-8.6
31
57.58
12
21.18
22
-7.52
32
56.77
13
21.54
23
-6.43
33
57.58
0
3DFACE
8
Cylindrical crown wall
10
21.74
20
-5.7
30
57.58
11
21.64
21
-6.06
31
57.86
12
21.54
22
-6.43
32
57.58
13
21.64
23
-6.06
33
57.13
0
3DFACE
8
Cylindrical crown wall
10
-1.15
20
-22.45
30
57.58
11
-1.53
21
-22.42
31
57.86
12
-1.91
22
-22.39
32
57.58
13
-1.53
23
-22.42
33
57.13
0
3DFACE
8
Cylindrical crown wall
10
-4.2
20
-22.08
30
57.58
11
-4.57
21
-22.01
31
57.86
12
-4.94
22
-21.93
32
57.58
13
-4.57
23
-22.01
33
57.13
0
3DFACE
8
Cylindrical crown wall
10
-7.17
20
-21.3
30
57.58
11
-7.53
21
-21.18
31
57.86
12
-7.88
22
-21.05
32
57.58
13
-7.53
23
-21.18
33
57.13
0
3DFACE
8
Cylindrical crown wall
10
-10.0
20
-20.13
30
57.58
11
-10.34
21
-19.96
31
57.86
12
-10.68
22
-19.78
32
57.58
13
-10.34
23
-19.96
33
57.13
0
3DFACE
8
Cylindrical crown wall
10
-3.06
20
-22.27
30
58.95
11
-1.91
21
-22.39
31
57.58
12
-1.53
22
-22.42
32
57.86
13
-1.53
23
-22.42
33
57.86
0
3DFACE
8
Cylindrical crown wall
10
0.0
20
-22.48
30
58.95
11
-1.53
21
-22.42
31
57.86
12
-1.15
22
-22.45
32
57.58
13
-1.15
23
-22.45
33
57.58
0
3DFACE
8
Cylindrical crown wall
10
0.0
20
-22.48
30
58.95
11
-3.06
21
-22.27
31
58.95
12
-1.53
22
-22.42
32
57.86
13
-1.53
23
-22.42
33
57.86
0
3DFACE
8
Cylindrical crown wall
10
-3.06
20
-22.27
30
58.95
11
-4.2
21
-22.08
31
57.58
12
-3.06
22
-22.27
32
56.77
13
-1.91
23
-22.39
33
57.58
0
3DFACE
8
Cylindrical crown wall
10
-3.06
20
-22.27
30
58.95
11
-4.57
21
-22.01
31
57.86
12
-4.2
22
-22.08
32
57.58
13
-4.2
23
-22.08
33
57.58
0
3DFACE
8
Cylindrical crown wall
10
-3.06
20
-22.27
30
58.95
11
-6.06
21
-21.64
31
58.95
12
-4.57
22
-22.01
32
57.86
13
-4.57
23
-22.01
33
57.86
0
3DFACE
8
Cylindrical crown wall
10
-6.06
20
-21.64
30
58.95
11
-4.94
21
-21.93
31
57.58
12
-4.57
22
-22.01
32
57.86
13
-4.57
23
-22.01
33
57.86
0
3DFACE
8
Cylindrical crown wall
10
-8.95
20
-20.62
30
58.95
11
-7.88
21
-21.05
31
57.58
12
-7.53
22
-21.18
32
57.86
13
-7.53
23
-21.18
33
57.86
0
3DFACE
8
Cylindrical crown wall
10
-6.06
20
-21.64
30
58.95
11
-7.17
21
-21.3
31
57.58
12
-6.06
22
-21.64
32
56.77
13
-4.94
23
-21.93
33
57.58
0
3DFACE
8
Cylindrical crown wall
10
-6.06
20
-21.64
30
58.95
11
-7.53
21
-21.18
31
57.86
12
-7.17
22
-21.3
32
57.58
13
-7.17
23
-21.3
33
57.58
0
3DFACE
8
Cylindrical crown wall
10
-6.06
20
-21.64
30
58.95
11
-8.95
21
-20.62
31
58.95
12
-7.53
22
-21.18
32
57.86
13
-7.53
23
-21.18
33
57.86
0
3DFACE
8
Cylindrical crown wall
10
-8.95
20
-20.62
30
58.95
11
-10.0
21
-20.13
31
57.58
12
-8.95
22
-20.62
32
56.77
13
-7.88
23
-21.05
33
57.58
0
3DFACE
8
Cylindrical crown wall
10
-8.95
20
-20.62
30
58.95
11
-10.34
21
-19.96
31
57.86
12
-10.0
22
-20.13
32
57.58
13
-10.0
23
-20.13
33
57.58
0
3DFACE
8
Cylindrical crown wall
10
-8.95
20
-20.62
30
58.95
11
-11.67
21
-19.21
31
58.95
12
-10.34
22
-19.96
32
57.86
13
-10.34
23
-19.96
33
57.86
0
3DFACE
8
Cylindrical crown wall
10
-11.67
20
-19.21
30
58.95
11
-10.68
21
-19.78
31
57.58
12
-10.34
22
-19.96
32
57.86
13
-10.34
23
-19.96
33
57.86
0
3DFACE
8
Cylindrical crown wall
10
-11.67
20
-19.21
30
58.95
11
-12.65
21
-18.58
31
57.58
12
-11.67
22
-19.21
32
56.77
13
-10.68
23
-19.78
33
57.58
0
3DFACE
8
Cylindrical crown wall
10
7.88
20
-21.05
30
57.58
11
7.53
21
-21.18
31
57.86
12
7.17
22
-21.3
32
57.58
13
7.53
23
-21.18
33
57.13
0
3DFACE
8
Cylindrical crown wall
10
8.96
20
-20.61
30
58.95
11
7.53
21
-21.18
31
57.86
12
7.88
22
-21.05
32
57.58
13
7.88
23
-21.05
33
57.58
0
3DFACE
8
Cylindrical crown wall
10
8.96
20
-20.61
30
58.95
11
6.07
21
-21.64
31
58.95
12
7.53
22
-21.18
32
57.86
13
7.53
23
-21.18
33
57.86
0
3DFACE
8
Cylindrical crown wall
10
6.07
20
-21.64
30
58.95
11
7.17
21
-21.3
31
57.58
12
7.53
22
-21.18
32
57.86
13
7.53
23
-21.18
33
57.86
0
3DFACE
8
Cylindrical crown wall
10
0.0
20
-22.48
30
58.95
11
-1.15
21
-22.45
31
57.58
12
0.0
22
-22.48
32
56.77
13
1.15
23
-22.45
33
57.58
0
3DFACE
8
Cylindrical crown wall
10
0.0
20
-22.48
30
58.95
11
1.15
21
-22.45
31
57.58
12
1.53
22
-22.42
32
57.86
13
1.53
23
-22.42
33
57.86
0
3DFACE
8
Cylindrical crown wall
10
3.07
20
-22.27
30
58.95
11
0.0
21
-22.48
31
58.95
12
1.53
22
-22.42
32
57.86
13
1.53
23
-22.42
33
57.86
0
3DFACE
8
Cylindrical crown wall
10
1.91
20
-22.39
30
57.58
11
1.53
21
-22.42
31
57.86
12
1.15
22
-22.45
32
57.58
13
1.53
23
-22.42
33
57.13
0
3DFACE
8
Cylindrical crown wall
10
3.07
20
-22.27
30
58.95
11
1.53
21
-22.42
31
57.86
12
1.91
22
-22.39
32
57.58
13
1.91
23
-22.39
33
57.58
0
3DFACE
8
Cylindrical crown wall
10
8.96
20
-20.61
30
58.95
11
10.0
21
-20.13
31
57.58
12
10.34
22
-19.96
32
57.86
13
10.34
23
-19.96
33
57.86
0
3DFACE
8
Cylindrical crown wall
10
11.68
20
-19.2
30
58.95
11
10.34
21
-19.96
31
57.86
12
10.68
22
-19.78
32
57.58
13
10.68
23
-19.78
33
57.58
0
3DFACE
8
Cylindrical crown wall
10
11.68
20
-19.2
30
58.95
11
8.96
21
-20.61
31
58.95
12
10.34
22
-19.96
32
57.86
13
10.34
23
-19.96
33
57.86
0
3DFACE
8
Cylindrical crown wall
10
10.68
20
-19.78
30
57.58
11
10.34
21
-19.96
31
57.86
12
10.0
22
-20.13
32
57.58
13
10.34
23
-19.96
33
57.13
0
3DFACE
8
Cylindrical crown wall
10
8.96
20
-20.61
30
58.95
11
7.88
21
-21.05
31
57.58
12
8.96
22
-20.61
32
56.77
13
10.0
23
-20.13
33
57.58
0
3DFACE
8
Cylindrical crown wall
10
3.07
20
-22.27
30
58.95
11
1.91
21
-22.39
31
57.58
12
3.07
22
-22.27
32
56.77
13
4.2
23
-22.08
33
57.58
0
3DFACE
8
Cylindrical crown wall
10
6.07
20
-21.64
30
58.95
11
3.07
21
-22.27
31
58.95
12
4.57
22
-22.01
32
57.86
13
4.57
23
-22.01
33
57.86
0
3DFACE
8
Cylindrical crown wall
10
3.07
20
-22.27
30
58.95
11
4.2
21
-22.08
31
57.58
12
4.57
22
-22.01
32
57.86
13
4.57
23
-22.01
33
57.86
0
3DFACE
8
Cylindrical crown wall
10
4.94
20
-21.93
30
57.58
11
4.57
21
-22.01
31
57.86
12
4.2
22
-22.08
32
57.58
13
4.57
23
-22.01
33
57.13
0
3DFACE
8
Cylindrical crown wall
10
6.07
20
-21.64
30
58.95
11
4.57
21
-22.01
31
57.86
12
4.94
22
-21.93
32
57.58
13
4.94
23
-21.93
33
57.58
0
3DFACE
8
Cylindrical crown wall
10
6.07
20
-21.64
30
58.95
11
4.94
21
-21.93
31
57.58
12
6.07
22
-21.64
32
56.77
13
7.17
23
-21.3
33
57.58
0
3DFACE
8
Cylindrical crown wall
10
22.0
20
4.58
30
58.95
11
22.21
21
3.44
31
57.58
12
22.0
22
4.58
32
56.77
13
21.74
23
5.7
33
57.58
0
3DFACE
8
Cylindrical crown wall
10
22.0
20
4.58
30
58.95
11
22.42
21
1.54
31
58.95
12
22.27
22
3.06
32
57.86
13
22.27
23
3.06
33
57.86
0
3DFACE
8
Cylindrical crown wall
10
22.42
20
1.54
30
56.77
11
22.46
21
0.77
31
56.22
12
22.42
22
1.54
32
55.67
13
22.36
23
2.3
33
56.22
0
3DFACE
8
Cylindrical crown wall
10
22.42
20
1.54
30
58.95
11
22.47
21
0.38
31
57.58
12
22.42
22
1.54
32
56.77
13
22.32
23
2.68
33
57.58
0
3DFACE
8
Cylindrical crown wall
10
22.0
20
4.58
30
58.95
11
22.27
21
3.06
31
57.86
12
22.21
22
3.44
32
57.58
13
22.21
23
3.44
33
57.58
0
3DFACE
8
Cylindrical crown wall
10
22.42
20
1.54
30
58.95
11
22.32
21
2.68
31
57.58
12
22.27
22
3.06
32
57.86
13
22.27
23
3.06
33
57.86
0
3DFACE
8
Cylindrical crown wall
10
22.21
20
3.44
30
57.58
11
22.27
21
3.06
31
57.86
12
22.32
22
2.68
32
57.58
13
22.27
23
3.06
33
57.13
0
3DFACE
8
Cylindrical crown wall
10
22.42
20
1.54
30
55.67
11
22.46
21
0.77
31
55.13
12
22.42
22
1.54
32
54.58
13
22.36
23
2.3
33
55.13
0
3DFACE
8
Cylindrical crown wall
10
22.0
20
4.58
30
58.95
11
21.74
21
5.7
31
57.58
12
21.64
22
6.06
32
57.86
13
21.64
23
6.06
33
57.86
0
3DFACE
8
Cylindrical crown wall
10
21.18
20
7.53
30
58.95
11
21.54
21
6.43
31
57.58
12
21.18
22
7.53
32
56.77
13
20.76
23
8.6
33
57.58
0
3DFACE
8
Cylindrical crown wall
10
21.18
20
7.53
30
58.95
11
21.64
21
6.06
31
57.86
12
21.54
22
6.43
32
57.58
13
21.54
23
6.43
33
57.58
0
3DFACE
8
Cylindrical crown wall
10
21.18
20
7.53
30
58.95
11
22.0
21
4.58
31
58.95
12
21.64
22
6.06
32
57.86
13
21.64
23
6.06
33
57.86
0
3DFACE
8
Cylindrical crown wall
10
21.54
20
6.43
30
57.58
11
21.64
21
6.06
31
57.86
12
21.74
22
5.7
32
57.58
13
21.64
23
6.06
33
57.13
0
3DFACE
8
Cylindrical crown wall
10
15.06
20
16.68
30
57.58
11
15.34
21
16.43
31
57.86
12
15.62
22
16.16
32
57.58
13
15.34
23
16.43
33
57.13
0
3DFACE
8
Cylindrical crown wall
10
16.42
20
15.34
30
58.95
11
15.62
21
16.16
31
57.58
12
15.34
22
16.43
32
57.86
13
15.34
23
16.43
33
57.86
0
3DFACE
8
Cylindrical crown wall
10
18.36
20
12.97
30
58.95
11
17.67
21
13.89
31
57.58
12
17.43
22
14.18
32
57.86
13
17.43
23
14.18
33
57.86
0
3DFACE
8
Cylindrical crown wall
10
16.42
20
15.34
30
58.95
11
17.19
21
14.48
31
57.58
12
16.42
22
15.34
32
56.77
13
15.62
23
16.16
33
57.58
0
3DFACE
8
Cylindrical crown wall
10
16.42
20
15.34
30
58.95
11
17.43
21
14.18
31
57.86
12
17.19
22
14.48
32
57.58
13
17.19
23
14.48
33
57.58
0
3DFACE
8
Cylindrical crown wall
10
19.95
20
10.34
30
58.95
11
21.18
21
7.53
31
58.95
12
20.62
22
8.95
32
57.86
13
20.62
23
8.95
33
57.86
0
3DFACE
8
Cylindrical crown wall
10
21.18
20
7.53
30
58.95
11
20.76
21
8.6
31
57.58
12
20.62
22
8.95
32
57.86
13
20.62
23
8.95
33
57.86
0
3DFACE
8
Cylindrical crown wall
10
20.46
20
9.3
30
57.58
11
20.62
21
8.95
31
57.86
12
20.76
22
8.6
32
57.58
13
20.62
23
8.95
33
57.13
0
3DFACE
8
Cylindrical crown wall
10
19.95
20
10.34
30
58.95
11
20.62
21
8.95
31
57.86
12
20.46
22
9.3
32
57.58
13
20.46
23
9.3
33
57.58
0
3DFACE
8
Cylindrical crown wall
10
19.95
20
10.34
30
58.95
11
20.46
21
9.3
31
57.58
12
19.95
22
10.34
32
56.77
13
19.4
23
11.35
33
57.58
0
3DFACE
8
Cylindrical crown wall
10
19.95
20
10.34
30
58.95
11
19.4
21
11.35
31
57.58
12
19.2
22
11.68
32
57.86
13
19.2
23
11.68
33
57.86
0
3DFACE
8
Cylindrical crown wall
10
18.36
20
12.97
30
58.95
11
19.95
21
10.34
31
58.95
12
19.2
22
11.68
32
57.86
13
19.2
23
11.68
33
57.86
0
3DFACE
8
Cylindrical crown wall
10
18.36
20
12.97
30
58.95
11
19.2
21
11.68
31
57.86
12
19.0
22
12.0
32
57.58
13
19.0
23
12.0
33
57.58
0
3DFACE
8
Cylindrical crown wall
10
18.36
20
12.97
30
58.95
11
19.0
21
12.0
31
57.58
12
18.36
22
12.97
32
56.77
13
17.67
23
13.89
33
57.58
0
3DFACE
8
Cylindrical crown wall
10
16.42
20
15.34
30
58.95
11
18.36
21
12.97
31
58.95
12
17.43
22
14.18
32
57.86
13
17.43
23
14.18
33
57.86
0
3DFACE
8
Cylindrical crown wall
10
17.19
20
14.48
30
57.58
11
17.43
21
14.18
31
57.86
12
17.67
22
13.89
32
57.58
13
17.43
23
14.18
33
57.13
0
3DFACE
8
Cylindrical crown wall
10
19.0
20
12.0
30
57.58
11
19.2
21
11.68
31
57.86
12
19.4
22
11.35
32
57.58
13
19.2
23
11.68
33
57.13
0
3DFACE
8
Cylindrical crown wall
10
14.18
20
17.44
30
58.95
11
15.34
21
16.43
31
57.86
12
15.06
22
16.68
32
57.58
13
15.06
23
16.68
33
57.58
0
3DFACE
8
Cylindrical crown wall
10
14.18
20
17.44
30
58.95
11
16.42
21
15.34
31
58.95
12
15.34
22
16.43
32
57.86
13
15.34
23
16.43
33
57.86
0
3DFACE
8
Cylindrical crown wall
10
11.67
20
19.21
30
58.95
11
10.68
21
19.78
31
57.58
12
10.34
22
19.96
32
57.86
13
10.34
23
19.96
33
57.86
0
3DFACE
8
Cylindrical crown wall
10
8.95
20
20.62
30
58.95
11
10.34
21
19.96
31
57.86
12
10.0
22
20.13
32
57.58
13
10.0
23
20.13
33
57.58
0
3DFACE
8
Cylindrical crown wall
10
8.95
20
20.62
30
58.95
11
11.67
21
19.21
31
58.95
12
10.34
22
19.96
32
57.86
13
10.34
23
19.96
33
57.86
0
3DFACE
8
Cylindrical crown wall
10
10.0
20
20.13
30
57.58
11
10.34
21
19.96
31
57.86
12
10.68
22
19.78
32
57.58
13
10.34
23
19.96
33
57.13
0
3DFACE
8
Cylindrical crown wall
10
11.67
20
19.21
30
58.95
11
12.65
21
18.58
31
57.58
12
11.67
22
19.21
32
56.77
13
10.68
23
19.78
33
57.58
0
3DFACE
8
Cylindrical crown wall
10
14.18
20
17.44
30
58.95
11
15.06
21
16.68
31
57.58
12
14.18
22
17.44
32
56.77
13
13.27
23
18.14
33
57.58
0
3DFACE
8
Cylindrical crown wall
10
12.65
20
18.58
30
57.58
11
12.96
21
18.36
31
57.86
12
13.27
22
18.14
32
57.58
13
12.96
23
18.36
33
57.13
0
3DFACE
8
Cylindrical crown wall
10
11.67
20
19.21
30
58.95
11
12.96
21
18.36
31
57.86
12
12.65
22
18.58
32
57.58
13
12.65
23
18.58
33
57.58
0
3DFACE
8
Cylindrical crown wall
10
14.18
20
17.44
30
58.95
11
13.27
21
18.14
31
57.58
12
12.96
22
18.36
32
57.86
13
12.96
23
18.36
33
57.86
0
3DFACE
8
Cylindrical crown wall
10
11.67
20
19.21
30
58.95
11
14.18
21
17.44
31
58.95
12
12.96
22
18.36
32
57.86
13
12.96
23
18.36
33
57.86
0
3DFACE
8
Cylindrical crown wall
10
7.17
20
21.3
30
57.58
11
7.53
21
21.18
31
57.86
12
7.88
22
21.05
32
57.58
13
7.53
23
21.18
33
57.13
0
3DFACE
8
Cylindrical crown wall
10
6.06
20
21.64
30
58.95
11
7.53
21
21.18
31
57.86
12
7.17
22
21.3
32
57.58
13
7.17
23
21.3
33
57.58
0
3DFACE
8
Cylindrical crown wall
10
6.06
20
21.64
30
58.95
11
8.95
21
20.62
31
58.95
12
7.53
22
21.18
32
57.86
13
7.53
23
21.18
33
57.86
0
3DFACE
8
Cylindrical crown wall
10
8.95
20
20.62
30
58.95
11
7.88
21
21.05
31
57.58
12
7.53
22
21.18
32
57.86
13
7.53
23
21.18
33
57.86
0
3DFACE
8
Cylindrical crown wall
10
8.95
20
20.62
30
58.95
11
10.0
21
20.13
31
57.58
12
8.95
22
20.62
32
56.77
13
7.88
23
21.05
33
57.58
0
3DFACE
8
Cylindrical crown wall
10
6.06
20
21.64
30
58.95
11
7.17
21
21.3
31
57.58
12
6.06
22
21.64
32
56.77
13
4.94
23
21.93
33
57.58
0
3DFACE
8
Cylindrical crown wall
10
6.06
20
21.64
30
58.95
11
4.94
21
21.93
31
57.58
12
4.57
22
22.01
32
57.86
13
4.57
23
22.01
33
57.86
0
3DFACE
8
Cylindrical crown wall
10
3.06
20
22.27
30
58.95
11
4.57
21
22.01
31
57.86
12
4.2
22
22.08
32
57.58
13
4.2
23
22.08
33
57.58
0
3DFACE
8
Cylindrical crown wall
10
3.06
20
22.27
30
58.95
11
6.06
21
21.64
31
58.95
12
4.57
22
22.01
32
57.86
13
4.57
23
22.01
33
57.86
0
3DFACE
8
Cylindrical crown wall
10
4.2
20
22.08
30
57.58
11
4.57
21
22.01
31
57.86
12
4.94
22
21.93
32
57.58
13
4.57
23
22.01
33
57.13
0
3DFACE
8
Cylindrical crown wall
10
3.06
20
22.27
30
58.95
11
4.2
21
22.08
31
57.58
12
3.06
22
22.27
32
56.77
13
1.91
23
22.39
33
57.58
0
3DFACE
8
Cylindrical crown wall
10
-6.07
20
21.64
30
58.95
11
-7.17
21
21.3
31
57.58
12
-7.53
22
21.18
32
57.86
13
-7.53
23
21.18
33
57.86
0
3DFACE
8
Cylindrical crown wall
10
-7.88
20
21.05
30
57.58
11
-7.53
21
21.18
31
57.86
12
-7.17
22
21.3
32
57.58
13
-7.53
23
21.18
33
57.13
0
3DFACE
8
Cylindrical crown wall
10
-6.07
20
21.64
30
58.95
11
-4.94
21
21.93
31
57.58
12
-6.07
22
21.64
32
56.77
13
-7.17
23
21.3
33
57.58
0
3DFACE
8
Cylindrical crown wall
10
3.06
20
22.27
30
58.95
11
1.91
21
22.39
31
57.58
12
1.53
22
22.42
32
57.86
13
1.53
23
22.42
33
57.86
0
3DFACE
8
Cylindrical crown wall
10
-0.0
20
22.48
30
58.95
11
3.06
21
22.27
31
58.95
12
1.53
22
22.42
32
57.86
13
1.53
23
22.42
33
57.86
0
3DFACE
8
Cylindrical crown wall
10
1.15
20
22.45
30
57.58
11
1.53
21
22.42
31
57.86
12
1.91
22
22.39
32
57.58
13
1.53
23
22.42
33
57.13
0
3DFACE
8
Cylindrical crown wall
10
-0.0
20
22.48
30
58.95
11
1.53
21
22.42
31
57.86
12
1.15
22
22.45
32
57.58
13
1.15
23
22.45
33
57.58
0
3DFACE
8
Cylindrical crown wall
10
-3.07
20
22.27
30
58.95
11
-0.0
21
22.48
31
58.95
12
-1.53
22
22.42
32
57.86
13
-1.53
23
22.42
33
57.86
0
3DFACE
8
Cylindrical crown wall
10
-1.91
20
22.39
30
57.58
11
-1.53
21
22.42
31
57.86
12
-1.15
22
22.45
32
57.58
13
-1.53
23
22.42
33
57.13
0
3DFACE
8
Cylindrical crown wall
10
-3.07
20
22.27
30
58.95
11
-1.53
21
22.42
31
57.86
12
-1.91
22
22.39
32
57.58
13
-1.91
23
22.39
33
57.58
0
3DFACE
8
Cylindrical crown wall
10
-3.07
20
22.27
30
58.95
11
-1.91
21
22.39
31
57.58
12
-3.07
22
22.27
32
56.77
13
-4.2
23
22.08
33
57.58
0
3DFACE
8
Cylindrical crown wall
10
-6.07
20
21.64
30
58.95
11
-3.07
21
22.27
31
58.95
12
-4.57
22
22.01
32
57.86
13
-4.57
23
22.01
33
57.86
0
3DFACE
8
Cylindrical crown wall
10
-3.07
20
22.27
30
58.95
11
-4.2
21
22.08
31
57.58
12
-4.57
22
22.01
32
57.86
13
-4.57
23
22.01
33
57.86
0
3DFACE
8
Cylindrical crown wall
10
-4.94
20
21.93
30
57.58
11
-4.57
21
22.01
31
57.86
12
-4.2
22
22.08
32
57.58
13
-4.57
23
22.01
33
57.13
0
3DFACE
8
Cylindrical crown wall
10
-6.07
20
21.64
30
58.95
11
-4.57
21
22.01
31
57.86
12
-4.94
22
21.93
32
57.58
13
-4.94
23
21.93
33
57.58
0
3DFACE
8
Cylindrical crown wall
10
-0.0
20
22.48
30
58.95
11
1.15
21
22.45
31
57.58
12
-0.0
22
22.48
32
56.77
13
-1.15
23
22.45
33
57.58
0
3DFACE
8
Cylindrical crown wall
10
-0.0
20
22.48
30
58.95
11
-1.15
21
22.45
31
57.58
12
-1.53
22
22.42
32
57.86
13
-1.53
23
22.42
33
57.86
0
3DFACE
8
Cylindrical crown wall
10
-8.96
20
20.61
30
58.95
11
-7.53
21
21.18
31
57.86
12
-7.88
22
21.05
32
57.58
13
-7.88
23
21.05
33
57.58
0
3DFACE
8
Cylindrical crown wall
10
-8.96
20
20.61
30
58.95
11
-6.07
21
21.64
31
58.95
12
-7.53
22
21.18
32
57.86
13
-7.53
23
21.18
33
57.86
0
3DFACE
8
Cylindrical crown wall
10
-11.68
20
19.2
30
58.95
11
-12.65
21
18.58
31
57.58
12
-12.96
22
18.36
32
57.86
13
-12.96
23
18.36
33
57.86
0
3DFACE
8
Cylindrical crown wall
10
-14.19
20
17.43
30
58.95
11
-12.96
21
18.36
31
57.86
12
-13.27
22
18.14
32
57.58
13
-13.27
23
18.14
33
57.58
0
3DFACE
8
Cylindrical crown wall
10
-14.19
20
17.43
30
58.95
11
-11.68
21
19.2
31
58.95
12
-12.96
22
18.36
32
57.86
13
-12.96
23
18.36
33
57.86
0
3DFACE
8
Cylindrical crown wall
10
-13.27
20
18.14
30
57.58
11
-12.96
21
18.36
31
57.86
12
-12.65
22
18.58
32
57.58
13
-12.96
23
18.36
33
57.13
0
3DFACE
8
Cylindrical crown wall
10
-11.68
20
19.2
30
58.95
11
-10.68
21
19.78
31
57.58
12
-11.68
22
19.2
32
56.77
13
-12.65
23
18.58
33
57.58
0
3DFACE
8
Cylindrical crown wall
10
-8.96
20
20.61
30
58.95
11
-7.88
21
21.05
31
57.58
12
-8.96
22
20.61
32
56.77
13
-10.0
23
20.13
33
57.58
0
3DFACE
8
Cylindrical crown wall
10
-10.68
20
19.78
30
57.58
11
-10.34
21
19.96
31
57.86
12
-10.0
22
20.13
32
57.58
13
-10.34
23
19.96
33
57.13
0
3DFACE
8
Cylindrical crown wall
10
-11.68
20
19.2
30
58.95
11
-10.34
21
19.96
31
57.86
12
-10.68
22
19.78
32
57.58
13
-10.68
23
19.78
33
57.58
0
3DFACE
8
Cylindrical crown wall
10
-8.96
20
20.61
30
58.95
11
-10.0
21
20.13
31
57.58
12
-10.34
22
19.96
32
57.86
13
-10.34
23
19.96
33
57.86
0
3DFACE
8
Cylindrical crown wall
10
-11.68
20
19.2
30
58.95
11
-8.96
21
20.61
31
58.95
12
-10.34
22
19.96
32
57.86
13
-10.34
23
19.96
33
57.86
0
3DFACE
8
Cylindrical crown wall
10
-14.19
20
17.43
30
58.95
11
-15.06
21
16.68
31
57.58
12
-15.34
22
16.43
32
57.86
13
-15.34
23
16.43
33
57.86
0
3DFACE
8
Cylindrical crown wall
10
-16.43
20
15.34
30
58.95
11
-15.34
21
16.43
31
57.86
12
-15.62
22
16.16
32
57.58
13
-15.62
23
16.16
33
57.58
0
3DFACE
8
Cylindrical crown wall
10
-16.43
20
15.34
30
58.95
11
-14.19
21
17.43
31
58.95
12
-15.34
22
16.43
32
57.86
13
-15.34
23
16.43
33
57.86
0
3DFACE
8
Cylindrical crown wall
10
-15.62
20
16.16
30
57.58
11
-15.34
21
16.43
31
57.86
12
-15.06
22
16.68
32
57.58
13
-15.34
23
16.43
33
57.13
0
3DFACE
8
Cylindrical crown wall
10
-14.19
20
17.43
30
58.95
11
-13.27
21
18.14
31
57.58
12
-14.19
22
17.43
32
56.77
13
-15.06
23
16.68
33
57.58
0
3DFACE
8
Cylindrical crown wall
10
-16.43
20
15.34
30
58.95
11
-15.62
21
16.16
31
57.58
12
-16.43
22
15.34
32
56.77
13
-17.19
23
14.48
33
57.58
0
3DFACE
8
Cylindrical crown wall
10
-16.43
20
15.34
30
58.95
11
-17.19
21
14.48
31
57.58
12
-17.43
22
14.18
32
57.86
13
-17.43
23
14.18
33
57.86
0
3DFACE
8
Cylindrical crown wall
10
-17.67
20
13.89
30
57.58
11
-17.43
21
14.18
31
57.86
12
-17.19
22
14.48
32
57.58
13
-17.43
23
14.18
33
57.13
0
3DFACE
8
Cylindrical crown wall
10
-18.36
20
12.96
30
58.95
11
-17.67
21
13.89
31
57.58
12
-18.36
22
12.96
32
56.77
13
-19.0
23
12.0
33
57.58
0
3DFACE
8
Cylindrical crown wall
10
-18.36
20
12.96
30
58.95
11
-17.43
21
14.18
31
57.86
12
-17.67
22
13.89
32
57.58
13
-17.67
23
13.89
33
57.58
0
3DFACE
8
Cylindrical crown wall
10
-18.36
20
12.96
30
58.95
11
-16.43
21
15.34
31
58.95
12
-17.43
22
14.18
32
57.86
13
-17.43
23
14.18
33
57.86
0
3DFACE
8
Cylindrical crown wall
10
-19.96
20
10.34
30
58.95
11
-20.46
21
9.3
31
57.58
12
-20.62
22
8.95
32
57.86
13
-20.62
23
8.95
33
57.86
0
3DFACE
8
Cylindrical crown wall
10
-21.18
20
7.52
30
58.95
11
-20.62
21
8.95
31
57.86
12
-20.76
22
8.6
32
57.58
13
-20.76
23
8.6
33
57.58
0
3DFACE
8
Cylindrical crown wall
10
-20.76
20
8.6
30
57.58
11
-20.62
21
8.95
31
57.86
12
-20.46
22
9.3
32
57.58
13
-20.62
23
8.95
33
57.13
0
3DFACE
8
Cylindrical crown wall
10
-19.4
20
11.35
30
57.58
11
-19.2
21
11.68
31
57.86
12
-19.0
22
12.0
32
57.58
13
-19.2
23
11.68
33
57.13
0
3DFACE
8
Cylindrical crown wall
10
-21.18
20
7.52
30
58.95
11
-19.96
21
10.34
31
58.95
12
-20.62
22
8.95
32
57.86
13
-20.62
23
8.95
33
57.86
0
3DFACE
8
Cylindrical crown wall
10
-19.96
20
10.34
30
58.95
11
-19.4
21
11.35
31
57.58
12
-19.96
22
10.34
32
56.77
13
-20.46
23
9.3
33
57.58
0
3DFACE
8
Cylindrical crown wall
10
-19.96
20
10.34
30
58.95
11
-19.2
21
11.68
31
57.86
12
-19.4
22
11.35
32
57.58
13
-19.4
23
11.35
33
57.58
0
3DFACE
8
Cylindrical crown wall
10
-19.96
20
10.34
30
58.95
11
-18.36
21
12.96
31
58.95
12
-19.2
22
11.68
32
57.86
13
-19.2
23
11.68
33
57.86
0
3DFACE
8
Cylindrical crown wall
10
-18.36
20
12.96
30
58.95
11
-19.0
21
12.0
31
57.58
12
-19.2
22
11.68
32
57.86
13
-19.2
23
11.68
33
57.86
0
3DFACE
8
Cylindrical crown wall
10
-21.74
20
5.7
30
57.58
11
-21.64
21
6.06
31
57.86
12
-21.54
22
6.43
32
57.58
13
-21.64
23
6.06
33
57.13
0
3DFACE
8
Cylindrical crown wall
10
-22.01
20
4.57
30
58.95
11
-21.64
21
6.06
31
57.86
12
-21.74
22
5.7
32
57.58
13
-21.74
23
5.7
33
57.58
0
3DFACE
8
Cylindrical crown wall
10
-22.01
20
4.57
30
58.95
11
-21.18
21
7.52
31
58.95
12
-21.64
22
6.06
32
57.86
13
-21.64
23
6.06
33
57.86
0
3DFACE
8
Cylindrical crown wall
10
-21.18
20
7.52
30
58.95
11
-21.54
21
6.43
31
57.58
12
-21.64
22
6.06
32
57.86
13
-21.64
23
6.06
33
57.86
0
3DFACE
8
Cylindrical crown wall
10
-21.18
20
7.52
30
58.95
11
-20.76
21
8.6
31
57.58
12
-21.18
22
7.52
32
56.77
13
-21.54
23
6.43
33
57.58
0
3DFACE
8
Cylindrical crown wall
10
-22.01
20
4.57
30
58.95
11
-21.74
21
5.7
31
57.58
12
-22.01
22
4.57
32
56.77
13
-22.21
23
3.44
33
57.58
0
3DFACE
8
Cylindrical crown wall
10
-22.32
20
2.68
30
57.58
11
-22.27
21
3.06
31
57.86
12
-22.21
22
3.44
32
57.58
13
-22.27
23
3.06
33
57.13
0
3DFACE
8
Cylindrical crown wall
10
-22.01
20
4.57
30
58.95
11
-22.21
21
3.44
31
57.58
12
-22.27
22
3.06
32
57.86
13
-22.27
23
3.06
33
57.86
0
3DFACE
8
Cylindrical crown wall
10
-22.42
20
1.53
30
58.95
11
-22.27
21
3.06
31
57.86
12
-22.32
22
2.68
32
57.58
13
-22.32
23
2.68
33
57.58
0
3DFACE
8
Cylindrical crown wall
10
-22.42
20
1.53
30
58.95
11
-22.01
21
4.57
31
58.95
12
-22.27
22
3.06
32
57.86
13
-22.27
23
3.06
33
57.86
0
3DFACE
8
Cylindrical crown wall
10
-22.42
20
1.53
30
58.95
11
-22.47
21
0.38
31
57.58
12
-22.48
22
0.0
32
57.86
13
-22.48
23
0.0
33
57.86
0
3DFACE
8
Cylindrical crown wall
10
-22.42
20
-1.54
30
58.95
11
-22.48
21
0.0
31
57.86
12
-22.47
22
-0.38
32
57.58
13
-22.47
23
-0.38
33
57.58
0
3DFACE
8
Cylindrical crown wall
10
-22.42
20
-1.54
30
58.95
11
-22.42
21
1.53
31
58.95
12
-22.48
22
0.0
32
57.86
13
-22.48
23
0.0
33
57.86
0
3DFACE
8
Cylindrical crown wall
10
-22.47
20
-0.38
30
57.58
11
-22.48
21
0.0
31
57.86
12
-22.47
22
0.38
32
57.58
13
-22.48
23
0.0
33
57.13
0
3DFACE
8
Cylindrical crown wall
10
-22.42
20
1.53
30
58.95
11
-22.32
21
2.68
31
57.58
12
-22.42
22
1.53
32
56.77
13
-22.47
23
0.38
33
57.58
0
3DFACE
8
Cylindrical crown wall
10
-22.42
20
-1.54
30
58.95
11
-22.32
21
-2.68
31
57.58
12
-22.27
22
-3.06
32
57.86
13
-22.27
23
-3.06
33
57.86
0
3DFACE
8
Cylindrical crown wall
10
-22.42
20
-1.54
30
58.95
11
-22.47
21
-0.38
31
57.58
12
-22.42
22
-1.54
32
56.77
13
-22.32
23
-2.68
33
57.58
0
3DFACE
8
Cylindrical crown wall
10
-22.21
20
-3.44
30
57.58
11
-22.27
21
-3.06
31
57.86
12
-22.32
22
-2.68
32
57.58
13
-22.27
23
-3.06
33
57.13
0
3DFACE
8
Cylindrical crown wall
10
-21.18
20
-7.53
30
58.95
11
-22.0
21
-4.58
31
58.95
12
-21.64
22
-6.06
32
57.86
13
-21.64
23
-6.06
33
57.86
0
3DFACE
8
Cylindrical crown wall
10
-22.0
20
-4.58
30
58.95
11
-22.42
21
-1.54
31
58.95
12
-22.27
22
-3.06
32
57.86
13
-22.27
23
-3.06
33
57.86
0
3DFACE
8
Cylindrical crown wall
10
-22.0
20
-4.58
30
58.95
11
-22.27
21
-3.06
31
57.86
12
-22.21
22
-3.44
32
57.58
13
-22.21
23
-3.44
33
57.58
0
3DFACE
8
Cylindrical crown wall
10
-21.18
20
-7.53
30
58.95
11
-21.64
21
-6.06
31
57.86
12
-21.54
22
-6.43
32
57.58
13
-21.54
23
-6.43
33
57.58
0
3DFACE
8
Cylindrical crown wall
10
-22.0
20
-4.58
30
58.95
11
-22.21
21
-3.44
31
57.58
12
-22.0
22
-4.58
32
56.77
13
-21.74
23
-5.7
33
57.58
0
3DFACE
8
Cylindrical crown wall
10
-22.0
20
-4.58
30
58.95
11
-21.74
21
-5.7
31
57.58
12
-21.64
22
-6.06
32
57.86
13
-21.64
23
-6.06
33
57.86
0
3DFACE
8
Cylindrical crown wall
10
-21.54
20
-6.43
30
57.58
11
-21.64
21
-6.06
31
57.86
12
-21.74
22
-5.7
32
57.58
13
-21.64
23
-6.06
33
57.13
0
3DFACE
8
Cylindrical crown wall
10
-21.18
20
-7.53
30
58.95
11
-21.54
21
-6.43
31
57.58
12
-21.18
22
-7.53
32
56.77
13
-20.76
23
-8.6
33
57.58
0
3DFACE
8
Cylindrical crown wall
10
-19.95
20
-10.34
30
58.95
11
-20.62
21
-8.95
31
57.86
12
-20.46
22
-9.3
32
57.58
13
-20.46
23
-9.3
33
57.58
0
3DFACE
8
Cylindrical crown wall
10
-21.18
20
-7.53
30
58.95
11
-20.76
21
-8.6
31
57.58
12
-20.62
22
-8.95
32
57.86
13
-20.62
23
-8.95
33
57.86
0
3DFACE
8
Cylindrical crown wall
10
-19.95
20
-10.34
30
58.95
11
-21.18
21
-7.53
31
58.95
12
-20.62
22
-8.95
32
57.86
13
-20.62
23
-8.95
33
57.86
0
3DFACE
8
Cylindrical crown wall
10
-20.46
20
-9.3
30
57.58
11
-20.62
21
-8.95
31
57.86
12
-20.76
22
-8.6
32
57.58
13
-20.62
23
-8.95
33
57.13
0
3DFACE
8
Cylindrical crown wall
10
-8.25
20
20.91
30
56.22
11
-7.53
21
21.18
31
55.67
12
-8.25
22
20.91
32
55.13
13
-8.96
23
20.61
33
55.67
0
3DFACE
8
Cylindrical crown wall
10
-8.96
20
20.61
30
56.77
11
-7.88
21
21.05
31
57.58
12
-7.53
22
21.18
32
57.13
13
-8.25
23
20.91
33
56.22
0
3DFACE
8
Cylindrical crown wall
10
-1.91
20
22.39
30
57.58
11
-1.53
21
22.42
31
57.13
12
-2.3
22
22.36
32
56.22
13
-3.07
23
22.27
33
56.77
0
3DFACE
8
Cylindrical crown wall
10
-3.07
20
22.27
30
56.77
11
-2.3
21
22.36
31
56.22
12
-3.07
22
22.27
32
55.67
13
-3.82
23
22.15
33
56.22
0
3DFACE
8
Cylindrical crown wall
10
22.27
20
3.06
30
55.67
11
22.36
21
2.3
31
55.13
12
22.27
22
3.06
32
54.58
13
22.15
23
3.82
33
55.13
0
3DFACE
8
Cylindrical crown wall
10
22.0
20
4.58
30
55.67
11
22.15
21
3.82
31
55.13
12
22.0
22
4.58
32
54.58
13
21.84
23
5.32
33
55.13
0
3DFACE
8
Cylindrical crown wall
10
21.64
20
6.06
30
55.67
11
21.84
21
5.32
31
55.13
12
21.64
22
6.06
32
54.58
13
21.42
23
6.8
33
55.13
0
3DFACE
8
Cylindrical crown wall
10
18.36
20
12.97
30
55.67
11
18.79
21
12.33
31
55.13
12
18.36
22
12.97
32
54.58
13
17.91
23
13.58
33
55.13
0
3DFACE
8
Cylindrical crown wall
10
21.18
20
7.53
30
55.67
11
21.42
21
6.8
31
55.13
12
21.18
22
7.53
32
54.58
13
20.91
23
8.24
33
55.13
0
3DFACE
8
Cylindrical crown wall
10
20.91
20
8.24
30
56.22
11
21.18
21
7.53
31
55.67
12
20.91
22
8.24
32
55.13
13
20.62
23
8.95
33
55.67
0
3DFACE
8
Cylindrical crown wall
10
20.62
20
8.95
30
55.67
11
20.91
21
8.24
31
55.13
12
20.62
22
8.95
32
54.58
13
20.3
23
9.66
33
55.13
0
3DFACE
8
Cylindrical crown wall
10
20.3
20
9.66
30
56.22
11
20.62
21
8.95
31
55.67
12
20.3
22
9.66
32
55.13
13
19.95
23
10.34
33
55.67
0
3DFACE
8
Cylindrical crown wall
10
19.95
20
10.34
30
55.67
11
20.3
21
9.66
31
55.13
12
19.95
22
10.34
32
54.58
13
19.59
23
11.01
33
55.13
0
3DFACE
8
Cylindrical crown wall
10
19.59
20
11.01
30
56.22
11
19.95
21
10.34
31
55.67
12
19.59
22
11.01
32
55.13
13
19.2
23
11.68
33
55.67
0
3DFACE
8
Cylindrical crown wall
10
19.2
20
11.68
30
55.67
11
19.59
21
11.01
31
55.13
12
19.2
22
11.68
32
54.58
13
18.79
23
12.33
33
55.13
0
3DFACE
8
Cylindrical crown wall
10
18.79
20
12.33
30
56.22
11
19.2
21
11.68
31
55.67
12
18.79
22
12.33
32
55.13
13
18.36
23
12.97
33
55.67
0
3DFACE
8
Cylindrical crown wall
10
21.42
20
6.8
30
56.22
11
21.64
21
6.06
31
55.67
12
21.42
22
6.8
32
55.13
13
21.18
23
7.53
33
55.67
0
3DFACE
8
Cylindrical crown wall
10
21.84
20
5.32
30
56.22
11
22.0
21
4.58
31
55.67
12
21.84
22
5.32
32
55.13
13
21.64
23
6.06
33
55.67
0
3DFACE
8
Cylindrical crown wall
10
22.15
20
3.82
30
56.22
11
22.27
21
3.06
31
55.67
12
22.15
22
3.82
32
55.13
13
22.0
23
4.58
33
55.67
0
3DFACE
8
Cylindrical crown wall
10
22.36
20
2.3
30
56.22
11
22.42
21
1.54
31
55.67
12
22.36
22
2.3
32
55.13
13
22.27
23
3.06
33
55.67
0
3DFACE
8
Cylindrical crown wall
10
18.36
20
12.97
30
56.77
11
18.79
21
12.33
31
56.22
12
18.36
22
12.97
32
55.67
13
17.91
23
13.58
33
56.22
0
3DFACE
8
Cylindrical crown wall
10
21.18
20
7.53
30
56.77
11
21.42
21
6.8
31
56.22
12
21.18
22
7.53
32
55.67
13
20.91
23
8.24
33
56.22
0
3DFACE
8
Cylindrical crown wall
10
22.15
20
3.82
30
56.22
11
22.27
21
3.06
31
57.13
12
22.36
22
2.3
32
56.22
13
22.27
23
3.06
33
55.67
0
3DFACE
8
Cylindrical crown wall
10
22.0
20
4.58
30
56.77
11
22.15
21
3.82
31
56.22
12
22.0
22
4.58
32
55.67
13
21.84
23
5.32
33
56.22
0
3DFACE
8
Cylindrical crown wall
10
21.42
20
6.8
30
56.22
11
21.64
21
6.06
31
57.13
12
21.84
22
5.32
32
56.22
13
21.64
23
6.06
33
55.67
0
3DFACE
8
Cylindrical crown wall
10
22.27
20
3.06
30
57.13
11
22.32
21
2.68
31
57.58
12
22.42
22
1.54
32
56.77
13
22.36
23
2.3
33
56.22
0
3DFACE
8
Cylindrical crown wall
10
21.18
20
7.53
30
56.77
11
21.54
21
6.43
31
57.58
12
21.64
22
6.06
32
57.13
13
21.42
23
6.8
33
56.22
0
3DFACE
8
Cylindrical crown wall
10
21.64
20
6.06
30
57.13
11
21.74
21
5.7
31
57.58
12
22.0
22
4.58
32
56.77
13
21.84
23
5.32
33
56.22
0
3DFACE
8
Cylindrical crown wall
10
22.21
20
3.44
30
57.58
11
22.27
21
3.06
31
57.13
12
22.15
22
3.82
32
56.22
13
22.0
23
4.58
33
56.77
0
3DFACE
8
Cylindrical crown wall
10
20.62
20
8.95
30
57.13
11
20.76
21
8.6
31
57.58
12
21.18
22
7.53
32
56.77
13
20.91
23
8.24
33
56.22
0
3DFACE
8
Cylindrical crown wall
10
20.3
20
9.66
30
56.22
11
20.62
21
8.95
31
57.13
12
20.91
22
8.24
32
56.22
13
20.62
23
8.95
33
55.67
0
3DFACE
8
Cylindrical crown wall
10
20.46
20
9.3
30
57.58
11
20.62
21
8.95
31
57.13
12
20.3
22
9.66
32
56.22
13
19.95
23
10.34
33
56.77
0
3DFACE
8
Cylindrical crown wall
10
19.95
20
10.34
30
56.77
11
20.3
21
9.66
31
56.22
12
19.95
22
10.34
32
55.67
13
19.59
23
11.01
33
56.22
0
3DFACE
8
Cylindrical crown wall
10
19.2
20
11.68
30
57.13
11
19.4
21
11.35
31
57.58
12
19.95
22
10.34
32
56.77
13
19.59
23
11.01
33
56.22
0
3DFACE
8
Cylindrical crown wall
10
18.79
20
12.33
30
56.22
11
19.2
21
11.68
31
57.13
12
19.59
22
11.01
32
56.22
13
19.2
23
11.68
33
55.67
0
3DFACE
8
Cylindrical crown wall
10
18.36
20
12.97
30
56.77
11
19.0
21
12.0
31
57.58
12
19.2
22
11.68
32
57.13
13
18.79
23
12.33
33
56.22
0
3DFACE
8
Cylindrical crown wall
10
12.96
20
18.36
30
55.67
11
13.58
21
17.91
31
55.13
12
12.96
22
18.36
32
54.58
13
12.32
23
18.8
33
55.13
0
3DFACE
8
Cylindrical crown wall
10
14.18
20
17.44
30
55.67
11
14.77
21
16.94
31
55.13
12
14.18
22
17.44
32
54.58
13
13.58
23
17.91
33
55.13
0
3DFACE
8
Cylindrical crown wall
10
15.34
20
16.43
30
55.67
11
15.89
21
15.89
31
55.13
12
15.34
22
16.43
32
54.58
13
14.77
23
16.94
33
55.13
0
3DFACE
8
Cylindrical crown wall
10
16.42
20
15.34
30
55.67
11
16.94
21
14.77
31
55.13
12
16.42
22
15.34
32
54.58
13
15.89
23
15.89
33
55.13
0
3DFACE
8
Cylindrical crown wall
10
17.43
20
14.18
30
55.67
11
17.91
21
13.58
31
55.13
12
17.43
22
14.18
32
54.58
13
16.94
23
14.77
33
55.13
0
3DFACE
8
Cylindrical crown wall
10
12.32
20
18.8
30
56.22
11
12.96
21
18.36
31
55.67
12
12.32
22
18.8
32
55.13
13
11.67
23
19.21
33
55.67
0
3DFACE
8
Cylindrical crown wall
10
13.58
20
17.91
30
56.22
11
14.18
21
17.44
31
55.67
12
13.58
22
17.91
32
55.13
13
12.96
23
18.36
33
55.67
0
3DFACE
8
Cylindrical crown wall
10
14.77
20
16.94
30
56.22
11
15.34
21
16.43
31
55.67
12
14.77
22
16.94
32
55.13
13
14.18
23
17.44
33
55.67
0
3DFACE
8
Cylindrical crown wall
10
15.89
20
15.89
30
56.22
11
16.42
21
15.34
31
55.67
12
15.89
22
15.89
32
55.13
13
15.34
23
16.43
33
55.67
0
3DFACE
8
Cylindrical crown wall
10
16.94
20
14.77
30
56.22
11
17.43
21
14.18
31
55.67
12
16.94
22
14.77
32
55.13
13
16.42
23
15.34
33
55.67
0
3DFACE
8
Cylindrical crown wall
10
17.91
20
13.58
30
56.22
11
18.36
21
12.97
31
55.67
12
17.91
22
13.58
32
55.13
13
17.43
23
14.18
33
55.67
0
3DFACE
8
Cylindrical crown wall
10
16.94
20
14.77
30
56.22
11
17.43
21
14.18
31
57.13
12
17.91
22
13.58
32
56.22
13
17.43
23
14.18
33
55.67
0
3DFACE
8
Cylindrical crown wall
10
17.43
20
14.18
30
57.13
11
17.67
21
13.89
31
57.58
12
18.36
22
12.97
32
56.77
13
17.91
23
13.58
33
56.22
0
3DFACE
8
Cylindrical crown wall
10
16.42
20
15.34
30
56.77
11
17.19
21
14.48
31
57.58
12
17.43
22
14.18
32
57.13
13
16.94
23
14.77
33
56.22
0
3DFACE
8
Cylindrical crown wall
10
16.42
20
15.34
30
56.77
11
16.94
21
14.77
31
56.22
12
16.42
22
15.34
32
55.67
13
15.89
23
15.89
33
56.22
0
3DFACE
8
Cylindrical crown wall
10
15.34
20
16.43
30
57.13
11
15.62
21
16.16
31
57.58
12
16.42
22
15.34
32
56.77
13
15.89
23
15.89
33
56.22
0
3DFACE
8
Cylindrical crown wall
10
14.77
20
16.94
30
56.22
11
15.34
21
16.43
31
57.13
12
15.89
22
15.89
32
56.22
13
15.34
23
16.43
33
55.67
0
3DFACE
8
Cylindrical crown wall
10
15.06
20
16.68
30
57.58
11
15.34
21
16.43
31
57.13
12
14.77
22
16.94
32
56.22
13
14.18
23
17.44
33
56.77
0
3DFACE
8
Cylindrical crown wall
10
14.18
20
17.44
30
56.77
11
14.77
21
16.94
31
56.22
12
14.18
22
17.44
32
55.67
13
13.58
23
17.91
33
56.22
0
3DFACE
8
Cylindrical crown wall
10
12.96
20
18.36
30
57.13
11
13.27
21
18.14
31
57.58
12
14.18
22
17.44
32
56.77
13
13.58
23
17.91
33
56.22
0
3DFACE
8
Cylindrical crown wall
10
12.32
20
18.8
30
56.22
11
12.96
21
18.36
31
57.13
12
13.58
22
17.91
32
56.22
13
12.96
23
18.36
33
55.67
0
3DFACE
8
Cylindrical crown wall
10
12.65
20
18.58
30
57.58
11
12.96
21
18.36
31
57.13
12
12.32
22
18.8
32
56.22
13
11.67
23
19.21
33
56.77
0
3DFACE
8
Cylindrical crown wall
10
1.53
20
22.42
30
55.67
11
2.3
21
22.36
31
55.13
12
1.53
22
22.42
32
54.58
13
0.76
23
22.46
33
55.13
0
3DFACE
8
Cylindrical crown wall
10
10.34
20
19.96
30
55.67
11
11.02
21
19.59
31
55.13
12
10.34
22
19.96
32
54.58
13
9.65
23
20.3
33
55.13
0
3DFACE
8
Cylindrical crown wall
10
8.95
20
20.62
30
55.67
11
9.65
21
20.3
31
55.13
12
8.95
22
20.62
32
54.58
13
8.25
23
20.91
33
55.13
0
3DFACE
8
Cylindrical crown wall
10
7.53
20
21.18
30
55.67
11
8.25
21
20.91
31
55.13
12
7.53
22
21.18
32
54.58
13
6.8
23
21.42
33
55.13
0
3DFACE
8
Cylindrical crown wall
10
6.06
20
21.64
30
55.67
11
6.8
21
21.42
31
55.13
12
6.06
22
21.64
32
54.58
13
5.32
23
21.84
33
55.13
0
3DFACE
8
Cylindrical crown wall
10
4.57
20
22.01
30
55.67
11
5.32
21
21.84
31
55.13
12
4.57
22
22.01
32
54.58
13
3.82
23
22.15
33
55.13
0
3DFACE
8
Cylindrical crown wall
10
3.06
20
22.27
30
55.67
11
3.82
21
22.15
31
55.13
12
3.06
22
22.27
32
54.58
13
2.3
23
22.36
33
55.13
0
3DFACE
8
Cylindrical crown wall
10
11.67
20
19.21
30
55.67
11
12.32
21
18.8
31
55.13
12
11.67
22
19.21
32
54.58
13
11.02
23
19.59
33
55.13
0
3DFACE
8
Cylindrical crown wall
10
8.25
20
20.91
30
56.22
11
8.95
21
20.62
31
55.67
12
8.25
22
20.91
32
55.13
13
7.53
23
21.18
33
55.67
0
3DFACE
8
Cylindrical crown wall
10
9.65
20
20.3
30
56.22
11
10.34
21
19.96
31
55.67
12
9.65
22
20.3
32
55.13
13
8.95
23
20.62
33
55.67
0
3DFACE
8
Cylindrical crown wall
10
11.02
20
19.59
30
56.22
11
11.67
21
19.21
31
55.67
12
11.02
22
19.59
32
55.13
13
10.34
23
19.96
33
55.67
0
3DFACE
8
Cylindrical crown wall
10
8.95
20
20.62
30
56.77
11
9.65
21
20.3
31
56.22
12
8.95
22
20.62
32
55.67
13
8.25
23
20.91
33
56.22
0
3DFACE
8
Cylindrical crown wall
10
11.67
20
19.21
30
56.77
11
12.32
21
18.8
31
56.22
12
11.67
22
19.21
32
55.67
13
11.02
23
19.59
33
56.22
0
3DFACE
8
Cylindrical crown wall
10
9.65
20
20.3
30
56.22
11
10.34
21
19.96
31
57.13
12
11.02
22
19.59
32
56.22
13
10.34
23
19.96
33
55.67
0
3DFACE
8
Cylindrical crown wall
10
7.53
20
21.18
30
57.13
11
7.88
21
21.05
31
57.58
12
8.95
22
20.62
32
56.77
13
8.25
23
20.91
33
56.22
0
3DFACE
8
Cylindrical crown wall
10
8.95
20
20.62
30
56.77
11
10.0
21
20.13
31
57.58
12
10.34
22
19.96
32
57.13
13
9.65
23
20.3
33
56.22
0
3DFACE
8
Cylindrical crown wall
10
10.34
20
19.96
30
57.13
11
10.68
21
19.78
31
57.58
12
11.67
22
19.21
32
56.77
13
11.02
23
19.59
33
56.22
0
3DFACE
8
Cylindrical crown wall
10
6.8
20
21.42
30
56.22
11
7.53
21
21.18
31
57.13
12
8.25
22
20.91
32
56.22
13
7.53
23
21.18
33
55.67
0
3DFACE
8
Cylindrical crown wall
10
2.3
20
22.36
30
56.22
11
3.06
21
22.27
31
55.67
12
2.3
22
22.36
32
55.13
13
1.53
23
22.42
33
55.67
0
3DFACE
8
Cylindrical crown wall
10
3.82
20
22.15
30
56.22
11
4.57
21
22.01
31
55.67
12
3.82
22
22.15
32
55.13
13
3.06
23
22.27
33
55.67
0
3DFACE
8
Cylindrical crown wall
10
5.32
20
21.84
30
56.22
11
6.06
21
21.64
31
55.67
12
5.32
22
21.84
32
55.13
13
4.57
23
22.01
33
55.67
0
3DFACE
8
Cylindrical crown wall
10
6.8
20
21.42
30
56.22
11
7.53
21
21.18
31
55.67
12
6.8
22
21.42
32
55.13
13
6.06
23
21.64
33
55.67
0
3DFACE
8
Cylindrical crown wall
10
3.06
20
22.27
30
56.77
11
3.82
21
22.15
31
56.22
12
3.06
22
22.27
32
55.67
13
2.3
23
22.36
33
56.22
0
3DFACE
8
Cylindrical crown wall
10
0.76
20
22.46
30
56.22
11
1.53
21
22.42
31
57.13
12
2.3
22
22.36
32
56.22
13
1.53
23
22.42
33
55.67
0
3DFACE
8
Cylindrical crown wall
10
3.82
20
22.15
30
56.22
11
4.57
21
22.01
31
57.13
12
5.32
22
21.84
32
56.22
13
4.57
23
22.01
33
55.67
0
3DFACE
8
Cylindrical crown wall
10
6.06
20
21.64
30
56.77
11
6.8
21
21.42
31
56.22
12
6.06
22
21.64
32
55.67
13
5.32
23
21.84
33
56.22
0
3DFACE
8
Cylindrical crown wall
10
1.53
20
22.42
30
57.13
11
1.91
21
22.39
31
57.58
12
3.06
22
22.27
32
56.77
13
2.3
23
22.36
33
56.22
0
3DFACE
8
Cylindrical crown wall
10
3.06
20
22.27
30
56.77
11
4.2
21
22.08
31
57.58
12
4.57
22
22.01
32
57.13
13
3.82
23
22.15
33
56.22
0
3DFACE
8
Cylindrical crown wall
10
4.57
20
22.01
30
57.13
11
4.94
21
21.93
31
57.58
12
6.06
22
21.64
32
56.77
13
5.32
23
21.84
33
56.22
0
3DFACE
8
Cylindrical crown wall
10
7.17
20
21.3
30
57.58
11
7.53
21
21.18
31
57.13
12
6.8
22
21.42
32
56.22
13
6.06
23
21.64
33
56.77
0
3DFACE
8
Cylindrical crown wall
10
0.76
20
22.46
30
56.22
11
1.53
21
22.42
31
55.67
12
0.76
22
22.46
32
55.13
13
-0.0
23
22.48
33
55.67
0
3DFACE
8
Cylindrical crown wall
10
-0.0
20
22.48
30
56.77
11
1.15
21
22.45
31
57.58
12
1.53
22
22.42
32
57.13
13
0.76
23
22.46
33
56.22
0
3DFACE
8
Cylindrical crown wall
10
-8.96
20
20.61
30
55.67
11
-8.25
21
20.91
31
55.13
12
-8.96
22
20.61
32
54.58
13
-9.65
23
20.3
33
55.13
0
3DFACE
8
Cylindrical crown wall
10
-10.34
20
19.96
30
55.67
11
-9.65
21
20.3
31
55.13
12
-10.34
22
19.96
32
54.58
13
-11.02
23
19.59
33
55.13
0
3DFACE
8
Cylindrical crown wall
10
-21.18
20
7.52
30
55.67
11
-20.91
21
8.24
31
55.13
12
-21.18
22
7.52
32
54.58
13
-21.42
23
6.8
33
55.13
0
3DFACE
8
Cylindrical crown wall
10
-21.64
20
6.06
30
55.67
11
-21.42
21
6.8
31
55.13
12
-21.64
22
6.06
32
54.58
13
-21.84
23
5.32
33
55.13
0
3DFACE
8
Cylindrical crown wall
10
-7.53
20
21.18
30
55.67
11
-6.8
21
21.42
31
55.13
12
-7.53
22
21.18
32
54.58
13
-8.25
23
20.91
33
55.13
0
3DFACE
8
Cylindrical crown wall
10
-6.07
20
21.64
30
55.67
11
-5.32
21
21.84
31
55.13
12
-6.07
22
21.64
32
54.58
13
-6.8
23
21.42
33
55.13
0
3DFACE
8
Cylindrical crown wall
10
-4.57
20
22.01
30
55.67
11
-3.82
21
22.15
31
55.13
12
-4.57
22
22.01
32
54.58
13
-5.32
23
21.84
33
55.13
0
3DFACE
8
Cylindrical crown wall
10
-3.07
20
22.27
30
55.67
11
-2.3
21
22.36
31
55.13
12
-3.07
22
22.27
32
54.58
13
-3.82
23
22.15
33
55.13
0
3DFACE
8
Cylindrical crown wall
10
-1.53
20
22.42
30
55.67
11
-0.76
21
22.46
31
55.13
12
-1.53
22
22.42
32
54.58
13
-2.3
23
22.36
33
55.13
0
3DFACE
8
Cylindrical crown wall
10
-0.0
20
22.48
30
55.67
11
0.76
21
22.46
31
55.13
12
-0.0
22
22.48
32
54.58
13
-0.76
23
22.46
33
55.13
0
3DFACE
8
Cylindrical crown wall
10
-11.68
20
19.2
30
55.67
11
-11.02
21
19.59
31
55.13
12
-11.68
22
19.2
32
54.58
13
-12.32
23
18.8
33
55.13
0
3DFACE
8
Cylindrical crown wall
10
-12.96
20
18.36
30
55.67
11
-12.32
21
18.8
31
55.13
12
-12.96
22
18.36
32
54.58
13
-13.58
23
17.91
33
55.13
0
3DFACE
8
Cylindrical crown wall
10
-14.19
20
17.43
30
55.67
11
-13.58
21
17.91
31
55.13
12
-14.19
22
17.43
32
54.58
13
-14.77
23
16.94
33
55.13
0
3DFACE
8
Cylindrical crown wall
10
-15.34
20
16.43
30
55.67
11
-14.77
21
16.94
31
55.13
12
-15.34
22
16.43
32
54.58
13
-15.89
23
15.89
33
55.13
0
3DFACE
8
Cylindrical crown wall
10
-16.43
20
15.34
30
55.67
11
-15.89
21
15.89
31
55.13
12
-16.43
22
15.34
32
54.58
13
-16.94
23
14.77
33
55.13
0
3DFACE
8
Cylindrical crown wall
10
-17.43
20
14.18
30
55.67
11
-16.94
21
14.77
31
55.13
12
-17.43
22
14.18
32
54.58
13
-17.91
23
13.58
33
55.13
0
3DFACE
8
Cylindrical crown wall
10
-18.36
20
12.96
30
55.67
11
-17.91
21
13.58
31
55.13
12
-18.36
22
12.96
32
54.58
13
-18.79
23
12.33
33
55.13
0
3DFACE
8
Cylindrical crown wall
10
-19.2
20
11.68
30
55.67
11
-18.79
21
12.33
31
55.13
12
-19.2
22
11.68
32
54.58
13
-19.59
23
11.01
33
55.13
0
3DFACE
8
Cylindrical crown wall
10
-19.96
20
10.34
30
55.67
11
-19.59
21
11.01
31
55.13
12
-19.96
22
10.34
32
54.58
13
-20.3
23
9.66
33
55.13
0
3DFACE
8
Cylindrical crown wall
10
-20.62
20
8.95
30
55.67
11
-20.3
21
9.66
31
55.13
12
-20.62
22
8.95
32
54.58
13
-20.91
23
8.24
33
55.13
0
3DFACE
8
Cylindrical crown wall
10
-22.48
20
0.0
30
55.67
11
-22.46
21
0.77
31
55.13
12
-22.48
22
0.0
32
54.58
13
-22.46
23
-0.77
33
55.13
0
3DFACE
8
Cylindrical crown wall
10
-22.42
20
1.53
30
55.67
11
-22.36
21
2.3
31
55.13
12
-22.42
22
1.53
32
54.58
13
-22.46
23
0.77
33
55.13
0
3DFACE
8
Cylindrical crown wall
10
-22.27
20
3.06
30
55.67
11
-22.15
21
3.82
31
55.13
12
-22.27
22
3.06
32
54.58
13
-22.36
23
2.3
33
55.13
0
3DFACE
8
Cylindrical crown wall
10
-22.01
20
4.57
30
55.67
11
-21.84
21
5.32
31
55.13
12
-22.01
22
4.57
32
54.58
13
-22.15
23
3.82
33
55.13
0
3DFACE
8
Cylindrical crown wall
10
-22.46
20
0.77
30
56.22
11
-22.42
21
1.53
31
55.67
12
-22.46
22
0.77
32
55.13
13
-22.48
23
0.0
33
55.67
0
3DFACE
8
Cylindrical crown wall
10
-22.36
20
2.3
30
56.22
11
-22.27
21
3.06
31
55.67
12
-22.36
22
2.3
32
55.13
13
-22.42
23
1.53
33
55.67
0
3DFACE
8
Cylindrical crown wall
10
-22.15
20
3.82
30
56.22
11
-22.01
21
4.57
31
55.67
12
-22.15
22
3.82
32
55.13
13
-22.27
23
3.06
33
55.67
0
3DFACE
8
Cylindrical crown wall
10
-22.42
20
1.53
30
56.77
11
-22.36
21
2.3
31
56.22
12
-22.42
22
1.53
32
55.67
13
-22.46
23
0.77
33
56.22
0
3DFACE
8
Cylindrical crown wall
10
-19.95
20
-10.34
30
55.67
11
-20.3
21
-9.66
31
55.13
12
-19.95
22
-10.34
32
54.58
13
-19.59
23
-11.01
33
55.13
0
3DFACE
8
Cylindrical crown wall
10
-20.62
20
-8.95
30
55.67
11
-20.91
21
-8.24
31
55.13
12
-20.62
22
-8.95
32
54.58
13
-20.3
23
-9.66
33
55.13
0
3DFACE
8
Cylindrical crown wall
10
-21.18
20
-7.53
30
55.67
11
-21.42
21
-6.8
31
55.13
12
-21.18
22
-7.53
32
54.58
13
-20.91
23
-8.24
33
55.13
0
3DFACE
8
Cylindrical crown wall
10
-21.64
20
-6.06
30
55.67
11
-21.84
21
-5.32
31
55.13
12
-21.64
22
-6.06
32
54.58
13
-21.42
23
-6.8
33
55.13
0
3DFACE
8
Cylindrical crown wall
10
-22.0
20
-4.58
30
55.67
11
-22.15
21
-3.82
31
55.13
12
-22.0
22
-4.58
32
54.58
13
-21.84
23
-5.32
33
55.13
0
3DFACE
8
Cylindrical crown wall
10
-22.27
20
-3.06
30
55.67
11
-22.36
21
-2.3
31
55.13
12
-22.27
22
-3.06
32
54.58
13
-22.15
23
-3.82
33
55.13
0
3DFACE
8
Cylindrical crown wall
10
-22.42
20
-1.54
30
55.67
11
-22.46
21
-0.77
31
55.13
12
-22.42
22
-1.54
32
54.58
13
-22.36
23
-2.3
33
55.13
0
3DFACE
8
Cylindrical crown wall
10
-22.01
20
4.57
30
56.77
11
-21.84
21
5.32
31
56.22
12
-22.01
22
4.57
32
55.67
13
-22.15
23
3.82
33
56.22
0
3DFACE
8
Cylindrical crown wall
10
-22.27
20
3.06
30
57.13
11
-22.21
21
3.44
31
57.58
12
-22.01
22
4.57
32
56.77
13
-22.15
23
3.82
33
56.22
0
3DFACE
8
Cylindrical crown wall
10
-22.36
20
2.3
30
56.22
11
-22.27
21
3.06
31
57.13
12
-22.15
22
3.82
32
56.22
13
-22.27
23
3.06
33
55.67
0
3DFACE
8
Cylindrical crown wall
10
-22.42
20
1.53
30
56.77
11
-22.32
21
2.68
31
57.58
12
-22.27
22
3.06
32
57.13
13
-22.36
23
2.3
33
56.22
0
3DFACE
8
Cylindrical crown wall
10
-15.34
20
-16.43
30
55.67
11
-15.89
21
-15.89
31
55.13
12
-15.34
22
-16.43
32
54.58
13
-14.77
23
-16.94
33
55.13
0
3DFACE
8
Cylindrical crown wall
10
-22.46
20
-0.77
30
56.22
11
-22.48
21
0.0
31
55.67
12
-22.46
22
-0.77
32
55.13
13
-22.42
23
-1.54
33
55.67
0
3DFACE
8
Cylindrical crown wall
10
-22.36
20
-2.3
30
56.22
11
-22.42
21
-1.54
31
55.67
12
-22.36
22
-2.3
32
55.13
13
-22.27
23
-3.06
33
55.67
0
3DFACE
8
Cylindrical crown wall
10
-22.15
20
-3.82
30
56.22
11
-22.27
21
-3.06
31
55.67
12
-22.15
22
-3.82
32
55.13
13
-22.0
23
-4.58
33
55.67
0
3DFACE
8
Cylindrical crown wall
10
-21.84
20
-5.32
30
56.22
11
-22.0
21
-4.58
31
55.67
12
-21.84
22
-5.32
32
55.13
13
-21.64
23
-6.06
33
55.67
0
3DFACE
8
Cylindrical crown wall
10
-21.42
20
-6.8
30
56.22
11
-21.64
21
-6.06
31
55.67
12
-21.42
22
-6.8
32
55.13
13
-21.18
23
-7.53
33
55.67
0
3DFACE
8
Cylindrical crown wall
10
-20.91
20
-8.24
30
56.22
11
-21.18
21
-7.53
31
55.67
12
-20.91
22
-8.24
32
55.13
13
-20.62
23
-8.95
33
55.67
0
3DFACE
8
Cylindrical crown wall
10
-20.3
20
-9.66
30
56.22
11
-20.62
21
-8.95
31
55.67
12
-20.3
22
-9.66
32
55.13
13
-19.95
23
-10.34
33
55.67
0
3DFACE
8
Cylindrical crown wall
10
-19.59
20
-11.01
30
56.22
11
-19.95
21
-10.34
31
55.67
12
-19.59
22
-11.01
32
55.13
13
-19.2
23
-11.68
33
55.67
0
3DFACE
8
Cylindrical crown wall
10
-19.2
20
-11.68
30
55.67
11
-19.59
21
-11.01
31
55.13
12
-19.2
22
-11.68
32
54.58
13
-18.79
23
-12.33
33
55.13
0
3DFACE
8
Cylindrical crown wall
10
-18.79
20
-12.33
30
56.22
11
-19.2
21
-11.68
31
55.67
12
-18.79
22
-12.33
32
55.13
13
-18.36
23
-12.97
33
55.67
0
3DFACE
8
Cylindrical crown wall
10
-18.36
20
-12.97
30
55.67
11
-18.79
21
-12.33
31
55.13
12
-18.36
22
-12.97
32
54.58
13
-17.91
23
-13.58
33
55.13
0
3DFACE
8
Cylindrical crown wall
10
-17.91
20
-13.58
30
56.22
11
-18.36
21
-12.97
31
55.67
12
-17.91
22
-13.58
32
55.13
13
-17.43
23
-14.18
33
55.67
0
3DFACE
8
Cylindrical crown wall
10
-17.43
20
-14.18
30
55.67
11
-17.91
21
-13.58
31
55.13
12
-17.43
22
-14.18
32
54.58
13
-16.94
23
-14.77
33
55.13
0
3DFACE
8
Cylindrical crown wall
10
-16.94
20
-14.77
30
56.22
11
-17.43
21
-14.18
31
55.67
12
-16.94
22
-14.77
32
55.13
13
-16.42
23
-15.34
33
55.67
0
3DFACE
8
Cylindrical crown wall
10
-16.42
20
-15.34
30
55.67
11
-16.94
21
-14.77
31
55.13
12
-16.42
22
-15.34
32
54.58
13
-15.89
23
-15.89
33
55.13
0
3DFACE
8
Cylindrical crown wall
10
-15.89
20
-15.89
30
56.22
11
-16.42
21
-15.34
31
55.67
12
-15.89
22
-15.89
32
55.13
13
-15.34
23
-16.43
33
55.67
0
3DFACE
8
Cylindrical crown wall
10
-14.77
20
-16.94
30
56.22
11
-15.34
21
-16.43
31
55.67
12
-14.77
22
-16.94
32
55.13
13
-14.18
23
-17.44
33
55.67
0
3DFACE
8
Cylindrical crown wall
10
-9.65
20
20.3
30
56.22
11
-8.96
21
20.61
31
55.67
12
-9.65
22
20.3
32
55.13
13
-10.34
23
19.96
33
55.67
0
3DFACE
8
Cylindrical crown wall
10
-11.02
20
19.59
30
56.22
11
-10.34
21
19.96
31
55.67
12
-11.02
22
19.59
32
55.13
13
-11.68
23
19.2
33
55.67
0
3DFACE
8
Cylindrical crown wall
10
-8.96
20
20.61
30
56.77
11
-8.25
21
20.91
31
56.22
12
-8.96
22
20.61
32
55.67
13
-9.65
23
20.3
33
56.22
0
3DFACE
8
Cylindrical crown wall
10
-11.02
20
19.59
30
56.22
11
-10.34
21
19.96
31
57.13
12
-9.65
22
20.3
32
56.22
13
-10.34
23
19.96
33
55.67
0
3DFACE
8
Cylindrical crown wall
10
-10.34
20
19.96
30
57.13
11
-10.0
21
20.13
31
57.58
12
-8.96
22
20.61
32
56.77
13
-9.65
23
20.3
33
56.22
0
3DFACE
8
Cylindrical crown wall
10
-18.79
20
12.33
30
56.22
11
-18.36
21
12.96
31
55.67
12
-18.79
22
12.33
32
55.13
13
-19.2
23
11.68
33
55.67
0
3DFACE
8
Cylindrical crown wall
10
-19.59
20
11.01
30
56.22
11
-19.2
21
11.68
31
55.67
12
-19.59
22
11.01
32
55.13
13
-19.96
23
10.34
33
55.67
0
3DFACE
8
Cylindrical crown wall
10
-20.3
20
9.66
30
56.22
11
-19.96
21
10.34
31
55.67
12
-20.3
22
9.66
32
55.13
13
-20.62
23
8.95
33
55.67
0
3DFACE
8
Cylindrical crown wall
10
-20.91
20
8.24
30
56.22
11
-20.62
21
8.95
31
55.67
12
-20.91
22
8.24
32
55.13
13
-21.18
23
7.52
33
55.67
0
3DFACE
8
Cylindrical crown wall
10
-21.42
20
6.8
30
56.22
11
-21.18
21
7.52
31
55.67
12
-21.42
22
6.8
32
55.13
13
-21.64
23
6.06
33
55.67
0
3DFACE
8
Cylindrical crown wall
10
-21.84
20
5.32
30
56.22
11
-21.64
21
6.06
31
55.67
12
-21.84
22
5.32
32
55.13
13
-22.01
23
4.57
33
55.67
0
3DFACE
8
Cylindrical crown wall
10
-6.8
20
21.42
30
56.22
11
-6.07
21
21.64
31
55.67
12
-6.8
22
21.42
32
55.13
13
-7.53
23
21.18
33
55.67
0
3DFACE
8
Cylindrical crown wall
10
-5.32
20
21.84
30
56.22
11
-4.57
21
22.01
31
55.67
12
-5.32
22
21.84
32
55.13
13
-6.07
23
21.64
33
55.67
0
3DFACE
8
Cylindrical crown wall
10
-3.82
20
22.15
30
56.22
11
-3.07
21
22.27
31
55.67
12
-3.82
22
22.15
32
55.13
13
-4.57
23
22.01
33
55.67
0
3DFACE
8
Cylindrical crown wall
10
-0.76
20
22.46
30
56.22
11
-0.0
21
22.48
31
55.67
12
-0.76
22
22.46
32
55.13
13
-1.53
23
22.42
33
55.67
0
3DFACE
8
Cylindrical crown wall
10
-2.3
20
22.36
30
56.22
11
-1.53
21
22.42
31
55.67
12
-2.3
22
22.36
32
55.13
13
-3.07
23
22.27
33
55.67
0
3DFACE
8
Cylindrical crown wall
10
-0.0
20
22.48
30
56.77
11
0.76
21
22.46
31
56.22
12
-0.0
22
22.48
32
55.67
13
-0.76
23
22.46
33
56.22
0
3DFACE
8
Cylindrical crown wall
10
-2.3
20
22.36
30
56.22
11
-1.53
21
22.42
31
57.13
12
-0.76
22
22.46
32
56.22
13
-1.53
23
22.42
33
55.67
0
3DFACE
8
Cylindrical crown wall
10
-1.53
20
22.42
30
57.13
11
-1.15
21
22.45
31
57.58
12
-0.0
22
22.48
32
56.77
13
-0.76
23
22.46
33
56.22
0
3DFACE
8
Cylindrical crown wall
10
-12.32
20
18.8
30
56.22
11
-11.68
21
19.2
31
55.67
12
-12.32
22
18.8
32
55.13
13
-12.96
23
18.36
33
55.67
0
3DFACE
8
Cylindrical crown wall
10
-13.58
20
17.91
30
56.22
11
-12.96
21
18.36
31
55.67
12
-13.58
22
17.91
32
55.13
13
-14.19
23
17.43
33
55.67
0
3DFACE
8
Cylindrical crown wall
10
-14.77
20
16.94
30
56.22
11
-14.19
21
17.43
31
55.67
12
-14.77
22
16.94
32
55.13
13
-15.34
23
16.43
33
55.67
0
3DFACE
8
Cylindrical crown wall
10
-15.89
20
15.89
30
56.22
11
-15.34
21
16.43
31
55.67
12
-15.89
22
15.89
32
55.13
13
-16.43
23
15.34
33
55.67
0
3DFACE
8
Cylindrical crown wall
10
-16.94
20
14.77
30
56.22
11
-16.43
21
15.34
31
55.67
12
-16.94
22
14.77
32
55.13
13
-17.43
23
14.18
33
55.67
0
3DFACE
8
Cylindrical crown wall
10
-17.91
20
13.58
30
56.22
11
-17.43
21
14.18
31
55.67
12
-17.91
22
13.58
32
55.13
13
-18.36
23
12.96
33
55.67
0
3DFACE
8
Cylindrical crown wall
10
-19.2
20
11.68
30
57.13
11
-19.0
21
12.0
31
57.58
12
-18.36
22
12.96
32
56.77
13
-18.79
23
12.33
33
56.22
0
3DFACE
8
Cylindrical crown wall
10
-19.59
20
11.01
30
56.22
11
-19.2
21
11.68
31
57.13
12
-18.79
22
12.33
32
56.22
13
-19.2
23
11.68
33
55.67
0
3DFACE
8
Cylindrical crown wall
10
-21.18
20
7.52
30
56.77
11
-20.91
21
8.24
31
56.22
12
-21.18
22
7.52
32
55.67
13
-21.42
23
6.8
33
56.22
0
3DFACE
8
Cylindrical crown wall
10
-21.64
20
6.06
30
57.13
11
-21.54
21
6.43
31
57.58
12
-21.18
22
7.52
32
56.77
13
-21.42
23
6.8
33
56.22
0
3DFACE
8
Cylindrical crown wall
10
-21.84
20
5.32
30
56.22
11
-21.64
21
6.06
31
57.13
12
-21.42
22
6.8
32
56.22
13
-21.64
23
6.06
33
55.67
0
3DFACE
8
Cylindrical crown wall
10
-21.74
20
5.7
30
57.58
11
-21.64
21
6.06
31
57.13
12
-21.84
22
5.32
32
56.22
13
-22.01
23
4.57
33
56.77
0
3DFACE
8
Cylindrical crown wall
10
-16.43
20
15.34
30
56.77
11
-15.89
21
15.89
31
56.22
12
-16.43
22
15.34
32
55.67
13
-16.94
23
14.77
33
56.22
0
3DFACE
8
Cylindrical crown wall
10
-17.43
20
14.18
30
57.13
11
-17.19
21
14.48
31
57.58
12
-16.43
22
15.34
32
56.77
13
-16.94
23
14.77
33
56.22
0
3DFACE
8
Cylindrical crown wall
10
-17.91
20
13.58
30
56.22
11
-17.43
21
14.18
31
57.13
12
-16.94
22
14.77
32
56.22
13
-17.43
23
14.18
33
55.67
0
3DFACE
8
Cylindrical crown wall
10
-19.4
20
11.35
30
57.58
11
-19.2
21
11.68
31
57.13
12
-19.59
22
11.01
32
56.22
13
-19.96
23
10.34
33
56.77
0
3DFACE
8
Cylindrical crown wall
10
-19.96
20
10.34
30
56.77
11
-19.59
21
11.01
31
56.22
12
-19.96
22
10.34
32
55.67
13
-20.3
23
9.66
33
56.22
0
3DFACE
8
Cylindrical crown wall
10
-20.62
20
8.95
30
57.13
11
-20.46
21
9.3
31
57.58
12
-19.96
22
10.34
32
56.77
13
-20.3
23
9.66
33
56.22
0
3DFACE
8
Cylindrical crown wall
10
-20.91
20
8.24
30
56.22
11
-20.62
21
8.95
31
57.13
12
-20.3
22
9.66
32
56.22
13
-20.62
23
8.95
33
55.67
0
3DFACE
8
Cylindrical crown wall
10
-21.18
20
7.52
30
56.77
11
-20.76
21
8.6
31
57.58
12
-20.62
22
8.95
32
57.13
13
-20.91
23
8.24
33
56.22
0
3DFACE
8
Cylindrical crown wall
10
-11.68
20
19.2
30
56.77
11
-11.02
21
19.59
31
56.22
12
-11.68
22
19.2
32
55.67
13
-12.32
23
18.8
33
56.22
0
3DFACE
8
Cylindrical crown wall
10
-12.96
20
18.36
30
57.13
11
-12.65
21
18.58
31
57.58
12
-11.68
22
19.2
32
56.77
13
-12.32
23
18.8
33
56.22
0
3DFACE
8
Cylindrical crown wall
10
-10.68
20
19.78
30
57.58
11
-10.34
21
19.96
31
57.13
12
-11.02
22
19.59
32
56.22
13
-11.68
23
19.2
33
56.77
0
3DFACE
8
Cylindrical crown wall
10
-13.58
20
17.91
30
56.22
11
-12.96
21
18.36
31
57.13
12
-12.32
22
18.8
32
56.22
13
-12.96
23
18.36
33
55.67
0
3DFACE
8
Cylindrical crown wall
10
-14.19
20
17.43
30
56.77
11
-13.27
21
18.14
31
57.58
12
-12.96
22
18.36
32
57.13
13
-13.58
23
17.91
33
56.22
0
3DFACE
8
Cylindrical crown wall
10
-14.19
20
17.43
30
56.77
11
-13.58
21
17.91
31
56.22
12
-14.19
22
17.43
32
55.67
13
-14.77
23
16.94
33
56.22
0
3DFACE
8
Cylindrical crown wall
10
-15.34
20
16.43
30
57.13
11
-15.06
21
16.68
31
57.58
12
-14.19
22
17.43
32
56.77
13
-14.77
23
16.94
33
56.22
0
3DFACE
8
Cylindrical crown wall
10
-15.89
20
15.89
30
56.22
11
-15.34
21
16.43
31
57.13
12
-14.77
22
16.94
32
56.22
13
-15.34
23
16.43
33
55.67
0
3DFACE
8
Cylindrical crown wall
10
-16.43
20
15.34
30
56.77
11
-15.62
21
16.16
31
57.58
12
-15.34
22
16.43
32
57.13
13
-15.89
23
15.89
33
56.22
0
3DFACE
8
Cylindrical crown wall
10
-17.67
20
13.89
30
57.58
11
-17.43
21
14.18
31
57.13
12
-17.91
22
13.58
32
56.22
13
-18.36
23
12.96
33
56.77
0
3DFACE
8
Cylindrical crown wall
10
-18.36
20
12.96
30
56.77
11
-17.91
21
13.58
31
56.22
12
-18.36
22
12.96
32
55.67
13
-18.79
23
12.33
33
56.22
0
3DFACE
8
Cylindrical crown wall
10
-21.42
20
-6.8
30
56.22
11
-21.64
21
-6.06
31
57.13
12
-21.84
22
-5.32
32
56.22
13
-21.64
23
-6.06
33
55.67
0
3DFACE
8
Cylindrical crown wall
10
-19.95
20
-10.34
30
56.77
11
-20.3
21
-9.66
31
56.22
12
-19.95
22
-10.34
32
55.67
13
-19.59
23
-11.01
33
56.22
0
3DFACE
8
Cylindrical crown wall
10
-18.79
20
-12.33
30
56.22
11
-19.2
21
-11.68
31
57.13
12
-19.59
22
-11.01
32
56.22
13
-19.2
23
-11.68
33
55.67
0
3DFACE
8
Cylindrical crown wall
10
-19.2
20
-11.68
30
57.13
11
-19.4
21
-11.35
31
57.58
12
-19.95
22
-10.34
32
56.77
13
-19.59
23
-11.01
33
56.22
0
3DFACE
8
Cylindrical crown wall
10
-21.64
20
-6.06
30
57.13
11
-21.74
21
-5.7
31
57.58
12
-22.0
22
-4.58
32
56.77
13
-21.84
23
-5.32
33
56.22
0
3DFACE
8
Cylindrical crown wall
10
-22.48
20
0.0
30
57.13
11
-22.47
21
0.38
31
57.58
12
-22.42
22
1.53
32
56.77
13
-22.46
23
0.77
33
56.22
0
3DFACE
8
Cylindrical crown wall
10
-22.46
20
-0.77
30
56.22
11
-22.48
21
0.0
31
57.13
12
-22.46
22
0.77
32
56.22
13
-22.48
23
0.0
33
55.67
0
3DFACE
8
Cylindrical crown wall
10
-22.42
20
-1.54
30
56.77
11
-22.47
21
-0.38
31
57.58
12
-22.48
22
0.0
32
57.13
13
-22.46
23
-0.77
33
56.22
0
3DFACE
8
Cylindrical crown wall
10
-22.42
20
-1.54
30
56.77
11
-22.46
21
-0.77
31
56.22
12
-22.42
22
-1.54
32
55.67
13
-22.36
23
-2.3
33
56.22
0
3DFACE
8
Cylindrical crown wall
10
-22.27
20
-3.06
30
57.13
11
-22.32
21
-2.68
31
57.58
12
-22.42
22
-1.54
32
56.77
13
-22.36
23
-2.3
33
56.22
0
3DFACE
8
Cylindrical crown wall
10
-22.15
20
-3.82
30
56.22
11
-22.27
21
-3.06
31
57.13
12
-22.36
22
-2.3
32
56.22
13
-22.27
23
-3.06
33
55.67
0
3DFACE
8
Cylindrical crown wall
10
-22.21
20
-3.44
30
57.58
11
-22.27
21
-3.06
31
57.13
12
-22.15
22
-3.82
32
56.22
13
-22.0
23
-4.58
33
56.77
0
3DFACE
8
Cylindrical crown wall
10
-22.0
20
-4.58
30
56.77
11
-22.15
21
-3.82
31
56.22
12
-22.0
22
-4.58
32
55.67
13
-21.84
23
-5.32
33
56.22
0
3DFACE
8
Cylindrical crown wall
10
-14.18
20
-17.44
30
56.77
11
-15.06
21
-16.68
31
57.58
12
-15.34
22
-16.43
32
57.13
13
-14.77
23
-16.94
33
56.22
0
3DFACE
8
Cylindrical crown wall
10
-16.42
20
-15.34
30
56.77
11
-16.94
21
-14.77
31
56.22
12
-16.42
22
-15.34
32
55.67
13
-15.89
23
-15.89
33
56.22
0
3DFACE
8
Cylindrical crown wall
10
-15.34
20
-16.43
30
57.13
11
-15.62
21
-16.16
31
57.58
12
-16.42
22
-15.34
32
56.77
13
-15.89
23
-15.89
33
56.22
0
3DFACE
8
Cylindrical crown wall
10
-14.77
20
-16.94
30
56.22
11
-15.34
21
-16.43
31
57.13
12
-15.89
22
-15.89
32
56.22
13
-15.34
23
-16.43
33
55.67
0
3DFACE
8
Cylindrical crown wall
10
-16.42
20
-15.34
30
56.77
11
-17.19
21
-14.48
31
57.58
12
-17.43
22
-14.18
32
57.13
13
-16.94
23
-14.77
33
56.22
0
3DFACE
8
Cylindrical crown wall
10
-21.54
20
-6.43
30
57.58
11
-21.64
21
-6.06
31
57.13
12
-21.42
22
-6.8
32
56.22
13
-21.18
23
-7.53
33
56.77
0
3DFACE
8
Cylindrical crown wall
10
-21.18
20
-7.53
30
56.77
11
-21.42
21
-6.8
31
56.22
12
-21.18
22
-7.53
32
55.67
13
-20.91
23
-8.24
33
56.22
0
3DFACE
8
Cylindrical crown wall
10
-20.62
20
-8.95
30
57.13
11
-20.76
21
-8.6
31
57.58
12
-21.18
22
-7.53
32
56.77
13
-20.91
23
-8.24
33
56.22
0
3DFACE
8
Cylindrical crown wall
10
-20.3
20
-9.66
30
56.22
11
-20.62
21
-8.95
31
57.13
12
-20.91
22
-8.24
32
56.22
13
-20.62
23
-8.95
33
55.67
0
3DFACE
8
Cylindrical crown wall
10
-19.95
20
-10.34
30
56.77
11
-20.46
21
-9.3
31
57.58
12
-20.62
22
-8.95
32
57.13
13
-20.3
23
-9.66
33
56.22
0
3DFACE
8
Cylindrical crown wall
10
-19.0
20
-12.0
30
57.58
11
-19.2
21
-11.68
31
57.13
12
-18.79
22
-12.33
32
56.22
13
-18.36
23
-12.97
33
56.77
0
3DFACE
8
Cylindrical crown wall
10
-18.36
20
-12.97
30
56.77
11
-18.79
21
-12.33
31
56.22
12
-18.36
22
-12.97
32
55.67
13
-17.91
23
-13.58
33
56.22
0
3DFACE
8
Cylindrical crown wall
10
-17.43
20
-14.18
30
57.13
11
-17.67
21
-13.89
31
57.58
12
-18.36
22
-12.97
32
56.77
13
-17.91
23
-13.58
33
56.22
0
3DFACE
8
Cylindrical crown wall
10
-16.94
20
-14.77
30
56.22
11
-17.43
21
-14.18
31
57.13
12
-17.91
22
-13.58
32
56.22
13
-17.43
23
-14.18
33
55.67
0
3DFACE
8
Cylindrical crown wall
10
-4.57
20
22.01
30
57.13
11
-4.2
21
22.08
31
57.58
12
-3.07
22
22.27
32
56.77
13
-3.82
23
22.15
33
56.22
0
3DFACE
8
Cylindrical crown wall
10
-5.32
20
21.84
30
56.22
11
-4.57
21
22.01
31
57.13
12
-3.82
22
22.15
32
56.22
13
-4.57
23
22.01
33
55.67
0
3DFACE
8
Cylindrical crown wall
10
-4.94
20
21.93
30
57.58
11
-4.57
21
22.01
31
57.13
12
-5.32
22
21.84
32
56.22
13
-6.07
23
21.64
33
56.77
0
3DFACE
8
Cylindrical crown wall
10
-6.07
20
21.64
30
56.77
11
-5.32
21
21.84
31
56.22
12
-6.07
22
21.64
32
55.67
13
-6.8
23
21.42
33
56.22
0
3DFACE
8
Cylindrical crown wall
10
-7.53
20
21.18
30
57.13
11
-7.17
21
21.3
31
57.58
12
-6.07
22
21.64
32
56.77
13
-6.8
23
21.42
33
56.22
0
3DFACE
8
Cylindrical crown wall
10
-8.25
20
20.91
30
56.22
11
-7.53
21
21.18
31
57.13
12
-6.8
22
21.42
32
56.22
13
-7.53
23
21.18
33
55.67
0
3DFACE
8
Cylindrical crown wall
10
22.46
20
0.77
30
56.22
11
22.48
21
-0.0
31
55.67
12
22.46
22
0.77
32
55.13
13
22.42
23
1.54
33
55.67
0
3DFACE
8
Cylindrical crown wall
10
22.42
20
1.54
30
58.95
11
22.48
21
-0.0
31
57.86
12
22.47
22
0.38
32
57.58
13
22.47
23
0.38
33
57.58
0
3DFACE
8
Cylindrical crown wall
10
22.42
20
1.54
30
58.95
11
22.42
21
-1.53
31
58.95
12
22.48
22
-0.0
32
57.86
13
22.48
23
-0.0
33
57.86
0
3DFACE
8
Cylindrical crown wall
10
22.42
20
1.54
30
56.77
11
22.47
21
0.38
31
57.58
12
22.48
22
-0.0
32
57.13
13
22.46
23
0.77
33
56.22
0
3DFACE
8
Cylindrical crown wall
10
22.42
20
1.54
30
54.58
11
22.27
21
3.06
31
54.58
12
22.36
22
2.3
32
55.13
13
22.36
23
2.3
33
55.13
0
3DFACE
8
Cylindrical crown wall
10
22.27
20
3.06
30
54.58
11
22.0
21
4.58
31
54.58
12
22.15
22
3.82
32
55.13
13
22.15
23
3.82
33
55.13
0
3DFACE
8
Cylindrical crown wall
10
22.0
20
4.58
30
54.58
11
21.64
21
6.06
31
54.58
12
21.84
22
5.32
32
55.13
13
21.84
23
5.32
33
55.13
0
3DFACE
8
Cylindrical crown wall
10
21.64
20
6.06
30
54.58
11
21.18
21
7.53
31
54.58
12
21.42
22
6.8
32
55.13
13
21.42
23
6.8
33
55.13
0
3DFACE
8
Cylindrical crown wall
10
21.18
20
7.53
30
54.58
11
20.62
21
8.95
31
54.58
12
20.91
22
8.24
32
55.13
13
20.91
23
8.24
33
55.13
0
3DFACE
8
Cylindrical crown wall
10
20.62
20
8.95
30
54.58
11
19.95
21
10.34
31
54.58
12
20.3
22
9.66
32
55.13
13
20.3
23
9.66
33
55.13
0
3DFACE
8
Cylindrical crown wall
10
19.95
20
10.34
30
54.58
11
19.2
21
11.68
31
54.58
12
19.59
22
11.01
32
55.13
13
19.59
23
11.01
33
55.13
0
3DFACE
8
Cylindrical crown wall
10
19.2
20
11.68
30
54.58
11
18.36
21
12.97
31
54.58
12
18.79
22
12.33
32
55.13
13
18.79
23
12.33
33
55.13
0
3DFACE
8
Cylindrical crown wall
10
18.36
20
12.97
30
54.58
11
17.43
21
14.18
31
54.58
12
17.91
22
13.58
32
55.13
13
17.91
23
13.58
33
55.13
0
3DFACE
8
Cylindrical crown wall
10
17.43
20
14.18
30
54.58
11
16.42
21
15.34
31
54.58
12
16.94
22
14.77
32
55.13
13
16.94
23
14.77
33
55.13
0
3DFACE
8
Cylindrical crown wall
10
16.42
20
15.34
30
54.58
11
15.34
21
16.43
31
54.58
12
15.89
22
15.89
32
55.13
13
15.89
23
15.89
33
55.13
0
3DFACE
8
Cylindrical crown wall
10
15.34
20
16.43
30
54.58
11
14.18
21
17.44
31
54.58
12
14.77
22
16.94
32
55.13
13
14.77
23
16.94
33
55.13
0
3DFACE
8
Cylindrical crown wall
10
14.18
20
17.44
30
54.58
11
12.96
21
18.36
31
54.58
12
13.58
22
17.91
32
55.13
13
13.58
23
17.91
33
55.13
0
3DFACE
8
Cylindrical crown wall
10
12.96
20
18.36
30
54.58
11
11.67
21
19.21
31
54.58
12
12.32
22
18.8
32
55.13
13
12.32
23
18.8
33
55.13
0
3DFACE
8
Cylindrical crown wall
10
11.67
20
19.21
30
54.58
11
10.34
21
19.96
31
54.58
12
11.02
22
19.59
32
55.13
13
11.02
23
19.59
33
55.13
0
3DFACE
8
Cylindrical crown wall
10
10.34
20
19.96
30
54.58
11
8.95
21
20.62
31
54.58
12
9.65
22
20.3
32
55.13
13
9.65
23
20.3
33
55.13
0
3DFACE
8
Cylindrical crown wall
10
8.95
20
20.62
30
54.58
11
7.53
21
21.18
31
54.58
12
8.25
22
20.91
32
55.13
13
8.25
23
20.91
33
55.13
0
3DFACE
8
Cylindrical crown wall
10
7.53
20
21.18
30
54.58
11
6.06
21
21.64
31
54.58
12
6.8
22
21.42
32
55.13
13
6.8
23
21.42
33
55.13
0
3DFACE
8
Cylindrical crown wall
10
6.06
20
21.64
30
54.58
11
4.57
21
22.01
31
54.58
12
5.32
22
21.84
32
55.13
13
5.32
23
21.84
33
55.13
0
3DFACE
8
Cylindrical crown wall
10
4.57
20
22.01
30
54.58
11
3.06
21
22.27
31
54.58
12
3.82
22
22.15
32
55.13
13
3.82
23
22.15
33
55.13
0
3DFACE
8
Cylindrical crown wall
10
3.06
20
22.27
30
54.58
11
1.53
21
22.42
31
54.58
12
2.3
22
22.36
32
55.13
13
2.3
23
22.36
33
55.13
0
3DFACE
8
Cylindrical crown wall
10
1.53
20
22.42
30
54.58
11
-0.0
21
22.48
31
54.58
12
0.76
22
22.46
32
55.13
13
0.76
23
22.46
33
55.13
0
3DFACE
8
Cylindrical crown wall
10
-0.0
20
22.48
30
54.58
11
-1.53
21
22.42
31
54.58
12
-0.76
22
22.46
32
55.13
13
-0.76
23
22.46
33
55.13
0
3DFACE
8
Cylindrical crown wall
10
-1.53
20
22.42
30
54.58
11
-3.07
21
22.27
31
54.58
12
-2.3
22
22.36
32
55.13
13
-2.3
23
22.36
33
55.13
0
3DFACE
8
Cylindrical crown wall
10
-3.07
20
22.27
30
54.58
11
-4.57
21
22.01
31
54.58
12
-3.82
22
22.15
32
55.13
13
-3.82
23
22.15
33
55.13
0
3DFACE
8
Cylindrical crown wall
10
-4.57
20
22.01
30
54.58
11
-6.07
21
21.64
31
54.58
12
-5.32
22
21.84
32
55.13
13
-5.32
23
21.84
33
55.13
0
3DFACE
8
Cylindrical crown wall
10
-6.07
20
21.64
30
54.58
11
-7.53
21
21.18
31
54.58
12
-6.8
22
21.42
32
55.13
13
-6.8
23
21.42
33
55.13
0
3DFACE
8
Cylindrical crown wall
10
-7.53
20
21.18
30
54.58
11
-8.96
21
20.61
31
54.58
12
-8.25
22
20.91
32
55.13
13
-8.25
23
20.91
33
55.13
0
3DFACE
8
Cylindrical crown wall
10
-8.96
20
20.61
30
54.58
11
-10.34
21
19.96
31
54.58
12
-9.65
22
20.3
32
55.13
13
-9.65
23
20.3
33
55.13
0
3DFACE
8
Cylindrical crown wall
10
-10.34
20
19.96
30
54.58
11
-11.68
21
19.2
31
54.58
12
-11.02
22
19.59
32
55.13
13
-11.02
23
19.59
33
55.13
0
3DFACE
8
Cylindrical crown wall
10
-11.68
20
19.2
30
54.58
11
-12.96
21
18.36
31
54.58
12
-12.32
22
18.8
32
55.13
13
-12.32
23
18.8
33
55.13
0
3DFACE
8
Cylindrical crown wall
10
-12.96
20
18.36
30
54.58
11
-14.19
21
17.43
31
54.58
12
-13.58
22
17.91
32
55.13
13
-13.58
23
17.91
33
55.13
0
3DFACE
8
Cylindrical crown wall
10
-14.19
20
17.43
30
54.58
11
-15.34
21
16.43
31
54.58
12
-14.77
22
16.94
32
55.13
13
-14.77
23
16.94
33
55.13
0
3DFACE
8
Cylindrical crown wall
10
-15.34
20
16.43
30
54.58
11
-16.43
21
15.34
31
54.58
12
-15.89
22
15.89
32
55.13
13
-15.89
23
15.89
33
55.13
0
3DFACE
8
Cylindrical crown wall
10
-16.43
20
15.34
30
54.58
11
-17.43
21
14.18
31
54.58
12
-16.94
22
14.77
32
55.13
13
-16.94
23
14.77
33
55.13
0
3DFACE
8
Cylindrical crown wall
10
-17.43
20
14.18
30
54.58
11
-18.36
21
12.96
31
54.58
12
-17.91
22
13.58
32
55.13
13
-17.91
23
13.58
33
55.13
0
3DFACE
8
Cylindrical crown wall
10
-18.36
20
12.96
30
54.58
11
-19.2
21
11.68
31
54.58
12
-18.79
22
12.33
32
55.13
13
-18.79
23
12.33
33
55.13
0
3DFACE
8
Cylindrical crown wall
10
-19.2
20
11.68
30
54.58
11
-19.96
21
10.34
31
54.58
12
-19.59
22
11.01
32
55.13
13
-19.59
23
11.01
33
55.13
0
3DFACE
8
Cylindrical crown wall
10
-19.96
20
10.34
30
54.58
11
-20.62
21
8.95
31
54.58
12
-20.3
22
9.66
32
55.13
13
-20.3
23
9.66
33
55.13
0
3DFACE
8
Cylindrical crown wall
10
-20.62
20
8.95
30
54.58
11
-21.18
21
7.52
31
54.58
12
-20.91
22
8.24
32
55.13
13
-20.91
23
8.24
33
55.13
0
3DFACE
8
Cylindrical crown wall
10
-21.18
20
7.52
30
54.58
11
-21.64
21
6.06
31
54.58
12
-21.42
22
6.8
32
55.13
13
-21.42
23
6.8
33
55.13
0
3DFACE
8
Cylindrical crown wall
10
-21.64
20
6.06
30
54.58
11
-22.01
21
4.57
31
54.58
12
-21.84
22
5.32
32
55.13
13
-21.84
23
5.32
33
55.13
0
3DFACE
8
Cylindrical crown wall
10
-22.01
20
4.57
30
54.58
11
-22.27
21
3.06
31
54.58
12
-22.15
22
3.82
32
55.13
13
-22.15
23
3.82
33
55.13
0
3DFACE
8
Cylindrical crown wall
10
-22.27
20
3.06
30
54.58
11
-22.42
21
1.53
31
54.58
12
-22.36
22
2.3
32
55.13
13
-22.36
23
2.3
33
55.13
0
3DFACE
8
Cylindrical crown wall
10
-22.42
20
1.53
30
54.58
11
-22.48
21
0.0
31
54.58
12
-22.46
22
0.77
32
55.13
13
-22.46
23
0.77
33
55.13
0
3DFACE
8
Cylindrical crown wall
10
-22.48
20
0.0
30
54.58
11
-22.42
21
-1.54
31
54.58
12
-22.46
22
-0.77
32
55.13
13
-22.46
23
-0.77
33
55.13
0
3DFACE
8
Cylindrical crown wall
10
-22.42
20
-1.54
30
54.58
11
-22.27
21
-3.06
31
54.58
12
-22.36
22
-2.3
32
55.13
13
-22.36
23
-2.3
33
55.13
0
3DFACE
8
Cylindrical crown wall
10
-22.27
20
-3.06
30
54.58
11
-22.0
21
-4.58
31
54.58
12
-22.15
22
-3.82
32
55.13
13
-22.15
23
-3.82
33
55.13
0
3DFACE
8
Cylindrical crown wall
10
-22.0
20
-4.58
30
54.58
11
-21.64
21
-6.06
31
54.58
12
-21.84
22
-5.32
32
55.13
13
-21.84
23
-5.32
33
55.13
0
3DFACE
8
Cylindrical crown wall
10
-21.64
20
-6.06
30
54.58
11
-21.18
21
-7.53
31
54.58
12
-21.42
22
-6.8
32
55.13
13
-21.42
23
-6.8
33
55.13
0
3DFACE
8
Cylindrical crown wall
10
-21.18
20
-7.53
30
54.58
11
-20.62
21
-8.95
31
54.58
12
-20.91
22
-8.24
32
55.13
13
-20.91
23
-8.24
33
55.13
0
3DFACE
8
Cylindrical crown wall
10
-20.62
20
-8.95
30
54.58
11
-19.95
21
-10.34
31
54.58
12
-20.3
22
-9.66
32
55.13
13
-20.3
23
-9.66
33
55.13
0
3DFACE
8
Cylindrical crown wall
10
-19.95
20
-10.34
30
54.58
11
-19.2
21
-11.68
31
54.58
12
-19.59
22
-11.01
32
55.13
13
-19.59
23
-11.01
33
55.13
0
3DFACE
8
Cylindrical crown wall
10
-19.2
20
-11.68
30
54.58
11
-18.36
21
-12.97
31
54.58
12
-18.79
22
-12.33
32
55.13
13
-18.79
23
-12.33
33
55.13
0
3DFACE
8
Cylindrical crown wall
10
-18.36
20
-12.97
30
54.58
11
-17.43
21
-14.18
31
54.58
12
-17.91
22
-13.58
32
55.13
13
-17.91
23
-13.58
33
55.13
0
3DFACE
8
Cylindrical crown wall
10
-17.43
20
-14.18
30
54.58
11
-16.42
21
-15.34
31
54.58
12
-16.94
22
-14.77
32
55.13
13
-16.94
23
-14.77
33
55.13
0
3DFACE
8
Cylindrical crown wall
10
-16.42
20
-15.34
30
54.58
11
-15.34
21
-16.43
31
54.58
12
-15.89
22
-15.89
32
55.13
13
-15.89
23
-15.89
33
55.13
0
3DFACE
8
Cylindrical crown wall
10
-15.34
20
-16.43
30
54.58
11
-14.18
21
-17.44
31
54.58
12
-14.77
22
-16.94
32
55.13
13
-14.77
23
-16.94
33
55.13
0
3DFACE
8
Cylindrical crown wall
10
-14.18
20
-17.44
30
54.58
11
-12.96
21
-18.36
31
54.58
12
-13.58
22
-17.91
32
55.13
13
-13.58
23
-17.91
33
55.13
0
3DFACE
8
Cylindrical crown wall
10
-12.96
20
-18.36
30
54.58
11
-11.67
21
-19.21
31
54.58
12
-12.32
22
-18.8
32
55.13
13
-12.32
23
-18.8
33
55.13
0
3DFACE
8
Cylindrical crown wall
10
-11.67
20
-19.21
30
54.58
11
-10.34
21
-19.96
31
54.58
12
-11.02
22
-19.59
32
55.13
13
-11.02
23
-19.59
33
55.13
0
3DFACE
8
Cylindrical crown wall
10
-10.34
20
-19.96
30
54.58
11
-8.95
21
-20.62
31
54.58
12
-9.65
22
-20.3
32
55.13
13
-9.65
23
-20.3
33
55.13
0
3DFACE
8
Cylindrical crown wall
10
-8.95
20
-20.62
30
54.58
11
-7.53
21
-21.18
31
54.58
12
-8.25
22
-20.91
32
55.13
13
-8.25
23
-20.91
33
55.13
0
3DFACE
8
Cylindrical crown wall
10
-7.53
20
-21.18
30
54.58
11
-6.06
21
-21.64
31
54.58
12
-6.8
22
-21.42
32
55.13
13
-6.8
23
-21.42
33
55.13
0
3DFACE
8
Cylindrical crown wall
10
-6.06
20
-21.64
30
54.58
11
-4.57
21
-22.01
31
54.58
12
-5.32
22
-21.84
32
55.13
13
-5.32
23
-21.84
33
55.13
0
3DFACE
8
Cylindrical crown wall
10
-4.57
20
-22.01
30
54.58
11
-3.06
21
-22.27
31
54.58
12
-3.82
22
-22.15
32
55.13
13
-3.82
23
-22.15
33
55.13
0
3DFACE
8
Cylindrical crown wall
10
-3.06
20
-22.27
30
54.58
11
-1.53
21
-22.42
31
54.58
12
-2.3
22
-22.36
32
55.13
13
-2.3
23
-22.36
33
55.13
0
3DFACE
8
Cylindrical crown wall
10
-1.53
20
-22.42
30
54.58
11
0.0
21
-22.48
31
54.58
12
-0.77
22
-22.46
32
55.13
13
-0.77
23
-22.46
33
55.13
0
3DFACE
8
Cylindrical crown wall
10
0.0
20
-22.48
30
54.58
11
1.53
21
-22.42
31
54.58
12
0.76
22
-22.46
32
55.13
13
0.76
23
-22.46
33
55.13
0
3DFACE
8
Cylindrical crown wall
10
1.53
20
-22.42
30
54.58
11
3.07
21
-22.27
31
54.58
12
2.3
22
-22.36
32
55.13
13
2.3
23
-22.36
33
55.13
0
3DFACE
8
Cylindrical crown wall
10
3.07
20
-22.27
30
54.58
11
4.57
21
-22.01
31
54.58
12
3.82
22
-22.15
32
55.13
13
3.82
23
-22.15
33
55.13
0
3DFACE
8
Cylindrical crown wall
10
4.57
20
-22.01
30
54.58
11
6.07
21
-21.64
31
54.58
12
5.32
22
-21.84
32
55.13
13
5.32
23
-21.84
33
55.13
0
3DFACE
8
Cylindrical crown wall
10
6.07
20
-21.64
30
54.58
11
7.53
21
-21.18
31
54.58
12
6.8
22
-21.42
32
55.13
13
6.8
23
-21.42
33
55.13
0
3DFACE
8
Cylindrical crown wall
10
7.53
20
-21.18
30
54.58
11
8.96
21
-20.61
31
54.58
12
8.25
22
-20.91
32
55.13
13
8.25
23
-20.91
33
55.13
0
3DFACE
8
Cylindrical crown wall
10
8.96
20
-20.61
30
54.58
11
10.34
21
-19.96
31
54.58
12
9.65
22
-20.3
32
55.13
13
9.65
23
-20.3
33
55.13
0
3DFACE
8
Cylindrical crown wall
10
10.34
20
-19.96
30
54.58
11
11.68
21
-19.2
31
54.58
12
11.02
22
-19.59
32
55.13
13
11.02
23
-19.59
33
55.13
0
3DFACE
8
Cylindrical crown wall
10
11.68
20
-19.2
30
54.58
11
12.96
21
-18.36
31
54.58
12
12.32
22
-18.8
32
55.13
13
12.32
23
-18.8
33
55.13
0
3DFACE
8
Cylindrical crown wall
10
12.96
20
-18.36
30
54.58
11
14.19
21
-17.43
31
54.58
12
13.58
22
-17.91
32
55.13
13
13.58
23
-17.91
33
55.13
0
3DFACE
8
Cylindrical crown wall
10
14.19
20
-17.43
30
54.58
11
15.34
21
-16.43
31
54.58
12
14.77
22
-16.94
32
55.13
13
14.77
23
-16.94
33
55.13
0
3DFACE
8
Cylindrical crown wall
10
15.34
20
-16.43
30
54.58
11
16.43
21
-15.34
31
54.58
12
15.89
22
-15.89
32
55.13
13
15.89
23
-15.89
33
55.13
0
3DFACE
8
Cylindrical crown wall
10
16.43
20
-15.34
30
54.58
11
17.43
21
-14.18
31
54.58
12
16.94
22
-14.77
32
55.13
13
16.94
23
-14.77
33
55.13
0
3DFACE
8
Cylindrical crown wall
10
17.43
20
-14.18
30
54.58
11
18.36
21
-12.96
31
54.58
12
17.91
22
-13.58
32
55.13
13
17.91
23
-13.58
33
55.13
0
3DFACE
8
Cylindrical crown wall
10
18.36
20
-12.96
30
54.58
11
19.2
21
-11.68
31
54.58
12
18.79
22
-12.33
32
55.13
13
18.79
23
-12.33
33
55.13
0
3DFACE
8
Cylindrical crown wall
10
19.2
20
-11.68
30
54.58
11
19.96
21
-10.34
31
54.58
12
19.59
22
-11.01
32
55.13
13
19.59
23
-11.01
33
55.13
0
3DFACE
8
Cylindrical crown wall
10
19.96
20
-10.34
30
54.58
11
20.62
21
-8.95
31
54.58
12
20.3
22
-9.66
32
55.13
13
20.3
23
-9.66
33
55.13
0
3DFACE
8
Cylindrical crown wall
10
20.62
20
-8.95
30
54.58
11
21.18
21
-7.52
31
54.58
12
20.91
22
-8.24
32
55.13
13
20.91
23
-8.24
33
55.13
0
3DFACE
8
Cylindrical crown wall
10
21.18
20
-7.52
30
54.58
11
21.64
21
-6.06
31
54.58
12
21.42
22
-6.8
32
55.13
13
21.42
23
-6.8
33
55.13
0
3DFACE
8
Cylindrical crown wall
10
21.64
20
-6.06
30
54.58
11
22.01
21
-4.57
31
54.58
12
21.84
22
-5.32
32
55.13
13
21.84
23
-5.32
33
55.13
0
3DFACE
8
Cylindrical crown wall
10
22.01
20
-4.57
30
54.58
11
22.27
21
-3.06
31
54.58
12
22.15
22
-3.82
32
55.13
13
22.15
23
-3.82
33
55.13
0
3DFACE
8
Cylindrical crown wall
10
22.27
20
-3.06
30
54.58
11
22.42
21
-1.53
31
54.58
12
22.36
22
-2.3
32
55.13
13
22.36
23
-2.3
33
55.13
0
3DFACE
8
Cylindrical crown wall
10
22.42
20
-1.53
30
54.58
11
22.48
21
-0.0
31
54.58
12
22.46
22
-0.77
32
55.13
13
22.46
23
-0.77
33
55.13
0
3DFACE
8
Cylindrical crown wall
10
22.48
20
-0.0
30
54.58
11
22.42
21
1.54
31
54.58
12
22.46
22
0.77
32
55.13
13
22.46
23
0.77
33
55.13
0
ENDSEC
0
EOF
