0
SECTION
2
HEADER
9
$ACADVER
1
AC1006
9
$INSBASE
10
0.0
20
0.0
30
0.0
9
$EXTMIN
10
0.0
20
0.0
9
$EXTMAX
10
0.0
20
0.0
0
ENDSEC
0
SECTION
2
TABLES
0
TABLE
2
LTYPE
70
1
0
LTYPE
2
CONTINUOUS
70
64
3
Solid line
72
65
73
0
40
0.0
0
ENDTAB
0
TABLE
2
LAYER
70
1
0
LAYER
2
PYDXF
70
64
62
7
6
continuous
0
ENDTAB
0
TABLE
2
STYLE
70
1
0
STYLE
2
STANDARD
70
0
40
0
41
40
50
50
71
0
42
1
3
ARIAL.TTF
4

0
ENDTAB
0
TABLE
2
VIEW
70
0
0
ENDTAB
0
ENDSEC
0
SECTION
2
BLOCKS
0
ENDSEC
0
SECTION
2
ENTITIES
0
LINE
8
Lines
10
23.112
20
0.79
30
54.036
11
23.072
21
1.578
31
53.49
0
LINE
8
Lines
10
23.005
20
2.365
30
54.036
11
23.072
21
1.578
31
54.582
0
LINE
8
Lines
10
23.112
20
0.79
30
55.128
11
23.072
21
1.578
31
54.582
0
LINE
8
Lines
10
23.005
20
2.365
30
55.128
11
23.072
21
1.578
31
55.673
0
LINE
8
Lines
10
23.112
20
0.79
30
56.219
11
23.072
21
1.578
31
55.673
0
LINE
8
Lines
10
23.122
20
0.395
30
57.584
11
23.072
21
1.578
31
56.765
0
LINE
8
Lines
10
23.126
20
0.0
30
53.49
11
23.112
21
-0.789
31
54.036
0
LINE
8
Lines
10
23.072
20
-1.578
30
53.49
11
23.005
21
-2.364
31
54.036
0
LINE
8
Lines
10
22.91
20
3.149
30
53.49
11
23.005
21
2.365
31
54.036
0
LINE
8
Lines
10
23.112
20
0.79
30
54.036
11
23.126
21
0.0
31
54.582
0
LINE
8
Lines
10
23.112
20
-0.789
30
54.036
11
23.072
21
-1.578
31
54.582
0
LINE
8
Lines
10
22.042
20
6.996
30
54.036
11
21.791
21
7.744
31
53.49
0
LINE
8
Lines
10
22.468
20
5.476
30
54.036
11
22.268
21
6.239
31
53.49
0
LINE
8
Lines
10
22.042
20
6.996
30
54.036
11
22.268
21
6.239
31
54.582
0
LINE
8
Lines
10
22.789
20
3.93
30
54.036
11
22.642
21
4.705
31
53.49
0
LINE
8
Lines
10
22.468
20
5.476
30
54.036
11
22.642
21
4.705
31
54.582
0
LINE
8
Lines
10
23.126
20
0.0
30
54.582
11
23.112
21
-0.789
31
55.128
0
LINE
8
Lines
10
21.791
20
7.744
30
54.582
11
22.042
21
6.996
31
55.128
0
LINE
8
Lines
10
22.91
20
3.149
30
54.582
11
22.789
21
3.93
31
54.036
0
LINE
8
Lines
10
22.91
20
3.149
30
54.582
11
23.005
21
2.365
31
55.128
0
LINE
8
Lines
10
23.005
20
-2.364
30
55.128
11
23.072
21
-1.578
31
54.582
0
LINE
8
Lines
10
22.468
20
5.476
30
55.128
11
22.268
21
6.239
31
54.582
0
LINE
8
Lines
10
22.789
20
3.93
30
55.128
11
22.642
21
4.705
31
54.582
0
LINE
8
Lines
10
22.789
20
3.93
30
55.128
11
22.91
21
3.149
31
55.673
0
LINE
8
Lines
10
23.126
20
0.0
30
55.673
11
23.112
21
0.79
31
55.128
0
LINE
8
Lines
10
23.072
20
-1.578
30
55.673
11
23.112
21
-0.789
31
55.128
0
LINE
8
Lines
10
23.126
20
0.0
30
55.673
11
23.112
21
-0.789
31
56.219
0
LINE
8
Lines
10
23.072
20
-1.578
30
55.673
11
23.005
21
-2.364
31
56.219
0
LINE
8
Lines
10
22.268
20
6.239
30
55.673
11
22.042
21
6.996
31
55.128
0
LINE
8
Lines
10
22.642
20
4.705
30
55.673
11
22.468
21
5.476
31
55.128
0
LINE
8
Lines
10
22.268
20
6.239
30
55.673
11
22.468
21
5.476
31
56.219
0
LINE
8
Lines
10
22.642
20
4.705
30
55.673
11
22.789
21
3.93
31
56.219
0
LINE
8
Lines
10
22.91
20
3.149
30
55.673
11
23.005
21
2.365
31
56.219
0
LINE
8
Lines
10
23.072
20
-1.578
30
58.948
11
23.122
21
-0.395
31
57.584
0
LINE
8
Lines
10
23.126
20
0.0
30
57.857
11
23.072
21
-1.578
31
58.948
0
LINE
8
Lines
10
23.126
20
0.0
30
57.857
11
23.122
21
0.395
31
57.584
0
LINE
8
Lines
10
23.122
20
-0.395
30
57.584
11
23.126
21
0.0
31
57.129
0
LINE
8
Lines
10
23.126
20
0.0
30
57.129
11
23.112
21
0.79
31
56.219
0
LINE
8
Lines
10
23.072
20
-1.578
30
56.765
11
23.112
21
-0.789
31
56.219
0
LINE
8
Lines
10
22.961
20
-2.757
30
57.584
11
23.072
21
-1.578
31
56.765
0
LINE
8
Lines
10
22.042
20
6.996
30
56.219
11
21.791
21
7.744
31
55.673
0
LINE
8
Lines
10
22.91
20
3.149
30
57.129
11
22.961
21
2.757
31
57.584
0
LINE
8
Lines
10
23.072
20
1.578
30
56.765
11
23.005
21
2.365
31
56.219
0
LINE
8
Lines
10
22.158
20
6.619
30
57.584
11
21.791
21
7.744
31
56.765
0
LINE
8
Lines
10
22.268
20
6.239
30
57.857
11
22.158
21
6.619
31
57.584
0
LINE
8
Lines
10
22.642
20
4.705
30
58.948
11
22.268
21
6.239
31
57.857
0
LINE
8
Lines
10
22.042
20
6.996
30
56.219
11
22.268
21
6.239
31
57.129
0
LINE
8
Lines
10
22.468
20
5.476
30
56.219
11
22.642
21
4.705
31
56.765
0
LINE
8
Lines
10
22.268
20
6.239
30
57.129
11
22.372
21
5.858
31
57.584
0
LINE
8
Lines
10
22.91
20
3.149
30
57.129
11
22.789
21
3.93
31
56.219
0
LINE
8
Lines
10
22.853
20
3.54
30
57.584
11
22.642
21
4.705
31
56.765
0
LINE
8
Lines
10
22.372
20
5.858
30
57.584
11
22.642
21
4.705
31
58.948
0
LINE
8
Lines
10
22.853
20
3.54
30
57.584
11
22.91
21
3.149
31
57.857
0
LINE
8
Lines
10
23.072
20
1.578
30
58.948
11
22.961
21
2.757
31
57.584
0
LINE
8
Lines
10
22.91
20
3.149
30
57.857
11
23.072
21
1.578
31
58.948
0
LINE
8
Lines
10
23.321
20
1.595
30
54.582
11
23.362
21
0.799
31
54.036
0
LINE
8
Lines
10
23.321
20
1.595
30
56.765
11
23.362
21
0.799
31
56.219
0
LINE
8
Lines
10
23.321
20
1.595
30
56.765
11
23.209
21
2.787
31
57.584
0
LINE
8
Lines
10
22.28
20
7.072
30
54.036
11
22.509
21
6.307
31
53.49
0
LINE
8
Lines
10
23.376
20
0.0
30
53.49
11
23.362
21
0.799
31
54.036
0
LINE
8
Lines
10
22.026
20
7.828
30
54.582
11
22.28
21
7.072
31
54.036
0
LINE
8
Lines
10
23.158
20
3.183
30
53.49
11
23.036
21
3.972
31
54.036
0
LINE
8
Lines
10
23.362
20
-0.797
30
55.128
11
23.321
21
-1.595
31
54.582
0
LINE
8
Lines
10
23.253
20
-2.39
30
54.036
11
23.321
21
-1.595
31
54.582
0
LINE
8
Lines
10
23.036
20
3.972
30
54.036
11
22.887
21
4.756
31
54.582
0
LINE
8
Lines
10
23.253
20
2.391
30
55.128
11
23.321
21
1.595
31
54.582
0
LINE
8
Lines
10
23.376
20
0.0
30
55.673
11
23.362
21
-0.797
31
55.128
0
LINE
8
Lines
10
22.887
20
4.756
30
54.582
11
22.711
21
5.535
31
55.128
0
LINE
8
Lines
10
23.158
20
3.183
30
55.674
11
23.253
21
2.391
31
55.128
0
LINE
8
Lines
10
23.362
20
0.799
30
56.219
11
23.376
21
0.0
31
55.673
0
LINE
8
Lines
10
22.711
20
5.535
30
55.128
11
22.509
21
6.307
31
55.674
0
LINE
8
Lines
10
23.372
20
-0.399
30
57.584
11
23.376
21
0.0
31
57.857
0
LINE
8
Lines
10
23.376
20
0.0
30
57.857
11
23.321
21
1.596
31
58.948
0
LINE
8
Lines
10
23.372
20
-0.399
30
57.584
11
23.321
21
-1.595
31
56.765
0
LINE
8
Lines
10
23.253
20
-2.39
30
56.219
11
23.321
21
-1.595
31
56.765
0
LINE
8
Lines
10
23.158
20
-3.183
30
57.857
11
23.321
21
-1.595
31
58.948
0
LINE
8
Lines
10
23.158
20
3.183
30
55.674
11
23.036
21
3.972
31
56.219
0
LINE
8
Lines
10
22.026
20
7.828
30
56.765
11
22.28
21
7.072
31
56.219
0
LINE
8
Lines
10
22.509
20
6.307
30
57.857
11
22.026
21
7.828
31
58.948
0
LINE
8
Lines
10
22.509
20
6.307
30
57.857
11
22.613
21
5.921
31
57.584
0
LINE
8
Lines
10
22.509
20
6.307
30
55.674
11
22.28
21
7.072
31
56.219
0
LINE
8
Lines
10
22.887
20
4.756
30
56.765
11
23.036
21
3.972
31
56.219
0
LINE
8
Lines
10
22.613
20
5.921
30
57.584
11
22.887
21
4.756
31
56.765
0
LINE
8
Lines
10
23.158
20
3.183
30
57.857
11
23.209
21
2.787
31
57.584
0
LINE
8
Lines
10
23.158
20
3.183
30
57.857
11
22.887
21
4.756
31
58.948
0
LINE
8
Lines
10
22.822
20
1.561
30
53.49
11
22.756
21
2.34
31
54.036
0
LINE
8
Lines
10
22.822
20
1.561
30
55.674
11
22.862
21
0.782
31
55.128
0
LINE
8
Lines
10
22.822
20
1.561
30
58.948
11
22.872
21
0.391
31
57.584
0
LINE
8
Lines
10
22.225
20
5.417
30
54.036
11
22.397
21
4.654
31
53.49
0
LINE
8
Lines
10
22.876
20
0.0
30
54.582
11
22.862
21
-0.78
31
54.036
0
LINE
8
Lines
10
22.822
20
-1.561
30
53.49
11
22.862
21
-0.78
31
54.036
0
LINE
8
Lines
10
22.027
20
6.172
30
54.582
11
22.225
21
5.417
31
54.036
0
LINE
8
Lines
10
22.663
20
3.115
30
54.582
11
22.756
21
2.34
31
54.036
0
LINE
8
Lines
10
22.876
20
0.0
30
54.582
11
22.862
21
0.782
31
55.128
0
LINE
8
Lines
10
22.822
20
-1.561
30
55.673
11
22.756
21
-2.338
31
55.128
0
LINE
8
Lines
10
22.027
20
6.172
30
54.582
11
21.804
21
6.921
31
55.128
0
LINE
8
Lines
10
22.663
20
3.115
30
54.582
11
22.543
21
3.887
31
55.128
0
LINE
8
Lines
10
21.804
20
6.921
30
55.128
11
21.555
21
7.661
31
55.674
0
LINE
8
Lines
10
22.225
20
5.417
30
56.219
11
22.397
21
4.654
31
55.674
0
LINE
8
Lines
10
22.543
20
3.887
30
55.128
11
22.397
21
4.654
31
55.674
0
LINE
8
Lines
10
22.756
20
2.34
30
56.219
11
22.822
21
1.561
31
55.674
0
LINE
8
Lines
10
22.876
20
0.0
30
57.129
11
22.872
21
0.391
31
57.584
0
LINE
8
Lines
10
22.876
20
0.0
30
57.129
11
22.862
21
-0.78
31
56.219
0
LINE
8
Lines
10
22.822
20
-1.561
30
55.673
11
22.862
21
-0.78
31
56.219
0
LINE
8
Lines
10
22.822
20
-1.561
30
58.948
11
22.713
21
-2.727
31
57.584
0
LINE
8
Lines
10
22.756
20
2.34
30
56.219
11
22.663
21
3.115
31
57.129
0
LINE
8
Lines
10
21.555
20
7.661
30
58.948
11
21.919
21
6.547
31
57.584
0
LINE
8
Lines
10
22.027
20
6.172
30
57.129
11
21.919
21
6.547
31
57.584
0
LINE
8
Lines
10
22.225
20
5.417
30
56.219
11
22.027
21
6.172
31
57.129
0
LINE
8
Lines
10
22.397
20
4.654
30
58.948
11
22.606
21
3.502
31
57.584
0
LINE
8
Lines
10
22.663
20
3.115
30
57.129
11
22.606
21
3.502
31
57.584
0
3DFACE
8
Faces
10
22.423
20
1.534
30
58.948
11
22.315
21
2.68
31
57.584
12
22.266
22
3.06
32
57.857
13
22.266
23
3.06
33
57.857
0
3DFACE
8
Faces
10
22.822
20
1.561
30
58.948
11
22.713
21
2.727
31
57.584
12
22.663
22
3.115
32
57.857
13
22.663
23
3.115
33
57.857
0
3DFACE
8
Faces
10
22.822
20
1.561
30
58.948
11
22.713
21
2.727
31
57.584
12
22.663
22
3.115
32
57.857
13
22.663
23
3.115
33
57.857
0
3DFACE
8
Faces
10
23.072
20
1.578
30
58.948
11
22.961
21
2.757
31
57.584
12
22.91
22
3.149
32
57.857
13
22.91
23
3.149
33
57.857
0
3DFACE
8
Faces
10
23.072
20
1.578
30
58.948
11
22.961
21
2.757
31
57.584
12
22.91
22
3.149
32
57.857
13
22.91
23
3.149
33
57.857
0
3DFACE
8
Faces
10
23.321
20
1.595
30
58.948
11
23.209
21
2.787
31
57.584
12
23.158
22
3.183
32
57.857
13
23.158
23
3.183
33
57.857
0
3DFACE
8
Faces
10
23.321
20
1.595
30
58.948
11
23.209
21
2.787
31
57.584
12
23.158
22
3.183
32
57.857
13
23.158
23
3.183
33
57.857
0
3DFACE
8
Faces
10
23.621
20
1.616
30
58.948
11
23.507
21
2.823
31
57.584
12
23.455
22
3.224
32
57.857
13
23.455
23
3.224
33
57.857
0
3DFACE
8
Faces
10
22.006
20
4.573
30
58.948
11
22.423
21
1.534
31
58.948
12
22.266
22
3.06
32
57.857
13
22.266
23
3.06
33
57.857
0
3DFACE
8
Faces
10
22.397
20
4.654
30
58.948
11
22.822
21
1.561
31
58.948
12
22.663
22
3.115
32
57.857
13
22.663
23
3.115
33
57.857
0
3DFACE
8
Faces
10
22.397
20
4.654
30
58.948
11
22.822
21
1.561
31
58.948
12
22.663
22
3.115
32
57.857
13
22.663
23
3.115
33
57.857
0
3DFACE
8
Faces
10
22.642
20
4.705
30
58.948
11
23.072
21
1.578
31
58.948
12
22.91
22
3.149
32
57.857
13
22.91
23
3.149
33
57.857
0
3DFACE
8
Faces
10
22.642
20
4.705
30
58.948
11
23.072
21
1.578
31
58.948
12
22.91
22
3.149
32
57.857
13
22.91
23
3.149
33
57.857
0
3DFACE
8
Faces
10
22.887
20
4.756
30
58.948
11
23.321
21
1.595
31
58.948
12
23.158
22
3.183
32
57.857
13
23.158
23
3.183
33
57.857
0
3DFACE
8
Faces
10
22.887
20
4.756
30
58.948
11
23.321
21
1.595
31
58.948
12
23.158
22
3.183
32
57.857
13
23.158
23
3.183
33
57.857
0
3DFACE
8
Faces
10
23.181
20
4.817
30
58.948
11
23.621
21
1.616
31
58.948
12
23.455
22
3.224
32
57.857
13
23.455
23
3.224
33
57.857
0
3DFACE
8
Faces
10
22.006
20
4.573
30
58.948
11
22.266
21
3.06
31
57.857
12
22.211
22
3.44
32
57.584
13
22.211
23
3.44
33
57.584
0
3DFACE
8
Faces
10
22.397
20
4.654
30
58.948
11
22.663
21
3.115
31
57.857
12
22.606
22
3.502
32
57.584
13
22.606
23
3.502
33
57.584
0
3DFACE
8
Faces
10
22.397
20
4.654
30
58.948
11
22.663
21
3.115
31
57.857
12
22.606
22
3.502
32
57.584
13
22.606
23
3.502
33
57.584
0
3DFACE
8
Faces
10
22.642
20
4.705
30
58.948
11
22.91
21
3.149
31
57.857
12
22.853
22
3.54
32
57.584
13
22.853
23
3.54
33
57.584
0
3DFACE
8
Faces
10
22.642
20
4.705
30
58.948
11
22.91
21
3.149
31
57.857
12
22.853
22
3.54
32
57.584
13
22.853
23
3.54
33
57.584
0
3DFACE
8
Faces
10
22.887
20
4.756
30
58.948
11
23.158
21
3.183
31
57.857
12
23.1
22
3.578
32
57.584
13
23.1
23
3.578
33
57.584
0
3DFACE
8
Faces
10
22.887
20
4.756
30
58.948
11
23.158
21
3.183
31
57.857
12
23.1
22
3.578
32
57.584
13
23.1
23
3.578
33
57.584
0
3DFACE
8
Faces
10
23.181
20
4.817
30
58.948
11
23.455
21
3.224
31
57.857
12
23.397
22
3.624
32
57.584
13
23.397
23
3.624
33
57.584
0
3DFACE
8
Faces
10
22.211
20
3.44
30
57.584
11
22.266
21
3.06
31
57.857
12
22.315
22
2.68
32
57.584
13
22.266
23
3.06
33
57.129
0
3DFACE
8
Faces
10
22.606
20
3.502
30
57.584
11
22.663
21
3.115
31
57.857
12
22.713
22
2.727
32
57.584
13
22.663
23
3.115
33
57.129
0
3DFACE
8
Faces
10
22.606
20
3.502
30
57.584
11
22.663
21
3.115
31
57.857
12
22.713
22
2.727
32
57.584
13
22.663
23
3.115
33
57.129
0
3DFACE
8
Faces
10
22.853
20
3.54
30
57.584
11
22.91
21
3.149
31
57.857
12
22.961
22
2.757
32
57.584
13
22.91
23
3.149
33
57.129
0
3DFACE
8
Faces
10
22.853
20
3.54
30
57.584
11
22.91
21
3.149
31
57.857
12
22.961
22
2.757
32
57.584
13
22.91
23
3.149
33
57.129
0
3DFACE
8
Faces
10
23.1
20
3.578
30
57.584
11
23.158
21
3.183
31
57.857
12
23.209
22
2.787
32
57.584
13
23.158
23
3.183
33
57.129
0
3DFACE
8
Faces
10
23.1
20
3.578
30
57.584
11
23.158
21
3.183
31
57.857
12
23.209
22
2.787
32
57.584
13
23.158
23
3.183
33
57.129
0
3DFACE
8
Faces
10
23.397
20
3.624
30
57.584
11
23.455
21
3.224
31
57.857
12
23.507
22
2.823
32
57.584
13
23.455
23
3.224
33
57.129
0
3DFACE
8
Faces
10
22.006
20
4.573
30
58.948
11
22.211
21
3.44
31
57.584
12
22.006
22
4.573
32
56.765
13
21.743
23
5.693
33
57.584
0
3DFACE
8
Faces
10
22.397
20
4.654
30
58.948
11
22.606
21
3.502
31
57.584
12
22.397
22
4.654
32
56.765
13
22.13
23
5.795
33
57.584
0
3DFACE
8
Faces
10
22.397
20
4.654
30
58.948
11
22.606
21
3.502
31
57.584
12
22.397
22
4.654
32
56.765
13
22.13
23
5.795
33
57.584
0
3DFACE
8
Faces
10
22.642
20
4.705
30
58.948
11
22.853
21
3.54
31
57.584
12
22.642
22
4.705
32
56.765
13
22.372
23
5.858
33
57.584
0
3DFACE
8
Faces
10
22.642
20
4.705
30
58.948
11
22.853
21
3.54
31
57.584
12
22.642
22
4.705
32
56.765
13
22.372
23
5.858
33
57.584
0
3DFACE
8
Faces
10
22.887
20
4.756
30
58.948
11
23.1
21
3.578
31
57.584
12
22.887
22
4.756
32
56.765
13
22.613
23
5.921
33
57.584
0
3DFACE
8
Faces
10
22.887
20
4.756
30
58.948
11
23.1
21
3.578
31
57.584
12
22.887
22
4.756
32
56.765
13
22.613
23
5.921
33
57.584
0
3DFACE
8
Faces
10
23.181
20
4.817
30
58.948
11
23.397
21
3.624
31
57.584
12
23.181
22
4.817
32
56.765
13
22.904
23
5.997
33
57.584
0
3DFACE
8
Faces
10
22.211
20
3.44
30
57.584
11
22.266
21
3.06
31
57.129
12
22.149
22
3.819
32
56.219
13
22.006
23
4.573
33
56.765
0
3DFACE
8
Faces
10
22.606
20
3.502
30
57.584
11
22.663
21
3.115
31
57.129
12
22.543
22
3.887
32
56.219
13
22.397
23
4.654
33
56.765
0
3DFACE
8
Faces
10
22.606
20
3.502
30
57.584
11
22.663
21
3.115
31
57.129
12
22.543
22
3.887
32
56.219
13
22.397
23
4.654
33
56.765
0
3DFACE
8
Faces
10
22.853
20
3.54
30
57.584
11
22.91
21
3.149
31
57.129
12
22.789
22
3.93
32
56.219
13
22.642
23
4.705
33
56.765
0
3DFACE
8
Faces
10
22.853
20
3.54
30
57.584
11
22.91
21
3.149
31
57.129
12
22.789
22
3.93
32
56.219
13
22.642
23
4.705
33
56.765
0
3DFACE
8
Faces
10
23.1
20
3.578
30
57.584
11
23.158
21
3.183
31
57.129
12
23.036
22
3.972
32
56.219
13
22.887
23
4.756
33
56.765
0
3DFACE
8
Faces
10
23.1
20
3.578
30
57.584
11
23.158
21
3.183
31
57.129
12
23.036
22
3.972
32
56.219
13
22.887
23
4.756
33
56.765
0
3DFACE
8
Faces
10
23.397
20
3.624
30
57.584
11
23.455
21
3.224
31
57.129
12
23.331
22
4.023
32
56.219
13
23.181
23
4.817
33
56.765
0
3DFACE
8
Faces
10
21.642
20
6.064
30
57.129
11
21.743
21
5.693
31
57.584
12
22.006
22
4.573
32
56.765
13
21.837
23
5.322
33
56.219
0
3DFACE
8
Faces
10
22.027
20
6.172
30
57.129
11
22.13
21
5.795
31
57.584
12
22.397
22
4.654
32
56.765
13
22.225
23
5.417
33
56.219
0
3DFACE
8
Faces
10
22.027
20
6.172
30
57.129
11
22.13
21
5.795
31
57.584
12
22.397
22
4.654
32
56.765
13
22.225
23
5.417
33
56.219
0
3DFACE
8
Faces
10
22.268
20
6.239
30
57.129
11
22.372
21
5.858
31
57.584
12
22.642
22
4.705
32
56.765
13
22.468
23
5.476
33
56.219
0
3DFACE
8
Faces
10
22.268
20
6.239
30
57.129
11
22.372
21
5.858
31
57.584
12
22.642
22
4.705
32
56.765
13
22.468
23
5.476
33
56.219
0
3DFACE
8
Faces
10
22.509
20
6.307
30
57.129
11
22.613
21
5.921
31
57.584
12
22.887
22
4.756
32
56.765
13
22.711
23
5.535
33
56.219
0
3DFACE
8
Faces
10
22.509
20
6.307
30
57.129
11
22.613
21
5.921
31
57.584
12
22.887
22
4.756
32
56.765
13
22.711
23
5.535
33
56.219
0
3DFACE
8
Faces
10
22.798
20
6.388
30
57.129
11
22.904
21
5.997
31
57.584
12
23.181
22
4.817
32
56.765
13
23.002
23
5.606
33
56.219
0
3DFACE
8
Faces
10
22.006
20
4.573
30
56.765
11
22.149
21
3.819
31
56.219
12
22.006
22
4.573
32
55.674
13
21.837
23
5.322
33
56.219
0
3DFACE
8
Faces
10
22.397
20
4.654
30
56.765
11
22.543
21
3.887
31
56.219
12
22.397
22
4.654
32
55.674
13
22.225
23
5.417
33
56.219
0
3DFACE
8
Faces
10
22.397
20
4.654
30
56.765
11
22.543
21
3.887
31
56.219
12
22.397
22
4.654
32
55.674
13
22.225
23
5.417
33
56.219
0
3DFACE
8
Faces
10
22.642
20
4.705
30
56.765
11
22.789
21
3.93
31
56.219
12
22.642
22
4.705
32
55.674
13
22.468
23
5.476
33
56.219
0
3DFACE
8
Faces
10
22.642
20
4.705
30
56.765
11
22.789
21
3.93
31
56.219
12
22.642
22
4.705
32
55.674
13
22.468
23
5.476
33
56.219
0
3DFACE
8
Faces
10
22.887
20
4.756
30
56.765
11
23.036
21
3.972
31
56.219
12
22.887
22
4.756
32
55.674
13
22.711
23
5.535
33
56.219
0
3DFACE
8
Faces
10
22.887
20
4.756
30
56.765
11
23.036
21
3.972
31
56.219
12
22.887
22
4.756
32
55.674
13
22.711
23
5.535
33
56.219
0
3DFACE
8
Faces
10
23.181
20
4.817
30
56.765
11
23.331
21
4.023
31
56.219
12
23.181
22
4.817
32
55.674
13
23.002
23
5.606
33
56.219
0
3DFACE
8
Faces
10
21.423
20
6.8
30
56.219
11
21.642
21
6.064
31
57.129
12
21.837
22
5.322
32
56.219
13
21.642
23
6.064
33
55.674
0
3DFACE
8
Faces
10
21.804
20
6.921
30
56.219
11
22.027
21
6.172
31
57.129
12
22.225
22
5.417
32
56.219
13
22.027
23
6.172
33
55.674
0
3DFACE
8
Faces
10
21.804
20
6.921
30
56.219
11
22.027
21
6.172
31
57.129
12
22.225
22
5.417
32
56.219
13
22.027
23
6.172
33
55.674
0
3DFACE
8
Faces
10
22.042
20
6.996
30
56.219
11
22.268
21
6.239
31
57.129
12
22.468
22
5.476
32
56.219
13
22.268
23
6.239
33
55.674
0
3DFACE
8
Faces
10
22.042
20
6.996
30
56.219
11
22.268
21
6.239
31
57.129
12
22.468
22
5.476
32
56.219
13
22.268
23
6.239
33
55.674
0
3DFACE
8
Faces
10
22.28
20
7.072
30
56.219
11
22.509
21
6.307
31
57.129
12
22.711
22
5.535
32
56.219
13
22.509
23
6.307
33
55.674
0
3DFACE
8
Faces
10
22.28
20
7.072
30
56.219
11
22.509
21
6.307
31
57.129
12
22.711
22
5.535
32
56.219
13
22.509
23
6.307
33
55.674
0
3DFACE
8
Faces
10
22.566
20
7.163
30
56.219
11
22.798
21
6.388
31
57.129
12
23.002
22
5.606
32
56.219
13
22.798
23
6.388
33
55.674
0
3DFACE
8
Faces
10
21.178
20
7.527
30
56.765
11
21.536
21
6.433
31
57.584
12
21.642
22
6.064
32
57.129
13
21.423
23
6.8
33
56.219
0
3DFACE
8
Faces
10
21.555
20
7.661
30
56.765
11
21.919
21
6.547
31
57.584
12
22.027
22
6.172
32
57.129
13
21.804
23
6.921
33
56.219
0
3DFACE
8
Faces
10
21.555
20
7.661
30
56.765
11
21.919
21
6.547
31
57.584
12
22.027
22
6.172
32
57.129
13
21.804
23
6.921
33
56.219
0
3DFACE
8
Faces
10
21.791
20
7.744
30
56.765
11
22.158
21
6.619
31
57.584
12
22.268
22
6.239
32
57.129
13
22.042
23
6.996
33
56.219
0
3DFACE
8
Faces
10
21.791
20
7.744
30
56.765
11
22.158
21
6.619
31
57.584
12
22.268
22
6.239
32
57.129
13
22.042
23
6.996
33
56.219
0
3DFACE
8
Faces
10
22.026
20
7.828
30
56.765
11
22.398
21
6.69
31
57.584
12
22.509
22
6.307
32
57.129
13
22.28
23
7.072
33
56.219
0
3DFACE
8
Faces
10
22.026
20
7.828
30
56.765
11
22.398
21
6.69
31
57.584
12
22.509
22
6.307
32
57.129
13
22.28
23
7.072
33
56.219
0
3DFACE
8
Faces
10
22.309
20
7.929
30
56.765
11
22.685
21
6.776
31
57.584
12
22.798
22
6.388
32
57.129
13
22.566
23
7.163
33
56.219
0
3DFACE
8
Faces
10
21.536
20
6.433
30
57.584
11
21.642
21
6.064
31
57.857
12
21.743
22
5.693
32
57.584
13
21.642
23
6.064
33
57.129
0
3DFACE
8
Faces
10
21.919
20
6.547
30
57.584
11
22.027
21
6.172
31
57.857
12
22.13
22
5.795
32
57.584
13
22.027
23
6.172
33
57.129
0
3DFACE
8
Faces
10
21.919
20
6.547
30
57.584
11
22.027
21
6.172
31
57.857
12
22.13
22
5.795
32
57.584
13
22.027
23
6.172
33
57.129
0
3DFACE
8
Faces
10
22.158
20
6.619
30
57.584
11
22.268
21
6.239
31
57.857
12
22.372
22
5.858
32
57.584
13
22.268
23
6.239
33
57.129
0
3DFACE
8
Faces
10
22.158
20
6.619
30
57.584
11
22.268
21
6.239
31
57.857
12
22.372
22
5.858
32
57.584
13
22.268
23
6.239
33
57.129
0
3DFACE
8
Faces
10
22.398
20
6.69
30
57.584
11
22.509
21
6.307
31
57.857
12
22.613
22
5.921
32
57.584
13
22.509
23
6.307
33
57.129
0
3DFACE
8
Faces
10
22.398
20
6.69
30
57.584
11
22.509
21
6.307
31
57.857
12
22.613
22
5.921
32
57.584
13
22.509
23
6.307
33
57.129
0
3DFACE
8
Faces
10
22.685
20
6.776
30
57.584
11
22.798
21
6.388
31
57.857
12
22.904
22
5.997
32
57.584
13
22.798
23
6.388
33
57.129
0
3DFACE
8
Faces
10
21.178
20
7.527
30
58.948
11
22.006
21
4.573
31
58.948
12
21.642
22
6.064
32
57.857
13
21.642
23
6.064
33
57.857
0
3DFACE
8
Faces
10
21.555
20
7.661
30
58.948
11
22.397
21
4.654
31
58.948
12
22.027
22
6.172
32
57.857
13
22.027
23
6.172
33
57.857
0
3DFACE
8
Faces
10
21.555
20
7.661
30
58.948
11
22.397
21
4.654
31
58.948
12
22.027
22
6.172
32
57.857
13
22.027
23
6.172
33
57.857
0
3DFACE
8
Faces
10
21.791
20
7.744
30
58.948
11
22.642
21
4.705
31
58.948
12
22.268
22
6.239
32
57.857
13
22.268
23
6.239
33
57.857
0
3DFACE
8
Faces
10
21.791
20
7.744
30
58.948
11
22.642
21
4.705
31
58.948
12
22.268
22
6.239
32
57.857
13
22.268
23
6.239
33
57.857
0
3DFACE
8
Faces
10
22.026
20
7.828
30
58.948
11
22.887
21
4.756
31
58.948
12
22.509
22
6.307
32
57.857
13
22.509
23
6.307
33
57.857
0
3DFACE
8
Faces
10
22.026
20
7.828
30
58.948
11
22.887
21
4.756
31
58.948
12
22.509
22
6.307
32
57.857
13
22.509
23
6.307
33
57.857
0
3DFACE
8
Faces
10
22.309
20
7.929
30
58.948
11
23.181
21
4.817
31
58.948
12
22.798
22
6.388
32
57.857
13
22.798
23
6.388
33
57.857
0
3DFACE
8
Faces
10
21.178
20
7.527
30
58.948
11
21.642
21
6.064
31
57.857
12
21.536
22
6.433
32
57.584
13
21.536
23
6.433
33
57.584
0
3DFACE
8
Faces
10
21.555
20
7.661
30
58.948
11
22.027
21
6.172
31
57.857
12
21.919
22
6.547
32
57.584
13
21.919
23
6.547
33
57.584
0
3DFACE
8
Faces
10
21.555
20
7.661
30
58.948
11
22.027
21
6.172
31
57.857
12
21.919
22
6.547
32
57.584
13
21.919
23
6.547
33
57.584
0
3DFACE
8
Faces
10
21.791
20
7.744
30
58.948
11
22.268
21
6.239
31
57.857
12
22.158
22
6.619
32
57.584
13
22.158
23
6.619
33
57.584
0
3DFACE
8
Faces
10
21.791
20
7.744
30
58.948
11
22.268
21
6.239
31
57.857
12
22.158
22
6.619
32
57.584
13
22.158
23
6.619
33
57.584
0
3DFACE
8
Faces
10
22.026
20
7.828
30
58.948
11
22.509
21
6.307
31
57.857
12
22.398
22
6.69
32
57.584
13
22.398
23
6.69
33
57.584
0
3DFACE
8
Faces
10
22.026
20
7.828
30
58.948
11
22.509
21
6.307
31
57.857
12
22.398
22
6.69
32
57.584
13
22.398
23
6.69
33
57.584
0
3DFACE
8
Faces
10
22.309
20
7.929
30
58.948
11
22.798
21
6.388
31
57.857
12
22.685
22
6.776
32
57.584
13
22.685
23
6.776
33
57.584
0
3DFACE
8
Faces
10
21.178
20
7.527
30
58.948
11
21.536
21
6.433
31
57.584
12
21.178
22
7.527
32
56.765
13
20.765
23
8.601
33
57.584
0
3DFACE
8
Faces
10
21.555
20
7.661
30
58.948
11
21.919
21
6.547
31
57.584
12
21.555
22
7.661
32
56.765
13
21.135
23
8.754
33
57.584
0
3DFACE
8
Faces
10
21.555
20
7.661
30
58.948
11
21.919
21
6.547
31
57.584
12
21.555
22
7.661
32
56.765
13
21.135
23
8.754
33
57.584
0
3DFACE
8
Faces
10
21.791
20
7.744
30
58.948
11
22.158
21
6.619
31
57.584
12
21.791
22
7.744
32
56.765
13
21.366
23
8.85
33
57.584
0
3DFACE
8
Faces
10
21.791
20
7.744
30
58.948
11
22.158
21
6.619
31
57.584
12
21.791
22
7.744
32
56.765
13
21.366
23
8.85
33
57.584
0
3DFACE
8
Faces
10
22.026
20
7.828
30
58.948
11
22.398
21
6.69
31
57.584
12
22.026
22
7.828
32
56.765
13
21.597
23
8.945
33
57.584
0
3DFACE
8
Faces
10
22.026
20
7.828
30
58.948
11
22.398
21
6.69
31
57.584
12
22.026
22
7.828
32
56.765
13
21.597
23
8.945
33
57.584
0
3DFACE
8
Faces
10
22.309
20
7.929
30
58.948
11
22.685
21
6.776
31
57.584
12
22.309
22
7.929
32
56.765
13
21.874
23
9.06
33
57.584
0
3DFACE
8
Faces
10
22.006
20
4.573
30
58.948
11
21.743
21
5.693
31
57.584
12
21.642
22
6.064
32
57.857
13
21.642
23
6.064
33
57.857
0
3DFACE
8
Faces
10
22.397
20
4.654
30
58.948
11
22.13
21
5.795
31
57.584
12
22.027
22
6.172
32
57.857
13
22.027
23
6.172
33
57.857
0
3DFACE
8
Faces
10
22.397
20
4.654
30
58.948
11
22.13
21
5.795
31
57.584
12
22.027
22
6.172
32
57.857
13
22.027
23
6.172
33
57.857
0
3DFACE
8
Faces
10
22.642
20
4.705
30
58.948
11
22.372
21
5.858
31
57.584
12
22.268
22
6.239
32
57.857
13
22.268
23
6.239
33
57.857
0
3DFACE
8
Faces
10
22.642
20
4.705
30
58.948
11
22.372
21
5.858
31
57.584
12
22.268
22
6.239
32
57.857
13
22.268
23
6.239
33
57.857
0
3DFACE
8
Faces
10
22.887
20
4.756
30
58.948
11
22.613
21
5.921
31
57.584
12
22.509
22
6.307
32
57.857
13
22.509
23
6.307
33
57.857
0
3DFACE
8
Faces
10
22.887
20
4.756
30
58.948
11
22.613
21
5.921
31
57.584
12
22.509
22
6.307
32
57.857
13
22.509
23
6.307
33
57.857
0
3DFACE
8
Faces
10
23.181
20
4.817
30
58.948
11
22.904
21
5.997
31
57.584
12
22.798
22
6.388
32
57.857
13
22.798
23
6.388
33
57.857
0
3DFACE
8
Faces
10
22.266
20
3.06
30
57.129
11
22.315
21
2.68
31
57.584
12
22.423
22
1.534
32
56.765
13
22.358
23
2.299
33
56.219
0
3DFACE
8
Faces
10
22.663
20
3.115
30
57.129
11
22.713
21
2.727
31
57.584
12
22.822
22
1.561
32
56.765
13
22.756
23
2.34
33
56.219
0
3DFACE
8
Faces
10
22.663
20
3.115
30
57.129
11
22.713
21
2.727
31
57.584
12
22.822
22
1.561
32
56.765
13
22.756
23
2.34
33
56.219
0
3DFACE
8
Faces
10
22.91
20
3.149
30
57.129
11
22.961
21
2.757
31
57.584
12
23.072
22
1.578
32
56.765
13
23.005
23
2.365
33
56.219
0
3DFACE
8
Faces
10
22.91
20
3.149
30
57.129
11
22.961
21
2.757
31
57.584
12
23.072
22
1.578
32
56.765
13
23.005
23
2.365
33
56.219
0
3DFACE
8
Faces
10
23.158
20
3.183
30
57.129
11
23.209
21
2.787
31
57.584
12
23.321
22
1.595
32
56.765
13
23.253
23
2.391
33
56.219
0
3DFACE
8
Faces
10
23.158
20
3.183
30
57.129
11
23.209
21
2.787
31
57.584
12
23.321
22
1.595
32
56.765
13
23.253
23
2.391
33
56.219
0
3DFACE
8
Faces
10
23.455
20
3.224
30
57.129
11
23.507
21
2.823
31
57.584
12
23.621
22
1.616
32
56.765
13
23.552
23
2.422
33
56.219
0
3DFACE
8
Faces
10
21.178
20
7.527
30
56.765
11
21.423
21
6.8
31
56.219
12
21.178
22
7.527
32
55.674
13
20.909
23
8.246
33
56.219
0
3DFACE
8
Faces
10
21.555
20
7.661
30
56.765
11
21.804
21
6.921
31
56.219
12
21.555
22
7.661
32
55.674
13
21.281
23
8.393
33
56.219
0
3DFACE
8
Faces
10
21.555
20
7.661
30
56.765
11
21.804
21
6.921
31
56.219
12
21.555
22
7.661
32
55.674
13
21.281
23
8.393
33
56.219
0
3DFACE
8
Faces
10
21.791
20
7.744
30
56.765
11
22.042
21
6.996
31
56.219
12
21.791
22
7.744
32
55.674
13
21.513
23
8.484
33
56.219
0
3DFACE
8
Faces
10
21.791
20
7.744
30
56.765
11
22.042
21
6.996
31
56.219
12
21.791
22
7.744
32
55.674
13
21.513
23
8.484
33
56.219
0
3DFACE
8
Faces
10
22.026
20
7.828
30
56.765
11
22.28
21
7.072
31
56.219
12
22.026
22
7.828
32
55.674
13
21.746
23
8.576
33
56.219
0
3DFACE
8
Faces
10
22.026
20
7.828
30
56.765
11
22.28
21
7.072
31
56.219
12
22.026
22
7.828
32
55.674
13
21.746
23
8.576
33
56.219
0
3DFACE
8
Faces
10
22.309
20
7.929
30
56.765
11
22.566
21
7.163
31
56.219
12
22.309
22
7.929
32
55.674
13
22.025
23
8.686
33
56.219
0
3DFACE
8
Faces
10
22.149
20
3.819
30
56.219
11
22.266
21
3.06
31
57.129
12
22.358
22
2.299
32
56.219
13
22.266
23
3.06
33
55.674
0
3DFACE
8
Faces
10
22.543
20
3.887
30
56.219
11
22.663
21
3.115
31
57.129
12
22.756
22
2.34
32
56.219
13
22.663
23
3.115
33
55.674
0
3DFACE
8
Faces
10
22.543
20
3.887
30
56.219
11
22.663
21
3.115
31
57.129
12
22.756
22
2.34
32
56.219
13
22.663
23
3.115
33
55.674
0
3DFACE
8
Faces
10
22.789
20
3.93
30
56.219
11
22.91
21
3.149
31
57.129
12
23.005
22
2.365
32
56.219
13
22.91
23
3.149
33
55.674
0
3DFACE
8
Faces
10
22.789
20
3.93
30
56.219
11
22.91
21
3.149
31
57.129
12
23.005
22
2.365
32
56.219
13
22.91
23
3.149
33
55.674
0
3DFACE
8
Faces
10
23.036
20
3.972
30
56.219
11
23.158
21
3.183
31
57.129
12
23.253
22
2.391
32
56.219
13
23.158
23
3.183
33
55.674
0
3DFACE
8
Faces
10
23.036
20
3.972
30
56.219
11
23.158
21
3.183
31
57.129
12
23.253
22
2.391
32
56.219
13
23.158
23
3.183
33
55.674
0
3DFACE
8
Faces
10
23.331
20
4.023
30
56.219
11
23.455
21
3.224
31
57.129
12
23.552
22
2.422
32
56.219
13
23.455
23
3.224
33
55.674
0
3DFACE
8
Faces
10
22.423
20
-1.533
30
58.948
11
22.006
21
-4.572
31
58.948
12
22.267
22
-3.06
32
57.857
13
22.267
23
-3.06
33
57.857
0
3DFACE
8
Faces
10
22.822
20
-1.561
30
58.948
11
22.397
21
-4.654
31
58.948
12
22.663
22
-3.115
32
57.857
13
22.663
23
-3.115
33
57.857
0
3DFACE
8
Faces
10
22.822
20
-1.561
30
58.948
11
22.397
21
-4.654
31
58.948
12
22.663
22
-3.115
32
57.857
13
22.663
23
-3.115
33
57.857
0
3DFACE
8
Faces
10
23.072
20
-1.578
30
58.948
11
22.642
21
-4.705
31
58.948
12
22.91
22
-3.149
32
57.857
13
22.91
23
-3.149
33
57.857
0
3DFACE
8
Faces
10
23.072
20
-1.578
30
58.948
11
22.642
21
-4.705
31
58.948
12
22.91
22
-3.149
32
57.857
13
22.91
23
-3.149
33
57.857
0
3DFACE
8
Faces
10
23.321
20
-1.595
30
58.948
11
22.887
21
-4.756
31
58.948
12
23.158
22
-3.183
32
57.857
13
23.158
23
-3.183
33
57.857
0
3DFACE
8
Faces
10
23.321
20
-1.595
30
58.948
11
22.887
21
-4.756
31
58.948
12
23.158
22
-3.183
32
57.857
13
23.158
23
-3.183
33
57.857
0
3DFACE
8
Faces
10
23.621
20
-1.615
30
58.948
11
23.181
21
-4.817
31
58.948
12
23.455
22
-3.223
32
57.857
13
23.455
23
-3.223
33
57.857
0
3DFACE
8
Faces
10
22.423
20
-1.533
30
58.948
11
22.267
21
-3.06
31
57.857
12
22.316
22
-2.679
32
57.584
13
22.316
23
-2.679
33
57.584
0
3DFACE
8
Faces
10
22.822
20
-1.561
30
58.948
11
22.663
21
-3.115
31
57.857
12
22.713
22
-2.727
32
57.584
13
22.713
23
-2.727
33
57.584
0
3DFACE
8
Faces
10
22.822
20
-1.561
30
58.948
11
22.663
21
-3.115
31
57.857
12
22.713
22
-2.727
32
57.584
13
22.713
23
-2.727
33
57.584
0
3DFACE
8
Faces
10
23.072
20
-1.578
30
58.948
11
22.91
21
-3.149
31
57.857
12
22.961
22
-2.757
32
57.584
13
22.961
23
-2.757
33
57.584
0
3DFACE
8
Faces
10
23.072
20
-1.578
30
58.948
11
22.91
21
-3.149
31
57.857
12
22.961
22
-2.757
32
57.584
13
22.961
23
-2.757
33
57.584
0
3DFACE
8
Faces
10
23.321
20
-1.595
30
58.948
11
23.158
21
-3.183
31
57.857
12
23.209
22
-2.787
32
57.584
13
23.209
23
-2.787
33
57.584
0
3DFACE
8
Faces
10
23.321
20
-1.595
30
58.948
11
23.158
21
-3.183
31
57.857
12
23.209
22
-2.787
32
57.584
13
23.209
23
-2.787
33
57.584
0
3DFACE
8
Faces
10
23.621
20
-1.615
30
58.948
11
23.455
21
-3.223
31
57.857
12
23.507
22
-2.822
32
57.584
13
23.507
23
-2.822
33
57.584
0
3DFACE
8
Faces
10
22.423
20
-1.533
30
58.948
11
22.316
21
-2.679
31
57.584
12
22.423
22
-1.533
32
56.765
13
22.473
23
-0.384
33
57.584
0
3DFACE
8
Faces
10
22.822
20
-1.561
30
58.948
11
22.713
21
-2.727
31
57.584
12
22.822
22
-1.561
32
56.765
13
22.872
23
-0.39
33
57.584
0
3DFACE
8
Faces
10
22.822
20
-1.561
30
58.948
11
22.713
21
-2.727
31
57.584
12
22.822
22
-1.561
32
56.765
13
22.872
23
-0.39
33
57.584
0
3DFACE
8
Faces
10
23.072
20
-1.578
30
58.948
11
22.961
21
-2.757
31
57.584
12
23.072
22
-1.578
32
56.765
13
23.122
23
-0.395
33
57.584
0
3DFACE
8
Faces
10
23.072
20
-1.578
30
58.948
11
22.961
21
-2.757
31
57.584
12
23.072
22
-1.578
32
56.765
13
23.122
23
-0.395
33
57.584
0
3DFACE
8
Faces
10
23.321
20
-1.595
30
58.948
11
23.209
21
-2.787
31
57.584
12
23.321
22
-1.595
32
56.765
13
23.372
23
-0.399
33
57.584
0
3DFACE
8
Faces
10
23.321
20
-1.595
30
58.948
11
23.209
21
-2.787
31
57.584
12
23.321
22
-1.595
32
56.765
13
23.372
23
-0.399
33
57.584
0
3DFACE
8
Faces
10
23.621
20
-1.615
30
58.948
11
23.507
21
-2.822
31
57.584
12
23.621
22
-1.615
32
56.765
13
23.672
23
-0.404
33
57.584
0
3DFACE
8
Faces
10
22.316
20
-2.679
30
57.584
11
22.267
21
-3.06
31
57.129
12
22.358
22
-2.298
32
56.219
13
22.423
23
-1.533
33
56.765
0
3DFACE
8
Faces
10
22.713
20
-2.727
30
57.584
11
22.663
21
-3.115
31
57.129
12
22.756
22
-2.338
32
56.219
13
22.822
23
-1.561
33
56.765
0
3DFACE
8
Faces
10
22.713
20
-2.727
30
57.584
11
22.663
21
-3.115
31
57.129
12
22.756
22
-2.338
32
56.219
13
22.822
23
-1.561
33
56.765
0
3DFACE
8
Faces
10
22.961
20
-2.757
30
57.584
11
22.91
21
-3.149
31
57.129
12
23.005
22
-2.364
32
56.219
13
23.072
23
-1.578
33
56.765
0
3DFACE
8
Faces
10
22.961
20
-2.757
30
57.584
11
22.91
21
-3.149
31
57.129
12
23.005
22
-2.364
32
56.219
13
23.072
23
-1.578
33
56.765
0
3DFACE
8
Faces
10
23.209
20
-2.787
30
57.584
11
23.158
21
-3.183
31
57.129
12
23.253
22
-2.39
32
56.219
13
23.321
23
-1.595
33
56.765
0
3DFACE
8
Faces
10
23.209
20
-2.787
30
57.584
11
23.158
21
-3.183
31
57.129
12
23.253
22
-2.39
32
56.219
13
23.321
23
-1.595
33
56.765
0
3DFACE
8
Faces
10
23.507
20
-2.822
30
57.584
11
23.455
21
-3.223
31
57.129
12
23.552
22
-2.42
32
56.219
13
23.621
23
-1.615
33
56.765
0
3DFACE
8
Faces
10
22.476
20
0.0
30
57.129
11
22.473
21
-0.384
31
57.584
12
22.423
22
-1.533
32
56.765
13
22.463
23
-0.766
33
56.219
0
3DFACE
8
Faces
10
22.876
20
0.0
30
57.129
11
22.872
21
-0.39
31
57.584
12
22.822
22
-1.561
32
56.765
13
22.862
23
-0.78
33
56.219
0
3DFACE
8
Faces
10
22.876
20
0.0
30
57.129
11
22.872
21
-0.39
31
57.584
12
22.822
22
-1.561
32
56.765
13
22.862
23
-0.78
33
56.219
0
3DFACE
8
Faces
10
23.126
20
0.0
30
57.129
11
23.122
21
-0.395
31
57.584
12
23.072
22
-1.578
32
56.765
13
23.112
23
-0.789
33
56.219
0
3DFACE
8
Faces
10
23.126
20
0.0
30
57.129
11
23.122
21
-0.395
31
57.584
12
23.072
22
-1.578
32
56.765
13
23.112
23
-0.789
33
56.219
0
3DFACE
8
Faces
10
23.376
20
0.0
30
57.129
11
23.372
21
-0.399
31
57.584
12
23.321
22
-1.595
32
56.765
13
23.362
23
-0.797
33
56.219
0
3DFACE
8
Faces
10
23.376
20
0.0
30
57.129
11
23.372
21
-0.399
31
57.584
12
23.321
22
-1.595
32
56.765
13
23.362
23
-0.797
33
56.219
0
3DFACE
8
Faces
10
23.676
20
0.0
30
57.129
11
23.672
21
-0.404
31
57.584
12
23.621
22
-1.615
32
56.765
13
23.662
23
-0.807
33
56.219
0
3DFACE
8
Faces
10
22.423
20
-1.533
30
56.765
11
22.358
21
-2.298
31
56.219
12
22.423
22
-1.533
32
55.674
13
22.463
23
-0.766
33
56.219
0
3DFACE
8
Faces
10
22.822
20
-1.561
30
56.765
11
22.756
21
-2.338
31
56.219
12
22.822
22
-1.561
32
55.674
13
22.862
23
-0.78
33
56.219
0
3DFACE
8
Faces
10
22.822
20
-1.561
30
56.765
11
22.756
21
-2.338
31
56.219
12
22.822
22
-1.561
32
55.674
13
22.862
23
-0.78
33
56.219
0
3DFACE
8
Faces
10
23.072
20
-1.578
30
56.765
11
23.005
21
-2.364
31
56.219
12
23.072
22
-1.578
32
55.674
13
23.112
23
-0.789
33
56.219
0
3DFACE
8
Faces
10
23.072
20
-1.578
30
56.765
11
23.005
21
-2.364
31
56.219
12
23.072
22
-1.578
32
55.674
13
23.112
23
-0.789
33
56.219
0
3DFACE
8
Faces
10
23.321
20
-1.595
30
56.765
11
23.253
21
-2.39
31
56.219
12
23.321
22
-1.595
32
55.674
13
23.362
23
-0.797
33
56.219
0
3DFACE
8
Faces
10
23.321
20
-1.595
30
56.765
11
23.253
21
-2.39
31
56.219
12
23.321
22
-1.595
32
55.674
13
23.362
23
-0.797
33
56.219
0
3DFACE
8
Faces
10
23.621
20
-1.615
30
56.765
11
23.552
21
-2.42
31
56.219
12
23.621
22
-1.615
32
55.674
13
23.662
23
-0.807
33
56.219
0
3DFACE
8
Faces
10
22.463
20
0.768
30
56.219
11
22.476
21
0.0
31
57.129
12
22.463
22
-0.766
32
56.219
13
22.476
23
0.0
33
55.674
0
3DFACE
8
Faces
10
22.862
20
0.782
30
56.219
11
22.876
21
0.0
31
57.129
12
22.862
22
-0.78
32
56.219
13
22.876
23
0.0
33
55.674
0
3DFACE
8
Faces
10
22.862
20
0.782
30
56.219
11
22.876
21
0.0
31
57.129
12
22.862
22
-0.78
32
56.219
13
22.876
23
0.0
33
55.674
0
3DFACE
8
Faces
10
23.112
20
0.79
30
56.219
11
23.126
21
0.0
31
57.129
12
23.112
22
-0.789
32
56.219
13
23.126
23
0.0
33
55.674
0
3DFACE
8
Faces
10
23.112
20
0.79
30
56.219
11
23.126
21
0.0
31
57.129
12
23.112
22
-0.789
32
56.219
13
23.126
23
0.0
33
55.674
0
3DFACE
8
Faces
10
23.362
20
0.799
30
56.219
11
23.376
21
0.0
31
57.129
12
23.362
22
-0.797
32
56.219
13
23.376
23
0.0
33
55.674
0
3DFACE
8
Faces
10
23.362
20
0.799
30
56.219
11
23.376
21
0.0
31
57.129
12
23.362
22
-0.797
32
56.219
13
23.376
23
0.0
33
55.674
0
3DFACE
8
Faces
10
23.662
20
0.809
30
56.219
11
23.676
21
0.0
31
57.129
12
23.662
22
-0.807
32
56.219
13
23.676
23
0.0
33
55.674
0
3DFACE
8
Faces
10
22.423
20
1.534
30
56.765
11
22.473
21
0.384
31
57.584
12
22.476
22
0.0
32
57.129
13
22.463
23
0.768
33
56.219
0
3DFACE
8
Faces
10
22.822
20
1.561
30
56.765
11
22.872
21
0.391
31
57.584
12
22.876
22
0.0
32
57.129
13
22.862
23
0.782
33
56.219
0
3DFACE
8
Faces
10
22.822
20
1.561
30
56.765
11
22.872
21
0.391
31
57.584
12
22.876
22
0.0
32
57.129
13
22.862
23
0.782
33
56.219
0
3DFACE
8
Faces
10
23.072
20
1.579
30
56.765
11
23.122
21
0.395
31
57.584
12
23.126
22
0.0
32
57.129
13
23.112
23
0.79
33
56.219
0
3DFACE
8
Faces
10
23.072
20
1.579
30
56.765
11
23.122
21
0.395
31
57.584
12
23.126
22
0.0
32
57.129
13
23.112
23
0.79
33
56.219
0
3DFACE
8
Faces
10
23.321
20
1.596
30
56.765
11
23.372
21
0.4
31
57.584
12
23.376
22
0.0
32
57.129
13
23.362
23
0.799
33
56.219
0
3DFACE
8
Faces
10
23.321
20
1.596
30
56.765
11
23.372
21
0.4
31
57.584
12
23.376
22
0.0
32
57.129
13
23.362
23
0.799
33
56.219
0
3DFACE
8
Faces
10
23.621
20
1.616
30
56.765
11
23.672
21
0.405
31
57.584
12
23.676
22
0.0
32
57.129
13
23.662
23
0.809
33
56.219
0
3DFACE
8
Faces
10
22.473
20
0.384
30
57.584
11
22.476
21
0.0
31
57.857
12
22.473
22
-0.384
32
57.584
13
22.476
23
0.0
33
57.129
0
3DFACE
8
Faces
10
22.872
20
0.391
30
57.584
11
22.876
21
0.0
31
57.857
12
22.872
22
-0.39
32
57.584
13
22.876
23
0.0
33
57.129
0
3DFACE
8
Faces
10
22.872
20
0.391
30
57.584
11
22.876
21
0.0
31
57.857
12
22.872
22
-0.39
32
57.584
13
22.876
23
0.0
33
57.129
0
3DFACE
8
Faces
10
23.122
20
0.395
30
57.584
11
23.126
21
0.0
31
57.857
12
23.122
22
-0.395
32
57.584
13
23.126
23
0.0
33
57.129
0
3DFACE
8
Faces
10
23.122
20
0.395
30
57.584
11
23.126
21
0.0
31
57.857
12
23.122
22
-0.395
32
57.584
13
23.126
23
0.0
33
57.129
0
3DFACE
8
Faces
10
23.372
20
0.4
30
57.584
11
23.376
21
0.0
31
57.857
12
23.372
22
-0.399
32
57.584
13
23.376
23
0.0
33
57.129
0
3DFACE
8
Faces
10
23.372
20
0.4
30
57.584
11
23.376
21
0.0
31
57.857
12
23.372
22
-0.399
32
57.584
13
23.376
23
0.0
33
57.129
0
3DFACE
8
Faces
10
23.672
20
0.405
30
57.584
11
23.676
21
0.0
31
57.857
12
23.672
22
-0.404
32
57.584
13
23.676
23
0.0
33
57.129
0
3DFACE
8
Faces
10
22.423
20
1.534
30
58.948
11
22.423
21
-1.533
31
58.948
12
22.476
22
0.0
32
57.857
13
22.476
23
0.0
33
57.857
0
3DFACE
8
Faces
10
22.822
20
1.561
30
58.948
11
22.822
21
-1.561
31
58.948
12
22.876
22
0.0
32
57.857
13
22.876
23
0.0
33
57.857
0
3DFACE
8
Faces
10
22.822
20
1.561
30
58.948
11
22.822
21
-1.561
31
58.948
12
22.876
22
0.0
32
57.857
13
22.876
23
0.0
33
57.857
0
3DFACE
8
Faces
10
23.072
20
1.579
30
58.948
11
23.072
21
-1.578
31
58.948
12
23.126
22
0.0
32
57.857
13
23.126
23
0.0
33
57.857
0
3DFACE
8
Faces
10
23.072
20
1.579
30
58.948
11
23.072
21
-1.578
31
58.948
12
23.126
22
0.0
32
57.857
13
23.126
23
0.0
33
57.857
0
3DFACE
8
Faces
10
23.321
20
1.596
30
58.948
11
23.321
21
-1.595
31
58.948
12
23.376
22
0.0
32
57.857
13
23.376
23
0.0
33
57.857
0
3DFACE
8
Faces
10
23.321
20
1.596
30
58.948
11
23.321
21
-1.595
31
58.948
12
23.376
22
0.0
32
57.857
13
23.376
23
0.0
33
57.857
0
3DFACE
8
Faces
10
23.621
20
1.616
30
58.948
11
23.621
21
-1.615
31
58.948
12
23.676
22
0.0
32
57.857
13
23.676
23
0.0
33
57.857
0
3DFACE
8
Faces
10
22.423
20
1.534
30
58.948
11
22.476
21
0.0
31
57.857
12
22.473
22
0.384
32
57.584
13
22.473
23
0.384
33
57.584
0
3DFACE
8
Faces
10
22.822
20
1.561
30
58.948
11
22.876
21
0.0
31
57.857
12
22.872
22
0.391
32
57.584
13
22.872
23
0.391
33
57.584
0
3DFACE
8
Faces
10
22.822
20
1.561
30
58.948
11
22.876
21
0.0
31
57.857
12
22.872
22
0.391
32
57.584
13
22.872
23
0.391
33
57.584
0
3DFACE
8
Faces
10
23.072
20
1.579
30
58.948
11
23.126
21
0.0
31
57.857
12
23.122
22
0.395
32
57.584
13
23.122
23
0.395
33
57.584
0
3DFACE
8
Faces
10
23.072
20
1.579
30
58.948
11
23.126
21
0.0
31
57.857
12
23.122
22
0.395
32
57.584
13
23.122
23
0.395
33
57.584
0
3DFACE
8
Faces
10
23.321
20
1.596
30
58.948
11
23.376
21
0.0
31
57.857
12
23.372
22
0.4
32
57.584
13
23.372
23
0.4
33
57.584
0
3DFACE
8
Faces
10
23.321
20
1.596
30
58.948
11
23.376
21
0.0
31
57.857
12
23.372
22
0.4
32
57.584
13
23.372
23
0.4
33
57.584
0
3DFACE
8
Faces
10
23.621
20
1.616
30
58.948
11
23.676
21
0.0
31
57.857
12
23.672
22
0.405
32
57.584
13
23.672
23
0.405
33
57.584
0
3DFACE
8
Faces
10
22.423
20
-1.533
30
58.948
11
22.473
21
-0.384
31
57.584
12
22.476
22
0.0
32
57.857
13
22.476
23
0.0
33
57.857
0
3DFACE
8
Faces
10
22.822
20
-1.561
30
58.948
11
22.872
21
-0.39
31
57.584
12
22.876
22
0.0
32
57.857
13
22.876
23
0.0
33
57.857
0
3DFACE
8
Faces
10
22.822
20
-1.561
30
58.948
11
22.872
21
-0.39
31
57.584
12
22.876
22
0.0
32
57.857
13
22.876
23
0.0
33
57.857
0
3DFACE
8
Faces
10
23.072
20
-1.578
30
58.948
11
23.122
21
-0.395
31
57.584
12
23.126
22
0.0
32
57.857
13
23.126
23
0.0
33
57.857
0
3DFACE
8
Faces
10
23.072
20
-1.578
30
58.948
11
23.122
21
-0.395
31
57.584
12
23.126
22
0.0
32
57.857
13
23.126
23
0.0
33
57.857
0
3DFACE
8
Faces
10
23.321
20
-1.595
30
58.948
11
23.372
21
-0.399
31
57.584
12
23.376
22
0.0
32
57.857
13
23.376
23
0.0
33
57.857
0
3DFACE
8
Faces
10
23.321
20
-1.595
30
58.948
11
23.372
21
-0.399
31
57.584
12
23.376
22
0.0
32
57.857
13
23.376
23
0.0
33
57.857
0
3DFACE
8
Faces
10
23.621
20
-1.615
30
58.948
11
23.672
21
-0.404
31
57.584
12
23.676
22
0.0
32
57.857
13
23.676
23
0.0
33
57.857
0
3DFACE
8
Faces
10
22.358
20
2.299
30
56.219
11
22.423
21
1.534
31
55.674
12
22.358
22
2.299
32
55.128
13
22.266
23
3.06
33
55.674
0
3DFACE
8
Faces
10
22.756
20
2.34
30
56.219
11
22.822
21
1.561
31
55.674
12
22.756
22
2.34
32
55.128
13
22.663
23
3.115
33
55.674
0
3DFACE
8
Faces
10
22.756
20
2.34
30
56.219
11
22.822
21
1.561
31
55.674
12
22.756
22
2.34
32
55.128
13
22.663
23
3.115
33
55.674
0
3DFACE
8
Faces
10
23.005
20
2.365
30
56.219
11
23.072
21
1.578
31
55.674
12
23.005
22
2.365
32
55.128
13
22.91
23
3.149
33
55.674
0
3DFACE
8
Faces
10
23.005
20
2.365
30
56.219
11
23.072
21
1.578
31
55.674
12
23.005
22
2.365
32
55.128
13
22.91
23
3.149
33
55.674
0
3DFACE
8
Faces
10
23.253
20
2.391
30
56.219
11
23.321
21
1.595
31
55.674
12
23.253
22
2.391
32
55.128
13
23.158
23
3.183
33
55.674
0
3DFACE
8
Faces
10
23.253
20
2.391
30
56.219
11
23.321
21
1.595
31
55.674
12
23.253
22
2.391
32
55.128
13
23.158
23
3.183
33
55.674
0
3DFACE
8
Faces
10
23.552
20
2.422
30
56.219
11
23.621
21
1.616
31
55.674
12
23.552
22
2.422
32
55.128
13
23.455
23
3.224
33
55.674
0
3DFACE
8
Faces
10
22.149
20
3.819
30
56.219
11
22.266
21
3.06
31
55.674
12
22.149
22
3.819
32
55.128
13
22.006
23
4.573
33
55.674
0
3DFACE
8
Faces
10
22.543
20
3.887
30
56.219
11
22.663
21
3.115
31
55.674
12
22.543
22
3.887
32
55.128
13
22.397
23
4.654
33
55.674
0
3DFACE
8
Faces
10
22.543
20
3.887
30
56.219
11
22.663
21
3.115
31
55.674
12
22.543
22
3.887
32
55.128
13
22.397
23
4.654
33
55.674
0
3DFACE
8
Faces
10
22.789
20
3.93
30
56.219
11
22.91
21
3.149
31
55.674
12
22.789
22
3.93
32
55.128
13
22.642
23
4.705
33
55.674
0
3DFACE
8
Faces
10
22.789
20
3.93
30
56.219
11
22.91
21
3.149
31
55.674
12
22.789
22
3.93
32
55.128
13
22.642
23
4.705
33
55.674
0
3DFACE
8
Faces
10
23.036
20
3.972
30
56.219
11
23.158
21
3.183
31
55.674
12
23.036
22
3.972
32
55.128
13
22.887
23
4.756
33
55.674
0
3DFACE
8
Faces
10
23.036
20
3.972
30
56.219
11
23.158
21
3.183
31
55.674
12
23.036
22
3.972
32
55.128
13
22.887
23
4.756
33
55.674
0
3DFACE
8
Faces
10
23.331
20
4.023
30
56.219
11
23.455
21
3.224
31
55.674
12
23.331
22
4.023
32
55.128
13
23.181
23
4.817
33
55.674
0
3DFACE
8
Faces
10
21.837
20
5.322
30
56.219
11
22.006
21
4.573
31
55.674
12
21.837
22
5.322
32
55.128
13
21.642
23
6.064
33
55.674
0
3DFACE
8
Faces
10
22.225
20
5.417
30
56.219
11
22.397
21
4.654
31
55.674
12
22.225
22
5.417
32
55.128
13
22.027
23
6.172
33
55.674
0
3DFACE
8
Faces
10
22.225
20
5.417
30
56.219
11
22.397
21
4.654
31
55.674
12
22.225
22
5.417
32
55.128
13
22.027
23
6.172
33
55.674
0
3DFACE
8
Faces
10
22.468
20
5.476
30
56.219
11
22.642
21
4.705
31
55.674
12
22.468
22
5.476
32
55.128
13
22.268
23
6.239
33
55.674
0
3DFACE
8
Faces
10
22.468
20
5.476
30
56.219
11
22.642
21
4.705
31
55.674
12
22.468
22
5.476
32
55.128
13
22.268
23
6.239
33
55.674
0
3DFACE
8
Faces
10
22.711
20
5.535
30
56.219
11
22.887
21
4.756
31
55.674
12
22.711
22
5.535
32
55.128
13
22.509
23
6.307
33
55.674
0
3DFACE
8
Faces
10
22.711
20
5.535
30
56.219
11
22.887
21
4.756
31
55.674
12
22.711
22
5.535
32
55.128
13
22.509
23
6.307
33
55.674
0
3DFACE
8
Faces
10
23.002
20
5.606
30
56.219
11
23.181
21
4.817
31
55.674
12
23.002
22
5.606
32
55.128
13
22.798
23
6.388
33
55.674
0
3DFACE
8
Faces
10
21.423
20
6.8
30
56.219
11
21.642
21
6.064
31
55.674
12
21.423
22
6.8
32
55.128
13
21.178
23
7.527
33
55.674
0
3DFACE
8
Faces
10
21.804
20
6.921
30
56.219
11
22.027
21
6.172
31
55.674
12
21.804
22
6.921
32
55.128
13
21.555
23
7.661
33
55.674
0
3DFACE
8
Faces
10
21.804
20
6.921
30
56.219
11
22.027
21
6.172
31
55.674
12
21.804
22
6.921
32
55.128
13
21.555
23
7.661
33
55.674
0
3DFACE
8
Faces
10
22.042
20
6.996
30
56.219
11
22.268
21
6.239
31
55.674
12
22.042
22
6.996
32
55.128
13
21.791
23
7.744
33
55.674
0
3DFACE
8
Faces
10
22.042
20
6.996
30
56.219
11
22.268
21
6.239
31
55.674
12
22.042
22
6.996
32
55.128
13
21.791
23
7.744
33
55.674
0
3DFACE
8
Faces
10
22.28
20
7.072
30
56.219
11
22.509
21
6.307
31
55.674
12
22.28
22
7.072
32
55.128
13
22.026
23
7.828
33
55.674
0
3DFACE
8
Faces
10
22.28
20
7.072
30
56.219
11
22.509
21
6.307
31
55.674
12
22.28
22
7.072
32
55.128
13
22.026
23
7.828
33
55.674
0
3DFACE
8
Faces
10
22.566
20
7.163
30
56.219
11
22.798
21
6.388
31
55.674
12
22.566
22
7.163
32
55.128
13
22.309
23
7.929
33
55.674
0
3DFACE
8
Faces
10
22.358
20
-2.298
30
56.219
11
22.267
21
-3.06
31
55.673
12
22.358
22
-2.298
32
55.128
13
22.423
23
-1.533
33
55.673
0
3DFACE
8
Faces
10
22.756
20
-2.338
30
56.219
11
22.663
21
-3.115
31
55.673
12
22.756
22
-2.338
32
55.128
13
22.822
23
-1.561
33
55.673
0
3DFACE
8
Faces
10
22.756
20
-2.338
30
56.219
11
22.663
21
-3.115
31
55.673
12
22.756
22
-2.338
32
55.128
13
22.822
23
-1.561
33
55.673
0
3DFACE
8
Faces
10
23.005
20
-2.364
30
56.219
11
22.91
21
-3.149
31
55.673
12
23.005
22
-2.364
32
55.128
13
23.072
23
-1.578
33
55.673
0
3DFACE
8
Faces
10
23.005
20
-2.364
30
56.219
11
22.91
21
-3.149
31
55.673
12
23.005
22
-2.364
32
55.128
13
23.072
23
-1.578
33
55.673
0
3DFACE
8
Faces
10
23.253
20
-2.39
30
56.219
11
23.158
21
-3.183
31
55.673
12
23.253
22
-2.39
32
55.128
13
23.321
23
-1.595
33
55.673
0
3DFACE
8
Faces
10
23.253
20
-2.39
30
56.219
11
23.158
21
-3.183
31
55.673
12
23.253
22
-2.39
32
55.128
13
23.321
23
-1.595
33
55.673
0
3DFACE
8
Faces
10
23.552
20
-2.42
30
56.219
11
23.455
21
-3.223
31
55.673
12
23.552
22
-2.42
32
55.128
13
23.621
23
-1.615
33
55.673
0
3DFACE
8
Faces
10
22.463
20
-0.766
30
56.219
11
22.423
21
-1.533
31
55.673
12
22.463
22
-0.766
32
55.128
13
22.476
23
0.0
33
55.673
0
3DFACE
8
Faces
10
22.862
20
-0.78
30
56.219
11
22.822
21
-1.561
31
55.673
12
22.862
22
-0.78
32
55.128
13
22.876
23
0.0
33
55.673
0
3DFACE
8
Faces
10
22.862
20
-0.78
30
56.219
11
22.822
21
-1.561
31
55.673
12
22.862
22
-0.78
32
55.128
13
22.876
23
0.0
33
55.673
0
3DFACE
8
Faces
10
23.112
20
-0.789
30
56.219
11
23.072
21
-1.578
31
55.673
12
23.112
22
-0.789
32
55.128
13
23.126
23
0.0
33
55.673
0
3DFACE
8
Faces
10
23.112
20
-0.789
30
56.219
11
23.072
21
-1.578
31
55.673
12
23.112
22
-0.789
32
55.128
13
23.126
23
0.0
33
55.673
0
3DFACE
8
Faces
10
23.362
20
-0.797
30
56.219
11
23.321
21
-1.595
31
55.673
12
23.362
22
-0.797
32
55.128
13
23.376
23
0.0
33
55.673
0
3DFACE
8
Faces
10
23.362
20
-0.797
30
56.219
11
23.321
21
-1.595
31
55.673
12
23.362
22
-0.797
32
55.128
13
23.376
23
0.0
33
55.673
0
3DFACE
8
Faces
10
23.662
20
-0.807
30
56.219
11
23.621
21
-1.615
31
55.673
12
23.662
22
-0.807
32
55.128
13
23.676
23
0.0
33
55.673
0
3DFACE
8
Faces
10
22.463
20
0.768
30
56.219
11
22.476
21
0.0
31
55.673
12
22.463
22
0.768
32
55.128
13
22.423
23
1.534
33
55.673
0
3DFACE
8
Faces
10
22.862
20
0.782
30
56.219
11
22.876
21
0.0
31
55.673
12
22.862
22
0.782
32
55.128
13
22.822
23
1.561
33
55.673
0
3DFACE
8
Faces
10
22.862
20
0.782
30
56.219
11
22.876
21
0.0
31
55.673
12
22.862
22
0.782
32
55.128
13
22.822
23
1.561
33
55.673
0
3DFACE
8
Faces
10
23.112
20
0.79
30
56.219
11
23.126
21
0.0
31
55.673
12
23.112
22
0.79
32
55.128
13
23.072
23
1.579
33
55.673
0
3DFACE
8
Faces
10
23.112
20
0.79
30
56.219
11
23.126
21
0.0
31
55.673
12
23.112
22
0.79
32
55.128
13
23.072
23
1.579
33
55.673
0
3DFACE
8
Faces
10
23.362
20
0.799
30
56.219
11
23.376
21
0.0
31
55.673
12
23.362
22
0.799
32
55.128
13
23.321
23
1.596
33
55.673
0
3DFACE
8
Faces
10
23.362
20
0.799
30
56.219
11
23.376
21
0.0
31
55.673
12
23.362
22
0.799
32
55.128
13
23.321
23
1.596
33
55.673
0
3DFACE
8
Faces
10
23.662
20
0.809
30
56.219
11
23.676
21
0.0
31
55.673
12
23.662
22
0.809
32
55.128
13
23.621
23
1.616
33
55.673
0
3DFACE
8
Faces
10
22.266
20
3.06
30
55.674
11
22.358
21
2.299
31
55.128
12
22.266
22
3.06
32
54.582
13
22.149
23
3.819
33
55.128
0
3DFACE
8
Faces
10
22.663
20
3.115
30
55.674
11
22.756
21
2.34
31
55.128
12
22.663
22
3.115
32
54.582
13
22.543
23
3.887
33
55.128
0
3DFACE
8
Faces
10
22.663
20
3.115
30
55.674
11
22.756
21
2.34
31
55.128
12
22.663
22
3.115
32
54.582
13
22.543
23
3.887
33
55.128
0
3DFACE
8
Faces
10
22.91
20
3.149
30
55.674
11
23.005
21
2.365
31
55.128
12
22.91
22
3.149
32
54.582
13
22.789
23
3.93
33
55.128
0
3DFACE
8
Faces
10
22.91
20
3.149
30
55.674
11
23.005
21
2.365
31
55.128
12
22.91
22
3.149
32
54.582
13
22.789
23
3.93
33
55.128
0
3DFACE
8
Faces
10
23.158
20
3.183
30
55.674
11
23.253
21
2.391
31
55.128
12
23.158
22
3.183
32
54.582
13
23.036
23
3.972
33
55.128
0
3DFACE
8
Faces
10
23.158
20
3.183
30
55.674
11
23.253
21
2.391
31
55.128
12
23.158
22
3.183
32
54.582
13
23.036
23
3.972
33
55.128
0
3DFACE
8
Faces
10
23.455
20
3.224
30
55.674
11
23.552
21
2.422
31
55.128
12
23.455
22
3.224
32
54.582
13
23.331
23
4.023
33
55.128
0
3DFACE
8
Faces
10
22.006
20
4.573
30
55.674
11
22.149
21
3.819
31
55.128
12
22.006
22
4.573
32
54.582
13
21.837
23
5.322
33
55.128
0
3DFACE
8
Faces
10
22.397
20
4.654
30
55.674
11
22.543
21
3.887
31
55.128
12
22.397
22
4.654
32
54.582
13
22.225
23
5.417
33
55.128
0
3DFACE
8
Faces
10
22.397
20
4.654
30
55.674
11
22.543
21
3.887
31
55.128
12
22.397
22
4.654
32
54.582
13
22.225
23
5.417
33
55.128
0
3DFACE
8
Faces
10
22.642
20
4.705
30
55.674
11
22.789
21
3.93
31
55.128
12
22.642
22
4.705
32
54.582
13
22.468
23
5.476
33
55.128
0
3DFACE
8
Faces
10
22.642
20
4.705
30
55.674
11
22.789
21
3.93
31
55.128
12
22.642
22
4.705
32
54.582
13
22.468
23
5.476
33
55.128
0
3DFACE
8
Faces
10
22.887
20
4.756
30
55.674
11
23.036
21
3.972
31
55.128
12
22.887
22
4.756
32
54.582
13
22.711
23
5.535
33
55.128
0
3DFACE
8
Faces
10
22.887
20
4.756
30
55.674
11
23.036
21
3.972
31
55.128
12
22.887
22
4.756
32
54.582
13
22.711
23
5.535
33
55.128
0
3DFACE
8
Faces
10
23.181
20
4.817
30
55.674
11
23.331
21
4.023
31
55.128
12
23.181
22
4.817
32
54.582
13
23.002
23
5.606
33
55.128
0
3DFACE
8
Faces
10
21.642
20
6.064
30
55.674
11
21.837
21
5.322
31
55.128
12
21.642
22
6.064
32
54.582
13
21.423
23
6.8
33
55.128
0
3DFACE
8
Faces
10
22.027
20
6.172
30
55.674
11
22.225
21
5.417
31
55.128
12
22.027
22
6.172
32
54.582
13
21.804
23
6.921
33
55.128
0
3DFACE
8
Faces
10
22.027
20
6.172
30
55.674
11
22.225
21
5.417
31
55.128
12
22.027
22
6.172
32
54.582
13
21.804
23
6.921
33
55.128
0
3DFACE
8
Faces
10
22.268
20
6.239
30
55.674
11
22.468
21
5.476
31
55.128
12
22.268
22
6.239
32
54.582
13
22.042
23
6.996
33
55.128
0
3DFACE
8
Faces
10
22.268
20
6.239
30
55.674
11
22.468
21
5.476
31
55.128
12
22.268
22
6.239
32
54.582
13
22.042
23
6.996
33
55.128
0
3DFACE
8
Faces
10
22.509
20
6.307
30
55.674
11
22.711
21
5.535
31
55.128
12
22.509
22
6.307
32
54.582
13
22.28
23
7.072
33
55.128
0
3DFACE
8
Faces
10
22.509
20
6.307
30
55.674
11
22.711
21
5.535
31
55.128
12
22.509
22
6.307
32
54.582
13
22.28
23
7.072
33
55.128
0
3DFACE
8
Faces
10
22.798
20
6.388
30
55.674
11
23.002
21
5.606
31
55.128
12
22.798
22
6.388
32
54.582
13
22.566
23
7.163
33
55.128
0
3DFACE
8
Faces
10
21.178
20
7.527
30
55.674
11
21.423
21
6.8
31
55.128
12
21.178
22
7.527
32
54.582
13
20.909
23
8.246
33
55.128
0
3DFACE
8
Faces
10
21.555
20
7.661
30
55.674
11
21.804
21
6.921
31
55.128
12
21.555
22
7.661
32
54.582
13
21.281
23
8.393
33
55.128
0
3DFACE
8
Faces
10
21.555
20
7.661
30
55.674
11
21.804
21
6.921
31
55.128
12
21.555
22
7.661
32
54.582
13
21.281
23
8.393
33
55.128
0
3DFACE
8
Faces
10
21.791
20
7.744
30
55.674
11
22.042
21
6.996
31
55.128
12
21.791
22
7.744
32
54.582
13
21.513
23
8.484
33
55.128
0
3DFACE
8
Faces
10
21.791
20
7.744
30
55.674
11
22.042
21
6.996
31
55.128
12
21.791
22
7.744
32
54.582
13
21.513
23
8.484
33
55.128
0
3DFACE
8
Faces
10
22.026
20
7.828
30
55.674
11
22.28
21
7.072
31
55.128
12
22.026
22
7.828
32
54.582
13
21.746
23
8.576
33
55.128
0
3DFACE
8
Faces
10
22.026
20
7.828
30
55.674
11
22.28
21
7.072
31
55.128
12
22.026
22
7.828
32
54.582
13
21.746
23
8.576
33
55.128
0
3DFACE
8
Faces
10
22.309
20
7.929
30
55.674
11
22.566
21
7.163
31
55.128
12
22.309
22
7.929
32
54.582
13
22.025
23
8.686
33
55.128
0
3DFACE
8
Faces
10
22.423
20
-1.533
30
55.673
11
22.358
21
-2.298
31
55.128
12
22.423
22
-1.533
32
54.582
13
22.463
23
-0.766
33
55.128
0
3DFACE
8
Faces
10
22.822
20
-1.561
30
55.673
11
22.756
21
-2.338
31
55.128
12
22.822
22
-1.561
32
54.582
13
22.862
23
-0.78
33
55.128
0
3DFACE
8
Faces
10
22.822
20
-1.561
30
55.673
11
22.756
21
-2.338
31
55.128
12
22.822
22
-1.561
32
54.582
13
22.862
23
-0.78
33
55.128
0
3DFACE
8
Faces
10
23.072
20
-1.578
30
55.673
11
23.005
21
-2.364
31
55.128
12
23.072
22
-1.578
32
54.582
13
23.112
23
-0.789
33
55.128
0
3DFACE
8
Faces
10
23.072
20
-1.578
30
55.673
11
23.005
21
-2.364
31
55.128
12
23.072
22
-1.578
32
54.582
13
23.112
23
-0.789
33
55.128
0
3DFACE
8
Faces
10
23.321
20
-1.595
30
55.673
11
23.253
21
-2.39
31
55.128
12
23.321
22
-1.595
32
54.582
13
23.362
23
-0.797
33
55.128
0
3DFACE
8
Faces
10
23.321
20
-1.595
30
55.673
11
23.253
21
-2.39
31
55.128
12
23.321
22
-1.595
32
54.582
13
23.362
23
-0.797
33
55.128
0
3DFACE
8
Faces
10
23.621
20
-1.615
30
55.673
11
23.552
21
-2.42
31
55.128
12
23.621
22
-1.615
32
54.582
13
23.662
23
-0.807
33
55.128
0
3DFACE
8
Faces
10
22.476
20
0.0
30
55.673
11
22.463
21
-0.766
31
55.128
12
22.476
22
0.0
32
54.582
13
22.463
23
0.768
33
55.128
0
3DFACE
8
Faces
10
22.876
20
0.0
30
55.673
11
22.862
21
-0.78
31
55.128
12
22.876
22
0.0
32
54.582
13
22.862
23
0.782
33
55.128
0
3DFACE
8
Faces
10
22.876
20
0.0
30
55.673
11
22.862
21
-0.78
31
55.128
12
22.876
22
0.0
32
54.582
13
22.862
23
0.782
33
55.128
0
3DFACE
8
Faces
10
23.126
20
0.0
30
55.673
11
23.112
21
-0.789
31
55.128
12
23.126
22
0.0
32
54.582
13
23.112
23
0.79
33
55.128
0
3DFACE
8
Faces
10
23.126
20
0.0
30
55.673
11
23.112
21
-0.789
31
55.128
12
23.126
22
0.0
32
54.582
13
23.112
23
0.79
33
55.128
0
3DFACE
8
Faces
10
23.376
20
0.0
30
55.673
11
23.362
21
-0.797
31
55.128
12
23.376
22
0.0
32
54.582
13
23.362
23
0.799
33
55.128
0
3DFACE
8
Faces
10
23.376
20
0.0
30
55.673
11
23.362
21
-0.797
31
55.128
12
23.376
22
0.0
32
54.582
13
23.362
23
0.799
33
55.128
0
3DFACE
8
Faces
10
23.676
20
0.0
30
55.673
11
23.662
21
-0.807
31
55.128
12
23.676
22
0.0
32
54.582
13
23.662
23
0.809
33
55.128
0
3DFACE
8
Faces
10
22.358
20
2.299
30
55.128
11
22.423
21
1.534
31
54.582
12
22.358
22
2.299
32
54.036
13
22.266
23
3.06
33
54.582
0
3DFACE
8
Faces
10
22.756
20
2.34
30
55.128
11
22.822
21
1.561
31
54.582
12
22.756
22
2.34
32
54.036
13
22.663
23
3.115
33
54.582
0
3DFACE
8
Faces
10
22.756
20
2.34
30
55.128
11
22.822
21
1.561
31
54.582
12
22.756
22
2.34
32
54.036
13
22.663
23
3.115
33
54.582
0
3DFACE
8
Faces
10
23.005
20
2.365
30
55.128
11
23.072
21
1.578
31
54.582
12
23.005
22
2.365
32
54.036
13
22.91
23
3.149
33
54.582
0
3DFACE
8
Faces
10
23.005
20
2.365
30
55.128
11
23.072
21
1.578
31
54.582
12
23.005
22
2.365
32
54.036
13
22.91
23
3.149
33
54.582
0
3DFACE
8
Faces
10
23.253
20
2.391
30
55.128
11
23.321
21
1.595
31
54.582
12
23.253
22
2.391
32
54.036
13
23.158
23
3.183
33
54.582
0
3DFACE
8
Faces
10
23.253
20
2.391
30
55.128
11
23.321
21
1.595
31
54.582
12
23.253
22
2.391
32
54.036
13
23.158
23
3.183
33
54.582
0
3DFACE
8
Faces
10
23.552
20
2.422
30
55.128
11
23.621
21
1.616
31
54.582
12
23.552
22
2.422
32
54.036
13
23.455
23
3.224
33
54.582
0
3DFACE
8
Faces
10
22.149
20
3.819
30
55.128
11
22.266
21
3.06
31
54.582
12
22.149
22
3.819
32
54.036
13
22.006
23
4.573
33
54.582
0
3DFACE
8
Faces
10
22.543
20
3.887
30
55.128
11
22.663
21
3.115
31
54.582
12
22.543
22
3.887
32
54.036
13
22.397
23
4.654
33
54.582
0
3DFACE
8
Faces
10
22.543
20
3.887
30
55.128
11
22.663
21
3.115
31
54.582
12
22.543
22
3.887
32
54.036
13
22.397
23
4.654
33
54.582
0
3DFACE
8
Faces
10
22.789
20
3.93
30
55.128
11
22.91
21
3.149
31
54.582
12
22.789
22
3.93
32
54.036
13
22.642
23
4.705
33
54.582
0
3DFACE
8
Faces
10
22.789
20
3.93
30
55.128
11
22.91
21
3.149
31
54.582
12
22.789
22
3.93
32
54.036
13
22.642
23
4.705
33
54.582
0
3DFACE
8
Faces
10
23.036
20
3.972
30
55.128
11
23.158
21
3.183
31
54.582
12
23.036
22
3.972
32
54.036
13
22.887
23
4.756
33
54.582
0
3DFACE
8
Faces
10
23.036
20
3.972
30
55.128
11
23.158
21
3.183
31
54.582
12
23.036
22
3.972
32
54.036
13
22.887
23
4.756
33
54.582
0
3DFACE
8
Faces
10
23.331
20
4.023
30
55.128
11
23.455
21
3.224
31
54.582
12
23.331
22
4.023
32
54.036
13
23.181
23
4.817
33
54.582
0
3DFACE
8
Faces
10
21.837
20
5.322
30
55.128
11
22.006
21
4.573
31
54.582
12
21.837
22
5.322
32
54.036
13
21.642
23
6.064
33
54.582
0
3DFACE
8
Faces
10
22.225
20
5.417
30
55.128
11
22.397
21
4.654
31
54.582
12
22.225
22
5.417
32
54.036
13
22.027
23
6.172
33
54.582
0
3DFACE
8
Faces
10
22.225
20
5.417
30
55.128
11
22.397
21
4.654
31
54.582
12
22.225
22
5.417
32
54.036
13
22.027
23
6.172
33
54.582
0
3DFACE
8
Faces
10
22.468
20
5.476
30
55.128
11
22.642
21
4.705
31
54.582
12
22.468
22
5.476
32
54.036
13
22.268
23
6.239
33
54.582
0
3DFACE
8
Faces
10
22.468
20
5.476
30
55.128
11
22.642
21
4.705
31
54.582
12
22.468
22
5.476
32
54.036
13
22.268
23
6.239
33
54.582
0
3DFACE
8
Faces
10
22.711
20
5.535
30
55.128
11
22.887
21
4.756
31
54.582
12
22.711
22
5.535
32
54.036
13
22.509
23
6.307
33
54.582
0
3DFACE
8
Faces
10
22.711
20
5.535
30
55.128
11
22.887
21
4.756
31
54.582
12
22.711
22
5.535
32
54.036
13
22.509
23
6.307
33
54.582
0
3DFACE
8
Faces
10
23.002
20
5.606
30
55.128
11
23.181
21
4.817
31
54.582
12
23.002
22
5.606
32
54.036
13
22.798
23
6.388
33
54.582
0
3DFACE
8
Faces
10
21.423
20
6.8
30
55.128
11
21.642
21
6.064
31
54.582
12
21.423
22
6.8
32
54.036
13
21.178
23
7.527
33
54.582
0
3DFACE
8
Faces
10
21.804
20
6.921
30
55.128
11
22.027
21
6.172
31
54.582
12
21.804
22
6.921
32
54.036
13
21.555
23
7.661
33
54.582
0
3DFACE
8
Faces
10
21.804
20
6.921
30
55.128
11
22.027
21
6.172
31
54.582
12
21.804
22
6.921
32
54.036
13
21.555
23
7.661
33
54.582
0
3DFACE
8
Faces
10
22.042
20
6.996
30
55.128
11
22.268
21
6.239
31
54.582
12
22.042
22
6.996
32
54.036
13
21.791
23
7.744
33
54.582
0
3DFACE
8
Faces
10
22.042
20
6.996
30
55.128
11
22.268
21
6.239
31
54.582
12
22.042
22
6.996
32
54.036
13
21.791
23
7.744
33
54.582
0
3DFACE
8
Faces
10
22.28
20
7.072
30
55.128
11
22.509
21
6.307
31
54.582
12
22.28
22
7.072
32
54.036
13
22.026
23
7.828
33
54.582
0
3DFACE
8
Faces
10
22.28
20
7.072
30
55.128
11
22.509
21
6.307
31
54.582
12
22.28
22
7.072
32
54.036
13
22.026
23
7.828
33
54.582
0
3DFACE
8
Faces
10
22.566
20
7.163
30
55.128
11
22.798
21
6.388
31
54.582
12
22.566
22
7.163
32
54.036
13
22.309
23
7.929
33
54.582
0
3DFACE
8
Faces
10
22.358
20
-2.298
30
55.128
11
22.267
21
-3.06
31
54.582
12
22.358
22
-2.298
32
54.036
13
22.423
23
-1.533
33
54.582
0
3DFACE
8
Faces
10
22.756
20
-2.338
30
55.128
11
22.663
21
-3.115
31
54.582
12
22.756
22
-2.338
32
54.036
13
22.822
23
-1.561
33
54.582
0
3DFACE
8
Faces
10
22.756
20
-2.338
30
55.128
11
22.663
21
-3.115
31
54.582
12
22.756
22
-2.338
32
54.036
13
22.822
23
-1.561
33
54.582
0
3DFACE
8
Faces
10
23.005
20
-2.364
30
55.128
11
22.91
21
-3.149
31
54.582
12
23.005
22
-2.364
32
54.036
13
23.072
23
-1.578
33
54.582
0
3DFACE
8
Faces
10
23.005
20
-2.364
30
55.128
11
22.91
21
-3.149
31
54.582
12
23.005
22
-2.364
32
54.036
13
23.072
23
-1.578
33
54.582
0
3DFACE
8
Faces
10
23.253
20
-2.39
30
55.128
11
23.158
21
-3.183
31
54.582
12
23.253
22
-2.39
32
54.036
13
23.321
23
-1.595
33
54.582
0
3DFACE
8
Faces
10
23.253
20
-2.39
30
55.128
11
23.158
21
-3.183
31
54.582
12
23.253
22
-2.39
32
54.036
13
23.321
23
-1.595
33
54.582
0
3DFACE
8
Faces
10
23.552
20
-2.42
30
55.128
11
23.455
21
-3.223
31
54.582
12
23.552
22
-2.42
32
54.036
13
23.621
23
-1.615
33
54.582
0
3DFACE
8
Faces
10
22.463
20
-0.766
30
55.128
11
22.423
21
-1.533
31
54.582
12
22.463
22
-0.766
32
54.036
13
22.476
23
0.0
33
54.582
0
3DFACE
8
Faces
10
22.862
20
-0.78
30
55.128
11
22.822
21
-1.561
31
54.582
12
22.862
22
-0.78
32
54.036
13
22.876
23
0.0
33
54.582
0
3DFACE
8
Faces
10
22.862
20
-0.78
30
55.128
11
22.822
21
-1.561
31
54.582
12
22.862
22
-0.78
32
54.036
13
22.876
23
0.0
33
54.582
0
3DFACE
8
Faces
10
23.112
20
-0.789
30
55.128
11
23.072
21
-1.578
31
54.582
12
23.112
22
-0.789
32
54.036
13
23.126
23
0.0
33
54.582
0
3DFACE
8
Faces
10
23.112
20
-0.789
30
55.128
11
23.072
21
-1.578
31
54.582
12
23.112
22
-0.789
32
54.036
13
23.126
23
0.0
33
54.582
0
3DFACE
8
Faces
10
23.362
20
-0.797
30
55.128
11
23.321
21
-1.595
31
54.582
12
23.362
22
-0.797
32
54.036
13
23.376
23
0.0
33
54.582
0
3DFACE
8
Faces
10
23.362
20
-0.797
30
55.128
11
23.321
21
-1.595
31
54.582
12
23.362
22
-0.797
32
54.036
13
23.376
23
0.0
33
54.582
0
3DFACE
8
Faces
10
23.662
20
-0.807
30
55.128
11
23.621
21
-1.615
31
54.582
12
23.662
22
-0.807
32
54.036
13
23.676
23
0.0
33
54.582
0
3DFACE
8
Faces
10
22.266
20
3.06
30
54.582
11
22.358
21
2.299
31
54.036
12
22.266
22
3.06
32
53.49
13
22.149
23
3.819
33
54.036
0
3DFACE
8
Faces
10
22.663
20
3.115
30
54.582
11
22.756
21
2.34
31
54.036
12
22.663
22
3.115
32
53.49
13
22.543
23
3.887
33
54.036
0
3DFACE
8
Faces
10
22.663
20
3.115
30
54.582
11
22.756
21
2.34
31
54.036
12
22.663
22
3.115
32
53.49
13
22.543
23
3.887
33
54.036
0
3DFACE
8
Faces
10
22.91
20
3.149
30
54.582
11
23.005
21
2.365
31
54.036
12
22.91
22
3.149
32
53.49
13
22.789
23
3.93
33
54.036
0
3DFACE
8
Faces
10
22.91
20
3.149
30
54.582
11
23.005
21
2.365
31
54.036
12
22.91
22
3.149
32
53.49
13
22.789
23
3.93
33
54.036
0
3DFACE
8
Faces
10
23.158
20
3.183
30
54.582
11
23.253
21
2.391
31
54.036
12
23.158
22
3.183
32
53.49
13
23.036
23
3.972
33
54.036
0
3DFACE
8
Faces
10
23.158
20
3.183
30
54.582
11
23.253
21
2.391
31
54.036
12
23.158
22
3.183
32
53.49
13
23.036
23
3.972
33
54.036
0
3DFACE
8
Faces
10
23.455
20
3.224
30
54.582
11
23.552
21
2.422
31
54.036
12
23.455
22
3.224
32
53.49
13
23.331
23
4.023
33
54.036
0
3DFACE
8
Faces
10
22.006
20
4.573
30
54.582
11
22.149
21
3.819
31
54.036
12
22.006
22
4.573
32
53.49
13
21.837
23
5.322
33
54.036
0
3DFACE
8
Faces
10
22.397
20
4.654
30
54.582
11
22.543
21
3.887
31
54.036
12
22.397
22
4.654
32
53.49
13
22.225
23
5.417
33
54.036
0
3DFACE
8
Faces
10
22.397
20
4.654
30
54.582
11
22.543
21
3.887
31
54.036
12
22.397
22
4.654
32
53.49
13
22.225
23
5.417
33
54.036
0
3DFACE
8
Faces
10
22.642
20
4.705
30
54.582
11
22.789
21
3.93
31
54.036
12
22.642
22
4.705
32
53.49
13
22.468
23
5.476
33
54.036
0
3DFACE
8
Faces
10
22.642
20
4.705
30
54.582
11
22.789
21
3.93
31
54.036
12
22.642
22
4.705
32
53.49
13
22.468
23
5.476
33
54.036
0
3DFACE
8
Faces
10
22.887
20
4.756
30
54.582
11
23.036
21
3.972
31
54.036
12
22.887
22
4.756
32
53.49
13
22.711
23
5.535
33
54.036
0
3DFACE
8
Faces
10
22.887
20
4.756
30
54.582
11
23.036
21
3.972
31
54.036
12
22.887
22
4.756
32
53.49
13
22.711
23
5.535
33
54.036
0
3DFACE
8
Faces
10
23.181
20
4.817
30
54.582
11
23.331
21
4.023
31
54.036
12
23.181
22
4.817
32
53.49
13
23.002
23
5.606
33
54.036
0
3DFACE
8
Faces
10
21.642
20
6.064
30
54.582
11
21.837
21
5.322
31
54.036
12
21.642
22
6.064
32
53.49
13
21.423
23
6.8
33
54.036
0
3DFACE
8
Faces
10
22.027
20
6.172
30
54.582
11
22.225
21
5.417
31
54.036
12
22.027
22
6.172
32
53.49
13
21.804
23
6.921
33
54.036
0
3DFACE
8
Faces
10
22.027
20
6.172
30
54.582
11
22.225
21
5.417
31
54.036
12
22.027
22
6.172
32
53.49
13
21.804
23
6.921
33
54.036
0
3DFACE
8
Faces
10
22.268
20
6.239
30
54.582
11
22.468
21
5.476
31
54.036
12
22.268
22
6.239
32
53.49
13
22.042
23
6.996
33
54.036
0
3DFACE
8
Faces
10
22.268
20
6.239
30
54.582
11
22.468
21
5.476
31
54.036
12
22.268
22
6.239
32
53.49
13
22.042
23
6.996
33
54.036
0
3DFACE
8
Faces
10
22.509
20
6.307
30
54.582
11
22.711
21
5.535
31
54.036
12
22.509
22
6.307
32
53.49
13
22.28
23
7.072
33
54.036
0
3DFACE
8
Faces
10
22.509
20
6.307
30
54.582
11
22.711
21
5.535
31
54.036
12
22.509
22
6.307
32
53.49
13
22.28
23
7.072
33
54.036
0
3DFACE
8
Faces
10
22.798
20
6.388
30
54.582
11
23.002
21
5.606
31
54.036
12
22.798
22
6.388
32
53.49
13
22.566
23
7.163
33
54.036
0
3DFACE
8
Faces
10
21.178
20
7.527
30
54.582
11
21.423
21
6.8
31
54.036
12
21.178
22
7.527
32
53.49
13
20.909
23
8.246
33
54.036
0
3DFACE
8
Faces
10
21.555
20
7.661
30
54.582
11
21.804
21
6.921
31
54.036
12
21.555
22
7.661
32
53.49
13
21.281
23
8.393
33
54.036
0
3DFACE
8
Faces
10
21.555
20
7.661
30
54.582
11
21.804
21
6.921
31
54.036
12
21.555
22
7.661
32
53.49
13
21.281
23
8.393
33
54.036
0
3DFACE
8
Faces
10
21.791
20
7.744
30
54.582
11
22.042
21
6.996
31
54.036
12
21.791
22
7.744
32
53.49
13
21.513
23
8.484
33
54.036
0
3DFACE
8
Faces
10
21.791
20
7.744
30
54.582
11
22.042
21
6.996
31
54.036
12
21.791
22
7.744
32
53.49
13
21.513
23
8.484
33
54.036
0
3DFACE
8
Faces
10
22.026
20
7.828
30
54.582
11
22.28
21
7.072
31
54.036
12
22.026
22
7.828
32
53.49
13
21.746
23
8.576
33
54.036
0
3DFACE
8
Faces
10
22.026
20
7.828
30
54.582
11
22.28
21
7.072
31
54.036
12
22.026
22
7.828
32
53.49
13
21.746
23
8.576
33
54.036
0
3DFACE
8
Faces
10
22.309
20
7.929
30
54.582
11
22.566
21
7.163
31
54.036
12
22.309
22
7.929
32
53.49
13
22.025
23
8.686
33
54.036
0
3DFACE
8
Faces
10
22.423
20
-1.533
30
54.582
11
22.358
21
-2.298
31
54.036
12
22.423
22
-1.533
32
53.49
13
22.463
23
-0.766
33
54.036
0
3DFACE
8
Faces
10
22.822
20
-1.561
30
54.582
11
22.756
21
-2.338
31
54.036
12
22.822
22
-1.561
32
53.49
13
22.862
23
-0.78
33
54.036
0
3DFACE
8
Faces
10
22.822
20
-1.561
30
54.582
11
22.756
21
-2.338
31
54.036
12
22.822
22
-1.561
32
53.49
13
22.862
23
-0.78
33
54.036
0
3DFACE
8
Faces
10
23.072
20
-1.578
30
54.582
11
23.005
21
-2.364
31
54.036
12
23.072
22
-1.578
32
53.49
13
23.112
23
-0.789
33
54.036
0
3DFACE
8
Faces
10
23.072
20
-1.578
30
54.582
11
23.005
21
-2.364
31
54.036
12
23.072
22
-1.578
32
53.49
13
23.112
23
-0.789
33
54.036
0
3DFACE
8
Faces
10
23.321
20
-1.595
30
54.582
11
23.253
21
-2.39
31
54.036
12
23.321
22
-1.595
32
53.49
13
23.362
23
-0.797
33
54.036
0
3DFACE
8
Faces
10
23.321
20
-1.595
30
54.582
11
23.253
21
-2.39
31
54.036
12
23.321
22
-1.595
32
53.49
13
23.362
23
-0.797
33
54.036
0
3DFACE
8
Faces
10
23.621
20
-1.615
30
54.582
11
23.552
21
-2.42
31
54.036
12
23.621
22
-1.615
32
53.49
13
23.662
23
-0.807
33
54.036
0
3DFACE
8
Faces
10
22.476
20
0.0
30
54.582
11
22.463
21
-0.766
31
54.036
12
22.476
22
0.0
32
53.49
13
22.463
23
0.768
33
54.036
0
3DFACE
8
Faces
10
22.876
20
0.0
30
54.582
11
22.862
21
-0.78
31
54.036
12
22.876
22
0.0
32
53.49
13
22.862
23
0.782
33
54.036
0
3DFACE
8
Faces
10
22.876
20
0.0
30
54.582
11
22.862
21
-0.78
31
54.036
12
22.876
22
0.0
32
53.49
13
22.862
23
0.782
33
54.036
0
3DFACE
8
Faces
10
23.126
20
0.0
30
54.582
11
23.112
21
-0.789
31
54.036
12
23.126
22
0.0
32
53.49
13
23.112
23
0.79
33
54.036
0
3DFACE
8
Faces
10
23.126
20
0.0
30
54.582
11
23.112
21
-0.789
31
54.036
12
23.126
22
0.0
32
53.49
13
23.112
23
0.79
33
54.036
0
3DFACE
8
Faces
10
23.376
20
0.0
30
54.582
11
23.362
21
-0.797
31
54.036
12
23.376
22
0.0
32
53.49
13
23.362
23
0.799
33
54.036
0
3DFACE
8
Faces
10
23.376
20
0.0
30
54.582
11
23.362
21
-0.797
31
54.036
12
23.376
22
0.0
32
53.49
13
23.362
23
0.799
33
54.036
0
3DFACE
8
Faces
10
23.676
20
0.0
30
54.582
11
23.662
21
-0.807
31
54.036
12
23.676
22
0.0
32
53.49
13
23.662
23
0.809
33
54.036
0
3DFACE
8
Faces
10
22.358
20
2.299
30
54.036
11
22.423
21
1.534
31
53.49
12
22.358
22
2.299
32
52.944
13
22.266
23
3.06
33
53.49
0
3DFACE
8
Faces
10
22.756
20
2.34
30
54.036
11
22.822
21
1.561
31
53.49
12
22.756
22
2.34
32
52.944
13
22.663
23
3.115
33
53.49
0
3DFACE
8
Faces
10
22.756
20
2.34
30
54.036
11
22.822
21
1.561
31
53.49
12
22.756
22
2.34
32
52.944
13
22.663
23
3.115
33
53.49
0
3DFACE
8
Faces
10
23.005
20
2.365
30
54.036
11
23.072
21
1.578
31
53.49
12
23.005
22
2.365
32
52.944
13
22.91
23
3.149
33
53.49
0
3DFACE
8
Faces
10
23.005
20
2.365
30
54.036
11
23.072
21
1.578
31
53.49
12
23.005
22
2.365
32
52.944
13
22.91
23
3.149
33
53.49
0
3DFACE
8
Faces
10
23.253
20
2.391
30
54.036
11
23.321
21
1.595
31
53.49
12
23.253
22
2.391
32
52.944
13
23.158
23
3.183
33
53.49
0
3DFACE
8
Faces
10
23.253
20
2.391
30
54.036
11
23.321
21
1.595
31
53.49
12
23.253
22
2.391
32
52.944
13
23.158
23
3.183
33
53.49
0
3DFACE
8
Faces
10
23.552
20
2.422
30
54.036
11
23.621
21
1.616
31
53.49
12
23.552
22
2.422
32
52.944
13
23.455
23
3.224
33
53.49
0
3DFACE
8
Faces
10
22.149
20
3.819
30
54.036
11
22.266
21
3.06
31
53.49
12
22.149
22
3.819
32
52.944
13
22.006
23
4.573
33
53.49
0
3DFACE
8
Faces
10
22.543
20
3.887
30
54.036
11
22.663
21
3.115
31
53.49
12
22.543
22
3.887
32
52.944
13
22.397
23
4.654
33
53.49
0
3DFACE
8
Faces
10
22.543
20
3.887
30
54.036
11
22.663
21
3.115
31
53.49
12
22.543
22
3.887
32
52.944
13
22.397
23
4.654
33
53.49
0
3DFACE
8
Faces
10
22.789
20
3.93
30
54.036
11
22.91
21
3.149
31
53.49
12
22.789
22
3.93
32
52.944
13
22.642
23
4.705
33
53.49
0
3DFACE
8
Faces
10
22.789
20
3.93
30
54.036
11
22.91
21
3.149
31
53.49
12
22.789
22
3.93
32
52.944
13
22.642
23
4.705
33
53.49
0
3DFACE
8
Faces
10
23.036
20
3.972
30
54.036
11
23.158
21
3.183
31
53.49
12
23.036
22
3.972
32
52.944
13
22.887
23
4.756
33
53.49
0
3DFACE
8
Faces
10
23.036
20
3.972
30
54.036
11
23.158
21
3.183
31
53.49
12
23.036
22
3.972
32
52.944
13
22.887
23
4.756
33
53.49
0
3DFACE
8
Faces
10
23.331
20
4.023
30
54.036
11
23.455
21
3.224
31
53.49
12
23.331
22
4.023
32
52.944
13
23.181
23
4.817
33
53.49
0
3DFACE
8
Faces
10
21.837
20
5.322
30
54.036
11
22.006
21
4.573
31
53.49
12
21.837
22
5.322
32
52.944
13
21.642
23
6.064
33
53.49
0
3DFACE
8
Faces
10
22.225
20
5.417
30
54.036
11
22.397
21
4.654
31
53.49
12
22.225
22
5.417
32
52.944
13
22.027
23
6.172
33
53.49
0
3DFACE
8
Faces
10
22.225
20
5.417
30
54.036
11
22.397
21
4.654
31
53.49
12
22.225
22
5.417
32
52.944
13
22.027
23
6.172
33
53.49
0
3DFACE
8
Faces
10
22.468
20
5.476
30
54.036
11
22.642
21
4.705
31
53.49
12
22.468
22
5.476
32
52.944
13
22.268
23
6.239
33
53.49
0
3DFACE
8
Faces
10
22.468
20
5.476
30
54.036
11
22.642
21
4.705
31
53.49
12
22.468
22
5.476
32
52.944
13
22.268
23
6.239
33
53.49
0
3DFACE
8
Faces
10
22.711
20
5.535
30
54.036
11
22.887
21
4.756
31
53.49
12
22.711
22
5.535
32
52.944
13
22.509
23
6.307
33
53.49
0
3DFACE
8
Faces
10
22.711
20
5.535
30
54.036
11
22.887
21
4.756
31
53.49
12
22.711
22
5.535
32
52.944
13
22.509
23
6.307
33
53.49
0
3DFACE
8
Faces
10
23.002
20
5.606
30
54.036
11
23.181
21
4.817
31
53.49
12
23.002
22
5.606
32
52.944
13
22.798
23
6.388
33
53.49
0
3DFACE
8
Faces
10
21.423
20
6.8
30
54.036
11
21.642
21
6.064
31
53.49
12
21.423
22
6.8
32
52.944
13
21.178
23
7.527
33
53.49
0
3DFACE
8
Faces
10
21.804
20
6.921
30
54.036
11
22.027
21
6.172
31
53.49
12
21.804
22
6.921
32
52.944
13
21.555
23
7.661
33
53.49
0
3DFACE
8
Faces
10
21.804
20
6.921
30
54.036
11
22.027
21
6.172
31
53.49
12
21.804
22
6.921
32
52.944
13
21.555
23
7.661
33
53.49
0
3DFACE
8
Faces
10
22.042
20
6.996
30
54.036
11
22.268
21
6.239
31
53.49
12
22.042
22
6.996
32
52.944
13
21.791
23
7.744
33
53.49
0
3DFACE
8
Faces
10
22.042
20
6.996
30
54.036
11
22.268
21
6.239
31
53.49
12
22.042
22
6.996
32
52.944
13
21.791
23
7.744
33
53.49
0
3DFACE
8
Faces
10
22.28
20
7.072
30
54.036
11
22.509
21
6.307
31
53.49
12
22.28
22
7.072
32
52.944
13
22.026
23
7.828
33
53.49
0
3DFACE
8
Faces
10
22.28
20
7.072
30
54.036
11
22.509
21
6.307
31
53.49
12
22.28
22
7.072
32
52.944
13
22.026
23
7.828
33
53.49
0
3DFACE
8
Faces
10
22.566
20
7.163
30
54.036
11
22.798
21
6.388
31
53.49
12
22.566
22
7.163
32
52.944
13
22.309
23
7.929
33
53.49
0
3DFACE
8
Faces
10
22.358
20
-2.298
30
54.036
11
22.267
21
-3.06
31
53.49
12
22.358
22
-2.298
32
52.944
13
22.423
23
-1.533
33
53.49
0
3DFACE
8
Faces
10
22.756
20
-2.338
30
54.036
11
22.663
21
-3.115
31
53.49
12
22.756
22
-2.338
32
52.944
13
22.822
23
-1.561
33
53.49
0
3DFACE
8
Faces
10
22.756
20
-2.338
30
54.036
11
22.663
21
-3.115
31
53.49
12
22.756
22
-2.338
32
52.944
13
22.822
23
-1.561
33
53.49
0
3DFACE
8
Faces
10
23.005
20
-2.364
30
54.036
11
22.91
21
-3.149
31
53.49
12
23.005
22
-2.364
32
52.944
13
23.072
23
-1.578
33
53.49
0
3DFACE
8
Faces
10
23.005
20
-2.364
30
54.036
11
22.91
21
-3.149
31
53.49
12
23.005
22
-2.364
32
52.944
13
23.072
23
-1.578
33
53.49
0
3DFACE
8
Faces
10
23.253
20
-2.39
30
54.036
11
23.158
21
-3.183
31
53.49
12
23.253
22
-2.39
32
52.944
13
23.321
23
-1.595
33
53.49
0
3DFACE
8
Faces
10
23.253
20
-2.39
30
54.036
11
23.158
21
-3.183
31
53.49
12
23.253
22
-2.39
32
52.944
13
23.321
23
-1.595
33
53.49
0
3DFACE
8
Faces
10
23.552
20
-2.42
30
54.036
11
23.455
21
-3.223
31
53.49
12
23.552
22
-2.42
32
52.944
13
23.621
23
-1.615
33
53.49
0
3DFACE
8
Faces
10
22.463
20
-0.766
30
54.036
11
22.423
21
-1.533
31
53.49
12
22.463
22
-0.766
32
52.944
13
22.476
23
0.0
33
53.49
0
3DFACE
8
Faces
10
22.862
20
-0.78
30
54.036
11
22.822
21
-1.561
31
53.49
12
22.862
22
-0.78
32
52.944
13
22.876
23
0.0
33
53.49
0
3DFACE
8
Faces
10
22.862
20
-0.78
30
54.036
11
22.822
21
-1.561
31
53.49
12
22.862
22
-0.78
32
52.944
13
22.876
23
0.0
33
53.49
0
3DFACE
8
Faces
10
23.112
20
-0.789
30
54.036
11
23.072
21
-1.578
31
53.49
12
23.112
22
-0.789
32
52.944
13
23.126
23
0.0
33
53.49
0
3DFACE
8
Faces
10
23.112
20
-0.789
30
54.036
11
23.072
21
-1.578
31
53.49
12
23.112
22
-0.789
32
52.944
13
23.126
23
0.0
33
53.49
0
3DFACE
8
Faces
10
23.362
20
-0.797
30
54.036
11
23.321
21
-1.595
31
53.49
12
23.362
22
-0.797
32
52.944
13
23.376
23
0.0
33
53.49
0
3DFACE
8
Faces
10
23.362
20
-0.797
30
54.036
11
23.321
21
-1.595
31
53.49
12
23.362
22
-0.797
32
52.944
13
23.376
23
0.0
33
53.49
0
3DFACE
8
Faces
10
23.662
20
-0.807
30
54.036
11
23.621
21
-1.615
31
53.49
12
23.662
22
-0.807
32
52.944
13
23.676
23
0.0
33
53.49
0
3DFACE
8
Faces
10
22.463
20
0.768
30
55.128
11
22.476
21
0.0
31
54.582
12
22.463
22
0.768
32
54.036
13
22.423
23
1.534
33
54.582
0
3DFACE
8
Faces
10
22.862
20
0.782
30
55.128
11
22.876
21
0.0
31
54.582
12
22.862
22
0.782
32
54.036
13
22.822
23
1.561
33
54.582
0
3DFACE
8
Faces
10
22.862
20
0.782
30
55.128
11
22.876
21
0.0
31
54.582
12
22.862
22
0.782
32
54.036
13
22.822
23
1.561
33
54.582
0
3DFACE
8
Faces
10
23.112
20
0.79
30
55.128
11
23.126
21
0.0
31
54.582
12
23.112
22
0.79
32
54.036
13
23.072
23
1.579
33
54.582
0
3DFACE
8
Faces
10
23.112
20
0.79
30
55.128
11
23.126
21
0.0
31
54.582
12
23.112
22
0.79
32
54.036
13
23.072
23
1.579
33
54.582
0
3DFACE
8
Faces
10
23.362
20
0.799
30
55.128
11
23.376
21
0.0
31
54.582
12
23.362
22
0.799
32
54.036
13
23.321
23
1.596
33
54.582
0
3DFACE
8
Faces
10
23.362
20
0.799
30
55.128
11
23.376
21
0.0
31
54.582
12
23.362
22
0.799
32
54.036
13
23.321
23
1.596
33
54.582
0
3DFACE
8
Faces
10
23.662
20
0.809
30
55.128
11
23.676
21
0.0
31
54.582
12
23.662
22
0.809
32
54.036
13
23.621
23
1.616
33
54.582
0
3DFACE
8
Faces
10
22.463
20
0.768
30
54.036
11
22.476
21
0.0
31
53.49
12
22.463
22
0.768
32
52.944
13
22.423
23
1.534
33
53.49
0
3DFACE
8
Faces
10
22.862
20
0.782
30
54.036
11
22.876
21
0.0
31
53.49
12
22.862
22
0.782
32
52.944
13
22.822
23
1.561
33
53.49
0
3DFACE
8
Faces
10
22.862
20
0.782
30
54.036
11
22.876
21
0.0
31
53.49
12
22.862
22
0.782
32
52.944
13
22.822
23
1.561
33
53.49
0
3DFACE
8
Faces
10
23.112
20
0.79
30
54.036
11
23.126
21
0.0
31
53.49
12
23.112
22
0.79
32
52.944
13
23.072
23
1.579
33
53.49
0
3DFACE
8
Faces
10
23.112
20
0.79
30
54.036
11
23.126
21
0.0
31
53.49
12
23.112
22
0.79
32
52.944
13
23.072
23
1.579
33
53.49
0
3DFACE
8
Faces
10
23.362
20
0.799
30
54.036
11
23.376
21
0.0
31
53.49
12
23.362
22
0.799
32
52.944
13
23.321
23
1.596
33
53.49
0
3DFACE
8
Faces
10
23.362
20
0.799
30
54.036
11
23.376
21
0.0
31
53.49
12
23.362
22
0.799
32
52.944
13
23.321
23
1.596
33
53.49
0
3DFACE
8
Faces
10
23.662
20
0.809
30
54.036
11
23.676
21
0.0
31
53.49
12
23.662
22
0.809
32
52.944
13
23.621
23
1.616
33
53.49
0
3DFACE
8
Faces
10
22.423
20
1.534
30
58.948
11
22.473
21
0.384
31
57.584
12
22.423
22
1.534
32
56.765
13
22.315
23
2.68
33
57.584
0
3DFACE
8
Faces
10
22.822
20
1.561
30
58.948
11
22.872
21
0.391
31
57.584
12
22.822
22
1.561
32
56.765
13
22.713
23
2.727
33
57.584
0
3DFACE
8
Faces
10
22.822
20
1.561
30
58.948
11
22.872
21
0.391
31
57.584
12
22.822
22
1.561
32
56.765
13
22.713
23
2.727
33
57.584
0
3DFACE
8
Faces
10
23.072
20
1.578
30
58.948
11
23.122
21
0.395
31
57.584
12
23.072
22
1.578
32
56.765
13
22.961
23
2.757
33
57.584
0
3DFACE
8
Faces
10
23.072
20
1.578
30
58.948
11
23.122
21
0.395
31
57.584
12
23.072
22
1.578
32
56.765
13
22.961
23
2.757
33
57.584
0
3DFACE
8
Faces
10
23.321
20
1.595
30
58.948
11
23.372
21
0.399
31
57.584
12
23.321
22
1.595
32
56.765
13
23.209
23
2.787
33
57.584
0
3DFACE
8
Faces
10
23.321
20
1.595
30
58.948
11
23.372
21
0.399
31
57.584
12
23.321
22
1.595
32
56.765
13
23.209
23
2.787
33
57.584
0
3DFACE
8
Faces
10
23.621
20
1.616
30
58.948
11
23.672
21
0.404
31
57.584
12
23.621
22
1.616
32
56.765
13
23.507
23
2.823
33
57.584
0
3DFACE
8
Faces
10
22.423
20
1.534
30
56.765
11
22.463
21
0.768
31
56.219
12
22.423
22
1.534
32
55.674
13
22.358
23
2.299
33
56.219
0
3DFACE
8
Faces
10
22.822
20
1.561
30
56.765
11
22.862
21
0.782
31
56.219
12
22.822
22
1.561
32
55.674
13
22.756
23
2.34
33
56.219
0
3DFACE
8
Faces
10
22.822
20
1.561
30
56.765
11
22.862
21
0.782
31
56.219
12
22.822
22
1.561
32
55.674
13
22.756
23
2.34
33
56.219
0
3DFACE
8
Faces
10
23.072
20
1.578
30
56.765
11
23.112
21
0.79
31
56.219
12
23.072
22
1.578
32
55.674
13
23.005
23
2.365
33
56.219
0
3DFACE
8
Faces
10
23.072
20
1.578
30
56.765
11
23.112
21
0.79
31
56.219
12
23.072
22
1.578
32
55.674
13
23.005
23
2.365
33
56.219
0
3DFACE
8
Faces
10
23.321
20
1.595
30
56.765
11
23.362
21
0.799
31
56.219
12
23.321
22
1.595
32
55.674
13
23.253
23
2.391
33
56.219
0
3DFACE
8
Faces
10
23.321
20
1.595
30
56.765
11
23.362
21
0.799
31
56.219
12
23.321
22
1.595
32
55.674
13
23.253
23
2.391
33
56.219
0
3DFACE
8
Faces
10
23.621
20
1.616
30
56.765
11
23.662
21
0.809
31
56.219
12
23.621
22
1.616
32
55.674
13
23.552
23
2.422
33
56.219
0
3DFACE
8
Faces
10
22.423
20
1.534
30
55.674
11
22.463
21
0.768
31
55.128
12
22.423
22
1.534
32
54.582
13
22.358
23
2.299
33
55.128
0
3DFACE
8
Faces
10
22.822
20
1.561
30
55.674
11
22.862
21
0.782
31
55.128
12
22.822
22
1.561
32
54.582
13
22.756
23
2.34
33
55.128
0
3DFACE
8
Faces
10
22.822
20
1.561
30
55.674
11
22.862
21
0.782
31
55.128
12
22.822
22
1.561
32
54.582
13
22.756
23
2.34
33
55.128
0
3DFACE
8
Faces
10
23.072
20
1.578
30
55.674
11
23.112
21
0.79
31
55.128
12
23.072
22
1.578
32
54.582
13
23.005
23
2.365
33
55.128
0
3DFACE
8
Faces
10
23.072
20
1.578
30
55.674
11
23.112
21
0.79
31
55.128
12
23.072
22
1.578
32
54.582
13
23.005
23
2.365
33
55.128
0
3DFACE
8
Faces
10
23.321
20
1.595
30
55.674
11
23.362
21
0.799
31
55.128
12
23.321
22
1.595
32
54.582
13
23.253
23
2.391
33
55.128
0
3DFACE
8
Faces
10
23.321
20
1.595
30
55.674
11
23.362
21
0.799
31
55.128
12
23.321
22
1.595
32
54.582
13
23.253
23
2.391
33
55.128
0
3DFACE
8
Faces
10
23.621
20
1.616
30
55.674
11
23.662
21
0.809
31
55.128
12
23.621
22
1.616
32
54.582
13
23.552
23
2.422
33
55.128
0
3DFACE
8
Faces
10
22.423
20
1.534
30
54.582
11
22.463
21
0.768
31
54.036
12
22.423
22
1.534
32
53.49
13
22.358
23
2.299
33
54.036
0
3DFACE
8
Faces
10
22.822
20
1.561
30
54.582
11
22.862
21
0.782
31
54.036
12
22.822
22
1.561
32
53.49
13
22.756
23
2.34
33
54.036
0
3DFACE
8
Faces
10
22.822
20
1.561
30
54.582
11
22.862
21
0.782
31
54.036
12
22.822
22
1.561
32
53.49
13
22.756
23
2.34
33
54.036
0
3DFACE
8
Faces
10
23.072
20
1.578
30
54.582
11
23.112
21
0.79
31
54.036
12
23.072
22
1.578
32
53.49
13
23.005
23
2.365
33
54.036
0
3DFACE
8
Faces
10
23.072
20
1.578
30
54.582
11
23.112
21
0.79
31
54.036
12
23.072
22
1.578
32
53.49
13
23.005
23
2.365
33
54.036
0
3DFACE
8
Faces
10
23.321
20
1.595
30
54.582
11
23.362
21
0.799
31
54.036
12
23.321
22
1.595
32
53.49
13
23.253
23
2.391
33
54.036
0
3DFACE
8
Faces
10
23.321
20
1.595
30
54.582
11
23.362
21
0.799
31
54.036
12
23.321
22
1.595
32
53.49
13
23.253
23
2.391
33
54.036
0
3DFACE
8
Faces
10
23.621
20
1.616
30
54.582
11
23.662
21
0.809
31
54.036
12
23.621
22
1.616
32
53.49
13
23.552
23
2.422
33
54.036
0
ENDSEC
0
EOF
