0
SECTION
2
HEADER
9
$ACADVER
1
AC1006
9
$INSBASE
10
0.0
20
0.0
30
0.0
9
$EXTMIN
10
0.0
20
0.0
9
$EXTMAX
10
0.0
20
0.0
0
ENDSEC
0
SECTION
2
TABLES
0
TABLE
2
LTYPE
70
1
0
LTYPE
2
CONTINUOUS
70
64
3
Solid line
72
65
73
0
40
0.0
0
ENDTAB
0
TABLE
2
LAYER
70
1
0
LAYER
2
PYDXF
70
64
62
7
6
continuous
0
ENDTAB
0
TABLE
2
STYLE
70
1
0
STYLE
2
STANDARD
70
0
40
0
41
40
50
50
71
0
42
1
3
ARIAL.TTF
4

0
ENDTAB
0
TABLE
2
VIEW
70
0
0
ENDTAB
0
ENDSEC
0
SECTION
2
BLOCKS
0
ENDSEC
0
SECTION
2
ENTITIES
0
LWPOLYLINE
8
Polylines
70
1
90
4
10
-8.44
20
12.28
30
14.49
10
-8.59
20
11.02
30
15.11
10
-8.12
20
11.44
30
15.2
10
-8.02
20
12.88
30
14.4
0
3DFACE
8
Faces
10
-8.44
20
12.28
30
14.49
11
-8.59
21
11.02
31
15.11
12
-8.12
22
11.44
32
15.2
13
-8.02
23
12.88
33
14.4
0
LWPOLYLINE
8
Polylines
70
1
90
4
10
-8.02
20
12.88
30
14.4
10
-8.12
20
11.44
30
15.2
10
-7.46
20
11.71
30
15.36
10
-7.3
20
13.17
30
14.55
0
3DFACE
8
Faces
10
-8.02
20
12.88
30
14.4
11
-8.12
21
11.44
31
15.2
12
-7.46
22
11.71
32
15.36
13
-7.3
23
13.17
33
14.55
0
LWPOLYLINE
8
Polylines
70
1
90
4
10
-8.59
20
11.02
30
15.11
10
-8.51
20
8.69
30
16.12
10
-8.01
20
9.51
30
16.13
10
-8.12
20
11.44
30
15.2
0
3DFACE
8
Faces
10
-8.59
20
11.02
30
15.11
11
-8.51
21
8.69
31
16.12
12
-8.01
22
9.51
32
16.13
13
-8.12
23
11.44
33
15.2
0
LWPOLYLINE
8
Polylines
70
1
90
4
10
-8.12
20
11.44
30
15.2
10
-8.01
20
9.51
30
16.13
10
-7.51
20
10.26
30
16.04
10
-7.46
20
11.71
30
15.36
0
3DFACE
8
Faces
10
-8.12
20
11.44
30
15.2
11
-8.01
21
9.51
31
16.13
12
-7.51
22
10.26
32
16.04
13
-7.46
23
11.71
33
15.36
0
LWPOLYLINE
8
Polylines
70
1
90
4
10
-6.97
20
0.24
30
18.3
10
-6.36
20
5.41
30
17.97
10
-7.47
20
7.11
30
17.16
10
-8.04
20
5.35
30
17.29
0
3DFACE
8
Faces
10
-6.97
20
0.24
30
18.3
11
-6.36
21
5.41
31
17.97
12
-7.47
22
7.11
32
17.16
13
-8.04
23
5.35
33
17.29
0
LWPOLYLINE
8
Polylines
70
1
90
4
10
-8.04
20
5.35
30
17.29
10
-7.47
20
7.11
30
17.16
10
-8.01
20
9.51
30
16.13
10
-8.51
20
8.69
30
16.12
0
3DFACE
8
Faces
10
-8.04
20
5.35
30
17.29
11
-7.47
21
7.11
31
17.16
12
-8.01
22
9.51
32
16.13
13
-8.51
23
8.69
33
16.12
0
LWPOLYLINE
8
Polylines
70
1
90
4
10
-6.36
20
5.41
30
17.97
10
-5.91
20
8.45
30
17.27
10
-6.94
20
9.31
30
16.63
10
-7.47
20
7.11
30
17.16
0
3DFACE
8
Faces
10
-6.36
20
5.41
30
17.97
11
-5.91
21
8.45
31
17.27
12
-6.94
22
9.31
32
16.63
13
-7.47
23
7.11
33
17.16
0
LWPOLYLINE
8
Polylines
70
1
90
4
10
-7.47
20
7.11
30
17.16
10
-6.94
20
9.31
30
16.63
10
-7.51
20
10.26
30
16.04
10
-8.01
20
9.51
30
16.13
0
3DFACE
8
Faces
10
-7.47
20
7.11
30
17.16
11
-6.94
21
9.31
31
16.63
12
-7.51
22
10.26
32
16.04
13
-8.01
23
9.51
33
16.13
0
LWPOLYLINE
8
Polylines
70
1
90
4
10
-5.08
20
12.35
30
15.65
10
-6.3
20
12.86
30
15.05
10
-6.58
20
11.31
30
15.87
10
-5.45
20
10.75
30
16.45
0
3DFACE
8
Faces
10
-5.08
20
12.35
30
15.65
11
-6.3
21
12.86
31
15.05
12
-6.58
22
11.31
32
15.87
13
-5.45
23
10.75
33
16.45
0
LWPOLYLINE
8
Polylines
70
1
90
4
10
-5.45
20
10.75
30
16.45
10
-6.58
20
11.31
30
15.87
10
-6.94
20
9.31
30
16.63
10
-5.91
20
8.45
30
17.27
0
3DFACE
8
Faces
10
-5.45
20
10.75
30
16.45
11
-6.58
21
11.31
31
15.87
12
-6.94
22
9.31
32
16.63
13
-5.91
23
8.45
33
17.27
0
LWPOLYLINE
8
Polylines
70
1
90
4
10
-6.3
20
12.86
30
15.05
10
-7.3
20
13.17
30
14.55
10
-7.46
20
11.71
30
15.36
10
-6.58
20
11.31
30
15.87
0
3DFACE
8
Faces
10
-6.3
20
12.86
30
15.05
11
-7.3
21
13.17
31
14.55
12
-7.46
22
11.71
32
15.36
13
-6.58
23
11.31
33
15.87
0
LWPOLYLINE
8
Polylines
70
1
90
4
10
-6.58
20
11.31
30
15.87
10
-7.46
20
11.71
30
15.36
10
-7.51
20
10.26
30
16.04
10
-6.94
20
9.31
30
16.63
0
3DFACE
8
Faces
10
-6.58
20
11.31
30
15.87
11
-7.46
21
11.71
31
15.36
12
-7.51
22
10.26
32
16.04
13
-6.94
23
9.31
33
16.63
0
LWPOLYLINE
8
Polylines
70
1
90
4
10
-10.33
20
-10.84
30
14.31
10
-9.76
20
-11.47
30
14.37
10
-9.66
20
-10.14
30
15.11
10
-10.34
20
-9.69
30
14.84
0
3DFACE
8
Faces
10
-10.33
20
-10.84
30
14.31
11
-9.76
21
-11.47
31
14.37
12
-9.66
22
-10.14
32
15.11
13
-10.34
23
-9.69
33
14.84
0
LWPOLYLINE
8
Polylines
70
1
90
4
10
-10.34
20
-9.69
30
14.84
10
-9.66
20
-10.14
30
15.11
10
-9.26
20
-8.37
30
16.01
10
-9.92
20
-7.56
30
15.84
0
3DFACE
8
Faces
10
-10.34
20
-9.69
30
14.84
11
-9.66
21
-10.14
31
15.11
12
-9.26
22
-8.37
32
16.01
13
-9.92
23
-7.56
33
15.84
0
LWPOLYLINE
8
Polylines
70
1
90
4
10
-9.76
20
-11.47
30
14.37
10
-8.7
20
-11.85
30
14.7
10
-8.71
20
-10.48
30
15.44
10
-9.66
20
-10.14
30
15.11
0
3DFACE
8
Faces
10
-9.76
20
-11.47
30
14.37
11
-8.7
21
-11.85
31
14.7
12
-8.71
22
-10.48
32
15.44
13
-9.66
23
-10.14
33
15.11
0
LWPOLYLINE
8
Polylines
70
1
90
4
10
-9.66
20
-10.14
30
15.11
10
-8.71
20
-10.48
30
15.44
10
-8.61
20
-9.12
30
16.05
10
-9.26
20
-8.37
30
16.01
0
3DFACE
8
Faces
10
-9.66
20
-10.14
30
15.11
11
-8.71
21
-10.48
31
15.44
12
-8.61
22
-9.12
32
16.05
13
-9.26
23
-8.37
33
16.01
0
LWPOLYLINE
8
Polylines
70
1
90
4
10
-5.72
20
-11.27
30
16.02
10
-6.02
20
-9.72
30
16.72
10
-7.42
20
-10.19
30
16.09
10
-7.26
20
-11.68
30
15.35
0
3DFACE
8
Faces
10
-5.72
20
-11.27
30
16.02
11
-6.02
21
-9.72
31
16.72
12
-7.42
22
-10.19
32
16.09
13
-7.26
23
-11.68
33
15.35
0
LWPOLYLINE
8
Polylines
70
1
90
4
10
-7.26
20
-11.68
30
15.35
10
-7.42
20
-10.19
30
16.09
10
-8.71
20
-10.48
30
15.44
10
-8.7
20
-11.85
30
14.7
0
3DFACE
8
Faces
10
-7.26
20
-11.68
30
15.35
11
-7.42
21
-10.19
31
16.09
12
-8.71
22
-10.48
32
15.44
13
-8.7
23
-11.85
33
14.7
0
LWPOLYLINE
8
Polylines
70
1
90
4
10
-6.02
20
-9.72
30
16.72
10
-6.38
20
-7.53
30
17.42
10
-7.7
20
-8.27
30
16.73
10
-7.42
20
-10.19
30
16.09
0
3DFACE
8
Faces
10
-6.02
20
-9.72
30
16.72
11
-6.38
21
-7.53
31
17.42
12
-7.7
22
-8.27
32
16.73
13
-7.42
23
-10.19
33
16.09
0
LWPOLYLINE
8
Polylines
70
1
90
4
10
-7.42
20
-10.19
30
16.09
10
-7.7
20
-8.27
30
16.73
10
-8.61
20
-9.12
30
16.05
10
-8.71
20
-10.48
30
15.44
0
3DFACE
8
Faces
10
-7.42
20
-10.19
30
16.09
11
-7.7
21
-8.27
31
16.73
12
-8.61
22
-9.12
32
16.05
13
-8.71
23
-10.48
33
15.44
0
LWPOLYLINE
8
Polylines
70
1
90
4
10
-6.97
20
0.24
30
18.3
10
-8.83
20
-4.49
30
17.13
10
-8.23
20
-6.17
30
17.12
10
-6.74
20
-4.71
30
17.99
0
3DFACE
8
Faces
10
-6.97
20
0.24
30
18.3
11
-8.83
21
-4.49
31
17.13
12
-8.23
22
-6.17
32
17.12
13
-6.74
23
-4.71
33
17.99
0
LWPOLYLINE
8
Polylines
70
1
90
4
10
-6.74
20
-4.71
30
17.99
10
-8.23
20
-6.17
30
17.12
10
-7.7
20
-8.27
30
16.73
10
-6.38
20
-7.53
30
17.42
0
3DFACE
8
Faces
10
-6.74
20
-4.71
30
17.99
11
-8.23
21
-6.17
31
17.12
12
-7.7
22
-8.27
32
16.73
13
-6.38
23
-7.53
33
17.42
0
LWPOLYLINE
8
Polylines
70
1
90
4
10
-8.83
20
-4.49
30
17.13
10
-9.92
20
-7.56
30
15.84
10
-9.26
20
-8.37
30
16.01
10
-8.23
20
-6.17
30
17.12
0
3DFACE
8
Faces
10
-8.83
20
-4.49
30
17.13
11
-9.92
21
-7.56
31
15.84
12
-9.26
22
-8.37
32
16.01
13
-8.23
23
-6.17
33
17.12
0
LWPOLYLINE
8
Polylines
70
1
90
4
10
-8.23
20
-6.17
30
17.12
10
-9.26
20
-8.37
30
16.01
10
-8.61
20
-9.12
30
16.05
10
-7.7
20
-8.27
30
16.73
0
3DFACE
8
Faces
10
-8.23
20
-6.17
30
17.12
11
-9.26
21
-8.37
31
16.01
12
-8.61
22
-9.12
32
16.05
13
-7.7
23
-8.27
33
16.73
0
LWPOLYLINE
8
Polylines
70
1
90
4
10
-5.72
20
-11.27
30
16.02
10
-4.39
20
-11.09
30
16.42
10
-4.8
20
-9.64
30
17.07
10
-6.02
20
-9.72
30
16.72
0
3DFACE
8
Faces
10
-5.72
20
-11.27
30
16.02
11
-4.39
21
-11.09
31
16.42
12
-4.8
22
-9.64
32
17.07
13
-6.02
23
-9.72
33
16.72
0
LWPOLYLINE
8
Polylines
70
1
90
4
10
-6.02
20
-9.72
30
16.72
10
-4.8
20
-9.64
30
17.07
10
-5.14
20
-7.68
30
17.71
10
-6.38
20
-7.53
30
17.42
0
3DFACE
8
Faces
10
-6.02
20
-9.72
30
16.72
11
-4.8
21
-9.64
31
17.07
12
-5.14
22
-7.68
32
17.71
13
-6.38
23
-7.53
33
17.42
0
LWPOLYLINE
8
Polylines
70
1
90
4
10
-4.39
20
-11.09
30
16.42
10
-3.3
20
-10.95
30
16.68
10
-3.76
20
-9.55
30
17.31
10
-4.8
20
-9.64
30
17.07
0
3DFACE
8
Faces
10
-4.39
20
-11.09
30
16.42
11
-3.3
21
-10.95
31
16.68
12
-3.76
22
-9.55
32
17.31
13
-4.8
23
-9.64
33
17.07
0
LWPOLYLINE
8
Polylines
70
1
90
4
10
-4.8
20
-9.64
30
17.07
10
-3.76
20
-9.55
30
17.31
10
-4.25
20
-8.17
30
17.74
10
-5.14
20
-7.68
30
17.71
0
3DFACE
8
Faces
10
-4.8
20
-9.64
30
17.07
11
-3.76
21
-9.55
31
17.31
12
-4.25
22
-8.17
32
17.74
13
-5.14
23
-7.68
33
17.71
0
LWPOLYLINE
8
Polylines
70
1
90
4
10
-1.52
20
-10.27
30
17.18
10
-2.23
20
-8.3
30
17.97
10
-2.99
20
-9.03
30
17.62
10
-2.38
20
-10.64
30
16.94
0
3DFACE
8
Faces
10
-1.52
20
-10.27
30
17.18
11
-2.23
21
-8.3
31
17.97
12
-2.99
22
-9.03
32
17.62
13
-2.38
23
-10.64
33
16.94
0
LWPOLYLINE
8
Polylines
70
1
90
4
10
-2.38
20
-10.64
30
16.94
10
-2.99
20
-9.03
30
17.62
10
-3.76
20
-9.55
30
17.31
10
-3.3
20
-10.95
30
16.68
0
3DFACE
8
Faces
10
-2.38
20
-10.64
30
16.94
11
-2.99
21
-9.03
31
17.62
12
-3.76
22
-9.55
32
17.31
13
-3.3
23
-10.95
33
16.68
0
LWPOLYLINE
8
Polylines
70
1
90
4
10
-2.23
20
-8.3
30
17.97
10
-3.29
20
-5.74
30
18.59
10
-3.93
20
-7.12
30
18.13
10
-2.99
20
-9.03
30
17.62
0
3DFACE
8
Faces
10
-2.23
20
-8.3
30
17.97
11
-3.29
21
-5.74
31
18.59
12
-3.93
22
-7.12
32
18.13
13
-2.99
23
-9.03
33
17.62
0
LWPOLYLINE
8
Polylines
70
1
90
4
10
-2.99
20
-9.03
30
17.62
10
-3.93
20
-7.12
30
18.13
10
-4.25
20
-8.17
30
17.74
10
-3.76
20
-9.55
30
17.31
0
3DFACE
8
Faces
10
-2.99
20
-9.03
30
17.62
11
-3.93
21
-7.12
31
18.13
12
-4.25
22
-8.17
32
17.74
13
-3.76
23
-9.55
33
17.31
0
LWPOLYLINE
8
Polylines
70
1
90
4
10
-6.97
20
0.24
30
18.3
10
-6.74
20
-4.71
30
17.99
10
-5.25
20
-5.33
30
18.3
10
-4.77
20
-2.97
30
18.78
0
3DFACE
8
Faces
10
-6.97
20
0.24
30
18.3
11
-6.74
21
-4.71
31
17.99
12
-5.25
22
-5.33
32
18.3
13
-4.77
23
-2.97
33
18.78
0
LWPOLYLINE
8
Polylines
70
1
90
4
10
-4.77
20
-2.97
30
18.78
10
-5.25
20
-5.33
30
18.3
10
-3.93
20
-7.12
30
18.13
10
-3.29
20
-5.74
30
18.59
0
3DFACE
8
Faces
10
-4.77
20
-2.97
30
18.78
11
-5.25
21
-5.33
31
18.3
12
-3.93
22
-7.12
32
18.13
13
-3.29
23
-5.74
33
18.59
0
LWPOLYLINE
8
Polylines
70
1
90
4
10
-6.74
20
-4.71
30
17.99
10
-6.38
20
-7.53
30
17.42
10
-5.14
20
-7.68
30
17.71
10
-5.25
20
-5.33
30
18.3
0
3DFACE
8
Faces
10
-6.74
20
-4.71
30
17.99
11
-6.38
21
-7.53
31
17.42
12
-5.14
22
-7.68
32
17.71
13
-5.25
23
-5.33
33
18.3
0
LWPOLYLINE
8
Polylines
70
1
90
4
10
-5.25
20
-5.33
30
18.3
10
-5.14
20
-7.68
30
17.71
10
-4.25
20
-8.17
30
17.74
10
-3.93
20
-7.12
30
18.13
0
3DFACE
8
Faces
10
-5.25
20
-5.33
30
18.3
11
-5.14
21
-7.68
31
17.71
12
-4.25
22
-8.17
32
17.74
13
-3.93
23
-7.12
33
18.13
0
LWPOLYLINE
8
Polylines
70
1
90
4
10
-1.52
20
-10.27
30
17.18
10
-0.57
20
-9.93
30
17.36
10
-1.24
20
-7.52
30
18.3
10
-2.23
20
-8.3
30
17.97
0
3DFACE
8
Faces
10
-1.52
20
-10.27
30
17.18
11
-0.57
21
-9.93
31
17.36
12
-1.24
22
-7.52
32
18.3
13
-2.23
23
-8.3
33
17.97
0
LWPOLYLINE
8
Polylines
70
1
90
4
10
-2.23
20
-8.3
30
17.97
10
-1.24
20
-7.52
30
18.3
10
-2.23
20
-4.39
30
18.99
10
-3.29
20
-5.74
30
18.59
0
3DFACE
8
Faces
10
-2.23
20
-8.3
30
17.97
11
-1.24
21
-7.52
31
18.3
12
-2.23
22
-4.39
32
18.99
13
-3.29
23
-5.74
33
18.59
0
LWPOLYLINE
8
Polylines
70
1
90
4
10
-0.57
20
-9.93
30
17.36
10
0.62
20
-9.71
30
17.45
10
0.09
20
-6.85
30
18.52
10
-1.24
20
-7.52
30
18.3
0
3DFACE
8
Faces
10
-0.57
20
-9.93
30
17.36
11
0.62
21
-9.71
31
17.45
12
0.09
22
-6.85
32
18.52
13
-1.24
23
-7.52
33
18.3
0
LWPOLYLINE
8
Polylines
70
1
90
4
10
-1.24
20
-7.52
30
18.3
10
0.09
20
-6.85
30
18.52
10
-0.71
20
-3.13
30
19.28
10
-2.23
20
-4.39
30
18.99
0
3DFACE
8
Faces
10
-1.24
20
-7.52
30
18.3
11
0.09
21
-6.85
31
18.52
12
-0.71
22
-3.13
32
19.28
13
-2.23
23
-4.39
33
18.99
0
LWPOLYLINE
8
Polylines
70
1
90
4
10
4.36
20
-10.19
30
16.82
10
4.26
20
-6.35
30
18.23
10
1.9
20
-6.42
30
18.55
10
2.24
20
-9.79
30
17.31
0
3DFACE
8
Faces
10
4.36
20
-10.19
30
16.82
11
4.26
21
-6.35
31
18.23
12
1.9
22
-6.42
32
18.55
13
2.24
23
-9.79
33
17.31
0
LWPOLYLINE
8
Polylines
70
1
90
4
10
2.24
20
-9.79
30
17.31
10
1.9
20
-6.42
30
18.55
10
0.09
20
-6.85
30
18.52
10
0.62
20
-9.71
30
17.45
0
3DFACE
8
Faces
10
2.24
20
-9.79
30
17.31
11
1.9
21
-6.42
31
18.55
12
0.09
22
-6.85
32
18.52
13
0.62
23
-9.71
33
17.45
0
LWPOLYLINE
8
Polylines
70
1
90
4
10
4.26
20
-6.35
30
18.23
10
3.84
20
-1.32
30
19.1
10
1.28
20
-2.01
30
19.36
10
1.9
20
-6.42
30
18.55
0
3DFACE
8
Faces
10
4.26
20
-6.35
30
18.23
11
3.84
21
-1.32
31
19.1
12
1.28
22
-2.01
32
19.36
13
1.9
23
-6.42
33
18.55
0
LWPOLYLINE
8
Polylines
70
1
90
4
10
1.9
20
-6.42
30
18.55
10
1.28
20
-2.01
30
19.36
10
-0.71
20
-3.13
30
19.28
10
0.09
20
-6.85
30
18.52
0
3DFACE
8
Faces
10
1.9
20
-6.42
30
18.55
11
1.28
21
-2.01
31
19.36
12
-0.71
22
-3.13
32
19.28
13
0.09
23
-6.85
33
18.52
0
LWPOLYLINE
8
Polylines
70
1
90
4
10
1.72
20
9.43
30
17.56
10
-0.54
20
6.81
30
18.55
10
0.45
20
2.77
30
19.33
10
3.03
20
4.17
30
18.91
0
3DFACE
8
Faces
10
1.72
20
9.43
30
17.56
11
-0.54
21
6.81
31
18.55
12
0.45
22
2.77
32
19.33
13
3.03
23
4.17
33
18.91
0
LWPOLYLINE
8
Polylines
70
1
90
4
10
3.03
20
4.17
30
18.91
10
0.45
20
2.77
30
19.33
10
1.28
20
-2.01
30
19.36
10
3.84
20
-1.32
30
19.1
0
3DFACE
8
Faces
10
3.03
20
4.17
30
18.91
11
0.45
21
2.77
31
19.33
12
1.28
22
-2.01
32
19.36
13
3.84
23
-1.32
33
19.1
0
LWPOLYLINE
8
Polylines
70
1
90
4
10
-0.54
20
6.81
30
18.55
10
-2.52
20
4.53
30
18.95
10
-1.65
20
0.9
30
19.41
10
0.45
20
2.77
30
19.33
0
3DFACE
8
Faces
10
-0.54
20
6.81
30
18.55
11
-2.52
21
4.53
31
18.95
12
-1.65
22
0.9
32
19.41
13
0.45
23
2.77
33
19.33
0
LWPOLYLINE
8
Polylines
70
1
90
4
10
0.45
20
2.77
30
19.33
10
-1.65
20
0.9
30
19.41
10
-0.71
20
-3.13
30
19.28
10
1.28
20
-2.01
30
19.36
0
3DFACE
8
Faces
10
0.45
20
2.77
30
19.33
11
-1.65
21
0.9
31
19.41
12
-0.71
22
-3.13
32
19.28
13
1.28
23
-2.01
33
19.36
0
LWPOLYLINE
8
Polylines
70
1
90
4
10
-6.97
20
0.24
30
18.3
10
-4.77
20
-2.97
30
18.78
10
-3.49
20
-0.97
30
19.19
10
-4.5
20
2.47
30
18.9
0
3DFACE
8
Faces
10
-6.97
20
0.24
30
18.3
11
-4.77
21
-2.97
31
18.78
12
-3.49
22
-0.97
32
19.19
13
-4.5
23
2.47
33
18.9
0
LWPOLYLINE
8
Polylines
70
1
90
4
10
-4.5
20
2.47
30
18.9
10
-3.49
20
-0.97
30
19.19
10
-1.65
20
0.9
30
19.41
10
-2.52
20
4.53
30
18.95
0
3DFACE
8
Faces
10
-4.5
20
2.47
30
18.9
11
-3.49
21
-0.97
31
19.19
12
-1.65
22
0.9
32
19.41
13
-2.52
23
4.53
33
18.95
0
LWPOLYLINE
8
Polylines
70
1
90
4
10
-4.77
20
-2.97
30
18.78
10
-3.29
20
-5.74
30
18.59
10
-2.23
20
-4.39
30
18.99
10
-3.49
20
-0.97
30
19.19
0
3DFACE
8
Faces
10
-4.77
20
-2.97
30
18.78
11
-3.29
21
-5.74
31
18.59
12
-2.23
22
-4.39
32
18.99
13
-3.49
23
-0.97
33
19.19
0
LWPOLYLINE
8
Polylines
70
1
90
4
10
-3.49
20
-0.97
30
19.19
10
-2.23
20
-4.39
30
18.99
10
-0.71
20
-3.13
30
19.28
10
-1.65
20
0.9
30
19.41
0
3DFACE
8
Faces
10
-3.49
20
-0.97
30
19.19
11
-2.23
21
-4.39
31
18.99
12
-0.71
22
-3.13
32
19.28
13
-1.65
23
0.9
33
19.41
0
LWPOLYLINE
8
Polylines
70
1
90
4
10
4.36
20
-10.19
30
16.82
10
7.03
20
-10.94
30
15.78
10
7.24
20
-6.69
30
17.33
10
4.26
20
-6.35
30
18.23
0
3DFACE
8
Faces
10
4.36
20
-10.19
30
16.82
11
7.03
21
-10.94
31
15.78
12
7.24
22
-6.69
32
17.33
13
4.26
23
-6.35
33
18.23
0
LWPOLYLINE
8
Polylines
70
1
90
4
10
4.26
20
-6.35
30
18.23
10
7.24
20
-6.69
30
17.33
10
7.05
20
-1.22
30
18.28
10
3.84
20
-1.32
30
19.1
0
3DFACE
8
Faces
10
4.26
20
-6.35
30
18.23
11
7.24
21
-6.69
31
17.33
12
7.05
22
-1.22
32
18.28
13
3.84
23
-1.32
33
19.1
0
LWPOLYLINE
8
Polylines
70
1
90
4
10
7.03
20
-10.94
30
15.78
10
9.73
20
-11.2
30
14.55
10
10.21
20
-6.83
30
16.0
10
7.24
20
-6.69
30
17.33
0
3DFACE
8
Faces
10
7.03
20
-10.94
30
15.78
11
9.73
21
-11.2
31
14.55
12
10.21
22
-6.83
32
16.0
13
7.24
23
-6.69
33
17.33
0
LWPOLYLINE
8
Polylines
70
1
90
4
10
7.24
20
-6.69
30
17.33
10
10.21
20
-6.83
30
16.0
10
10.2
20
-1.44
30
16.9
10
7.05
20
-1.22
30
18.28
0
3DFACE
8
Faces
10
7.24
20
-6.69
30
17.33
11
10.21
21
-6.83
31
16.0
12
10.2
22
-1.44
32
16.9
13
7.05
23
-1.22
33
18.28
0
LWPOLYLINE
8
Polylines
70
1
90
4
10
13.67
20
-9.04
30
12.93
10
14.51
20
-5.96
30
13.19
10
12.7
20
-6.35
30
14.58
10
12.11
20
-10.41
30
13.54
0
3DFACE
8
Faces
10
13.67
20
-9.04
30
12.93
11
14.51
21
-5.96
31
13.19
12
12.7
22
-6.35
32
14.58
13
12.11
23
-10.41
33
13.54
0
LWPOLYLINE
8
Polylines
70
1
90
4
10
12.11
20
-10.41
30
13.54
10
12.7
20
-6.35
30
14.58
10
10.21
20
-6.83
30
16.0
10
9.73
20
-11.2
30
14.55
0
3DFACE
8
Faces
10
12.11
20
-10.41
30
13.54
11
12.7
21
-6.35
31
14.58
12
10.21
22
-6.83
32
16.0
13
9.73
23
-11.2
33
14.55
0
LWPOLYLINE
8
Polylines
70
1
90
4
10
14.51
20
-5.96
30
13.19
10
14.74
20
-1.79
30
13.58
10
12.84
20
-1.67
30
15.22
10
12.7
20
-6.35
30
14.58
0
3DFACE
8
Faces
10
14.51
20
-5.96
30
13.19
11
14.74
21
-1.79
31
13.58
12
12.84
22
-1.67
32
15.22
13
12.7
23
-6.35
33
14.58
0
LWPOLYLINE
8
Polylines
70
1
90
4
10
12.7
20
-6.35
30
14.58
10
12.84
20
-1.67
30
15.22
10
10.2
20
-1.44
30
16.9
10
10.21
20
-6.83
30
16.0
0
3DFACE
8
Faces
10
12.7
20
-6.35
30
14.58
11
12.84
21
-1.67
31
15.22
12
10.2
22
-1.44
32
16.9
13
10.21
23
-6.83
33
16.0
0
LWPOLYLINE
8
Polylines
70
1
90
4
10
12.97
20
5.75
30
14.36
10
11.24
20
7.48
30
15.1
10
12.22
20
3.16
30
15.47
10
14.07
20
2.47
30
14.07
0
3DFACE
8
Faces
10
12.97
20
5.75
30
14.36
11
11.24
21
7.48
31
15.1
12
12.22
22
3.16
32
15.47
13
14.07
23
2.47
33
14.07
0
LWPOLYLINE
8
Polylines
70
1
90
4
10
14.07
20
2.47
30
14.07
10
12.22
20
3.16
30
15.47
10
12.84
20
-1.67
30
15.22
10
14.74
20
-1.79
30
13.58
0
3DFACE
8
Faces
10
14.07
20
2.47
30
14.07
11
12.22
21
3.16
31
15.47
12
12.84
22
-1.67
32
15.22
13
14.74
23
-1.79
33
13.58
0
LWPOLYLINE
8
Polylines
70
1
90
4
10
11.24
20
7.48
30
15.1
10
8.56
20
8.9
30
16.03
10
9.54
20
4.15
30
16.91
10
12.22
20
3.16
30
15.47
0
3DFACE
8
Faces
10
11.24
20
7.48
30
15.1
11
8.56
21
8.9
31
16.03
12
9.54
22
4.15
32
16.91
13
12.22
23
3.16
33
15.47
0
LWPOLYLINE
8
Polylines
70
1
90
4
10
12.22
20
3.16
30
15.47
10
9.54
20
4.15
30
16.91
10
10.2
20
-1.44
30
16.9
10
12.84
20
-1.67
30
15.22
0
3DFACE
8
Faces
10
12.22
20
3.16
30
15.47
11
9.54
21
4.15
31
16.91
12
10.2
22
-1.44
32
16.9
13
12.84
23
-1.67
33
15.22
0
LWPOLYLINE
8
Polylines
70
1
90
4
10
1.72
20
9.43
30
17.56
10
3.03
20
4.17
30
18.91
10
6.28
20
4.58
30
18.12
10
5.37
20
9.41
30
16.93
0
3DFACE
8
Faces
10
1.72
20
9.43
30
17.56
11
3.03
21
4.17
31
18.91
12
6.28
22
4.58
32
18.12
13
5.37
23
9.41
33
16.93
0
LWPOLYLINE
8
Polylines
70
1
90
4
10
5.37
20
9.41
30
16.93
10
6.28
20
4.58
30
18.12
10
9.54
20
4.15
30
16.91
10
8.56
20
8.9
30
16.03
0
3DFACE
8
Faces
10
5.37
20
9.41
30
16.93
11
6.28
21
4.58
31
18.12
12
9.54
22
4.15
32
16.91
13
8.56
23
8.9
33
16.03
0
LWPOLYLINE
8
Polylines
70
1
90
4
10
3.03
20
4.17
30
18.91
10
3.84
20
-1.32
30
19.1
10
7.05
20
-1.22
30
18.28
10
6.28
20
4.58
30
18.12
0
3DFACE
8
Faces
10
3.03
20
4.17
30
18.91
11
3.84
21
-1.32
31
19.1
12
7.05
22
-1.22
32
18.28
13
6.28
23
4.58
33
18.12
0
LWPOLYLINE
8
Polylines
70
1
90
4
10
6.28
20
4.58
30
18.12
10
7.05
20
-1.22
30
18.28
10
10.2
20
-1.44
30
16.9
10
9.54
20
4.15
30
16.91
0
3DFACE
8
Faces
10
6.28
20
4.58
30
18.12
11
7.05
21
-1.22
31
18.28
12
10.2
22
-1.44
32
16.9
13
9.54
23
4.15
33
16.91
0
LWPOLYLINE
8
Polylines
70
1
90
4
10
1.72
20
9.43
30
17.56
10
-0.66
20
10.95
30
16.95
10
-1.73
20
9.13
30
17.74
10
-0.54
20
6.81
30
18.55
0
3DFACE
8
Faces
10
1.72
20
9.43
30
17.56
11
-0.66
21
10.95
31
16.95
12
-1.73
22
9.13
32
17.74
13
-0.54
23
6.81
33
18.55
0
LWPOLYLINE
8
Polylines
70
1
90
4
10
-0.54
20
6.81
30
18.55
10
-1.73
20
9.13
30
17.74
10
-3.17
20
7.21
30
18.23
10
-2.52
20
4.53
30
18.95
0
3DFACE
8
Faces
10
-0.54
20
6.81
30
18.55
11
-1.73
21
9.13
31
17.74
12
-3.17
22
7.21
32
18.23
13
-2.52
23
4.53
33
18.95
0
LWPOLYLINE
8
Polylines
70
1
90
4
10
-0.66
20
10.95
30
16.95
10
-2.31
20
11.69
30
16.47
10
-2.96
20
10.24
30
17.15
10
-1.73
20
9.13
30
17.74
0
3DFACE
8
Faces
10
-0.66
20
10.95
30
16.95
11
-2.31
21
11.69
31
16.47
12
-2.96
22
10.24
32
17.15
13
-1.73
23
9.13
33
17.74
0
LWPOLYLINE
8
Polylines
70
1
90
4
10
-1.73
20
9.13
30
17.74
10
-2.96
20
10.24
30
17.15
10
-3.61
20
8.7
30
17.68
10
-3.17
20
7.21
30
18.23
0
3DFACE
8
Faces
10
-1.73
20
9.13
30
17.74
11
-2.96
21
10.24
31
17.15
12
-3.61
22
8.7
32
17.68
13
-3.17
23
7.21
33
18.23
0
LWPOLYLINE
8
Polylines
70
1
90
4
10
-5.08
20
12.35
30
15.65
10
-5.45
20
10.75
30
16.45
10
-4.22
20
10.58
30
16.8
10
-3.78
20
12.04
30
16.08
0
3DFACE
8
Faces
10
-5.08
20
12.35
30
15.65
11
-5.45
21
10.75
31
16.45
12
-4.22
22
10.58
32
16.8
13
-3.78
23
12.04
33
16.08
0
LWPOLYLINE
8
Polylines
70
1
90
4
10
-3.78
20
12.04
30
16.08
10
-4.22
20
10.58
30
16.8
10
-2.96
20
10.24
30
17.15
10
-2.31
20
11.69
30
16.47
0
3DFACE
8
Faces
10
-3.78
20
12.04
30
16.08
11
-4.22
21
10.58
31
16.8
12
-2.96
22
10.24
32
17.15
13
-2.31
23
11.69
33
16.47
0
LWPOLYLINE
8
Polylines
70
1
90
4
10
-5.45
20
10.75
30
16.45
10
-5.91
20
8.45
30
17.27
10
-4.64
20
8.45
30
17.58
10
-4.22
20
10.58
30
16.8
0
3DFACE
8
Faces
10
-5.45
20
10.75
30
16.45
11
-5.91
21
8.45
31
17.27
12
-4.64
22
8.45
32
17.58
13
-4.22
23
10.58
33
16.8
0
LWPOLYLINE
8
Polylines
70
1
90
4
10
-4.22
20
10.58
30
16.8
10
-4.64
20
8.45
30
17.58
10
-3.61
20
8.7
30
17.68
10
-2.96
20
10.24
30
17.15
0
3DFACE
8
Faces
10
-4.22
20
10.58
30
16.8
11
-4.64
21
8.45
31
17.58
12
-3.61
22
8.7
32
17.68
13
-2.96
23
10.24
33
17.15
0
LWPOLYLINE
8
Polylines
70
1
90
4
10
-6.97
20
0.24
30
18.3
10
-4.5
20
2.47
30
18.9
10
-4.83
20
5.7
30
18.32
10
-6.36
20
5.41
30
17.97
0
3DFACE
8
Faces
10
-6.97
20
0.24
30
18.3
11
-4.5
21
2.47
31
18.9
12
-4.83
22
5.7
32
18.32
13
-6.36
23
5.41
33
17.97
0
LWPOLYLINE
8
Polylines
70
1
90
4
10
-6.36
20
5.41
30
17.97
10
-4.83
20
5.7
30
18.32
10
-4.64
20
8.45
30
17.58
10
-5.91
20
8.45
30
17.27
0
3DFACE
8
Faces
10
-6.36
20
5.41
30
17.97
11
-4.83
21
5.7
31
18.32
12
-4.64
22
8.45
32
17.58
13
-5.91
23
8.45
33
17.27
0
LWPOLYLINE
8
Polylines
70
1
90
4
10
-4.5
20
2.47
30
18.9
10
-2.52
20
4.53
30
18.95
10
-3.17
20
7.21
30
18.23
10
-4.83
20
5.7
30
18.32
0
3DFACE
8
Faces
10
-4.5
20
2.47
30
18.9
11
-2.52
21
4.53
31
18.95
12
-3.17
22
7.21
32
18.23
13
-4.83
23
5.7
33
18.32
0
LWPOLYLINE
8
Polylines
70
1
90
4
10
-4.83
20
5.7
30
18.32
10
-3.17
20
7.21
30
18.23
10
-3.61
20
8.7
30
17.68
10
-4.64
20
8.45
30
17.58
0
3DFACE
8
Faces
10
-4.83
20
5.7
30
18.32
11
-3.17
21
7.21
31
18.23
12
-3.61
22
8.7
32
17.68
13
-4.64
23
8.45
33
17.58
0
LWPOLYLINE
8
Polylines
70
1
90
4
10
-10.26
20
-10.77
30
13.74
10
-10.28
20
-9.6
30
14.16
10
-9.57
20
-10.04
30
14.25
10
-9.67
20
-11.38
30
13.69
0
3DFACE
8
Faces
10
-10.26
20
-10.77
30
13.74
11
-10.28
21
-9.6
31
14.16
12
-9.57
22
-10.04
32
14.25
13
-9.67
23
-11.38
33
13.69
0
LWPOLYLINE
8
Polylines
70
1
90
4
10
-9.67
20
-11.38
30
13.69
10
-9.57
20
-10.04
30
14.25
10
-8.62
20
-10.38
30
14.49
10
-8.61
20
-11.76
30
13.95
0
3DFACE
8
Faces
10
-9.67
20
-11.38
30
13.69
11
-9.57
21
-10.04
31
14.25
12
-8.62
22
-10.38
32
14.49
13
-8.61
23
-11.76
33
13.95
0
LWPOLYLINE
8
Polylines
70
1
90
4
10
-10.28
20
-9.6
30
14.16
10
-9.87
20
-7.49
30
15.08
10
-9.18
20
-8.28
30
15.05
10
-9.57
20
-10.04
30
14.25
0
3DFACE
8
Faces
10
-10.28
20
-9.6
30
14.16
11
-9.87
21
-7.49
31
15.08
12
-9.18
22
-8.28
32
15.05
13
-9.57
23
-10.04
33
14.25
0
LWPOLYLINE
8
Polylines
70
1
90
4
10
-9.57
20
-10.04
30
14.25
10
-9.18
20
-8.28
30
15.05
10
-8.53
20
-9.03
30
15.05
10
-8.62
20
-10.38
30
14.49
0
3DFACE
8
Faces
10
-9.57
20
-10.04
30
14.25
11
-9.18
21
-8.28
31
15.05
12
-8.53
22
-9.03
32
15.05
13
-8.62
23
-10.38
33
14.49
0
LWPOLYLINE
8
Polylines
70
1
90
4
10
-6.96
20
0.24
30
17.37
10
-6.72
20
-4.68
30
16.96
10
-8.19
20
-6.11
30
16.11
10
-8.79
20
-4.45
30
16.29
0
3DFACE
8
Faces
10
-6.96
20
0.24
30
17.37
11
-6.72
21
-4.68
31
16.96
12
-8.19
22
-6.11
32
16.11
13
-8.79
23
-4.45
33
16.29
0
LWPOLYLINE
8
Polylines
70
1
90
4
10
-8.79
20
-4.45
30
16.29
10
-8.19
20
-6.11
30
16.11
10
-9.18
20
-8.28
30
15.05
10
-9.87
20
-7.49
30
15.08
0
3DFACE
8
Faces
10
-8.79
20
-4.45
30
16.29
11
-8.19
21
-6.11
31
16.11
12
-9.18
22
-8.28
32
15.05
13
-9.87
23
-7.49
33
15.08
0
LWPOLYLINE
8
Polylines
70
1
90
4
10
-6.72
20
-4.68
30
16.96
10
-6.34
20
-7.48
30
16.38
10
-7.64
20
-8.2
30
15.7
10
-8.19
20
-6.11
30
16.11
0
3DFACE
8
Faces
10
-6.72
20
-4.68
30
16.96
11
-6.34
21
-7.48
31
16.38
12
-7.64
22
-8.2
32
15.7
13
-8.19
23
-6.11
33
16.11
0
LWPOLYLINE
8
Polylines
70
1
90
4
10
-8.19
20
-6.11
30
16.11
10
-7.64
20
-8.2
30
15.7
10
-8.53
20
-9.03
30
15.05
10
-9.18
20
-8.28
30
15.05
0
3DFACE
8
Faces
10
-8.19
20
-6.11
30
16.11
11
-7.64
21
-8.2
31
15.7
12
-8.53
22
-9.03
32
15.05
13
-9.18
23
-8.28
33
15.05
0
LWPOLYLINE
8
Polylines
70
1
90
4
10
-5.66
20
-11.21
30
15.26
10
-7.18
20
-11.61
30
14.58
10
-7.34
20
-10.11
30
15.1
10
-5.96
20
-9.66
30
15.75
0
3DFACE
8
Faces
10
-5.66
20
-11.21
30
15.26
11
-7.18
21
-11.61
31
14.58
12
-7.34
22
-10.11
32
15.1
13
-5.96
23
-9.66
33
15.75
0
LWPOLYLINE
8
Polylines
70
1
90
4
10
-5.96
20
-9.66
30
15.75
10
-7.34
20
-10.11
30
15.1
10
-7.64
20
-8.2
30
15.7
10
-6.34
20
-7.48
30
16.38
0
3DFACE
8
Faces
10
-5.96
20
-9.66
30
15.75
11
-7.34
21
-10.11
31
15.1
12
-7.64
22
-8.2
32
15.7
13
-6.34
23
-7.48
33
16.38
0
LWPOLYLINE
8
Polylines
70
1
90
4
10
-7.18
20
-11.61
30
14.58
10
-8.61
20
-11.76
30
13.95
10
-8.62
20
-10.38
30
14.49
10
-7.34
20
-10.11
30
15.1
0
3DFACE
8
Faces
10
-7.18
20
-11.61
30
14.58
11
-8.61
21
-11.76
31
13.95
12
-8.62
22
-10.38
32
14.49
13
-7.34
23
-10.11
33
15.1
0
LWPOLYLINE
8
Polylines
70
1
90
4
10
-7.34
20
-10.11
30
15.1
10
-8.62
20
-10.38
30
14.49
10
-8.53
20
-9.03
30
15.05
10
-7.64
20
-8.2
30
15.7
0
3DFACE
8
Faces
10
-7.34
20
-10.11
30
15.1
11
-8.62
21
-10.38
31
14.49
12
-8.53
22
-9.03
32
15.05
13
-7.64
23
-8.2
33
15.7
0
LWPOLYLINE
8
Polylines
70
1
90
4
10
-8.37
20
12.22
30
13.92
10
-7.93
20
12.8
30
13.72
10
-8.03
20
11.35
30
14.34
10
-8.52
20
10.94
30
14.43
0
3DFACE
8
Faces
10
-8.37
20
12.22
30
13.92
11
-7.93
21
12.8
31
13.72
12
-8.03
22
11.35
32
14.34
13
-8.52
23
10.94
33
14.43
0
LWPOLYLINE
8
Polylines
70
1
90
4
10
-8.52
20
10.94
30
14.43
10
-8.03
20
11.35
30
14.34
10
-7.94
20
9.43
30
15.17
10
-8.46
20
8.63
30
15.36
0
3DFACE
8
Faces
10
-8.52
20
10.94
30
14.43
11
-8.03
21
11.35
31
14.34
12
-7.94
22
9.43
32
15.17
13
-8.46
23
8.63
33
15.36
0
LWPOLYLINE
8
Polylines
70
1
90
4
10
-7.93
20
12.8
30
13.72
10
-7.2
20
13.09
30
13.79
10
-7.36
20
11.62
30
14.41
10
-8.03
20
11.35
30
14.34
0
3DFACE
8
Faces
10
-7.93
20
12.8
30
13.72
11
-7.2
21
13.09
31
13.79
12
-7.36
22
11.62
32
14.41
13
-8.03
23
11.35
33
14.34
0
LWPOLYLINE
8
Polylines
70
1
90
4
10
-8.03
20
11.35
30
14.34
10
-7.36
20
11.62
30
14.41
10
-7.43
20
10.18
30
15.03
10
-7.94
20
9.43
30
15.17
0
3DFACE
8
Faces
10
-8.03
20
11.35
30
14.34
11
-7.36
21
11.62
31
14.41
12
-7.43
22
10.18
32
15.03
13
-7.94
23
9.43
33
15.17
0
LWPOLYLINE
8
Polylines
70
1
90
4
10
-5.01
20
12.29
30
14.87
10
-5.38
20
10.69
30
15.46
10
-6.49
20
11.23
30
14.88
10
-6.21
20
12.79
30
14.27
0
3DFACE
8
Faces
10
-5.01
20
12.29
30
14.87
11
-5.38
21
10.69
31
15.46
12
-6.49
22
11.23
32
14.88
13
-6.21
23
12.79
33
14.27
0
LWPOLYLINE
8
Polylines
70
1
90
4
10
-6.21
20
12.79
30
14.27
10
-6.49
20
11.23
30
14.88
10
-7.36
20
11.62
30
14.41
10
-7.2
20
13.09
30
13.79
0
3DFACE
8
Faces
10
-6.21
20
12.79
30
14.27
11
-6.49
21
11.23
31
14.88
12
-7.36
22
11.62
32
14.41
13
-7.2
23
13.09
33
13.79
0
LWPOLYLINE
8
Polylines
70
1
90
4
10
-5.38
20
10.69
30
15.46
10
-5.86
20
8.4
30
16.22
10
-6.87
20
9.24
30
15.59
10
-6.49
20
11.23
30
14.88
0
3DFACE
8
Faces
10
-5.38
20
10.69
30
15.46
11
-5.86
21
8.4
31
16.22
12
-6.87
22
9.24
32
15.59
13
-6.49
23
11.23
33
14.88
0
LWPOLYLINE
8
Polylines
70
1
90
4
10
-6.49
20
11.23
30
14.88
10
-6.87
20
9.24
30
15.59
10
-7.43
20
10.18
30
15.03
10
-7.36
20
11.62
30
14.41
0
3DFACE
8
Faces
10
-6.49
20
11.23
30
14.88
11
-6.87
21
9.24
31
15.59
12
-7.43
22
10.18
32
15.03
13
-7.36
23
11.62
33
14.41
0
LWPOLYLINE
8
Polylines
70
1
90
4
10
-6.96
20
0.24
30
17.37
10
-8.0
20
5.31
30
16.46
10
-7.42
20
7.05
30
16.16
10
-6.34
20
5.38
30
16.94
0
3DFACE
8
Faces
10
-6.96
20
0.24
30
17.37
11
-8.0
21
5.31
31
16.46
12
-7.42
22
7.05
32
16.16
13
-6.34
23
5.38
33
16.94
0
LWPOLYLINE
8
Polylines
70
1
90
4
10
-6.34
20
5.38
30
16.94
10
-7.42
20
7.05
30
16.16
10
-6.87
20
9.24
30
15.59
10
-5.86
20
8.4
30
16.22
0
3DFACE
8
Faces
10
-6.34
20
5.38
30
16.94
11
-7.42
21
7.05
31
16.16
12
-6.87
22
9.24
32
15.59
13
-5.86
23
8.4
33
16.22
0
LWPOLYLINE
8
Polylines
70
1
90
4
10
-8.0
20
5.31
30
16.46
10
-8.46
20
8.63
30
15.36
10
-7.94
20
9.43
30
15.17
10
-7.42
20
7.05
30
16.16
0
3DFACE
8
Faces
10
-8.0
20
5.31
30
16.46
11
-8.46
21
8.63
31
15.36
12
-7.94
22
9.43
32
15.17
13
-7.42
23
7.05
33
16.16
0
LWPOLYLINE
8
Polylines
70
1
90
4
10
-7.42
20
7.05
30
16.16
10
-7.94
20
9.43
30
15.17
10
-7.43
20
10.18
30
15.03
10
-6.87
20
9.24
30
15.59
0
3DFACE
8
Faces
10
-7.42
20
7.05
30
16.16
11
-7.94
21
9.43
31
15.17
12
-7.43
22
10.18
32
15.03
13
-6.87
23
9.24
33
15.59
0
LWPOLYLINE
8
Polylines
70
1
90
4
10
-5.01
20
12.29
30
14.87
10
-3.73
20
11.99
30
15.3
10
-4.17
20
10.53
30
15.82
10
-5.38
20
10.69
30
15.46
0
3DFACE
8
Faces
10
-5.01
20
12.29
30
14.87
11
-3.73
21
11.99
31
15.3
12
-4.17
22
10.53
32
15.82
13
-5.38
23
10.69
33
15.46
0
LWPOLYLINE
8
Polylines
70
1
90
4
10
-5.38
20
10.69
30
15.46
10
-4.17
20
10.53
30
15.82
10
-4.6
20
8.41
30
16.54
10
-5.86
20
8.4
30
16.22
0
3DFACE
8
Faces
10
-5.38
20
10.69
30
15.46
11
-4.17
21
10.53
31
15.82
12
-4.6
22
8.41
32
16.54
13
-5.86
23
8.4
33
16.22
0
LWPOLYLINE
8
Polylines
70
1
90
4
10
-3.73
20
11.99
30
15.3
10
-2.28
20
11.65
30
15.68
10
-2.93
20
10.2
30
16.18
10
-4.17
20
10.53
30
15.82
0
3DFACE
8
Faces
10
-3.73
20
11.99
30
15.3
11
-2.28
21
11.65
31
15.68
12
-2.93
22
10.2
32
16.18
13
-4.17
23
10.53
33
15.82
0
LWPOLYLINE
8
Polylines
70
1
90
4
10
-4.17
20
10.53
30
15.82
10
-2.93
20
10.2
30
16.18
10
-3.58
20
8.67
30
16.66
10
-4.6
20
8.41
30
16.54
0
3DFACE
8
Faces
10
-4.17
20
10.53
30
15.82
11
-2.93
21
10.2
31
16.18
12
-3.58
22
8.67
32
16.66
13
-4.6
23
8.41
33
16.54
0
LWPOLYLINE
8
Polylines
70
1
90
4
10
1.7
20
9.41
30
16.71
10
-0.54
20
6.8
30
17.58
10
-1.71
20
9.1
30
16.76
10
-0.65
20
10.91
30
16.14
0
3DFACE
8
Faces
10
1.7
20
9.41
30
16.71
11
-0.54
21
6.8
31
17.58
12
-1.71
22
9.1
32
16.76
13
-0.65
23
10.91
33
16.14
0
LWPOLYLINE
8
Polylines
70
1
90
4
10
-0.65
20
10.91
30
16.14
10
-1.71
20
9.1
30
16.76
10
-2.93
20
10.2
30
16.18
10
-2.28
20
11.65
30
15.68
0
3DFACE
8
Faces
10
-0.65
20
10.91
30
16.14
11
-1.71
21
9.1
31
16.76
12
-2.93
22
10.2
32
16.18
13
-2.28
23
11.65
33
15.68
0
LWPOLYLINE
8
Polylines
70
1
90
4
10
-0.54
20
6.8
30
17.58
10
-2.51
20
4.53
30
17.94
10
-3.15
20
7.19
30
17.22
10
-1.71
20
9.1
30
16.76
0
3DFACE
8
Faces
10
-0.54
20
6.8
30
17.58
11
-2.51
21
4.53
31
17.94
12
-3.15
22
7.19
32
17.22
13
-1.71
23
9.1
33
16.76
0
LWPOLYLINE
8
Polylines
70
1
90
4
10
-1.71
20
9.1
30
16.76
10
-3.15
20
7.19
30
17.22
10
-3.58
20
8.67
30
16.66
10
-2.93
20
10.2
30
16.18
0
3DFACE
8
Faces
10
-1.71
20
9.1
30
16.76
11
-3.15
21
7.19
31
17.22
12
-3.58
22
8.67
32
16.66
13
-2.93
23
10.2
33
16.18
0
LWPOLYLINE
8
Polylines
70
1
90
4
10
-6.96
20
0.24
30
17.37
10
-6.34
20
5.38
30
16.94
10
-4.81
20
5.67
30
17.29
10
-4.49
20
2.47
30
17.91
0
3DFACE
8
Faces
10
-6.96
20
0.24
30
17.37
11
-6.34
21
5.38
31
16.94
12
-4.81
22
5.67
32
17.29
13
-4.49
23
2.47
33
17.91
0
LWPOLYLINE
8
Polylines
70
1
90
4
10
-4.49
20
2.47
30
17.91
10
-4.81
20
5.67
30
17.29
10
-3.15
20
7.19
30
17.22
10
-2.51
20
4.53
30
17.94
0
3DFACE
8
Faces
10
-4.49
20
2.47
30
17.91
11
-4.81
21
5.67
31
17.29
12
-3.15
22
7.19
32
17.22
13
-2.51
23
4.53
33
17.94
0
LWPOLYLINE
8
Polylines
70
1
90
4
10
-6.34
20
5.38
30
16.94
10
-5.86
20
8.4
30
16.22
10
-4.6
20
8.41
30
16.54
10
-4.81
20
5.67
30
17.29
0
3DFACE
8
Faces
10
-6.34
20
5.38
30
16.94
11
-5.86
21
8.4
31
16.22
12
-4.6
22
8.41
32
16.54
13
-4.81
23
5.67
33
17.29
0
LWPOLYLINE
8
Polylines
70
1
90
4
10
-4.81
20
5.67
30
17.29
10
-4.6
20
8.41
30
16.54
10
-3.58
20
8.67
30
16.66
10
-3.15
20
7.19
30
17.22
0
3DFACE
8
Faces
10
-4.81
20
5.67
30
17.29
11
-4.6
21
8.41
31
16.54
12
-3.58
22
8.67
32
16.66
13
-3.15
23
7.19
33
17.22
0
LWPOLYLINE
8
Polylines
70
1
90
4
10
1.7
20
9.41
30
16.71
10
5.33
20
9.37
30
16.14
10
6.25
20
4.56
30
17.17
10
3.02
20
4.16
30
17.97
0
3DFACE
8
Faces
10
1.7
20
9.41
30
16.71
11
5.33
21
9.37
31
16.14
12
6.25
22
4.56
32
17.17
13
3.02
23
4.16
33
17.97
0
LWPOLYLINE
8
Polylines
70
1
90
4
10
3.02
20
4.16
30
17.97
10
6.25
20
4.56
30
17.17
10
7.03
20
-1.21
30
17.28
10
3.84
20
-1.31
30
18.14
0
3DFACE
8
Faces
10
3.02
20
4.16
30
17.97
11
6.25
21
4.56
31
17.17
12
7.03
22
-1.21
32
17.28
13
3.84
23
-1.31
33
18.14
0
LWPOLYLINE
8
Polylines
70
1
90
4
10
5.33
20
9.37
30
16.14
10
8.5
20
8.84
30
15.27
10
9.5
20
4.1
30
15.96
10
6.25
20
4.56
30
17.17
0
3DFACE
8
Faces
10
5.33
20
9.37
30
16.14
11
8.5
21
8.84
31
15.27
12
9.5
22
4.1
32
15.96
13
6.25
23
4.56
33
17.17
0
LWPOLYLINE
8
Polylines
70
1
90
4
10
6.25
20
4.56
30
17.17
10
9.5
20
4.1
30
15.96
10
10.16
20
-1.42
30
15.88
10
7.03
20
-1.21
30
17.28
0
3DFACE
8
Faces
10
6.25
20
4.56
30
17.17
11
9.5
21
4.1
31
15.96
12
10.16
22
-1.42
32
15.88
13
7.03
23
-1.21
33
17.28
0
LWPOLYLINE
8
Polylines
70
1
90
4
10
12.91
20
5.67
30
13.77
10
13.99
20
2.42
30
13.33
10
12.15
20
3.1
30
14.58
10
11.18
20
7.4
30
14.41
0
3DFACE
8
Faces
10
12.91
20
5.67
30
13.77
11
13.99
21
2.42
31
13.33
12
12.15
22
3.1
32
14.58
13
11.18
23
7.4
33
14.41
0
LWPOLYLINE
8
Polylines
70
1
90
4
10
11.18
20
7.4
30
14.41
10
12.15
20
3.1
30
14.58
10
9.5
20
4.1
30
15.96
10
8.5
20
8.84
30
15.27
0
3DFACE
8
Faces
10
11.18
20
7.4
30
14.41
11
12.15
21
3.1
31
14.58
12
9.5
22
4.1
32
15.96
13
8.5
23
8.84
33
15.27
0
LWPOLYLINE
8
Polylines
70
1
90
4
10
13.99
20
2.42
30
13.33
10
14.63
20
-1.75
30
12.77
10
12.76
20
-1.63
30
14.23
10
12.15
20
3.1
30
14.58
0
3DFACE
8
Faces
10
13.99
20
2.42
30
13.33
11
14.63
21
-1.75
31
12.77
12
12.76
22
-1.63
32
14.23
13
12.15
23
3.1
33
14.58
0
LWPOLYLINE
8
Polylines
70
1
90
4
10
12.15
20
3.1
30
14.58
10
12.76
20
-1.63
30
14.23
10
10.16
20
-1.42
30
15.88
10
9.5
20
4.1
30
15.96
0
3DFACE
8
Faces
10
12.15
20
3.1
30
14.58
11
12.76
21
-1.63
31
14.23
12
10.16
22
-1.42
32
15.88
13
9.5
23
4.1
33
15.96
0
LWPOLYLINE
8
Polylines
70
1
90
4
10
13.6
20
-8.91
30
12.35
10
12.03
20
-10.28
30
12.85
10
12.62
20
-6.23
30
13.69
10
14.42
20
-5.83
30
12.46
0
3DFACE
8
Faces
10
13.6
20
-8.91
30
12.35
11
12.03
21
-10.28
31
12.85
12
12.62
22
-6.23
32
13.69
13
14.42
23
-5.83
33
12.46
0
LWPOLYLINE
8
Polylines
70
1
90
4
10
14.42
20
-5.83
30
12.46
10
12.62
20
-6.23
30
13.69
10
12.76
20
-1.63
30
14.23
10
14.63
20
-1.75
30
12.77
0
3DFACE
8
Faces
10
14.42
20
-5.83
30
12.46
11
12.62
21
-6.23
31
13.69
12
12.76
22
-1.63
32
14.23
13
14.63
23
-1.75
33
12.77
0
LWPOLYLINE
8
Polylines
70
1
90
4
10
12.03
20
-10.28
30
12.85
10
9.64
20
-11.1
30
13.8
10
10.14
20
-6.74
30
15.05
10
12.62
20
-6.23
30
13.69
0
3DFACE
8
Faces
10
12.03
20
-10.28
30
12.85
11
9.64
21
-11.1
31
13.8
12
10.14
22
-6.74
32
15.05
13
12.62
23
-6.23
33
13.69
0
LWPOLYLINE
8
Polylines
70
1
90
4
10
12.62
20
-6.23
30
13.69
10
10.14
20
-6.74
30
15.05
10
10.16
20
-1.42
30
15.88
10
12.76
20
-1.63
30
14.23
0
3DFACE
8
Faces
10
12.62
20
-6.23
30
13.69
11
10.14
21
-6.74
31
15.05
12
10.16
22
-1.42
32
15.88
13
12.76
23
-1.63
33
14.23
0
LWPOLYLINE
8
Polylines
70
1
90
4
10
4.33
20
-10.15
30
16.07
10
4.24
20
-6.33
30
17.3
10
7.2
20
-6.64
30
16.38
10
6.96
20
-10.88
30
15.01
0
3DFACE
8
Faces
10
4.33
20
-10.15
30
16.07
11
4.24
21
-6.33
31
17.3
12
7.2
22
-6.64
32
16.38
13
6.96
23
-10.88
33
15.01
0
LWPOLYLINE
8
Polylines
70
1
90
4
10
6.96
20
-10.88
30
15.01
10
7.2
20
-6.64
30
16.38
10
10.14
20
-6.74
30
15.05
10
9.64
20
-11.1
30
13.8
0
3DFACE
8
Faces
10
6.96
20
-10.88
30
15.01
11
7.2
21
-6.64
31
16.38
12
10.14
22
-6.74
32
15.05
13
9.64
23
-11.1
33
13.8
0
LWPOLYLINE
8
Polylines
70
1
90
4
10
4.24
20
-6.33
30
17.3
10
3.84
20
-1.31
30
18.14
10
7.03
20
-1.21
30
17.28
10
7.2
20
-6.64
30
16.38
0
3DFACE
8
Faces
10
4.24
20
-6.33
30
17.3
11
3.84
21
-1.31
31
18.14
12
7.03
22
-1.21
32
17.28
13
7.2
23
-6.64
33
16.38
0
LWPOLYLINE
8
Polylines
70
1
90
4
10
7.2
20
-6.64
30
16.38
10
7.03
20
-1.21
30
17.28
10
10.16
20
-1.42
30
15.88
10
10.14
20
-6.74
30
15.05
0
3DFACE
8
Faces
10
7.2
20
-6.64
30
16.38
11
7.03
21
-1.21
31
17.28
12
10.16
22
-1.42
32
15.88
13
10.14
23
-6.74
33
15.05
0
LWPOLYLINE
8
Polylines
70
1
90
4
10
1.7
20
9.41
30
16.71
10
3.02
20
4.16
30
17.97
10
0.45
20
2.77
30
18.36
10
-0.54
20
6.8
30
17.58
0
3DFACE
8
Faces
10
1.7
20
9.41
30
16.71
11
3.02
21
4.16
31
17.97
12
0.45
22
2.77
32
18.36
13
-0.54
23
6.8
33
17.58
0
LWPOLYLINE
8
Polylines
70
1
90
4
10
-0.54
20
6.8
30
17.58
10
0.45
20
2.77
30
18.36
10
-1.65
20
0.9
30
18.43
10
-2.51
20
4.53
30
17.94
0
3DFACE
8
Faces
10
-0.54
20
6.8
30
17.58
11
0.45
21
2.77
31
18.36
12
-1.65
22
0.9
32
18.43
13
-2.51
23
4.53
33
17.94
0
LWPOLYLINE
8
Polylines
70
1
90
4
10
3.02
20
4.16
30
17.97
10
3.84
20
-1.31
30
18.14
10
1.28
20
-2.01
30
18.4
10
0.45
20
2.77
30
18.36
0
3DFACE
8
Faces
10
3.02
20
4.16
30
17.97
11
3.84
21
-1.31
31
18.14
12
1.28
22
-2.01
32
18.4
13
0.45
23
2.77
33
18.36
0
LWPOLYLINE
8
Polylines
70
1
90
4
10
0.45
20
2.77
30
18.36
10
1.28
20
-2.01
30
18.4
10
-0.71
20
-3.13
30
18.31
10
-1.65
20
0.9
30
18.43
0
3DFACE
8
Faces
10
0.45
20
2.77
30
18.36
11
1.28
21
-2.01
31
18.4
12
-0.71
22
-3.13
32
18.31
13
-1.65
23
0.9
33
18.43
0
LWPOLYLINE
8
Polylines
70
1
90
4
10
4.33
20
-10.15
30
16.07
10
2.22
20
-9.77
30
16.57
10
1.89
20
-6.41
30
17.63
10
4.24
20
-6.33
30
17.3
0
3DFACE
8
Faces
10
4.33
20
-10.15
30
16.07
11
2.22
21
-9.77
31
16.57
12
1.89
22
-6.41
32
17.63
13
4.24
23
-6.33
33
17.3
0
LWPOLYLINE
8
Polylines
70
1
90
4
10
4.24
20
-6.33
30
17.3
10
1.89
20
-6.41
30
17.63
10
1.28
20
-2.01
30
18.4
10
3.84
20
-1.31
30
18.14
0
3DFACE
8
Faces
10
4.24
20
-6.33
30
17.3
11
1.89
21
-6.41
31
17.63
12
1.28
22
-2.01
32
18.4
13
3.84
23
-1.31
33
18.14
0
LWPOLYLINE
8
Polylines
70
1
90
4
10
2.22
20
-9.77
30
16.57
10
0.62
20
-9.69
30
16.71
10
0.09
20
-6.84
30
17.6
10
1.89
20
-6.41
30
17.63
0
3DFACE
8
Faces
10
2.22
20
-9.77
30
16.57
11
0.62
21
-9.69
31
16.71
12
0.09
22
-6.84
32
17.6
13
1.89
23
-6.41
33
17.63
0
LWPOLYLINE
8
Polylines
70
1
90
4
10
1.89
20
-6.41
30
17.63
10
0.09
20
-6.84
30
17.6
10
-0.71
20
-3.13
30
18.31
10
1.28
20
-2.01
30
18.4
0
3DFACE
8
Faces
10
1.89
20
-6.41
30
17.63
11
0.09
21
-6.84
31
17.6
12
-0.71
22
-3.13
32
18.31
13
1.28
23
-2.01
33
18.4
0
LWPOLYLINE
8
Polylines
70
1
90
4
10
-1.51
20
-10.24
30
16.43
10
-2.21
20
-8.27
30
17.03
10
-1.24
20
-7.51
30
17.36
10
-0.56
20
-9.91
30
16.62
0
3DFACE
8
Faces
10
-1.51
20
-10.24
30
16.43
11
-2.21
21
-8.27
31
17.03
12
-1.24
22
-7.51
32
17.36
13
-0.56
23
-9.91
33
16.62
0
LWPOLYLINE
8
Polylines
70
1
90
4
10
-0.56
20
-9.91
30
16.62
10
-1.24
20
-7.51
30
17.36
10
0.09
20
-6.84
30
17.6
10
0.62
20
-9.69
30
16.71
0
3DFACE
8
Faces
10
-0.56
20
-9.91
30
16.62
11
-1.24
21
-7.51
31
17.36
12
0.09
22
-6.84
32
17.6
13
0.62
23
-9.69
33
16.71
0
LWPOLYLINE
8
Polylines
70
1
90
4
10
-2.21
20
-8.27
30
17.03
10
-3.28
20
-5.73
30
17.59
10
-2.23
20
-4.38
30
18.01
10
-1.24
20
-7.51
30
17.36
0
3DFACE
8
Faces
10
-2.21
20
-8.27
30
17.03
11
-3.28
21
-5.73
31
17.59
12
-2.23
22
-4.38
32
18.01
13
-1.24
23
-7.51
33
17.36
0
LWPOLYLINE
8
Polylines
70
1
90
4
10
-1.24
20
-7.51
30
17.36
10
-2.23
20
-4.38
30
18.01
10
-0.71
20
-3.13
30
18.31
10
0.09
20
-6.84
30
17.6
0
3DFACE
8
Faces
10
-1.24
20
-7.51
30
17.36
11
-2.23
21
-4.38
31
18.01
12
-0.71
22
-3.13
32
18.31
13
0.09
23
-6.84
33
17.6
0
LWPOLYLINE
8
Polylines
70
1
90
4
10
-6.96
20
0.24
30
17.37
10
-4.49
20
2.47
30
17.91
10
-3.49
20
-0.96
30
18.2
10
-4.77
20
-2.96
30
17.79
0
3DFACE
8
Faces
10
-6.96
20
0.24
30
17.37
11
-4.49
21
2.47
31
17.91
12
-3.49
22
-0.96
32
18.2
13
-4.77
23
-2.96
33
17.79
0
LWPOLYLINE
8
Polylines
70
1
90
4
10
-4.77
20
-2.96
30
17.79
10
-3.49
20
-0.96
30
18.2
10
-2.23
20
-4.38
30
18.01
10
-3.28
20
-5.73
30
17.59
0
3DFACE
8
Faces
10
-4.77
20
-2.96
30
17.79
11
-3.49
21
-0.96
31
18.2
12
-2.23
22
-4.38
32
18.01
13
-3.28
23
-5.73
33
17.59
0
LWPOLYLINE
8
Polylines
70
1
90
4
10
-4.49
20
2.47
30
17.91
10
-2.51
20
4.53
30
17.94
10
-1.65
20
0.9
30
18.43
10
-3.49
20
-0.96
30
18.2
0
3DFACE
8
Faces
10
-4.49
20
2.47
30
17.91
11
-2.51
21
4.53
31
17.94
12
-1.65
22
0.9
32
18.43
13
-3.49
23
-0.96
33
18.2
0
LWPOLYLINE
8
Polylines
70
1
90
4
10
-3.49
20
-0.96
30
18.2
10
-1.65
20
0.9
30
18.43
10
-0.71
20
-3.13
30
18.31
10
-2.23
20
-4.38
30
18.01
0
3DFACE
8
Faces
10
-3.49
20
-0.96
30
18.2
11
-1.65
21
0.9
31
18.43
12
-0.71
22
-3.13
32
18.31
13
-2.23
23
-4.38
33
18.01
0
LWPOLYLINE
8
Polylines
70
1
90
4
10
-1.51
20
-10.24
30
16.43
10
-2.36
20
-10.61
30
16.19
10
-2.96
20
-9.0
30
16.67
10
-2.21
20
-8.27
30
17.03
0
3DFACE
8
Faces
10
-1.51
20
-10.24
30
16.43
11
-2.36
21
-10.61
31
16.19
12
-2.96
22
-9.0
32
16.67
13
-2.21
23
-8.27
33
17.03
0
LWPOLYLINE
8
Polylines
70
1
90
4
10
-2.21
20
-8.27
30
17.03
10
-2.96
20
-9.0
30
16.67
10
-3.91
20
-7.1
30
17.11
10
-3.28
20
-5.73
30
17.59
0
3DFACE
8
Faces
10
-2.21
20
-8.27
30
17.03
11
-2.96
21
-9.0
31
16.67
12
-3.91
22
-7.1
32
17.11
13
-3.28
23
-5.73
33
17.59
0
LWPOLYLINE
8
Polylines
70
1
90
4
10
-2.36
20
-10.61
30
16.19
10
-3.27
20
-10.91
30
15.92
10
-3.73
20
-9.52
30
16.34
10
-2.96
20
-9.0
30
16.67
0
3DFACE
8
Faces
10
-2.36
20
-10.61
30
16.19
11
-3.27
21
-10.91
31
15.92
12
-3.73
22
-9.52
32
16.34
13
-2.96
23
-9.0
33
16.67
0
LWPOLYLINE
8
Polylines
70
1
90
4
10
-2.96
20
-9.0
30
16.67
10
-3.73
20
-9.52
30
16.34
10
-4.22
20
-8.14
30
16.73
10
-3.91
20
-7.1
30
17.11
0
3DFACE
8
Faces
10
-2.96
20
-9.0
30
16.67
11
-3.73
21
-9.52
31
16.34
12
-4.22
22
-8.14
32
16.73
13
-3.91
23
-7.1
33
17.11
0
LWPOLYLINE
8
Polylines
70
1
90
4
10
-5.66
20
-11.21
30
15.26
10
-5.96
20
-9.66
30
15.75
10
-4.75
20
-9.59
30
16.1
10
-4.35
20
-11.05
30
15.66
0
3DFACE
8
Faces
10
-5.66
20
-11.21
30
15.26
11
-5.96
21
-9.66
31
15.75
12
-4.75
22
-9.59
32
16.1
13
-4.35
23
-11.05
33
15.66
0
LWPOLYLINE
8
Polylines
70
1
90
4
10
-4.35
20
-11.05
30
15.66
10
-4.75
20
-9.59
30
16.1
10
-3.73
20
-9.52
30
16.34
10
-3.27
20
-10.91
30
15.92
0
3DFACE
8
Faces
10
-4.35
20
-11.05
30
15.66
11
-4.75
21
-9.59
31
16.1
12
-3.73
22
-9.52
32
16.34
13
-3.27
23
-10.91
33
15.92
0
LWPOLYLINE
8
Polylines
70
1
90
4
10
-5.96
20
-9.66
30
15.75
10
-6.34
20
-7.48
30
16.38
10
-5.11
20
-7.64
30
16.68
10
-4.75
20
-9.59
30
16.1
0
3DFACE
8
Faces
10
-5.96
20
-9.66
30
15.75
11
-6.34
21
-7.48
31
16.38
12
-5.11
22
-7.64
32
16.68
13
-4.75
23
-9.59
33
16.1
0
LWPOLYLINE
8
Polylines
70
1
90
4
10
-4.75
20
-9.59
30
16.1
10
-5.11
20
-7.64
30
16.68
10
-4.22
20
-8.14
30
16.73
10
-3.73
20
-9.52
30
16.34
0
3DFACE
8
Faces
10
-4.75
20
-9.59
30
16.1
11
-5.11
21
-7.64
31
16.68
12
-4.22
22
-8.14
32
16.73
13
-3.73
23
-9.52
33
16.34
0
LWPOLYLINE
8
Polylines
70
1
90
4
10
-6.96
20
0.24
30
17.37
10
-4.77
20
-2.96
30
17.79
10
-5.23
20
-5.31
30
17.27
10
-6.72
20
-4.68
30
16.96
0
3DFACE
8
Faces
10
-6.96
20
0.24
30
17.37
11
-4.77
21
-2.96
31
17.79
12
-5.23
22
-5.31
32
17.27
13
-6.72
23
-4.68
33
16.96
0
LWPOLYLINE
8
Polylines
70
1
90
4
10
-6.72
20
-4.68
30
16.96
10
-5.23
20
-5.31
30
17.27
10
-5.11
20
-7.64
30
16.68
10
-6.34
20
-7.48
30
16.38
0
3DFACE
8
Faces
10
-6.72
20
-4.68
30
16.96
11
-5.23
21
-5.31
31
17.27
12
-5.11
22
-7.64
32
16.68
13
-6.34
23
-7.48
33
16.38
0
LWPOLYLINE
8
Polylines
70
1
90
4
10
-4.77
20
-2.96
30
17.79
10
-3.28
20
-5.73
30
17.59
10
-3.91
20
-7.1
30
17.11
10
-5.23
20
-5.31
30
17.27
0
3DFACE
8
Faces
10
-4.77
20
-2.96
30
17.79
11
-3.28
21
-5.73
31
17.59
12
-3.91
22
-7.1
32
17.11
13
-5.23
23
-5.31
33
17.27
0
LWPOLYLINE
8
Polylines
70
1
90
4
10
-5.23
20
-5.31
30
17.27
10
-3.91
20
-7.1
30
17.11
10
-4.22
20
-8.14
30
16.73
10
-5.11
20
-7.64
30
16.68
0
3DFACE
8
Faces
10
-5.23
20
-5.31
30
17.27
11
-3.91
21
-7.1
31
17.11
12
-4.22
22
-8.14
32
16.73
13
-5.11
23
-7.64
33
16.68
0
LWPOLYLINE
8
Polylines
70
1
90
4
10
-8.37
20
12.22
30
13.92
10
-8.52
20
10.94
30
14.43
10
-8.84
20
10.98
30
14.44
10
-8.55
20
12.75
30
13.69
0
3DFACE
8
Faces
10
-8.37
20
12.22
30
13.92
11
-8.52
21
10.94
31
14.43
12
-8.84
22
10.98
32
14.44
13
-8.55
23
12.75
33
13.69
0
LWPOLYLINE
8
Polylines
70
1
90
4
10
-8.55
20
12.75
30
13.69
10
-8.84
20
10.98
30
14.44
10
-8.96
20
11.12
30
14.53
10
-8.66
20
13.04
30
13.67
0
3DFACE
8
Faces
10
-8.55
20
12.75
30
13.69
11
-8.84
21
10.98
31
14.44
12
-8.96
22
11.12
32
14.53
13
-8.66
23
13.04
33
13.67
0
LWPOLYLINE
8
Polylines
70
1
90
4
10
-8.52
20
10.94
30
14.43
10
-8.46
20
8.63
30
15.36
10
-8.83
20
8.32
30
15.49
10
-8.84
20
10.98
30
14.44
0
3DFACE
8
Faces
10
-8.52
20
10.94
30
14.43
11
-8.46
21
8.63
31
15.36
12
-8.83
22
8.32
32
15.49
13
-8.84
23
10.98
33
14.44
0
LWPOLYLINE
8
Polylines
70
1
90
4
10
-8.84
20
10.98
30
14.44
10
-8.83
20
8.32
30
15.49
10
-9.0
20
8.28
30
15.65
10
-8.96
20
11.12
30
14.53
0
3DFACE
8
Faces
10
-8.84
20
10.98
30
14.44
11
-8.83
21
8.32
31
15.49
12
-9.0
22
8.28
32
15.65
13
-8.96
23
11.12
33
14.53
0
LWPOLYLINE
8
Polylines
70
1
90
4
10
-6.96
20
0.24
30
17.37
10
-8.51
20
0.36
30
16.99
10
-8.55
20
4.65
30
16.56
10
-8.0
20
5.31
30
16.46
0
3DFACE
8
Faces
10
-6.96
20
0.24
30
17.37
11
-8.51
21
0.36
31
16.99
12
-8.55
22
4.65
32
16.56
13
-8.0
23
5.31
33
16.46
0
LWPOLYLINE
8
Polylines
70
1
90
4
10
-8.0
20
5.31
30
16.46
10
-8.55
20
4.65
30
16.56
10
-8.83
20
8.32
30
15.49
10
-8.46
20
8.63
30
15.36
0
3DFACE
8
Faces
10
-8.0
20
5.31
30
16.46
11
-8.55
21
4.65
31
16.56
12
-8.83
22
8.32
32
15.49
13
-8.46
23
8.63
33
15.36
0
LWPOLYLINE
8
Polylines
70
1
90
4
10
-8.51
20
0.36
30
16.99
10
-8.87
20
0.38
30
17.08
10
-8.83
20
4.6
30
16.68
10
-8.55
20
4.65
30
16.56
0
3DFACE
8
Faces
10
-8.51
20
0.36
30
16.99
11
-8.87
21
0.38
31
17.08
12
-8.83
22
4.6
32
16.68
13
-8.55
23
4.65
33
16.56
0
LWPOLYLINE
8
Polylines
70
1
90
4
10
-8.55
20
4.65
30
16.56
10
-8.83
20
4.6
30
16.68
10
-9.0
20
8.28
30
15.65
10
-8.83
20
8.32
30
15.49
0
3DFACE
8
Faces
10
-8.55
20
4.65
30
16.56
11
-8.83
21
4.6
31
16.68
12
-9.0
22
8.28
32
15.65
13
-8.83
23
8.32
33
15.49
0
LWPOLYLINE
8
Polylines
70
1
90
4
10
-6.97
20
0.24
30
18.3
10
-8.04
20
5.35
30
17.29
10
-8.56
20
4.67
30
17.02
10
-8.52
20
0.36
30
17.47
0
3DFACE
8
Faces
10
-6.97
20
0.24
30
18.3
11
-8.04
21
5.35
31
17.29
12
-8.56
22
4.67
32
17.02
13
-8.52
23
0.36
33
17.47
0
LWPOLYLINE
8
Polylines
70
1
90
4
10
-8.52
20
0.36
30
17.47
10
-8.56
20
4.67
30
17.02
10
-8.83
20
4.6
30
16.68
10
-8.87
20
0.38
30
17.08
0
3DFACE
8
Faces
10
-8.52
20
0.36
30
17.47
11
-8.56
21
4.67
31
17.02
12
-8.83
22
4.6
32
16.68
13
-8.87
23
0.38
33
17.08
0
LWPOLYLINE
8
Polylines
70
1
90
4
10
-8.04
20
5.35
30
17.29
10
-8.51
20
8.69
30
16.12
10
-8.86
20
8.35
30
15.91
10
-8.56
20
4.67
30
17.02
0
3DFACE
8
Faces
10
-8.04
20
5.35
30
17.29
11
-8.51
21
8.69
31
16.12
12
-8.86
22
8.35
32
15.91
13
-8.56
23
4.67
33
17.02
0
LWPOLYLINE
8
Polylines
70
1
90
4
10
-8.56
20
4.67
30
17.02
10
-8.86
20
8.35
30
15.91
10
-9.0
20
8.28
30
15.65
10
-8.83
20
4.6
30
16.68
0
3DFACE
8
Faces
10
-8.56
20
4.67
30
17.02
11
-8.86
21
8.35
31
15.91
12
-9.0
22
8.28
32
15.65
13
-8.83
23
4.6
33
16.68
0
LWPOLYLINE
8
Polylines
70
1
90
4
10
-8.44
20
12.28
30
14.49
10
-8.6
20
12.79
30
14.03
10
-8.88
20
11.02
30
14.8
10
-8.59
20
11.02
30
15.11
0
3DFACE
8
Faces
10
-8.44
20
12.28
30
14.49
11
-8.6
21
12.79
31
14.03
12
-8.88
22
11.02
32
14.8
13
-8.59
23
11.02
33
15.11
0
LWPOLYLINE
8
Polylines
70
1
90
4
10
-8.59
20
11.02
30
15.11
10
-8.88
20
11.02
30
14.8
10
-8.86
20
8.35
30
15.91
10
-8.51
20
8.69
30
16.12
0
3DFACE
8
Faces
10
-8.59
20
11.02
30
15.11
11
-8.88
21
11.02
31
14.8
12
-8.86
22
8.35
32
15.91
13
-8.51
23
8.69
33
16.12
0
LWPOLYLINE
8
Polylines
70
1
90
4
10
-8.6
20
12.79
30
14.03
10
-8.66
20
13.04
30
13.67
10
-8.96
20
11.12
30
14.53
10
-8.88
20
11.02
30
14.8
0
3DFACE
8
Faces
10
-8.6
20
12.79
30
14.03
11
-8.66
21
13.04
31
13.67
12
-8.96
22
11.12
32
14.53
13
-8.88
23
11.02
33
14.8
0
LWPOLYLINE
8
Polylines
70
1
90
4
10
-8.88
20
11.02
30
14.8
10
-8.96
20
11.12
30
14.53
10
-9.0
20
8.28
30
15.65
10
-8.86
20
8.35
30
15.91
0
3DFACE
8
Faces
10
-8.88
20
11.02
30
14.8
11
-8.96
21
11.12
31
14.53
12
-9.0
22
8.28
32
15.65
13
-8.86
23
8.35
33
15.91
0
LWPOLYLINE
8
Polylines
70
1
90
4
10
-6.96
20
0.24
30
17.37
10
-8.79
20
-4.45
30
16.29
10
-9.38
20
-3.8
30
16.32
10
-8.51
20
0.36
30
16.99
0
3DFACE
8
Faces
10
-6.96
20
0.24
30
17.37
11
-8.79
21
-4.45
31
16.29
12
-9.38
22
-3.8
32
16.32
13
-8.51
23
0.36
33
16.99
0
LWPOLYLINE
8
Polylines
70
1
90
4
10
-8.51
20
0.36
30
16.99
10
-9.38
20
-3.8
30
16.32
10
-9.68
20
-3.73
30
16.42
10
-8.87
20
0.38
30
17.08
0
3DFACE
8
Faces
10
-8.51
20
0.36
30
16.99
11
-9.38
21
-3.8
31
16.32
12
-9.68
22
-3.73
32
16.42
13
-8.87
23
0.38
33
17.08
0
LWPOLYLINE
8
Polylines
70
1
90
4
10
-8.79
20
-4.45
30
16.29
10
-9.87
20
-7.49
30
15.08
10
-10.35
20
-7.17
30
15.09
10
-9.38
20
-3.8
30
16.32
0
3DFACE
8
Faces
10
-8.79
20
-4.45
30
16.29
11
-9.87
21
-7.49
31
15.08
12
-10.35
22
-7.17
32
15.09
13
-9.38
23
-3.8
33
16.32
0
LWPOLYLINE
8
Polylines
70
1
90
4
10
-9.38
20
-3.8
30
16.32
10
-10.35
20
-7.17
30
15.09
10
-10.55
20
-7.13
30
15.23
10
-9.68
20
-3.73
30
16.42
0
3DFACE
8
Faces
10
-9.38
20
-3.8
30
16.32
11
-10.35
21
-7.17
31
15.09
12
-10.55
22
-7.13
32
15.23
13
-9.68
23
-3.73
33
16.42
0
LWPOLYLINE
8
Polylines
70
1
90
4
10
-10.26
20
-10.77
30
13.74
10
-10.65
20
-11.22
30
13.45
10
-10.78
20
-9.57
30
14.08
10
-10.28
20
-9.6
30
14.16
0
3DFACE
8
Faces
10
-10.26
20
-10.77
30
13.74
11
-10.65
21
-11.22
31
13.45
12
-10.78
22
-9.57
32
14.08
13
-10.28
23
-9.6
33
14.16
0
LWPOLYLINE
8
Polylines
70
1
90
4
10
-10.28
20
-9.6
30
14.16
10
-10.78
20
-9.57
30
14.08
10
-10.35
20
-7.17
30
15.09
10
-9.87
20
-7.49
30
15.08
0
3DFACE
8
Faces
10
-10.28
20
-9.6
30
14.16
11
-10.78
21
-9.57
31
14.08
12
-10.35
22
-7.17
32
15.09
13
-9.87
23
-7.49
33
15.08
0
LWPOLYLINE
8
Polylines
70
1
90
4
10
-10.65
20
-11.22
30
13.45
10
-10.87
20
-11.46
30
13.41
10
-10.99
20
-9.68
30
14.12
10
-10.78
20
-9.57
30
14.08
0
3DFACE
8
Faces
10
-10.65
20
-11.22
30
13.45
11
-10.87
21
-11.46
31
13.41
12
-10.99
22
-9.68
32
14.12
13
-10.78
23
-9.57
33
14.08
0
LWPOLYLINE
8
Polylines
70
1
90
4
10
-10.78
20
-9.57
30
14.08
10
-10.99
20
-9.68
30
14.12
10
-10.55
20
-7.13
30
15.23
10
-10.35
20
-7.17
30
15.09
0
3DFACE
8
Faces
10
-10.78
20
-9.57
30
14.08
11
-10.99
21
-9.68
31
14.12
12
-10.55
22
-7.13
32
15.23
13
-10.35
23
-7.17
33
15.09
0
LWPOLYLINE
8
Polylines
70
1
90
4
10
-10.33
20
-10.84
30
14.31
10
-10.34
20
-9.69
30
14.84
10
-10.82
20
-9.62
30
14.44
10
-10.7
20
-11.27
30
13.79
0
3DFACE
8
Faces
10
-10.33
20
-10.84
30
14.31
11
-10.34
21
-9.69
31
14.84
12
-10.82
22
-9.62
32
14.44
13
-10.7
23
-11.27
33
13.79
0
LWPOLYLINE
8
Polylines
70
1
90
4
10
-10.7
20
-11.27
30
13.79
10
-10.82
20
-9.62
30
14.44
10
-10.99
20
-9.68
30
14.12
10
-10.87
20
-11.46
30
13.41
0
3DFACE
8
Faces
10
-10.7
20
-11.27
30
13.79
11
-10.82
21
-9.62
31
14.44
12
-10.99
22
-9.68
32
14.12
13
-10.87
23
-11.46
33
13.41
0
LWPOLYLINE
8
Polylines
70
1
90
4
10
-10.34
20
-9.69
30
14.84
10
-9.92
20
-7.56
30
15.84
10
-10.38
20
-7.21
30
15.52
10
-10.82
20
-9.62
30
14.44
0
3DFACE
8
Faces
10
-10.34
20
-9.69
30
14.84
11
-9.92
21
-7.56
31
15.84
12
-10.38
22
-7.21
32
15.52
13
-10.82
23
-9.62
33
14.44
0
LWPOLYLINE
8
Polylines
70
1
90
4
10
-10.82
20
-9.62
30
14.44
10
-10.38
20
-7.21
30
15.52
10
-10.55
20
-7.13
30
15.23
10
-10.99
20
-9.68
30
14.12
0
3DFACE
8
Faces
10
-10.82
20
-9.62
30
14.44
11
-10.38
21
-7.21
31
15.52
12
-10.55
22
-7.13
32
15.23
13
-10.99
23
-9.68
33
14.12
0
LWPOLYLINE
8
Polylines
70
1
90
4
10
-6.97
20
0.24
30
18.3
10
-8.52
20
0.36
30
17.47
10
-9.4
20
-3.82
30
16.78
10
-8.83
20
-4.49
30
17.13
0
3DFACE
8
Faces
10
-6.97
20
0.24
30
18.3
11
-8.52
21
0.36
31
17.47
12
-9.4
22
-3.82
32
16.78
13
-8.83
23
-4.49
33
17.13
0
LWPOLYLINE
8
Polylines
70
1
90
4
10
-8.83
20
-4.49
30
17.13
10
-9.4
20
-3.82
30
16.78
10
-10.38
20
-7.21
30
15.52
10
-9.92
20
-7.56
30
15.84
0
3DFACE
8
Faces
10
-8.83
20
-4.49
30
17.13
11
-9.4
21
-3.82
31
16.78
12
-10.38
22
-7.21
32
15.52
13
-9.92
23
-7.56
33
15.84
0
LWPOLYLINE
8
Polylines
70
1
90
4
10
-8.52
20
0.36
30
17.47
10
-8.87
20
0.38
30
17.08
10
-9.68
20
-3.73
30
16.42
10
-9.4
20
-3.82
30
16.78
0
3DFACE
8
Faces
10
-8.52
20
0.36
30
17.47
11
-8.87
21
0.38
31
17.08
12
-9.68
22
-3.73
32
16.42
13
-9.4
23
-3.82
33
16.78
0
LWPOLYLINE
8
Polylines
70
1
90
4
10
-9.4
20
-3.82
30
16.78
10
-9.68
20
-3.73
30
16.42
10
-10.55
20
-7.13
30
15.23
10
-10.38
20
-7.21
30
15.52
0
3DFACE
8
Faces
10
-9.4
20
-3.82
30
16.78
11
-9.68
21
-3.73
31
16.42
12
-10.55
22
-7.13
32
15.23
13
-10.38
23
-7.21
33
15.52
0
LWPOLYLINE
8
Polylines
70
1
90
4
10
-10.26
20
-10.77
30
13.74
10
-9.67
20
-11.38
30
13.69
10
-9.88
20
-12.19
30
13.36
10
-10.65
20
-11.22
30
13.45
0
3DFACE
8
Faces
10
-10.26
20
-10.77
30
13.74
11
-9.67
21
-11.38
31
13.69
12
-9.88
22
-12.19
32
13.36
13
-10.65
23
-11.22
33
13.45
0
LWPOLYLINE
8
Polylines
70
1
90
4
10
-10.65
20
-11.22
30
13.45
10
-9.88
20
-12.19
30
13.36
10
-10.02
20
-12.48
30
13.35
10
-10.87
20
-11.46
30
13.41
0
3DFACE
8
Faces
10
-10.65
20
-11.22
30
13.45
11
-9.88
21
-12.19
31
13.36
12
-10.02
22
-12.48
32
13.35
13
-10.87
23
-11.46
33
13.41
0
LWPOLYLINE
8
Polylines
70
1
90
4
10
-9.67
20
-11.38
30
13.69
10
-8.61
20
-11.76
30
13.95
10
-8.63
20
-12.6
30
13.7
10
-9.88
20
-12.19
30
13.36
0
3DFACE
8
Faces
10
-9.67
20
-11.38
30
13.69
11
-8.61
21
-11.76
31
13.95
12
-8.63
22
-12.6
32
13.7
13
-9.88
23
-12.19
33
13.36
0
LWPOLYLINE
8
Polylines
70
1
90
4
10
-9.88
20
-12.19
30
13.36
10
-8.63
20
-12.6
30
13.7
10
-8.68
20
-12.9
30
13.74
10
-10.02
20
-12.48
30
13.35
0
3DFACE
8
Faces
10
-9.88
20
-12.19
30
13.36
11
-8.63
21
-12.6
31
13.7
12
-8.68
22
-12.9
32
13.74
13
-10.02
23
-12.48
33
13.35
0
LWPOLYLINE
8
Polylines
70
1
90
4
10
-5.66
20
-11.21
30
15.26
10
-5.47
20
-12.14
30
15.02
10
-7.09
20
-12.48
30
14.34
10
-7.18
20
-11.61
30
14.58
0
3DFACE
8
Faces
10
-5.66
20
-11.21
30
15.26
11
-5.47
21
-12.14
31
15.02
12
-7.09
22
-12.48
32
14.34
13
-7.18
23
-11.61
33
14.58
0
LWPOLYLINE
8
Polylines
70
1
90
4
10
-7.18
20
-11.61
30
14.58
10
-7.09
20
-12.48
30
14.34
10
-8.63
20
-12.6
30
13.7
10
-8.61
20
-11.76
30
13.95
0
3DFACE
8
Faces
10
-7.18
20
-11.61
30
14.58
11
-7.09
21
-12.48
31
14.34
12
-8.63
22
-12.6
32
13.7
13
-8.61
23
-11.76
33
13.95
0
LWPOLYLINE
8
Polylines
70
1
90
4
10
-5.47
20
-12.14
30
15.02
10
-5.44
20
-12.46
30
15.09
10
-7.07
20
-12.8
30
14.41
10
-7.09
20
-12.48
30
14.34
0
3DFACE
8
Faces
10
-5.47
20
-12.14
30
15.02
11
-5.44
21
-12.46
31
15.09
12
-7.07
22
-12.8
32
14.41
13
-7.09
23
-12.48
33
14.34
0
LWPOLYLINE
8
Polylines
70
1
90
4
10
-7.09
20
-12.48
30
14.34
10
-7.07
20
-12.8
30
14.41
10
-8.68
20
-12.9
30
13.74
10
-8.63
20
-12.6
30
13.7
0
3DFACE
8
Faces
10
-7.09
20
-12.48
30
14.34
11
-7.07
21
-12.8
31
14.41
12
-8.68
22
-12.9
32
13.74
13
-8.63
23
-12.6
33
13.7
0
LWPOLYLINE
8
Polylines
70
1
90
4
10
-5.72
20
-11.27
30
16.02
10
-7.26
20
-11.68
30
15.35
10
-7.14
20
-12.53
30
14.78
10
-5.51
20
-12.17
30
15.45
0
3DFACE
8
Faces
10
-5.72
20
-11.27
30
16.02
11
-7.26
21
-11.68
31
15.35
12
-7.14
22
-12.53
32
14.78
13
-5.51
23
-12.17
33
15.45
0
LWPOLYLINE
8
Polylines
70
1
90
4
10
-5.51
20
-12.17
30
15.45
10
-7.14
20
-12.53
30
14.78
10
-7.07
20
-12.8
30
14.41
10
-5.44
20
-12.46
30
15.09
0
3DFACE
8
Faces
10
-5.51
20
-12.17
30
15.45
11
-7.14
21
-12.53
31
14.78
12
-7.07
22
-12.8
32
14.41
13
-5.44
23
-12.46
33
15.09
0
LWPOLYLINE
8
Polylines
70
1
90
4
10
-7.26
20
-11.68
30
15.35
10
-8.7
20
-11.85
30
14.7
10
-8.69
20
-12.65
30
14.11
10
-7.14
20
-12.53
30
14.78
0
3DFACE
8
Faces
10
-7.26
20
-11.68
30
15.35
11
-8.7
21
-11.85
31
14.7
12
-8.69
22
-12.65
32
14.11
13
-7.14
23
-12.53
33
14.78
0
LWPOLYLINE
8
Polylines
70
1
90
4
10
-7.14
20
-12.53
30
14.78
10
-8.69
20
-12.65
30
14.11
10
-8.68
20
-12.9
30
13.74
10
-7.07
20
-12.8
30
14.41
0
3DFACE
8
Faces
10
-7.14
20
-12.53
30
14.78
11
-8.69
21
-12.65
31
14.11
12
-8.68
22
-12.9
32
13.74
13
-7.07
23
-12.8
33
14.41
0
LWPOLYLINE
8
Polylines
70
1
90
4
10
-10.33
20
-10.84
30
14.31
10
-10.7
20
-11.27
30
13.79
10
-9.93
20
-12.24
30
13.73
10
-9.76
20
-11.47
30
14.37
0
3DFACE
8
Faces
10
-10.33
20
-10.84
30
14.31
11
-10.7
21
-11.27
31
13.79
12
-9.93
22
-12.24
32
13.73
13
-9.76
23
-11.47
33
14.37
0
LWPOLYLINE
8
Polylines
70
1
90
4
10
-9.76
20
-11.47
30
14.37
10
-9.93
20
-12.24
30
13.73
10
-8.69
20
-12.65
30
14.11
10
-8.7
20
-11.85
30
14.7
0
3DFACE
8
Faces
10
-9.76
20
-11.47
30
14.37
11
-9.93
21
-12.24
31
13.73
12
-8.69
22
-12.65
32
14.11
13
-8.7
23
-11.85
33
14.7
0
LWPOLYLINE
8
Polylines
70
1
90
4
10
-10.7
20
-11.27
30
13.79
10
-10.87
20
-11.46
30
13.41
10
-10.02
20
-12.48
30
13.35
10
-9.93
20
-12.24
30
13.73
0
3DFACE
8
Faces
10
-10.7
20
-11.27
30
13.79
11
-10.87
21
-11.46
31
13.41
12
-10.02
22
-12.48
32
13.35
13
-9.93
23
-12.24
33
13.73
0
LWPOLYLINE
8
Polylines
70
1
90
4
10
-9.93
20
-12.24
30
13.73
10
-10.02
20
-12.48
30
13.35
10
-8.68
20
-12.9
30
13.74
10
-8.69
20
-12.65
30
14.11
0
3DFACE
8
Faces
10
-9.93
20
-12.24
30
13.73
11
-10.02
21
-12.48
31
13.35
12
-8.68
22
-12.9
32
13.74
13
-8.69
23
-12.65
33
14.11
0
LWPOLYLINE
8
Polylines
70
1
90
4
10
-5.66
20
-11.21
30
15.26
10
-4.35
20
-11.05
30
15.66
10
-4.13
20
-11.9
30
15.46
10
-5.47
20
-12.14
30
15.02
0
3DFACE
8
Faces
10
-5.66
20
-11.21
30
15.26
11
-4.35
21
-11.05
31
15.66
12
-4.13
22
-11.9
32
15.46
13
-5.47
23
-12.14
33
15.02
0
LWPOLYLINE
8
Polylines
70
1
90
4
10
-5.47
20
-12.14
30
15.02
10
-4.13
20
-11.9
30
15.46
10
-4.06
20
-12.19
30
15.55
10
-5.44
20
-12.46
30
15.09
0
3DFACE
8
Faces
10
-5.47
20
-12.14
30
15.02
11
-4.13
21
-11.9
31
15.46
12
-4.06
22
-12.19
32
15.55
13
-5.44
23
-12.46
33
15.09
0
LWPOLYLINE
8
Polylines
70
1
90
4
10
-4.35
20
-11.05
30
15.66
10
-3.27
20
-10.91
30
15.92
10
-2.97
20
-11.73
30
15.74
10
-4.13
20
-11.9
30
15.46
0
3DFACE
8
Faces
10
-4.35
20
-11.05
30
15.66
11
-3.27
21
-10.91
31
15.92
12
-2.97
22
-11.73
32
15.74
13
-4.13
23
-11.9
33
15.46
0
LWPOLYLINE
8
Polylines
70
1
90
4
10
-4.13
20
-11.9
30
15.46
10
-2.97
20
-11.73
30
15.74
10
-2.9
20
-12.01
30
15.83
10
-4.06
20
-12.19
30
15.55
0
3DFACE
8
Faces
10
-4.13
20
-11.9
30
15.46
11
-2.97
21
-11.73
31
15.74
12
-2.9
22
-12.01
32
15.83
13
-4.06
23
-12.19
33
15.55
0
LWPOLYLINE
8
Polylines
70
1
90
4
10
-1.51
20
-10.24
30
16.43
10
-1.1
20
-11.4
30
16.08
10
-2.02
20
-11.55
30
15.94
10
-2.36
20
-10.61
30
16.19
0
3DFACE
8
Faces
10
-1.51
20
-10.24
30
16.43
11
-1.1
21
-11.4
31
16.08
12
-2.02
22
-11.55
32
15.94
13
-2.36
23
-10.61
33
16.19
0
LWPOLYLINE
8
Polylines
70
1
90
4
10
-2.36
20
-10.61
30
16.19
10
-2.02
20
-11.55
30
15.94
10
-2.97
20
-11.73
30
15.74
10
-3.27
20
-10.91
30
15.92
0
3DFACE
8
Faces
10
-2.36
20
-10.61
30
16.19
11
-2.02
21
-11.55
31
15.94
12
-2.97
22
-11.73
32
15.74
13
-3.27
23
-10.91
33
15.92
0
LWPOLYLINE
8
Polylines
70
1
90
4
10
-1.1
20
-11.4
30
16.08
10
-0.99
20
-11.78
30
16.12
10
-1.9
20
-11.88
30
16.01
10
-2.02
20
-11.55
30
15.94
0
3DFACE
8
Faces
10
-1.1
20
-11.4
30
16.08
11
-0.99
21
-11.78
31
16.12
12
-1.9
22
-11.88
32
16.01
13
-2.02
23
-11.55
33
15.94
0
LWPOLYLINE
8
Polylines
70
1
90
4
10
-2.02
20
-11.55
30
15.94
10
-1.9
20
-11.88
30
16.01
10
-2.9
20
-12.01
30
15.83
10
-2.97
20
-11.73
30
15.74
0
3DFACE
8
Faces
10
-2.02
20
-11.55
30
15.94
11
-1.9
21
-11.88
31
16.01
12
-2.9
22
-12.01
32
15.83
13
-2.97
23
-11.73
33
15.74
0
LWPOLYLINE
8
Polylines
70
1
90
4
10
-1.52
20
-10.27
30
17.18
10
-2.38
20
-10.64
30
16.94
10
-2.03
20
-11.58
30
16.37
10
-1.11
20
-11.42
30
16.51
0
3DFACE
8
Faces
10
-1.52
20
-10.27
30
17.18
11
-2.38
21
-10.64
31
16.94
12
-2.03
22
-11.58
32
16.37
13
-1.11
23
-11.42
33
16.51
0
LWPOLYLINE
8
Polylines
70
1
90
4
10
-1.11
20
-11.42
30
16.51
10
-2.03
20
-11.58
30
16.37
10
-1.9
20
-11.88
30
16.01
10
-0.99
20
-11.78
30
16.12
0
3DFACE
8
Faces
10
-1.11
20
-11.42
30
16.51
11
-2.03
21
-11.58
31
16.37
12
-1.9
22
-11.88
32
16.01
13
-0.99
23
-11.78
33
16.12
0
LWPOLYLINE
8
Polylines
70
1
90
4
10
-2.38
20
-10.64
30
16.94
10
-3.3
20
-10.95
30
16.68
10
-2.99
20
-11.76
30
16.17
10
-2.03
20
-11.58
30
16.37
0
3DFACE
8
Faces
10
-2.38
20
-10.64
30
16.94
11
-3.3
21
-10.95
31
16.68
12
-2.99
22
-11.76
32
16.17
13
-2.03
23
-11.58
33
16.37
0
LWPOLYLINE
8
Polylines
70
1
90
4
10
-2.03
20
-11.58
30
16.37
10
-2.99
20
-11.76
30
16.17
10
-2.9
20
-12.01
30
15.83
10
-1.9
20
-11.88
30
16.01
0
3DFACE
8
Faces
10
-2.03
20
-11.58
30
16.37
11
-2.99
21
-11.76
31
16.17
12
-2.9
22
-12.01
32
15.83
13
-1.9
23
-11.88
33
16.01
0
LWPOLYLINE
8
Polylines
70
1
90
4
10
-5.72
20
-11.27
30
16.02
10
-5.51
20
-12.17
30
15.45
10
-4.15
20
-11.92
30
15.89
10
-4.39
20
-11.09
30
16.42
0
3DFACE
8
Faces
10
-5.72
20
-11.27
30
16.02
11
-5.51
21
-12.17
31
15.45
12
-4.15
22
-11.92
32
15.89
13
-4.39
23
-11.09
33
16.42
0
LWPOLYLINE
8
Polylines
70
1
90
4
10
-4.39
20
-11.09
30
16.42
10
-4.15
20
-11.92
30
15.89
10
-2.99
20
-11.76
30
16.17
10
-3.3
20
-10.95
30
16.68
0
3DFACE
8
Faces
10
-4.39
20
-11.09
30
16.42
11
-4.15
21
-11.92
31
15.89
12
-2.99
22
-11.76
32
16.17
13
-3.3
23
-10.95
33
16.68
0
LWPOLYLINE
8
Polylines
70
1
90
4
10
-5.51
20
-12.17
30
15.45
10
-5.44
20
-12.46
30
15.09
10
-4.06
20
-12.19
30
15.55
10
-4.15
20
-11.92
30
15.89
0
3DFACE
8
Faces
10
-5.51
20
-12.17
30
15.45
11
-5.44
21
-12.46
31
15.09
12
-4.06
22
-12.19
32
15.55
13
-4.15
23
-11.92
33
15.89
0
LWPOLYLINE
8
Polylines
70
1
90
4
10
-4.15
20
-11.92
30
15.89
10
-4.06
20
-12.19
30
15.55
10
-2.9
20
-12.01
30
15.83
10
-2.99
20
-11.76
30
16.17
0
3DFACE
8
Faces
10
-4.15
20
-11.92
30
15.89
11
-4.06
21
-12.19
31
15.55
12
-2.9
22
-12.01
32
15.83
13
-2.99
23
-11.76
33
16.17
0
LWPOLYLINE
8
Polylines
70
1
90
4
10
-1.51
20
-10.24
30
16.43
10
-0.56
20
-9.91
30
16.62
10
-0.21
20
-11.28
30
16.17
10
-1.1
20
-11.4
30
16.08
0
3DFACE
8
Faces
10
-1.51
20
-10.24
30
16.43
11
-0.56
21
-9.91
31
16.62
12
-0.21
22
-11.28
32
16.17
13
-1.1
23
-11.4
33
16.08
0
LWPOLYLINE
8
Polylines
70
1
90
4
10
-1.1
20
-11.4
30
16.08
10
-0.21
20
-11.28
30
16.17
10
-0.08
20
-11.74
30
16.17
10
-0.99
20
-11.78
30
16.12
0
3DFACE
8
Faces
10
-1.1
20
-11.4
30
16.08
11
-0.21
21
-11.28
31
16.17
12
-0.08
22
-11.74
32
16.17
13
-0.99
23
-11.78
33
16.12
0
LWPOLYLINE
8
Polylines
70
1
90
4
10
-0.56
20
-9.91
30
16.62
10
0.62
20
-9.69
30
16.71
10
0.9
20
-11.34
30
16.13
10
-0.21
20
-11.28
30
16.17
0
3DFACE
8
Faces
10
-0.56
20
-9.91
30
16.62
11
0.62
21
-9.69
31
16.71
12
0.9
22
-11.34
32
16.13
13
-0.21
23
-11.28
33
16.17
0
LWPOLYLINE
8
Polylines
70
1
90
4
10
-0.21
20
-11.28
30
16.17
10
0.9
20
-11.34
30
16.13
10
0.99
20
-11.88
30
16.07
10
-0.08
20
-11.74
30
16.17
0
3DFACE
8
Faces
10
-0.21
20
-11.28
30
16.17
11
0.9
21
-11.34
31
16.13
12
0.99
22
-11.88
32
16.07
13
-0.08
23
-11.74
33
16.17
0
LWPOLYLINE
8
Polylines
70
1
90
4
10
4.33
20
-10.15
30
16.07
10
4.27
20
-12.33
30
15.2
10
2.37
20
-11.67
30
15.84
10
2.22
20
-9.77
30
16.57
0
3DFACE
8
Faces
10
4.33
20
-10.15
30
16.07
11
4.27
21
-12.33
31
15.2
12
2.37
22
-11.67
32
15.84
13
2.22
23
-9.77
33
16.57
0
LWPOLYLINE
8
Polylines
70
1
90
4
10
2.22
20
-9.77
30
16.57
10
2.37
20
-11.67
30
15.84
10
0.9
20
-11.34
30
16.13
10
0.62
20
-9.69
30
16.71
0
3DFACE
8
Faces
10
2.22
20
-9.77
30
16.57
11
2.37
21
-11.67
31
15.84
12
0.9
22
-11.34
32
16.13
13
0.62
23
-9.69
33
16.71
0
LWPOLYLINE
8
Polylines
70
1
90
4
10
4.27
20
-12.33
30
15.2
10
4.25
20
-13.04
30
15.04
10
2.4
20
-12.29
30
15.74
10
2.37
20
-11.67
30
15.84
0
3DFACE
8
Faces
10
4.27
20
-12.33
30
15.2
11
4.25
21
-13.04
31
15.04
12
2.4
22
-12.29
32
15.74
13
2.37
23
-11.67
33
15.84
0
LWPOLYLINE
8
Polylines
70
1
90
4
10
2.37
20
-11.67
30
15.84
10
2.4
20
-12.29
30
15.74
10
0.99
20
-11.88
30
16.07
10
0.9
20
-11.34
30
16.13
0
3DFACE
8
Faces
10
2.37
20
-11.67
30
15.84
11
2.4
21
-12.29
31
15.74
12
0.99
22
-11.88
32
16.07
13
0.9
23
-11.34
33
16.13
0
LWPOLYLINE
8
Polylines
70
1
90
4
10
4.36
20
-10.19
30
16.82
10
2.24
20
-9.79
30
17.31
10
2.38
20
-11.7
30
16.27
10
4.3
20
-12.36
30
15.63
0
3DFACE
8
Faces
10
4.36
20
-10.19
30
16.82
11
2.24
21
-9.79
31
17.31
12
2.38
22
-11.7
32
16.27
13
4.3
23
-12.36
33
15.63
0
LWPOLYLINE
8
Polylines
70
1
90
4
10
4.3
20
-12.36
30
15.63
10
2.38
20
-11.7
30
16.27
10
2.4
20
-12.29
30
15.74
10
4.25
20
-13.04
30
15.04
0
3DFACE
8
Faces
10
4.3
20
-12.36
30
15.63
11
2.38
21
-11.7
31
16.27
12
2.4
22
-12.29
32
15.74
13
4.25
23
-13.04
33
15.04
0
LWPOLYLINE
8
Polylines
70
1
90
4
10
2.24
20
-9.79
30
17.31
10
0.62
20
-9.71
30
17.45
10
0.91
20
-11.36
30
16.55
10
2.38
20
-11.7
30
16.27
0
3DFACE
8
Faces
10
2.24
20
-9.79
30
17.31
11
0.62
21
-9.71
31
17.45
12
0.91
22
-11.36
32
16.55
13
2.38
23
-11.7
33
16.27
0
LWPOLYLINE
8
Polylines
70
1
90
4
10
2.38
20
-11.7
30
16.27
10
0.91
20
-11.36
30
16.55
10
0.99
20
-11.88
30
16.07
10
2.4
20
-12.29
30
15.74
0
3DFACE
8
Faces
10
2.38
20
-11.7
30
16.27
11
0.91
21
-11.36
31
16.55
12
0.99
22
-11.88
32
16.07
13
2.4
23
-12.29
33
15.74
0
LWPOLYLINE
8
Polylines
70
1
90
4
10
-1.52
20
-10.27
30
17.18
10
-1.11
20
-11.42
30
16.51
10
-0.21
20
-11.3
30
16.6
10
-0.57
20
-9.93
30
17.36
0
3DFACE
8
Faces
10
-1.52
20
-10.27
30
17.18
11
-1.11
21
-11.42
31
16.51
12
-0.21
22
-11.3
32
16.6
13
-0.57
23
-9.93
33
17.36
0
LWPOLYLINE
8
Polylines
70
1
90
4
10
-0.57
20
-9.93
30
17.36
10
-0.21
20
-11.3
30
16.6
10
0.91
20
-11.36
30
16.55
10
0.62
20
-9.71
30
17.45
0
3DFACE
8
Faces
10
-0.57
20
-9.93
30
17.36
11
-0.21
21
-11.3
31
16.6
12
0.91
22
-11.36
32
16.55
13
0.62
23
-9.71
33
17.45
0
LWPOLYLINE
8
Polylines
70
1
90
4
10
-1.11
20
-11.42
30
16.51
10
-0.99
20
-11.78
30
16.12
10
-0.08
20
-11.74
30
16.17
10
-0.21
20
-11.3
30
16.6
0
3DFACE
8
Faces
10
-1.11
20
-11.42
30
16.51
11
-0.99
21
-11.78
31
16.12
12
-0.08
22
-11.74
32
16.17
13
-0.21
23
-11.3
33
16.6
0
LWPOLYLINE
8
Polylines
70
1
90
4
10
-0.21
20
-11.3
30
16.6
10
-0.08
20
-11.74
30
16.17
10
0.99
20
-11.88
30
16.07
10
0.91
20
-11.36
30
16.55
0
3DFACE
8
Faces
10
-0.21
20
-11.3
30
16.6
11
-0.08
21
-11.74
31
16.17
12
0.99
22
-11.88
32
16.07
13
0.91
23
-11.36
33
16.55
0
LWPOLYLINE
8
Polylines
70
1
90
4
10
4.33
20
-10.15
30
16.07
10
6.96
20
-10.88
30
15.01
10
6.66
20
-13.32
30
14.02
10
4.27
20
-12.33
30
15.2
0
3DFACE
8
Faces
10
4.33
20
-10.15
30
16.07
11
6.96
21
-10.88
31
15.01
12
6.66
22
-13.32
32
14.02
13
4.27
23
-12.33
33
15.2
0
LWPOLYLINE
8
Polylines
70
1
90
4
10
4.27
20
-12.33
30
15.2
10
6.66
20
-13.32
30
14.02
10
6.56
20
-14.11
30
13.81
10
4.25
20
-13.04
30
15.04
0
3DFACE
8
Faces
10
4.27
20
-12.33
30
15.2
11
6.66
21
-13.32
31
14.02
12
6.56
22
-14.11
32
13.81
13
4.25
23
-13.04
33
15.04
0
LWPOLYLINE
8
Polylines
70
1
90
4
10
6.96
20
-10.88
30
15.01
10
9.64
20
-11.1
30
13.8
10
9.16
20
-13.73
30
12.81
10
6.66
20
-13.32
30
14.02
0
3DFACE
8
Faces
10
6.96
20
-10.88
30
15.01
11
9.64
21
-11.1
31
13.8
12
9.16
22
-13.73
32
12.81
13
6.66
23
-13.32
33
14.02
0
LWPOLYLINE
8
Polylines
70
1
90
4
10
6.66
20
-13.32
30
14.02
10
9.16
20
-13.73
30
12.81
10
9.02
20
-14.62
30
12.57
10
6.56
20
-14.11
30
13.81
0
3DFACE
8
Faces
10
6.66
20
-13.32
30
14.02
11
9.16
21
-13.73
31
12.81
12
9.02
22
-14.62
32
12.57
13
6.56
23
-14.11
33
13.81
0
LWPOLYLINE
8
Polylines
70
1
90
4
10
13.6
20
-8.91
30
12.35
10
13.99
20
-10.31
30
11.68
10
11.68
20
-12.86
30
12.02
10
12.03
20
-10.28
30
12.85
0
3DFACE
8
Faces
10
13.6
20
-8.91
30
12.35
11
13.99
21
-10.31
31
11.68
12
11.68
22
-12.86
32
12.02
13
12.03
23
-10.28
33
12.85
0
LWPOLYLINE
8
Polylines
70
1
90
4
10
12.03
20
-10.28
30
12.85
10
11.68
20
-12.86
30
12.02
10
9.16
20
-13.73
30
12.81
10
9.64
20
-11.1
30
13.8
0
3DFACE
8
Faces
10
12.03
20
-10.28
30
12.85
11
11.68
21
-12.86
31
12.02
12
9.16
22
-13.73
32
12.81
13
9.64
23
-11.1
33
13.8
0
LWPOLYLINE
8
Polylines
70
1
90
4
10
13.99
20
-10.31
30
11.68
10
14.18
20
-11.02
30
11.45
10
11.62
20
-13.78
30
11.76
10
11.68
20
-12.86
30
12.02
0
3DFACE
8
Faces
10
13.99
20
-10.31
30
11.68
11
14.18
21
-11.02
31
11.45
12
11.62
22
-13.78
32
11.76
13
11.68
23
-12.86
33
12.02
0
LWPOLYLINE
8
Polylines
70
1
90
4
10
11.68
20
-12.86
30
12.02
10
11.62
20
-13.78
30
11.76
10
9.02
20
-14.62
30
12.57
10
9.16
20
-13.73
30
12.81
0
3DFACE
8
Faces
10
11.68
20
-12.86
30
12.02
11
11.62
21
-13.78
31
11.76
12
9.02
22
-14.62
32
12.57
13
9.16
23
-13.73
33
12.81
0
LWPOLYLINE
8
Polylines
70
1
90
4
10
13.67
20
-9.04
30
12.93
10
12.11
20
-10.41
30
13.54
10
11.74
20
-12.93
30
12.39
10
14.03
20
-10.4
30
12.03
0
3DFACE
8
Faces
10
13.67
20
-9.04
30
12.93
11
12.11
21
-10.41
31
13.54
12
11.74
22
-12.93
32
12.39
13
14.03
23
-10.4
33
12.03
0
LWPOLYLINE
8
Polylines
70
1
90
4
10
14.03
20
-10.4
30
12.03
10
11.74
20
-12.93
30
12.39
10
11.62
20
-13.78
30
11.76
10
14.18
20
-11.02
30
11.45
0
3DFACE
8
Faces
10
14.03
20
-10.4
30
12.03
11
11.74
21
-12.93
31
12.39
12
11.62
22
-13.78
32
11.76
13
14.18
23
-11.02
33
11.45
0
LWPOLYLINE
8
Polylines
70
1
90
4
10
12.11
20
-10.41
30
13.54
10
9.73
20
-11.2
30
14.55
10
9.23
20
-13.79
30
13.23
10
11.74
20
-12.93
30
12.39
0
3DFACE
8
Faces
10
12.11
20
-10.41
30
13.54
11
9.73
21
-11.2
31
14.55
12
9.23
22
-13.79
32
13.23
13
11.74
23
-12.93
33
12.39
0
LWPOLYLINE
8
Polylines
70
1
90
4
10
11.74
20
-12.93
30
12.39
10
9.23
20
-13.79
30
13.23
10
9.02
20
-14.62
30
12.57
10
11.62
20
-13.78
30
11.76
0
3DFACE
8
Faces
10
11.74
20
-12.93
30
12.39
11
9.23
21
-13.79
31
13.23
12
9.02
22
-14.62
32
12.57
13
11.62
23
-13.78
33
11.76
0
LWPOLYLINE
8
Polylines
70
1
90
4
10
4.36
20
-10.19
30
16.82
10
4.3
20
-12.36
30
15.63
10
6.71
20
-13.36
30
14.46
10
7.03
20
-10.94
30
15.78
0
3DFACE
8
Faces
10
4.36
20
-10.19
30
16.82
11
4.3
21
-12.36
31
15.63
12
6.71
22
-13.36
32
14.46
13
7.03
23
-10.94
33
15.78
0
LWPOLYLINE
8
Polylines
70
1
90
4
10
7.03
20
-10.94
30
15.78
10
6.71
20
-13.36
30
14.46
10
9.23
20
-13.79
30
13.23
10
9.73
20
-11.2
30
14.55
0
3DFACE
8
Faces
10
7.03
20
-10.94
30
15.78
11
6.71
21
-13.36
31
14.46
12
9.23
22
-13.79
32
13.23
13
9.73
23
-11.2
33
14.55
0
LWPOLYLINE
8
Polylines
70
1
90
4
10
4.3
20
-12.36
30
15.63
10
4.25
20
-13.04
30
15.04
10
6.56
20
-14.11
30
13.81
10
6.71
20
-13.36
30
14.46
0
3DFACE
8
Faces
10
4.3
20
-12.36
30
15.63
11
4.25
21
-13.04
31
15.04
12
6.56
22
-14.11
32
13.81
13
6.71
23
-13.36
33
14.46
0
LWPOLYLINE
8
Polylines
70
1
90
4
10
6.71
20
-13.36
30
14.46
10
6.56
20
-14.11
30
13.81
10
9.02
20
-14.62
30
12.57
10
9.23
20
-13.79
30
13.23
0
3DFACE
8
Faces
10
6.71
20
-13.36
30
14.46
11
6.56
21
-14.11
31
13.81
12
9.02
22
-14.62
32
12.57
13
9.23
23
-13.79
33
13.23
0
LWPOLYLINE
8
Polylines
70
1
90
4
10
13.6
20
-8.91
30
12.35
10
14.42
20
-5.83
30
12.46
10
15.45
20
-6.12
30
11.68
10
13.99
20
-10.31
30
11.68
0
3DFACE
8
Faces
10
13.6
20
-8.91
30
12.35
11
14.42
21
-5.83
31
12.46
12
15.45
22
-6.12
32
11.68
13
13.99
23
-10.31
33
11.68
0
LWPOLYLINE
8
Polylines
70
1
90
4
10
13.99
20
-10.31
30
11.68
10
15.45
20
-6.12
30
11.68
10
15.81
20
-6.47
30
11.5
10
14.18
20
-11.02
30
11.45
0
3DFACE
8
Faces
10
13.99
20
-10.31
30
11.68
11
15.45
21
-6.12
31
11.68
12
15.81
22
-6.47
32
11.5
13
14.18
23
-11.02
33
11.45
0
LWPOLYLINE
8
Polylines
70
1
90
4
10
14.42
20
-5.83
30
12.46
10
14.63
20
-1.75
30
12.77
10
15.7
20
-1.78
30
11.92
10
15.45
20
-6.12
30
11.68
0
3DFACE
8
Faces
10
14.42
20
-5.83
30
12.46
11
14.63
21
-1.75
31
12.77
12
15.7
22
-1.78
32
11.92
13
15.45
23
-6.12
33
11.68
0
LWPOLYLINE
8
Polylines
70
1
90
4
10
15.45
20
-6.12
30
11.68
10
15.7
20
-1.78
30
11.92
10
16.05
20
-1.81
30
11.82
10
15.81
20
-6.47
30
11.5
0
3DFACE
8
Faces
10
15.45
20
-6.12
30
11.68
11
15.7
21
-1.78
31
11.92
12
16.05
22
-1.81
32
11.82
13
15.81
23
-6.47
33
11.5
0
LWPOLYLINE
8
Polylines
70
1
90
4
10
12.91
20
5.67
30
13.77
10
13.18
20
7.01
30
13.38
10
14.96
20
2.6
30
12.63
10
13.99
20
2.42
30
13.33
0
3DFACE
8
Faces
10
12.91
20
5.67
30
13.77
11
13.18
21
7.01
31
13.38
12
14.96
22
2.6
32
12.63
13
13.99
23
2.42
33
13.33
0
LWPOLYLINE
8
Polylines
70
1
90
4
10
13.99
20
2.42
30
13.33
10
14.96
20
2.6
30
12.63
10
15.7
20
-1.78
30
11.92
10
14.63
20
-1.75
30
12.77
0
3DFACE
8
Faces
10
13.99
20
2.42
30
13.33
11
14.96
21
2.6
31
12.63
12
15.7
22
-1.78
32
11.92
13
14.63
23
-1.75
33
12.77
0
LWPOLYLINE
8
Polylines
70
1
90
4
10
13.18
20
7.01
30
13.38
10
13.32
20
7.72
30
13.28
10
15.27
20
2.9
30
12.54
10
14.96
20
2.6
30
12.63
0
3DFACE
8
Faces
10
13.18
20
7.01
30
13.38
11
13.32
21
7.72
31
13.28
12
15.27
22
2.9
32
12.54
13
14.96
23
2.6
33
12.63
0
LWPOLYLINE
8
Polylines
70
1
90
4
10
14.96
20
2.6
30
12.63
10
15.27
20
2.9
30
12.54
10
16.05
20
-1.81
30
11.82
10
15.7
20
-1.78
30
11.92
0
3DFACE
8
Faces
10
14.96
20
2.6
30
12.63
11
15.27
21
2.9
31
12.54
12
16.05
22
-1.81
32
11.82
13
15.7
23
-1.78
33
11.92
0
LWPOLYLINE
8
Polylines
70
1
90
4
10
12.97
20
5.75
30
14.36
10
14.07
20
2.47
30
14.07
10
15.02
20
2.64
30
13.03
10
13.22
20
7.07
30
13.73
0
3DFACE
8
Faces
10
12.97
20
5.75
30
14.36
11
14.07
21
2.47
31
14.07
12
15.02
22
2.64
32
13.03
13
13.22
23
7.07
33
13.73
0
LWPOLYLINE
8
Polylines
70
1
90
4
10
13.22
20
7.07
30
13.73
10
15.02
20
2.64
30
13.03
10
15.27
20
2.9
30
12.54
10
13.32
20
7.72
30
13.28
0
3DFACE
8
Faces
10
13.22
20
7.07
30
13.73
11
15.02
21
2.64
31
13.03
12
15.27
22
2.9
32
12.54
13
13.32
23
7.72
33
13.28
0
LWPOLYLINE
8
Polylines
70
1
90
4
10
14.07
20
2.47
30
14.07
10
14.74
20
-1.79
30
13.58
10
15.77
20
-1.82
30
12.38
10
15.02
20
2.64
30
13.03
0
3DFACE
8
Faces
10
14.07
20
2.47
30
14.07
11
14.74
21
-1.79
31
13.58
12
15.77
22
-1.82
32
12.38
13
15.02
23
2.64
33
13.03
0
LWPOLYLINE
8
Polylines
70
1
90
4
10
15.02
20
2.64
30
13.03
10
15.77
20
-1.82
30
12.38
10
16.05
20
-1.81
30
11.82
10
15.27
20
2.9
30
12.54
0
3DFACE
8
Faces
10
15.02
20
2.64
30
13.03
11
15.77
21
-1.82
31
12.38
12
16.05
22
-1.81
32
11.82
13
15.27
23
2.9
33
12.54
0
LWPOLYLINE
8
Polylines
70
1
90
4
10
13.67
20
-9.04
30
12.93
10
14.03
20
-10.4
30
12.03
10
15.5
20
-6.21
30
12.07
10
14.51
20
-5.96
30
13.19
0
3DFACE
8
Faces
10
13.67
20
-9.04
30
12.93
11
14.03
21
-10.4
31
12.03
12
15.5
22
-6.21
32
12.07
13
14.51
23
-5.96
33
13.19
0
LWPOLYLINE
8
Polylines
70
1
90
4
10
14.51
20
-5.96
30
13.19
10
15.5
20
-6.21
30
12.07
10
15.77
20
-1.82
30
12.38
10
14.74
20
-1.79
30
13.58
0
3DFACE
8
Faces
10
14.51
20
-5.96
30
13.19
11
15.5
21
-6.21
31
12.07
12
15.77
22
-1.82
32
12.38
13
14.74
23
-1.79
33
13.58
0
LWPOLYLINE
8
Polylines
70
1
90
4
10
14.03
20
-10.4
30
12.03
10
14.18
20
-11.02
30
11.45
10
15.81
20
-6.47
30
11.5
10
15.5
20
-6.21
30
12.07
0
3DFACE
8
Faces
10
14.03
20
-10.4
30
12.03
11
14.18
21
-11.02
31
11.45
12
15.81
22
-6.47
32
11.5
13
15.5
23
-6.21
33
12.07
0
LWPOLYLINE
8
Polylines
70
1
90
4
10
15.5
20
-6.21
30
12.07
10
15.81
20
-6.47
30
11.5
10
16.05
20
-1.81
30
11.82
10
15.77
20
-1.82
30
12.38
0
3DFACE
8
Faces
10
15.5
20
-6.21
30
12.07
11
15.81
21
-6.47
31
11.5
12
16.05
22
-1.81
32
11.82
13
15.77
23
-1.82
33
12.38
0
LWPOLYLINE
8
Polylines
70
1
90
4
10
12.91
20
5.67
30
13.77
10
11.18
20
7.4
30
14.41
10
10.64
20
10.09
30
13.94
10
13.18
20
7.01
30
13.38
0
3DFACE
8
Faces
10
12.91
20
5.67
30
13.77
11
11.18
21
7.4
31
14.41
12
10.64
22
10.09
32
13.94
13
13.18
23
7.01
33
13.38
0
LWPOLYLINE
8
Polylines
70
1
90
4
10
13.18
20
7.01
30
13.38
10
10.64
20
10.09
30
13.94
10
10.55
20
11.01
30
13.8
10
13.32
20
7.72
30
13.28
0
3DFACE
8
Faces
10
13.18
20
7.01
30
13.38
11
10.64
21
10.09
31
13.94
12
10.55
22
11.01
32
13.8
13
13.32
23
7.72
33
13.28
0
LWPOLYLINE
8
Polylines
70
1
90
4
10
11.18
20
7.4
30
14.41
10
8.5
20
8.84
30
15.27
10
7.85
20
11.65
30
14.51
10
10.64
20
10.09
30
13.94
0
3DFACE
8
Faces
10
11.18
20
7.4
30
14.41
11
8.5
21
8.84
31
15.27
12
7.85
22
11.65
32
14.51
13
10.64
23
10.09
33
13.94
0
LWPOLYLINE
8
Polylines
70
1
90
4
10
10.64
20
10.09
30
13.94
10
7.85
20
11.65
30
14.51
10
7.64
20
12.57
30
14.34
10
10.55
20
11.01
30
13.8
0
3DFACE
8
Faces
10
10.64
20
10.09
30
13.94
11
7.85
21
11.65
31
14.51
12
7.64
22
12.57
32
14.34
13
10.55
23
11.01
33
13.8
0
LWPOLYLINE
8
Polylines
70
1
90
4
10
1.7
20
9.41
30
16.71
10
2.1
20
11.91
30
15.74
10
4.9
20
12.02
30
15.21
10
5.33
20
9.37
30
16.14
0
3DFACE
8
Faces
10
1.7
20
9.41
30
16.71
11
2.1
21
11.91
31
15.74
12
4.9
22
12.02
32
15.21
13
5.33
23
9.37
33
16.14
0
LWPOLYLINE
8
Polylines
70
1
90
4
10
5.33
20
9.37
30
16.14
10
4.9
20
12.02
30
15.21
10
7.85
20
11.65
30
14.51
10
8.5
20
8.84
30
15.27
0
3DFACE
8
Faces
10
5.33
20
9.37
30
16.14
11
4.9
21
12.02
31
15.21
12
7.85
22
11.65
32
14.51
13
8.5
23
8.84
33
15.27
0
LWPOLYLINE
8
Polylines
70
1
90
4
10
2.1
20
11.91
30
15.74
10
2.18
20
12.61
30
15.6
10
4.84
20
12.85
30
15.02
10
4.9
20
12.02
30
15.21
0
3DFACE
8
Faces
10
2.1
20
11.91
30
15.74
11
2.18
21
12.61
31
15.6
12
4.84
22
12.85
32
15.02
13
4.9
23
12.02
33
15.21
0
LWPOLYLINE
8
Polylines
70
1
90
4
10
4.9
20
12.02
30
15.21
10
4.84
20
12.85
30
15.02
10
7.64
20
12.57
30
14.34
10
7.85
20
11.65
30
14.51
0
3DFACE
8
Faces
10
4.9
20
12.02
30
15.21
11
4.84
21
12.85
31
15.02
12
7.64
22
12.57
32
14.34
13
7.85
23
11.65
33
14.51
0
LWPOLYLINE
8
Polylines
70
1
90
4
10
1.72
20
9.43
30
17.56
10
5.37
20
9.41
30
16.93
10
4.94
20
12.05
30
15.67
10
2.11
20
11.93
30
16.19
0
3DFACE
8
Faces
10
1.72
20
9.43
30
17.56
11
5.37
21
9.41
31
16.93
12
4.94
22
12.05
32
15.67
13
2.11
23
11.93
33
16.19
0
LWPOLYLINE
8
Polylines
70
1
90
4
10
2.11
20
11.93
30
16.19
10
4.94
20
12.05
30
15.67
10
4.84
20
12.85
30
15.02
10
2.18
20
12.61
30
15.6
0
3DFACE
8
Faces
10
2.11
20
11.93
30
16.19
11
4.94
21
12.05
31
15.67
12
4.84
22
12.85
32
15.02
13
2.18
23
12.61
33
15.6
0
LWPOLYLINE
8
Polylines
70
1
90
4
10
5.37
20
9.41
30
16.93
10
8.56
20
8.9
30
16.03
10
7.9
20
11.69
30
14.92
10
4.94
20
12.05
30
15.67
0
3DFACE
8
Faces
10
5.37
20
9.41
30
16.93
11
8.56
21
8.9
31
16.03
12
7.9
22
11.69
32
14.92
13
4.94
23
12.05
33
15.67
0
LWPOLYLINE
8
Polylines
70
1
90
4
10
4.94
20
12.05
30
15.67
10
7.9
20
11.69
30
14.92
10
7.64
20
12.57
30
14.34
10
4.84
20
12.85
30
15.02
0
3DFACE
8
Faces
10
4.94
20
12.05
30
15.67
11
7.9
21
11.69
31
14.92
12
7.64
22
12.57
32
14.34
13
4.84
23
12.85
33
15.02
0
LWPOLYLINE
8
Polylines
70
1
90
4
10
12.97
20
5.75
30
14.36
10
13.22
20
7.07
30
13.73
10
10.68
20
10.14
30
14.31
10
11.24
20
7.48
30
15.1
0
3DFACE
8
Faces
10
12.97
20
5.75
30
14.36
11
13.22
21
7.07
31
13.73
12
10.68
22
10.14
32
14.31
13
11.24
23
7.48
33
15.1
0
LWPOLYLINE
8
Polylines
70
1
90
4
10
11.24
20
7.48
30
15.1
10
10.68
20
10.14
30
14.31
10
7.9
20
11.69
30
14.92
10
8.56
20
8.9
30
16.03
0
3DFACE
8
Faces
10
11.24
20
7.48
30
15.1
11
10.68
21
10.14
31
14.31
12
7.9
22
11.69
32
14.92
13
8.56
23
8.9
33
16.03
0
LWPOLYLINE
8
Polylines
70
1
90
4
10
13.22
20
7.07
30
13.73
10
13.32
20
7.72
30
13.28
10
10.55
20
11.01
30
13.8
10
10.68
20
10.14
30
14.31
0
3DFACE
8
Faces
10
13.22
20
7.07
30
13.73
11
13.32
21
7.72
31
13.28
12
10.55
22
11.01
32
13.8
13
10.68
23
10.14
33
14.31
0
LWPOLYLINE
8
Polylines
70
1
90
4
10
10.68
20
10.14
30
14.31
10
10.55
20
11.01
30
13.8
10
7.64
20
12.57
30
14.34
10
7.9
20
11.69
30
14.92
0
3DFACE
8
Faces
10
10.68
20
10.14
30
14.31
11
10.55
21
11.01
31
13.8
12
7.64
22
12.57
32
14.34
13
7.9
23
11.69
33
14.92
0
LWPOLYLINE
8
Polylines
70
1
90
4
10
1.7
20
9.41
30
16.71
10
-0.65
20
10.91
30
16.14
10
-0.15
20
12.15
30
15.72
10
2.1
20
11.91
30
15.74
0
3DFACE
8
Faces
10
1.7
20
9.41
30
16.71
11
-0.65
21
10.91
31
16.14
12
-0.15
22
12.15
32
15.72
13
2.1
23
11.91
33
15.74
0
LWPOLYLINE
8
Polylines
70
1
90
4
10
2.1
20
11.91
30
15.74
10
-0.15
20
12.15
30
15.72
10
-0.02
20
12.65
30
15.68
10
2.18
20
12.61
30
15.6
0
3DFACE
8
Faces
10
2.1
20
11.91
30
15.74
11
-0.15
21
12.15
31
15.72
12
-0.02
22
12.65
32
15.68
13
2.18
23
12.61
33
15.6
0
LWPOLYLINE
8
Polylines
70
1
90
4
10
-0.65
20
10.91
30
16.14
10
-2.28
20
11.65
30
15.68
10
-1.95
20
12.56
30
15.42
10
-0.15
20
12.15
30
15.72
0
3DFACE
8
Faces
10
-0.65
20
10.91
30
16.14
11
-2.28
21
11.65
31
15.68
12
-1.95
22
12.56
32
15.42
13
-0.15
23
12.15
33
15.72
0
LWPOLYLINE
8
Polylines
70
1
90
4
10
-0.15
20
12.15
30
15.72
10
-1.95
20
12.56
30
15.42
10
-1.84
20
12.88
30
15.48
10
-0.02
20
12.65
30
15.68
0
3DFACE
8
Faces
10
-0.15
20
12.15
30
15.72
11
-1.95
21
12.56
31
15.42
12
-1.84
22
12.88
32
15.48
13
-0.02
23
12.65
33
15.68
0
LWPOLYLINE
8
Polylines
70
1
90
4
10
-5.01
20
12.29
30
14.87
10
-4.82
20
13.22
30
14.58
10
-3.46
20
12.86
30
15.05
10
-3.73
20
11.99
30
15.3
0
3DFACE
8
Faces
10
-5.01
20
12.29
30
14.87
11
-4.82
21
13.22
31
14.58
12
-3.46
22
12.86
32
15.05
13
-3.73
23
11.99
33
15.3
0
LWPOLYLINE
8
Polylines
70
1
90
4
10
-3.73
20
11.99
30
15.3
10
-3.46
20
12.86
30
15.05
10
-1.95
20
12.56
30
15.42
10
-2.28
20
11.65
30
15.68
0
3DFACE
8
Faces
10
-3.73
20
11.99
30
15.3
11
-3.46
21
12.86
31
15.05
12
-1.95
22
12.56
32
15.42
13
-2.28
23
11.65
33
15.68
0
LWPOLYLINE
8
Polylines
70
1
90
4
10
-4.82
20
13.22
30
14.58
10
-4.76
20
13.54
30
14.64
10
-3.39
20
13.16
30
15.12
10
-3.46
20
12.86
30
15.05
0
3DFACE
8
Faces
10
-4.82
20
13.22
30
14.58
11
-4.76
21
13.54
31
14.64
12
-3.39
22
13.16
32
15.12
13
-3.46
23
12.86
33
15.05
0
LWPOLYLINE
8
Polylines
70
1
90
4
10
-3.46
20
12.86
30
15.05
10
-3.39
20
13.16
30
15.12
10
-1.84
20
12.88
30
15.48
10
-1.95
20
12.56
30
15.42
0
3DFACE
8
Faces
10
-3.46
20
12.86
30
15.05
11
-3.39
21
13.16
31
15.12
12
-1.84
22
12.88
32
15.48
13
-1.95
23
12.56
33
15.42
0
LWPOLYLINE
8
Polylines
70
1
90
4
10
-5.08
20
12.35
30
15.65
10
-3.78
20
12.04
30
16.08
10
-3.49
20
12.89
30
15.49
10
-4.86
20
13.26
30
15.02
0
3DFACE
8
Faces
10
-5.08
20
12.35
30
15.65
11
-3.78
21
12.04
31
16.08
12
-3.49
22
12.89
32
15.49
13
-4.86
23
13.26
33
15.02
0
LWPOLYLINE
8
Polylines
70
1
90
4
10
-4.86
20
13.26
30
15.02
10
-3.49
20
12.89
30
15.49
10
-3.39
20
13.16
30
15.12
10
-4.76
20
13.54
30
14.64
0
3DFACE
8
Faces
10
-4.86
20
13.26
30
15.02
11
-3.49
21
12.89
31
15.49
12
-3.39
22
13.16
32
15.12
13
-4.76
23
13.54
33
14.64
0
LWPOLYLINE
8
Polylines
70
1
90
4
10
-3.78
20
12.04
30
16.08
10
-2.31
20
11.69
30
16.47
10
-1.97
20
12.58
30
15.86
10
-3.49
20
12.89
30
15.49
0
3DFACE
8
Faces
10
-3.78
20
12.04
30
16.08
11
-2.31
21
11.69
31
16.47
12
-1.97
22
12.58
32
15.86
13
-3.49
23
12.89
33
15.49
0
LWPOLYLINE
8
Polylines
70
1
90
4
10
-3.49
20
12.89
30
15.49
10
-1.97
20
12.58
30
15.86
10
-1.84
20
12.88
30
15.48
10
-3.39
20
13.16
30
15.12
0
3DFACE
8
Faces
10
-3.49
20
12.89
30
15.49
11
-1.97
21
12.58
31
15.86
12
-1.84
22
12.88
32
15.48
13
-3.39
23
13.16
33
15.12
0
LWPOLYLINE
8
Polylines
70
1
90
4
10
1.72
20
9.43
30
17.56
10
2.11
20
11.93
30
16.19
10
-0.15
20
12.18
30
16.17
10
-0.66
20
10.95
30
16.95
0
3DFACE
8
Faces
10
1.72
20
9.43
30
17.56
11
2.11
21
11.93
31
16.19
12
-0.15
22
12.18
32
16.17
13
-0.66
23
10.95
33
16.95
0
LWPOLYLINE
8
Polylines
70
1
90
4
10
-0.66
20
10.95
30
16.95
10
-0.15
20
12.18
30
16.17
10
-1.97
20
12.58
30
15.86
10
-2.31
20
11.69
30
16.47
0
3DFACE
8
Faces
10
-0.66
20
10.95
30
16.95
11
-0.15
21
12.18
31
16.17
12
-1.97
22
12.58
32
15.86
13
-2.31
23
11.69
33
16.47
0
LWPOLYLINE
8
Polylines
70
1
90
4
10
2.11
20
11.93
30
16.19
10
2.18
20
12.61
30
15.6
10
-0.02
20
12.65
30
15.68
10
-0.15
20
12.18
30
16.17
0
3DFACE
8
Faces
10
2.11
20
11.93
30
16.19
11
2.18
21
12.61
31
15.6
12
-0.02
22
12.65
32
15.68
13
-0.15
23
12.18
33
16.17
0
LWPOLYLINE
8
Polylines
70
1
90
4
10
-0.15
20
12.18
30
16.17
10
-0.02
20
12.65
30
15.68
10
-1.84
20
12.88
30
15.48
10
-1.97
20
12.58
30
15.86
0
3DFACE
8
Faces
10
-0.15
20
12.18
30
16.17
11
-0.02
21
12.65
31
15.68
12
-1.84
22
12.88
32
15.48
13
-1.97
23
12.58
33
15.86
0
LWPOLYLINE
8
Polylines
70
1
90
4
10
-5.01
20
12.29
30
14.87
10
-6.21
20
12.79
30
14.27
10
-6.06
20
13.69
30
13.97
10
-4.82
20
13.22
30
14.58
0
3DFACE
8
Faces
10
-5.01
20
12.29
30
14.87
11
-6.21
21
12.79
31
14.27
12
-6.06
22
13.69
32
13.97
13
-4.82
23
13.22
33
14.58
0
LWPOLYLINE
8
Polylines
70
1
90
4
10
-4.82
20
13.22
30
14.58
10
-6.06
20
13.69
30
13.97
10
-6.01
20
14.03
30
14.03
10
-4.76
20
13.54
30
14.64
0
3DFACE
8
Faces
10
-4.82
20
13.22
30
14.58
11
-6.06
21
13.69
31
13.97
12
-6.01
22
14.03
32
14.03
13
-4.76
23
13.54
33
14.64
0
LWPOLYLINE
8
Polylines
70
1
90
4
10
-6.21
20
12.79
30
14.27
10
-7.2
20
13.09
30
13.79
10
-7.11
20
13.97
30
13.48
10
-6.06
20
13.69
30
13.97
0
3DFACE
8
Faces
10
-6.21
20
12.79
30
14.27
11
-7.2
21
13.09
31
13.79
12
-7.11
22
13.97
32
13.48
13
-6.06
23
13.69
33
13.97
0
LWPOLYLINE
8
Polylines
70
1
90
4
10
-6.06
20
13.69
30
13.97
10
-7.11
20
13.97
30
13.48
10
-7.11
20
14.27
30
13.53
10
-6.01
20
14.03
30
14.03
0
3DFACE
8
Faces
10
-6.06
20
13.69
30
13.97
11
-7.11
21
13.97
31
13.48
12
-7.11
22
14.27
32
13.53
13
-6.01
23
14.03
33
14.03
0
LWPOLYLINE
8
Polylines
70
1
90
4
10
-8.37
20
12.22
30
13.92
10
-8.55
20
12.75
30
13.69
10
-7.94
20
13.7
30
13.37
10
-7.93
20
12.8
30
13.72
0
3DFACE
8
Faces
10
-8.37
20
12.22
30
13.92
11
-8.55
21
12.75
31
13.69
12
-7.94
22
13.7
32
13.37
13
-7.93
23
12.8
33
13.72
0
LWPOLYLINE
8
Polylines
70
1
90
4
10
-7.93
20
12.8
30
13.72
10
-7.94
20
13.7
30
13.37
10
-7.11
20
13.97
30
13.48
10
-7.2
20
13.09
30
13.79
0
3DFACE
8
Faces
10
-7.93
20
12.8
30
13.72
11
-7.94
21
13.7
31
13.37
12
-7.11
22
13.97
32
13.48
13
-7.2
23
13.09
33
13.79
0
LWPOLYLINE
8
Polylines
70
1
90
4
10
-8.55
20
12.75
30
13.69
10
-8.66
20
13.04
30
13.67
10
-7.99
20
14.03
30
13.36
10
-7.94
20
13.7
30
13.37
0
3DFACE
8
Faces
10
-8.55
20
12.75
30
13.69
11
-8.66
21
13.04
31
13.67
12
-7.99
22
14.03
32
13.36
13
-7.94
23
13.7
33
13.37
0
LWPOLYLINE
8
Polylines
70
1
90
4
10
-7.94
20
13.7
30
13.37
10
-7.99
20
14.03
30
13.36
10
-7.11
20
14.27
30
13.53
10
-7.11
20
13.97
30
13.48
0
3DFACE
8
Faces
10
-7.94
20
13.7
30
13.37
11
-7.99
21
14.03
31
13.36
12
-7.11
22
14.27
32
13.53
13
-7.11
23
13.97
33
13.48
0
LWPOLYLINE
8
Polylines
70
1
90
4
10
-8.44
20
12.28
30
14.49
10
-8.02
20
12.88
30
14.4
10
-7.99
20
13.75
30
13.74
10
-8.6
20
12.79
30
14.03
0
3DFACE
8
Faces
10
-8.44
20
12.28
30
14.49
11
-8.02
21
12.88
31
14.4
12
-7.99
22
13.75
32
13.74
13
-8.6
23
12.79
33
14.03
0
LWPOLYLINE
8
Polylines
70
1
90
4
10
-8.6
20
12.79
30
14.03
10
-7.99
20
13.75
30
13.74
10
-7.99
20
14.03
30
13.36
10
-8.66
20
13.04
30
13.67
0
3DFACE
8
Faces
10
-8.6
20
12.79
30
14.03
11
-7.99
21
13.75
31
13.74
12
-7.99
22
14.03
32
13.36
13
-8.66
23
13.04
33
13.67
0
LWPOLYLINE
8
Polylines
70
1
90
4
10
-8.02
20
12.88
30
14.4
10
-7.3
20
13.17
30
14.55
10
-7.17
20
14.02
30
13.9
10
-7.99
20
13.75
30
13.74
0
3DFACE
8
Faces
10
-8.02
20
12.88
30
14.4
11
-7.3
21
13.17
31
14.55
12
-7.17
22
14.02
32
13.9
13
-7.99
23
13.75
33
13.74
0
LWPOLYLINE
8
Polylines
70
1
90
4
10
-7.99
20
13.75
30
13.74
10
-7.17
20
14.02
30
13.9
10
-7.11
20
14.27
30
13.53
10
-7.99
20
14.03
30
13.36
0
3DFACE
8
Faces
10
-7.99
20
13.75
30
13.74
11
-7.17
21
14.02
31
13.9
12
-7.11
22
14.27
32
13.53
13
-7.99
23
14.03
33
13.36
0
LWPOLYLINE
8
Polylines
70
1
90
4
10
-5.08
20
12.35
30
15.65
10
-4.86
20
13.26
30
15.02
10
-6.11
20
13.74
30
14.42
10
-6.3
20
12.86
30
15.05
0
3DFACE
8
Faces
10
-5.08
20
12.35
30
15.65
11
-4.86
21
13.26
31
15.02
12
-6.11
22
13.74
32
14.42
13
-6.3
23
12.86
33
15.05
0
LWPOLYLINE
8
Polylines
70
1
90
4
10
-6.3
20
12.86
30
15.05
10
-6.11
20
13.74
30
14.42
10
-7.17
20
14.02
30
13.9
10
-7.3
20
13.17
30
14.55
0
3DFACE
8
Faces
10
-6.3
20
12.86
30
15.05
11
-6.11
21
13.74
31
14.42
12
-7.17
22
14.02
32
13.9
13
-7.3
23
13.17
33
14.55
0
LWPOLYLINE
8
Polylines
70
1
90
4
10
-4.86
20
13.26
30
15.02
10
-4.76
20
13.54
30
14.64
10
-6.01
20
14.03
30
14.03
10
-6.11
20
13.74
30
14.42
0
3DFACE
8
Faces
10
-4.86
20
13.26
30
15.02
11
-4.76
21
13.54
31
14.64
12
-6.01
22
14.03
32
14.03
13
-6.11
23
13.74
33
14.42
0
LWPOLYLINE
8
Polylines
70
1
90
4
10
-6.11
20
13.74
30
14.42
10
-6.01
20
14.03
30
14.03
10
-7.11
20
14.27
30
13.53
10
-7.17
20
14.02
30
13.9
0
3DFACE
8
Faces
10
-6.11
20
13.74
30
14.42
11
-6.01
21
14.03
31
14.03
12
-7.11
22
14.27
32
13.53
13
-7.17
23
14.02
33
13.9
0
LINE
8
Lines
10
-15.1
20
10.99
30
9.26
11
-12.48
21
12.5
31
10.53
0
LINE
8
Lines
10
-12.48
20
12.5
30
10.53
11
-9.92
21
13.57
31
11.43
0
LINE
8
Lines
10
-9.92
20
13.57
30
11.43
11
-7.47
21
14.3
31
12.05
0
LINE
8
Lines
10
-15.51
20
9.36
30
9.52
11
-13.02
21
10.81
31
10.99
0
LINE
8
Lines
10
-13.02
20
10.81
30
10.99
11
-10.48
21
11.89
31
12.09
0
LINE
8
Lines
10
-10.48
20
11.89
30
12.09
11
-7.98
21
12.66
31
12.87
0
LINE
8
Lines
10
-15.8
20
7.84
30
9.7
11
-13.44
21
9.18
31
11.34
0
LINE
8
Lines
10
-13.44
20
9.18
30
11.34
11
-10.95
21
10.22
31
12.63
0
LINE
8
Lines
10
-10.95
20
10.22
30
12.63
11
-8.42
21
10.99
31
13.58
0
LINE
8
Lines
10
-15.99
20
6.43
30
9.81
11
-13.75
21
7.6
31
11.61
0
LINE
8
Lines
10
-13.75
20
7.6
30
11.61
11
-11.33
21
8.55
31
13.06
0
LINE
8
Lines
10
-11.33
20
8.55
30
13.06
11
-8.79
21
9.28
31
14.17
0
LINE
8
Lines
10
-7.47
20
14.3
30
12.05
11
-5.16
21
14.77
31
12.45
0
LINE
8
Lines
10
-5.16
20
14.77
30
12.45
11
-2.94
21
15.05
31
12.68
0
LINE
8
Lines
10
-2.94
20
15.05
30
12.68
11
-0.79
21
15.17
31
12.78
0
LINE
8
Lines
10
-0.79
20
15.17
30
12.78
11
1.35
21
15.15
31
12.77
0
LINE
8
Lines
10
1.35
20
15.15
30
12.77
11
3.51
21
14.99
31
12.63
0
LINE
8
Lines
10
3.51
20
14.99
30
12.63
11
5.75
21
14.67
31
12.36
0
LINE
8
Lines
10
5.75
20
14.67
30
12.36
11
8.1
21
14.13
31
11.91
0
LINE
8
Lines
10
8.1
20
14.13
30
11.91
11
10.57
21
13.33
31
11.23
0
LINE
8
Lines
10
10.57
20
13.33
30
11.23
11
13.16
21
12.15
31
10.24
0
LINE
8
Lines
10
13.16
20
12.15
30
10.24
11
15.77
21
10.52
31
8.87
0
LINE
8
Lines
10
15.77
20
10.52
30
8.87
11
18.25
21
8.35
31
7.04
0
LINE
8
Lines
10
-7.98
20
12.66
30
12.87
11
-5.55
21
13.18
31
13.4
0
LINE
8
Lines
10
-5.55
20
13.18
30
13.4
11
-3.18
21
13.49
31
13.71
0
LINE
8
Lines
10
-3.18
20
13.49
30
13.71
11
-0.86
21
13.63
31
13.85
0
LINE
8
Lines
10
-0.86
20
13.63
30
13.85
11
1.46
21
13.61
31
13.83
0
LINE
8
Lines
10
1.46
20
13.61
30
13.83
11
3.79
21
13.43
31
13.65
0
LINE
8
Lines
10
3.79
20
13.43
30
13.65
11
6.18
21
13.07
31
13.28
0
LINE
8
Lines
10
6.18
20
13.07
30
13.28
11
8.63
21
12.49
31
12.69
0
LINE
8
Lines
10
8.63
20
12.49
30
12.69
11
11.14
21
11.64
31
11.83
0
LINE
8
Lines
10
11.14
20
11.64
30
11.83
11
13.68
21
10.47
31
10.64
0
LINE
8
Lines
10
13.68
20
10.47
30
10.64
11
16.14
21
8.92
31
9.07
0
LINE
8
Lines
10
16.14
20
8.92
30
9.07
11
18.38
21
6.97
31
7.09
0
LINE
8
Lines
10
-8.42
20
10.99
30
13.58
11
-5.9
21
11.52
31
14.24
0
LINE
8
Lines
10
-5.9
20
11.52
30
14.24
11
-3.4
21
11.85
31
14.65
0
LINE
8
Lines
10
-3.4
20
11.85
30
14.65
11
-0.92
21
12.0
31
14.83
0
LINE
8
Lines
10
-0.92
20
12.0
30
14.83
11
1.56
21
11.98
31
14.8
0
LINE
8
Lines
10
1.56
20
11.98
30
14.8
11
4.04
21
11.78
31
14.56
0
LINE
8
Lines
10
4.04
20
11.78
30
14.56
11
6.55
21
11.4
31
14.09
0
LINE
8
Lines
10
6.55
20
11.4
30
14.09
11
9.08
21
10.81
31
13.36
0
LINE
8
Lines
10
9.08
20
10.81
30
13.36
11
11.6
21
9.97
31
12.33
0
LINE
8
Lines
10
11.6
20
9.97
30
12.33
11
14.07
21
8.86
31
10.95
0
LINE
8
Lines
10
14.07
20
8.86
30
10.95
11
16.38
21
7.45
31
9.21
0
LINE
8
Lines
10
16.38
20
7.45
30
9.21
11
18.42
21
5.75
31
7.1
0
LINE
8
Lines
10
-8.79
20
9.28
30
14.17
11
-6.2
21
9.8
31
14.97
0
LINE
8
Lines
10
-6.2
20
9.8
30
14.97
11
-3.59
21
10.13
31
15.47
0
LINE
8
Lines
10
-3.59
20
10.13
30
15.47
11
-0.97
21
10.28
31
15.7
0
LINE
8
Lines
10
-0.97
20
10.28
30
15.7
11
1.65
21
10.26
31
15.66
0
LINE
8
Lines
10
1.65
20
10.26
30
15.66
11
4.27
21
10.06
31
15.36
0
LINE
8
Lines
10
4.27
20
10.06
30
15.36
11
6.88
21
9.69
31
14.79
0
LINE
8
Lines
10
6.88
20
9.69
30
14.79
11
9.46
21
9.11
31
13.91
0
LINE
8
Lines
10
9.46
20
9.11
30
13.91
11
11.97
21
8.33
31
12.71
0
LINE
8
Lines
10
11.97
20
8.33
30
12.71
11
14.36
21
7.32
31
11.17
0
LINE
8
Lines
10
14.36
20
7.32
30
11.17
11
16.53
21
6.09
31
9.29
0
LINE
8
Lines
10
16.53
20
6.09
30
9.29
11
18.41
21
4.65
31
7.1
0
LINE
8
Lines
10
-16.12
20
5.1
30
9.89
11
-13.98
21
6.09
31
11.8
0
LINE
8
Lines
10
-13.98
20
6.09
30
11.8
11
-11.62
21
6.91
31
13.4
0
LINE
8
Lines
10
-11.62
20
6.91
30
13.4
11
-9.09
21
7.56
31
14.65
0
LINE
8
Lines
10
-9.09
20
7.56
30
14.65
11
-6.45
21
8.04
31
15.57
0
LINE
8
Lines
10
-6.45
20
8.04
30
15.57
11
-3.75
21
8.34
31
16.17
0
LINE
8
Lines
10
-3.75
20
8.34
30
16.17
11
-1.01
21
8.48
31
16.44
0
LINE
8
Lines
10
-1.01
20
8.48
30
16.44
11
1.73
21
8.46
31
16.4
0
LINE
8
Lines
10
1.73
20
8.46
30
16.4
11
4.46
21
8.28
31
16.04
0
LINE
8
Lines
10
4.46
20
8.28
30
16.04
11
7.14
21
7.93
31
15.37
0
LINE
8
Lines
10
7.14
20
7.93
30
15.37
11
9.76
21
7.41
31
14.36
0
LINE
8
Lines
10
9.76
20
7.41
30
14.36
11
12.25
21
6.71
31
13.01
0
LINE
8
Lines
10
12.25
20
6.71
30
13.01
11
14.56
21
5.85
31
11.34
0
LINE
8
Lines
10
14.56
20
5.85
30
11.34
11
16.63
21
4.82
31
9.35
0
LINE
8
Lines
10
16.63
20
4.82
30
9.35
11
18.38
21
3.66
31
7.09
0
LINE
8
Lines
10
-16.2
20
3.86
30
9.94
11
-14.15
21
4.63
31
11.94
0
LINE
8
Lines
10
-14.15
20
4.63
30
11.94
11
-11.84
21
5.3
31
13.65
0
LINE
8
Lines
10
-11.84
20
5.3
30
13.65
11
-9.32
21
5.83
31
15.03
0
LINE
8
Lines
10
-9.32
20
5.83
30
15.03
11
-6.65
21
6.23
31
16.06
0
LINE
8
Lines
10
-6.65
20
6.23
30
16.06
11
-3.88
21
6.49
31
16.73
0
LINE
8
Lines
10
-3.88
20
6.49
30
16.73
11
-1.05
21
6.62
31
17.05
0
LINE
8
Lines
10
-1.05
20
6.62
30
17.05
11
1.79
21
6.6
31
17.0
0
LINE
8
Lines
10
1.79
20
6.6
30
17.0
11
4.61
21
6.44
31
16.59
0
LINE
8
Lines
10
4.61
20
6.44
30
16.59
11
7.36
21
6.14
31
15.82
0
LINE
8
Lines
10
7.36
20
6.14
30
15.82
11
9.99
21
5.7
31
14.7
0
LINE
8
Lines
10
9.99
20
5.7
30
14.7
11
12.46
21
5.14
31
13.23
0
LINE
8
Lines
10
12.46
20
5.14
30
13.23
11
14.71
21
4.44
31
11.45
0
LINE
8
Lines
10
14.71
20
4.44
30
11.45
11
16.68
21
3.64
31
9.37
0
LINE
8
Lines
10
16.68
20
3.64
30
9.37
11
18.33
21
2.74
31
7.07
0
LINE
8
Lines
10
-16.24
20
2.67
30
9.97
11
-14.26
21
3.22
31
12.03
0
LINE
8
Lines
10
-14.26
20
3.22
30
12.03
11
-11.99
21
3.71
31
13.83
0
LINE
8
Lines
10
-11.99
20
3.71
30
13.83
11
-9.49
21
4.1
31
15.3
0
LINE
8
Lines
10
-9.49
20
4.1
30
15.3
11
-6.8
21
4.4
31
16.42
0
LINE
8
Lines
10
-6.8
20
4.4
30
16.42
11
-3.98
21
4.6
31
17.16
0
LINE
8
Lines
10
-3.98
20
4.6
30
17.16
11
-1.08
21
4.69
31
17.51
0
LINE
8
Lines
10
-1.08
20
4.69
30
17.51
11
1.84
21
4.68
31
17.46
0
LINE
8
Lines
10
1.84
20
4.68
30
17.46
11
4.72
21
4.56
31
17.01
0
LINE
8
Lines
10
4.72
20
4.56
30
17.01
11
7.52
21
4.33
31
16.16
0
LINE
8
Lines
10
7.52
20
4.33
30
16.16
11
10.16
21
4.01
31
14.95
0
LINE
8
Lines
10
10.16
20
4.01
30
14.95
11
12.61
21
3.59
31
13.39
0
LINE
8
Lines
10
12.61
20
3.59
30
13.39
11
14.8
21
3.09
31
11.52
0
LINE
8
Lines
10
14.8
20
3.09
30
11.52
11
16.71
21
2.52
31
9.39
0
LINE
8
Lines
10
16.71
20
2.52
30
9.39
11
18.29
21
1.89
31
7.05
0
LINE
8
Lines
10
-16.26
20
1.53
30
9.98
11
-14.32
21
1.85
31
12.09
0
LINE
8
Lines
10
-14.32
20
1.85
30
12.09
11
-12.09
21
2.13
31
13.94
0
LINE
8
Lines
10
-12.09
20
2.13
30
13.94
11
-9.6
21
2.37
31
15.47
0
LINE
8
Lines
10
-9.6
20
2.37
30
15.47
11
-6.9
21
2.55
31
16.65
0
LINE
8
Lines
10
-6.9
20
2.55
30
16.65
11
-4.05
21
2.67
31
17.44
0
LINE
8
Lines
10
-4.05
20
2.67
30
17.44
11
-1.1
21
2.73
31
17.81
0
LINE
8
Lines
10
-1.1
20
2.73
30
17.81
11
1.87
21
2.72
31
17.76
0
LINE
8
Lines
10
1.87
20
2.72
30
17.76
11
4.8
21
2.65
31
17.28
0
LINE
8
Lines
10
4.8
20
2.65
30
17.28
11
7.62
21
2.51
31
16.38
0
LINE
8
Lines
10
7.62
20
2.51
30
16.38
11
10.27
21
2.31
31
15.11
0
LINE
8
Lines
10
10.27
20
2.31
30
15.11
11
12.7
21
2.06
31
13.49
0
LINE
8
Lines
10
12.7
20
2.06
30
13.49
11
14.86
21
1.77
31
11.56
0
LINE
8
Lines
10
14.86
20
1.77
30
11.56
11
16.72
21
1.44
31
9.4
0
LINE
8
Lines
10
16.72
20
1.44
30
9.4
11
18.26
21
1.08
31
7.04
0
LINE
8
Lines
10
-16.27
20
0.41
30
9.99
11
-14.35
21
0.5
31
12.11
0
LINE
8
Lines
10
-14.35
20
0.5
30
12.11
11
-12.13
21
0.58
31
13.99
0
LINE
8
Lines
10
-12.13
20
0.58
30
13.99
11
-9.65
21
0.64
31
15.56
0
LINE
8
Lines
10
-9.65
20
0.64
30
15.56
11
-6.94
21
0.69
31
16.76
0
LINE
8
Lines
10
-6.94
20
0.69
30
16.76
11
-4.08
21
0.72
31
17.57
0
LINE
8
Lines
10
-4.08
20
0.72
30
17.57
11
-1.11
21
0.74
31
17.96
0
LINE
8
Lines
10
-1.11
20
0.74
30
17.96
11
1.89
21
0.74
31
17.9
0
LINE
8
Lines
10
1.89
20
0.74
30
17.9
11
4.83
21
0.72
31
17.4
0
LINE
8
Lines
10
4.83
20
0.72
30
17.4
11
7.67
21
0.68
31
16.49
0
LINE
8
Lines
10
7.67
20
0.68
30
16.49
11
10.32
21
0.62
31
15.18
0
LINE
8
Lines
10
10.32
20
0.62
30
15.18
11
12.74
21
0.56
31
13.53
0
LINE
8
Lines
10
12.74
20
0.56
30
13.53
11
14.88
21
0.48
31
11.58
0
LINE
8
Lines
10
14.88
20
0.48
30
11.58
11
16.72
21
0.39
31
9.4
0
LINE
8
Lines
10
16.72
20
0.39
30
9.4
11
18.24
21
0.29
31
7.03
0
LINE
8
Lines
10
-16.27
20
-0.7
30
9.99
11
-14.35
21
-0.85
31
12.11
0
LINE
8
Lines
10
-14.35
20
-0.85
30
12.11
11
-12.13
21
-0.98
31
13.98
0
LINE
8
Lines
10
-12.13
20
-0.98
30
13.98
11
-9.64
21
-1.09
31
15.54
0
LINE
8
Lines
10
-9.64
20
-1.09
30
15.54
11
-6.94
21
-1.17
31
16.75
0
LINE
8
Lines
10
-6.94
20
-1.17
30
16.75
11
-4.07
21
-1.23
31
17.56
0
LINE
8
Lines
10
-4.07
20
-1.23
30
17.56
11
-1.11
21
-1.26
31
17.94
0
LINE
8
Lines
10
-1.11
20
-1.26
30
17.94
11
1.88
21
-1.25
31
17.88
0
LINE
8
Lines
10
1.88
20
-1.25
30
17.88
11
4.83
21
-1.22
31
17.39
0
LINE
8
Lines
10
4.83
20
-1.22
30
17.39
11
7.66
21
-1.15
31
16.47
0
LINE
8
Lines
10
7.66
20
-1.15
30
16.47
11
10.31
21
-1.06
31
15.17
0
LINE
8
Lines
10
10.31
20
-1.06
30
15.17
11
12.73
21
-0.95
31
13.52
0
LINE
8
Lines
10
12.73
20
-0.95
30
13.52
11
14.88
21
-0.81
31
11.58
0
LINE
8
Lines
10
14.88
20
-0.81
30
11.58
11
16.72
21
-0.66
31
9.4
0
LINE
8
Lines
10
16.72
20
-0.66
30
9.4
11
18.25
21
-0.49
31
7.03
0
LINE
8
Lines
10
-16.26
20
-1.82
30
9.98
11
-14.31
21
-2.21
31
12.08
0
LINE
8
Lines
10
-14.31
20
-2.21
30
12.08
11
-12.07
21
-2.54
31
13.91
0
LINE
8
Lines
10
-12.07
20
-2.54
30
13.91
11
-9.58
21
-2.82
31
15.44
0
LINE
8
Lines
10
-9.58
20
-2.82
30
15.44
11
-6.88
21
-3.03
31
16.61
0
LINE
8
Lines
10
-6.88
20
-3.03
30
16.61
11
-4.03
21
-3.17
31
17.38
0
LINE
8
Lines
10
-4.03
20
-3.17
30
17.38
11
-1.1
21
-3.24
31
17.75
0
LINE
8
Lines
10
-1.1
20
-3.24
30
17.75
11
1.86
21
-3.23
31
17.7
0
LINE
8
Lines
10
1.86
20
-3.23
30
17.7
11
4.78
21
-3.14
31
17.22
0
LINE
8
Lines
10
4.78
20
-3.14
30
17.22
11
7.6
21
-2.98
31
16.34
0
LINE
8
Lines
10
7.6
20
-2.98
30
16.34
11
10.25
21
-2.75
31
15.08
0
LINE
8
Lines
10
10.25
20
-2.75
30
15.08
11
12.68
21
-2.46
31
13.47
0
LINE
8
Lines
10
12.68
20
-2.46
30
13.47
11
14.85
21
-2.11
31
11.55
0
LINE
8
Lines
10
14.85
20
-2.11
30
11.55
11
16.72
21
-1.72
31
9.4
0
LINE
8
Lines
10
16.72
20
-1.72
30
9.4
11
18.27
21
-1.29
31
7.04
0
LINE
8
Lines
10
-16.23
20
-2.97
30
9.96
11
-14.23
21
-3.59
31
12.01
0
LINE
8
Lines
10
-14.23
20
-3.59
30
12.01
11
-11.96
21
-4.12
31
13.79
0
LINE
8
Lines
10
-11.96
20
-4.12
30
13.79
11
-9.45
21
-4.55
31
15.24
0
LINE
8
Lines
10
-9.45
20
-4.55
30
15.24
11
-6.77
21
-4.88
31
16.34
0
LINE
8
Lines
10
-6.77
20
-4.88
30
16.34
11
-3.96
21
-5.1
31
17.06
0
LINE
8
Lines
10
-3.96
20
-5.1
30
17.06
11
-1.07
21
-5.2
31
17.4
0
LINE
8
Lines
10
-1.07
20
-5.2
30
17.4
11
1.83
21
-5.18
31
17.35
0
LINE
8
Lines
10
1.83
20
-5.18
30
17.35
11
4.7
21
-5.05
31
16.91
0
LINE
8
Lines
10
4.7
20
-5.05
30
16.91
11
7.48
21
-4.8
31
16.09
0
LINE
8
Lines
10
7.48
20
-4.8
30
16.09
11
10.12
21
-4.45
31
14.89
0
LINE
8
Lines
10
10.12
20
-4.45
30
14.89
11
12.57
21
-3.99
31
13.35
0
LINE
8
Lines
10
12.57
20
-3.99
30
13.35
11
14.78
21
-3.44
31
11.5
0
LINE
8
Lines
10
14.78
20
-3.44
30
11.5
11
16.7
21
-2.8
31
9.39
0
LINE
8
Lines
10
16.7
20
-2.8
30
9.39
11
18.3
21
-2.11
31
7.06
0
LINE
8
Lines
10
-16.18
20
-4.17
30
9.93
11
-14.11
21
-5.01
31
11.91
0
LINE
8
Lines
10
-14.11
20
-5.01
30
11.91
11
-11.79
21
-5.71
31
13.59
0
LINE
8
Lines
10
-11.79
20
-5.71
30
13.59
11
-9.27
21
-6.28
31
14.94
0
LINE
8
Lines
10
-9.27
20
-6.28
30
14.94
11
-6.61
21
-6.7
31
15.94
0
LINE
8
Lines
10
-6.61
20
-6.7
30
15.94
11
-3.85
21
-6.98
31
16.6
0
LINE
8
Lines
10
-3.85
20
-6.98
30
16.6
11
-1.04
21
-7.11
31
16.9
0
LINE
8
Lines
10
-1.04
20
-7.11
30
16.9
11
1.78
21
-7.09
31
16.86
0
LINE
8
Lines
10
1.78
20
-7.09
30
16.86
11
4.57
21
-6.92
31
16.46
0
LINE
8
Lines
10
4.57
20
-6.92
30
16.46
11
7.31
21
-6.61
31
15.72
0
LINE
8
Lines
10
7.31
20
-6.61
30
15.72
11
9.94
21
-6.15
31
14.62
0
LINE
8
Lines
10
9.94
20
-6.15
30
14.62
11
12.41
21
-5.54
31
13.18
0
LINE
8
Lines
10
12.41
20
-5.54
30
13.18
11
14.67
21
-4.8
31
11.42
0
LINE
8
Lines
10
14.67
20
-4.8
30
11.42
11
16.67
21
-3.94
31
9.37
0
LINE
8
Lines
10
16.67
20
-3.94
30
9.37
11
18.34
21
-2.97
31
7.07
0
LINE
8
Lines
10
-16.09
20
-5.44
30
9.87
11
-13.93
21
-6.48
31
11.76
0
LINE
8
Lines
10
-13.93
20
-6.48
30
11.76
11
-11.55
21
-7.34
31
13.32
0
LINE
8
Lines
10
-11.55
20
-7.34
30
13.32
11
-9.02
21
-8.01
31
14.54
0
LINE
8
Lines
10
-9.02
20
-8.01
30
14.54
11
-6.39
21
-8.5
31
15.43
0
LINE
8
Lines
10
-6.39
20
-8.5
30
15.43
11
-3.71
21
-8.81
31
16.0
0
LINE
8
Lines
10
-3.71
20
-8.81
30
16.0
11
-1.0
21
-8.96
31
16.26
0
LINE
8
Lines
10
-1.0
20
-8.96
30
16.26
11
1.71
21
-8.94
31
16.22
0
LINE
8
Lines
10
1.71
20
-8.94
30
16.22
11
4.41
21
-8.75
31
15.88
0
LINE
8
Lines
10
4.41
20
-8.75
30
15.88
11
7.08
21
-8.39
31
15.23
0
LINE
8
Lines
10
7.08
20
-8.39
30
15.23
11
9.69
21
-7.85
31
14.25
0
LINE
8
Lines
10
9.69
20
-7.85
30
14.25
11
12.19
21
-7.13
31
12.94
0
LINE
8
Lines
10
12.19
20
-7.13
30
12.94
11
14.52
21
-6.22
31
11.3
0
LINE
8
Lines
10
14.52
20
-6.22
30
11.3
11
16.61
21
-5.14
31
9.33
0
LINE
8
Lines
10
16.61
20
-5.14
30
9.33
11
18.39
21
-3.91
31
7.09
0
LINE
8
Lines
10
-15.95
20
-6.79
30
9.79
11
-13.68
21
-8.01
31
11.55
0
LINE
8
Lines
10
-13.68
20
-8.01
30
11.55
11
-11.24
21
-8.98
31
12.95
0
LINE
8
Lines
10
-11.24
20
-8.98
30
12.95
11
-8.7
21
-9.73
31
14.03
0
LINE
8
Lines
10
-8.7
20
-9.73
30
14.03
11
-6.13
21
-10.25
31
14.79
0
LINE
8
Lines
10
-6.13
20
-10.25
30
14.79
11
-3.54
21
-10.58
31
15.26
0
LINE
8
Lines
10
-3.54
20
-10.58
30
15.26
11
-0.96
21
-10.73
31
15.48
0
LINE
8
Lines
10
-0.96
20
-10.73
30
15.48
11
1.63
21
-10.71
31
15.45
0
LINE
8
Lines
10
1.63
20
-10.71
30
15.45
11
4.21
21
-10.52
31
15.17
0
LINE
8
Lines
10
4.21
20
-10.52
30
15.17
11
6.8
21
-10.14
31
14.62
0
LINE
8
Lines
10
6.8
20
-10.14
30
14.62
11
9.37
21
-9.55
31
13.78
0
LINE
8
Lines
10
9.37
20
-9.55
30
13.78
11
11.88
21
-8.75
31
12.62
0
LINE
8
Lines
10
11.88
20
-8.75
30
12.62
11
14.29
21
-7.71
31
11.12
0
LINE
8
Lines
10
14.29
20
-7.71
30
11.12
11
16.5
21
-6.43
31
9.27
0
LINE
8
Lines
10
16.5
20
-6.43
30
9.27
11
18.42
21
-4.92
31
7.1
0
LINE
8
Lines
10
-15.73
20
-8.23
30
9.66
11
-13.34
21
-9.6
31
11.26
0
LINE
8
Lines
10
-13.34
20
-9.6
30
11.26
11
-10.84
21
-10.65
31
12.5
0
LINE
8
Lines
10
-10.84
20
-10.65
30
12.5
11
-8.31
21
-11.42
31
13.4
0
LINE
8
Lines
10
-8.31
20
-11.42
30
13.4
11
-5.81
21
-11.96
31
14.03
0
LINE
8
Lines
10
-5.81
20
-11.96
30
14.03
11
-3.34
21
-12.28
31
14.41
0
LINE
8
Lines
10
-3.34
20
-12.28
30
14.41
11
-0.9
21
-12.43
31
14.59
0
LINE
8
Lines
10
-0.9
20
-12.43
30
14.59
11
1.53
21
-12.41
31
14.56
0
LINE
8
Lines
10
1.53
20
-12.41
30
14.56
11
3.98
21
-12.22
31
14.33
0
LINE
8
Lines
10
3.98
20
-12.22
30
14.33
11
6.46
21
-11.84
31
13.89
0
LINE
8
Lines
10
6.46
20
-11.84
30
13.89
11
8.97
21
-11.25
31
13.2
0
LINE
8
Lines
10
8.97
20
-11.25
30
13.2
11
11.49
21
-10.4
31
12.21
0
LINE
8
Lines
10
11.49
20
-10.4
30
12.21
11
13.98
21
-9.27
31
10.88
0
LINE
8
Lines
10
13.98
20
-9.27
30
10.88
11
16.33
21
-7.82
31
9.18
0
LINE
8
Lines
10
16.33
20
-7.82
30
9.18
11
18.42
21
-6.05
31
7.1
0
LINE
8
Lines
10
-15.42
20
-9.78
30
9.46
11
-12.89
21
-11.25
31
10.88
0
LINE
8
Lines
10
-12.89
20
-11.25
30
10.88
11
-10.35
21
-12.33
31
11.93
0
LINE
8
Lines
10
-10.35
20
-12.33
30
11.93
11
-7.86
21
-13.09
31
12.67
0
LINE
8
Lines
10
-7.86
20
-13.09
30
12.67
11
-5.45
21
-13.6
31
13.16
0
LINE
8
Lines
10
-5.45
20
-13.6
30
13.16
11
-3.12
21
-13.9
31
13.45
0
LINE
8
Lines
10
-3.12
20
-13.9
30
13.45
11
-0.84
21
-14.04
31
13.58
0
LINE
8
Lines
10
-0.84
20
-14.04
30
13.58
11
1.43
21
-14.02
31
13.57
0
LINE
8
Lines
10
1.43
20
-14.02
30
13.57
11
3.72
21
-13.84
31
13.39
0
LINE
8
Lines
10
3.72
20
-13.84
30
13.39
11
6.07
21
-13.49
31
13.05
0
LINE
8
Lines
10
6.07
20
-13.49
30
13.05
11
8.5
21
-12.92
31
12.5
0
LINE
8
Lines
10
8.5
20
-12.92
30
12.5
11
11.01
21
-12.08
31
11.69
0
LINE
8
Lines
10
11.01
20
-12.08
30
11.69
11
13.55
21
-10.9
31
10.55
0
LINE
8
Lines
10
13.55
20
-10.9
30
10.55
11
16.06
21
-9.33
31
9.02
0
LINE
8
Lines
10
16.06
20
-9.33
30
9.02
11
18.35
21
-7.31
31
7.08
0
LINE
8
Lines
10
-14.97
20
-11.43
30
9.18
11
-12.32
21
-12.94
31
10.4
0
LINE
8
Lines
10
-12.32
20
-12.94
30
10.4
11
-9.75
21
-14.0
31
11.24
0
LINE
8
Lines
10
-9.75
20
-14.0
30
11.24
11
-7.33
21
-14.71
31
11.82
0
LINE
8
Lines
10
-7.33
20
-14.71
30
11.82
11
-5.05
21
-15.17
31
12.18
0
LINE
8
Lines
10
-5.05
20
-15.17
30
12.18
11
-2.88
21
-15.44
31
12.4
0
LINE
8
Lines
10
-2.88
20
-15.44
30
12.4
11
-0.77
21
-15.55
31
12.49
0
LINE
8
Lines
10
-0.77
20
-15.55
30
12.49
11
1.31
21
-15.54
31
12.48
0
LINE
8
Lines
10
1.31
20
-15.54
30
12.48
11
3.43
21
-15.38
31
12.36
0
LINE
8
Lines
10
3.43
20
-15.38
30
12.36
11
5.63
21
-15.07
31
12.11
0
LINE
8
Lines
10
5.63
20
-15.07
30
12.11
11
7.95
21
-14.56
31
11.69
0
LINE
8
Lines
10
7.95
20
-14.56
30
11.69
11
10.41
21
-13.76
31
11.05
0
LINE
8
Lines
10
10.41
20
-13.76
30
11.05
11
13.0
21
-12.6
31
10.12
0
LINE
8
Lines
10
13.0
20
-12.6
30
10.12
11
15.65
21
-10.95
31
8.8
0
LINE
8
Lines
10
15.65
20
-10.95
30
8.8
11
18.2
21
-8.74
31
7.02
0
LINE
8
Lines
10
-14.34
20
-13.19
30
8.8
11
-11.6
21
-14.67
31
9.79
0
LINE
8
Lines
10
-11.6
20
-14.67
30
9.79
11
-9.05
21
-15.65
31
10.44
0
LINE
8
Lines
10
-9.05
20
-15.65
30
10.44
11
-6.73
21
-16.27
31
10.86
0
LINE
8
Lines
10
-6.73
20
-16.27
30
10.86
11
-4.6
21
-16.66
31
11.11
0
LINE
8
Lines
10
-4.6
20
-16.66
30
11.11
11
-2.61
21
-16.88
31
11.26
0
LINE
8
Lines
10
-2.61
20
-16.88
30
11.26
11
-0.7
21
-16.98
31
11.32
0
LINE
8
Lines
10
-0.7
20
-16.98
30
11.32
11
1.19
21
-16.96
31
11.31
0
LINE
8
Lines
10
1.19
20
-16.96
30
11.31
11
3.12
21
-16.84
31
11.23
0
LINE
8
Lines
10
3.12
20
-16.84
30
11.23
11
5.14
21
-16.58
31
11.06
0
LINE
8
Lines
10
5.14
20
-16.58
30
11.06
11
7.32
21
-16.14
31
10.77
0
LINE
8
Lines
10
7.32
20
-16.14
30
10.77
11
9.69
21
-15.43
31
10.3
0
LINE
8
Lines
10
9.69
20
-15.43
30
10.3
11
12.29
21
-14.34
31
9.57
0
LINE
8
Lines
10
12.29
20
-14.34
30
9.57
11
15.08
21
-12.71
31
8.48
0
LINE
8
Lines
10
15.08
20
-12.71
30
8.48
11
17.9
21
-10.34
31
6.9
0
LINE
8
Lines
10
-14.34
20
-13.19
30
8.8
11
-14.97
21
-11.43
31
9.18
0
LINE
8
Lines
10
-14.97
20
-11.43
30
9.18
11
-15.42
21
-9.78
31
9.46
0
LINE
8
Lines
10
-15.42
20
-9.78
30
9.46
11
-15.73
21
-8.23
31
9.66
0
LINE
8
Lines
10
-11.6
20
-14.67
30
9.79
11
-12.32
21
-12.94
31
10.4
0
LINE
8
Lines
10
-12.32
20
-12.94
30
10.4
11
-12.89
21
-11.25
31
10.88
0
LINE
8
Lines
10
-12.89
20
-11.25
30
10.88
11
-13.34
21
-9.6
31
11.26
0
LINE
8
Lines
10
-9.05
20
-15.65
30
10.44
11
-9.75
21
-14.0
31
11.24
0
LINE
8
Lines
10
-9.75
20
-14.0
30
11.24
11
-10.35
21
-12.33
31
11.93
0
LINE
8
Lines
10
-10.35
20
-12.33
30
11.93
11
-10.84
21
-10.65
31
12.5
0
LINE
8
Lines
10
-6.73
20
-16.27
30
10.86
11
-7.33
21
-14.71
31
11.82
0
LINE
8
Lines
10
-7.33
20
-14.71
30
11.82
11
-7.86
21
-13.09
31
12.67
0
LINE
8
Lines
10
-7.86
20
-13.09
30
12.67
11
-8.31
21
-11.42
31
13.4
0
LINE
8
Lines
10
-15.73
20
-8.23
30
9.66
11
-15.95
21
-6.79
31
9.79
0
LINE
8
Lines
10
-15.95
20
-6.79
30
9.79
11
-16.09
21
-5.44
31
9.87
0
LINE
8
Lines
10
-16.09
20
-5.44
30
9.87
11
-16.18
21
-4.17
31
9.93
0
LINE
8
Lines
10
-16.18
20
-4.17
30
9.93
11
-16.23
21
-2.97
31
9.96
0
LINE
8
Lines
10
-16.23
20
-2.97
30
9.96
11
-16.26
21
-1.82
31
9.98
0
LINE
8
Lines
10
-16.26
20
-1.82
30
9.98
11
-16.27
21
-0.7
31
9.99
0
LINE
8
Lines
10
-16.27
20
-0.7
30
9.99
11
-16.27
21
0.41
31
9.99
0
LINE
8
Lines
10
-16.27
20
0.41
30
9.99
11
-16.26
21
1.53
31
9.98
0
LINE
8
Lines
10
-16.26
20
1.53
30
9.98
11
-16.24
21
2.67
31
9.97
0
LINE
8
Lines
10
-16.24
20
2.67
30
9.97
11
-16.2
21
3.86
31
9.94
0
LINE
8
Lines
10
-16.2
20
3.86
30
9.94
11
-16.12
21
5.1
31
9.89
0
LINE
8
Lines
10
-16.12
20
5.1
30
9.89
11
-15.99
21
6.43
31
9.81
0
LINE
8
Lines
10
-15.99
20
6.43
30
9.81
11
-15.8
21
7.84
31
9.7
0
LINE
8
Lines
10
-13.34
20
-9.6
30
11.26
11
-13.68
21
-8.01
31
11.55
0
LINE
8
Lines
10
-13.68
20
-8.01
30
11.55
11
-13.93
21
-6.48
31
11.76
0
LINE
8
Lines
10
-13.93
20
-6.48
30
11.76
11
-14.11
21
-5.01
31
11.91
0
LINE
8
Lines
10
-14.11
20
-5.01
30
11.91
11
-14.23
21
-3.59
31
12.01
0
LINE
8
Lines
10
-14.23
20
-3.59
30
12.01
11
-14.31
21
-2.21
31
12.08
0
LINE
8
Lines
10
-14.31
20
-2.21
30
12.08
11
-14.35
21
-0.85
31
12.11
0
LINE
8
Lines
10
-14.35
20
-0.85
30
12.11
11
-14.35
21
0.5
31
12.11
0
LINE
8
Lines
10
-14.35
20
0.5
30
12.11
11
-14.32
21
1.85
31
12.09
0
LINE
8
Lines
10
-14.32
20
1.85
30
12.09
11
-14.26
21
3.22
31
12.03
0
LINE
8
Lines
10
-14.26
20
3.22
30
12.03
11
-14.15
21
4.63
31
11.94
0
LINE
8
Lines
10
-14.15
20
4.63
30
11.94
11
-13.98
21
6.09
31
11.8
0
LINE
8
Lines
10
-13.98
20
6.09
30
11.8
11
-13.75
21
7.6
31
11.61
0
LINE
8
Lines
10
-13.75
20
7.6
30
11.61
11
-13.44
21
9.18
31
11.34
0
LINE
8
Lines
10
-10.84
20
-10.65
30
12.5
11
-11.24
21
-8.98
31
12.95
0
LINE
8
Lines
10
-11.24
20
-8.98
30
12.95
11
-11.55
21
-7.34
31
13.32
0
LINE
8
Lines
10
-11.55
20
-7.34
30
13.32
11
-11.79
21
-5.71
31
13.59
0
LINE
8
Lines
10
-11.79
20
-5.71
30
13.59
11
-11.96
21
-4.12
31
13.79
0
LINE
8
Lines
10
-11.96
20
-4.12
30
13.79
11
-12.07
21
-2.54
31
13.91
0
LINE
8
Lines
10
-12.07
20
-2.54
30
13.91
11
-12.13
21
-0.98
31
13.98
0
LINE
8
Lines
10
-12.13
20
-0.98
30
13.98
11
-12.13
21
0.58
31
13.99
0
LINE
8
Lines
10
-12.13
20
0.58
30
13.99
11
-12.09
21
2.13
31
13.94
0
LINE
8
Lines
10
-12.09
20
2.13
30
13.94
11
-11.99
21
3.71
31
13.83
0
LINE
8
Lines
10
-11.99
20
3.71
30
13.83
11
-11.84
21
5.3
31
13.65
0
LINE
8
Lines
10
-11.84
20
5.3
30
13.65
11
-11.62
21
6.91
31
13.4
0
LINE
8
Lines
10
-11.62
20
6.91
30
13.4
11
-11.33
21
8.55
31
13.06
0
LINE
8
Lines
10
-11.33
20
8.55
30
13.06
11
-10.95
21
10.22
31
12.63
0
LINE
8
Lines
10
-8.31
20
-11.42
30
13.4
11
-8.7
21
-9.73
31
14.03
0
LINE
8
Lines
10
-8.7
20
-9.73
30
14.03
11
-9.02
21
-8.01
31
14.54
0
LINE
8
Lines
10
-9.02
20
-8.01
30
14.54
11
-9.27
21
-6.28
31
14.94
0
LINE
8
Lines
10
-9.27
20
-6.28
30
14.94
11
-9.45
21
-4.55
31
15.24
0
LINE
8
Lines
10
-9.45
20
-4.55
30
15.24
11
-9.58
21
-2.82
31
15.44
0
LINE
8
Lines
10
-9.58
20
-2.82
30
15.44
11
-9.64
21
-1.09
31
15.54
0
LINE
8
Lines
10
-9.64
20
-1.09
30
15.54
11
-9.65
21
0.64
31
15.56
0
LINE
8
Lines
10
-9.65
20
0.64
30
15.56
11
-9.6
21
2.37
31
15.47
0
LINE
8
Lines
10
-9.6
20
2.37
30
15.47
11
-9.49
21
4.1
31
15.3
0
LINE
8
Lines
10
-9.49
20
4.1
30
15.3
11
-9.32
21
5.83
31
15.03
0
LINE
8
Lines
10
-9.32
20
5.83
30
15.03
11
-9.09
21
7.56
31
14.65
0
LINE
8
Lines
10
-9.09
20
7.56
30
14.65
11
-8.79
21
9.28
31
14.17
0
LINE
8
Lines
10
-8.79
20
9.28
30
14.17
11
-8.42
21
10.99
31
13.58
0
LINE
8
Lines
10
-4.6
20
-16.66
30
11.11
11
-5.05
21
-15.17
31
12.18
0
LINE
8
Lines
10
-5.05
20
-15.17
30
12.18
11
-5.45
21
-13.6
31
13.16
0
LINE
8
Lines
10
-5.45
20
-13.6
30
13.16
11
-5.81
21
-11.96
31
14.03
0
LINE
8
Lines
10
-5.81
20
-11.96
30
14.03
11
-6.13
21
-10.25
31
14.79
0
LINE
8
Lines
10
-6.13
20
-10.25
30
14.79
11
-6.39
21
-8.5
31
15.43
0
LINE
8
Lines
10
-6.39
20
-8.5
30
15.43
11
-6.61
21
-6.7
31
15.94
0
LINE
8
Lines
10
-6.61
20
-6.7
30
15.94
11
-6.77
21
-4.88
31
16.34
0
LINE
8
Lines
10
-6.77
20
-4.88
30
16.34
11
-6.88
21
-3.03
31
16.61
0
LINE
8
Lines
10
-6.88
20
-3.03
30
16.61
11
-6.94
21
-1.17
31
16.75
0
LINE
8
Lines
10
-6.94
20
-1.17
30
16.75
11
-6.94
21
0.69
31
16.76
0
LINE
8
Lines
10
-6.94
20
0.69
30
16.76
11
-6.9
21
2.55
31
16.65
0
LINE
8
Lines
10
-6.9
20
2.55
30
16.65
11
-6.8
21
4.4
31
16.42
0
LINE
8
Lines
10
-6.8
20
4.4
30
16.42
11
-6.65
21
6.23
31
16.06
0
LINE
8
Lines
10
-6.65
20
6.23
30
16.06
11
-6.45
21
8.04
31
15.57
0
LINE
8
Lines
10
-6.45
20
8.04
30
15.57
11
-6.2
21
9.8
31
14.97
0
LINE
8
Lines
10
-6.2
20
9.8
30
14.97
11
-5.9
21
11.52
31
14.24
0
LINE
8
Lines
10
-2.61
20
-16.88
30
11.26
11
-2.88
21
-15.44
31
12.4
0
LINE
8
Lines
10
-2.88
20
-15.44
30
12.4
11
-3.12
21
-13.9
31
13.45
0
LINE
8
Lines
10
-3.12
20
-13.9
30
13.45
11
-3.34
21
-12.28
31
14.41
0
LINE
8
Lines
10
-3.34
20
-12.28
30
14.41
11
-3.54
21
-10.58
31
15.26
0
LINE
8
Lines
10
-3.54
20
-10.58
30
15.26
11
-3.71
21
-8.81
31
16.0
0
LINE
8
Lines
10
-3.71
20
-8.81
30
16.0
11
-3.85
21
-6.98
31
16.6
0
LINE
8
Lines
10
-3.85
20
-6.98
30
16.6
11
-3.96
21
-5.1
31
17.06
0
LINE
8
Lines
10
-3.96
20
-5.1
30
17.06
11
-4.03
21
-3.17
31
17.38
0
LINE
8
Lines
10
-4.03
20
-3.17
30
17.38
11
-4.07
21
-1.23
31
17.56
0
LINE
8
Lines
10
-4.07
20
-1.23
30
17.56
11
-4.08
21
0.72
31
17.57
0
LINE
8
Lines
10
-4.08
20
0.72
30
17.57
11
-4.05
21
2.67
31
17.44
0
LINE
8
Lines
10
-4.05
20
2.67
30
17.44
11
-3.98
21
4.6
31
17.16
0
LINE
8
Lines
10
-3.98
20
4.6
30
17.16
11
-3.88
21
6.49
31
16.73
0
LINE
8
Lines
10
-3.88
20
6.49
30
16.73
11
-3.75
21
8.34
31
16.17
0
LINE
8
Lines
10
-3.75
20
8.34
30
16.17
11
-3.59
21
10.13
31
15.47
0
LINE
8
Lines
10
-3.59
20
10.13
30
15.47
11
-3.4
21
11.85
31
14.65
0
LINE
8
Lines
10
-0.7
20
-16.98
30
11.32
11
-0.77
21
-15.55
31
12.49
0
LINE
8
Lines
10
-0.77
20
-15.55
30
12.49
11
-0.84
21
-14.04
31
13.58
0
LINE
8
Lines
10
-0.84
20
-14.04
30
13.58
11
-0.9
21
-12.43
31
14.59
0
LINE
8
Lines
10
-0.9
20
-12.43
30
14.59
11
-0.96
21
-10.73
31
15.48
0
LINE
8
Lines
10
-0.96
20
-10.73
30
15.48
11
-1.0
21
-8.96
31
16.26
0
LINE
8
Lines
10
-1.0
20
-8.96
30
16.26
11
-1.04
21
-7.11
31
16.9
0
LINE
8
Lines
10
-1.04
20
-7.11
30
16.9
11
-1.07
21
-5.2
31
17.4
0
LINE
8
Lines
10
-1.07
20
-5.2
30
17.4
11
-1.1
21
-3.24
31
17.75
0
LINE
8
Lines
10
-1.1
20
-3.24
30
17.75
11
-1.11
21
-1.26
31
17.94
0
LINE
8
Lines
10
-1.11
20
-1.26
30
17.94
11
-1.11
21
0.74
31
17.96
0
LINE
8
Lines
10
-1.11
20
0.74
30
17.96
11
-1.1
21
2.73
31
17.81
0
LINE
8
Lines
10
-1.1
20
2.73
30
17.81
11
-1.08
21
4.69
31
17.51
0
LINE
8
Lines
10
-1.08
20
4.69
30
17.51
11
-1.05
21
6.62
31
17.05
0
LINE
8
Lines
10
-1.05
20
6.62
30
17.05
11
-1.01
21
8.48
31
16.44
0
LINE
8
Lines
10
-1.01
20
8.48
30
16.44
11
-0.97
21
10.28
31
15.7
0
LINE
8
Lines
10
-0.97
20
10.28
30
15.7
11
-0.92
21
12.0
31
14.83
0
LINE
8
Lines
10
1.19
20
-16.96
30
11.31
11
1.31
21
-15.54
31
12.48
0
LINE
8
Lines
10
1.31
20
-15.54
30
12.48
11
1.43
21
-14.02
31
13.57
0
LINE
8
Lines
10
1.43
20
-14.02
30
13.57
11
1.53
21
-12.41
31
14.56
0
LINE
8
Lines
10
1.53
20
-12.41
30
14.56
11
1.63
21
-10.71
31
15.45
0
LINE
8
Lines
10
1.63
20
-10.71
30
15.45
11
1.71
21
-8.94
31
16.22
0
LINE
8
Lines
10
1.71
20
-8.94
30
16.22
11
1.78
21
-7.09
31
16.86
0
LINE
8
Lines
10
1.78
20
-7.09
30
16.86
11
1.83
21
-5.18
31
17.35
0
LINE
8
Lines
10
1.83
20
-5.18
30
17.35
11
1.86
21
-3.23
31
17.7
0
LINE
8
Lines
10
1.86
20
-3.23
30
17.7
11
1.88
21
-1.25
31
17.88
0
LINE
8
Lines
10
1.88
20
-1.25
30
17.88
11
1.89
21
0.74
31
17.9
0
LINE
8
Lines
10
1.89
20
0.74
30
17.9
11
1.87
21
2.72
31
17.76
0
LINE
8
Lines
10
1.87
20
2.72
30
17.76
11
1.84
21
4.68
31
17.46
0
LINE
8
Lines
10
1.84
20
4.68
30
17.46
11
1.79
21
6.6
31
17.0
0
LINE
8
Lines
10
1.79
20
6.6
30
17.0
11
1.73
21
8.46
31
16.4
0
LINE
8
Lines
10
1.73
20
8.46
30
16.4
11
1.65
21
10.26
31
15.66
0
LINE
8
Lines
10
1.65
20
10.26
30
15.66
11
1.56
21
11.98
31
14.8
0
LINE
8
Lines
10
3.12
20
-16.84
30
11.23
11
3.43
21
-15.38
31
12.36
0
LINE
8
Lines
10
3.43
20
-15.38
30
12.36
11
3.72
21
-13.84
31
13.39
0
LINE
8
Lines
10
3.72
20
-13.84
30
13.39
11
3.98
21
-12.22
31
14.33
0
LINE
8
Lines
10
3.98
20
-12.22
30
14.33
11
4.21
21
-10.52
31
15.17
0
LINE
8
Lines
10
4.21
20
-10.52
30
15.17
11
4.41
21
-8.75
31
15.88
0
LINE
8
Lines
10
4.41
20
-8.75
30
15.88
11
4.57
21
-6.92
31
16.46
0
LINE
8
Lines
10
4.57
20
-6.92
30
16.46
11
4.7
21
-5.05
31
16.91
0
LINE
8
Lines
10
4.7
20
-5.05
30
16.91
11
4.78
21
-3.14
31
17.22
0
LINE
8
Lines
10
4.78
20
-3.14
30
17.22
11
4.83
21
-1.22
31
17.39
0
LINE
8
Lines
10
4.83
20
-1.22
30
17.39
11
4.83
21
0.72
31
17.4
0
LINE
8
Lines
10
4.83
20
0.72
30
17.4
11
4.8
21
2.65
31
17.28
0
LINE
8
Lines
10
4.8
20
2.65
30
17.28
11
4.72
21
4.56
31
17.01
0
LINE
8
Lines
10
4.72
20
4.56
30
17.01
11
4.61
21
6.44
31
16.59
0
LINE
8
Lines
10
4.61
20
6.44
30
16.59
11
4.46
21
8.28
31
16.04
0
LINE
8
Lines
10
4.46
20
8.28
30
16.04
11
4.27
21
10.06
31
15.36
0
LINE
8
Lines
10
4.27
20
10.06
30
15.36
11
4.04
21
11.78
31
14.56
0
LINE
8
Lines
10
5.14
20
-16.58
30
11.06
11
5.63
21
-15.07
31
12.11
0
LINE
8
Lines
10
5.63
20
-15.07
30
12.11
11
6.07
21
-13.49
31
13.05
0
LINE
8
Lines
10
6.07
20
-13.49
30
13.05
11
6.46
21
-11.84
31
13.89
0
LINE
8
Lines
10
6.46
20
-11.84
30
13.89
11
6.8
21
-10.14
31
14.62
0
LINE
8
Lines
10
6.8
20
-10.14
30
14.62
11
7.08
21
-8.39
31
15.23
0
LINE
8
Lines
10
7.08
20
-8.39
30
15.23
11
7.31
21
-6.61
31
15.72
0
LINE
8
Lines
10
7.31
20
-6.61
30
15.72
11
7.48
21
-4.8
31
16.09
0
LINE
8
Lines
10
7.48
20
-4.8
30
16.09
11
7.6
21
-2.98
31
16.34
0
LINE
8
Lines
10
7.6
20
-2.98
30
16.34
11
7.66
21
-1.15
31
16.47
0
LINE
8
Lines
10
7.66
20
-1.15
30
16.47
11
7.67
21
0.68
31
16.49
0
LINE
8
Lines
10
7.67
20
0.68
30
16.49
11
7.62
21
2.51
31
16.38
0
LINE
8
Lines
10
7.62
20
2.51
30
16.38
11
7.52
21
4.33
31
16.16
0
LINE
8
Lines
10
7.52
20
4.33
30
16.16
11
7.36
21
6.14
31
15.82
0
LINE
8
Lines
10
7.36
20
6.14
30
15.82
11
7.14
21
7.93
31
15.37
0
LINE
8
Lines
10
7.14
20
7.93
30
15.37
11
6.88
21
9.69
31
14.79
0
LINE
8
Lines
10
6.88
20
9.69
30
14.79
11
6.55
21
11.4
31
14.09
0
LINE
8
Lines
10
7.32
20
-16.14
30
10.77
11
7.95
21
-14.56
31
11.69
0
LINE
8
Lines
10
7.95
20
-14.56
30
11.69
11
8.5
21
-12.92
31
12.5
0
LINE
8
Lines
10
8.5
20
-12.92
30
12.5
11
8.97
21
-11.25
31
13.2
0
LINE
8
Lines
10
8.97
20
-11.25
30
13.2
11
9.37
21
-9.55
31
13.78
0
LINE
8
Lines
10
9.37
20
-9.55
30
13.78
11
9.69
21
-7.85
31
14.25
0
LINE
8
Lines
10
9.69
20
-7.85
30
14.25
11
9.94
21
-6.15
31
14.62
0
LINE
8
Lines
10
9.94
20
-6.15
30
14.62
11
10.12
21
-4.45
31
14.89
0
LINE
8
Lines
10
10.12
20
-4.45
30
14.89
11
10.25
21
-2.75
31
15.08
0
LINE
8
Lines
10
10.25
20
-2.75
30
15.08
11
10.31
21
-1.06
31
15.17
0
LINE
8
Lines
10
10.31
20
-1.06
30
15.17
11
10.32
21
0.62
31
15.18
0
LINE
8
Lines
10
10.32
20
0.62
30
15.18
11
10.27
21
2.31
31
15.11
0
LINE
8
Lines
10
10.27
20
2.31
30
15.11
11
10.16
21
4.01
31
14.95
0
LINE
8
Lines
10
10.16
20
4.01
30
14.95
11
9.99
21
5.7
31
14.7
0
LINE
8
Lines
10
9.99
20
5.7
30
14.7
11
9.76
21
7.41
31
14.36
0
LINE
8
Lines
10
9.76
20
7.41
30
14.36
11
9.46
21
9.11
31
13.91
0
LINE
8
Lines
10
9.46
20
9.11
30
13.91
11
9.08
21
10.81
31
13.36
0
LINE
8
Lines
10
9.69
20
-15.43
30
10.3
11
10.41
21
-13.76
31
11.05
0
LINE
8
Lines
10
10.41
20
-13.76
30
11.05
11
11.01
21
-12.08
31
11.69
0
LINE
8
Lines
10
11.01
20
-12.08
30
11.69
11
11.49
21
-10.4
31
12.21
0
LINE
8
Lines
10
11.49
20
-10.4
30
12.21
11
11.88
21
-8.75
31
12.62
0
LINE
8
Lines
10
11.88
20
-8.75
30
12.62
11
12.19
21
-7.13
31
12.94
0
LINE
8
Lines
10
12.19
20
-7.13
30
12.94
11
12.41
21
-5.54
31
13.18
0
LINE
8
Lines
10
12.41
20
-5.54
30
13.18
11
12.57
21
-3.99
31
13.35
0
LINE
8
Lines
10
12.57
20
-3.99
30
13.35
11
12.68
21
-2.46
31
13.47
0
LINE
8
Lines
10
12.68
20
-2.46
30
13.47
11
12.73
21
-0.95
31
13.52
0
LINE
8
Lines
10
12.73
20
-0.95
30
13.52
11
12.74
21
0.56
31
13.53
0
LINE
8
Lines
10
12.74
20
0.56
30
13.53
11
12.7
21
2.06
31
13.49
0
LINE
8
Lines
10
12.7
20
2.06
30
13.49
11
12.61
21
3.59
31
13.39
0
LINE
8
Lines
10
12.61
20
3.59
30
13.39
11
12.46
21
5.14
31
13.23
0
LINE
8
Lines
10
12.46
20
5.14
30
13.23
11
12.25
21
6.71
31
13.01
0
LINE
8
Lines
10
12.25
20
6.71
30
13.01
11
11.97
21
8.33
31
12.71
0
LINE
8
Lines
10
11.97
20
8.33
30
12.71
11
11.6
21
9.97
31
12.33
0
LINE
8
Lines
10
12.29
20
-14.34
30
9.57
11
13.0
21
-12.6
31
10.12
0
LINE
8
Lines
10
13.0
20
-12.6
30
10.12
11
13.55
21
-10.9
31
10.55
0
LINE
8
Lines
10
13.55
20
-10.9
30
10.55
11
13.98
21
-9.27
31
10.88
0
LINE
8
Lines
10
13.98
20
-9.27
30
10.88
11
14.29
21
-7.71
31
11.12
0
LINE
8
Lines
10
14.29
20
-7.71
30
11.12
11
14.52
21
-6.22
31
11.3
0
LINE
8
Lines
10
14.52
20
-6.22
30
11.3
11
14.67
21
-4.8
31
11.42
0
LINE
8
Lines
10
14.67
20
-4.8
30
11.42
11
14.78
21
-3.44
31
11.5
0
LINE
8
Lines
10
14.78
20
-3.44
30
11.5
11
14.85
21
-2.11
31
11.55
0
LINE
8
Lines
10
14.85
20
-2.11
30
11.55
11
14.88
21
-0.81
31
11.58
0
LINE
8
Lines
10
14.88
20
-0.81
30
11.58
11
14.88
21
0.48
31
11.58
0
LINE
8
Lines
10
14.88
20
0.48
30
11.58
11
14.86
21
1.77
31
11.56
0
LINE
8
Lines
10
14.86
20
1.77
30
11.56
11
14.8
21
3.09
31
11.52
0
LINE
8
Lines
10
14.8
20
3.09
30
11.52
11
14.71
21
4.44
31
11.45
0
LINE
8
Lines
10
14.71
20
4.44
30
11.45
11
14.56
21
5.85
31
11.34
0
LINE
8
Lines
10
14.56
20
5.85
30
11.34
11
14.36
21
7.32
31
11.17
0
LINE
8
Lines
10
14.36
20
7.32
30
11.17
11
14.07
21
8.86
31
10.95
0
LINE
8
Lines
10
15.08
20
-12.71
30
8.48
11
15.65
21
-10.95
31
8.8
0
LINE
8
Lines
10
15.65
20
-10.95
30
8.8
11
16.06
21
-9.33
31
9.02
0
LINE
8
Lines
10
16.06
20
-9.33
30
9.02
11
16.33
21
-7.82
31
9.18
0
LINE
8
Lines
10
16.33
20
-7.82
30
9.18
11
16.5
21
-6.43
31
9.27
0
LINE
8
Lines
10
16.5
20
-6.43
30
9.27
11
16.61
21
-5.14
31
9.33
0
LINE
8
Lines
10
16.61
20
-5.14
30
9.33
11
16.67
21
-3.94
31
9.37
0
LINE
8
Lines
10
16.67
20
-3.94
30
9.37
11
16.7
21
-2.8
31
9.39
0
LINE
8
Lines
10
16.7
20
-2.8
30
9.39
11
16.72
21
-1.72
31
9.4
0
LINE
8
Lines
10
16.72
20
-1.72
30
9.4
11
16.72
21
-0.66
31
9.4
0
LINE
8
Lines
10
16.72
20
-0.66
30
9.4
11
16.72
21
0.39
31
9.4
0
LINE
8
Lines
10
16.72
20
0.39
30
9.4
11
16.72
21
1.44
31
9.4
0
LINE
8
Lines
10
16.72
20
1.44
30
9.4
11
16.71
21
2.52
31
9.39
0
LINE
8
Lines
10
16.71
20
2.52
30
9.39
11
16.68
21
3.64
31
9.37
0
LINE
8
Lines
10
16.68
20
3.64
30
9.37
11
16.63
21
4.82
31
9.35
0
LINE
8
Lines
10
16.63
20
4.82
30
9.35
11
16.53
21
6.09
31
9.29
0
LINE
8
Lines
10
16.53
20
6.09
30
9.29
11
16.38
21
7.45
31
9.21
0
LINE
8
Lines
10
-15.8
20
7.84
30
9.7
11
-15.51
21
9.36
31
9.52
0
LINE
8
Lines
10
-15.51
20
9.36
30
9.52
11
-15.1
21
10.99
31
9.26
0
LINE
8
Lines
10
-13.44
20
9.18
30
11.34
11
-13.02
21
10.81
31
10.99
0
LINE
8
Lines
10
-13.02
20
10.81
30
10.99
11
-12.48
21
12.5
31
10.53
0
LINE
8
Lines
10
-10.95
20
10.22
30
12.63
11
-10.48
21
11.89
31
12.09
0
LINE
8
Lines
10
-10.48
20
11.89
30
12.09
11
-9.92
21
13.57
31
11.43
0
LINE
8
Lines
10
-8.42
20
10.99
30
13.58
11
-7.98
21
12.66
31
12.87
0
LINE
8
Lines
10
-7.98
20
12.66
30
12.87
11
-7.47
21
14.3
31
12.05
0
LINE
8
Lines
10
-5.9
20
11.52
30
14.24
11
-5.55
21
13.18
31
13.4
0
LINE
8
Lines
10
-5.55
20
13.18
30
13.4
11
-5.16
21
14.77
31
12.45
0
LINE
8
Lines
10
-3.4
20
11.85
30
14.65
11
-3.18
21
13.49
31
13.71
0
LINE
8
Lines
10
-3.18
20
13.49
30
13.71
11
-2.94
21
15.05
31
12.68
0
LINE
8
Lines
10
-0.92
20
12.0
30
14.83
11
-0.86
21
13.63
31
13.85
0
LINE
8
Lines
10
-0.86
20
13.63
30
13.85
11
-0.79
21
15.17
31
12.78
0
LINE
8
Lines
10
1.56
20
11.98
30
14.8
11
1.46
21
13.61
31
13.83
0
LINE
8
Lines
10
1.46
20
13.61
30
13.83
11
1.35
21
15.15
31
12.77
0
LINE
8
Lines
10
4.04
20
11.78
30
14.56
11
3.79
21
13.43
31
13.65
0
LINE
8
Lines
10
3.79
20
13.43
30
13.65
11
3.51
21
14.99
31
12.63
0
LINE
8
Lines
10
6.55
20
11.4
30
14.09
11
6.18
21
13.07
31
13.28
0
LINE
8
Lines
10
6.18
20
13.07
30
13.28
11
5.75
21
14.67
31
12.36
0
LINE
8
Lines
10
9.08
20
10.81
30
13.36
11
8.63
21
12.49
31
12.69
0
LINE
8
Lines
10
8.63
20
12.49
30
12.69
11
8.1
21
14.13
31
11.91
0
LINE
8
Lines
10
11.6
20
9.97
30
12.33
11
11.14
21
11.64
31
11.83
0
LINE
8
Lines
10
11.14
20
11.64
30
11.83
11
10.57
21
13.33
31
11.23
0
LINE
8
Lines
10
14.07
20
8.86
30
10.95
11
13.68
21
10.47
31
10.64
0
LINE
8
Lines
10
13.68
20
10.47
30
10.64
11
13.16
21
12.15
31
10.24
0
LINE
8
Lines
10
16.38
20
7.45
30
9.21
11
16.14
21
8.92
31
9.07
0
LINE
8
Lines
10
16.14
20
8.92
30
9.07
11
15.77
21
10.52
31
8.87
0
LINE
8
Lines
10
17.9
20
-10.34
30
6.9
11
18.2
21
-8.74
31
7.02
0
LINE
8
Lines
10
18.2
20
-8.74
30
7.02
11
18.35
21
-7.31
31
7.08
0
LINE
8
Lines
10
18.35
20
-7.31
30
7.08
11
18.42
21
-6.05
31
7.1
0
LINE
8
Lines
10
18.42
20
-6.05
30
7.1
11
18.42
21
-4.92
31
7.1
0
LINE
8
Lines
10
18.42
20
-4.92
30
7.1
11
18.39
21
-3.91
31
7.09
0
LINE
8
Lines
10
18.39
20
-3.91
30
7.09
11
18.34
21
-2.97
31
7.07
0
LINE
8
Lines
10
18.34
20
-2.97
30
7.07
11
18.3
21
-2.11
31
7.06
0
LINE
8
Lines
10
18.3
20
-2.11
30
7.06
11
18.27
21
-1.29
31
7.04
0
LINE
8
Lines
10
18.27
20
-1.29
30
7.04
11
18.25
21
-0.49
31
7.03
0
LINE
8
Lines
10
18.25
20
-0.49
30
7.03
11
18.24
21
0.29
31
7.03
0
LINE
8
Lines
10
18.24
20
0.29
30
7.03
11
18.26
21
1.08
31
7.04
0
LINE
8
Lines
10
18.26
20
1.08
30
7.04
11
18.29
21
1.89
31
7.05
0
LINE
8
Lines
10
18.29
20
1.89
30
7.05
11
18.33
21
2.74
31
7.07
0
LINE
8
Lines
10
18.33
20
2.74
30
7.07
11
18.38
21
3.66
31
7.09
0
LINE
8
Lines
10
18.38
20
3.66
30
7.09
11
18.41
21
4.65
31
7.1
0
LINE
8
Lines
10
18.41
20
4.65
30
7.1
11
18.42
21
5.75
31
7.1
0
LINE
8
Lines
10
18.42
20
5.75
30
7.1
11
18.38
21
6.97
31
7.09
0
LINE
8
Lines
10
18.38
20
6.97
30
7.09
11
18.25
21
8.35
31
7.04
0
ENDSEC
0
EOF
