0
SECTION
2
HEADER
9
$ACADVER
1
AC1006
9
$INSBASE
10
0.0
20
0.0
30
0.0
9
$EXTMIN
10
0.0
20
0.0
9
$EXTMAX
10
0.0
20
0.0
0
ENDSEC
0
SECTION
2
TABLES
0
TABLE
2
LTYPE
70
1
0
LTYPE
2
CONTINUOUS
70
64
3
Solid line
72
65
73
0
40
0.0
0
ENDTAB
0
TABLE
2
LAYER
70
1
0
LAYER
2
PYDXF
70
64
62
7
6
continuous
0
ENDTAB
0
TABLE
2
STYLE
70
1
0
STYLE
2
STANDARD
70
0
40
0
41
40
50
50
71
0
42
1
3
ARIAL.TTF
4

0
ENDTAB
0
TABLE
2
VIEW
70
0
0
ENDTAB
0
ENDSEC
0
SECTION
2
BLOCKS
0
ENDSEC
0
SECTION
2
ENTITIES
0
LINE
8
Border
10
0.25986
20
0.51811
30
0.9856
11
0.22929
21
0.52871
31
0.98564
0
LINE
8
Border
10
0.22929
20
0.52871
30
0.98564
11
0.20793
21
0.535
31
0.98564
0
LINE
8
Border
10
0.20793
20
0.535
30
0.98564
11
0.19871
21
0.53753
31
0.98568
0
LINE
8
Border
10
0.19871
20
0.53753
30
0.98568
11
0.16814
21
0.5446
31
0.98562
0
LINE
8
Border
10
0.16814
20
0.5446
30
0.98562
11
0.13757
21
0.55034
31
0.9856
0
LINE
8
Border
10
0.13757
20
0.55034
30
0.9856
11
0.107
21
0.55484
31
0.98561
0
LINE
8
Border
10
0.107
20
0.55484
30
0.98561
11
0.07643
21
0.55816
31
0.98563
0
LINE
8
Border
10
0.07643
20
0.55816
30
0.98563
11
0.04586
21
0.56034
31
0.98565
0
LINE
8
Border
10
0.04586
20
0.56034
30
0.98565
11
0.01529
21
0.56143
31
0.98566
0
LINE
8
Border
10
0.01529
20
0.56143
30
0.98566
11
-0.01529
21
0.56143
31
0.98566
0
LINE
8
Border
10
-0.01529
20
0.56143
30
0.98566
11
-0.04586
21
0.56034
31
0.98565
0
LINE
8
Border
10
-0.04586
20
0.56034
30
0.98565
11
-0.07643
21
0.55816
31
0.98563
0
LINE
8
Border
10
-0.07643
20
0.55816
30
0.98563
11
-0.107
21
0.55484
31
0.98561
0
LINE
8
Border
10
-0.107
20
0.55484
30
0.98561
11
-0.13757
21
0.55034
31
0.9856
0
LINE
8
Border
10
-0.13757
20
0.55034
30
0.9856
11
-0.16814
21
0.5446
31
0.98562
0
LINE
8
Border
10
-0.16814
20
0.5446
30
0.98562
11
-0.19871
21
0.53753
31
0.98568
0
LINE
8
Border
10
-0.19871
20
0.53753
30
0.98568
11
-0.20793
21
0.535
31
0.98564
0
LINE
8
Border
10
-0.20793
20
0.535
30
0.98564
11
-0.22929
21
0.52871
31
0.98564
0
LINE
8
Border
10
-0.22929
20
0.52871
30
0.98564
11
-0.25986
21
0.51811
31
0.9856
0
LINE
8
Border
10
-0.25986
20
0.51811
30
0.9856
11
-0.29043
21
0.50568
31
0.9857
0
LINE
8
Border
10
-0.29043
20
0.50568
30
0.9857
11
-0.29313
21
0.50443
31
0.98568
0
LINE
8
Border
10
-0.29313
20
0.50443
30
0.98568
11
-0.321
21
0.49043
31
0.98561
0
LINE
8
Border
10
-0.321
20
0.49043
30
0.98561
11
-0.34958
21
0.47386
31
0.98569
0
LINE
8
Border
10
-0.34958
20
0.47386
30
0.98569
11
-0.35157
21
0.4726
31
0.9857
0
LINE
8
Border
10
-0.35157
20
0.4726
30
0.9857
11
-0.38214
21
0.45073
31
0.98564
0
LINE
8
Border
10
-0.38214
20
0.45073
30
0.98564
11
-0.39137
21
0.44329
31
0.98563
0
LINE
8
Border
10
-0.39137
20
0.44329
30
0.98563
11
-0.41271
21
0.4242
31
0.98562
0
LINE
8
Border
10
-0.41271
20
0.4242
30
0.98562
11
-0.4242
21
0.41271
31
0.98562
0
LINE
8
Border
10
-0.4242
20
0.41271
30
0.98562
11
-0.44329
21
0.39137
31
0.98563
0
LINE
8
Border
10
-0.44329
20
0.39137
30
0.98563
11
-0.45073
21
0.38214
31
0.98564
0
LINE
8
Border
10
-0.45073
20
0.38214
30
0.98564
11
-0.4726
21
0.35157
31
0.9857
0
LINE
8
Border
10
-0.4726
20
0.35157
30
0.9857
11
-0.47386
21
0.34958
31
0.98569
0
LINE
8
Border
10
-0.47386
20
0.34958
30
0.98569
11
-0.49043
21
0.321
31
0.98561
0
LINE
8
Border
10
-0.49043
20
0.321
30
0.98561
11
-0.50443
21
0.29313
31
0.98568
0
LINE
8
Border
10
-0.50443
20
0.29313
30
0.98568
11
-0.50568
21
0.29043
31
0.9857
0
LINE
8
Border
10
-0.50568
20
0.29043
30
0.9857
11
-0.51811
21
0.25986
31
0.9856
0
LINE
8
Border
10
-0.51811
20
0.25986
30
0.9856
11
-0.52871
21
0.22929
31
0.98564
0
LINE
8
Border
10
-0.52871
20
0.22929
30
0.98564
11
-0.535
21
0.20793
31
0.98564
0
LINE
8
Border
10
-0.535
20
0.20793
30
0.98564
11
-0.53753
21
0.19871
31
0.98568
0
LINE
8
Border
10
-0.53753
20
0.19871
30
0.98568
11
-0.5446
21
0.16814
31
0.98562
0
LINE
8
Border
10
-0.5446
20
0.16814
30
0.98562
11
-0.55034
21
0.13757
31
0.9856
0
LINE
8
Border
10
-0.55034
20
0.13757
30
0.9856
11
-0.55484
21
0.107
31
0.98561
0
LINE
8
Border
10
-0.55484
20
0.107
30
0.98561
11
-0.55816
21
0.07643
31
0.98563
0
LINE
8
Border
10
-0.55816
20
0.07643
30
0.98563
11
-0.56034
21
0.04586
31
0.98565
0
LINE
8
Border
10
-0.56034
20
0.04586
30
0.98565
11
-0.56143
21
0.01529
31
0.98566
0
LINE
8
Border
10
-0.56143
20
0.01529
30
0.98566
11
-0.56143
21
-0.01529
31
0.98566
0
LINE
8
Border
10
-0.56143
20
-0.01529
30
0.98566
11
-0.56034
21
-0.04586
31
0.98565
0
LINE
8
Border
10
-0.56034
20
-0.04586
30
0.98565
11
-0.55816
21
-0.07643
31
0.98563
0
LINE
8
Border
10
-0.55816
20
-0.07643
30
0.98563
11
-0.55484
21
-0.107
31
0.98561
0
LINE
8
Border
10
-0.55484
20
-0.107
30
0.98561
11
-0.55034
21
-0.13757
31
0.9856
0
LINE
8
Border
10
-0.55034
20
-0.13757
30
0.9856
11
-0.5446
21
-0.16814
31
0.98562
0
LINE
8
Border
10
-0.5446
20
-0.16814
30
0.98562
11
-0.53753
21
-0.19871
31
0.98568
0
LINE
8
Border
10
-0.53753
20
-0.19871
30
0.98568
11
-0.535
21
-0.20793
31
0.98564
0
LINE
8
Border
10
-0.535
20
-0.20793
30
0.98564
11
-0.52871
21
-0.22929
31
0.98564
0
LINE
8
Border
10
-0.52871
20
-0.22929
30
0.98564
11
-0.51811
21
-0.25986
31
0.9856
0
LINE
8
Border
10
-0.51811
20
-0.25986
30
0.9856
11
-0.50568
21
-0.29043
31
0.9857
0
LINE
8
Border
10
-0.50568
20
-0.29043
30
0.9857
11
-0.50443
21
-0.29313
31
0.98568
0
LINE
8
Border
10
-0.50443
20
-0.29313
30
0.98568
11
-0.49043
21
-0.321
31
0.98561
0
LINE
8
Border
10
-0.49043
20
-0.321
30
0.98561
11
-0.47386
21
-0.34958
31
0.98569
0
LINE
8
Border
10
-0.47386
20
-0.34958
30
0.98569
11
-0.4726
21
-0.35157
31
0.9857
0
LINE
8
Border
10
-0.4726
20
-0.35157
30
0.9857
11
-0.45073
21
-0.38214
31
0.98564
0
LINE
8
Border
10
-0.45073
20
-0.38214
30
0.98564
11
-0.44329
21
-0.39137
31
0.98563
0
LINE
8
Border
10
-0.44329
20
-0.39137
30
0.98563
11
-0.4242
21
-0.41271
31
0.98562
0
LINE
8
Border
10
-0.4242
20
-0.41271
30
0.98562
11
-0.41271
21
-0.4242
31
0.98562
0
LINE
8
Border
10
-0.41271
20
-0.4242
30
0.98562
11
-0.39137
21
-0.44329
31
0.98563
0
LINE
8
Border
10
-0.39137
20
-0.44329
30
0.98563
11
-0.38214
21
-0.45073
31
0.98564
0
LINE
8
Border
10
-0.38214
20
-0.45073
30
0.98564
11
-0.35157
21
-0.4726
31
0.9857
0
LINE
8
Border
10
-0.35157
20
-0.4726
30
0.9857
11
-0.34958
21
-0.47386
31
0.98569
0
LINE
8
Border
10
-0.34958
20
-0.47386
30
0.98569
11
-0.321
21
-0.49043
31
0.98561
0
LINE
8
Border
10
-0.321
20
-0.49043
30
0.98561
11
-0.29313
21
-0.50443
31
0.98568
0
LINE
8
Border
10
-0.29313
20
-0.50443
30
0.98568
11
-0.29043
21
-0.50568
31
0.9857
0
LINE
8
Border
10
-0.29043
20
-0.50568
30
0.9857
11
-0.25986
21
-0.51811
31
0.9856
0
LINE
8
Border
10
-0.25986
20
-0.51811
30
0.9856
11
-0.22929
21
-0.52871
31
0.98564
0
LINE
8
Border
10
-0.22929
20
-0.52871
30
0.98564
11
-0.20793
21
-0.535
31
0.98564
0
LINE
8
Border
10
-0.20793
20
-0.535
30
0.98564
11
-0.19871
21
-0.53753
31
0.98568
0
LINE
8
Border
10
-0.19871
20
-0.53753
30
0.98568
11
-0.16814
21
-0.5446
31
0.98562
0
LINE
8
Border
10
-0.16814
20
-0.5446
30
0.98562
11
-0.13757
21
-0.55034
31
0.9856
0
LINE
8
Border
10
-0.13757
20
-0.55034
30
0.9856
11
-0.107
21
-0.55484
31
0.98561
0
LINE
8
Border
10
-0.107
20
-0.55484
30
0.98561
11
-0.07643
21
-0.55816
31
0.98563
0
LINE
8
Border
10
-0.07643
20
-0.55816
30
0.98563
11
-0.04586
21
-0.56034
31
0.98565
0
LINE
8
Border
10
-0.04586
20
-0.56034
30
0.98565
11
-0.01529
21
-0.56143
31
0.98566
0
LINE
8
Border
10
-0.01529
20
-0.56143
30
0.98566
11
0.01529
21
-0.56143
31
0.98566
0
LINE
8
Border
10
0.01529
20
-0.56143
30
0.98566
11
0.04586
21
-0.56034
31
0.98565
0
LINE
8
Border
10
0.25986
20
0.51811
30
0.9856
11
0.29043
21
0.50568
31
0.9857
0
LINE
8
Border
10
0.29043
20
0.50568
30
0.9857
11
0.29313
21
0.50443
31
0.98568
0
LINE
8
Border
10
0.29313
20
0.50443
30
0.98568
11
0.321
21
0.49043
31
0.98561
0
LINE
8
Border
10
0.321
20
0.49043
30
0.98561
11
0.34958
21
0.47386
31
0.98569
0
LINE
8
Border
10
0.34958
20
0.47386
30
0.98569
11
0.35157
21
0.4726
31
0.9857
0
LINE
8
Border
10
0.35157
20
0.4726
30
0.9857
11
0.38214
21
0.45073
31
0.98564
0
LINE
8
Border
10
0.38214
20
0.45073
30
0.98564
11
0.39137
21
0.44329
31
0.98563
0
LINE
8
Border
10
0.39137
20
0.44329
30
0.98563
11
0.41271
21
0.4242
31
0.98562
0
LINE
8
Border
10
0.41271
20
0.4242
30
0.98562
11
0.4242
21
0.41271
31
0.98562
0
LINE
8
Border
10
0.4242
20
0.41271
30
0.98562
11
0.44329
21
0.39137
31
0.98563
0
LINE
8
Border
10
0.44329
20
0.39137
30
0.98563
11
0.45073
21
0.38214
31
0.98564
0
LINE
8
Border
10
0.45073
20
0.38214
30
0.98564
11
0.4726
21
0.35157
31
0.9857
0
LINE
8
Border
10
0.4726
20
0.35157
30
0.9857
11
0.47386
21
0.34958
31
0.98569
0
LINE
8
Border
10
0.47386
20
0.34958
30
0.98569
11
0.49043
21
0.321
31
0.98561
0
LINE
8
Border
10
0.49043
20
0.321
30
0.98561
11
0.50443
21
0.29313
31
0.98568
0
LINE
8
Border
10
0.50443
20
0.29313
30
0.98568
11
0.50568
21
0.29043
31
0.9857
0
LINE
8
Border
10
0.50568
20
0.29043
30
0.9857
11
0.51811
21
0.25986
31
0.9856
0
LINE
8
Border
10
0.51811
20
0.25986
30
0.9856
11
0.52871
21
0.22929
31
0.98564
0
LINE
8
Border
10
0.52871
20
0.22929
30
0.98564
11
0.535
21
0.20793
31
0.98564
0
LINE
8
Border
10
0.535
20
0.20793
30
0.98564
11
0.53753
21
0.19871
31
0.98568
0
LINE
8
Border
10
0.53753
20
0.19871
30
0.98568
11
0.5446
21
0.16814
31
0.98562
0
LINE
8
Border
10
0.5446
20
0.16814
30
0.98562
11
0.55034
21
0.13757
31
0.9856
0
LINE
8
Border
10
0.55034
20
0.13757
30
0.9856
11
0.55484
21
0.107
31
0.98561
0
LINE
8
Border
10
0.55484
20
0.107
30
0.98561
11
0.55816
21
0.07643
31
0.98563
0
LINE
8
Border
10
0.55816
20
0.07643
30
0.98563
11
0.56034
21
0.04586
31
0.98565
0
LINE
8
Border
10
0.56034
20
0.04586
30
0.98565
11
0.56143
21
0.01529
31
0.98566
0
LINE
8
Border
10
0.56143
20
0.01529
30
0.98566
11
0.56143
21
-0.01529
31
0.98566
0
LINE
8
Border
10
0.56143
20
-0.01529
30
0.98566
11
0.56034
21
-0.04586
31
0.98565
0
LINE
8
Border
10
0.56034
20
-0.04586
30
0.98565
11
0.55816
21
-0.07643
31
0.98563
0
LINE
8
Border
10
0.55816
20
-0.07643
30
0.98563
11
0.55484
21
-0.107
31
0.98561
0
LINE
8
Border
10
0.55484
20
-0.107
30
0.98561
11
0.55034
21
-0.13757
31
0.9856
0
LINE
8
Border
10
0.55034
20
-0.13757
30
0.9856
11
0.5446
21
-0.16814
31
0.98562
0
LINE
8
Border
10
0.5446
20
-0.16814
30
0.98562
11
0.53753
21
-0.19871
31
0.98568
0
LINE
8
Border
10
0.53753
20
-0.19871
30
0.98568
11
0.535
21
-0.20793
31
0.98564
0
LINE
8
Border
10
0.535
20
-0.20793
30
0.98564
11
0.52871
21
-0.22929
31
0.98564
0
LINE
8
Border
10
0.52871
20
-0.22929
30
0.98564
11
0.51811
21
-0.25986
31
0.9856
0
LINE
8
Border
10
0.51811
20
-0.25986
30
0.9856
11
0.50568
21
-0.29043
31
0.9857
0
LINE
8
Border
10
0.50568
20
-0.29043
30
0.9857
11
0.50443
21
-0.29313
31
0.98568
0
LINE
8
Border
10
0.50443
20
-0.29313
30
0.98568
11
0.49043
21
-0.321
31
0.98561
0
LINE
8
Border
10
0.49043
20
-0.321
30
0.98561
11
0.47386
21
-0.34958
31
0.98569
0
LINE
8
Border
10
0.47386
20
-0.34958
30
0.98569
11
0.4726
21
-0.35157
31
0.9857
0
LINE
8
Border
10
0.4726
20
-0.35157
30
0.9857
11
0.45073
21
-0.38214
31
0.98564
0
LINE
8
Border
10
0.45073
20
-0.38214
30
0.98564
11
0.44329
21
-0.39137
31
0.98563
0
LINE
8
Border
10
0.44329
20
-0.39137
30
0.98563
11
0.4242
21
-0.41271
31
0.98562
0
LINE
8
Border
10
0.4242
20
-0.41271
30
0.98562
11
0.41271
21
-0.4242
31
0.98562
0
LINE
8
Border
10
0.41271
20
-0.4242
30
0.98562
11
0.39137
21
-0.44329
31
0.98563
0
LINE
8
Border
10
0.39137
20
-0.44329
30
0.98563
11
0.38214
21
-0.45073
31
0.98564
0
LINE
8
Border
10
0.38214
20
-0.45073
30
0.98564
11
0.35157
21
-0.4726
31
0.9857
0
LINE
8
Border
10
0.35157
20
-0.4726
30
0.9857
11
0.34958
21
-0.47386
31
0.98569
0
LINE
8
Border
10
0.34958
20
-0.47386
30
0.98569
11
0.321
21
-0.49043
31
0.98561
0
LINE
8
Border
10
0.321
20
-0.49043
30
0.98561
11
0.29313
21
-0.50443
31
0.98568
0
LINE
8
Border
10
0.29313
20
-0.50443
30
0.98568
11
0.29043
21
-0.50568
31
0.9857
0
LINE
8
Border
10
0.29043
20
-0.50568
30
0.9857
11
0.25986
21
-0.51811
31
0.9856
0
LINE
8
Border
10
0.25986
20
-0.51811
30
0.9856
11
0.22929
21
-0.52871
31
0.98564
0
LINE
8
Border
10
0.22929
20
-0.52871
30
0.98564
11
0.20793
21
-0.535
31
0.98564
0
LINE
8
Border
10
0.20793
20
-0.535
30
0.98564
11
0.19871
21
-0.53753
31
0.98568
0
LINE
8
Border
10
0.19871
20
-0.53753
30
0.98568
11
0.16814
21
-0.5446
31
0.98562
0
LINE
8
Border
10
0.16814
20
-0.5446
30
0.98562
11
0.13757
21
-0.55034
31
0.9856
0
LINE
8
Border
10
0.13757
20
-0.55034
30
0.9856
11
0.107
21
-0.55484
31
0.98561
0
LINE
8
Border
10
0.107
20
-0.55484
30
0.98561
11
0.07643
21
-0.55816
31
0.98563
0
LINE
8
Border
10
0.07643
20
-0.55816
30
0.98563
11
0.04586
21
-0.56034
31
0.98565
0
ENDSEC
0
EOF
