0
SECTION
2
HEADER
9
$ACADVER
1
AC1006
9
$INSBASE
10
0.0
20
0.0
30
0.0
9
$EXTMIN
10
0.0
20
0.0
9
$EXTMAX
10
0.0
20
0.0
0
ENDSEC
0
SECTION
2
TABLES
0
TABLE
2
LTYPE
70
1
0
LTYPE
2
CONTINUOUS
70
64
3
Solid line
72
65
73
0
40
0.0
0
ENDTAB
0
TABLE
2
LAYER
70
1
0
LAYER
2
PYDXF
70
64
62
7
6
continuous
0
ENDTAB
0
TABLE
2
STYLE
70
1
0
STYLE
2
STANDARD
70
0
40
0
41
40
50
50
71
0
42
1
3
ARIAL.TTF
4

0
ENDTAB
0
TABLE
2
VIEW
70
0
0
ENDTAB
0
ENDSEC
0
SECTION
2
BLOCKS
0
ENDSEC
0
SECTION
2
ENTITIES
0
3DFACE
8
Zagilsky2
10
0.86577676
20
29.98750457
30
31.27344995
11
1.08813208
21
30.44885368
31
31.13629086
12
-6.33485707
22
29.80245473
32
19.29865307
13
-6.52179394
23
29.28252386
33
19.29865307
0
3DFACE
8
Zagilsky2
10
1.08813208
20
30.44885368
30
31.13629086
11
1.60222421
21
30.6203728
31
30.80515952
12
-5.67125103
22
30.13322526
32
19.29865307
13
-6.33485707
23
29.80245473
33
19.29865307
0
3DFACE
8
Zagilsky2
10
1.60222421
20
30.6203728
30
30.80515952
11
2.0956083
21
30.39613705
31
30.47402818
12
-4.9328019
22
30.06632979
32
19.29865307
13
-5.67125103
23
30.13322526
33
19.29865307
0
3DFACE
8
Zagilsky2
10
2.0956083
20
30.39613705
30
30.47402818
11
2.26860058
21
29.91410121
31
30.33686909
12
-4.56964213
22
29.64993037
32
19.29865307
13
-4.9328019
23
30.06632979
33
19.29865307
0
3DFACE
8
Zagilsky2
10
2.26860058
20
29.91410121
30
30.33686909
11
2.03119029
21
29.46177415
31
30.47402818
12
-4.7811699
22
29.14210501
32
19.29865307
13
-4.56964213
23
29.64993037
33
19.29865307
0
3DFACE
8
Zagilsky2
10
2.03119029
20
29.46177415
30
30.47402818
11
1.53301254
21
29.29765696
31
30.80515952
12
-5.42626859
22
28.83155286
32
19.29865307
13
-4.7811699
23
29.14210501
33
19.29865307
0
3DFACE
8
Zagilsky2
10
1.53301254
20
29.29765696
30
30.80515952
11
1.05468341
21
29.51287029
31
31.13629086
12
-6.14012655
22
28.88634134
32
19.29865307
13
-5.42626859
23
28.83155286
33
19.29865307
0
3DFACE
8
Zagilsky2
10
1.05468341
20
29.51287029
30
31.13629086
11
0.86577676
21
29.98750457
31
31.27344995
12
-6.52179394
22
29.28252386
32
19.29865307
13
-6.14012655
23
28.88634134
33
19.29865307
0
3DFACE
8
Zagilsky2
10
17.61618864
20
24.28311961
30
36.23357323
11
17.89117172
21
24.66217136
31
36.03960098
12
1.08813208
22
30.44885368
32
31.13629086
13
0.86577676
23
29.98750457
33
31.27344995
0
3DFACE
8
Zagilsky2
10
17.89117172
20
24.66217136
30
36.03960098
11
18.00507345
21
24.81917974
31
35.57131055
12
1.60222421
22
30.6203728
32
30.80515952
13
1.08813208
23
30.44885368
33
31.13629086
0
3DFACE
8
Zagilsky2
10
18.00507345
20
24.81917974
30
35.57131055
11
17.89117172
21
24.66217136
31
35.10302012
12
2.0956083
22
30.39613705
32
30.47402818
13
1.60222421
23
30.6203728
33
30.80515952
0
3DFACE
8
Zagilsky2
10
17.89117172
20
24.66217136
30
35.10302012
11
17.61618864
21
24.28311961
31
34.90904787
12
2.26860058
22
29.91410121
32
30.33686909
13
2.0956083
23
30.39613705
33
30.47402818
0
3DFACE
8
Zagilsky2
10
17.61618864
20
24.28311961
30
34.90904787
11
17.34120555
21
23.90406786
31
35.10302012
12
2.03119029
22
29.46177415
32
30.47402818
13
2.26860058
23
29.91410121
33
30.33686909
0
3DFACE
8
Zagilsky2
10
17.34120555
20
23.90406786
30
35.10302012
11
17.22730383
21
23.74705948
31
35.57131055
12
1.53301254
22
29.29765696
32
30.80515952
13
2.03119029
23
29.46177415
33
30.47402818
0
3DFACE
8
Zagilsky2
10
17.22730383
20
23.74705948
30
35.57131055
11
17.34120555
21
23.90406786
31
36.03960098
12
1.05468341
22
29.51287029
32
31.13629086
13
1.53301254
23
29.29765696
33
30.80515952
0
3DFACE
8
Zagilsky2
10
17.34120555
20
23.90406786
30
36.03960098
11
17.61618864
21
24.28311961
31
36.23357323
12
0.86577676
22
29.98750457
32
31.27344995
13
1.05468341
23
29.51287029
33
31.13629086
0
3DFACE
8
Zagilsky2
10
28.23780506
20
10.13046719
30
31.27344995
11
28.60735559
21
10.48503352
31
31.13629086
12
17.89117172
22
24.66217136
32
36.03960098
13
17.61618864
23
24.28311961
33
36.23357323
0
3DFACE
8
Zagilsky2
10
28.60735559
20
10.48503352
30
31.13629086
11
28.6108413
21
11.02697206
31
30.80515952
12
18.00507345
22
24.81917974
32
35.57131055
13
17.89117172
23
24.66217136
33
36.03960098
0
3DFACE
8
Zagilsky2
10
28.6108413
20
11.02697206
30
30.80515952
11
28.24454445
21
11.42639184
31
30.47402818
12
17.89117172
22
24.66217136
32
35.10302012
13
18.00507345
23
24.81917974
33
35.57131055
0
3DFACE
8
Zagilsky2
10
28.24454445
20
11.42639184
30
30.47402818
11
27.73262182
21
11.44122751
31
30.33686909
12
17.61618864
22
24.28311961
32
34.90904787
13
17.89117172
23
24.66217136
33
35.10302012
0
3DFACE
8
Zagilsky2
10
27.73262182
20
11.44122751
30
30.33686909
11
27.37632049
21
11.07514995
31
30.47402818
12
17.34120555
22
23.90406786
32
35.10302012
13
17.61618864
23
24.28311961
33
34.90904787
0
3DFACE
8
Zagilsky2
10
27.37632049
20
11.07514995
30
30.47402818
11
27.3749317
21
10.55063721
31
30.80515952
12
17.22730383
22
23.74705948
32
35.57131055
13
17.34120555
23
23.90406786
33
35.10302012
0
3DFACE
8
Zagilsky2
10
27.3749317
20
10.55063721
30
30.80515952
11
27.72797899
21
10.16272854
31
31.13629086
12
17.34120555
22
23.90406786
32
36.03960098
13
17.22730383
23
23.74705948
33
35.57131055
0
3DFACE
8
Zagilsky2
10
27.72797899
20
10.16272854
30
31.13629086
11
28.23780506
21
10.13046719
31
31.27344995
12
17.61618864
22
24.28311961
32
36.23357323
13
17.34120555
23
23.90406786
33
36.03960098
0
3DFACE
8
Zagilsky2
10
29.86057707
20
2.88893352
30
19.29865307
11
30.29680929
21
3.22801308
31
19.29865307
12
28.60735559
22
10.48503352
32
31.13629086
13
28.23780506
23
10.13046719
33
31.27344995
0
3DFACE
8
Zagilsky2
10
30.29680929
20
3.22801308
30
19.29865307
11
30.40527576
21
3.96150961
31
19.29865307
12
28.6108413
22
11.02697206
32
30.80515952
13
28.60735559
23
10.48503352
33
31.13629086
0
3DFACE
8
Zagilsky2
10
30.40527576
20
3.96150961
30
19.29865307
11
30.11248601
21
4.64272638
31
19.29865307
12
28.24454445
22
11.42639184
32
30.47402818
13
28.6108413
23
11.02697206
33
30.80515952
0
3DFACE
8
Zagilsky2
10
30.11248601
20
4.64272638
30
19.29865307
11
29.60393451
21
4.85870987
31
19.29865307
12
27.73262182
22
11.44122751
32
30.33686909
13
28.24454445
23
11.42639184
33
30.47402818
0
3DFACE
8
Zagilsky2
10
29.60393451
20
4.85870987
30
19.29865307
11
29.18684241
21
4.50001116
31
19.29865307
12
27.37632049
22
11.07514995
32
30.47402818
13
27.73262182
23
11.44122751
33
30.33686909
0
3DFACE
8
Zagilsky2
10
29.18684241
20
4.50001116
30
19.29865307
11
29.09185153
21
3.7903833
31
19.29865307
12
27.3749317
22
10.55063721
32
30.80515952
13
27.37632049
23
11.07514995
33
30.47402818
0
3DFACE
8
Zagilsky2
10
29.09185153
20
3.7903833
30
19.29865307
11
29.36549968
21
3.12878548
31
19.29865307
12
27.72797899
22
10.16272854
32
31.13629086
13
27.3749317
23
10.55063721
33
30.80515952
0
3DFACE
8
Zagilsky2
10
29.36549968
20
3.12878548
30
19.29865307
11
29.86057707
21
2.88893352
31
19.29865307
12
28.23780506
22
10.13046719
32
31.27344995
13
27.72797899
23
10.16272854
33
31.13629086
0
3DFACE
8
Zagilsky2
10
28.23780506
20
10.13046719
30
7.32385618
11
28.60735559
21
10.48503352
31
7.46101527
12
30.29680929
22
3.22801308
32
19.29865307
13
29.86057707
23
2.88893352
33
19.29865307
0
3DFACE
8
Zagilsky2
10
28.60735559
20
10.48503352
30
7.46101527
11
28.6108413
21
11.02697206
31
7.79214661
12
30.40527576
22
3.96150961
32
19.29865307
13
30.29680929
23
3.22801308
33
19.29865307
0
3DFACE
8
Zagilsky2
10
28.6108413
20
11.02697206
30
7.79214661
11
28.24454445
21
11.42639184
31
8.12327796
12
30.11248601
22
4.64272638
32
19.29865307
13
30.40527576
23
3.96150961
33
19.29865307
0
3DFACE
8
Zagilsky2
10
28.24454445
20
11.42639184
30
8.12327796
11
27.73262182
21
11.44122751
31
8.26043705
12
29.60393451
22
4.85870987
32
19.29865307
13
30.11248601
23
4.64272638
33
19.29865307
0
3DFACE
8
Zagilsky2
10
27.73262182
20
11.44122751
30
8.26043705
11
27.37632049
21
11.07514995
31
8.12327796
12
29.18684241
22
4.50001116
32
19.29865307
13
29.60393451
23
4.85870987
33
19.29865307
0
3DFACE
8
Zagilsky2
10
27.37632049
20
11.07514995
30
8.12327796
11
27.3749317
21
10.55063721
31
7.79214661
12
29.09185153
22
3.7903833
32
19.29865307
13
29.18684241
23
4.50001116
33
19.29865307
0
3DFACE
8
Zagilsky2
10
27.3749317
20
10.55063721
30
7.79214661
11
27.72797899
21
10.16272854
31
7.46101527
12
29.36549968
22
3.12878548
32
19.29865307
13
29.09185153
23
3.7903833
33
19.29865307
0
3DFACE
8
Zagilsky2
10
27.72797899
20
10.16272854
30
7.46101527
11
28.23780506
21
10.13046719
31
7.32385618
12
29.86057707
22
2.88893352
32
19.29865307
13
29.36549968
23
3.12878548
33
19.29865307
0
3DFACE
8
Zagilsky2
10
17.61618864
20
24.28311961
30
2.3637329
11
17.89117172
21
24.66217136
31
2.55770515
12
28.60735559
22
10.48503352
32
7.46101527
13
28.23780506
23
10.13046719
33
7.32385618
0
3DFACE
8
Zagilsky2
10
17.89117172
20
24.66217136
30
2.55770515
11
18.00507345
21
24.81917974
31
3.02599559
12
28.6108413
22
11.02697206
32
7.79214661
13
28.60735559
23
10.48503352
33
7.46101527
0
3DFACE
8
Zagilsky2
10
18.00507345
20
24.81917974
30
3.02599559
11
17.89117172
21
24.66217136
31
3.49428602
12
28.24454445
22
11.42639184
32
8.12327796
13
28.6108413
23
11.02697206
33
7.79214661
0
3DFACE
8
Zagilsky2
10
17.89117172
20
24.66217136
30
3.49428602
11
17.61618864
21
24.28311961
31
3.68825827
12
27.73262182
22
11.44122751
32
8.26043705
13
28.24454445
23
11.42639184
33
8.12327796
0
3DFACE
8
Zagilsky2
10
17.61618864
20
24.28311961
30
3.68825827
11
17.34120555
21
23.90406786
31
3.49428602
12
27.37632049
22
11.07514995
32
8.12327796
13
27.73262182
23
11.44122751
33
8.26043705
0
3DFACE
8
Zagilsky2
10
17.34120555
20
23.90406786
30
3.49428602
11
17.22730383
21
23.74705948
31
3.02599559
12
27.3749317
22
10.55063721
32
7.79214661
13
27.37632049
23
11.07514995
33
8.12327796
0
3DFACE
8
Zagilsky2
10
17.22730383
20
23.74705948
30
3.02599559
11
17.34120555
21
23.90406786
31
2.55770515
12
27.72797899
22
10.16272854
32
7.46101527
13
27.3749317
23
10.55063721
33
7.79214661
0
3DFACE
8
Zagilsky2
10
17.34120555
20
23.90406786
30
2.55770515
11
17.61618864
21
24.28311961
31
2.3637329
12
28.23780506
22
10.13046719
32
7.32385618
13
27.72797899
23
10.16272854
33
7.46101527
0
3DFACE
8
Zagilsky2
10
0.86577676
20
29.98750457
30
7.32385618
11
1.08813208
21
30.44885368
31
7.46101527
12
17.89117172
22
24.66217136
32
2.55770515
13
17.61618864
23
24.28311961
33
2.3637329
0
3DFACE
8
Zagilsky2
10
1.08813208
20
30.44885368
30
7.46101527
11
1.60222421
21
30.6203728
31
7.79214661
12
18.00507345
22
24.81917974
32
3.02599559
13
17.89117172
23
24.66217136
33
2.55770515
0
3DFACE
8
Zagilsky2
10
1.60222421
20
30.6203728
30
7.79214661
11
2.0956083
21
30.39613705
31
8.12327796
12
17.89117172
22
24.66217136
32
3.49428602
13
18.00507345
23
24.81917974
33
3.02599559
0
3DFACE
8
Zagilsky2
10
2.0956083
20
30.39613705
30
8.12327796
11
2.26860058
21
29.91410121
31
8.26043705
12
17.61618864
22
24.28311961
32
3.68825827
13
17.89117172
23
24.66217136
33
3.49428602
0
3DFACE
8
Zagilsky2
10
2.26860058
20
29.91410121
30
8.26043705
11
2.03119029
21
29.46177415
31
8.12327796
12
17.34120555
22
23.90406786
32
3.49428602
13
17.61618864
23
24.28311961
33
3.68825827
0
3DFACE
8
Zagilsky2
10
2.03119029
20
29.46177415
30
8.12327796
11
1.53301254
21
29.29765696
31
7.79214661
12
17.22730383
22
23.74705948
32
3.02599559
13
17.34120555
23
23.90406786
33
3.49428602
0
3DFACE
8
Zagilsky2
10
1.53301254
20
29.29765696
30
7.79214661
11
1.05468341
21
29.51287029
31
7.46101527
12
17.34120555
22
23.90406786
32
2.55770515
13
17.22730383
23
23.74705948
33
3.02599559
0
3DFACE
8
Zagilsky2
10
1.05468341
20
29.51287029
30
7.46101527
11
0.86577676
21
29.98750457
31
7.32385618
12
17.61618864
22
24.28311961
32
2.3637329
13
17.34120555
23
23.90406786
33
2.55770515
0
3DFACE
8
Zagilsky2
10
-6.52179394
20
29.28252386
30
19.29865307
11
-6.33485707
21
29.80245473
31
19.29865307
12
1.08813208
22
30.44885368
32
7.46101527
13
0.86577676
23
29.98750457
33
7.32385618
0
3DFACE
8
Zagilsky2
10
-6.33485707
20
29.80245473
30
19.29865307
11
-5.67125103
21
30.13322526
31
19.29865307
12
1.60222421
22
30.6203728
32
7.79214661
13
1.08813208
23
30.44885368
33
7.46101527
0
3DFACE
8
Zagilsky2
10
-5.67125103
20
30.13322526
30
19.29865307
11
-4.9328019
21
30.06632979
31
19.29865307
12
2.0956083
22
30.39613705
32
8.12327796
13
1.60222421
23
30.6203728
33
7.79214661
0
3DFACE
8
Zagilsky2
10
-4.9328019
20
30.06632979
30
19.29865307
11
-4.56964213
21
29.64993037
31
19.29865307
12
2.26860058
22
29.91410121
32
8.26043705
13
2.0956083
23
30.39613705
33
8.12327796
0
3DFACE
8
Zagilsky2
10
-4.56964213
20
29.64993037
30
19.29865307
11
-4.7811699
21
29.14210501
31
19.29865307
12
2.03119029
22
29.46177415
32
8.12327796
13
2.26860058
23
29.91410121
33
8.26043705
0
3DFACE
8
Zagilsky2
10
-4.7811699
20
29.14210501
30
19.29865307
11
-5.42626859
21
28.83155286
31
19.29865307
12
1.53301254
22
29.29765696
32
7.79214661
13
2.03119029
23
29.46177415
33
8.12327796
0
3DFACE
8
Zagilsky2
10
-5.42626859
20
28.83155286
30
19.29865307
11
-6.14012655
21
28.88634134
31
19.29865307
12
1.05468341
22
29.51287029
32
7.46101527
13
1.53301254
23
29.29765696
33
7.79214661
0
3DFACE
8
Zagilsky2
10
-6.14012655
20
28.88634134
30
19.29865307
11
-6.52179394
21
29.28252386
31
19.29865307
12
0.86577676
22
29.98750457
32
7.32385618
13
1.05468341
23
29.51287029
33
7.46101527
0
ENDSEC
0
EOF
