0
SECTION
2
HEADER
9
$ACADVER
1
AC1006
9
$INSBASE
10
0.0
20
0.0
30
0.0
9
$EXTMIN
10
0.0
20
0.0
9
$EXTMAX
10
0.0
20
0.0
0
ENDSEC
0
SECTION
2
TABLES
0
TABLE
2
LTYPE
70
1
0
LTYPE
2
CONTINUOUS
70
64
3
Solid line
72
65
73
0
40
0.0
0
ENDTAB
0
TABLE
2
LAYER
70
1
0
LAYER
2
PYDXF
70
64
62
7
6
continuous
0
ENDTAB
0
TABLE
2
STYLE
70
1
0
STYLE
2
STANDARD
70
0
40
0
41
40
50
50
71
0
42
1
3
ARIAL.TTF
4

0
ENDTAB
0
TABLE
2
VIEW
70
0
0
ENDTAB
0
ENDSEC
0
SECTION
2
BLOCKS
0
ENDSEC
0
SECTION
2
ENTITIES
0
3DFACE
8
Zagilsky2
10
-21.96
20
1.27
30
31.27
11
-22.41
21
1.61
31
31.14
12
-20.53
22
-9.13
32
19.3
13
-19.92
23
-9.34
33
19.3
0
3DFACE
8
Zagilsky2
10
-22.41
20
1.61
30
31.14
11
-22.54
21
2.37
31
30.81
12
-21.11
22
-8.25
32
19.3
13
-20.53
23
-9.13
33
19.3
0
3DFACE
8
Zagilsky2
10
-22.54
20
2.37
30
30.81
11
-22.26
21
3.08
31
30.47
12
-21.29
22
-7.18
32
19.3
13
-21.11
23
-8.25
33
19.3
0
3DFACE
8
Zagilsky2
10
-22.26
20
3.08
30
30.47
11
-21.75
21
3.32
31
30.34
12
-20.98
22
-6.61
32
19.3
13
-21.29
23
-7.18
33
19.3
0
3DFACE
8
Zagilsky2
10
-21.75
20
3.32
30
30.34
11
-21.33
21
2.95
31
30.47
12
-20.4
22
-6.88
32
19.3
13
-20.98
23
-6.61
33
19.3
0
3DFACE
8
Zagilsky2
10
-21.33
20
2.95
30
30.47
11
-21.22
21
2.23
31
30.81
12
-19.88
22
-7.76
32
19.3
13
-20.4
23
-6.88
33
19.3
0
3DFACE
8
Zagilsky2
10
-21.22
20
2.23
30
30.81
11
-21.47
21
1.54
31
31.14
12
-19.67
22
-8.75
32
19.3
13
-19.88
23
-7.76
33
19.3
0
3DFACE
8
Zagilsky2
10
-21.47
20
1.54
30
31.14
11
-21.96
21
1.27
31
31.27
12
-19.92
22
-9.34
32
19.3
13
-19.67
23
-8.75
33
19.3
0
3DFACE
8
Zagilsky2
10
-6.82
20
20.92
30
36.23
11
-6.97
21
21.36
31
36.04
12
-22.41
22
1.61
32
31.14
13
-21.96
23
1.27
33
31.27
0
3DFACE
8
Zagilsky2
10
-6.97
20
21.36
30
36.04
11
-7.02
21
21.54
31
35.57
12
-22.54
22
2.37
32
30.81
13
-22.41
23
1.61
33
31.14
0
3DFACE
8
Zagilsky2
10
-7.02
20
21.54
30
35.57
11
-6.97
21
21.36
31
35.1
12
-22.26
22
3.08
32
30.47
13
-22.54
23
2.37
33
30.81
0
3DFACE
8
Zagilsky2
10
-6.97
20
21.36
30
35.1
11
-6.82
21
20.92
31
34.91
12
-21.75
22
3.32
32
30.34
13
-22.26
23
3.08
33
30.47
0
3DFACE
8
Zagilsky2
10
-6.82
20
20.92
30
34.91
11
-6.67
21
20.47
31
35.1
12
-21.33
22
2.95
32
30.47
13
-21.75
23
3.32
33
30.34
0
3DFACE
8
Zagilsky2
10
-6.67
20
20.47
30
35.1
11
-6.62
21
20.29
31
35.57
12
-21.22
22
2.23
32
30.81
13
-21.33
23
2.95
33
30.47
0
3DFACE
8
Zagilsky2
10
-6.62
20
20.29
30
35.57
11
-6.67
21
20.47
31
36.04
12
-21.47
22
1.54
32
31.14
13
-21.22
23
2.23
33
30.81
0
3DFACE
8
Zagilsky2
10
-6.67
20
20.47
30
36.04
11
-6.82
21
20.92
31
36.23
12
-21.96
22
1.27
32
31.27
13
-21.47
23
1.54
33
31.14
0
3DFACE
8
Zagilsky2
10
16.98
20
13.99
30
31.27
11
17.14
21
14.53
31
31.14
12
-6.97
22
21.36
32
36.04
13
-6.82
23
20.92
33
36.23
0
3DFACE
8
Zagilsky2
10
17.14
20
14.53
30
31.14
11
16.79
21
15.21
31
30.81
12
-7.02
22
21.54
32
35.57
13
-6.97
23
21.36
33
36.04
0
3DFACE
8
Zagilsky2
10
16.79
20
15.21
30
30.81
11
16.15
21
15.63
31
30.47
12
-6.97
22
21.36
32
35.1
13
-7.02
23
21.54
33
35.57
0
3DFACE
8
Zagilsky2
10
16.15
20
15.63
30
30.47
11
15.59
21
15.52
31
30.34
12
-6.82
22
20.92
32
34.91
13
-6.97
23
21.36
33
35.1
0
3DFACE
8
Zagilsky2
10
15.59
20
15.52
30
30.34
11
15.47
21
14.97
31
30.47
12
-6.67
22
20.47
32
35.1
13
-6.82
23
20.92
33
34.91
0
3DFACE
8
Zagilsky2
10
15.47
20
14.97
30
30.47
11
15.82
21
14.33
31
30.81
12
-6.62
22
20.29
32
35.57
13
-6.67
23
20.47
33
35.1
0
3DFACE
8
Zagilsky2
10
15.82
20
14.33
30
30.81
11
16.43
21
13.92
31
31.14
12
-6.67
22
20.47
32
36.04
13
-6.62
23
20.29
33
35.57
0
3DFACE
8
Zagilsky2
10
16.43
20
13.92
30
31.14
11
16.98
21
13.99
31
31.27
12
-6.82
22
20.92
32
36.23
13
-6.67
23
20.47
33
36.04
0
3DFACE
8
Zagilsky2
10
21.59
20
4.22
30
19.3
11
21.97
21
4.73
31
19.3
12
17.14
22
14.53
32
31.14
13
16.98
23
13.99
33
31.27
0
3DFACE
8
Zagilsky2
10
21.97
20
4.73
30
19.3
11
21.9
21
5.8
31
19.3
12
16.79
22
15.21
32
30.81
13
17.14
23
14.53
33
31.14
0
3DFACE
8
Zagilsky2
10
21.9
20
5.8
30
19.3
11
21.43
21
6.77
31
19.3
12
16.15
22
15.63
32
30.47
13
16.79
23
15.21
33
30.81
0
3DFACE
8
Zagilsky2
10
21.43
20
6.77
30
19.3
11
20.85
21
7.02
31
19.3
12
15.59
22
15.52
32
30.34
13
16.15
23
15.63
33
30.47
0
3DFACE
8
Zagilsky2
10
20.85
20
7.02
30
19.3
11
20.53
21
6.49
31
19.3
12
15.47
22
14.97
32
30.47
13
15.59
23
15.52
33
30.34
0
3DFACE
8
Zagilsky2
10
20.53
20
6.49
30
19.3
11
20.63
21
5.47
31
19.3
12
15.82
22
14.33
32
30.81
13
15.47
23
14.97
33
30.47
0
3DFACE
8
Zagilsky2
10
20.63
20
5.47
30
19.3
11
21.05
21
4.53
31
19.3
12
16.43
22
13.92
32
31.14
13
15.82
23
14.33
33
30.81
0
3DFACE
8
Zagilsky2
10
21.05
20
4.53
30
19.3
11
21.59
21
4.22
31
19.3
12
16.98
22
13.99
32
31.27
13
16.43
23
13.92
33
31.14
0
3DFACE
8
Zagilsky2
10
16.98
20
13.99
30
7.32
11
17.14
21
14.53
31
7.46
12
21.97
22
4.73
32
19.3
13
21.59
23
4.22
33
19.3
0
3DFACE
8
Zagilsky2
10
17.14
20
14.53
30
7.46
11
16.79
21
15.21
31
7.79
12
21.9
22
5.8
32
19.3
13
21.97
23
4.73
33
19.3
0
3DFACE
8
Zagilsky2
10
16.79
20
15.21
30
7.79
11
16.15
21
15.63
31
8.12
12
21.43
22
6.77
32
19.3
13
21.9
23
5.8
33
19.3
0
3DFACE
8
Zagilsky2
10
16.15
20
15.63
30
8.12
11
15.59
21
15.52
31
8.26
12
20.85
22
7.02
32
19.3
13
21.43
23
6.77
33
19.3
0
3DFACE
8
Zagilsky2
10
15.59
20
15.52
30
8.26
11
15.47
21
14.97
31
8.12
12
20.53
22
6.49
32
19.3
13
20.85
23
7.02
33
19.3
0
3DFACE
8
Zagilsky2
10
15.47
20
14.97
30
8.12
11
15.82
21
14.33
31
7.79
12
20.63
22
5.47
32
19.3
13
20.53
23
6.49
33
19.3
0
3DFACE
8
Zagilsky2
10
15.82
20
14.33
30
7.79
11
16.43
21
13.92
31
7.46
12
21.05
22
4.53
32
19.3
13
20.63
23
5.47
33
19.3
0
3DFACE
8
Zagilsky2
10
16.43
20
13.92
30
7.46
11
16.98
21
13.99
31
7.32
12
21.59
22
4.22
32
19.3
13
21.05
23
4.53
33
19.3
0
3DFACE
8
Zagilsky2
10
-6.82
20
20.92
30
2.36
11
-6.97
21
21.36
31
2.56
12
17.14
22
14.53
32
7.46
13
16.98
23
13.99
33
7.32
0
3DFACE
8
Zagilsky2
10
-6.97
20
21.36
30
2.56
11
-7.02
21
21.54
31
3.03
12
16.79
22
15.21
32
7.79
13
17.14
23
14.53
33
7.46
0
3DFACE
8
Zagilsky2
10
-7.02
20
21.54
30
3.03
11
-6.97
21
21.36
31
3.49
12
16.15
22
15.63
32
8.12
13
16.79
23
15.21
33
7.79
0
3DFACE
8
Zagilsky2
10
-6.97
20
21.36
30
3.49
11
-6.82
21
20.92
31
3.69
12
15.59
22
15.52
32
8.26
13
16.15
23
15.63
33
8.12
0
3DFACE
8
Zagilsky2
10
-6.82
20
20.92
30
3.69
11
-6.67
21
20.47
31
3.49
12
15.47
22
14.97
32
8.12
13
15.59
23
15.52
33
8.26
0
3DFACE
8
Zagilsky2
10
-6.67
20
20.47
30
3.49
11
-6.62
21
20.29
31
3.03
12
15.82
22
14.33
32
7.79
13
15.47
23
14.97
33
8.12
0
3DFACE
8
Zagilsky2
10
-6.62
20
20.29
30
3.03
11
-6.67
21
20.47
31
2.56
12
16.43
22
13.92
32
7.46
13
15.82
23
14.33
33
7.79
0
3DFACE
8
Zagilsky2
10
-6.67
20
20.47
30
2.56
11
-6.82
21
20.92
31
2.36
12
16.98
22
13.99
32
7.32
13
16.43
23
13.92
33
7.46
0
3DFACE
8
Zagilsky2
10
-21.96
20
1.27
30
7.32
11
-22.41
21
1.61
31
7.46
12
-6.97
22
21.36
32
2.56
13
-6.82
23
20.92
33
2.36
0
3DFACE
8
Zagilsky2
10
-22.41
20
1.61
30
7.46
11
-22.54
21
2.37
31
7.79
12
-7.02
22
21.54
32
3.03
13
-6.97
23
21.36
33
2.56
0
3DFACE
8
Zagilsky2
10
-22.54
20
2.37
30
7.79
11
-22.26
21
3.08
31
8.12
12
-6.97
22
21.36
32
3.49
13
-7.02
23
21.54
33
3.03
0
3DFACE
8
Zagilsky2
10
-22.26
20
3.08
30
8.12
11
-21.75
21
3.32
31
8.26
12
-6.82
22
20.92
32
3.69
13
-6.97
23
21.36
33
3.49
0
3DFACE
8
Zagilsky2
10
-21.75
20
3.32
30
8.26
11
-21.33
21
2.95
31
8.12
12
-6.67
22
20.47
32
3.49
13
-6.82
23
20.92
33
3.69
0
3DFACE
8
Zagilsky2
10
-21.33
20
2.95
30
8.12
11
-21.22
21
2.23
31
7.79
12
-6.62
22
20.29
32
3.03
13
-6.67
23
20.47
33
3.49
0
3DFACE
8
Zagilsky2
10
-21.22
20
2.23
30
7.79
11
-21.47
21
1.54
31
7.46
12
-6.67
22
20.47
32
2.56
13
-6.62
23
20.29
33
3.03
0
3DFACE
8
Zagilsky2
10
-21.47
20
1.54
30
7.46
11
-21.96
21
1.27
31
7.32
12
-6.82
22
20.92
32
2.36
13
-6.67
23
20.47
33
2.56
0
3DFACE
8
Zagilsky2
10
-19.92
20
-9.34
30
19.3
11
-20.53
21
-9.13
31
19.3
12
-22.41
22
1.61
32
7.46
13
-21.96
23
1.27
33
7.32
0
3DFACE
8
Zagilsky2
10
-20.53
20
-9.13
30
19.3
11
-21.11
21
-8.25
31
19.3
12
-22.54
22
2.37
32
7.79
13
-22.41
23
1.61
33
7.46
0
3DFACE
8
Zagilsky2
10
-21.11
20
-8.25
30
19.3
11
-21.29
21
-7.18
31
19.3
12
-22.26
22
3.08
32
8.12
13
-22.54
23
2.37
33
7.79
0
3DFACE
8
Zagilsky2
10
-21.29
20
-7.18
30
19.3
11
-20.98
21
-6.61
31
19.3
12
-21.75
22
3.32
32
8.26
13
-22.26
23
3.08
33
8.12
0
3DFACE
8
Zagilsky2
10
-20.98
20
-6.61
30
19.3
11
-20.4
21
-6.88
31
19.3
12
-21.33
22
2.95
32
8.12
13
-21.75
23
3.32
33
8.26
0
3DFACE
8
Zagilsky2
10
-20.4
20
-6.88
30
19.3
11
-19.88
21
-7.76
31
19.3
12
-21.22
22
2.23
32
7.79
13
-21.33
23
2.95
33
8.12
0
3DFACE
8
Zagilsky2
10
-19.88
20
-7.76
30
19.3
11
-19.67
21
-8.75
31
19.3
12
-21.47
22
1.54
32
7.46
13
-21.22
23
2.23
33
7.79
0
3DFACE
8
Zagilsky2
10
-19.67
20
-8.75
30
19.3
11
-19.92
21
-9.34
31
19.3
12
-21.96
22
1.27
32
7.32
13
-21.47
23
1.54
33
7.46
0
ENDSEC
0
EOF
